<svg width="381" height="405" viewBox="0 0 381 405" fill="none" xmlns="http://www.w3.org/2000/svg">
<path d="M16.5791 353.922L0.0390625 376.38L27.8911 397.108C29.7319 394.347 19.2667 378.258 19.2667 378.258L30.4591 364.304L16.5791 353.922Z" fill="#455A64"/>
<path d="M11.5885 370.655C11.2609 370.536 10.9008 370.543 10.5778 370.673C10.2548 370.804 9.99176 371.05 9.83965 371.364C9.71028 371.689 9.70968 372.05 9.83798 372.375C9.96627 372.7 10.2138 372.964 10.53 373.113C10.877 373.235 11.257 373.225 11.5968 373.084C11.9366 372.943 12.2123 372.681 12.3708 372.349C12.4725 371.996 12.4334 371.618 12.2617 371.293C12.0901 370.969 11.7992 370.724 11.4504 370.609" fill="white"/>
<path d="M0 376.436L1.75801 374.024L27.7784 394.973C27.7784 394.973 28.6068 396.446 27.7784 397.21L0 376.436Z" fill="#263238"/>
<path d="M19.8729 378.461C19.7717 378.599 19.0446 378.157 18.0321 378.093C17.0196 378.028 16.2557 378.341 16.1912 378.194C16.1268 378.047 16.9 377.411 18.0965 377.503C19.2931 377.596 19.9466 378.359 19.8729 378.461Z" fill="#263238"/>
<path d="M21.8506 381.848C21.7769 382.004 21.0222 381.793 20.1294 382.023C19.2366 382.253 18.6567 382.768 18.5186 382.658C18.3806 382.547 18.8776 381.737 19.9913 381.452C21.105 381.167 21.9426 381.719 21.8506 381.848Z" fill="#263238"/>
<path d="M20.9014 386.579C20.7542 386.514 21.0763 385.658 21.9783 385.207C22.8803 384.756 23.7363 384.903 23.7087 385.06C23.6811 385.216 22.9908 385.318 22.2636 385.732C21.5365 386.146 21.0487 386.661 20.9014 386.579Z" fill="#263238"/>
<path d="M22.023 375C21.8665 375.083 21.3879 374.429 20.5779 373.914C19.7679 373.398 18.9948 373.187 19.004 372.993C19.0132 372.8 19.9244 372.763 20.9001 373.389C21.8757 374.015 22.1702 374.945 22.023 375Z" fill="#263238"/>
<path d="M83.9152 259.91C84.4122 262.727 85.2038 286.685 85.71 299.323C86.2163 311.96 84.9553 318.173 83.5102 321.008C82.0651 323.843 27.5668 364.001 23.4157 373.619L9.60938 362.491C9.60938 362.491 29.8587 326.144 38.4923 319.535C47.1259 312.927 63.7395 306.861 63.7395 306.861L59.0177 237.654L81.6509 236.421L83.9152 259.91Z" fill="#263238"/>
<path d="M33.2627 376.132L33.0234 403.993L67.7326 404.472C67.5762 401.158 49.7107 394.246 49.7107 394.246L50.6311 376.38L33.2627 376.132Z" fill="#455A64"/>
<path d="M38.9964 392.635C38.6614 392.732 38.374 392.949 38.1889 393.244C38.0038 393.54 37.9341 393.893 37.9931 394.237C38.0785 394.575 38.2898 394.869 38.584 395.057C38.8782 395.245 39.233 395.314 39.5762 395.249C39.9299 395.144 40.2324 394.912 40.426 394.598C40.6196 394.284 40.6906 393.91 40.6255 393.546C40.5022 393.202 40.2497 392.919 39.9216 392.758C39.5936 392.597 39.2155 392.569 38.8675 392.681" fill="white"/>
<path d="M33.0156 404.094V401.103L66.381 402.833C66.381 402.833 67.9089 403.542 67.7156 404.628L33.0156 404.094Z" fill="#263238"/>
<path d="M50.2479 394.117C50.2479 394.292 49.3919 394.356 48.5543 394.89C47.7167 395.424 47.2565 396.124 47.1 396.059C46.9436 395.995 47.2105 395.01 48.2413 394.384C49.2722 393.758 50.3215 393.96 50.2479 394.117Z" fill="#263238"/>
<path d="M53.9246 395.709C53.9246 395.875 53.2159 396.151 52.636 396.86C52.0562 397.569 51.8721 398.333 51.7156 398.314C51.5591 398.296 51.4487 397.348 52.1942 396.473C52.9398 395.599 53.9246 395.516 53.9246 395.709Z" fill="#263238"/>
<path d="M55.9067 400.063C55.7503 400.063 55.5294 399.244 55.9712 398.323C56.413 397.403 57.2229 397.044 57.2874 397.182C57.3518 397.32 56.864 397.817 56.505 398.581C56.146 399.345 56.0724 400.044 55.9067 400.063Z" fill="#263238"/>
<path d="M50.0279 390.021C49.9542 390.178 49.1811 389.929 48.187 390.021C47.193 390.113 46.475 390.362 46.3462 390.215C46.2173 390.067 46.9813 389.478 48.1134 389.432C49.2455 389.386 50.1107 389.892 50.0279 390.021Z" fill="#263238"/>
<path d="M86.4163 233.558C86.4163 235.187 89.0579 276.432 75.5737 306.272C75.5737 306.272 70.9071 315.605 70.0511 319.682C69.1952 323.76 51.7531 391.393 51.7531 391.393L31.5958 390.656C31.5958 390.656 28.3743 356.775 31.5958 337.161C34.8173 317.547 40.8001 319.848 40.8001 307.183C40.8001 294.518 37.7903 268.258 37.7903 268.258C37.7903 268.258 33.3907 261.088 31.8904 247.181C30.6662 235.887 35.9863 223.783 35.9863 223.783L41.2419 214.478L85.7076 212.149L86.4163 233.558Z" fill="#263238"/>
<path d="M86.4172 233.558C86.4172 233.558 86.4172 233.08 86.4172 232.15C86.4172 231.22 86.362 229.84 86.3252 228.027C86.2423 224.391 86.1043 219.034 85.9386 212.112V212.011H85.8282L41.3625 214.275H41.2704L41.2152 214.358C39.5861 217.248 37.7912 220.405 35.9504 223.664C34.5813 226.967 33.5123 230.386 32.7565 233.88C31.9215 237.56 31.5474 241.329 31.6428 245.1C31.923 249.039 32.5388 252.947 33.4837 256.781C34.3951 260.806 35.8277 264.695 37.7452 268.35V268.258C38.5092 275.125 39.2179 282.24 39.8162 289.566C40.1107 293.248 40.3684 296.93 40.5525 300.712C40.6445 302.553 40.7182 304.486 40.7274 306.391C40.7274 307.312 40.7274 308.297 40.6722 309.245C40.6066 310.195 40.4899 311.142 40.3224 312.08C39.9456 313.969 39.2781 315.789 38.3435 317.473C37.4231 319.195 36.5026 320.897 35.5822 322.692C33.9153 326.335 32.7005 330.168 31.9649 334.105C30.3634 342.021 30.0413 350.25 29.9492 358.543C29.9492 369.487 30.4647 380.237 31.3667 390.629V390.85H31.5784L51.7357 391.586H51.9289L51.975 391.393C57.8197 368.741 63.2686 347.571 68.0732 328.537L69.8128 321.496C70.1165 320.327 70.3098 319.167 70.6688 318.062C71.0277 316.958 71.4327 315.863 71.8561 314.795C72.7213 312.66 73.697 310.589 74.6174 308.573L75.3353 307.073C75.5903 306.583 75.8177 306.079 76.0164 305.563C76.4306 304.541 76.8448 303.538 77.259 302.535C80.1214 295.112 82.2516 287.426 83.6191 279.589C85.5904 268.423 86.6065 257.11 86.6565 245.772C86.7118 237.838 86.3896 233.531 86.3896 233.531C86.3896 233.531 86.3896 233.798 86.3896 234.322C86.3896 234.847 86.3896 235.648 86.4448 236.679C86.5001 238.75 86.5369 241.805 86.4448 245.772C86.3597 257.101 85.3345 268.402 83.3798 279.561C81.9807 287.374 79.8228 295.031 76.9369 302.424L75.7035 305.434C75.501 305.95 75.2709 306.438 75.0224 306.935C74.7739 307.432 74.5346 307.938 74.2952 308.444C73.3748 310.46 72.3992 312.531 71.534 314.675C71.1014 315.752 70.6872 316.848 70.3282 317.97C69.9693 319.093 69.7576 320.281 69.463 321.422C68.8832 323.741 68.3033 326.079 67.705 328.463C62.8176 347.479 57.3779 368.649 51.5516 391.301L51.7909 391.126L31.6336 390.38L31.8729 390.601C30.9525 380.228 30.4186 369.487 30.4555 358.561C30.5475 350.277 30.8696 342.086 32.462 334.225C33.1953 330.324 34.3975 326.526 36.0424 322.913C36.8708 321.137 37.8833 319.452 38.8037 317.704C39.7321 315.973 40.3901 314.111 40.755 312.181C40.9295 311.222 41.0494 310.254 41.114 309.282C41.114 308.361 41.206 307.349 41.1692 306.401C41.1692 304.486 41.0863 302.581 40.9943 300.694C40.8102 296.92 40.5433 293.202 40.2396 289.539C39.6259 282.175 38.9295 275.066 38.1502 268.212V268.157C36.2321 264.549 34.7932 260.706 33.8702 256.725C32.9307 252.918 32.3149 249.039 32.0294 245.128C31.9303 241.391 32.2951 237.656 33.1155 234.009C33.8571 230.55 34.9012 227.162 36.2357 223.885L41.4821 214.57L41.3349 214.662L85.8005 212.26L85.6809 212.158C85.9018 219.071 86.0675 224.428 86.1779 228.063C86.2423 229.904 86.2884 231.248 86.3252 232.187C86.362 233.126 86.4172 233.558 86.4172 233.558Z" fill="#455A64"/>
<path d="M71.9562 149.1C71.9562 149.1 59.9907 146.983 61.1044 162.382C61.804 171.586 64.51 187.381 66.0103 197.459C66.5257 200.948 67.6671 207.188 72.2784 210.851L105.322 233.715L115.75 221.243L86.2412 193.142L81.6391 165.346L71.9562 149.1Z" fill="#455A64"/>
<path d="M73.3653 93.5986C75.2619 95.1258 76.7625 97.0877 77.7398 99.318C78.7172 101.548 79.1426 103.981 78.9799 106.411C78.7958 108.767 78.1423 111.446 79.6794 113.24C81.2165 115.035 84.1619 114.971 85.6161 116.793C87.3189 118.947 85.8923 122.15 86.5366 124.829C86.865 126.08 87.6277 127.173 88.6884 127.913C89.7491 128.654 91.0385 128.993 92.326 128.869C89.3054 131.341 85.6623 132.933 81.7964 133.471L78.7774 129.707C79.9003 131.032 79.5966 133.14 78.5197 134.493C77.3498 135.752 75.8413 136.647 74.1753 137.07C70.21 138.29 66.0168 138.578 61.9219 137.913C57.827 137.247 53.941 135.645 50.5664 133.232" fill="#263238"/>
<path d="M29.1597 114.373C29.7488 112.532 30.7429 110.903 31.1386 109.053C31.9854 105.067 30.0433 100.575 31.9762 96.9858C33.3569 94.4362 36.2838 93.1844 39.0635 92.3284C41.8432 91.4724 44.8069 90.7545 46.8779 88.7204C48.3874 87.2293 49.2526 85.1675 50.7621 83.6764C52.9159 81.541 56.1005 80.8139 59.1195 80.6298C62.2369 80.3286 65.3792 80.8391 68.2409 82.1117C69.6619 82.76 70.9105 83.7335 71.8859 84.9534C72.8612 86.1734 73.5359 87.6057 73.8555 89.1345C74.0948 90.6256 73.9107 92.1996 74.3894 93.6446C74.9048 95.2278 76.1474 96.4611 76.9205 97.943C77.6949 99.5344 77.9189 101.338 77.5574 103.07C77.1959 104.803 76.2694 106.366 74.9232 107.515L53.5878 135.073C49.1053 136.766 38.2443 134.723 34.7835 131.391C31.3227 128.059 27.6778 118.929 29.1597 114.373Z" fill="#263238"/>
<path d="M74.3597 104.018C73.4392 97.7588 68.7175 90.3678 62.5046 91.5092L43.323 97.9521C41.4821 98.3019 42.7891 101.385 42.9732 103.291L47.1427 146.551C47.1427 146.551 44.5471 148.391 43.6267 148.042C43.5743 148.023 43.5175 148.022 43.4642 148.037C43.4108 148.053 43.3637 148.084 43.3292 148.128C43.2948 148.172 43.2748 148.225 43.272 148.28C43.2693 148.336 43.2838 148.391 43.3138 148.437C45.6424 151.797 56.4942 166.404 67.7326 161.922C70.2362 160.918 67.4657 153.03 67.7326 150.113L67.4012 142.648C67.1527 138.837 67.0331 137.273 67.0331 137.309C67.0331 137.346 74.9671 135.358 75.8231 124.746C76.2557 119.49 75.3353 110.967 74.3597 104.018Z" fill="#FFBF9D"/>
<path d="M73.0306 113.645C73.0591 113.996 72.9502 114.343 72.7268 114.615C72.5035 114.886 72.1833 115.06 71.834 115.1C71.6639 115.127 71.49 115.12 71.3226 115.079C71.1553 115.038 70.9978 114.964 70.8597 114.861C70.7215 114.758 70.6054 114.628 70.5182 114.479C70.431 114.331 70.3746 114.166 70.3521 113.995C70.3236 113.645 70.4325 113.297 70.6559 113.026C70.8792 112.754 71.1994 112.58 71.5487 112.541C71.7188 112.514 71.8927 112.521 72.0601 112.562C72.2274 112.603 72.3848 112.677 72.523 112.78C72.6612 112.883 72.7773 113.013 72.8645 113.161C72.9516 113.31 73.0081 113.475 73.0306 113.645Z" fill="#263238"/>
<path d="M59.9549 114.465C59.986 114.814 59.8792 115.162 59.6573 115.434C59.4355 115.705 59.1162 115.88 58.7676 115.919C58.5976 115.945 58.4241 115.937 58.2573 115.895C58.0904 115.854 57.9335 115.779 57.7956 115.677C57.6577 115.574 57.5417 115.445 57.4541 115.297C57.3666 115.149 57.3093 114.985 57.2857 114.814C57.2572 114.464 57.3661 114.116 57.5895 113.845C57.8128 113.574 58.133 113.4 58.4823 113.36C58.6519 113.333 58.8253 113.34 58.992 113.381C59.1588 113.422 59.3156 113.497 59.4531 113.6C59.5905 113.703 59.7058 113.833 59.792 113.981C59.8782 114.13 59.9336 114.294 59.9549 114.465Z" fill="#263238"/>
<path d="M73.5028 109.209C73.3555 109.457 72.1038 108.666 70.539 108.896C68.9743 109.126 67.971 110.194 67.7778 110C67.5845 109.807 67.7778 109.485 68.2288 108.997C68.7951 108.361 69.5694 107.948 70.4128 107.832C71.2562 107.716 72.1135 107.904 72.8309 108.362C73.3463 108.721 73.5764 109.098 73.5028 109.209Z" fill="#263238"/>
<path d="M59.4513 110.378C59.2672 110.608 58.043 109.715 56.3586 109.789C54.6743 109.862 53.4777 110.811 53.2844 110.599C53.0911 110.387 53.3673 110.102 53.8919 109.678C54.5806 109.11 55.4385 108.786 56.331 108.758C57.2193 108.723 58.0938 108.985 58.8162 109.504C59.3408 109.881 59.5341 110.267 59.4513 110.378Z" fill="#263238"/>
<path d="M64.7259 120.291C65.4691 119.988 66.2489 119.783 67.0454 119.683C67.4043 119.619 67.7541 119.518 67.7909 119.26C67.7957 118.875 67.6798 118.499 67.4595 118.183C67.0454 117.318 66.6128 116.407 66.1525 115.422C64.3117 111.528 62.9771 108.325 63.1336 108.252C63.29 108.178 64.9008 111.271 66.7232 115.155C67.165 116.121 67.5884 116.996 67.9842 117.916C68.2534 118.343 68.3611 118.853 68.2879 119.352C68.2458 119.487 68.1732 119.61 68.0758 119.712C67.9785 119.814 67.8589 119.893 67.7265 119.941C67.527 120.009 67.3199 120.053 67.1098 120.07C66.3267 120.238 65.5265 120.312 64.7259 120.291Z" fill="#263238"/>
<path d="M67.0366 137.328C62.1077 137.78 57.1498 136.856 52.7148 134.659C52.7148 134.659 56.8107 141.746 67.2207 139.96L67.0366 137.328Z" fill="#FF9A6C"/>
<path d="M60.3151 124.507C60.4793 124.143 60.7326 123.826 61.0515 123.586C61.4418 123.401 61.8849 123.358 62.3033 123.466C62.9249 123.557 63.5 123.848 63.9416 124.295C64.1583 124.52 64.311 124.8 64.3838 125.104C64.4566 125.408 64.4469 125.726 64.3558 126.025C64.1901 126.633 63.2881 126.946 62.6714 127.075C62.0326 127.168 61.3812 127.034 60.8306 126.697C60.5911 126.588 60.382 126.422 60.2215 126.213C60.0611 126.005 59.9542 125.76 59.9102 125.501C59.951 125.138 60.0911 124.794 60.3151 124.507Z" fill="#FF9A6C"/>
<path d="M60.6123 122.472C60.8424 122.472 60.9712 124.01 62.3979 125.022C63.8245 126.034 65.4813 125.731 65.5089 125.942C65.5365 126.154 65.1684 126.274 64.4596 126.347C63.54 126.432 62.6203 126.187 61.864 125.657C61.1343 125.154 60.6318 124.383 60.465 123.512C60.373 122.877 60.5018 122.472 60.6123 122.472Z" fill="#263238"/>
<path d="M59.3245 104.718C59.2049 105.113 57.7506 105.04 56.0662 105.38C54.3818 105.721 53.0472 106.301 52.7987 105.942C52.6883 105.785 52.8908 105.399 53.4154 104.975C54.1182 104.452 54.9317 104.096 55.7935 103.937C56.6552 103.777 57.542 103.818 58.3857 104.055C59.03 104.239 59.3705 104.524 59.3245 104.718Z" fill="#263238"/>
<path d="M72.6152 103.935C72.3482 104.285 71.1885 104.036 69.8539 104.128C68.5193 104.22 67.3411 104.542 67.0466 104.22C66.9177 104.064 67.0466 103.714 67.5528 103.364C68.2184 102.926 68.9927 102.68 69.7895 102.656C70.5812 102.599 71.3728 102.768 72.0721 103.143C72.5507 103.42 72.7348 103.751 72.6152 103.935Z" fill="#263238"/>
<path d="M39.0824 99.4616C40.0028 97.9705 41.7884 97.2066 43.4452 96.5715C50.6004 93.8087 58.0593 91.9084 65.6642 90.9109C66.5846 92.4664 65.7378 94.5926 64.3112 95.7247C62.8845 96.8568 61.0437 97.3078 59.3409 97.9429C57.6381 98.578 55.8801 99.5721 55.1714 101.256C54.4627 102.941 55.0609 105.159 54.3982 106.981C53.2661 110.129 48.8757 111.142 47.7804 114.28C46.9336 116.664 48.3142 119.196 48.7008 121.699C48.8776 122.97 48.7813 124.263 48.4184 125.494C48.0554 126.724 47.4343 127.863 46.5962 128.834C45.7582 129.806 44.7227 130.587 43.5587 131.126C42.3947 131.666 41.1291 131.95 39.8463 131.962C39.3309 122.948 38.8124 113.94 38.2908 104.938C38.1343 103.06 38.0607 101.036 39.0824 99.4616Z" fill="#263238"/>
<path d="M20.9312 122.224C22.3578 120.944 24.1435 119.84 24.7049 118.017C25.5333 115.357 23.3979 112.237 24.7786 109.816C26.0303 107.607 29.7212 107.727 30.8902 105.472C31.8106 103.705 30.7521 102.149 31.0927 100.603C31.4332 99.0566 33.6422 97.7036 35.207 97.8877L47.4854 115.716C48.6267 121.699 49.7773 124.921 48.4979 128.381C47.6517 130.245 47.0128 132.195 46.5926 134.198C46.3165 136.223 46.8411 138.515 48.4887 139.721C41.1253 140.301 34.2405 136.453 27.8712 132.726L21.1613 128.786C20.4268 128.435 19.7934 127.903 19.3204 127.24C18.3172 125.602 19.5137 123.494 20.9312 122.224Z" fill="#263238"/>
<path d="M27.7148 130.913C27.9718 130.995 28.2374 131.048 28.5064 131.069C29.2742 131.143 30.049 131.087 30.7983 130.904C31.9944 130.617 33.0951 130.024 33.9921 129.182C35.177 128.042 35.9203 126.52 36.0907 124.884C36.2014 123.936 36.12 122.975 35.8514 122.058C35.5214 121.082 35.0633 120.153 34.4892 119.297C33.8804 118.428 33.4057 117.472 33.0809 116.462C32.9084 115.946 32.8544 115.397 32.9229 114.857C32.9915 114.317 33.1807 113.799 33.4767 113.342C34.1394 112.421 35.382 112.228 36.5417 111.768C37.1681 111.543 37.7129 111.136 38.1064 110.599C38.4688 110.025 38.6455 109.353 38.6127 108.675C38.4535 107.376 38.1731 106.094 37.7751 104.846C37.6338 104.241 37.6338 103.611 37.7751 103.006C37.9372 102.395 38.3127 101.863 38.8336 101.505C39.9535 100.86 41.2225 100.517 42.5153 100.511C43.8532 100.467 45.158 100.084 46.3074 99.3975C47.4258 98.7157 48.3337 97.7377 48.9306 96.5718C49.4205 95.4523 49.7311 94.2626 49.851 93.0465C49.9787 91.9208 50.2192 90.8107 50.569 89.733C50.9566 88.7529 51.5462 87.8654 52.2994 87.1282C53.6886 85.81 55.482 84.9992 57.3893 84.8271C58.9796 84.6912 60.5758 85.0104 61.9914 85.7476C63.0562 86.2924 64.016 87.0216 64.8263 87.9014C65.5035 88.6693 66.0903 89.5124 66.5751 90.4141C66.5751 90.4141 66.5751 90.3497 66.5107 90.2208C66.4352 90.0381 66.3491 89.8598 66.253 89.687C65.9016 89.0188 65.4721 88.3947 64.9736 87.8277C64.1639 86.9126 63.1977 86.149 62.1203 85.5727C60.6898 84.7864 59.0642 84.4255 57.4353 84.5326C55.4365 84.679 53.5486 85.5076 52.0877 86.8797C51.2828 87.6571 50.6549 88.599 50.2468 89.641C49.8819 90.7386 49.629 91.8704 49.4921 93.0189C49.3644 94.1951 49.0538 95.3441 48.5717 96.4245C48.0104 97.5109 47.164 98.4241 46.1233 99.0661C45.0267 99.7094 43.7861 100.067 42.5153 100.106C41.1303 100.103 39.7698 100.472 38.5758 101.174C37.9785 101.58 37.5473 102.188 37.3609 102.886C37.1996 103.567 37.1996 104.276 37.3609 104.957C37.7507 106.181 38.028 107.438 38.1893 108.712C38.2272 109.304 38.0792 109.893 37.7659 110.397C37.4103 110.863 36.9278 111.218 36.376 111.418C35.833 111.648 35.2439 111.805 34.6733 112.044C34.079 112.268 33.555 112.646 33.1546 113.139C32.8295 113.648 32.6212 114.222 32.5448 114.82C32.4684 115.419 32.5258 116.027 32.7127 116.6C33.0574 117.643 33.5536 118.629 34.1854 119.527C34.7461 120.341 35.1949 121.226 35.52 122.16C35.7808 123.03 35.8684 123.943 35.7778 124.847C35.6269 126.421 34.9301 127.893 33.8081 129.008C32.9492 129.839 31.8904 130.435 30.7338 130.738C29.7489 130.995 28.7228 131.055 27.7148 130.913Z" fill="#455A64"/>
<path d="M17.905 118.239C17.7846 118.419 17.7031 118.623 17.6657 118.837C17.5433 119.468 17.6545 120.122 17.9786 120.678C18.2032 121.074 18.5187 121.412 18.899 121.663C19.3732 121.949 19.9189 122.096 20.473 122.086C21.1463 122.071 21.8027 121.872 22.3707 121.51C22.9387 121.148 23.3966 120.638 23.6944 120.033C24.0446 119.34 24.2244 118.573 24.2191 117.797C24.1968 116.962 24.0222 116.139 23.7037 115.367C23.1238 113.775 22.0561 112.219 22.0377 110.36C22.0029 109.902 22.0608 109.442 22.2078 109.007C22.3549 108.572 22.5882 108.171 22.8937 107.829C23.64 107.212 24.5989 106.915 25.5629 107C26.6357 107.079 27.7139 106.966 28.7476 106.669C29.2892 106.448 29.7469 106.062 30.0546 105.564C30.3508 105.07 30.5361 104.517 30.5976 103.944C30.6507 102.845 30.5609 101.744 30.3307 100.668C30.1659 99.6577 30.2256 98.6238 30.5056 97.6395C31.0273 95.7606 32.2494 94.1531 33.9204 93.1479C35.5065 92.3399 37.2674 91.9353 39.0471 91.9697C40.6288 91.9733 42.201 91.7247 43.7045 91.2334C44.9268 90.7848 46.0472 90.0963 46.9996 89.2084C47.7289 88.5346 48.3499 87.7523 48.8404 86.889C49.2722 86.1729 49.5686 85.3836 49.7148 84.5603C49.4408 85.3374 49.0989 86.0889 48.6932 86.8061C47.5336 88.7414 45.7474 90.2223 43.6308 91.0033C42.14 91.4594 40.5877 91.6829 39.0287 91.666C37.1972 91.6144 35.3816 92.0193 33.7455 92.8441C31.9883 93.8745 30.6911 95.5372 30.119 97.4923C29.8245 98.5304 29.7585 99.6201 29.9257 100.686C30.1412 101.727 30.2308 102.79 30.1926 103.852C30.1709 104.357 30.0109 104.847 29.7301 105.267C29.4493 105.688 29.0585 106.023 28.6003 106.236C27.6167 106.515 26.5915 106.618 25.5721 106.54C24.5046 106.447 23.4432 106.777 22.6176 107.46C22.2804 107.844 22.0249 108.293 21.8667 108.779C21.7085 109.264 21.6508 109.777 21.6971 110.286C21.7378 111.242 21.9661 112.18 22.369 113.047C22.728 113.876 23.1238 114.649 23.4275 115.422C23.7364 116.155 23.911 116.938 23.943 117.732C23.9555 118.458 23.7979 119.177 23.4827 119.831C23.2157 120.395 22.799 120.875 22.2781 121.219C21.7572 121.563 21.152 121.758 20.5282 121.782C20.0165 121.801 19.5098 121.676 19.0647 121.423C18.6837 121.201 18.3666 120.884 18.1443 120.503C17.8216 119.991 17.6882 119.382 17.7669 118.782C17.8129 118.45 17.9326 118.248 17.905 118.239Z" fill="#263238"/>
<path d="M95.4293 122.629C95.6482 123.251 95.6482 123.93 95.4293 124.553C95.3078 124.91 95.1073 125.235 94.8428 125.505C94.5783 125.774 94.2565 125.98 93.9013 126.108C93.4278 126.248 92.9247 126.253 92.4484 126.123C91.9721 125.993 91.5414 125.733 91.2045 125.372C90.818 124.947 90.5931 124.399 90.5694 123.825C90.5517 123.2 90.6484 122.576 90.8547 121.985C91.2413 120.742 92.0421 119.389 91.9224 117.76C91.8643 116.934 91.6346 116.129 91.2479 115.397C90.8612 114.665 90.326 114.021 89.6766 113.507C88.9965 112.963 88.2186 112.554 87.3848 112.302C86.5329 112.066 85.6546 111.939 84.7707 111.924C83.9143 111.917 83.0605 111.828 82.2212 111.657C81.4377 111.496 80.7366 111.062 80.2423 110.433C79.8045 109.788 79.5587 109.031 79.5335 108.252C79.4926 107.492 79.5545 106.731 79.7176 105.988C80.1216 104.586 80.3443 103.138 80.3803 101.68C80.3062 100.385 79.848 99.142 79.0641 98.1088C78.4013 97.2889 77.5893 96.6019 76.671 96.0839C76.0001 95.6868 75.3573 95.2439 74.7473 94.7585C74.2471 94.3301 73.8399 93.8039 73.5508 93.2122C73.5508 93.2122 73.5508 93.2122 73.5508 93.341C73.5871 93.4655 73.6365 93.5858 73.6981 93.7C73.9276 94.1474 74.2399 94.5471 74.6185 94.8781C75.2151 95.3975 75.8522 95.8684 76.5238 96.2864C77.4019 96.8087 78.1758 97.489 78.8064 98.2929C79.536 99.2833 79.9527 100.469 80.003 101.698C79.9483 103.124 79.7164 104.537 79.3126 105.905C79.1346 106.683 79.0633 107.482 79.1009 108.279C79.1352 109.138 79.4095 109.971 79.8925 110.682C80.4412 111.392 81.2239 111.884 82.1015 112.072C82.965 112.249 83.8433 112.344 84.7247 112.357C85.5767 112.368 86.4239 112.486 87.2467 112.707C88.0277 112.949 88.7577 113.333 89.4005 113.839C90.0054 114.316 90.5051 114.913 90.8678 115.592C91.2306 116.272 91.4486 117.019 91.5083 117.787C91.6371 119.269 90.9008 120.549 90.4958 121.883C90.2831 122.524 90.1895 123.197 90.2197 123.871C90.2597 124.515 90.5235 125.124 90.9652 125.593C91.3433 125.989 91.8252 126.27 92.3558 126.405C92.8864 126.541 93.4443 126.524 93.9658 126.357C94.3467 126.209 94.6889 125.976 94.9664 125.676C95.2439 125.377 95.4495 125.017 95.5673 124.626C95.7342 124.147 95.7598 123.629 95.641 123.135C95.601 122.955 95.5293 122.784 95.4293 122.629Z" fill="#263238"/>
<path d="M86.6301 194.726V184.546C87.7715 178.83 87.2284 172.056 84.5684 166.837C82.6387 163.473 80.5054 160.23 78.1806 157.126L68.056 143.974C62.4782 148.033 53.7434 145.097 46.2511 142.372C46.2511 142.372 38.8877 146.468 35.4085 150.315C31.7913 154.365 44.1618 205.035 44.1618 205.035C38.5564 216.245 31.3219 226.204 30.2266 236.421L88.7655 238.676L86.2804 211.836L86.6301 194.726Z" fill="#455A64"/>
<path d="M85.821 212.122C85.7628 211.741 85.7474 211.355 85.775 210.971C85.775 210.134 85.775 209.13 85.775 207.851C85.821 205.09 85.8762 201.528 85.9407 197.561C86.0051 193.593 86.1248 189.903 86.2536 187.27C86.318 185.954 86.3825 184.886 86.4377 184.15C86.4441 183.768 86.4935 183.388 86.585 183.018C86.6222 183.397 86.6222 183.78 86.585 184.159C86.585 184.997 86.585 186 86.585 187.279C86.5389 190.041 86.4745 193.603 86.4101 197.57C86.3457 201.537 86.2352 205.228 86.1064 207.86C86.0419 209.176 85.9775 210.244 85.9131 210.98C85.9275 211.363 85.8966 211.746 85.821 212.122Z" fill="#263238"/>
<path d="M112.56 221.381C112.56 221.381 118.267 221.694 121.765 223.903C125.262 226.112 130.969 229.554 133.316 233.816C134.393 235.777 131.328 236.191 129.809 235.059C128.29 233.926 125.98 231.773 124.83 231.515L123.679 231.248C124.729 233.625 125.9 235.948 127.186 238.206C128.373 240.047 129.404 243.103 125.833 243.241C125.833 243.241 123.431 246.371 121.001 244.051C121.001 244.051 119.105 246.895 116.049 242.956C116.049 242.956 114.263 245.211 113.527 244.346C112.79 243.48 110.351 242.118 109.643 239.302C108.579 236.023 107.35 232.801 105.961 229.646L112.56 221.381Z" fill="#FFBF9D"/>
<path d="M240.325 142.28C240.96 142.28 267.091 139.519 267.091 139.519C267.091 139.519 269.309 128.897 269.19 126.136C269.07 123.374 267.211 105.104 267.211 105.104L276.995 100.502C276.995 100.502 290.074 144.609 287.221 148.272C284.367 151.935 279.001 155.221 278.541 155.24C278.081 155.258 253.22 166.285 235.925 160.55C218.631 154.816 240.325 142.28 240.325 142.28Z" fill="#FFBF9D"/>
<path d="M217.422 166.091C221.269 169.911 227.896 173.086 238.96 170.325C260.829 164.858 277.222 160.2 283.738 156.703C290.255 153.205 287.715 137.576 288.267 136.868C289.914 134.732 288.101 130.148 285.754 129.43C279.063 127.406 267.419 128.206 266.83 128.814C263.397 132.422 266.526 136.803 266.526 136.803L237.69 140.586C234.144 140.42 230.591 140.645 227.096 141.258" fill="#455A64"/>
<path d="M227.097 141.258L227.787 141.111C228.247 141.028 228.929 140.909 229.831 140.798C232.44 140.47 235.072 140.359 237.7 140.467L266.528 136.601L266.39 136.923C265.443 135.53 264.977 133.865 265.064 132.183C265.143 131.313 265.427 130.474 265.893 129.735C266.127 129.363 266.392 129.012 266.684 128.685C266.8 128.6 266.927 128.532 267.062 128.483L267.393 128.4C267.614 128.345 267.826 128.326 268.037 128.28C271.609 127.868 275.212 127.795 278.797 128.059C280.68 128.174 282.55 128.433 284.393 128.833C284.854 128.934 285.314 129.072 285.792 129.192C286.283 129.348 286.733 129.612 287.109 129.965C287.84 130.66 288.398 131.518 288.738 132.468C289.103 133.42 289.232 134.447 289.115 135.46C289.031 135.987 288.833 136.489 288.535 136.932C288.452 137.024 288.462 137.273 288.452 137.512V138.248C288.517 140.227 288.609 142.243 288.554 144.268C288.568 147.143 288.098 149.999 287.164 152.718C286.684 154.079 285.859 155.294 284.771 156.243C284.207 156.683 283.588 157.049 282.93 157.329C282.322 157.651 281.678 157.9 281.089 158.194C278.567 159.271 276.036 160.155 273.542 160.955C271.047 161.756 268.599 162.529 266.178 163.238C256.55 165.999 247.77 168.236 240.461 170.068C238.716 170.529 236.946 170.895 235.16 171.163C233.559 171.386 231.943 171.472 230.328 171.421C227.733 171.365 225.173 170.809 222.789 169.782C221.294 169.123 219.9 168.255 218.647 167.205C218.206 166.848 217.794 166.458 217.414 166.036C217.414 166.036 217.837 166.441 218.712 167.131C219.98 168.143 221.38 168.979 222.872 169.617C225.241 170.594 227.774 171.116 230.337 171.154C231.935 171.192 233.533 171.093 235.114 170.859C236.888 170.579 238.645 170.204 240.379 169.736C247.742 167.895 256.449 165.631 266.049 162.815C268.452 162.106 270.9 161.351 273.413 160.523C275.925 159.694 278.42 158.82 280.914 157.761C281.522 157.476 282.157 157.228 282.755 156.905C283.369 156.635 283.948 156.289 284.476 155.875C285.504 154.982 286.281 153.837 286.731 152.552C287.638 149.869 288.089 147.054 288.066 144.222C288.121 142.206 288.066 140.209 287.965 138.221V137.466C287.965 137.337 287.965 137.208 287.965 137.07C287.957 136.997 287.957 136.923 287.965 136.849C287.985 136.793 288.01 136.737 288.038 136.684L288.084 136.61C288.343 136.233 288.513 135.802 288.581 135.349C288.689 134.413 288.566 133.465 288.222 132.588C287.913 131.709 287.403 130.914 286.731 130.268C286.405 129.963 286.015 129.733 285.59 129.597C285.13 129.477 284.669 129.348 284.218 129.238C282.4 128.843 280.553 128.588 278.696 128.474C275.148 128.202 271.582 128.27 268.047 128.676C267.835 128.676 267.623 128.731 267.421 128.787L267.126 128.851C267.062 128.876 267.001 128.907 266.942 128.943C266.665 129.245 266.415 129.572 266.197 129.919C265.758 130.596 265.493 131.37 265.423 132.174C265.344 133.756 265.776 135.321 266.657 136.638L266.841 136.923H266.519L237.673 140.605C235.06 140.472 232.441 140.546 229.84 140.826C228.919 140.918 228.247 141.019 227.787 141.083C227.327 141.148 227.097 141.258 227.097 141.258Z" fill="#263238"/>
<path d="M149.019 171.235L137.273 150.131L359.437 26.4767C361.996 25.0521 365.017 24.7026 367.834 25.5051C370.651 26.3076 373.034 28.1964 374.459 30.756L375.466 32.5655C376.891 35.1251 377.24 38.1458 376.438 40.9631C375.635 43.7803 373.747 46.1634 371.187 47.5881L149.023 171.243L149.019 171.235Z" fill="#2CB67D"/>
<path d="M335.316 59.6279L308.114 10.7542C307.982 10.5176 307.898 10.2574 307.867 9.98847C307.836 9.71951 307.858 9.44705 307.932 9.18666C308.006 8.92626 308.131 8.68303 308.299 8.47085C308.468 8.25866 308.676 8.08168 308.912 7.95L321.394 1.00271C321.631 0.871036 321.891 0.787238 322.16 0.75612C322.429 0.724999 322.701 0.747156 322.962 0.821332C323.222 0.895505 323.465 1.02025 323.678 1.18843C323.89 1.35661 324.067 1.56492 324.198 1.8015L351.401 50.6752L335.316 59.6279Z" fill="#2CB67D"/>
<path d="M281.798 36.8696L301.624 72.4895C302.425 73.9286 304.241 74.4459 305.68 73.6449L316.553 67.5929C317.992 66.7919 318.51 64.9759 317.709 63.5368L297.883 27.917C297.082 26.4778 295.266 25.9605 293.827 26.7615L282.954 32.8136C281.514 33.6145 280.997 35.4305 281.798 36.8696Z" fill="#2CB67D"/>
<path d="M299.304 34.7895L311.578 56.8418L336.558 42.9383L324.284 20.886L299.304 34.7895Z" fill="#2CB67D"/>
<path d="M356.185 28.3315C356.25 28.4419 312.649 52.8332 258.823 82.8022C204.996 112.771 161.258 136.978 161.258 136.859C161.258 136.739 204.785 112.357 258.629 82.3788C312.474 52.4006 356.121 28.2118 356.185 28.3315Z" fill="#263238"/>
<path d="M59.0446 212.002C75.4281 241.456 109.972 253.421 136.204 238.832C162.436 224.244 170.443 188.531 154.06 159.114C137.676 129.698 103.142 117.695 76.9008 132.284C50.6595 146.873 42.6702 182.585 59.0446 212.002ZM139.849 167.03C151.326 187.648 145.721 212.656 127.331 222.881C108.941 233.107 84.7428 224.722 73.2651 204.086C61.7875 183.45 67.3928 158.461 85.7737 148.226C104.155 137.991 128.371 146.413 139.849 167.03Z" fill="#2CB67D"/>
<path d="M174.67 129.061L186.792 150.84C188.404 153.736 192.059 154.777 194.955 153.165L195.936 152.619C198.832 151.007 199.873 147.353 198.261 144.457L186.139 122.678C184.527 119.782 180.873 118.741 177.977 120.353L176.995 120.899C174.099 122.511 173.059 126.165 174.67 129.061Z" fill="#2CB67D"/>
<path d="M197.952 116.103L210.074 137.882C211.685 140.778 215.34 141.819 218.236 140.207L219.217 139.661C222.113 138.049 223.154 134.395 221.542 131.499L209.42 109.72C207.808 106.824 204.154 105.783 201.258 107.395L200.277 107.941C197.381 109.553 196.34 113.207 197.952 116.103Z" fill="#2CB67D"/>
<path d="M185.879 122.344C185.999 122.279 188.806 127.222 192.165 133.389C195.525 139.556 198.148 144.581 198.029 144.646C197.909 144.71 195.102 139.776 191.742 133.6C188.382 127.424 185.759 122.344 185.879 122.344Z" fill="#263238"/>
<path d="M175.191 129.937C175.311 129.873 178.053 134.594 181.33 140.467C184.607 146.339 187.156 151.171 187.046 151.236C186.935 151.3 184.183 146.578 180.944 140.752C177.704 134.926 175.08 130.001 175.191 129.937Z" fill="#263238"/>
<path d="M209.3 109.522C209.42 109.458 212.282 114.373 215.697 120.503C219.112 126.633 221.781 131.668 221.661 131.732C221.542 131.796 218.688 126.872 215.274 120.742C211.859 114.612 209.19 109.587 209.3 109.522Z" fill="#263238"/>
<path d="M198.066 116.305C198.177 116.241 200.984 121.128 204.316 127.222C207.648 133.315 210.271 138.267 210.152 138.368C210.032 138.469 207.243 133.545 203.902 127.452C200.561 121.358 197.947 116.37 198.066 116.305Z" fill="#263238"/>
<path d="M264.827 83.1058C265.899 83.232 266.979 82.9548 267.858 82.3282C268.737 81.7016 269.351 80.7704 269.58 79.716C269.81 78.6616 269.639 77.5595 269.101 76.6242C268.563 75.6889 267.695 74.9874 266.668 74.6563C267.332 73.9765 267.765 73.1052 267.907 72.1655C268.048 71.2259 267.89 70.2657 267.455 69.4207C267.021 68.5758 266.331 67.889 265.485 67.4576C264.638 67.0262 263.677 66.872 262.738 67.0168C262.699 66.0823 262.42 65.1736 261.926 64.3792C261.432 63.5848 260.741 62.9316 259.92 62.4832C259.1 62.0348 258.177 61.8064 257.241 61.8202C256.306 61.834 255.39 62.0895 254.583 62.562C253.53 61.7014 252.22 61.2175 250.861 61.1875C249.502 61.1575 248.171 61.583 247.082 62.3963C246.166 62.2215 245.219 62.3465 244.38 62.7526C243.541 63.1586 242.855 63.8243 242.425 64.6508C241.994 65.4772 241.841 66.4205 241.988 67.3408C242.136 68.2611 242.576 69.1093 243.243 69.7597" fill="#263238"/>
<path d="M246.148 66.6858H247.069C251.71 66.6897 256.179 68.4411 259.587 71.5914C262.995 74.7417 265.091 79.0598 265.459 83.686C266.149 92.6049 266.794 102.463 266.72 107.249C266.545 117.189 256.66 118.662 256.66 118.662L257.46 130.572L233.41 129.79L231.412 86.6222C230.566 76.3226 235.84 67.2565 246.148 66.6858Z" fill="#FFBF9D"/>
<path d="M256.746 118.662C252.145 118.649 247.644 117.317 243.777 114.823C243.777 114.823 246.962 122.325 256.847 121.46L256.746 118.662Z" fill="#FF9A6C"/>
<path d="M260.021 93.0279C260.024 93.3967 259.881 93.7518 259.625 94.0168C259.368 94.2819 259.018 94.4357 258.65 94.4454C258.47 94.4578 258.289 94.4346 258.119 94.3768C257.948 94.3191 257.791 94.2282 257.655 94.1092C257.52 93.9902 257.41 93.8456 257.331 93.6837C257.252 93.5218 257.206 93.3458 257.195 93.166C257.195 92.797 257.338 92.4422 257.593 92.1762C257.849 91.9102 258.198 91.7536 258.567 91.7393C258.747 91.7269 258.928 91.7505 259.1 91.8087C259.271 91.867 259.429 91.9588 259.564 92.0788C259.699 92.1987 259.81 92.3444 259.888 92.5074C259.966 92.6703 260.012 92.8473 260.021 93.0279Z" fill="#263238"/>
<path d="M263.317 88.5547C263.142 88.7387 262.065 87.9472 260.556 87.9472C259.046 87.9472 257.914 88.7019 257.748 88.5178C257.583 88.3338 257.85 88.1037 258.337 87.7447C258.998 87.291 259.782 87.053 260.583 87.0636C261.375 87.0602 262.146 87.312 262.783 87.7815C263.243 88.1405 263.4 88.481 263.317 88.5547Z" fill="#263238"/>
<path d="M246.3 92.3651C246.307 92.7395 246.166 93.1016 245.907 93.3724C245.649 93.6431 245.293 93.8005 244.919 93.8102C244.739 93.8227 244.559 93.7994 244.388 93.7417C244.218 93.684 244.06 93.593 243.925 93.474C243.79 93.355 243.679 93.2104 243.6 93.0485C243.521 92.8866 243.475 92.7106 243.465 92.5308C243.462 92.1611 243.604 91.805 243.86 91.5385C244.117 91.272 244.467 91.1161 244.836 91.1041C245.015 91.0903 245.195 91.112 245.366 91.168C245.536 91.224 245.694 91.3132 245.83 91.4303C245.966 91.5475 246.078 91.6904 246.158 91.8509C246.239 92.0113 246.287 92.186 246.3 92.3651Z" fill="#263238"/>
<path d="M248.348 88.7939C248.173 88.978 247.096 88.1864 245.587 88.1864C244.077 88.1864 242.945 88.9412 242.78 88.7571C242.614 88.573 242.881 88.3429 243.369 87.9839C244.029 87.5302 244.814 87.2923 245.615 87.3028C246.406 87.2995 247.177 87.5512 247.814 88.0208C248.275 88.3797 248.431 88.7111 248.348 88.7939Z" fill="#263238"/>
<path d="M253.836 100.106C254.639 99.8533 255.471 99.7048 256.312 99.6639C256.699 99.6639 257.067 99.5535 257.141 99.2866C257.173 98.8858 257.083 98.4847 256.883 98.136L255.742 95.1723C254.158 90.9475 252.98 87.4775 253.183 87.4223C253.385 87.3671 254.775 90.7266 256.358 94.9422C256.736 95.9822 257.104 96.9763 257.454 97.9243C257.692 98.3961 257.761 98.9359 257.647 99.4522C257.589 99.5886 257.501 99.71 257.389 99.8073C257.278 99.9045 257.146 99.9751 257.003 100.014C256.791 100.077 256.57 100.108 256.349 100.106C255.515 100.21 254.671 100.21 253.836 100.106Z" fill="#263238"/>
<path d="M249.687 82.94C249.484 83.3266 248.186 82.94 246.576 82.848C244.965 82.7559 243.621 83.0597 243.474 82.6547C243.409 82.4614 243.695 82.1208 244.275 81.8079C245.023 81.4384 245.853 81.2672 246.686 81.3109C247.512 81.3402 248.316 81.5879 249.015 82.0288C249.539 82.3878 249.779 82.7651 249.687 82.94Z" fill="#263238"/>
<path d="M263.409 82.2868C263.087 82.6273 261.826 82.2868 260.316 82.2868C258.807 82.2868 257.555 82.5169 257.233 82.1487C257.104 81.9738 257.306 81.6241 257.868 81.3019C258.641 80.8965 259.508 80.7028 260.381 80.7405C261.248 80.7521 262.097 80.9969 262.838 81.4492C263.372 81.7621 263.547 82.1119 263.409 82.2868Z" fill="#263238"/>
<path d="M264.525 79.1758C264.525 79.1758 261.929 72.9629 258.938 71.5086C255.32 69.7414 253.756 73.7085 250.304 72.7328C246.852 71.7572 243.401 70.0728 239.866 72.7328C236.001 75.6414 237.805 77.6939 237.547 82.0935C236.534 99.9129 233.258 104.938 232.365 96.5442C232.264 95.6238 229.714 94.8874 229.346 91.0216C228.867 85.9869 228.692 79.8661 229.834 76.2949C230.754 73.2851 232.512 71.2049 235.596 68.9315C240.474 65.3234 247.156 65.2498 251.694 65.7376C256.232 66.2254 264.957 71.4074 264.525 79.1758Z" fill="#263238"/>
<path d="M232.989 96.2678C232.979 95.9042 232.895 95.5464 232.742 95.2161C232.59 94.8859 232.372 94.59 232.101 94.3465C231.831 94.1029 231.514 93.9168 231.17 93.7993C230.826 93.6818 230.461 93.6354 230.099 93.663C228.258 93.8379 226.187 94.878 226.297 98.6977C226.49 105.472 233.256 103.88 233.265 103.677C233.274 103.475 233.099 99.1027 232.989 96.2678Z" fill="#FFBF9D"/>
<path d="M231.709 101.174C231.709 101.174 231.598 101.266 231.396 101.358C231.121 101.484 230.808 101.5 230.521 101.404C230.074 101.139 229.706 100.76 229.455 100.305C229.204 99.8502 229.08 99.3365 229.095 98.8173C229.059 98.2392 229.154 97.6606 229.371 97.1237C229.429 96.9115 229.539 96.7167 229.689 96.5563C229.84 96.3959 230.028 96.2748 230.236 96.2033C230.371 96.1622 230.516 96.1702 230.646 96.2257C230.775 96.2813 230.881 96.3809 230.945 96.507C231.037 96.6911 231 96.8292 231.037 96.8384C231.074 96.8476 231.175 96.7187 231.11 96.4426C231.074 96.2746 230.975 96.1267 230.834 96.0284C230.741 95.9601 230.636 95.911 230.523 95.8841C230.411 95.8573 230.295 95.8531 230.181 95.8719C229.904 95.9344 229.647 96.067 229.436 96.2573C229.225 96.4475 229.066 96.6888 228.975 96.958C228.701 97.551 228.578 98.2022 228.616 98.8541C228.699 100.216 229.435 101.477 230.457 101.735C230.639 101.783 230.83 101.789 231.015 101.752C231.2 101.716 231.374 101.637 231.525 101.523C231.709 101.339 231.736 101.174 231.709 101.174Z" fill="#FF9A6C"/>
<path d="M233.163 83.1427C233.991 83.8182 234.975 84.2768 236.025 84.4773C236.552 84.56 237.092 84.4489 237.544 84.1647C237.995 83.8804 238.329 83.4422 238.483 82.931C238.565 82.4616 238.483 81.9094 238.759 81.5504C239.035 81.1914 239.817 81.2559 240.379 81.3203C242.348 81.532 244.659 79.3598 245.165 77.4453C245.421 77.8124 245.807 78.0683 246.245 78.1606C246.682 78.253 247.139 78.1749 247.521 77.9423C248.147 77.5598 248.702 77.0707 249.159 76.4973C249.426 76.1321 249.777 75.8368 250.183 75.6365C250.588 75.4362 251.036 75.3368 251.488 75.3467C251.965 75.5114 252.459 75.6195 252.961 75.6689C253.881 75.5952 254.286 74.5552 254.424 73.6716C254.562 72.788 254.673 71.7663 255.428 71.2877C256.202 70.9842 257.059 70.9614 257.848 71.2232C258.667 71.3521 259.689 71.1588 259.938 70.358C259.971 70.144 259.962 69.9254 259.91 69.7152C259.858 69.5049 259.764 69.3072 259.634 69.1339C259.086 68.3129 258.278 67.7008 257.339 67.3968C256.4 67.0927 255.386 67.1146 254.461 67.4587C254.135 66.3259 253.48 65.3158 252.578 64.5569C251.676 63.798 250.569 63.3247 249.397 63.1974C248.225 63.07 247.042 63.2943 245.998 63.8418C244.954 64.3892 244.097 65.235 243.536 66.2714C242.819 65.6148 241.954 65.1414 241.014 64.8914C240.075 64.6414 239.089 64.6223 238.141 64.8356C237.192 65.049 236.31 65.4885 235.568 66.1167C234.826 66.745 234.247 67.5433 233.88 68.4436C233.052 68.2225 232.177 68.2501 231.363 68.5227C230.55 68.7954 229.835 69.3012 229.308 69.9771C228.78 70.6531 228.463 71.4693 228.395 72.3242C228.328 73.1791 228.513 74.035 228.929 74.7853C228.298 75.0968 227.757 75.5634 227.356 76.1414C226.955 76.7194 226.707 77.3898 226.637 78.0896C226.637 79.4886 227.971 80.8509 229.324 80.5195C229.044 81.0708 228.985 81.7086 229.16 82.302C229.335 82.8953 229.73 83.3992 230.265 83.7102C230.8 84.0211 231.433 84.1156 232.035 83.9741C232.638 83.8326 233.163 83.466 233.503 82.9494" fill="#263238"/>
<path d="M254.955 69.4468C254.955 69.4468 254.955 69.4468 254.955 69.5756C254.955 69.7045 254.955 69.7781 254.909 69.9346C254.814 70.3939 254.646 70.8352 254.412 71.2416C254.038 71.8786 253.525 72.4229 252.911 72.8339C252.1 73.3872 251.131 73.6618 250.15 73.6163L250.261 73.469C250.46 74.0768 250.41 74.7386 250.123 75.3099C249.818 75.9155 249.428 76.4736 248.963 76.9666C248.737 77.2541 248.481 77.5165 248.199 77.749C247.698 78.0784 247.097 78.2194 246.502 78.1469C245.907 78.0745 245.357 77.7932 244.95 77.3532L245.198 77.2796C245.103 77.9829 244.862 78.6585 244.489 79.2626C244.116 79.8666 243.621 80.3858 243.035 80.7864C242.392 81.2649 241.61 81.5202 240.808 81.5135C240.056 81.4725 239.316 81.3077 238.617 81.0257L238.801 80.9429C238.447 81.7625 237.893 82.4807 237.191 83.0322C236.87 83.3069 236.492 83.5064 236.084 83.6163C235.677 83.7262 235.25 83.7436 234.834 83.6673C234.122 83.5125 233.471 83.1529 232.961 82.6329C232.451 82.1129 232.104 81.4551 231.963 80.7404L232.119 80.814C231.403 81.185 230.582 81.3018 229.79 81.1454C229.201 81.0329 228.646 80.7839 228.17 80.4182C227.874 80.1861 227.619 79.9061 227.416 79.5899C227.341 79.48 227.285 79.3588 227.25 79.2309C227.507 79.6541 227.841 80.0256 228.235 80.3262C228.704 80.6654 229.246 80.8893 229.818 80.9797C230.57 81.122 231.347 80.9983 232.018 80.6299L232.147 80.5563V80.7036C232.286 81.3688 232.616 81.9789 233.097 82.4595C233.577 82.9401 234.188 83.2702 234.853 83.4096C235.232 83.4759 235.622 83.4566 235.993 83.3531C236.364 83.2495 236.707 83.0645 236.997 82.8113C237.657 82.2871 238.175 81.607 238.507 80.8324L238.562 80.7128H238.691C239.357 80.9807 240.063 81.1362 240.78 81.173C241.522 81.179 242.246 80.9431 242.842 80.5011C243.393 80.1225 243.86 79.6331 244.212 79.0642C244.564 78.4953 244.793 77.8593 244.885 77.1967V76.8746L245.097 77.1231C245.336 77.3875 245.637 77.5895 245.972 77.7114C246.307 77.8333 246.667 77.8715 247.021 77.8226C247.35 77.7787 247.665 77.659 247.941 77.4729C248.207 77.2587 248.448 77.0147 248.659 76.7457C249.114 76.2761 249.499 75.7428 249.8 75.1626C249.936 74.9042 250.019 74.6214 250.044 74.3306C250.07 74.0399 250.037 73.747 249.948 73.469L249.892 73.3034H250.067C251.007 73.3617 251.941 73.113 252.727 72.5946C253.331 72.2057 253.841 71.6869 254.218 71.0759C254.558 70.5807 254.808 70.0291 254.955 69.4468Z" fill="#455A64"/>
<path d="M253.813 105.159C253.758 104.911 252.111 105.316 250.583 104.193C249.055 103.07 248.806 101.266 248.576 101.312C248.346 101.358 248.346 101.79 248.512 102.536C248.739 103.509 249.303 104.369 250.104 104.966C250.869 105.536 251.827 105.787 252.773 105.665C253.482 105.555 253.85 105.269 253.813 105.159Z" fill="#263238"/>
<path d="M304.865 362.685L311.4 384.95C311.4 384.95 336.251 385.778 337.843 389.782L295.081 403.993L283.465 369.707L304.865 362.685Z" fill="#455A64"/>
<path d="M297.575 387.499C297.206 387.762 296.947 388.151 296.846 388.592C296.746 389.034 296.812 389.497 297.032 389.893C297.279 390.271 297.663 390.54 298.103 390.645C298.543 390.749 299.006 390.681 299.397 390.454C299.789 390.175 300.063 389.761 300.166 389.292C300.27 388.823 300.196 388.331 299.959 387.914C299.659 387.545 299.228 387.306 298.756 387.248C298.284 387.189 297.808 387.316 297.428 387.601" fill="#E0E0E0"/>
<path d="M335.429 388.171C335.429 388.171 337.611 388.365 337.841 389.782L295.078 403.993L294.047 400.487L335.392 388.153" fill="#263238"/>
<path d="M312.017 384.499C312.081 384.71 311.097 385.152 310.268 386.165C309.44 387.177 309.21 388.236 308.989 388.217C308.768 388.199 308.685 386.892 309.679 385.686C310.673 384.48 311.999 384.296 312.017 384.499Z" fill="white"/>
<path d="M317.112 384.857C317.231 385.051 316.449 385.704 316.025 386.818C315.602 387.932 315.722 388.944 315.51 388.999C315.298 389.055 314.774 387.922 315.317 386.542C315.86 385.161 317.047 384.664 317.112 384.857Z" fill="white"/>
<path d="M321.452 389.377C321.277 389.487 320.642 388.539 320.798 387.223C320.954 385.907 321.774 385.115 321.921 385.263C322.068 385.41 321.663 386.183 321.553 387.306C321.442 388.429 321.654 389.266 321.452 389.377Z" fill="white"/>
<path d="M309.96 379.593C309.96 379.814 308.883 379.841 307.733 380.311C306.582 380.78 305.781 381.461 305.616 381.323C305.45 381.185 306.085 380.145 307.456 379.602C308.828 379.059 310.015 379.39 309.96 379.593Z" fill="white"/>
<path d="M205.141 362.878L195.836 384.14C195.836 384.14 214.327 400.708 212.993 404.831L171.113 388.263L184.248 354.539L205.141 362.878Z" fill="#455A64"/>
<path d="M183.603 377.209C183.153 377.173 182.705 377.305 182.345 377.578C181.986 377.851 181.739 378.247 181.652 378.691C181.601 379.14 181.722 379.592 181.993 379.955C182.263 380.317 182.661 380.563 183.106 380.642C183.585 380.678 184.059 380.536 184.439 380.244C184.82 379.952 185.079 379.53 185.168 379.059C185.168 378.138 184.331 377.089 183.429 377.218" fill="#E0E0E0"/>
<path d="M212.173 402.051C212.173 402.051 213.72 403.607 212.993 404.813L171.113 388.245L172.577 384.904L212.155 402.024" fill="#263238"/>
<path d="M196.592 384.195C196.509 384.397 195.45 384.085 194.18 384.342C192.91 384.6 192.036 385.263 191.879 385.097C191.723 384.931 192.496 383.882 194.033 383.597C195.57 383.311 196.721 384.02 196.592 384.195Z" fill="white"/>
<path d="M200.276 387.748C200.276 387.959 199.226 387.959 198.186 388.549C197.146 389.138 196.594 389.975 196.345 389.892C196.097 389.809 196.474 388.595 197.772 387.886C199.07 387.177 200.349 387.554 200.276 387.748Z" fill="white"/>
<path d="M200.696 393.988C200.494 393.988 200.613 392.828 201.616 391.917C202.62 391.006 203.715 390.932 203.733 391.135C203.752 391.337 202.923 391.706 202.141 392.469C201.359 393.233 200.908 394.053 200.696 393.988Z" fill="white"/>
<path d="M198.183 379.142C198.027 379.289 197.199 378.645 196.011 378.222C194.824 377.798 193.784 377.853 193.747 377.642C193.71 377.43 194.861 377.034 196.251 377.494C197.64 377.955 198.349 378.995 198.183 379.142Z" fill="white"/>
<path d="M220.823 246.076L206.152 305.591C206.152 305.591 179.689 350.139 175.207 372.432L199.414 381.949C199.414 381.949 217.022 339.011 222.185 331.133C224.509 327.602 227.179 324.312 230.156 321.312C232.092 319.391 233.481 316.989 234.179 314.353L245.288 271.894L220.823 246.076Z" fill="#263238"/>
<path d="M214.57 236.559C214.57 236.559 216.614 252.501 231.957 259.57L264.282 312.218C264.282 312.218 266.814 329.338 271.646 343.761C276.478 358.184 286.244 385.981 286.244 385.981L312.835 376.04L295.89 318.109L293.129 298.016L266.749 230.825L244.088 217.239L214.57 236.559Z" fill="#263238"/>
<path d="M214.57 236.559L215.058 236.227L216.522 235.252L222.265 231.46L244.042 217.147L244.116 217.101L244.19 217.147L266.869 230.705V230.76L293.303 297.887V297.933C294.178 304.284 295.144 311.086 296.065 318.026C300.667 333.673 305.545 350.415 310.589 367.664C311.405 370.444 312.215 373.205 313.019 375.948L313.083 376.16L312.872 376.233L286.281 386.174L286.05 386.257L285.977 386.026C281.375 372.671 276.92 359.813 272.714 347.617C271.655 344.571 270.615 341.552 269.75 338.533C268.885 335.514 268.102 332.513 267.393 329.549C265.994 323.622 264.871 317.832 263.988 312.218V312.291L231.847 259.625L231.902 259.671C228.014 257.853 224.562 255.223 221.777 251.958C219.736 249.56 218.061 246.874 216.807 243.987C216.031 242.204 215.415 240.356 214.966 238.464C214.81 237.838 214.718 237.35 214.662 237.019C214.607 236.688 214.598 236.522 214.598 236.522C214.598 236.522 214.598 236.688 214.699 237.01C214.8 237.332 214.856 237.82 215.031 238.455C215.506 240.322 216.14 242.145 216.927 243.904C218.197 246.762 219.877 249.419 221.915 251.792C224.71 255.023 228.162 257.621 232.04 259.413L264.43 312.024V312.07C265.35 317.667 266.455 323.447 267.854 329.365C268.562 332.32 269.336 335.311 270.21 338.321C271.084 341.331 272.115 344.331 273.174 347.378C277.398 359.573 281.844 372.432 286.465 385.778L286.161 385.64L312.752 375.699L312.605 375.985C311.807 373.242 310.997 370.481 310.175 367.701L295.669 318.053C294.748 311.113 293.773 304.311 292.908 297.96V298.016L266.574 230.825L266.648 230.907L244.005 217.294H244.144L222.366 231.543L216.568 235.279L215.077 236.246L214.57 236.559Z" fill="#455A64"/>
<path d="M228.809 122.822C228.809 122.822 221.059 128.787 217.294 135.451C212.784 143.431 212.296 155.258 212.158 173.63C212.02 190.621 214.56 195.342 213.585 201.749C211.661 214.257 210.234 256.238 210.234 256.238C210.234 256.238 235.086 246.693 239.909 242.431L244.759 238.216L275.861 248.497L269.583 210.281L265.276 162.649L259.753 137.383L258.833 127.47L232.122 116.738L228.809 122.822Z" fill="#455A64"/>
<path d="M257.83 126.946C258.153 127.01 257.067 129.191 255.152 132.395L255.069 132.523L254.922 132.468C252.225 131.419 248.654 130.103 244.751 128.676C240.352 127.075 236.375 125.583 233.531 124.424C232.105 123.844 230.963 123.356 230.181 122.997C229.765 122.836 229.365 122.639 228.984 122.408C229.421 122.505 229.847 122.647 230.255 122.831L233.651 124.111L244.917 128.225C248.82 129.652 252.382 130.986 255.042 132.128L254.821 132.201C256.827 129.063 258.015 126.992 257.83 126.946Z" fill="#263238"/>
<path d="M289.971 107.101C289.971 107.101 288.001 104.036 286.142 101.21C284.283 98.3847 281.466 96.9949 281.015 95.5222C280.564 94.0495 278.088 87.4869 277.692 85.8577C277.348 84.28 277.188 82.6677 277.214 81.0531C277.214 81.0531 279.248 80.1879 280.223 83.0965C280.812 84.8453 282.69 90.782 283.095 91.0765C283.5 91.3711 284.016 90.9385 284.016 90.9385C283.18 88.7156 282.458 86.4515 281.853 84.155C281.761 83.0781 282.138 75.9356 282.138 75.9356C282.643 75.8338 283.167 75.9162 283.616 76.1678C284.065 76.4194 284.409 76.8235 284.586 77.307C285.553 79.1478 285.59 83.75 285.59 83.75L287.053 88.8859L286.538 83.8052L287.274 74.4629C287.989 74.5648 288.655 74.8846 289.182 75.3786C289.709 75.8727 290.071 76.5171 290.219 77.2242C290.836 79.7461 290.017 83.2621 290.431 84.0077C290.845 84.7532 291.296 89.2633 291.296 89.2633C291.296 89.2633 291.802 78.3103 292.971 77.9973C294.14 77.6844 295.097 78.8441 294.932 81.0531C294.766 83.2621 294.72 87.9379 295.328 89.9996C295.935 92.0614 302.166 100.124 301.66 103.659C301.35 105.794 301.156 107.945 301.08 110.102H290.403L289.971 107.101Z" fill="#FFBF9D"/>
<path d="M252.516 134.686C253.114 134.916 278.619 141.231 278.619 141.231C278.619 141.231 284.316 132.026 285.154 129.357C285.991 126.688 290.474 108.905 290.474 108.905L301.252 107.893C301.252 107.893 298.491 153.813 294.588 156.289C290.686 158.765 284.463 160.016 284.059 159.878C283.654 159.74 256.492 161.627 242.179 150.352C227.867 139.077 252.516 134.686 252.516 134.686Z" fill="#FFBF9D"/>
<g opacity="0.3">
<path d="M234.236 158.995C236.973 162.093 240.625 164.24 244.664 165.125C251.429 166.616 265.834 169.258 265.834 169.258L265.134 162.189L233.84 158.838" fill="black"/>
</g>
<path d="M222.879 149.275C225.198 154.172 230.353 159.4 241.683 160.587C264.114 162.907 281.096 164.14 288.431 163.035C295.767 161.931 298.685 146.403 299.477 145.925C301.759 144.489 301.612 139.555 299.642 138.083C294.046 133.895 282.826 130.719 282.071 131.06C277.607 133.278 279.062 138.469 279.062 138.469L250.62 132.192C247.344 130.83 243.927 129.835 240.431 129.228" fill="#455A64"/>
<path d="M240.433 129.228C240.433 129.228 240.673 129.228 241.133 129.32C241.593 129.412 242.283 129.523 243.167 129.716C245.732 130.298 248.244 131.092 250.678 132.091L279.1 138.276L278.861 138.534C278.44 136.903 278.57 135.178 279.229 133.628C279.593 132.834 280.142 132.14 280.831 131.603C281.18 131.331 281.553 131.091 281.944 130.885C282.079 130.845 282.218 130.823 282.359 130.821H282.699C282.929 130.821 283.132 130.894 283.353 130.931C286.85 131.758 290.262 132.914 293.542 134.383C295.27 135.136 296.941 136.016 298.54 137.015C298.936 137.273 299.331 137.558 299.727 137.834C300.136 138.145 300.47 138.545 300.703 139.003C301.152 139.907 301.385 140.903 301.384 141.912C301.407 142.933 301.18 143.944 300.721 144.857C300.467 145.328 300.108 145.734 299.672 146.044C299.561 146.1 299.488 146.339 299.396 146.56L299.156 147.25C298.549 149.091 297.941 151.061 297.205 152.957C296.241 155.676 294.828 158.214 293.026 160.467C292.373 161.324 291.54 162.026 290.586 162.526C289.632 163.025 288.58 163.309 287.504 163.358C286.814 163.459 286.123 163.477 285.442 163.532C282.681 163.698 280.03 163.661 277.407 163.588C274.784 163.514 272.216 163.376 269.721 163.22C259.716 162.575 250.742 161.664 243.213 160.882C241.414 160.724 239.626 160.466 237.856 160.109C236.285 159.773 234.746 159.305 233.254 158.709C230.837 157.77 228.621 156.377 226.728 154.604C225.546 153.473 224.53 152.181 223.709 150.766C223.415 150.281 223.16 149.773 222.945 149.248C222.945 149.248 223.203 149.772 223.792 150.72C224.643 152.1 225.673 153.36 226.857 154.466C228.748 156.2 230.954 157.556 233.355 158.461C234.85 159.037 236.389 159.49 237.957 159.814C239.723 160.152 241.505 160.395 243.296 160.541C250.825 161.287 259.799 162.161 269.786 162.787C272.289 162.934 274.848 163.063 277.462 163.128C280.076 163.192 282.754 163.229 285.46 163.072C286.132 163.008 286.823 162.989 287.495 162.888C288.165 162.853 288.828 162.726 289.464 162.511C290.736 162.02 291.859 161.209 292.723 160.155C294.486 157.945 295.867 155.456 296.809 152.791C297.546 150.95 298.144 149.008 298.751 147.112L299.009 146.394C299.009 146.284 299.101 146.164 299.156 146.035C299.19 145.964 299.23 145.896 299.276 145.833C299.311 145.788 299.351 145.748 299.396 145.713L299.46 145.658C299.842 145.393 300.157 145.044 300.381 144.636C300.811 143.781 301.02 142.832 300.988 141.875C300.991 140.944 300.78 140.024 300.371 139.187C300.17 138.792 299.884 138.446 299.534 138.175C299.138 137.908 298.761 137.623 298.365 137.374C296.789 136.382 295.14 135.511 293.431 134.769C290.188 133.307 286.813 132.154 283.353 131.327C283.141 131.327 282.929 131.235 282.727 131.216H282.423H282.221C281.858 131.41 281.513 131.635 281.19 131.888C280.549 132.372 280.034 133.004 279.689 133.729C279.08 135.185 278.954 136.798 279.33 138.331L279.413 138.653L279.091 138.58L250.714 132.229C248.303 131.215 245.817 130.39 243.277 129.762C242.357 129.55 241.722 129.403 241.262 129.311C240.802 129.219 240.433 129.228 240.433 129.228Z" fill="#263238"/>
<path d="M288.432 147.351C287.778 147.189 287.156 146.919 286.591 146.551C285.18 145.763 283.88 144.791 282.725 143.66C281.565 142.534 280.551 141.266 279.706 139.887C279.322 139.322 279.027 138.701 278.832 138.046C280.094 139.905 281.507 141.657 283.057 143.283C284.723 144.797 286.522 146.159 288.432 147.351Z" fill="#263238"/>
<path d="M88.1854 223.158C88.1854 223.158 93.892 223.461 97.3896 225.68C100.887 227.898 106.594 231.322 108.941 235.593C110.018 237.553 106.953 237.967 105.443 236.826C103.934 235.685 101.605 233.549 100.455 233.282L99.3041 233.025C100.353 235.4 101.524 237.719 102.811 239.974C103.998 241.815 105.029 244.871 101.467 245.018C101.467 245.018 99.0556 248.147 96.6257 245.828C96.6257 245.828 94.7296 248.663 91.6738 244.732C91.6738 244.732 89.8974 246.978 89.1518 246.122C88.4063 245.266 85.9764 243.895 85.2676 241.078C84.2101 237.798 82.9812 234.575 81.5859 231.423L88.1854 223.158Z" fill="#FFBF9D"/>
<path d="M39.6223 148.115C36.6971 149.057 34.1724 150.953 32.4522 153.5C30.2616 156.869 29.5897 162.704 30.2156 167.049C31.541 176.207 35.7381 191.661 38.1036 201.583C38.9136 205.007 40.5795 211.137 45.467 214.386L80.3419 235.298L89.6658 221.492L57.8743 195.582L51.5878 160.072L39.6223 148.115Z" fill="#455A64"/>
<path d="M33.5938 183.018C33.6416 183.134 33.6785 183.254 33.7042 183.377L33.9987 184.454C34.2472 185.429 34.597 186.828 35.0572 188.623C35.9776 192.305 37.2846 197.533 38.9138 204.04C39.8596 207.585 41.8631 210.757 44.6572 213.134C46.2534 214.412 47.9598 215.545 49.7564 216.521L55.3618 219.908L80.4801 235.077L80.158 235.15L83.5175 230.171L89.4819 221.307L89.5279 221.629L58.0218 195.683H57.9666V195.618C55.8864 186.865 54.3769 179.695 53.4197 174.706C52.9503 172.212 52.6189 170.27 52.4072 168.944C52.3152 168.3 52.2415 167.794 52.1863 167.435C52.1311 167.076 52.1219 166.919 52.1219 166.919C52.1719 167.086 52.2118 167.255 52.2415 167.426C52.306 167.785 52.398 168.282 52.5085 168.926C52.757 170.242 53.1159 172.184 53.6314 174.669C54.6346 179.64 56.1994 186.791 58.3255 195.535L58.2611 195.434L89.8224 221.261L89.9881 221.399L89.8685 221.574L83.9041 230.438L80.5446 235.417L80.4249 235.601L80.2224 235.491L55.1409 220.276L49.5447 216.88C47.7362 215.894 46.0176 214.751 44.4087 213.465C41.5663 211.031 39.5391 207.783 38.6009 204.16C37.0269 197.634 35.7659 192.36 34.9192 188.706C34.505 186.865 34.1736 185.494 33.9435 184.518L33.6766 183.386C33.6404 183.265 33.6127 183.142 33.5938 183.018Z" fill="#263238"/>
<path d="M34.168 153.021C34.3845 152.879 34.6244 152.776 34.8767 152.717C35.5448 152.511 36.228 152.357 36.92 152.257C39.2287 151.901 41.591 152.221 43.722 153.178C45.7816 154.251 47.531 155.836 48.8027 157.78C49.1883 158.367 49.4976 159.001 49.7231 159.667C49.822 159.903 49.878 160.156 49.8888 160.412C49.491 159.567 49.0327 158.752 48.5174 157.973C47.2072 156.159 45.493 154.675 43.5103 153.638C41.4539 152.726 39.1924 152.377 36.9569 152.625C35.2357 152.763 34.1956 153.104 34.168 153.021Z" fill="#263238"/>
</svg>
