<svg width="301" height="300" viewBox="0 0 301 300" fill="none" xmlns="http://www.w3.org/2000/svg">
<path d="M164.988 298.456C164.726 298.456 137.921 298.351 111.212 297.017C56.4775 294.276 55.4308 289.099 55.0044 287.156C54.9024 286.665 54.8953 286.157 54.9838 285.664C55.0722 285.17 55.2541 284.702 55.5181 284.289C57.8924 280.466 67.1473 278.691 77.8752 276.643C87.8473 274.732 99.1955 272.568 101.308 268.725C101.48 268.427 101.588 268.091 101.623 267.742C101.658 267.393 101.62 267.039 101.512 266.708C100.31 262.581 89.4269 259.725 76.8189 256.416C55.4308 250.798 28.8193 243.814 20.6982 225.079C7.65413 194.99 21.5898 145.148 22.1907 143.037L24.0416 143.657C23.8963 144.171 9.72801 194.843 22.4523 224.186C30.2051 242.039 57.3981 249.149 77.2744 254.369C91.5299 258.118 101.831 260.817 103.363 266.078C103.553 266.695 103.616 267.349 103.547 267.995C103.479 268.641 103.28 269.263 102.965 269.817C100.349 274.469 89.6014 276.528 78.2144 278.702C69.2309 280.424 59.0359 282.377 57.1365 285.465C57.0164 285.64 56.9326 285.842 56.8908 286.056C56.849 286.27 56.8501 286.491 56.8942 286.704C57.1558 288.006 61.856 292.449 111.261 294.917C137.921 296.25 164.687 296.355 164.959 296.355L164.988 298.456Z" fill="#263238"/>
<path d="M78.6117 32.8193C78.6117 32.8193 35.6998 29.6162 32.3661 118.935L23.2469 118.326C23.2469 118.326 20.6497 63.0755 42.2703 35.5603C44.4971 32.757 47.2859 30.5426 50.4235 29.0865C53.561 27.6303 56.9644 26.9709 60.3732 27.1587C68.1066 27.5263 77.9817 28.8075 78.6117 32.8193Z" fill="#263238"/>
<path d="M36.5861 147.566C46.9854 142.268 51.4522 128.837 46.5632 117.568C41.6741 106.298 29.2805 101.458 18.8812 106.756C8.48201 112.054 4.01514 125.485 8.90421 136.754C13.7933 148.024 26.1869 152.864 36.5861 147.566Z" fill="#263238"/>
<path opacity="0.1" d="M36.5861 147.566C46.9854 142.268 51.4522 128.837 46.5632 117.568C41.6741 106.298 29.2805 101.458 18.8812 106.756C8.48201 112.054 4.01514 125.485 8.90421 136.754C13.7933 148.024 26.1869 152.864 36.5861 147.566Z" fill="white"/>
<path d="M17.219 122.558C16.4702 124.813 16.3553 127.259 16.8888 129.585C17.4223 131.911 18.5802 134.013 20.2162 135.626C21.8522 137.239 23.8927 138.29 26.0798 138.646C28.2669 139.002 30.5024 138.648 32.5036 137.627C34.5048 136.607 36.1818 134.966 37.3227 132.913C38.4636 130.86 39.017 128.486 38.9131 126.092C38.8092 123.698 38.0525 121.391 36.7389 119.463C35.4252 117.535 33.6134 116.072 31.5326 115.259C30.1507 114.718 28.6838 114.478 27.216 114.552C25.7482 114.626 24.3083 115.013 22.9788 115.691C21.6492 116.369 20.4561 117.325 19.4678 118.503C18.4794 119.682 17.7153 121.059 17.219 122.558Z" fill="#263238"/>
<path opacity="0.1" d="M29.013 134.051C32.7668 132.138 34.3792 127.29 32.6144 123.222C30.8496 119.154 26.3758 117.407 22.622 119.319C18.8683 121.232 17.2559 126.08 19.0207 130.148C20.7855 134.216 25.2592 135.963 29.013 134.051Z" fill="white"/>
<path d="M212.707 295.054V299.097C212.707 299.216 212.685 299.335 212.642 299.445C212.6 299.555 212.537 299.655 212.459 299.739C212.381 299.823 212.288 299.889 212.185 299.934C212.083 299.979 211.974 300.001 211.863 300H106.512C105.613 300.002 104.728 299.765 103.933 299.309C103.139 298.853 102.46 298.192 101.957 297.385C101.453 296.578 101.14 295.649 101.046 294.681C100.952 293.712 101.078 292.733 101.415 291.829L134.8 202.227L188.75 202.626L186.909 214.251L175.009 289.498C174.918 290.069 174.944 290.654 175.084 291.213C175.224 291.772 175.475 292.291 175.819 292.734C176.163 293.177 176.592 293.533 177.077 293.778C177.561 294.022 178.089 294.149 178.623 294.15H211.863C211.974 294.149 212.083 294.171 212.185 294.216C212.288 294.261 212.381 294.327 212.459 294.411C212.537 294.495 212.6 294.595 212.642 294.705C212.685 294.816 212.707 294.934 212.707 295.054Z" fill="#2CB67D"/>
<path opacity="0.6" d="M212.707 295.054V299.097C212.707 299.216 212.685 299.335 212.642 299.445C212.6 299.555 212.537 299.655 212.459 299.739C212.381 299.823 212.288 299.889 212.185 299.934C212.083 299.979 211.974 300.001 211.863 300H106.512C105.613 300.002 104.728 299.765 103.933 299.309C103.139 298.853 102.46 298.192 101.957 297.385C101.453 296.578 101.14 295.649 101.046 294.681C100.952 293.712 101.078 292.733 101.415 291.829L122.115 236.284L134.8 202.227L188.75 202.626L186.909 214.251L181.734 246.975L175.009 289.498C174.918 290.069 174.944 290.654 175.084 291.213C175.224 291.772 175.475 292.291 175.819 292.734C176.163 293.177 176.592 293.533 177.077 293.778C177.561 294.022 178.089 294.149 178.623 294.15H211.863C211.974 294.149 212.083 294.171 212.185 294.216C212.288 294.261 212.381 294.327 212.459 294.411C212.537 294.495 212.6 294.595 212.642 294.705C212.685 294.816 212.707 294.934 212.707 295.054Z" fill="white"/>
<path opacity="0.2" d="M178.623 294.181H110.078C109.683 294.181 109.294 294.075 108.945 293.873C108.597 293.671 108.3 293.379 108.08 293.023C107.861 292.667 107.726 292.257 107.687 291.831C107.649 291.405 107.708 290.975 107.859 290.579L137.126 214.282H186.909L175.008 289.529C174.918 290.1 174.944 290.685 175.084 291.244C175.224 291.803 175.475 292.322 175.819 292.765C176.163 293.208 176.592 293.564 177.076 293.809C177.561 294.053 178.089 294.18 178.623 294.181Z" fill="black"/>
<path opacity="0.1" d="M188.751 202.657L186.909 214.283L181.734 247.007L122.115 236.316L134.801 202.258L188.751 202.657Z" fill="black"/>
<path d="M293.656 35.6543H43.8893C43.0498 35.6543 42.2186 35.8337 41.4431 36.1821C40.6677 36.5306 39.9632 37.0413 39.37 37.6851C38.7769 38.3288 38.3067 39.093 37.9863 39.9339C37.6659 40.7748 37.5017 41.6759 37.5029 42.5856V225.792C37.5029 227.628 38.1758 229.388 39.3735 230.686C40.5711 231.984 42.1955 232.713 43.8893 232.713H293.656C294.495 232.715 295.327 232.537 296.103 232.189C296.879 231.842 297.584 231.333 298.178 230.69C298.772 230.047 299.243 229.284 299.565 228.443C299.887 227.603 300.052 226.702 300.052 225.792V42.5541C300.047 40.7204 299.37 38.9639 298.171 37.6702C296.972 36.3766 295.348 35.6515 293.656 35.6543Z" fill="#2CB67D"/>
<path opacity="0.7" d="M293.656 35.6543H43.8893C43.0498 35.6543 42.2186 35.8337 41.4431 36.1821C40.6677 36.5306 39.9632 37.0413 39.37 37.6851C38.7769 38.3288 38.3067 39.093 37.9863 39.9339C37.6659 40.7748 37.5017 41.6759 37.5029 42.5856V225.792C37.5029 227.628 38.1758 229.388 39.3735 230.686C40.5711 231.984 42.1955 232.713 43.8893 232.713H293.656C294.495 232.715 295.327 232.537 296.103 232.189C296.879 231.842 297.584 231.333 298.178 230.69C298.772 230.047 299.243 229.284 299.565 228.443C299.887 227.603 300.052 226.702 300.052 225.792V42.5541C300.047 40.7204 299.37 38.9639 298.171 37.6702C296.972 36.3766 295.348 35.6515 293.656 35.6543Z" fill="#2CB67D"/>
<path opacity="0.2" d="M49.1806 232.714H43.8893C42.1955 232.714 40.5711 231.984 39.3735 230.686C38.1758 229.389 37.5029 227.628 37.5029 225.793V42.5544C37.5017 41.6446 37.6659 40.7435 37.9863 39.9026C38.3067 39.0618 38.7769 38.2976 39.37 37.6538C39.9632 37.01 40.6677 36.4993 41.4431 36.1509C42.2186 35.8024 43.0498 35.623 43.8893 35.623H49.1806C48.3411 35.623 47.5099 35.8024 46.7344 36.1509C45.9589 36.4993 45.2545 37.01 44.6613 37.6538C44.0682 38.2976 43.598 39.0618 43.2776 39.9026C42.9572 40.7435 42.793 41.6446 42.7942 42.5544V225.793C42.7942 227.628 43.4671 229.389 44.6648 230.686C45.8624 231.984 47.4868 232.714 49.1806 232.714Z" fill="black"/>
<path d="M294.296 42.4077H48.5605V219.103H294.296V42.4077Z" fill="white"/>
<path d="M64.1523 156.711C75.6435 156.711 84.9589 146.616 84.9589 134.163C84.9589 121.711 75.6435 111.616 64.1523 111.616C52.6611 111.616 43.3457 121.711 43.3457 134.163C43.3457 146.616 52.6611 156.711 64.1523 156.711Z" fill="#263238"/>
<path d="M77.8001 148.286C84.9226 140.568 84.9226 128.053 77.8 120.335C70.6775 112.616 59.1295 112.616 52.0069 120.335C44.8843 128.053 44.8843 140.568 52.0069 148.286C59.1295 156.005 70.6775 156.005 77.8001 148.286Z" fill="#263238"/>
<path opacity="0.2" d="M77.8001 148.286C84.9226 140.568 84.9226 128.053 77.8 120.335C70.6775 112.616 59.1295 112.616 52.0069 120.335C44.8843 128.053 44.8843 140.568 52.0069 148.286C59.1295 156.005 70.6775 156.005 77.8001 148.286Z" fill="white"/>
<path d="M60.9746 30.2042C60.9746 30.2042 83.0701 56.5537 66.3144 124.375L75.0363 127.158C75.0363 127.158 99.7678 63.1909 77.3815 31.0234C77.43 31.0234 64.037 24.3231 60.9746 30.2042Z" fill="#263238"/>
<path opacity="0.1" d="M60.9746 30.2042C60.9746 30.2042 83.0701 56.5537 66.3144 124.375L75.0363 127.158C75.0363 127.158 99.7678 63.1909 77.3815 31.0234C77.43 31.0234 64.037 24.3231 60.9746 30.2042Z" fill="white"/>
<path d="M78.0555 137.711C79.4743 131.196 75.7513 124.669 69.7401 123.132C63.7288 121.594 57.7055 125.628 56.2867 132.143C54.8679 138.657 58.5909 145.184 64.6022 146.722C70.6134 148.259 76.6367 144.225 78.0555 137.711Z" fill="#263238"/>
<path opacity="0.1" d="M78.0555 137.711C79.4743 131.196 75.7513 124.669 69.7401 123.132C63.7288 121.594 57.7055 125.628 56.2867 132.143C54.8679 138.657 58.5909 145.184 64.6022 146.722C70.6134 148.259 76.6367 144.225 78.0555 137.711Z" fill="white"/>
<path d="M71.4698 144.239C76.2119 142.11 78.4638 136.219 76.4995 131.08C74.5353 125.941 69.0988 123.501 64.3568 125.629C59.6147 127.758 57.3628 133.649 59.3271 138.788C61.2913 143.927 66.7278 146.367 71.4698 144.239Z" fill="#263238"/>
<path opacity="0.2" d="M71.4698 144.239C76.2119 142.11 78.4638 136.219 76.4995 131.08C74.5353 125.941 69.0988 123.501 64.3568 125.629C59.6147 127.758 57.3628 133.649 59.3271 138.788C61.2913 143.927 66.7278 146.367 71.4698 144.239Z" fill="white"/>
<path d="M266.076 75.9718L264.739 67.1606L263.401 75.9718L255.261 77.4316L263.401 78.8808L264.739 87.692L266.076 78.8808L274.207 77.4316L266.076 75.9718Z" fill="#2CB67D"/>
<path d="M266.076 75.9718L264.739 67.1606L263.401 75.9718L255.261 77.4316L263.401 78.8808L264.739 87.692L266.076 78.8808L274.207 77.4316L266.076 75.9718Z" fill="white" fill-opacity="0.4"/>
<path d="M246.083 10.439L244.494 0L242.914 10.439L233.271 12.1613L242.914 13.8836L244.494 24.3226L246.083 13.8836L255.726 12.1613L246.083 10.439Z" fill="#2CB67D"/>
<path d="M284.798 126.129L283.839 119.828L282.879 126.129L277.074 127.159L282.879 128.198L283.839 134.489L284.798 128.198L290.603 127.159L284.798 126.129Z" fill="#2CB67D"/>
<path d="M82.9148 200.945L81.5774 192.134L80.2401 200.945L72.0996 202.394L80.2401 203.854L81.5774 212.665L82.9148 203.854L91.0455 202.394L82.9148 200.945Z" fill="#2CB67D"/>
<path d="M82.9148 200.945L81.5774 192.134L80.2401 200.945L72.0996 202.394L80.2401 203.854L81.5774 212.665L82.9148 203.854L91.0455 202.394L82.9148 200.945Z" fill="white" fill-opacity="0.4"/>
<path opacity="0.6" d="M246.083 10.439L244.494 0L242.914 10.439L233.271 12.1613L242.914 13.8836L244.494 24.3226L246.083 13.8836L255.726 12.1613L246.083 10.439Z" fill="white"/>
<path d="M214.238 252.509L212.649 242.07L211.06 252.509L201.417 254.232L211.06 255.954L212.649 266.393L214.238 255.954L223.871 254.232L214.238 252.509Z" fill="#2CB67D"/>
<path opacity="0.6" d="M214.238 252.509L212.649 242.07L211.06 252.509L201.417 254.232L211.06 255.954L212.649 266.393L214.238 255.954L223.871 254.232L214.238 252.509Z" fill="white"/>
<path opacity="0.6" d="M284.798 126.129L283.839 119.828L282.879 126.129L277.074 127.159L282.879 128.198L283.839 134.489L284.798 128.198L290.603 127.159L284.798 126.129Z" fill="white"/>
<path d="M38.462 23.5348L37.5026 17.2441L36.5432 23.5348L30.7383 24.5745L36.5432 25.6142L37.5026 31.9049L38.462 25.6142L44.2669 24.5745L38.462 23.5348Z" fill="#2CB67D"/>
<path opacity="0.6" d="M38.462 23.5348L37.5026 17.2441L36.5432 23.5348L30.7383 24.5745L36.5432 25.6142L37.5026 31.9049L38.462 25.6142L44.2669 24.5745L38.462 23.5348Z" fill="white"/>
<path opacity="0.2" d="M169.009 62.9595H98.2646V106.018H169.009V62.9595Z" fill="#2CB67D"/>
<path opacity="0.4" d="M167.071 106.018H98.2646V91.3476L116.519 71.3613L133.798 90.2735L143.241 79.9337L167.071 106.018Z" fill="#2CB67D"/>
<path opacity="0.4" d="M156.895 80.8128C159.839 80.8128 162.226 77.9917 162.226 74.5116C162.226 71.0316 159.839 68.2104 156.895 68.2104C153.952 68.2104 151.565 71.0316 151.565 74.5116C151.565 77.9917 153.952 80.8128 156.895 80.8128Z" fill="#2CB67D"/>
<path d="M238.164 117.57H111.484C111.32 117.57 111.162 117.514 111.045 117.416C110.929 117.317 110.863 117.184 110.863 117.045C110.863 116.905 110.929 116.772 111.045 116.673C111.162 116.575 111.32 116.52 111.484 116.52H238.164C238.328 116.52 238.486 116.575 238.603 116.673C238.719 116.772 238.785 116.905 238.785 117.045C238.785 117.184 238.719 117.317 238.603 117.416C238.486 117.514 238.328 117.57 238.164 117.57Z" fill="#2CB67D" fill-opacity="0.4"/>
<path d="M238.163 121.77H98.8864C98.7215 121.77 98.5634 121.715 98.4468 121.617C98.3302 121.518 98.2646 121.385 98.2646 121.245C98.2646 121.106 98.3302 120.972 98.4468 120.874C98.5634 120.776 98.7215 120.72 98.8864 120.72H238.163C238.328 120.72 238.486 120.776 238.602 120.874C238.719 120.972 238.784 121.106 238.784 121.245C238.784 121.385 238.719 121.518 238.602 121.617C238.486 121.715 238.328 121.77 238.163 121.77Z" fill="#2CB67D" fill-opacity="0.4"/>
<path d="M238.163 125.971H98.8864C98.7215 125.971 98.5634 125.916 98.4468 125.817C98.3302 125.719 98.2646 125.585 98.2646 125.446C98.2646 125.307 98.3302 125.173 98.4468 125.075C98.5634 124.976 98.7215 124.921 98.8864 124.921H238.163C238.328 124.921 238.486 124.976 238.602 125.075C238.719 125.173 238.784 125.307 238.784 125.446C238.784 125.585 238.719 125.719 238.602 125.817C238.486 125.916 238.328 125.971 238.163 125.971Z" fill="#2CB67D" fill-opacity="0.4"/>
<path d="M238.163 131.222H98.8864C98.7215 131.222 98.5634 131.167 98.4468 131.068C98.3302 130.97 98.2646 130.836 98.2646 130.697C98.2646 130.558 98.3302 130.424 98.4468 130.326C98.5634 130.227 98.7215 130.172 98.8864 130.172H238.163C238.328 130.172 238.486 130.227 238.602 130.326C238.719 130.424 238.784 130.558 238.784 130.697C238.784 130.836 238.719 130.97 238.602 131.068C238.486 131.167 238.328 131.222 238.163 131.222Z" fill="#2CB67D" fill-opacity="0.4"/>
<path d="M238.163 135.423H98.8864C98.7215 135.423 98.5634 135.367 98.4468 135.269C98.3302 135.17 98.2646 135.037 98.2646 134.898C98.2646 134.758 98.3302 134.625 98.4468 134.526C98.5634 134.428 98.7215 134.373 98.8864 134.373H238.163C238.328 134.373 238.486 134.428 238.602 134.526C238.719 134.625 238.784 134.758 238.784 134.898C238.784 135.037 238.719 135.17 238.602 135.269C238.486 135.367 238.328 135.423 238.163 135.423Z" fill="#2CB67D" fill-opacity="0.4"/>
<path d="M238.163 139.624H98.8864C98.7215 139.624 98.5634 139.569 98.4468 139.47C98.3302 139.372 98.2646 139.238 98.2646 139.099C98.2646 138.96 98.3302 138.826 98.4468 138.728C98.5634 138.629 98.7215 138.574 98.8864 138.574H238.163C238.328 138.574 238.486 138.629 238.602 138.728C238.719 138.826 238.784 138.96 238.784 139.099C238.784 139.238 238.719 139.372 238.602 139.47C238.486 139.569 238.328 139.624 238.163 139.624Z" fill="#2CB67D" fill-opacity="0.4"/>
<path d="M238.163 143.825H98.8864C98.7215 143.825 98.5634 143.77 98.4468 143.671C98.3302 143.573 98.2646 143.439 98.2646 143.3C98.2646 143.161 98.3302 143.027 98.4468 142.929C98.5634 142.83 98.7215 142.775 98.8864 142.775H238.163C238.328 142.775 238.486 142.83 238.602 142.929C238.719 143.027 238.784 143.161 238.784 143.3C238.784 143.439 238.719 143.573 238.602 143.671C238.486 143.77 238.328 143.825 238.163 143.825Z" fill="#2CB67D" fill-opacity="0.4"/>
<path d="M238.163 148.025H98.8864C98.7215 148.025 98.5634 147.97 98.4468 147.871C98.3302 147.773 98.2646 147.639 98.2646 147.5C98.2646 147.361 98.3302 147.227 98.4468 147.129C98.5634 147.03 98.7215 146.975 98.8864 146.975H238.163C238.328 146.975 238.486 147.03 238.602 147.129C238.719 147.227 238.784 147.361 238.784 147.5C238.784 147.639 238.719 147.773 238.602 147.871C238.486 147.97 238.328 148.025 238.163 148.025Z" fill="#2CB67D" fill-opacity="0.4"/>
<path d="M238.163 153.276H98.8864C98.7215 153.276 98.5634 153.221 98.4468 153.122C98.3302 153.024 98.2646 152.89 98.2646 152.751C98.2646 152.612 98.3302 152.478 98.4468 152.38C98.5634 152.281 98.7215 152.226 98.8864 152.226H238.163C238.328 152.226 238.486 152.281 238.602 152.38C238.719 152.478 238.784 152.612 238.784 152.751C238.784 152.89 238.719 153.024 238.602 153.122C238.486 153.221 238.328 153.276 238.163 153.276Z" fill="#2CB67D" fill-opacity="0.4"/>
<path d="M238.163 157.477H98.8864C98.7215 157.477 98.5634 157.422 98.4468 157.324C98.3302 157.225 98.2646 157.092 98.2646 156.952C98.2646 156.813 98.3302 156.68 98.4468 156.581C98.5634 156.483 98.7215 156.427 98.8864 156.427H238.163C238.328 156.427 238.486 156.483 238.602 156.581C238.719 156.68 238.784 156.813 238.784 156.952C238.784 157.092 238.719 157.225 238.602 157.324C238.486 157.422 238.328 157.477 238.163 157.477Z" fill="#2CB67D" fill-opacity="0.4"/>
<path d="M163.542 161.678H98.8863C98.7215 161.678 98.5633 161.623 98.4467 161.524C98.3301 161.426 98.2646 161.292 98.2646 161.153C98.2646 161.014 98.3301 160.88 98.4467 160.782C98.5633 160.683 98.7215 160.628 98.8863 160.628H163.542C163.707 160.628 163.865 160.683 163.981 160.782C164.098 160.88 164.164 161.014 164.164 161.153C164.164 161.292 164.098 161.426 163.981 161.524C163.865 161.623 163.707 161.678 163.542 161.678Z" fill="#2CB67D" fill-opacity="0.4"/>
<path d="M238.164 172.18H111.484C111.32 172.18 111.162 172.125 111.045 172.026C110.929 171.928 110.863 171.794 110.863 171.655C110.863 171.516 110.929 171.382 111.045 171.284C111.162 171.185 111.32 171.13 111.484 171.13H238.164C238.328 171.13 238.486 171.185 238.603 171.284C238.719 171.382 238.785 171.516 238.785 171.655C238.785 171.794 238.719 171.928 238.603 172.026C238.486 172.125 238.328 172.18 238.164 172.18Z" fill="#2CB67D" fill-opacity="0.4"/>
<path d="M238.163 176.381H98.8864C98.7215 176.381 98.5634 176.325 98.4468 176.227C98.3302 176.128 98.2646 175.995 98.2646 175.856C98.2646 175.716 98.3302 175.583 98.4468 175.484C98.5634 175.386 98.7215 175.331 98.8864 175.331H238.163C238.328 175.331 238.486 175.386 238.602 175.484C238.719 175.583 238.784 175.716 238.784 175.856C238.784 175.995 238.719 176.128 238.602 176.227C238.486 176.325 238.328 176.381 238.163 176.381Z" fill="#2CB67D" fill-opacity="0.4"/>
<path d="M238.163 180.581H98.8864C98.7215 180.581 98.5634 180.526 98.4468 180.428C98.3302 180.329 98.2646 180.196 98.2646 180.056C98.2646 179.917 98.3302 179.784 98.4468 179.685C98.5634 179.587 98.7215 179.531 98.8864 179.531H238.163C238.328 179.531 238.486 179.587 238.602 179.685C238.719 179.784 238.784 179.917 238.784 180.056C238.784 180.196 238.719 180.329 238.602 180.428C238.486 180.526 238.328 180.581 238.163 180.581Z" fill="#2CB67D" fill-opacity="0.4"/>
<path d="M238.163 185.832H98.8864C98.7215 185.832 98.5634 185.777 98.4468 185.679C98.3302 185.58 98.2646 185.447 98.2646 185.307C98.2646 185.168 98.3302 185.035 98.4468 184.936C98.5634 184.838 98.7215 184.782 98.8864 184.782H238.163C238.328 184.782 238.486 184.838 238.602 184.936C238.719 185.035 238.784 185.168 238.784 185.307C238.784 185.447 238.719 185.58 238.602 185.679C238.486 185.777 238.328 185.832 238.163 185.832Z" fill="#2CB67D" fill-opacity="0.4"/>
<path d="M238.163 190.034H98.8864C98.7215 190.034 98.5634 189.978 98.4468 189.88C98.3302 189.781 98.2646 189.648 98.2646 189.508C98.2646 189.369 98.3302 189.236 98.4468 189.137C98.5634 189.039 98.7215 188.983 98.8864 188.983H238.163C238.328 188.983 238.486 189.039 238.602 189.137C238.719 189.236 238.784 189.369 238.784 189.508C238.784 189.648 238.719 189.781 238.602 189.88C238.486 189.978 238.328 190.034 238.163 190.034Z" fill="#2CB67D" fill-opacity="0.4"/>
<path d="M238.163 194.234H98.8864C98.7215 194.234 98.5634 194.179 98.4468 194.08C98.3302 193.982 98.2646 193.848 98.2646 193.709C98.2646 193.57 98.3302 193.436 98.4468 193.338C98.5634 193.239 98.7215 193.184 98.8864 193.184H238.163C238.328 193.184 238.486 193.239 238.602 193.338C238.719 193.436 238.784 193.57 238.784 193.709C238.784 193.848 238.719 193.982 238.602 194.08C238.486 194.179 238.328 194.234 238.163 194.234Z" fill="#2CB67D" fill-opacity="0.4"/>
<path d="M212.968 198.435H98.8847C98.7202 198.435 98.5625 198.38 98.4462 198.281C98.33 198.183 98.2646 198.049 98.2646 197.91C98.2646 197.771 98.33 197.637 98.4462 197.539C98.5625 197.44 98.7202 197.385 98.8847 197.385H212.968C213.132 197.385 213.29 197.44 213.406 197.539C213.522 197.637 213.588 197.771 213.588 197.91C213.588 198.049 213.522 198.183 213.406 198.281C213.29 198.38 213.132 198.435 212.968 198.435Z" fill="#2CB67D" fill-opacity="0.4"/>
</svg>
