<svg width="30" height="107" viewBox="0 0 30 107" fill="none" xmlns="http://www.w3.org/2000/svg">
<path d="M26.3263 68.9132C26.0661 69.6841 25.5116 71.4443 24.731 73.3892C24.3603 74.3687 23.9577 75.4051 23.5225 76.4002C23.0967 77.3942 22.7167 78.3746 22.3211 79.2042C18.9169 86.995 14.4282 94.3236 8.94915 100.822C8.08124 101.825 6.72924 103.623 5.04958 102.415C3.29824 101.151 3.12457 99.2774 4.5016 97.5401C7.79846 93.2925 11.144 88.9683 13.3436 84.1342C16.5622 77.1065 19.7276 70.111 21.4678 62.7332C22.2311 59.4273 22.7838 56.0893 23.1378 52.7448C23.4526 49.3864 23.4681 46.0498 23.1831 42.7261C22.5041 36.4844 20.5841 30.4598 18.0252 24.8237C15.8656 19.9533 13.3953 15.088 9.73584 11.0352C9.30049 10.5599 8.74568 10.1149 8.17971 9.65309C7.5885 9.22075 6.96271 8.81894 6.45181 8.34249C5.6405 7.5114 4.06507 6.40024 3.26217 5.55933C2.92172 5.18191 2.5205 4.85543 2.06584 4.65112C-0.0240225 3.76313 -0.151354 2.79915 1.7718 1.23885C2.20817 0.898161 2.3926 0.215824 3.09298 0.24248C3.12096 0.239604 3.17786 0.242732 3.20585 0.239857C4.38221 0.127953 5.3047 0.481341 6.11869 0.971477C6.8915 1.51963 7.55671 2.21333 8.33976 2.7694C15.8865 8.41305 21.3633 16.2059 24.8175 24.592C26.9242 29.7726 28.1526 35.2137 29.0172 40.6922C29.2934 42.1879 29.6563 43.7017 29.5426 45.2554L29.5398 45.2288C29.6321 46.0351 29.6582 46.8393 29.6945 47.6514C29.7215 48.4644 29.7671 49.2755 29.7185 50.0874C29.3822 56.1734 28.3748 62.5167 26.513 68.0691C26.4388 68.265 26.4343 68.5884 26.3263 68.9132Z" fill="#969696" fill-opacity="0.4"/>
<path d="M10.5598 97.6083C11.023 97.3455 12.6974 96.4831 13.7173 95.8583C16.0851 94.4047 18.4957 93.0005 21.2463 92.1531C21.6757 92.0193 22.3173 91.6577 23.3997 93.3843C24.5268 95.1781 24.7634 96.4716 24.0603 96.7859C22.375 97.5417 20.5243 98.0636 19.142 99.2904C17.1297 101.084 14.6694 102.189 12.4313 103.62L11.6514 104.103L10.2653 104.927C9.34344 105.497 8.37694 106 7.5146 106.232C6.65317 106.473 5.84063 106.547 5.03602 106.424C4.24349 106.326 3.36876 105.887 2.77228 105.312L2.70901 105.246C2.18058 104.691 1.86012 104.141 1.60722 103.423C1.34589 102.715 1.26427 101.737 1.34694 100.706L1.42339 99.1566L1.46446 98.3636L1.47395 97.9053C1.48456 97.3663 1.52315 96.8244 1.58132 96.2895C1.79652 94.4385 2.54417 92.6314 2.94026 90.7977C3.03736 90.3664 2.69731 89.8095 2.78052 89.3347C2.85327 88.9418 2.9369 88.2876 3.16165 87.9059C3.2581 87.7436 3.38256 87.5786 3.31769 87.406C3.03792 86.6099 3.8254 86.4751 6.21192 86.9471C6.73118 87.0461 7.43814 87.0452 7.78085 87.261C7.79109 87.2689 7.82091 87.2839 7.84139 87.2997C9.24155 87.9896 8.50167 88.496 8.47696 89.0813C8.33587 91.9288 8.0521 94.7639 7.82522 97.6023L7.70665 98.8339C7.69711 98.9245 7.68663 99.0061 7.69484 99.0859C7.70191 99.2465 7.71833 99.4063 7.88534 99.3802C7.92265 99.3764 8.00205 99.3233 8.07121 99.2624C8.18519 99.1789 8.26006 99.0818 8.18227 99.2422C8.29534 99.1499 8.38723 98.9432 8.38815 98.9521C8.40772 98.959 8.42932 98.894 8.41816 98.8772L8.41725 98.8683L9.05793 98.4976C9.48567 98.2564 9.92458 98.0321 10.3653 97.8255C10.4279 97.7922 10.4617 97.6632 10.5598 97.6083Z" fill="#969696" fill-opacity="0.4"/>
</svg>
