<svg width="31" height="107" viewBox="0 0 31 107" fill="none" xmlns="http://www.w3.org/2000/svg">
<path d="M4.32996 68.9132C4.59015 69.6841 5.14463 71.4443 5.92525 73.3892C6.29599 74.3687 6.69858 75.4051 7.13371 76.4002C7.55952 77.3942 7.93959 78.3746 8.33515 79.2042C11.7393 86.995 16.228 94.3236 21.7071 100.822C22.575 101.825 23.927 103.623 25.6067 102.415C27.358 101.151 27.5317 99.2774 26.1546 97.5401C22.8578 93.2925 19.5122 88.9683 17.3127 84.1342C14.094 77.1065 10.9287 70.111 9.18845 62.7332C8.42511 59.4273 7.87247 56.0893 7.51847 52.7448C7.20362 49.3864 7.18819 46.0498 7.47313 42.7261C8.15216 36.4844 10.0722 30.4598 12.631 24.8237C14.7907 19.9533 17.2609 15.088 20.9204 11.0352C21.3558 10.5599 21.9106 10.1149 22.4765 9.65309C23.0678 9.22075 23.6935 8.81894 24.2044 8.34249C25.0158 7.5114 26.5912 6.40024 27.3941 5.55933C27.7345 5.18191 28.1357 4.85543 28.5904 4.65112C30.6803 3.76313 30.8076 2.79915 28.8844 1.23885C28.4481 0.898161 28.2636 0.215824 27.5633 0.24248C27.5353 0.239604 27.4784 0.242732 27.4504 0.239857C26.274 0.127953 25.3515 0.481341 24.5376 0.971477C23.7648 1.51963 23.0995 2.21333 22.3165 2.7694C14.7697 8.41305 9.29299 16.2059 5.83877 24.592C3.73209 29.7726 2.50367 35.2137 1.63909 40.6922C1.36285 42.1879 0.99991 43.7017 1.11367 45.2554L1.11641 45.2288C1.02413 46.0351 0.998075 46.8393 0.961771 47.6514C0.934794 48.4644 0.889154 49.2755 0.937724 50.0874C1.27401 56.1734 2.2815 62.5167 4.14329 68.0691C4.21744 68.265 4.22193 68.5884 4.32996 68.9132Z" fill="#969696" fill-opacity="0.4"/>
<path d="M20.0964 97.6083C19.6332 97.3455 17.9589 96.4831 16.9389 95.8583C14.5711 94.4047 12.1606 93.0005 9.40995 92.1531C8.9806 92.0193 8.33899 91.6577 7.25654 93.3843C6.12948 95.1781 5.89288 96.4716 6.59593 96.7858C8.28121 97.5417 10.1319 98.0636 11.5143 99.2904C13.5266 101.084 15.9868 102.189 18.2249 103.62L19.0049 104.103L20.3909 104.927C21.3128 105.497 22.2793 106 23.1417 106.232C24.0031 106.473 24.8156 106.547 25.6202 106.424C26.4128 106.326 27.2875 105.887 27.884 105.312L27.9472 105.246C28.4757 104.691 28.7961 104.141 29.049 103.423C29.3104 102.715 29.392 101.737 29.3093 100.706L29.2329 99.1566L29.1918 98.3636L29.1823 97.9053C29.1717 97.3663 29.1331 96.8244 29.0749 96.2895C28.8597 94.4385 28.1121 92.6314 27.716 90.7977C27.6189 90.3664 27.9589 89.8095 27.8757 89.3347C27.803 88.9418 27.7194 88.2876 27.4946 87.9059C27.3981 87.7436 27.2737 87.5786 27.3386 87.406C27.6183 86.6099 26.8308 86.4751 24.4443 86.9471C23.9251 87.0461 23.2181 87.0452 22.8754 87.261C22.8652 87.2689 22.8353 87.2839 22.8149 87.2997C21.4147 87.9896 22.1546 88.496 22.1793 89.0813C22.3204 91.9288 22.6042 94.7639 22.831 97.6023L22.9496 98.8339C22.9591 98.9245 22.9696 99.0061 22.9614 99.0859C22.9543 99.2465 22.9379 99.4063 22.7709 99.3802C22.7336 99.3764 22.6542 99.3233 22.585 99.2624C22.4711 99.1789 22.3962 99.0818 22.474 99.2422C22.3609 99.1499 22.269 98.9432 22.2681 98.9521C22.2485 98.959 22.2269 98.894 22.2381 98.8772L22.239 98.8683L21.5983 98.4976C21.1706 98.2564 20.7317 98.0321 20.291 97.8255C20.2284 97.7922 20.1945 97.6632 20.0964 97.6083Z" fill="#969696" fill-opacity="0.4"/>
</svg>
