<svg width="162" height="51" viewBox="0 0 162 51" fill="none" xmlns="http://www.w3.org/2000/svg">
<path fill-rule="evenodd" clip-rule="evenodd" d="M0.151755 32.0976C5.56056 35.4446 11.3424 38.154 17.202 40.5566L22.1624 42.4172C23.2363 42.8323 24.3396 43.1651 25.4416 43.4975C26.0334 43.6761 26.6248 43.8545 27.2111 44.0455C29.4587 44.8169 31.766 45.3928 34.075 45.9691L34.0755 45.9692C35.192 46.2479 36.3089 46.5266 37.4196 46.8276C44.7627 48.4253 52.2106 49.5885 59.717 49.9835C67.2257 50.2697 74.7519 50.0679 82.1746 48.9922C90.4218 47.7787 98.5818 45.9528 106.493 43.3134C114.401 40.7007 121.992 37.0874 129.034 32.6709C137.008 27.6206 145.008 22.395 152.28 16.2012C152.29 17.9884 152.315 19.7766 152.407 21.5662C152.417 21.7321 152.362 21.8954 152.307 22.0578C152.143 22.5413 151.982 23.0172 153.549 23.5332C153.574 23.5505 153.612 23.5697 153.639 23.5736C153.989 23.7251 154.552 23.7503 155.114 23.7755C155.396 23.7881 155.677 23.8006 155.932 23.829C159.407 24.2037 160.513 23.9984 160.016 23.121C159.916 22.9435 160.037 22.7636 160.152 22.5908L160.182 22.5458C160.413 22.1694 160.476 21.5665 160.523 21.1153L160.523 21.1151L160.523 21.1129C160.531 21.0406 160.538 20.9721 160.545 20.9092C160.579 20.6305 160.454 20.3354 160.332 20.0478C160.214 19.7689 160.099 19.4971 160.135 19.2541C160.265 18.4027 160.48 17.5547 160.695 16.7068L160.695 16.7067C161.011 15.4574 161.328 14.2084 161.375 12.9488C161.397 12.3386 161.365 11.7206 161.318 11.114L161.22 10.2001C161.199 10.1342 161.188 9.88569 161.178 9.64953C161.175 9.57765 161.171 9.5069 161.168 9.4428L161.12 8.56344C161.088 7.99187 161.054 7.43213 161.021 6.88103L161.021 6.87432L161.02 6.86467L161.02 6.86394C160.917 5.15547 160.819 3.52975 160.793 1.8913L160.776 0.525819C158.884 0.577379 157.042 0.575072 155.196 0.572761L155.196 0.572762C154.905 0.572396 154.614 0.572031 154.322 0.571877L151.187 0.574302L151.186 0.574313C150.599 0.583348 150.012 0.592385 149.421 0.628089C148.46 0.68538 147.5 0.675414 146.539 0.665448C144.596 0.645295 142.654 0.625141 140.715 1.16075C139.23 1.57312 137.736 1.27058 136.248 0.969053C135.742 0.86656 135.237 0.764183 134.732 0.690036C133.905 0.568417 133.36 2.42364 133.343 5.59688C133.331 8.45145 134.032 8.65497 134.506 8.79272C134.538 8.80221 134.57 8.81139 134.6 8.8211C137.619 9.7965 140.656 9.80702 143.681 9.72023C144.633 9.70199 145.974 9.76964 146.856 9.81414L147.032 9.82297C142.234 13.8281 137.214 17.5347 131.975 20.9184C125.17 25.3016 118.016 29.1836 110.485 32.206C109.444 32.6983 108.256 33.1101 107.015 33.5403L107.015 33.5404C106.369 33.7644 105.709 33.9934 105.047 34.2414C104.713 34.3557 104.379 34.478 104.044 34.6006L104.044 34.6007C103.402 34.8359 102.758 35.0718 102.104 35.2534C101.107 35.543 100.111 35.8326 99.1578 36.1014C96.5308 36.9171 94.0689 37.4464 92.3045 37.8258L92.3042 37.8259L92.3041 37.8259C91.5076 37.9972 90.8532 38.1379 90.39 38.2606C90.1198 38.3196 89.8654 38.4058 89.6275 38.4864L89.6275 38.4865L89.6274 38.4865L89.6273 38.4865C89.3073 38.5949 89.0171 38.6933 88.7578 38.7021C77.8075 40.5948 65.688 41.5387 54.184 40.3379C53.6789 40.2818 53.1742 40.2228 52.6696 40.1637C51.6602 40.0456 50.6508 39.9275 49.6379 39.8331C49.3208 39.8007 49.0028 39.7705 48.6845 39.7404C47.4795 39.6262 46.2696 39.5115 45.0863 39.2728L45.1394 39.2807C43.6092 38.8189 42.0461 38.5812 40.4851 38.3439C39.1704 38.144 37.8572 37.9443 36.5665 37.6113C26.2153 35.2442 16.3146 30.9263 7.07765 25.6155C5.6066 24.7608 4.15363 23.8752 2.71982 22.9598L0.151755 32.0976Z" fill="#969696" fill-opacity="0.4"/>
</svg>
