<svg width="253" height="81" viewBox="0 0 253 81" fill="none" xmlns="http://www.w3.org/2000/svg">
<path d="M115.017 51.8797C116.187 52.7594 118.18 54.1052 120.807 55.5713C123.433 57.0374 126.717 58.5862 130.355 59.9772C133.986 61.3681 137.979 62.5937 141.897 63.6237C145.807 64.6763 149.665 65.4357 153.054 65.9996C168.747 68.5559 185.029 67.9845 200.142 63.338C215.186 58.699 229.068 49.9323 239.168 37.865C240.775 36.0004 242.693 33.3012 244.308 31.1434C244.731 30.6171 245.101 30.0983 245.455 29.6472C245.81 29.196 246.15 28.8051 246.467 28.4893C247.094 27.8728 247.629 27.5871 247.984 27.8201C248.724 28.3089 248.618 29.9404 247.712 32.4591C246.701 34.9102 244.874 38.2635 241.885 41.707C234.744 50.1278 225.792 56.8946 216.016 61.8568C206.233 66.8492 195.582 69.9619 184.811 71.4581C169.011 73.6611 152.85 72.022 137.617 67.6763C130.001 65.5184 122.46 62.6538 115.56 58.3908C112.126 56.2555 108.887 53.7368 105.996 50.8271C103.135 47.9174 100.629 44.5114 98.8177 40.7747C97.1797 37.4289 96.1002 33.82 95.5945 30.1133C95.0963 26.4066 95.2019 22.5797 96.0927 18.8655C96.9608 15.1513 98.7573 11.6176 101.233 8.64771C103.709 5.66282 107.015 3.36966 110.593 1.94112C112.39 1.24189 114.247 0.738126 116.126 0.414826C118.006 0.0990447 119.901 -0.0137252 121.78 0.00131198C125.547 0.0689794 129.261 0.753163 132.786 1.91855C139.829 4.27187 146.298 8.53491 150.887 14.5498C151.952 15.9858 152.888 17.4445 153.741 18.9707C154.579 20.497 155.326 22.0759 155.975 23.7074C156.602 25.339 157.13 27.0156 157.545 28.7299C157.938 30.4516 158.202 32.2035 158.338 33.9779C158.572 37.5191 158.202 41.1882 157.07 44.6092C155.983 48.0452 154.216 51.2406 152.05 54.0375C147.679 59.6614 141.92 63.7515 135.949 66.9996C132.945 68.6161 129.857 70.0446 126.717 71.2551L121.999 73.0069L119.637 73.8716L117.229 74.6009C95.1038 81.5481 71.409 82.6383 48.7181 78.8414C43.3662 77.9993 36.9122 76.8565 31.1829 75.2174C29.9826 74.9242 28.6315 74.4505 27.167 73.9693C25.7102 73.4806 24.1476 72.9618 22.5926 72.443C19.5204 71.2927 16.501 70.0221 14.259 69.0672C12.3719 68.1274 10.4244 67.1424 8.52217 66.3455C7.97867 66.1124 7.45782 65.8868 6.96717 65.6763C6.48406 65.4432 6.03114 65.2026 5.60087 64.9846C4.74034 64.5335 3.98549 64.1199 3.32877 63.744C2.01533 62.9921 1.09441 62.3756 0.558462 61.8869C-0.505881 60.9095 -0.030329 60.4358 1.82661 60.3231C2.64185 60.2704 2.21914 59.4133 4.33273 60.2028C4.42331 60.2329 4.59692 60.3005 4.67241 60.3306C11.1189 62.5711 17.2407 65.6688 23.7777 68.1199C56.01 79.4128 92.3184 79.1947 124.12 66.7966C126.589 65.9169 128.936 64.8493 131.269 63.714C133.594 62.5862 135.851 61.3381 137.987 59.9471C140.138 58.5637 142.192 57.06 144.048 55.3683C145.898 53.6766 147.634 51.8646 149.031 49.8421C150.435 47.8271 151.559 45.6618 152.359 43.3761L152.865 41.6393C153.039 41.0604 153.122 40.4664 153.25 39.88C153.424 38.692 153.567 37.4891 153.56 36.2786C153.605 33.8576 153.273 31.414 152.639 29.0457C152.02 26.6698 151.106 24.3541 149.944 22.1737C149.325 20.9707 148.585 19.8204 147.83 18.7076C147.045 17.64 146.23 16.5873 145.302 15.6325C143.475 13.6776 141.384 11.9634 139.127 10.4221L139.202 10.4747C136.802 8.93341 134.19 7.71541 131.48 6.82822C128.778 5.91847 125.962 5.39216 123.162 5.18164C120.512 5.00119 117.84 5.20417 115.304 5.81318C112.782 6.45978 110.367 7.48985 108.329 9.03116C107.28 9.76799 106.366 10.6702 105.498 11.6025C104.66 12.5724 103.921 13.625 103.271 14.7302C101.988 16.9557 101.15 19.4519 100.758 22.0459C99.95 27.2412 100.931 32.7298 103.03 37.5642C104.087 39.9927 105.438 42.2483 107.046 44.3009C108.676 46.376 110.51 48.2782 112.511 49.9775C112.813 50.2556 113.22 50.5339 113.651 50.8496C114.043 51.188 114.511 51.5338 115.017 51.8797Z" fill="black"/>
<path d="M252.491 33.1953C252.589 33.7066 252.808 35.5261 252.898 36.6915C253.155 39.3832 252.966 42.1726 251.872 44.6838C251.698 45.0748 251.524 45.7665 249.871 45.3229C248.15 44.8642 247.244 44.2252 247.441 43.6537C247.894 42.2553 248.482 40.7741 248.195 39.2704C247.788 37.1125 247.773 34.9698 247.146 32.9022C247.048 32.5563 246.935 32.2104 246.822 31.8721L246.754 31.654L246.731 31.6014L246.693 31.5037C246.648 31.3758 246.58 31.218 246.429 31.1954C246.331 31.1879 246.24 31.248 246.172 31.3157C246.142 31.3458 246.112 31.3909 246.089 31.4285L246.059 31.4886C246.052 31.5037 246.059 31.5037 246.044 31.5187L244.753 32.6014C243.991 33.248 243.221 33.8795 242.391 34.4284C240.964 35.3758 239.296 35.9697 237.786 36.7968C237.431 36.9923 237.205 37.5261 236.827 37.7516C236.51 37.9396 235.997 38.2704 235.612 38.3531C235.446 38.3907 235.265 38.4132 235.174 38.5486C234.752 39.1801 234.253 38.7742 233.355 37.0374C233.159 36.6539 232.789 36.2254 232.766 35.887C232.766 35.872 232.759 35.8419 232.759 35.8269C232.525 34.5637 233.272 34.7216 233.695 34.3983C235.786 32.8194 237.945 31.3458 240.081 29.827L242.066 28.4586C242.398 28.2256 242.723 27.9925 243.04 27.7444L243.674 27.2557C243.968 27.0301 244.263 26.797 244.572 26.5865C245.229 26.1204 245.961 25.5941 246.708 25.6993H246.693C247.093 25.6392 247.509 25.6316 247.924 25.6918C248.316 25.7595 248.709 25.8798 249.048 26.0903C249.705 26.4813 250.249 27.0451 250.679 27.7519C250.905 28.0902 251.056 28.5113 251.215 28.9173C251.366 29.3157 251.547 29.7594 251.675 30.1203C251.985 31.0751 252.234 32.0074 252.347 32.9397C252.37 33.0074 252.468 33.0901 252.491 33.1953Z" fill="black"/>
</svg>
