<svg width="146" height="93" viewBox="0 0 146 93" fill="none" xmlns="http://www.w3.org/2000/svg">
<path d="M80.802 15.6545C82.0112 15.4921 84.7481 15.0694 87.8741 14.8215C89.4348 14.6675 91.0925 14.5179 92.7135 14.4377C94.3274 14.346 95.895 14.2035 97.2664 14.1795C109.956 13.5481 122.674 14.6326 134.859 17.5499C136.754 18.0288 140.026 18.6223 139.397 21.6001C138.736 24.7075 136.285 26.154 133.081 25.4887C125.288 23.9531 117.362 22.4039 109.435 22.6817C97.8982 23.0582 86.4377 23.4833 75.3201 26.0165C70.3484 27.1731 65.4607 28.6254 60.6846 30.3411C55.9133 32.1169 51.3534 34.2692 46.9932 36.8049C38.8924 41.7546 31.8402 48.1819 25.7053 55.1897C20.3727 61.1782 15.2353 67.5686 11.9274 74.9814C11.5432 75.8588 11.2728 76.8723 10.9862 77.9113C10.7551 78.9641 10.5866 80.0421 10.2467 81.0189C9.60525 82.6184 9.04529 85.3971 8.38535 86.9921C8.0771 87.682 7.87517 88.418 7.87226 89.1441C7.92866 92.4487 6.69117 93.2425 3.39679 91.7494C2.6675 91.4019 1.62504 91.6056 1.23663 90.6745C1.21573 90.6399 1.18549 90.5636 1.1646 90.529C0.298529 89.0671 0.221017 87.6336 0.395813 86.2525C0.674714 84.8874 1.21737 83.568 1.50085 82.1843C4.62087 68.6644 11.9275 56.4458 21.2699 46.4794C27.0577 40.3581 33.7335 35.2129 40.681 30.518C42.5534 29.1839 44.3978 27.7248 46.5858 26.8616L46.5512 26.8825C47.5949 26.2371 48.6759 25.6796 49.7614 25.1035C50.854 24.5389 51.9325 23.9513 53.0692 23.4861C61.5736 19.9623 70.8357 17.1467 79.5376 15.9606C79.8497 15.9297 80.2934 15.7251 80.802 15.6545Z" fill="#969696" fill-opacity="0.4"/>
<path d="M129.5 17.5407C128.86 17.1075 126.669 15.4847 125.198 14.5608C121.78 12.4182 118.402 10.1876 115.579 7.15091C115.136 6.67788 114.253 6.0763 115.952 3.53997C117.715 0.90173 119.335 -0.249078 120.19 0.463487C122.243 2.16995 124.077 4.24463 126.589 5.24929C130.256 6.70679 133.254 9.19726 136.563 11.1852L137.696 11.8879L139.66 13.1598C140.996 13.9915 142.268 14.925 143.108 15.8989C143.959 16.8659 144.553 17.8774 144.873 19.0075C145.22 20.1052 145.152 21.5322 144.729 22.6849L144.678 22.81C144.241 23.8609 143.686 24.6369 142.86 25.4344C142.052 26.2365 140.768 26.9796 139.313 27.5427L137.152 28.452L136.046 28.9148L135.415 29.2007C134.674 29.5378 133.911 29.8403 133.146 30.1127C130.491 31.0371 127.573 31.2382 124.832 31.9154C124.185 32.0695 123.632 32.8758 122.934 33.0763C122.354 33.2372 121.411 33.554 120.754 33.5093C120.474 33.4892 120.174 33.4342 119.978 33.6313C119.062 34.5146 118.4 33.575 117.596 30.1543C117.417 29.4123 116.987 28.4906 117.073 27.903C117.078 27.8845 117.08 27.8359 117.089 27.7989C117.181 25.5231 118.32 26.1586 119.133 25.8098C123.103 24.1399 127.141 22.6642 131.15 21.1122L132.902 20.465C133.031 20.4185 133.149 20.379 133.253 20.3163C133.467 20.2025 133.675 20.0771 133.538 19.8762C133.51 19.83 133.39 19.761 133.265 19.7104C133.082 19.616 132.904 19.5816 133.17 19.5787C132.976 19.4912 132.638 19.506 132.65 19.499C132.647 19.4689 132.545 19.4831 132.529 19.5086L132.518 19.5155L131.623 18.9211C131.035 18.5201 130.463 18.0935 129.914 17.6531C129.831 17.5932 129.634 17.6329 129.5 17.5407Z" fill="#969696" fill-opacity="0.4"/>
</svg>
