<svg width="12" height="22" viewBox="0 0 12 22" fill="none" xmlns="http://www.w3.org/2000/svg">
<path d="M0.793056 19.6264C0.402532 20.0169 0.402532 20.6501 0.793056 21.0406C1.18358 21.4311 1.81675 21.4311 2.20727 21.0406L0.793056 19.6264ZM10.8335 11.0002L11.5406 11.7073C11.9311 11.3167 11.9311 10.6836 11.5406 10.2931L10.8335 11.0002ZM2.20727 0.959721C1.81675 0.569197 1.18358 0.569197 0.793056 0.959721C0.402532 1.35025 0.402532 1.98341 0.793056 2.37393L2.20727 0.959721ZM2.20727 21.0406L11.5406 11.7073L10.1264 10.2931L0.793056 19.6264L2.20727 21.0406ZM11.5406 10.2931L2.20727 0.959721L0.793056 2.37393L10.1264 11.7073L11.5406 10.2931Z" fill="black"/>
</svg>
