<svg width="337" height="215" viewBox="0 0 337 215" fill="none" xmlns="http://www.w3.org/2000/svg">
<path d="M14.6523 184.302L16.8744 209.673C17.0088 210.95 17.6069 212.135 18.5565 213.004C19.506 213.873 20.7414 214.366 22.0302 214.391H176.85L174.206 184.302H14.6523Z" fill="#2CB67D"/>
<path opacity="0.2" d="M14.6523 184.302L16.8744 209.673C17.0088 210.95 17.6069 212.135 18.5565 213.004C19.506 213.873 20.7414 214.366 22.0302 214.391H176.85L174.206 184.302H14.6523Z" fill="black"/>
<path d="M176.37 208.659H19.1835C18.5317 208.648 17.9067 208.399 17.4273 207.959C16.948 207.518 16.6478 206.918 16.5838 206.271L0.0125556 17.6491C-0.0205023 17.3447 0.0119015 17.0367 0.107604 16.7456C0.203306 16.4546 0.360121 16.1873 0.567599 15.9613C0.775078 15.7354 1.02847 15.5561 1.3109 15.4354C1.59333 15.3146 1.89833 15.2553 2.20559 15.2611H159.421L176.37 208.659Z" fill="#2CB67D"/>
<path opacity="0.2" d="M176.37 208.659H19.1835C18.5317 208.648 17.9067 208.399 17.4273 207.959C16.948 207.518 16.6478 206.918 16.5838 206.271L0.0125556 17.6491C-0.0205023 17.3447 0.0119015 17.0367 0.107604 16.7456C0.203306 16.4546 0.360121 16.1873 0.567599 15.9613C0.775078 15.7354 1.02847 15.5561 1.3109 15.4354C1.59333 15.3146 1.89833 15.2553 2.20559 15.2611H159.421L176.37 208.659Z" fill="white"/>
<path d="M38.1503 204.361H22.407C21.9486 204.353 21.5093 204.177 21.1721 203.868C20.8348 203.558 20.6231 203.136 20.577 202.682L19.1247 186.994C19.0174 185.821 18.4792 184.729 17.6133 183.928C16.7475 183.126 15.6151 182.672 14.4336 182.652L16.3071 203.898C16.4351 205.175 17.0293 206.362 17.9771 207.231C18.9249 208.101 20.1602 208.594 21.4484 208.616H42.7688C42.6432 207.471 42.1067 206.41 41.258 205.628C40.4093 204.846 39.3056 204.396 38.1503 204.361Z" fill="#263238"/>
<path d="M0.23025 19.9502L2.08924 41.1961C2.6456 41.2063 3.19768 41.0975 3.70826 40.877C4.21884 40.6565 4.67605 40.3295 5.04905 39.9181C5.42206 39.5066 5.70219 39.0202 5.87056 38.4917C6.03893 37.9632 6.09162 37.4048 6.02509 36.8543L4.64537 21.1659C4.60962 20.9499 4.62353 20.7286 4.68603 20.5187C4.74854 20.3088 4.85802 20.1158 5.00623 19.9542C5.15443 19.7925 5.33751 19.6665 5.54167 19.5856C5.74582 19.5047 5.96573 19.471 6.18484 19.4871H21.9282C22.4846 19.4973 23.0367 19.3885 23.5472 19.168C24.0578 18.9475 24.515 18.6205 24.888 18.2091C25.261 17.7976 25.5412 17.3112 25.7095 16.7827C25.8779 16.2542 25.9306 15.6958 25.8641 15.1453H4.5437C3.92971 15.1339 3.32048 15.2546 2.75756 15.4992C2.19465 15.7438 1.69131 16.1065 1.28188 16.5626C0.87244 17.0187 0.56654 17.5574 0.385056 18.142C0.203571 18.7266 0.150771 19.3434 0.23025 19.9502Z" fill="#263238"/>
<g opacity="0.5">
<path d="M38.1503 204.361H22.407C21.9486 204.353 21.5093 204.177 21.1721 203.868C20.8348 203.558 20.6231 203.136 20.577 202.682L19.1247 186.994C19.0174 185.821 18.4792 184.729 17.6133 183.928C16.7475 183.126 15.6151 182.672 14.4336 182.652L16.3071 203.898C16.4351 205.175 17.0293 206.362 17.9771 207.231C18.9249 208.101 20.1602 208.594 21.4484 208.616H42.7688C42.6432 207.471 42.1067 206.41 41.258 205.628C40.4093 204.846 39.3056 204.396 38.1503 204.361Z" fill="white"/>
<path d="M0.23025 19.9502L2.08924 41.1961C2.6456 41.2063 3.19768 41.0975 3.70826 40.877C4.21884 40.6565 4.67605 40.3295 5.04905 39.9181C5.42206 39.5066 5.70219 39.0202 5.87056 38.4917C6.03893 37.9632 6.09162 37.4048 6.02509 36.8543L4.64537 21.1659C4.60962 20.9499 4.62353 20.7286 4.68603 20.5187C4.74854 20.3088 4.85802 20.1158 5.00623 19.9542C5.15443 19.7925 5.33751 19.6665 5.54167 19.5856C5.74582 19.5047 5.96573 19.471 6.18484 19.4871H21.9282C22.4846 19.4973 23.0367 19.3885 23.5472 19.168C24.0578 18.9475 24.515 18.6205 24.888 18.2091C25.261 17.7976 25.5412 17.3112 25.7095 16.7827C25.8779 16.2542 25.9306 15.6958 25.8641 15.1453H4.5437C3.92971 15.1339 3.32048 15.2546 2.75756 15.4992C2.19465 15.7438 1.69131 16.1065 1.28188 16.5626C0.87244 17.0187 0.56654 17.5574 0.385056 18.142C0.203571 18.7266 0.150771 19.3434 0.23025 19.9502Z" fill="white"/>
</g>
<path d="M20.2148 177.862L22.19 200.338H175.63L173.655 177.862H20.2148Z" fill="#2CB67D"/>
<path opacity="0.5" d="M20.2148 177.862L22.19 200.338H175.63L173.655 177.862H20.2148Z" fill="white"/>
<path d="M159.421 15.2615C110.303 -4.30552 55.2739 -5.8541 5.98145 15.2615L22.2331 200.338C71.5256 179.222 126.555 180.771 175.673 200.338L159.421 15.2615Z" fill="#2CB67D"/>
<path opacity="0.8" d="M159.421 15.2615C110.303 -4.30552 55.2739 -5.8541 5.98145 15.2615L22.2331 200.338C71.5256 179.222 126.555 180.771 175.673 200.338L159.421 15.2615Z" fill="white"/>
<g opacity="0.2">
<path d="M27.0124 174.52C26.8757 174.253 26.7962 173.961 26.7789 173.662C26.7617 173.363 26.8072 173.064 26.9124 172.783C27.0176 172.503 27.1802 172.247 27.39 172.033C27.5997 171.819 27.852 171.65 28.1307 171.538C46.9317 164.636 66.6988 160.7 86.7181 159.873C87.3537 159.864 87.9707 160.087 88.4524 160.501C88.9341 160.914 89.2472 161.489 89.3323 162.117C89.3711 162.403 89.349 162.695 89.2676 162.973C89.1863 163.25 89.0474 163.508 88.8599 163.729C88.6724 163.95 88.4405 164.129 88.1791 164.255C87.9178 164.382 87.6328 164.452 87.3426 164.461C67.764 165.258 48.4314 169.107 30.0478 175.866C29.4645 176.058 28.8302 176.026 28.2689 175.778C27.7076 175.529 27.2596 175.08 27.0124 174.52Z" fill="black"/>
<path d="M163.474 175.85C143.526 168.893 122.627 165.018 101.503 164.359C100.888 164.334 100.302 164.086 99.8563 163.663C99.4101 163.24 99.1334 162.669 99.0777 162.058C99.0528 161.762 99.0913 161.464 99.1905 161.184C99.2898 160.904 99.4476 160.648 99.6536 160.433C99.8595 160.218 100.109 160.049 100.385 159.938C100.661 159.826 100.958 159.774 101.256 159.786C122.86 160.467 144.233 164.429 164.636 171.537C165.232 171.743 165.73 172.162 166.034 172.713C166.337 173.264 166.424 173.908 166.277 174.519C166.192 174.797 166.049 175.055 165.859 175.275C165.668 175.495 165.434 175.674 165.17 175.799C164.906 175.924 164.619 175.994 164.328 176.002C164.036 176.011 163.745 175.959 163.474 175.85Z" fill="black"/>
<path d="M24.979 151.377C24.84 151.111 24.7587 150.818 24.7403 150.519C24.722 150.219 24.767 149.919 24.8724 149.638C24.9778 149.357 25.1413 149.101 25.3524 148.887C25.5634 148.673 25.8172 148.506 26.0973 148.396C37.7702 144.111 49.8327 140.965 62.1154 139.003C62.7436 138.929 63.3773 139.086 63.8965 139.446C64.4158 139.807 64.7845 140.344 64.9329 140.957C65.0076 141.237 65.0225 141.529 64.9764 141.816C64.9304 142.102 64.8246 142.375 64.6657 142.618C64.5069 142.861 64.2987 143.068 64.0545 143.226C63.8103 143.383 63.5356 143.488 63.2482 143.533C51.2255 145.44 39.4196 148.519 27.9999 152.723C27.4185 152.911 26.7877 152.877 26.2297 152.629C25.6717 152.38 25.226 151.934 24.979 151.377Z" fill="black"/>
<path d="M124.566 143.533C108.859 141.088 92.9158 140.52 77.0741 141.839C76.4579 141.879 75.8484 141.694 75.3593 141.318C74.8702 140.943 74.535 140.403 74.4163 139.799C74.3532 139.508 74.3534 139.206 74.4171 138.915C74.4807 138.624 74.6062 138.35 74.7851 138.111C74.964 137.873 75.1922 137.675 75.4543 137.532C75.7163 137.388 76.0062 137.303 76.3043 137.281C92.4992 135.92 108.799 136.498 124.856 139.003C125.483 139.108 126.049 139.439 126.448 139.932C126.847 140.426 127.05 141.047 127.02 141.68C126.997 141.969 126.913 142.25 126.773 142.504C126.633 142.758 126.441 142.98 126.209 143.155C125.978 143.33 125.711 143.454 125.428 143.519C125.145 143.584 124.851 143.589 124.566 143.533Z" fill="black"/>
<path d="M161.44 152.709C153.898 150.109 146.218 147.925 138.435 146.167C137.832 146.033 137.299 145.684 136.935 145.185C136.572 144.687 136.403 144.074 136.46 143.461C136.5 143.167 136.602 142.884 136.759 142.632C136.916 142.379 137.125 142.163 137.372 141.996C137.618 141.83 137.897 141.717 138.191 141.665C138.484 141.613 138.785 141.623 139.074 141.695C147.036 143.491 154.891 145.728 162.602 148.396C163.199 148.596 163.699 149.011 164.003 149.561C164.307 150.11 164.393 150.753 164.243 151.363C164.162 151.644 164.021 151.904 163.832 152.127C163.642 152.351 163.407 152.532 163.143 152.659C162.879 152.786 162.59 152.856 162.297 152.864C162.004 152.873 161.712 152.82 161.44 152.709Z" fill="black"/>
<path d="M22.902 128.25C22.7653 127.983 22.6858 127.691 22.6686 127.392C22.6514 127.093 22.6968 126.794 22.802 126.513C22.9072 126.233 23.0699 125.977 23.2796 125.763C23.4894 125.549 23.7416 125.38 24.0203 125.268C48.9116 116.126 75.4242 112.185 101.909 113.69C102.541 113.739 103.133 114.016 103.574 114.469C104.016 114.922 104.276 115.52 104.306 116.15C104.315 116.439 104.263 116.726 104.153 116.994C104.043 117.261 103.878 117.502 103.668 117.701C103.459 117.901 103.209 118.054 102.936 118.151C102.663 118.248 102.373 118.286 102.084 118.263C76.1925 116.792 50.2742 120.639 25.9374 129.567C25.3578 129.764 24.725 129.739 24.1633 129.495C23.6017 129.251 23.1518 128.807 22.902 128.25Z" fill="black"/>
<path d="M159.422 129.582C146.071 124.957 132.286 121.685 118.277 119.813C117.664 119.731 117.102 119.428 116.698 118.961C116.294 118.495 116.075 117.896 116.084 117.28C116.093 116.983 116.165 116.691 116.296 116.423C116.427 116.156 116.613 115.919 116.842 115.729C117.071 115.539 117.339 115.4 117.626 115.32C117.914 115.241 118.215 115.223 118.51 115.268C132.849 117.198 146.959 120.553 160.628 125.283C161.225 125.486 161.726 125.904 162.029 126.456C162.333 127.008 162.418 127.653 162.269 128.265C162.182 128.547 162.037 128.808 161.843 129.031C161.649 129.253 161.409 129.433 161.141 129.557C160.872 129.681 160.58 129.748 160.284 129.752C159.988 129.756 159.694 129.698 159.422 129.582Z" fill="black"/>
<path d="M20.9123 105.108C20.7759 104.841 20.6971 104.548 20.6809 104.248C20.6646 103.948 20.7113 103.649 20.8179 103.368C20.9246 103.088 21.0888 102.832 21.3001 102.618C21.5114 102.405 21.7651 102.237 22.0451 102.127C38.3409 96.1384 55.3779 92.3846 72.6882 90.9684C73.3211 90.9378 73.9433 91.1386 74.4381 91.533C74.9329 91.9274 75.2661 92.4883 75.375 93.1103C75.4244 93.3953 75.4137 93.6873 75.3436 93.9679C75.2736 94.2485 75.1457 94.5115 74.9681 94.7402C74.7906 94.9689 74.5672 95.1582 74.3122 95.2962C74.0572 95.4342 73.7762 95.5178 73.487 95.5417C56.5537 96.924 39.8879 100.595 23.9477 106.454C23.3644 106.646 22.7301 106.615 22.1688 106.366C21.6075 106.117 21.1595 105.669 20.9123 105.108Z" fill="black"/>
<path d="M157.389 106.44C135.368 98.7741 112.208 94.8599 88.8817 94.8616C88.2664 94.8551 87.6747 94.6251 87.2175 94.2148C86.7602 93.8045 86.4689 93.242 86.3982 92.6329C86.361 92.3381 86.3874 92.0389 86.4756 91.7551C86.5639 91.4714 86.7121 91.2097 86.9101 90.9877C87.1081 90.7657 87.3515 90.5884 87.6239 90.4678C87.8964 90.3472 88.1915 90.286 88.4896 90.2883C112.35 90.2269 136.045 94.2308 158.551 102.127C159.148 102.33 159.649 102.748 159.952 103.3C160.256 103.852 160.341 104.497 160.192 105.108C160.11 105.389 159.97 105.65 159.78 105.872C159.59 106.095 159.355 106.276 159.09 106.401C158.825 106.527 158.537 106.596 158.244 106.602C157.95 106.609 157.659 106.554 157.389 106.44Z" fill="black"/>
<path d="M18.8786 81.9812C18.7419 81.7146 18.6624 81.4225 18.6452 81.1236C18.6279 80.8247 18.6734 80.5255 18.7786 80.245C18.8838 79.9645 19.0464 79.709 19.2562 79.4946C19.4659 79.2802 19.7182 79.1117 19.9969 78.9998C28.9861 75.7036 38.2099 73.0816 47.5914 71.1557C48.2186 71.0433 48.8653 71.1699 49.4033 71.5104C49.9413 71.8508 50.3313 72.3802 50.496 72.9937C50.5857 73.2692 50.6159 73.5606 50.5847 73.8486C50.5534 74.1367 50.4614 74.4149 50.3146 74.665C50.1679 74.915 49.9697 75.1314 49.7332 75.2998C49.4966 75.4682 49.227 75.5849 48.942 75.6422C39.7847 77.5226 30.7835 80.0917 22.0156 83.3272C21.419 83.5416 20.7628 83.5219 20.1802 83.2719C19.5976 83.0219 19.1323 82.5605 18.8786 81.9812Z" fill="black"/>
<path d="M58.8476 71.5606C58.7708 71.2727 58.7559 70.9718 58.8039 70.6777C58.852 70.3837 58.9619 70.1031 59.1265 69.8543C59.2911 69.6056 59.5066 69.3943 59.7589 69.2344C60.0112 69.0745 60.2946 68.9696 60.5904 68.9266C76.8949 66.7543 93.405 66.5793 109.752 68.4056C110.384 68.4839 110.964 68.7915 111.382 69.2694C111.8 69.7474 112.026 70.3622 112.018 70.9962C112.011 71.2856 111.942 71.5703 111.816 71.8312C111.69 72.0922 111.51 72.3234 111.287 72.5096C111.065 72.6957 110.805 72.8326 110.525 72.911C110.246 72.9895 109.952 73.0077 109.665 72.9645C93.6757 71.1698 77.5257 71.3399 61.578 73.471C60.9672 73.5406 60.3519 73.3846 59.8487 73.0326C59.3455 72.6805 58.9894 72.1568 58.8476 71.5606Z" fill="black"/>
<path d="M155.356 83.312C144.304 79.4832 132.951 76.5786 121.415 74.6284C120.804 74.5264 120.253 74.2048 119.865 73.7247C119.477 73.2445 119.279 72.6391 119.309 72.0233C119.33 71.7276 119.414 71.4398 119.555 71.1787C119.696 70.9177 119.891 70.6894 120.127 70.5089C120.363 70.3284 120.635 70.1998 120.924 70.1316C121.214 70.0633 121.514 70.057 121.807 70.1129C133.602 72.122 145.211 75.0941 156.518 78.9992C157.112 79.2074 157.608 79.6268 157.91 80.177C158.213 80.7272 158.302 81.3694 158.159 81.9805C158.075 82.2601 157.934 82.519 157.743 82.7406C157.553 82.9623 157.318 83.1416 157.054 83.2671C156.79 83.3926 156.502 83.4615 156.21 83.4692C155.917 83.4769 155.626 83.4234 155.356 83.312Z" fill="black"/>
<path d="M16.8599 58.8538C16.7209 58.5876 16.6396 58.2953 16.6212 57.9957C16.6028 57.6962 16.6478 57.3962 16.7532 57.1151C16.8587 56.834 17.0222 56.5781 17.2332 56.3641C17.4442 56.15 17.698 55.9825 17.9782 55.8724C36.4716 49.0849 55.9047 45.1797 75.5925 44.2943C76.2276 44.2782 76.8462 44.4971 77.329 44.9086C77.8117 45.3202 78.1244 45.8953 78.2068 46.5231C78.2501 46.8094 78.2318 47.1016 78.1531 47.3803C78.0744 47.6591 77.9371 47.9179 77.7503 48.1397C77.5635 48.3614 77.3314 48.541 77.0695 48.6666C76.8077 48.7921 76.5221 48.8606 76.2316 48.8676C56.9793 49.7539 37.9784 53.5857 19.8953 60.2287C19.3086 60.4225 18.6701 60.3886 18.1073 60.1337C17.5446 59.8788 17.0991 59.4217 16.8599 58.8538Z" fill="black"/>
<path d="M153.322 60.1703C133.11 53.1297 111.926 49.2485 90.5227 48.6646C89.9057 48.6394 89.3187 48.3925 88.8701 47.9695C88.4216 47.5465 88.1419 46.976 88.0828 46.3634C88.0559 46.0675 88.0924 45.7693 88.1898 45.4884C88.2873 45.2076 88.4434 44.9506 88.648 44.7344C88.8526 44.5183 89.1009 44.3479 89.3765 44.2345C89.6521 44.1211 89.9487 44.0673 90.2468 44.0767C112.141 44.674 133.811 48.6481 154.484 55.8575C155.077 56.0628 155.572 56.4795 155.875 57.0273C156.178 57.575 156.267 58.2152 156.125 58.8244C156.043 59.1052 155.903 59.3657 155.713 59.5889C155.524 59.8122 155.289 59.9931 155.025 60.1201C154.76 60.247 154.472 60.3171 154.179 60.3258C153.885 60.3344 153.593 60.2815 153.322 60.1703Z" fill="black"/>
<path d="M14.8267 35.7116C14.6877 35.4454 14.6064 35.153 14.588 34.8535C14.5696 34.554 14.6146 34.254 14.72 33.9729C14.8255 33.6918 14.989 33.4359 15.2 33.2219C15.411 33.0078 15.6648 32.8403 15.945 32.7302C28.2424 28.2089 40.9738 24.9596 53.9382 23.0335C54.5686 22.961 55.2037 23.1233 55.7212 23.4894C56.2387 23.8554 56.602 24.3993 56.7412 25.0163C56.8112 25.2966 56.8215 25.5884 56.7715 25.8729C56.7215 26.1575 56.6122 26.4284 56.4508 26.6683C56.2894 26.9083 56.0793 27.1119 55.8342 27.266C55.5891 27.4202 55.3143 27.5215 55.0275 27.5635C42.344 29.4443 29.8894 32.6259 17.8621 37.0576C17.2788 37.2498 16.6445 37.2183 16.0832 36.9694C15.5219 36.7205 15.0739 36.2721 14.8267 35.7116Z" fill="black"/>
<path d="M113.528 27.7375C98.8547 25.5091 83.977 24.9266 69.1735 26.0007C68.5573 26.0351 67.9498 25.8436 67.4656 25.4624C66.9813 25.0811 66.6538 24.5365 66.5448 23.9311C66.4864 23.6401 66.4906 23.34 66.5572 23.0507C66.6237 22.7614 66.7511 22.4894 66.9309 22.2528C67.1107 22.0162 67.3389 21.8202 67.6003 21.678C67.8617 21.5357 68.1504 21.4503 68.4474 21.4274C83.5851 20.3339 98.798 20.9261 113.804 23.193C114.43 23.2953 114.996 23.623 115.395 24.114C115.794 24.605 115.998 25.2249 115.968 25.856C115.948 26.1459 115.867 26.4283 115.73 26.6847C115.593 26.941 115.403 27.1655 115.172 27.3433C114.942 27.5211 114.676 27.6481 114.393 27.7161C114.109 27.784 113.814 27.7913 113.528 27.7375Z" fill="black"/>
<path d="M151.289 37.0434C142.879 34.1309 134.293 31.7478 125.583 29.9084C124.978 29.7832 124.44 29.4417 124.071 28.9484C123.702 28.4551 123.526 27.8442 123.578 27.2309C123.613 26.9344 123.711 26.6486 123.864 26.3924C124.018 26.1362 124.225 25.9153 124.47 25.7444C124.716 25.5734 124.995 25.4563 125.289 25.4007C125.584 25.3451 125.887 25.3523 126.178 25.4218C135.079 27.3124 143.854 29.7534 152.451 32.7305C153.031 32.932 153.517 33.3369 153.819 33.8696C154.121 34.4022 154.218 35.0263 154.092 35.6251C154.016 35.9111 153.88 36.1779 153.694 36.4079C153.507 36.638 153.274 36.8262 153.009 36.9601C152.745 37.0941 152.455 37.1707 152.158 37.1851C151.862 37.1994 151.565 37.1511 151.289 37.0434Z" fill="black"/>
</g>
<path d="M333.804 184.302L336.026 209.673C336.092 210.277 336.029 210.888 335.838 211.465C335.648 212.042 335.336 212.572 334.923 213.019C334.511 213.466 334.007 213.819 333.445 214.056C332.884 214.293 332.278 214.407 331.669 214.391H176.849L174.206 184.302H333.804Z" fill="#2CB67D"/>
<path opacity="0.2" d="M333.804 184.302L336.026 209.673C336.092 210.277 336.029 210.888 335.838 211.465C335.648 212.042 335.336 212.572 334.923 213.019C334.511 213.466 334.007 213.819 333.445 214.056C332.884 214.293 332.278 214.407 331.669 214.391H176.849L174.206 184.302H333.804Z" fill="black"/>
<path d="M176.37 208.66H333.542C333.849 208.665 334.154 208.606 334.437 208.485C334.719 208.365 334.973 208.185 335.18 207.959C335.387 207.733 335.544 207.466 335.64 207.175C335.736 206.884 335.768 206.576 335.735 206.272L319.178 17.6492C319.114 17.0028 318.814 16.4023 318.335 15.962C317.855 15.5217 317.23 15.2723 316.579 15.2612H159.421L176.37 208.66Z" fill="#2CB67D"/>
<path opacity="0.2" d="M176.37 208.66H333.542C333.849 208.665 334.154 208.606 334.437 208.485C334.719 208.365 334.973 208.185 335.18 207.959C335.387 207.733 335.544 207.466 335.64 207.175C335.736 206.884 335.768 206.576 335.735 206.272L319.178 17.6492C319.114 17.0028 318.814 16.4023 318.335 15.962C317.855 15.5217 317.23 15.2723 316.579 15.2612H159.421L176.37 208.66Z" fill="white"/>
<path d="M313.819 204.361H329.563C329.782 204.377 330.002 204.343 330.206 204.262C330.41 204.182 330.593 204.056 330.741 203.894C330.89 203.732 330.999 203.539 331.062 203.329C331.124 203.119 331.138 202.898 331.102 202.682L329.723 186.994C329.656 186.443 329.709 185.885 329.877 185.356C330.045 184.828 330.326 184.342 330.699 183.93C331.072 183.519 331.529 183.192 332.039 182.971C332.55 182.751 333.102 182.642 333.658 182.652L335.517 203.898C335.584 204.502 335.52 205.113 335.33 205.69C335.14 206.267 334.828 206.797 334.415 207.244C334.002 207.691 333.498 208.044 332.937 208.281C332.376 208.518 331.77 208.632 331.16 208.616H309.884C309.83 208.072 309.893 207.523 310.067 207.005C310.242 206.487 310.524 206.012 310.896 205.61C311.267 205.209 311.72 204.89 312.224 204.674C312.727 204.459 313.271 204.352 313.819 204.361Z" fill="#263238"/>
<path d="M319.368 19.9504L321.241 41.1963C320.06 41.1762 318.927 40.7218 318.062 39.9205C317.196 39.1191 316.658 38.0272 316.55 36.8545L315.171 21.1661C315.124 20.7117 314.913 20.2898 314.576 19.9805C314.238 19.6711 313.799 19.4956 313.341 19.4873H297.597C296.416 19.4672 295.283 19.0128 294.418 18.2115C293.552 17.4101 293.014 16.3182 292.906 15.1455H314.227C315.529 15.1697 316.775 15.6746 317.725 16.5623C318.675 17.4499 319.26 18.6573 319.368 19.9504Z" fill="#263238"/>
<g opacity="0.5">
<path d="M313.819 204.361H329.563C329.782 204.377 330.002 204.343 330.206 204.262C330.41 204.182 330.593 204.056 330.741 203.894C330.89 203.732 330.999 203.539 331.062 203.329C331.124 203.119 331.138 202.898 331.102 202.682L329.723 186.994C329.656 186.443 329.709 185.885 329.877 185.356C330.045 184.828 330.326 184.342 330.699 183.93C331.072 183.519 331.529 183.192 332.039 182.971C332.55 182.751 333.102 182.642 333.658 182.652L335.517 203.898C335.584 204.502 335.52 205.113 335.33 205.69C335.14 206.267 334.828 206.797 334.415 207.244C334.002 207.691 333.498 208.044 332.937 208.281C332.376 208.518 331.77 208.632 331.16 208.616H309.884C309.83 208.072 309.893 207.523 310.067 207.005C310.242 206.487 310.524 206.012 310.896 205.61C311.267 205.209 311.72 204.89 312.224 204.674C312.727 204.459 313.271 204.352 313.819 204.361Z" fill="white"/>
<path d="M319.368 19.9504L321.241 41.1963C320.06 41.1762 318.927 40.7218 318.062 39.9205C317.196 39.1191 316.658 38.0272 316.55 36.8545L315.171 21.1661C315.124 20.7117 314.913 20.2898 314.576 19.9805C314.238 19.6711 313.799 19.4956 313.341 19.4873H297.597C296.416 19.4672 295.283 19.0128 294.418 18.2115C293.552 17.4101 293.014 16.3182 292.906 15.1455H314.227C315.529 15.1697 316.775 15.6746 317.725 16.5623C318.675 17.4499 319.26 18.6573 319.368 19.9504Z" fill="white"/>
</g>
<path d="M327.109 177.862L329.084 200.338H175.629L173.654 177.862H327.109Z" fill="#2CB67D"/>
<path opacity="0.4" d="M327.109 177.862L329.084 200.338H175.629L173.654 177.862H327.109Z" fill="white"/>
<path d="M159.421 15.2615C205.112 -4.30552 259.865 -5.8541 312.875 15.2615L329.127 200.338C276.116 179.222 221.363 180.771 175.673 200.338L159.421 15.2615Z" fill="#2CB67D"/>
<path opacity="0.7" d="M159.421 15.2615C205.112 -4.30552 259.865 -5.8541 312.875 15.2615L329.127 200.338C276.116 179.222 221.363 180.771 175.673 200.338L159.421 15.2615Z" fill="white"/>
<g opacity="0.2">
<path d="M319.717 174.519C319.866 173.907 319.781 173.262 319.477 172.71C319.174 172.158 318.673 171.74 318.076 171.537C298.542 164.726 278.114 160.796 257.44 159.872C257.143 159.857 256.845 159.905 256.568 160.013C256.29 160.121 256.039 160.287 255.83 160.499C255.621 160.711 255.46 160.965 255.357 161.243C255.254 161.522 255.212 161.819 255.233 162.116C255.278 162.73 255.546 163.307 255.987 163.738C256.428 164.17 257.012 164.427 257.629 164.46C277.848 165.354 297.827 169.197 316.928 175.865C317.199 175.973 317.489 176.024 317.781 176.015C318.073 176.005 318.359 175.934 318.622 175.807C318.884 175.681 319.117 175.5 319.306 175.278C319.495 175.057 319.634 174.798 319.717 174.519Z" fill="black"/>
<path d="M183.486 175.85C202.711 168.798 222.961 164.916 243.439 164.359C243.728 164.355 244.013 164.29 244.276 164.169C244.538 164.048 244.772 163.873 244.963 163.656C245.153 163.439 245.296 163.185 245.381 162.909C245.466 162.634 245.492 162.344 245.458 162.057C245.383 161.431 245.08 160.853 244.606 160.434C244.132 160.015 243.52 159.784 242.887 159.785C221.943 160.363 201.234 164.332 181.569 171.537C181.29 171.649 181.038 171.817 180.828 172.032C180.619 172.246 180.456 172.502 180.351 172.782C180.246 173.063 180.2 173.362 180.217 173.661C180.235 173.96 180.314 174.252 180.451 174.518C180.703 175.074 181.153 175.517 181.713 175.763C182.273 176.009 182.905 176.04 183.486 175.85Z" fill="black"/>
<path d="M317.727 151.377C317.87 150.766 317.782 150.123 317.479 149.573C317.176 149.023 316.68 148.604 316.086 148.395C303.805 144.15 291.168 141.006 278.325 139.003C278.032 138.951 277.73 138.962 277.442 139.035C277.153 139.108 276.883 139.241 276.649 139.426C276.416 139.611 276.224 139.842 276.088 140.106C275.951 140.37 275.872 140.66 275.856 140.956C275.834 141.572 276.04 142.174 276.433 142.648C276.826 143.123 277.381 143.437 277.991 143.533C290.529 145.488 302.866 148.564 314.851 152.723C315.127 152.844 315.425 152.905 315.726 152.901C316.027 152.898 316.324 152.83 316.597 152.702C316.869 152.575 317.111 152.39 317.306 152.162C317.501 151.933 317.645 151.665 317.727 151.377Z" fill="black"/>
<path d="M216.702 143.533C232.31 141.077 248.159 140.508 263.903 141.84C264.191 141.873 264.483 141.844 264.759 141.756C265.034 141.669 265.289 141.524 265.504 141.331C265.72 141.138 265.892 140.902 266.009 140.638C266.126 140.374 266.185 140.088 266.184 139.799C266.176 139.168 265.934 138.562 265.505 138.097C265.076 137.632 264.49 137.342 263.86 137.281C247.767 135.908 231.566 136.487 215.613 139.003C215.316 139.05 215.033 139.16 214.783 139.325C214.532 139.491 214.32 139.707 214.161 139.961C214.001 140.214 213.898 140.499 213.858 140.796C213.818 141.092 213.842 141.394 213.928 141.681C214.08 142.276 214.447 142.795 214.959 143.137C215.471 143.479 216.092 143.62 216.702 143.533Z" fill="black"/>
<path d="M181.453 152.708C188.605 150.089 195.909 147.905 203.326 146.166C203.607 146.096 203.871 145.968 204.1 145.791C204.329 145.613 204.518 145.389 204.654 145.134C204.791 144.879 204.873 144.599 204.894 144.31C204.915 144.022 204.876 143.732 204.778 143.46C204.598 142.86 204.202 142.348 203.666 142.021C203.129 141.695 202.491 141.579 201.873 141.694C194.293 143.473 186.828 145.71 179.522 148.395C179.244 148.506 178.992 148.673 178.782 148.886C178.572 149.099 178.41 149.353 178.304 149.632C178.199 149.912 178.153 150.21 178.17 150.508C178.188 150.806 178.267 151.097 178.403 151.362C178.648 151.928 179.098 152.381 179.664 152.631C180.229 152.88 180.868 152.908 181.453 152.708Z" fill="black"/>
<path d="M315.664 128.25C315.807 127.638 315.719 126.996 315.416 126.446C315.113 125.896 314.617 125.476 314.023 125.268C288.409 116.257 261.273 112.323 234.144 113.69C233.847 113.706 233.556 113.785 233.291 113.921C233.026 114.057 232.793 114.248 232.608 114.481C232.423 114.713 232.289 114.982 232.216 115.27C232.143 115.558 232.132 115.858 232.183 116.15C232.282 116.759 232.602 117.309 233.081 117.699C233.56 118.088 234.165 118.289 234.783 118.263C261.314 116.923 287.852 120.763 312.905 129.567C313.172 129.671 313.458 129.72 313.744 129.709C314.031 129.699 314.313 129.63 314.572 129.506C314.83 129.383 315.061 129.207 315.249 128.991C315.437 128.775 315.578 128.523 315.664 128.25Z" fill="black"/>
<path d="M179.434 129.581C192.178 124.906 205.395 121.63 218.851 119.812C219.14 119.776 219.417 119.679 219.666 119.528C219.914 119.377 220.128 119.175 220.293 118.936C220.457 118.696 220.569 118.425 220.621 118.14C220.673 117.854 220.664 117.561 220.594 117.28C220.458 116.664 220.101 116.12 219.59 115.749C219.079 115.378 218.449 115.207 217.82 115.268C204.062 117.146 190.549 120.504 177.517 125.283C177.237 125.393 176.983 125.56 176.772 125.775C176.561 125.989 176.398 126.245 176.292 126.526C176.187 126.807 176.142 127.107 176.16 127.406C176.179 127.706 176.26 127.998 176.399 128.264C176.651 128.819 177.102 129.262 177.662 129.505C178.223 129.748 178.855 129.775 179.434 129.581Z" fill="black"/>
<path d="M313.631 105.108C313.774 104.497 313.686 103.854 313.383 103.304C313.08 102.754 312.584 102.335 311.99 102.126C294.992 96.2145 277.312 92.4654 259.371 90.9679C259.075 90.9391 258.775 90.9734 258.492 91.0687C258.21 91.164 257.951 91.318 257.733 91.5205C257.514 91.723 257.342 91.9694 257.226 92.2434C257.11 92.5174 257.055 92.8127 257.062 93.1098C257.09 93.7237 257.339 94.3071 257.763 94.7534C258.187 95.1998 258.758 95.4794 259.371 95.5412C276.917 97 294.207 100.667 310.828 106.454C311.1 106.562 311.391 106.614 311.684 106.604C311.976 106.594 312.264 106.524 312.527 106.397C312.791 106.27 313.026 106.09 313.216 105.868C313.406 105.646 313.547 105.387 313.631 105.108Z" fill="black"/>
<path d="M177.401 106.439C198.685 98.6651 221.192 94.744 243.86 94.8609C244.151 94.8703 244.44 94.8181 244.708 94.7076C244.977 94.5972 245.219 94.431 245.418 94.2202C245.617 94.0094 245.769 93.7587 245.864 93.4849C245.958 93.2111 245.993 92.9204 245.966 92.6321C245.913 92.0033 245.628 91.4163 245.167 90.9836C244.706 90.551 244.101 90.3031 243.468 90.2875C220.275 90.1078 197.241 94.1189 175.484 102.126C175.204 102.236 174.95 102.404 174.739 102.618C174.528 102.832 174.365 103.088 174.259 103.369C174.154 103.65 174.109 103.95 174.127 104.249C174.145 104.549 174.227 104.841 174.366 105.108C174.613 105.668 175.062 106.115 175.624 106.361C176.186 106.608 176.82 106.636 177.401 106.439Z" fill="black"/>
<path d="M311.597 81.9807C311.747 81.3693 311.662 80.7241 311.358 80.1723C311.054 79.6205 310.554 79.202 309.956 78.9993C300.512 75.7324 290.856 73.1116 281.054 71.1552C280.763 71.0879 280.46 71.0833 280.166 71.1418C279.873 71.2004 279.595 71.3206 279.352 71.4946C279.109 71.6685 278.905 71.8922 278.756 72.1506C278.606 72.409 278.513 72.6962 278.484 72.9932C278.44 73.6058 278.623 74.2131 278.998 74.7008C279.372 75.1886 279.912 75.5232 280.517 75.6417C290.109 77.55 299.558 80.1178 308.794 83.3267C309.066 83.4355 309.357 83.4866 309.65 83.4769C309.943 83.4671 310.23 83.3967 310.494 83.27C310.757 83.1434 310.992 82.9633 311.182 82.7413C311.372 82.5193 311.513 82.2603 311.597 81.9807Z" fill="black"/>
<path d="M269.799 71.5599C269.816 70.9259 269.6 70.3076 269.19 69.8221C268.781 69.3366 268.207 69.0177 267.577 68.9259C251.243 66.7572 234.704 66.5822 218.328 68.4048C218.031 68.4392 217.744 68.5364 217.488 68.6897C217.231 68.8431 217.01 69.0492 216.84 69.2944C216.669 69.5395 216.553 69.818 216.499 70.1113C216.445 70.4046 216.455 70.7061 216.527 70.9955C216.656 71.5942 217 72.1251 217.495 72.4878C217.991 72.8505 218.602 73.0198 219.214 72.9637C235.232 71.1731 251.411 71.3432 267.388 73.4703C267.675 73.5197 267.968 73.5082 268.25 73.4364C268.532 73.3646 268.796 73.2342 269.023 73.0538C269.251 72.8734 269.438 72.647 269.571 72.3895C269.705 72.1321 269.783 71.8493 269.799 71.5599Z" fill="black"/>
<path d="M175.397 83.312C185.916 79.4444 196.766 76.5379 207.813 74.6284C208.1 74.5786 208.373 74.4693 208.614 74.3076C208.856 74.146 209.061 73.9355 209.215 73.6899C209.37 73.4442 209.471 73.1689 209.513 72.8818C209.554 72.5947 209.534 72.3022 209.454 72.0233C209.298 71.3999 208.914 70.8576 208.376 70.5037C207.838 70.1499 207.186 70.0104 206.549 70.1129C195.263 72.0831 184.176 75.0571 173.422 78.9991C173.141 79.1092 172.888 79.2767 172.677 79.4908C172.466 79.7048 172.302 79.9607 172.197 80.2418C172.091 80.5229 172.046 80.8229 172.065 81.1224C172.083 81.4219 172.164 81.7143 172.303 81.9805C172.554 82.5516 173.012 83.0067 173.587 83.2539C174.161 83.501 174.808 83.5218 175.397 83.312Z" fill="black"/>
<path d="M309.565 58.8535C309.715 58.242 309.629 57.5969 309.326 57.0451C309.022 56.4933 308.522 56.0748 307.924 55.8721C288.698 49.175 268.604 45.2755 248.262 44.294C247.964 44.2746 247.665 44.3191 247.385 44.4244C247.106 44.5298 246.852 44.6936 246.642 44.9048C246.431 45.1159 246.269 45.3696 246.165 45.6487C246.061 45.9278 246.018 46.2258 246.04 46.5227C246.084 47.1348 246.35 47.7098 246.788 48.1411C247.226 48.5723 247.807 48.8304 248.421 48.8673C268.314 49.8471 287.962 53.6733 306.762 60.2284C307.035 60.3391 307.329 60.3909 307.624 60.3804C307.919 60.3699 308.208 60.2973 308.473 60.1675C308.738 60.0376 308.972 59.8534 309.16 59.6269C309.348 59.4005 309.486 59.1369 309.565 58.8535Z" fill="black"/>
<path d="M173.334 60.1698C192.822 53.0318 213.358 49.1444 234.115 48.664C234.405 48.662 234.692 48.5989 234.956 48.4788C235.221 48.3587 235.456 48.1843 235.648 47.967C235.84 47.7498 235.984 47.4946 236.07 47.2182C236.156 46.9417 236.183 46.6502 236.148 46.3629C236.074 45.7347 235.771 45.1554 235.298 44.7341C234.824 44.3129 234.212 44.0789 233.577 44.0762C212.348 44.5668 191.345 48.5473 171.417 55.8569C171.139 55.9672 170.887 56.1343 170.677 56.3473C170.468 56.5603 170.305 56.8146 170.2 57.094C170.094 57.3733 170.049 57.6714 170.066 57.9693C170.083 58.2672 170.162 58.5583 170.299 58.8238C170.544 59.3865 170.991 59.8371 171.553 60.0864C172.116 60.3356 172.751 60.3654 173.334 60.1698Z" fill="black"/>
<path d="M307.56 35.7114C307.71 35.0999 307.624 34.4548 307.321 33.903C307.017 33.3512 306.517 32.9327 305.919 32.73C293.025 28.255 279.735 25.0082 266.226 23.0333C265.931 22.9813 265.628 22.9931 265.338 23.0678C265.048 23.1426 264.778 23.2786 264.545 23.4666C264.312 23.6546 264.123 23.8902 263.989 24.1576C263.856 24.4249 263.782 24.7177 263.772 25.0161C263.761 25.6299 263.975 26.2265 264.373 26.6951C264.771 27.1636 265.327 27.4721 265.936 27.5633C279.154 29.4946 292.157 32.6737 304.771 37.0573C305.042 37.1661 305.333 37.2171 305.624 37.2072C305.916 37.1973 306.202 37.1267 306.465 37C306.728 36.8732 306.961 36.6931 307.149 36.4711C307.338 36.2492 307.478 35.9904 307.56 35.7114Z" fill="black"/>
<path d="M207.436 27.7366C222.006 25.497 236.784 24.9143 251.485 25.9998C251.774 26.0284 252.065 25.9959 252.341 25.9045C252.616 25.8132 252.869 25.665 253.082 25.4697C253.296 25.2744 253.466 25.0363 253.582 24.771C253.697 24.5058 253.755 24.2193 253.751 23.9303C253.739 23.2969 253.492 22.6904 253.057 22.228C252.623 21.7656 252.032 21.4801 251.398 21.4265C236.372 20.3225 221.269 20.9148 206.376 23.1922C206.079 23.2378 205.796 23.346 205.545 23.5095C205.295 23.6729 205.081 23.8879 204.921 24.14C204.76 24.3921 204.655 24.6755 204.613 24.9713C204.571 25.2671 204.592 25.5684 204.676 25.8551C204.825 26.4515 205.188 26.9727 205.697 27.3196C206.205 27.6666 206.824 27.815 207.436 27.7366Z" fill="black"/>
<path d="M171.302 37.0431C179.271 34.1096 187.433 31.7256 195.73 29.9081C196.008 29.8376 196.269 29.7104 196.495 29.5345C196.721 29.3587 196.909 29.138 197.045 28.8865C197.181 28.6349 197.264 28.3579 197.288 28.0729C197.311 27.7879 197.276 27.5011 197.182 27.2306C197.009 26.6243 196.616 26.1037 196.079 25.7695C195.543 25.4353 194.901 25.3113 194.278 25.4215C185.789 27.2891 177.438 29.731 169.283 32.7302C169.014 32.8415 168.771 33.0059 168.568 33.2137C168.365 33.4214 168.206 33.6681 168.102 33.9387C167.997 34.2094 167.949 34.4984 167.96 34.7882C167.97 35.078 168.04 35.3626 168.165 35.6248C168.396 36.2243 168.855 36.7091 169.442 36.9745C170.029 37.2398 170.697 37.2645 171.302 37.0431Z" fill="black"/>
</g>
</svg>
