<svg width="384" height="286" viewBox="0 0 384 286" fill="none" xmlns="http://www.w3.org/2000/svg">
<g clip-path="url(#clip0_1180_4443)">
<path d="M384 251.419H0V251.611H384V251.419Z" fill="#EBEBEB"/>
<path d="M183.091 217.175H34.7906C32.3714 217.175 30.4053 215.209 30.4053 212.791V4.38419C30.4053 1.96559 32.3714 0 34.7906 0H183.091C185.511 0 187.477 1.96559 187.477 4.38419V212.791C187.477 215.209 185.511 217.175 183.091 217.175ZM34.7906 0.191952C32.4789 0.191952 30.5973 2.07309 30.5973 4.38419V212.791C30.5973 215.102 32.4789 216.983 34.7906 216.983H183.091C185.403 216.983 187.285 215.102 187.285 212.791V4.38419C187.285 2.07309 185.403 0.191952 183.091 0.191952H34.7906Z" fill="#EBEBEB"/>
<path d="M349.21 217.175H200.909C198.49 217.175 196.523 215.209 196.523 212.791V4.38419C196.523 1.96559 198.49 0 200.909 0H349.21C351.629 0 353.595 1.96559 353.595 4.38419V212.791C353.595 215.209 351.629 217.175 349.21 217.175ZM200.909 0.191952C198.597 0.191952 196.715 2.07309 196.715 4.38419V212.791C196.715 215.102 198.597 216.983 200.909 216.983H349.21C351.521 216.983 353.403 215.102 353.403 212.791V4.38419C353.403 2.07309 351.521 0.191952 349.21 0.191952H200.909Z" fill="#EBEBEB"/>
<path d="M384 251.419H0V251.611H384V251.419Z" fill="#EBEBEB"/>
<path d="M345.523 263.773H320.087V263.965H345.523V263.773Z" fill="#EBEBEB"/>
<path d="M254.377 265.862H247.703V266.054H254.377V265.862Z" fill="#EBEBEB"/>
<path d="M319.319 256.648H304.581V256.84H319.319V256.648Z" fill="#EBEBEB"/>
<path d="M73.459 257.938H40.2891V258.13H73.459V257.938Z" fill="#EBEBEB"/>
<path d="M172.915 261.178H100.969V261.37H172.915V261.178Z" fill="#EBEBEB"/>
<path d="M118.556 79.6371C128.003 79.6601 154.476 83.5068 154.476 69.287C154.476 57.2094 141.535 58.0923 141.535 58.0923C141.535 58.0923 141.911 47.6271 130.383 46.2297C118.556 44.8016 116.774 56.1114 116.774 56.1114C116.774 56.1114 96.2457 48.9093 99.3715 66.9836C99.3715 66.9836 87.9897 64.9719 87.9897 73.1107C87.9897 82.2092 109.409 79.614 118.556 79.6371Z" fill="#F0F0F0"/>
<path d="M106.66 187.161C125.829 187.215 179.566 196.014 179.566 163.451C179.566 135.779 153.3 137.814 153.3 137.814C153.3 137.814 154.061 113.843 130.66 110.649C106.66 107.378 103.035 133.284 103.035 133.284C103.035 133.284 61.3784 116.791 67.7144 158.184C67.7144 158.184 44.6206 153.585 44.6206 172.22C44.6206 193.042 88.0894 187.1 106.66 187.161Z" fill="#F5F5F5"/>
<path d="M178.245 190.041C167.639 190.071 137.91 194.939 137.91 176.926C137.91 161.616 152.44 162.745 152.44 162.745C152.44 162.745 152.018 149.485 164.966 147.719C178.245 145.907 180.25 160.242 180.25 160.242C180.25 160.242 203.297 151.113 199.787 174.016C199.787 174.016 212.567 171.467 212.567 181.779C212.567 193.296 188.521 190.01 178.245 190.041Z" fill="#F0F0F0"/>
<path d="M237.427 114.565C248.002 114.588 277.655 118.642 277.655 103.639C277.655 90.8934 263.163 91.8301 263.163 91.8301C263.163 91.8301 263.585 80.7814 250.667 79.3149C237.427 77.81 235.422 89.7417 235.422 89.7417C235.422 89.7417 212.436 82.1404 215.931 101.213C215.931 101.213 203.189 99.0936 203.189 107.678C203.189 117.275 227.182 114.534 237.427 114.565Z" fill="#F0F0F0"/>
<path d="M205.893 251.327L221.345 151.159L267.302 93.1507L282.97 27.0884C282.97 27.0884 320.947 63.782 322.007 64.7418C323.059 65.7015 331.423 164.741 332.582 166.254C333.742 167.766 344.655 185.034 344.655 185.034L349.732 251.02L205.893 251.327Z" fill="#FAFAFA"/>
<path d="M205.893 251.327L227.919 164.772L259.123 135.035L264.968 172.68L272.832 129.86L281.756 144.456L279.813 94.1181L281.364 78.0172L286.602 88.7051L282.97 27.0884L309.45 27.7026L314.964 56.7872L322.007 64.7494L332.582 166.262L344.655 185.042L349.732 251.028L205.893 251.327Z" fill="#EBEBEB"/>
<path d="M283.661 27.4263L299.389 78.309L308.759 85.7567C308.759 85.7567 313.705 106.434 313.643 105.113C313.59 103.793 313.075 80.6201 313.075 80.6201L315.502 61.7166L309.381 28.0405L283.661 27.4263Z" fill="#F5F5F5"/>
<path d="M332.583 166.262L336.254 183.361L344.655 185.042L332.583 166.262Z" fill="#F5F5F5"/>
<path d="M273.454 216.899C290.25 216.952 337.352 224.661 337.352 196.114C337.352 171.859 314.335 173.648 314.335 173.648C314.335 173.648 315.003 152.633 294.49 149.838C273.454 146.974 270.282 169.678 270.282 169.678C270.282 169.678 233.771 155.221 239.324 191.5C239.324 191.5 219.08 187.469 219.08 203.8C219.087 222.051 257.188 216.845 273.454 216.899Z" fill="#F5F5F5"/>
<path d="M85.1637 257.938H80.3022V258.13H85.1637V257.938Z" fill="#EBEBEB"/>
<path d="M193.643 285.671C275.883 285.671 342.551 281.78 342.551 276.98C342.551 272.179 275.883 268.288 193.643 268.288C111.404 268.288 44.7358 272.179 44.7358 276.98C44.7358 281.78 111.404 285.671 193.643 285.671Z" fill="#F5F5F5"/>
<path d="M309.773 30.8123C309.773 38.2293 303.76 44.2413 296.341 44.2413C296.041 44.2413 295.742 44.2336 295.442 44.2106C288.453 43.7499 282.916 37.9299 282.916 30.8123C282.916 23.6947 288.453 17.8747 295.442 17.414C295.742 17.391 296.041 17.3833 296.341 17.3833C303.76 17.3833 309.773 23.3952 309.773 30.8123Z" fill="#407BFF"/>
<path opacity="0.2" d="M307.976 30.8123C307.976 37.9299 302.439 43.7499 295.442 44.2106C288.453 43.7499 282.916 37.9299 282.916 30.8123C282.916 23.6947 288.453 17.8747 295.442 17.4141C302.439 17.8747 307.976 23.6947 307.976 30.8123Z" fill="white"/>
<path opacity="0.4" d="M304.71 34.6553C306.833 29.5308 304.396 23.6545 299.266 21.5302C294.136 19.4059 288.257 21.8381 286.133 26.9625C284.01 32.087 286.447 37.9633 291.577 40.0876C296.707 42.2119 302.586 39.7798 304.71 34.6553Z" fill="white"/>
<g opacity="0.7">
<path d="M300.035 32.9468C300.426 35.1658 298.898 36.6553 296.149 36.8857L296.102 38.7207H294.436L294.482 36.8857C292.869 36.7321 291.379 36.233 290.412 35.6034L291.164 33.5304C292.163 34.183 293.353 34.5976 294.528 34.7128L294.605 31.8872C292.969 31.4189 291.157 30.8046 290.803 28.7776C290.412 26.5586 291.971 25.0537 294.774 24.8541L294.82 23.019H296.486L296.44 24.8771C297.646 24.9923 298.79 25.3301 299.681 25.8292L299.029 27.9023C298.222 27.4186 297.308 27.1345 296.387 27.0347L296.318 29.9754C297.938 30.4284 299.697 31.0273 300.035 32.9468ZM294.659 29.507L294.72 27.1038C293.798 27.2881 293.353 27.8025 293.453 28.4398C293.537 28.9542 294.014 29.2537 294.659 29.507ZM297.408 33.3845C297.324 32.9008 296.886 32.6013 296.264 32.3786L296.21 34.6667C297.078 34.4824 297.516 34.0141 297.408 33.3845Z" fill="white"/>
</g>
<path d="M229.525 154.146H184.082V277.018H229.525V154.146Z" fill="#407BFF"/>
<path opacity="0.2" d="M196.915 154.022H184.074V277.041H196.915V154.022Z" fill="black"/>
<path d="M184.028 203.285H138.585V277.018H184.028V203.285Z" fill="#407BFF"/>
<path opacity="0.2" d="M152.24 203.285H138.585V276.941H152.24V203.285Z" fill="black"/>
<path d="M138.547 218.941H93.1045V277.018H138.547V218.941Z" fill="#407BFF"/>
<path opacity="0.2" d="M106.621 218.941H93.1045V276.941H106.621V218.941Z" fill="black"/>
<path d="M93.089 234.596H47.6465V277.018H93.089V234.596Z" fill="#407BFF"/>
<path opacity="0.2" d="M60.4943 234.558H47.6533V276.941H60.4943V234.558Z" fill="black"/>
<path d="M171.202 59.2211C169.044 61.8317 166.825 64.3885 164.598 66.9376L162.916 68.8418L161.41 70.5233C160.788 71.2527 160.381 72.1741 160.235 73.1722L159.728 78.1323C159.559 79.8138 159.398 81.4953 159.199 83.1768C158.83 86.5398 158.438 89.8951 157.993 93.2505C157.831 94.4252 156.749 95.2544 155.574 95.0932C154.537 94.955 153.769 94.0951 153.715 93.0892C153.523 89.7109 153.392 86.3325 153.277 82.9618C153.208 81.2726 153.177 79.5911 153.131 77.9019L153.016 72.7576C153.047 70.3928 153.83 68.0126 155.182 66.0086L156.856 63.7589L158.369 61.7472C160.404 59.0753 162.447 56.411 164.551 53.7927C166.041 51.9423 168.745 51.6505 170.588 53.1401C172.439 54.6296 172.731 57.3323 171.241 59.1751C171.233 59.1828 171.21 59.2135 171.202 59.2211Z" fill="#407BFF"/>
<path d="M153.177 93.4729L150.374 98.241L156.832 98.8937L157.969 94.0565C158.107 93.4806 157.739 92.9047 157.155 92.8049C156.08 92.6206 154.406 92.5439 153.177 93.4729Z" fill="#CB7A63"/>
<path d="M150.367 98.2334L150.659 99.9226C150.804 100.752 151.526 101.366 152.371 101.358L154.476 101.351C155.113 101.351 155.704 100.998 156.004 100.429L156.818 98.886L150.367 98.2334Z" fill="#CB7A63"/>
<path d="M152.717 89.9028L158.938 90.1101L158.538 93.8263L153.285 93.4194L152.717 89.9028Z" fill="#407BFF"/>
<path opacity="0.3" d="M152.717 89.9028L158.938 90.1101L158.538 93.8263L153.285 93.4194L152.717 89.9028Z" fill="white"/>
<path d="M158.991 128.9L157.97 130.435L157.187 128.846L159.045 104.737C159.345 100.905 158.047 97.7574 153.277 97.6422C148.815 97.5348 146.112 100.583 145.797 104.407L143.846 128.47L142.779 129.998L142.049 128.416L144.015 104.361C144.376 99.915 146.35 96.3447 153.37 96.5136C160.397 96.6825 161.18 100.33 160.835 104.783L158.991 128.9Z" fill="#263238"/>
<path d="M139.223 112.645L137.986 112.638C135.421 112.622 133.24 114.527 132.91 117.076L130.637 134.451L138.639 134.735L139.223 112.645Z" fill="#263238"/>
<path opacity="0.2" d="M139.223 112.645L137.986 112.638C135.421 112.622 133.24 114.527 132.91 117.076L130.637 134.451L138.639 134.735L139.223 112.645Z" fill="white"/>
<path d="M161.817 129.107L160.013 129.054L160.189 104.944C160.22 101.113 158.707 97.9649 153.93 97.8498C149.46 97.7423 146.964 100.79 146.926 104.614L146.657 128.677L144.86 128.624L145.144 104.568C145.198 100.122 146.918 96.5522 153.945 96.7211C160.988 96.89 162.025 100.537 161.994 104.99L161.817 129.107Z" fill="#263238"/>
<path d="M170.296 135.664L134.73 134.613L135.076 116.692C135.106 114.396 136.965 112.584 139.223 112.646L165.112 113.321C168.038 113.398 170.396 115.863 170.388 118.826L170.296 135.664Z" fill="#263238"/>
<path opacity="0.4" d="M166.356 135.549L138.647 134.728C136.489 134.666 134.761 132.823 134.799 130.612L135.083 116.684C135.114 114.388 136.972 112.576 139.23 112.638L165.12 113.313C168.046 113.39 170.403 115.855 170.396 118.819L170.319 131.641C170.304 133.868 168.53 135.618 166.356 135.549Z" fill="white"/>
<g opacity="0.3">
<path d="M161.817 129.107L160.903 130.643L160.013 129.054L160.189 104.944C160.22 101.113 158.707 97.9649 153.93 97.8498C149.46 97.7423 146.964 100.79 146.926 104.614L146.657 128.677L145.697 130.205L144.86 128.624L145.144 104.568C145.198 100.122 146.918 96.5522 153.945 96.7211C160.988 96.89 162.025 100.537 161.994 104.99L161.817 129.107Z" fill="white"/>
</g>
<path d="M147.256 119.379L144.292 119.302L144.307 118.181L147.271 118.266L147.256 119.379Z" fill="#263238"/>
<path d="M147.179 126.612L144.207 126.527L144.222 125.414L147.195 125.491L147.179 126.612Z" fill="#263238"/>
<path d="M162.493 119.794L159.513 119.71L159.521 118.596L162.501 118.673L162.493 119.794Z" fill="#263238"/>
<path d="M162.439 127.042L159.459 126.957L159.467 125.836L162.447 125.913L162.439 127.042Z" fill="#263238"/>
<path d="M156.818 120.277L150.458 120.101L150.482 117.713L156.841 117.882L156.818 120.277Z" fill="white"/>
<path d="M184.273 32.2788C184.519 32.2328 184.78 32.4861 184.857 32.8547C184.934 33.2232 184.811 33.5688 184.565 33.6225C184.319 33.6686 184.058 33.4152 183.981 33.0466C183.882 32.6627 184.028 32.3249 184.273 32.2788Z" fill="#263238"/>
<path d="M184.32 32.586C184.573 32.4708 184.796 32.2098 184.903 31.9487C184.688 32.1484 184.396 32.2635 184.104 32.2559C184.212 32.325 184.312 32.4632 184.32 32.586Z" fill="#263238"/>
<path d="M184.811 36.3484C185.456 36.3714 186.078 36.118 186.516 35.642C185.579 34.8281 184.749 33.8837 184.066 32.8472L184.811 36.3484Z" fill="#B74D3C"/>
<path d="M182.215 31.6723C182.568 31.227 183.121 30.9813 183.69 31.012C183.713 31.0197 183.736 31.0197 183.767 31.0197C183.889 31.0197 183.989 30.9122 183.989 30.7893C183.989 30.6665 183.882 30.5667 183.759 30.5667C183.045 30.5052 182.353 30.797 181.893 31.3498C181.854 31.3882 181.839 31.442 181.839 31.4957C181.839 31.6186 181.939 31.7184 182.069 31.7184C182.115 31.7261 182.177 31.7107 182.215 31.6723Z" fill="#263238"/>
<path d="M179.88 53.8618C173.49 53.9309 172.515 50.4527 172.515 50.4527C174.412 48.5869 174.504 45.1779 174.105 42.145C174.596 42.8284 175.203 43.4349 176.002 43.9647C177.53 44.9706 180.848 43.3582 180.848 43.3582C180.856 43.3582 180.848 43.9263 180.894 44.7402C180.994 46.7288 181.432 50.2301 183.244 50.7675C183.236 50.7598 186.923 53.785 179.88 53.8618Z" fill="#CB7A63"/>
<path d="M180.933 43.8729C180.864 44.1647 180.794 44.4565 180.756 44.7713C180.733 44.7866 180.702 44.802 180.679 44.802C179.182 45.1705 177.53 44.9709 176.002 43.9651C175.196 43.4353 174.589 42.8364 174.098 42.1454C173.998 41.3776 173.859 40.6174 173.721 39.9341L180.679 43.7347L180.933 43.8729Z" fill="#CB7A63"/>
<path d="M185.51 38.6595C185.464 41.0244 184.173 43.013 182.361 44.0956H182.353C182.346 44.1033 182.338 44.1033 182.33 44.1033C181.846 44.4104 181.316 44.6254 180.756 44.7713C180.733 44.7867 180.702 44.802 180.679 44.802C179.181 45.1706 177.53 44.9709 176.002 43.9651C175.195 43.4353 174.589 42.8364 174.097 42.1454C172.845 40.4255 172.323 38.1374 171.425 34.9126C171.148 33.9682 171.094 32.9624 171.271 31.995C171.901 28.5245 175.218 26.2287 178.682 26.8583C183.536 27.7183 185.61 34.3445 185.51 38.6595Z" fill="#CB7A63"/>
<path opacity="0.2" d="M182.015 44.2186C181.57 44.5027 181.347 44.6102 180.879 44.733C180.833 43.9192 180.848 43.351 180.833 43.351C180.879 42.6369 180.925 41.9229 180.925 41.9229C180.932 41.9536 181.685 44.2186 182.015 44.2186Z" fill="black"/>
<path d="M183.836 29.9447C183.313 30.7739 181.678 31.4726 181.731 31.2807C182.016 30.5973 181.962 29.2767 181.109 29.5838C181.347 30.1059 182.046 34.0525 181.731 34.5285C181.555 34.7896 181.393 37.9453 180.049 40.7248C178.982 42.9437 178.982 43.6347 178.982 43.6347L174.62 44.4793C172.984 44.272 171.463 42.1913 171.333 41.9609C170.764 40.9781 169.021 39.6959 168.115 39.0125C167.723 38.7208 167.416 38.2831 167.247 37.8224C166.947 36.9855 167.562 33.968 167.692 32.5553C167.884 30.5129 168.952 28.6318 171.916 27.4186C173.744 26.6662 175.288 25.023 177.154 24.3781C179.02 23.7254 181.24 23.7562 182.822 24.9463C183.59 25.5144 185.141 27.8716 183.836 29.9447Z" fill="#263238"/>
<path d="M181.555 32.8165C182.899 33.2081 183.598 35.189 183.659 36.4482C183.728 37.838 182.799 38.7133 181.585 37.7842C180.672 37.0702 180.019 36.072 179.735 34.951C179.404 33.592 180.211 32.4249 181.555 32.8165Z" fill="#CB7A63"/>
<path d="M183.175 37.4463C183.175 37.7688 182.914 38.0299 182.591 38.0299C182.269 38.0299 182.008 37.7688 182.008 37.4463C182.008 37.1238 182.269 36.8628 182.591 36.8628C182.914 36.8628 183.175 37.1162 183.175 37.4463Z" fill="#407BFF"/>
<path opacity="0.3" d="M183.175 37.4463C183.175 37.7688 182.914 38.0299 182.591 38.0299C182.269 38.0299 182.008 37.7688 182.008 37.4463C182.008 37.1238 182.269 36.8628 182.591 36.8628C182.914 36.8628 183.175 37.1162 183.175 37.4463Z" fill="white"/>
<path d="M170.68 52.7561C170.68 52.7561 171.67 49.6925 173.168 48.7251C174.666 47.7577 181.24 48.7635 182.269 49.1628C183.298 49.562 184.335 51.9422 184.335 51.9422L170.68 52.7561Z" fill="#407BFF"/>
<path opacity="0.3" d="M170.68 52.7561C170.68 52.7561 171.67 49.6925 173.168 48.7251C174.666 47.7577 181.24 48.7635 182.269 49.1628C183.298 49.562 184.335 51.9422 184.335 51.9422L170.68 52.7561Z" fill="white"/>
<path d="M185.687 51.45C184.665 51.2811 184.381 51.1275 183.214 51.0354C179.689 50.8664 176.156 50.9048 172.631 51.1505C171.348 51.2427 170.104 51.4884 168.875 51.7878C166.348 52.3944 164.651 54.7439 164.835 57.316C165.358 64.5027 167.485 68.718 167.8 73.4554C168.422 82.8841 166.917 89.4949 166.663 91.6909L171.502 92.428C180.134 92.2206 185.871 90.3702 190.625 88.3432C190.625 88.3432 189.381 76.9412 190.586 72.8411C193.874 61.6234 191.738 59.8421 191.093 56.6327C190.548 53.953 188.398 51.8876 185.687 51.45Z" fill="#407BFF"/>
<path opacity="0.1" d="M190.578 72.8265C190.186 74.1625 190.056 76.2817 190.056 78.5083C190.056 83.1459 190.624 88.3286 190.624 88.3286C185.878 90.3556 180.141 92.2061 171.501 92.4134L166.663 91.6763C166.924 89.4803 168.421 82.8695 167.807 73.4408C167.492 68.7111 165.365 64.4958 164.842 57.3014C164.65 54.737 166.355 52.3798 168.882 51.7809C170.111 51.4815 171.347 51.2434 172.638 51.1436C176.155 50.9056 179.688 50.8595 183.221 51.0208C184.388 51.1129 184.672 51.2665 185.694 51.4431C188.405 51.8884 190.555 53.9384 191.093 56.6181C191.323 57.7698 191.753 58.7372 192.045 60.0272C192.406 61.5935 192.575 63.6282 191.976 67.0296C191.692 68.6343 191.246 70.5385 190.578 72.8265Z" fill="white"/>
<path d="M187.077 51.0977C188.843 51.3434 190.587 51.6966 192.345 51.996C194.096 52.3339 195.847 52.6794 197.591 53.0556L196.961 53.0019C197.737 53.0326 198.428 53.094 198.858 53.1247C199.065 53.1401 199.211 53.1324 199.157 53.1708C199.15 53.1861 199.042 53.2245 198.927 53.3013C198.781 53.3781 198.597 53.5086 198.405 53.7082C198.005 54.1075 197.844 54.6526 197.852 54.8139C197.852 54.9905 197.906 54.9444 197.913 54.8139C197.944 54.5375 197.883 54.0077 197.767 53.4625L197.844 53.6852C196.961 51.1284 196.116 48.5562 195.348 45.9534C194.603 43.3428 193.881 40.7246 193.374 38.0219C193.182 36.9853 193.858 35.9872 194.903 35.7876C195.694 35.6417 196.469 36.0026 196.876 36.6475C198.336 38.974 199.595 41.3849 200.816 43.8112C202.022 46.2451 203.151 48.7021 204.234 51.1821L204.311 51.4125C204.61 52.1957 204.894 53.0172 205.071 54.1305C205.148 54.6834 205.209 55.3513 205.079 56.2113C204.963 57.0482 204.503 58.2537 203.589 59.1443C203.143 59.5897 202.667 59.9045 202.206 60.1425C201.769 60.3575 201.339 60.5187 200.993 60.6108C200.263 60.8105 199.71 60.8719 199.227 60.9256C198.267 61.0178 197.56 61.0178 196.946 61.0562L196.846 61.0639L196.308 61.0101C194.534 60.8258 192.76 60.6108 190.994 60.3882C189.235 60.1271 187.461 59.9121 185.702 59.605C183.367 59.1904 181.808 56.9561 182.231 54.6219C182.653 52.3185 184.803 50.7829 187.077 51.0977Z" fill="#407BFF"/>
<g opacity="0.1">
<path d="M187.077 51.0977C188.843 51.3434 190.587 51.6966 192.345 51.996C194.096 52.3339 195.847 52.6794 197.591 53.0556L196.961 53.0019C197.737 53.0326 198.428 53.094 198.858 53.1247C199.065 53.1401 199.211 53.1324 199.157 53.1708C199.15 53.1861 199.042 53.2245 198.927 53.3013C198.781 53.3781 198.597 53.5086 198.405 53.7082C198.005 54.1075 197.844 54.6526 197.852 54.8139C197.852 54.9905 197.906 54.9444 197.913 54.8139C197.944 54.5375 197.883 54.0077 197.767 53.4625L197.844 53.6852C196.961 51.1284 196.116 48.5562 195.348 45.9534C194.603 43.3428 193.881 40.7246 193.374 38.0219C193.182 36.9853 193.858 35.9872 194.903 35.7876C195.694 35.6417 196.469 36.0026 196.876 36.6475C198.336 38.974 199.595 41.3849 200.816 43.8112C202.022 46.2451 203.151 48.7021 204.234 51.1821L204.311 51.4125C204.61 52.1957 204.894 53.0172 205.071 54.1305C205.148 54.6834 205.209 55.3513 205.079 56.2113C204.963 57.0482 204.503 58.2537 203.589 59.1443C203.143 59.5897 202.667 59.9045 202.206 60.1425C201.769 60.3575 201.339 60.5187 200.993 60.6108C200.263 60.8105 199.71 60.8719 199.227 60.9256C198.267 61.0178 197.56 61.0178 196.946 61.0562L196.846 61.0639L196.308 61.0101C194.534 60.8258 192.76 60.6108 190.994 60.3882C189.235 60.1271 187.461 59.9121 185.702 59.605C183.367 59.1904 181.808 56.9561 182.231 54.6219C182.653 52.3185 184.803 50.7829 187.077 51.0977Z" fill="white"/>
</g>
<path d="M218.834 34.5747L241.859 33.8683L241.505 26.6509L218.527 28.1635L218.834 34.5747Z" fill="#407BFF"/>
<path d="M201.431 34.8512L220.055 34.2446L219.771 28.3325L201.185 29.538L201.431 34.8512Z" fill="#407BFF"/>
<path d="M217.597 34.398L218.811 34.5285L218.511 28.2095L217.306 28.4552L217.597 34.398Z" fill="#263238"/>
<path opacity="0.2" d="M217.597 34.398L218.811 34.5285L218.511 28.2095L217.306 28.4552L217.597 34.398Z" fill="black"/>
<path d="M218.818 34.5749L220.063 34.5365L219.755 28.0869L218.511 28.1714L218.818 34.5749Z" fill="#263238"/>
<path d="M198.543 33.9756L200.386 34.8279L200.148 29.6528L198.39 30.6817L198.543 33.9756Z" fill="#263238"/>
<path d="M189.082 33.9067L194.557 33.6226L194.442 31.1963L188.966 31.5264L189.082 33.9067Z" fill="#263238"/>
<path opacity="0.2" d="M189.082 33.9067L194.557 33.6226L194.442 31.1963L188.966 31.5264L189.082 33.9067Z" fill="black"/>
<path d="M193.804 34.1138L199.895 33.8835L199.741 30.4897L193.651 30.8429L193.804 34.1138Z" fill="#263238"/>
<path opacity="0.2" d="M198.543 33.9756L200.386 34.8279L200.148 29.6528L198.39 30.6817L198.543 33.9756Z" fill="black"/>
<path d="M200.425 34.882L201.431 34.8513L201.185 29.5381L200.171 29.5995L200.425 34.882Z" fill="#263238"/>
<path d="M241.075 33.8915L244.692 33.761L244.331 26.5205L240.722 26.7048L241.075 33.8915Z" fill="#263238"/>
<path d="M242.68 34.3981L247.288 34.2676L247.404 33.9528C248.387 31.2194 248.195 28.2019 246.866 25.6221L242.266 25.9369L242.365 26.1749C243.456 28.7931 243.571 31.7108 242.68 34.3981Z" fill="#407BFF"/>
<g opacity="0.4">
<path d="M237.773 27.4575L239.639 27.3423L239.677 28.1331L237.788 28.2406C237.734 27.9872 237.75 27.7185 237.773 27.4575Z" fill="white"/>
<path d="M236.643 27.542C236.62 27.803 236.613 28.0718 236.651 28.3252L220.485 29.2389L220.446 28.5171L236.643 27.542Z" fill="white"/>
</g>
<g opacity="0.4">
<path d="M201.577 29.9524L201.607 30.5974L216.798 29.6991L216.76 28.9927L201.577 29.9524Z" fill="white"/>
</g>
<g opacity="0.4">
<path d="M242.672 26.1904L242.718 26.9966L246.32 26.7586L246.282 25.937L242.672 26.1904Z" fill="white"/>
</g>
<path opacity="0.3" d="M246.82 33.208C246.797 33.4844 246.781 33.7608 246.827 34.0296L243.095 34.1601L243.049 33.3539L246.82 33.208Z" fill="black"/>
<path opacity="0.3" d="M240.146 32.7627C240.123 33.0314 240.115 33.2925 240.153 33.5612L220.385 34.2676L220.347 33.5535L240.146 32.7627Z" fill="black"/>
<path opacity="0.3" d="M216.614 33.4536C216.599 33.6916 216.591 33.922 216.622 34.16L201.93 34.6744L201.899 34.0295L216.614 33.4536Z" fill="black"/>
<path d="M187.853 31.6186L187.899 33.9374C187.906 34.3289 188.267 34.6437 188.697 34.6361L190.579 34.6053L190.502 30.8047L188.621 30.8738C188.183 30.8891 187.837 31.227 187.853 31.6186Z" fill="#407BFF"/>
<path d="M197.583 38.053L198.297 33.7302C198.328 33.5536 198.336 33.3693 198.321 33.185L198.113 30.897C198.082 30.5975 197.867 30.3134 197.545 30.2136L194.089 30.1752C193.636 30.0293 193.137 30.252 192.983 30.6589L192.361 33.4922C192.315 33.7072 192.322 33.9221 192.376 34.1371L193.398 38.0376C193.497 38.3601 193.797 38.6135 194.166 38.6902L196.424 38.7133C196.961 38.7977 197.468 38.5136 197.583 38.053Z" fill="#CE7A63"/>
<path d="M199.611 39.8724L193.736 41.9378L192.76 38.3291L197.798 36.7935L199.611 39.8724Z" fill="#407BFF"/>
<path opacity="0.3" d="M199.611 39.8724L193.736 41.9378L192.76 38.3291L197.798 36.7935L199.611 39.8724Z" fill="white"/>
<path opacity="0.2" d="M191.969 67.0374L187.468 58.5454L192.038 60.0273C192.399 61.6013 192.568 63.636 191.969 67.0374Z" fill="black"/>
<path d="M215.171 137.53L214.241 149.062L219.487 149.162L220.931 137.284L215.171 137.53Z" fill="#CE7A63"/>
<path d="M220.316 147.588L214.326 147.711C214.103 147.719 213.903 147.888 213.857 148.126L212.828 153.377C212.736 153.846 213.005 154.299 213.443 154.399C213.496 154.414 213.558 154.414 213.612 154.414C215.77 154.33 217.69 154.161 220.378 154.115C223.549 154.053 222.751 154.475 226.476 154.46C228.726 154.445 229.11 151.696 228.15 151.581C223.78 151.082 223.319 149.677 221.614 148.034C221.253 147.719 220.792 147.557 220.316 147.588Z" fill="#263238"/>
<path d="M157.831 186.954L155.704 197.55L161.357 199.27L164.075 188.451L157.831 186.954Z" fill="#CE7A63"/>
<path d="M188.037 88.7969C188.037 88.7969 180.004 135.679 175.634 149.477C172.523 159.305 164.19 191.445 164.19 191.445L156.626 189.772C156.626 189.772 155.781 167.889 159.982 156.594C161.418 152.74 163.292 149.262 163.799 146.874C165.965 136.67 161.502 118.158 163.476 104.345C164.544 96.8589 166.832 91.5226 166.832 91.5226L188.037 88.7969Z" fill="#263238"/>
<path d="M175.634 149.485C172.523 159.312 164.19 191.453 164.19 191.453L156.626 189.779C156.626 189.779 155.781 167.897 159.982 156.602C161.418 152.748 163.292 149.27 163.799 146.882C165.965 136.677 161.502 118.166 163.476 104.353C164.544 96.8666 166.832 91.5303 166.832 91.5303" fill="#263238"/>
<path opacity="0.2" d="M178.184 103.293L182.231 119.172L185.188 103.984L178.184 103.293Z" fill="black"/>
<path d="M221.299 143.066L213.911 143.304C213.911 143.304 214.456 133.637 214.456 119.54C214.456 117.367 214.794 115.225 215.27 113.306C216.322 108.998 218.027 105.789 218.027 105.789C218.027 105.789 217.236 105.835 215.885 105.896C211.707 106.111 185.81 107.447 185.303 107.409C184.919 107.37 182.569 107.685 178.345 105.627C170.504 101.804 170.427 91.0775 170.427 91.0775L190.617 88.3364C190.617 88.3518 190.948 88.3978 195.809 88.4823C210.547 88.7357 228.657 89.3039 231.836 94.3637C236.306 101.481 221.299 143.066 221.299 143.066Z" fill="#263238"/>
<path d="M161.633 196.529L155.435 196.613C155.205 196.613 155.013 196.79 154.974 197.028L154.206 202.325C154.137 202.794 154.445 203.255 154.898 203.362C154.959 203.377 155.013 203.385 155.074 203.385C157.302 203.316 159.283 203.162 162.063 203.124C165.342 203.078 164.536 203.5 168.399 203.508C170.726 203.508 170.972 200.736 169.974 200.613C165.427 200.076 164.859 198.663 163.008 196.989C162.616 196.667 162.125 196.505 161.633 196.529Z" fill="#263238"/>
<path opacity="0.2" d="M215.271 113.306C216.323 108.998 218.028 105.789 218.028 105.789C218.028 105.789 217.237 105.835 215.885 105.896C215.823 105.873 215.762 105.858 215.685 105.858L221.069 105.405L215.271 113.306Z" fill="black"/>
<path d="M74.1426 55.9045C79.347 55.9045 83.566 51.6866 83.566 46.4835C83.566 41.2804 79.347 37.0625 74.1426 37.0625C68.9382 37.0625 64.7192 41.2804 64.7192 46.4835C64.7192 51.6866 68.9382 55.9045 74.1426 55.9045Z" fill="#407BFF"/>
<path opacity="0.6" d="M74.1426 55.9045C79.347 55.9045 83.566 51.6866 83.566 46.4835C83.566 41.2804 79.347 37.0625 74.1426 37.0625C68.9382 37.0625 64.7192 41.2804 64.7192 46.4835C64.7192 51.6866 68.9382 55.9045 74.1426 55.9045Z" fill="white"/>
<path d="M74.158 33.4767C73.3823 33.4767 72.7603 32.8471 72.7603 32.0793V25.8984C72.7603 25.1229 73.39 24.501 74.158 24.501C74.9337 24.501 75.5558 25.1306 75.5558 25.8984V32.0793C75.5635 32.8471 74.9337 33.4767 74.158 33.4767Z" fill="#407BFF"/>
<path d="M74.158 68.3351C73.3823 68.3351 72.7603 67.7055 72.7603 66.9377V60.7568C72.7603 59.9813 73.39 59.3594 74.158 59.3594C74.9337 59.3594 75.5558 59.989 75.5558 60.7568V66.9377C75.5635 67.7055 74.9337 68.3351 74.158 68.3351Z" fill="#407BFF"/>
<path d="M64.0206 37.6767C63.6596 37.6767 63.3063 37.5385 63.0298 37.2698L60.3572 34.5978C59.8119 34.0527 59.8119 33.162 60.3572 32.6169C60.9025 32.0717 61.7934 32.0717 62.3386 32.6169L65.0113 35.2888C65.5566 35.834 65.5566 36.7246 65.0113 37.2698C64.7348 37.5385 64.3815 37.6767 64.0206 37.6767Z" fill="#407BFF"/>
<path d="M86.7917 60.4425C86.4307 60.4425 86.0774 60.3043 85.801 60.0356L83.305 57.5402C82.7597 56.9951 82.7597 56.1044 83.305 55.5592C83.8502 55.0141 84.7411 55.0141 85.2864 55.5592L87.7824 58.0546C88.3277 58.5998 88.3277 59.4904 87.7824 60.0356C87.5136 60.3043 87.1526 60.4425 86.7917 60.4425Z" fill="#407BFF"/>
<path d="M59.8194 47.8119H53.637C52.8613 47.8119 52.2393 47.1823 52.2393 46.4145C52.2393 45.639 52.869 45.0171 53.637 45.0171H59.8194C60.5951 45.0171 61.2172 45.6467 61.2172 46.4145C61.2249 47.1823 60.5951 47.8119 59.8194 47.8119Z" fill="#407BFF"/>
<path d="M94.6865 47.8119H88.4964C87.7207 47.8119 87.0986 47.1823 87.0986 46.4145C87.0986 45.639 87.7284 45.0171 88.4964 45.0171H94.6865C95.4622 45.0171 96.0842 45.6467 96.0842 46.4145C96.0919 47.1823 95.4622 47.8119 94.6865 47.8119Z" fill="#407BFF"/>
<path d="M61.6624 60.3038C61.3014 60.3038 60.9481 60.1656 60.6717 59.8969C60.1264 59.3517 60.1264 58.4611 60.6717 57.9159L63.0294 55.5588C63.5747 55.0136 64.4656 55.0136 65.0109 55.5588C65.5561 56.1039 65.5561 56.9946 65.0109 57.5397L62.6531 59.8969C62.3766 60.1656 62.0233 60.3038 61.6624 60.3038Z" fill="#407BFF"/>
<path d="M84.303 37.6764C83.942 37.6764 83.5888 37.5382 83.3123 37.2694C82.767 36.7243 82.767 35.8336 83.3123 35.2885L85.839 32.7624C86.3843 32.2172 87.2752 32.2172 87.8204 32.7624C88.3657 33.3075 88.3657 34.1982 87.8204 34.7433L85.2937 37.2694C85.0172 37.5382 84.6563 37.6764 84.303 37.6764Z" fill="#407BFF"/>
<g opacity="0.6">
<path d="M74.158 33.4767C73.3823 33.4767 72.7603 32.8471 72.7603 32.0793V25.8984C72.7603 25.1229 73.39 24.501 74.158 24.501C74.9337 24.501 75.5558 25.1306 75.5558 25.8984V32.0793C75.5635 32.8471 74.9337 33.4767 74.158 33.4767Z" fill="white"/>
<path d="M74.158 68.3351C73.3823 68.3351 72.7603 67.7055 72.7603 66.9377V60.7568C72.7603 59.9813 73.39 59.3594 74.158 59.3594C74.9337 59.3594 75.5558 59.989 75.5558 60.7568V66.9377C75.5635 67.7055 74.9337 68.3351 74.158 68.3351Z" fill="white"/>
<path d="M64.0206 37.6767C63.6596 37.6767 63.3063 37.5385 63.0298 37.2698L60.3572 34.5978C59.8119 34.0527 59.8119 33.162 60.3572 32.6169C60.9025 32.0717 61.7934 32.0717 62.3386 32.6169L65.0113 35.2888C65.5566 35.834 65.5566 36.7246 65.0113 37.2698C64.7348 37.5385 64.3815 37.6767 64.0206 37.6767Z" fill="white"/>
<path d="M86.7917 60.4425C86.4307 60.4425 86.0774 60.3043 85.801 60.0356L83.305 57.5402C82.7597 56.9951 82.7597 56.1044 83.305 55.5592C83.8502 55.0141 84.7411 55.0141 85.2864 55.5592L87.7824 58.0546C88.3277 58.5998 88.3277 59.4904 87.7824 60.0356C87.5136 60.3043 87.1526 60.4425 86.7917 60.4425Z" fill="white"/>
<path d="M59.8194 47.8119H53.637C52.8613 47.8119 52.2393 47.1823 52.2393 46.4145C52.2393 45.639 52.869 45.0171 53.637 45.0171H59.8194C60.5951 45.0171 61.2172 45.6467 61.2172 46.4145C61.2249 47.1823 60.5951 47.8119 59.8194 47.8119Z" fill="white"/>
<path d="M94.6865 47.8119H88.4964C87.7207 47.8119 87.0986 47.1823 87.0986 46.4145C87.0986 45.639 87.7284 45.0171 88.4964 45.0171H94.6865C95.4622 45.0171 96.0842 45.6467 96.0842 46.4145C96.0919 47.1823 95.4622 47.8119 94.6865 47.8119Z" fill="white"/>
<path d="M61.6624 60.3038C61.3014 60.3038 60.9481 60.1656 60.6717 59.8969C60.1264 59.3517 60.1264 58.4611 60.6717 57.9159L63.0294 55.5588C63.5747 55.0136 64.4656 55.0136 65.0109 55.5588C65.5561 56.1039 65.5561 56.9946 65.0109 57.5397L62.6531 59.8969C62.3766 60.1656 62.0233 60.3038 61.6624 60.3038Z" fill="white"/>
<path d="M84.303 37.6764C83.942 37.6764 83.5888 37.5382 83.3123 37.2694C82.767 36.7243 82.767 35.8336 83.3123 35.2885L85.839 32.7624C86.3843 32.2172 87.2752 32.2172 87.8204 32.7624C88.3657 33.3075 88.3657 34.1982 87.8204 34.7433L85.2937 37.2694C85.0172 37.5382 84.6563 37.6764 84.303 37.6764Z" fill="white"/>
</g>
</g>
<defs>
<clipPath id="clip0_1180_4443">
<rect width="384" height="285.671" fill="white"/>
</clipPath>
</defs>
</svg>
