<svg width="50" height="50" viewBox="0 0 50 50" fill="none" xmlns="http://www.w3.org/2000/svg">
<path d="M49.9585 10.2179C50.1856 7.16318 49.4804 4.86488 47.8587 3.39087C46.3387 2.00414 44.3915 1.72614 43.0907 1.72291C43.1479 1.12652 43.1939 0.539824 43.2098 0H6.78543C6.80132 0.538208 6.84738 1.12652 6.90773 1.72291C5.60374 1.72776 3.66126 2.00414 2.13808 3.39087C0.519609 4.86488 -0.185594 7.16318 0.0415324 10.2179C0.673674 18.7355 7.87024 25.8615 18.8708 28.984C19.6935 29.7146 20.5321 30.3595 21.4025 30.8104C21.3199 31.1304 21.2596 31.4601 21.2596 31.806C21.2596 32.9794 21.7916 34.0154 22.6112 34.7136V45.3856H20.6592C18.7151 45.3856 16.9299 46.4831 16.023 48.2334L15.1081 50H34.8903L33.9739 48.2318C33.067 46.4814 31.2833 45.3856 29.3376 45.3856H27.3872V34.7136C28.2084 34.0154 28.7373 32.9794 28.7373 31.806C28.7373 31.4601 28.6785 31.1304 28.5943 30.8104C29.4647 30.3595 30.3017 29.713 31.1276 28.984C42.1282 25.8615 49.3247 18.7355 49.9585 10.2179ZM46.2768 5.21076C47.3044 6.15626 47.7428 7.77896 47.5697 10.0336C47.1631 15.524 43.5211 20.3873 37.6412 23.7054C37.2489 23.9268 36.7566 23.8541 36.4437 23.526C36.1292 23.1979 36.0704 22.6969 36.2975 22.3025C39.5043 16.741 41.8391 9.73461 42.7698 4.16182C43.6418 4.12464 45.1904 4.21354 46.2768 5.21076ZM2.42556 10.0352C2.2572 7.78058 2.69557 6.15787 3.72161 5.21237C4.80959 4.21354 6.35501 4.12626 7.22698 4.16505C8.15931 9.73785 10.4941 16.7426 13.6993 22.3041C13.928 22.6985 13.8661 23.1995 13.5532 23.526C13.2387 23.8541 12.7495 23.9284 12.3556 23.707C6.47889 20.3873 2.83376 15.524 2.42556 10.0352Z" fill="#CD7F32"/>
</svg>
