<svg width="1440" height="712" viewBox="0 0 1440 712" fill="none" xmlns="http://www.w3.org/2000/svg">
<rect width="1440" height="712" fill="#E0E0E0" fill-opacity="0.1"/>
<path d="M776.403 394.493C774.379 394.493 772.32 394.428 770.285 394.302C746.963 392.826 724.979 382.565 708.376 365.397C691.778 348.234 682.089 325.761 681.089 302.105C679.717 269.593 694.414 238.774 720.398 219.656C728.226 213.898 732.897 204.795 732.897 195.31V169.719C732.897 154.511 745.113 142.139 760.129 142.139H792.673C807.689 142.139 819.904 154.511 819.904 169.719V195.31C819.904 204.795 824.575 213.898 832.404 219.656C858.392 238.768 873.085 269.593 871.712 302.105C870.712 325.756 861.023 348.234 844.426 365.397C827.823 382.565 805.833 392.831 782.516 394.302C780.487 394.428 778.428 394.493 776.403 394.493ZM685.382 301.919C686.337 324.497 695.593 345.957 711.445 362.349C727.301 378.746 748.296 388.549 770.554 389.955C774.443 390.201 778.358 390.201 782.252 389.955C804.51 388.549 825.5 378.741 841.362 362.349C857.218 345.957 866.475 324.497 867.425 301.919C868.738 270.868 854.702 241.433 829.882 223.177C820.944 216.603 815.612 206.186 815.612 195.31V169.719C815.612 156.909 805.321 146.491 792.678 146.491H760.134C747.485 146.491 737.199 156.909 737.199 169.719V195.31C737.199 206.186 731.862 216.603 722.929 223.177C698.105 241.433 684.074 270.868 685.382 301.919Z" fill="#272525" fill-opacity="0.05"/>
<path d="M817.555 168.788H735.233C734.044 168.788 733.084 167.815 733.084 166.612C733.084 165.408 734.044 164.435 735.233 164.435H817.555C818.744 164.435 819.704 165.408 819.704 166.612C819.704 167.81 818.744 168.788 817.555 168.788Z" fill="#272525" fill-opacity="0.05"/>
<path d="M817.573 191.209H735.251C734.062 191.209 733.103 190.237 733.103 189.033C733.103 187.829 734.062 186.857 735.251 186.857H817.573C818.762 186.857 819.722 187.829 819.722 189.033C819.722 190.232 818.757 191.209 817.573 191.209Z" fill="#272525" fill-opacity="0.05"/>
<path d="M795.745 146.491C794.556 146.491 793.596 145.519 793.596 144.315C793.596 137.817 790.557 133.288 787.831 133.288H764.966C762.241 133.288 759.202 137.817 759.202 144.315C759.202 145.519 758.242 146.491 757.053 146.491C755.864 146.491 754.904 145.519 754.904 144.315C754.904 135.691 759.326 128.936 764.966 128.936H787.831C793.477 128.936 797.893 135.691 797.893 144.315C797.893 145.514 796.933 146.491 795.745 146.491Z" fill="#272525" fill-opacity="0.05"/>
<path d="M845.819 312.821C845.695 312.821 845.571 312.811 845.446 312.786C844.277 312.579 843.496 311.451 843.7 310.267C844.377 306.333 844.725 302.298 844.725 298.273C844.725 296.585 844.665 294.878 844.546 293.205C844.461 292.006 845.352 290.963 846.535 290.878C847.719 290.787 848.749 291.694 848.833 292.893C848.963 294.671 849.027 296.48 849.027 298.273C849.027 302.55 848.659 306.837 847.938 311.018C847.749 312.076 846.844 312.821 845.819 312.821Z" fill="#272525" fill-opacity="0.05"/>
<path d="M807.868 364.326C807.082 364.326 806.321 363.882 805.943 363.122C805.41 362.049 805.843 360.739 806.903 360.2C821.978 352.568 833.702 339.647 839.914 323.809C840.352 322.691 841.6 322.147 842.704 322.59C843.809 323.033 844.346 324.298 843.908 325.416C837.303 342.246 824.843 355.984 808.823 364.094C808.519 364.25 808.191 364.326 807.868 364.326Z" fill="#272525" fill-opacity="0.05"/>
<path d="M774.258 131.107C774.258 132.311 775.218 133.283 776.407 133.283C777.595 133.283 778.555 132.311 778.555 131.107V0H774.258V131.107Z" fill="#272525" fill-opacity="0.05"/>
<path d="M1004.68 324.769C1003.02 324.769 1001.32 324.715 999.647 324.612C980.447 323.397 962.348 314.949 948.68 300.815C935.016 286.686 927.039 268.185 926.216 248.71C925.086 221.944 937.186 196.572 958.577 180.833C965.022 176.093 968.867 168.599 968.867 160.79V139.723C968.867 127.202 978.924 117.017 991.286 117.017H1018.08C1030.44 117.017 1040.5 127.202 1040.5 139.723V160.79C1040.5 168.599 1044.34 176.093 1050.79 180.833C1072.18 196.568 1084.28 221.944 1083.15 248.71C1082.32 268.181 1074.35 286.686 1060.68 300.815C1047.02 314.949 1028.91 323.401 1009.72 324.612C1008.05 324.715 1006.35 324.769 1004.68 324.769ZM929.75 248.557C930.536 267.144 938.157 284.811 951.207 298.306C964.261 311.805 981.545 319.876 999.869 321.033C1003.07 321.236 1006.29 321.236 1009.5 321.033C1027.82 319.876 1045.1 311.801 1058.16 298.306C1071.22 284.811 1078.84 267.144 1079.62 248.557C1080.7 222.994 1069.14 198.762 1048.71 183.732C1041.35 178.32 1036.96 169.744 1036.96 160.79V139.723C1036.96 129.176 1028.49 120.6 1018.08 120.6H991.29C980.877 120.6 972.409 129.176 972.409 139.723V160.79C972.409 169.744 968.015 178.32 960.661 183.732C940.224 198.762 928.673 222.994 929.75 248.557Z" fill="#272525" fill-opacity="0.05"/>
<path d="M1038.57 138.955H970.801C969.823 138.955 969.032 138.155 969.032 137.164C969.032 136.173 969.823 135.372 970.801 135.372H1038.57C1039.55 135.372 1040.34 136.173 1040.34 137.164C1040.34 138.151 1039.55 138.955 1038.57 138.955Z" fill="#272525" fill-opacity="0.05"/>
<path d="M1038.57 157.414H970.801C969.823 157.414 969.032 156.614 969.032 155.622C969.032 154.631 969.823 153.831 970.801 153.831H1038.57C1039.55 153.831 1040.34 154.631 1040.34 155.622C1040.34 156.609 1039.55 157.414 1038.57 157.414Z" fill="#272525" fill-opacity="0.05"/>
<path d="M1020.61 120.6C1019.63 120.6 1018.84 119.799 1018.84 118.808C1018.84 113.458 1016.33 109.73 1014.09 109.73H995.267C993.023 109.73 990.521 113.458 990.521 118.808C990.521 119.799 989.731 120.6 988.752 120.6C987.774 120.6 986.983 119.799 986.983 118.808C986.983 111.708 990.624 106.147 995.267 106.147H1014.09C1018.74 106.147 1022.37 111.708 1022.37 118.808C1022.37 119.795 1021.58 120.6 1020.61 120.6Z" fill="#272525" fill-opacity="0.05"/>
<path d="M1061.83 257.531C1061.73 257.531 1061.62 257.523 1061.52 257.502C1060.56 257.332 1059.92 256.403 1060.09 255.429C1060.64 252.19 1060.93 248.868 1060.93 245.554C1060.93 244.165 1060.88 242.759 1060.78 241.382C1060.71 240.395 1061.44 239.537 1062.42 239.466C1063.39 239.391 1064.24 240.138 1064.31 241.125C1064.42 242.589 1064.47 244.078 1064.47 245.554C1064.47 249.075 1064.17 252.604 1063.57 256.046C1063.42 256.917 1062.67 257.531 1061.83 257.531Z" fill="#272525" fill-opacity="0.05"/>
<path d="M1030.59 299.932C1029.94 299.932 1029.32 299.567 1029 298.94C1028.57 298.057 1028.92 296.979 1029.79 296.535C1042.21 290.252 1051.86 279.615 1056.97 266.576C1057.33 265.655 1058.36 265.207 1059.27 265.572C1060.18 265.937 1060.62 266.978 1060.26 267.899C1054.82 281.755 1044.56 293.064 1031.37 299.741C1031.13 299.869 1030.85 299.932 1030.59 299.932Z" fill="#272525" fill-opacity="0.05"/>
<path d="M1002.92 107.934C1002.92 108.925 1003.71 109.726 1004.69 109.726C1005.67 109.726 1006.46 108.925 1006.46 107.934V0H1002.92V107.934Z" fill="#272525" fill-opacity="0.05"/>
<path d="M1201.89 265.949C1200.53 265.949 1199.14 265.905 1197.77 265.82C1182.04 264.825 1167.22 257.907 1156.03 246.333C1144.84 234.763 1138.31 219.613 1137.63 203.665C1136.71 181.747 1146.62 160.97 1164.13 148.082C1169.41 144.2 1172.56 138.063 1172.56 131.669V114.417C1172.56 104.164 1180.8 95.8232 1190.92 95.8232H1212.86C1222.98 95.8232 1231.22 104.164 1231.22 114.417V131.669C1231.22 138.063 1234.37 144.2 1239.64 148.082C1257.16 160.966 1267.07 181.747 1266.14 203.665C1265.47 219.61 1258.94 234.763 1247.75 246.333C1236.56 257.907 1221.73 264.828 1206.01 265.82C1204.64 265.905 1203.26 265.949 1201.89 265.949ZM1140.53 203.539C1141.17 218.761 1147.41 233.228 1158.1 244.279C1168.79 255.333 1182.94 261.942 1197.95 262.889C1200.57 263.055 1203.21 263.055 1205.83 262.889C1220.84 261.942 1234.99 255.329 1245.68 244.279C1256.37 233.228 1262.61 218.761 1263.25 203.539C1264.14 182.606 1254.68 162.763 1237.94 150.456C1231.92 146.024 1228.32 139.001 1228.32 131.669V114.417C1228.32 105.78 1221.39 98.7574 1212.86 98.7574H1190.92C1182.4 98.7574 1175.46 105.78 1175.46 114.417V131.669C1175.46 139.001 1171.86 146.024 1165.84 150.456C1149.11 162.763 1139.65 182.606 1140.53 203.539Z" fill="#272525" fill-opacity="0.05"/>
<path d="M1229.64 113.789H1174.15C1173.34 113.789 1172.7 113.133 1172.7 112.322C1172.7 111.51 1173.34 110.855 1174.15 110.855H1229.64C1230.44 110.855 1231.09 111.51 1231.09 112.322C1231.09 113.13 1230.44 113.789 1229.64 113.789Z" fill="#272525" fill-opacity="0.05"/>
<path d="M1229.64 128.904H1174.15C1173.34 128.904 1172.7 128.248 1172.7 127.437C1172.7 126.625 1173.34 125.969 1174.15 125.969H1229.64C1230.44 125.969 1231.09 126.625 1231.09 127.437C1231.09 128.245 1230.44 128.904 1229.64 128.904Z" fill="#272525" fill-opacity="0.05"/>
<path d="M1214.93 98.7576C1214.13 98.7576 1213.49 98.1022 1213.49 97.2905C1213.49 92.9096 1211.44 89.8566 1209.6 89.8566H1194.18C1192.35 89.8566 1190.3 92.9096 1190.3 97.2905C1190.3 98.1022 1189.65 98.7576 1188.85 98.7576C1188.05 98.7576 1187.4 98.1022 1187.4 97.2905C1187.4 91.4765 1190.38 86.9224 1194.18 86.9224H1209.6C1213.4 86.9224 1216.38 91.4765 1216.38 97.2905C1216.38 98.0988 1215.74 98.7576 1214.93 98.7576Z" fill="#272525" fill-opacity="0.05"/>
<path d="M1248.69 210.888C1248.6 210.888 1248.52 210.881 1248.44 210.865C1247.65 210.725 1247.12 209.965 1247.26 209.166C1247.72 206.514 1247.95 203.794 1247.95 201.08C1247.95 199.943 1247.91 198.792 1247.83 197.664C1247.77 196.856 1248.37 196.153 1249.17 196.095C1249.97 196.034 1250.66 196.645 1250.72 197.453C1250.81 198.652 1250.85 199.871 1250.85 201.08C1250.85 203.964 1250.6 206.854 1250.12 209.673C1249.99 210.386 1249.38 210.888 1248.69 210.888Z" fill="#272525" fill-opacity="0.05"/>
<path d="M1223.09 245.61C1222.56 245.61 1222.05 245.311 1221.79 244.798C1221.43 244.075 1221.72 243.192 1222.44 242.829C1232.6 237.684 1240.51 228.973 1244.69 218.296C1244.99 217.542 1245.83 217.175 1246.57 217.474C1247.32 217.773 1247.68 218.625 1247.39 219.379C1242.93 230.725 1234.53 239.986 1223.73 245.454C1223.53 245.559 1223.31 245.61 1223.09 245.61Z" fill="#272525" fill-opacity="0.05"/>
<path d="M1200.44 88.3859C1200.44 89.1975 1201.09 89.853 1201.89 89.853C1202.69 89.853 1203.34 89.1975 1203.34 88.3859V0H1200.44V88.3859Z" fill="#272525" fill-opacity="0.05"/>
<path d="M1357.69 153.577C1356.91 153.577 1356.1 153.551 1355.31 153.502C1346.23 152.928 1337.68 148.933 1331.21 142.249C1324.75 135.568 1320.98 126.819 1320.59 117.61C1320.05 104.953 1325.78 92.9551 1335.89 85.5127C1338.94 83.2712 1340.76 79.7274 1340.76 76.0347V66.0723C1340.76 60.1517 1345.51 55.3352 1351.36 55.3352H1364.03C1369.87 55.3352 1374.63 60.1517 1374.63 66.0723V76.0347C1374.63 79.7274 1376.45 83.2712 1379.5 85.5127C1389.61 92.9531 1395.33 104.953 1394.8 117.61C1394.41 126.817 1390.64 135.568 1384.18 142.249C1377.71 148.933 1369.15 152.93 1360.07 153.502C1359.28 153.551 1358.48 153.577 1357.69 153.577ZM1322.26 117.538C1322.63 126.327 1326.24 134.682 1332.41 141.063C1338.58 147.446 1346.75 151.263 1355.42 151.81C1356.93 151.906 1358.46 151.906 1359.97 151.81C1368.64 151.263 1376.81 147.444 1382.98 141.063C1389.16 134.682 1392.76 126.327 1393.13 117.538C1393.64 105.449 1388.18 93.9906 1378.51 86.8835C1375.03 84.3243 1372.96 80.2687 1372.96 76.0347V66.0723C1372.96 61.0852 1368.95 57.0296 1364.03 57.0296H1351.36C1346.44 57.0296 1342.43 61.0852 1342.43 66.0723V76.0347C1342.43 80.2687 1340.35 84.3243 1336.88 86.8835C1327.21 93.9906 1321.75 105.449 1322.26 117.538Z" fill="#272525" fill-opacity="0.05"/>
<path d="M1373.72 65.7098H1341.67C1341.21 65.7098 1340.84 65.3313 1340.84 64.8626C1340.84 64.3939 1341.21 64.0154 1341.67 64.0154H1373.72C1374.18 64.0154 1374.56 64.3939 1374.56 64.8626C1374.56 65.3293 1374.18 65.7098 1373.72 65.7098Z" fill="#272525" fill-opacity="0.05"/>
<path d="M1373.72 74.4381H1341.67C1341.21 74.4381 1340.84 74.0596 1340.84 73.5909C1340.84 73.1221 1341.21 72.7437 1341.67 72.7437H1373.72C1374.18 72.7437 1374.56 73.1221 1374.56 73.5909C1374.56 74.0576 1374.18 74.4381 1373.72 74.4381Z" fill="#272525" fill-opacity="0.05"/>
<path d="M1365.22 57.0293C1364.76 57.0293 1364.38 56.6508 1364.38 56.1821C1364.38 53.6523 1363.2 51.8892 1362.14 51.8892H1353.24C1352.18 51.8892 1350.99 53.6523 1350.99 56.1821C1350.99 56.6508 1350.62 57.0293 1350.16 57.0293C1349.69 57.0293 1349.32 56.6508 1349.32 56.1821C1349.32 52.8247 1351.04 50.1948 1353.24 50.1948H1362.14C1364.34 50.1948 1366.05 52.8247 1366.05 56.1821C1366.05 56.6488 1365.68 57.0293 1365.22 57.0293Z" fill="#272525" fill-opacity="0.05"/>
<path d="M1384.72 121.781C1384.67 121.781 1384.62 121.777 1384.58 121.767C1384.12 121.686 1383.82 121.247 1383.9 120.786C1384.16 119.255 1384.29 117.684 1384.29 116.117C1384.29 115.46 1384.27 114.795 1384.22 114.144C1384.19 113.677 1384.54 113.271 1385 113.238C1385.46 113.203 1385.86 113.556 1385.89 114.022C1385.94 114.715 1385.97 115.419 1385.97 116.117C1385.97 117.782 1385.83 119.451 1385.55 121.079C1385.47 121.49 1385.12 121.781 1384.72 121.781Z" fill="#272525" fill-opacity="0.05"/>
<path d="M1369.94 141.832C1369.63 141.832 1369.34 141.659 1369.19 141.363C1368.98 140.945 1369.15 140.435 1369.56 140.225C1375.43 137.254 1380 132.224 1382.42 126.058C1382.59 125.623 1383.07 125.411 1383.5 125.584C1383.93 125.756 1384.14 126.249 1383.97 126.684C1381.4 133.236 1376.55 138.584 1370.31 141.741C1370.19 141.802 1370.07 141.832 1369.94 141.832Z" fill="#272525" fill-opacity="0.05"/>
<path d="M1356.86 51.0397C1356.86 51.5084 1357.23 51.8869 1357.69 51.8869C1358.16 51.8869 1358.53 51.5084 1358.53 51.0397V0H1356.86V51.0397Z" fill="#272525" fill-opacity="0.05"/>
</svg>
