<svg width="60" height="60" viewBox="0 0 60 60" fill="none" xmlns="http://www.w3.org/2000/svg">
<path d="M20.6239 52.5065C22.6964 52.5065 24.3766 50.8263 24.3766 48.7537C24.3766 46.6811 22.6964 45.001 20.6239 45.001C18.5513 45.001 16.8711 46.6811 16.8711 48.7537C16.8711 50.8263 18.5513 52.5065 20.6239 52.5065Z" fill="black"/>
<path d="M46.8802 52.5065C48.9528 52.5065 50.633 50.8263 50.633 48.7537C50.633 46.6811 48.9528 45.001 46.8802 45.001C44.8076 45.001 43.1274 46.6811 43.1274 48.7537C43.1274 50.8263 44.8076 52.5065 46.8802 52.5065Z" fill="black"/>
<path d="M53.5308 14.1568C53.2673 13.8346 52.9355 13.5751 52.5593 13.3972C52.1831 13.2192 51.7719 13.1272 51.3558 13.1279H15.6897L14.9714 9.05215C14.8948 8.618 14.6677 8.22473 14.3299 7.94141C13.9921 7.65809 13.5654 7.50284 13.1245 7.50293H5.62451C5.12723 7.50293 4.65032 7.70047 4.29869 8.0521C3.94706 8.40374 3.74951 8.88065 3.74951 9.37793C3.74951 9.87521 3.94706 10.3521 4.29869 10.7038C4.65032 11.0554 5.12723 11.2529 5.62451 11.2529H11.5519L16.9026 41.5787C16.9792 42.0129 17.2064 42.4061 17.5441 42.6895C17.8819 42.9728 18.3087 43.128 18.7495 43.1279H48.7495C49.2468 43.1279 49.7237 42.9304 50.0753 42.5788C50.427 42.2271 50.6245 41.7502 50.6245 41.2529C50.6245 40.7557 50.427 40.2787 50.0753 39.9271C49.7237 39.5755 49.2468 39.3779 48.7495 39.3779H20.3222L19.6612 35.6279H47.9808C48.631 35.6271 49.261 35.4017 49.7641 34.9897C50.2672 34.5778 50.6126 34.0047 50.7417 33.3674L54.1167 16.4924C54.198 16.084 54.1876 15.6626 54.0863 15.2587C53.985 14.8548 53.7952 14.4785 53.5308 14.1568V14.1568Z" fill="black"/>
</svg>
