<svg width="36" height="33" viewBox="0 0 36 33" fill="none" xmlns="http://www.w3.org/2000/svg">
<path d="M25.7099 2.86377H10.2898C7.97983 2.86377 6.08984 4.69024 6.08984 6.95508V27.9816C6.08984 30.2465 7.97983 32.0876 10.2898 32.0876H25.7099C28.0349 32.0876 29.9098 30.2465 29.9098 27.9816V6.95508C29.9098 4.69024 28.0349 2.86377 25.7099 2.86377ZM11.8349 23.9488H24.1648C24.7948 23.9488 25.2898 24.4456 25.2898 25.0447C25.2898 25.6437 24.7948 26.1405 24.1648 26.1405H11.8349C11.2199 26.1405 10.7099 25.6437 10.7099 25.0447C10.7099 24.4456 11.2199 23.9488 11.8349 23.9488ZM10.7099 17.5341C10.7099 16.935 11.2199 16.4382 11.8349 16.4382H24.1648C24.7948 16.4382 25.2898 16.935 25.2898 17.5341C25.2898 18.1478 24.7948 18.63 24.1648 18.63H11.8349C11.2199 18.63 10.7099 18.1478 10.7099 17.5341ZM24.1648 11.1195H11.8349C11.2199 11.1195 10.7099 10.6373 10.7099 10.0236C10.7099 9.42451 11.2199 8.9277 11.8349 8.9277H24.1648C24.7948 8.9277 25.2898 9.42451 25.2898 10.0236C25.2898 10.6373 24.7948 11.1195 24.1648 11.1195Z" fill="white"/>
</svg>
