<svg width="21" height="21" viewBox="0 0 21 21" fill="none" xmlns="http://www.w3.org/2000/svg">
<path d="M14.9973 1.71484H6.00224C4.65474 1.71484 3.55225 2.80858 3.55225 4.16483V16.7561C3.55225 18.1123 4.65474 19.2148 6.00224 19.2148H14.9973C16.3535 19.2148 17.4472 18.1123 17.4472 16.7561V4.16483C17.4472 2.80858 16.3535 1.71484 14.9973 1.71484ZM6.90351 14.3411H14.096C14.4635 14.3411 14.7522 14.6386 14.7522 14.9974C14.7522 15.3561 14.4635 15.6536 14.096 15.6536H6.90351C6.54476 15.6536 6.24726 15.3561 6.24726 14.9974C6.24726 14.6386 6.54476 14.3411 6.90351 14.3411ZM6.24726 10.4998C6.24726 10.1411 6.54476 9.84359 6.90351 9.84359H14.096C14.4635 9.84359 14.7522 10.1411 14.7522 10.4998C14.7522 10.8673 14.4635 11.1561 14.096 11.1561H6.90351C6.54476 11.1561 6.24726 10.8673 6.24726 10.4998ZM14.096 6.65859H6.90351C6.54476 6.65859 6.24726 6.36984 6.24726 6.00234C6.24726 5.64359 6.54476 5.34609 6.90351 5.34609H14.096C14.4635 5.34609 14.7522 5.64359 14.7522 6.00234C14.7522 6.36984 14.4635 6.65859 14.096 6.65859Z" fill="white"/>
</svg>
