<svg width="70" height="70" viewBox="0 0 105 105" fill="none" xmlns="http://www.w3.org/2000/svg">
<g filter="url(#filter0_d_2202_1286)">
<circle cx="52.0223" cy="48.0223" r="37.0223" fill="white"/>
</g>
<path d="M69.9239 41.3857L65.8533 54.2063C65.5489 55.1194 64.75 55.728 63.7989 55.728H48.087C47.1739 55.728 46.2989 55.1574 45.9946 54.3204L39.9837 38.228H36.5217C35.6848 38.228 35 37.5433 35 36.7063C35 35.8694 35.6848 35.1846 36.5217 35.1846H41.0489C41.6957 35.1846 42.2663 35.603 42.4946 36.2117L48.6957 52.6846H63.1522L66.3859 42.4128H48.4674C47.6304 42.4128 46.9457 41.728 46.9457 40.8911C46.9457 40.0541 47.6304 39.3694 48.4674 39.3694H68.4783C68.9728 39.3694 69.4293 39.6357 69.6957 40.0161C70 40.3965 70.0761 40.9291 69.9239 41.3857ZM48.8478 57.7444C48.2011 57.7444 47.5543 58.0107 47.0978 58.4672C46.6413 58.9237 46.375 59.5704 46.375 60.2172C46.375 60.8639 46.6413 61.5107 47.0978 61.9672C47.5543 62.4237 48.2011 62.69 48.8478 62.69C49.4946 62.69 50.1413 62.4237 50.5978 61.9672C51.0543 61.5107 51.3207 60.8639 51.3207 60.2172C51.3207 59.5704 51.0543 58.9237 50.5978 58.4672C50.1413 58.0107 49.4946 57.7444 48.8478 57.7444ZM62.5054 57.7444C61.8587 57.7444 61.212 58.0107 60.7554 58.4672C60.2989 58.9237 60.0326 59.5704 60.0326 60.2172C60.0326 60.8639 60.2989 61.5107 60.7554 61.9672C61.212 62.4237 61.8587 62.69 62.5054 62.69C63.1522 62.69 63.7989 62.4237 64.2554 61.9672C64.712 61.5107 64.9783 60.8639 64.9783 60.2172C64.9783 59.5704 64.712 58.9237 64.2554 58.4672C63.7989 58.0107 63.1522 57.7444 62.5054 57.7444Z" fill="black"/>
<defs>
<filter id="filter0_d_2202_1286" x="0" y="0" width="104.044" height="104.044" filterUnits="userSpaceOnUse" color-interpolation-filters="sRGB">
<feFlood flood-opacity="0" result="BackgroundImageFix"/>
<feColorMatrix in="SourceAlpha" type="matrix" values="0 0 0 0 0 0 0 0 0 0 0 0 0 0 0 0 0 0 127 0" result="hardAlpha"/>
<feOffset dy="4"/>
<feGaussianBlur stdDeviation="7.5"/>
<feComposite in2="hardAlpha" operator="out"/>
<feColorMatrix type="matrix" values="0 0 0 0 0 0 0 0 0 0 0 0 0 0 0 0 0 0 0.15 0"/>
<feBlend mode="normal" in2="BackgroundImageFix" result="effect1_dropShadow_2202_1286"/>
<feBlend mode="normal" in="SourceGraphic" in2="effect1_dropShadow_2202_1286" result="shape"/>
</filter>
</defs>
</svg>
