<svg width="620" height="327" viewBox="0 0 620 327" fill="none" xmlns="http://www.w3.org/2000/svg">
<path d="M47.8667 295.591C47.8667 294.444 48.0534 293.551 48.4267 292.911C48.8 292.264 49.4534 291.941 50.3867 291.941C51.3134 291.941 51.9634 292.264 52.3367 292.911C52.71 293.551 52.8967 294.444 52.8967 295.591C52.8967 296.758 52.71 297.664 52.3367 298.311C51.9634 298.958 51.3134 299.281 50.3867 299.281C49.4534 299.281 48.8 298.958 48.4267 298.311C48.0534 297.664 47.8667 296.758 47.8667 295.591ZM51.9967 295.591C51.9967 295.011 51.9567 294.521 51.8767 294.121C51.8034 293.714 51.6467 293.388 51.4067 293.141C51.1734 292.894 50.8334 292.771 50.3867 292.771C49.9334 292.771 49.5867 292.894 49.3467 293.141C49.1134 293.388 48.9567 293.714 48.8767 294.121C48.8034 294.521 48.7667 295.011 48.7667 295.591C48.7667 296.191 48.8034 296.694 48.8767 297.101C48.9567 297.508 49.1134 297.834 49.3467 298.081C49.5867 298.328 49.9334 298.451 50.3867 298.451C50.8334 298.451 51.1734 298.328 51.4067 298.081C51.6467 297.834 51.8034 297.508 51.8767 297.101C51.9567 296.694 51.9967 296.191 51.9967 295.591Z" fill="#010303" fill-opacity="0.87"/>
<path d="M42.123 221.898C42.1697 221.285 42.4063 220.805 42.833 220.458C43.2597 220.112 43.813 219.938 44.493 219.938C44.9463 219.938 45.3363 220.022 45.663 220.188C45.9963 220.348 46.2463 220.568 46.413 220.848C46.5863 221.128 46.673 221.445 46.673 221.798C46.673 222.212 46.553 222.568 46.313 222.868C46.0797 223.168 45.773 223.362 45.393 223.448V223.498C45.8263 223.605 46.1697 223.815 46.423 224.128C46.6763 224.442 46.803 224.852 46.803 225.358C46.803 225.738 46.7163 226.082 46.543 226.388C46.3697 226.688 46.1097 226.925 45.763 227.098C45.4163 227.272 44.9997 227.358 44.513 227.358C43.8063 227.358 43.2263 227.175 42.773 226.808C42.3197 226.435 42.0663 225.908 42.013 225.228H42.893C42.9397 225.628 43.103 225.955 43.383 226.208C43.663 226.462 44.0363 226.588 44.503 226.588C44.9697 226.588 45.323 226.468 45.563 226.228C45.8097 225.982 45.933 225.665 45.933 225.278C45.933 224.778 45.7663 224.418 45.433 224.198C45.0997 223.978 44.5963 223.868 43.923 223.868H43.693V223.108H43.933C44.5463 223.102 45.0097 223.002 45.323 222.808C45.6363 222.608 45.793 222.302 45.793 221.888C45.793 221.535 45.6763 221.252 45.443 221.038C45.2163 220.825 44.8897 220.718 44.463 220.718C44.0497 220.718 43.7163 220.825 43.463 221.038C43.2097 221.252 43.0597 221.538 43.013 221.898H42.123ZM48.0317 223.618C48.0317 222.472 48.2183 221.578 48.5917 220.938C48.965 220.292 49.6183 219.968 50.5517 219.968C51.4783 219.968 52.1283 220.292 52.5017 220.938C52.875 221.578 53.0617 222.472 53.0617 223.618C53.0617 224.785 52.875 225.692 52.5017 226.338C52.1283 226.985 51.4783 227.308 50.5517 227.308C49.6183 227.308 48.965 226.985 48.5917 226.338C48.2183 225.692 48.0317 224.785 48.0317 223.618ZM52.1617 223.618C52.1617 223.038 52.1217 222.548 52.0417 222.148C51.9683 221.742 51.8117 221.415 51.5717 221.168C51.3383 220.922 50.9983 220.798 50.5517 220.798C50.0983 220.798 49.7517 220.922 49.5117 221.168C49.2783 221.415 49.1217 221.742 49.0417 222.148C48.9683 222.548 48.9317 223.038 48.9317 223.618C48.9317 224.218 48.9683 224.722 49.0417 225.128C49.1217 225.535 49.2783 225.862 49.5117 226.108C49.7517 226.355 50.0983 226.478 50.5517 226.478C50.9983 226.478 51.3383 226.355 51.5717 226.108C51.8117 225.862 51.9683 225.535 52.0417 225.128C52.1217 224.722 52.1617 224.218 52.1617 223.618Z" fill="#010303" fill-opacity="0.87"/>
<path d="M45.714 149.826C45.5674 149.086 45.1107 148.716 44.344 148.716C43.7507 148.716 43.3074 148.946 43.014 149.406C42.7207 149.859 42.5774 150.609 42.584 151.656C42.7374 151.309 42.9907 151.039 43.344 150.846C43.704 150.646 44.104 150.546 44.544 150.546C45.2307 150.546 45.7774 150.759 46.184 151.186C46.5974 151.612 46.804 152.202 46.804 152.956C46.804 153.409 46.714 153.816 46.534 154.176C46.3607 154.536 46.094 154.822 45.734 155.036C45.3807 155.249 44.9507 155.356 44.444 155.356C43.7574 155.356 43.2207 155.202 42.834 154.896C42.4474 154.589 42.1774 154.166 42.024 153.626C41.8707 153.086 41.794 152.419 41.794 151.626C41.794 149.179 42.6474 147.956 44.354 147.956C45.0074 147.956 45.5207 148.132 45.894 148.486C46.2674 148.839 46.4874 149.286 46.554 149.826H45.714ZM44.354 151.316C44.0674 151.316 43.7974 151.376 43.544 151.496C43.2907 151.609 43.084 151.786 42.924 152.026C42.7707 152.259 42.694 152.546 42.694 152.886C42.694 153.392 42.8407 153.806 43.134 154.126C43.4274 154.439 43.8474 154.596 44.394 154.596C44.8607 154.596 45.2307 154.452 45.504 154.166C45.784 153.872 45.924 153.479 45.924 152.986C45.924 152.466 45.7907 152.059 45.524 151.766C45.2574 151.466 44.8674 151.316 44.354 151.316ZM48.0317 151.646C48.0317 150.499 48.2183 149.606 48.5917 148.966C48.965 148.319 49.6183 147.996 50.5517 147.996C51.4783 147.996 52.1283 148.319 52.5017 148.966C52.875 149.606 53.0617 150.499 53.0617 151.646C53.0617 152.812 52.875 153.719 52.5017 154.366C52.1283 155.012 51.4783 155.336 50.5517 155.336C49.6183 155.336 48.965 155.012 48.5917 154.366C48.2183 153.719 48.0317 152.812 48.0317 151.646ZM52.1617 151.646C52.1617 151.066 52.1217 150.576 52.0417 150.176C51.9683 149.769 51.8117 149.442 51.5717 149.196C51.3383 148.949 50.9983 148.826 50.5517 148.826C50.0983 148.826 49.7517 148.949 49.5117 149.196C49.2783 149.442 49.1217 149.769 49.0417 150.176C48.9683 150.576 48.9317 151.066 48.9317 151.646C48.9317 152.246 48.9683 152.749 49.0417 153.156C49.1217 153.562 49.2783 153.889 49.5117 154.136C49.7517 154.382 50.0983 154.506 50.5517 154.506C50.9983 154.506 51.3383 154.382 51.5717 154.136C51.8117 153.889 51.9683 153.562 52.0417 153.156C52.1217 152.749 52.1617 152.246 52.1617 151.646Z" fill="#010303" fill-opacity="0.87"/>
<path d="M42.9029 81.4229C42.9695 81.8029 43.1229 82.0962 43.3629 82.3029C43.6095 82.5096 43.9395 82.6129 44.3529 82.6129C44.9062 82.6129 45.3129 82.3962 45.5729 81.9629C45.8395 81.5296 45.9662 80.7996 45.9529 79.7729C45.8129 80.0729 45.5795 80.3096 45.2529 80.4829C44.9262 80.6496 44.5629 80.7329 44.1629 80.7329C43.7162 80.7329 43.3162 80.6429 42.9629 80.4629C42.6162 80.2762 42.3429 80.0062 42.1429 79.6529C41.9429 79.2996 41.8429 78.8729 41.8429 78.3729C41.8429 77.6596 42.0495 77.0862 42.4629 76.6529C42.8762 76.2129 43.4629 75.9929 44.2229 75.9929C45.1562 75.9929 45.8095 76.2962 46.1829 76.9029C46.5629 77.5096 46.7529 78.4129 46.7529 79.6129C46.7529 80.4529 46.6762 81.1462 46.5229 81.6929C46.3762 82.2396 46.1229 82.6562 45.7629 82.9429C45.4095 83.2296 44.9229 83.3729 44.3029 83.3729C43.6229 83.3729 43.0929 83.1896 42.7129 82.8229C42.3329 82.4562 42.1162 81.9896 42.0629 81.4229H42.9029ZM44.3129 79.9629C44.7595 79.9629 45.1262 79.8262 45.4129 79.5529C45.6995 79.2729 45.8429 78.8962 45.8429 78.4229C45.8429 77.9229 45.7029 77.5196 45.4229 77.2129C45.1429 76.9062 44.7495 76.7529 44.2429 76.7529C43.7762 76.7529 43.4029 76.8996 43.1229 77.1929C42.8495 77.4862 42.7129 77.8729 42.7129 78.3529C42.7129 78.8396 42.8495 79.2296 43.1229 79.5229C43.3962 79.8162 43.7929 79.9629 44.3129 79.9629ZM48.0317 79.6729C48.0317 78.5262 48.2183 77.6329 48.5917 76.9929C48.965 76.3462 49.6183 76.0229 50.5517 76.0229C51.4783 76.0229 52.1283 76.3462 52.5017 76.9929C52.875 77.6329 53.0617 78.5262 53.0617 79.6729C53.0617 80.8396 52.875 81.7462 52.5017 82.3929C52.1283 83.0396 51.4783 83.3629 50.5517 83.3629C49.6183 83.3629 48.965 83.0396 48.5917 82.3929C48.2183 81.7462 48.0317 80.8396 48.0317 79.6729ZM52.1617 79.6729C52.1617 79.0929 52.1217 78.6029 52.0417 78.2029C51.9683 77.7962 51.8117 77.4696 51.5717 77.2229C51.3383 76.9762 50.9983 76.8529 50.5517 76.8529C50.0983 76.8529 49.7517 76.9762 49.5117 77.2229C49.2783 77.4696 49.1217 77.7962 49.0417 78.2029C48.9683 78.6029 48.9317 79.0929 48.9317 79.6729C48.9317 80.2729 48.9683 80.7762 49.0417 81.1829C49.1217 81.5896 49.2783 81.9162 49.5117 82.1629C49.7517 82.4096 50.0983 82.5329 50.5517 82.5329C50.9983 82.5329 51.3383 82.4096 51.5717 82.1629C51.8117 81.9162 51.9683 81.5896 52.0417 81.1829C52.1217 80.7762 52.1617 80.2729 52.1617 79.6729Z" fill="#010303" fill-opacity="0.87"/>
<path d="M39.0021 4.99014V4.16014H40.8821V11.3901H39.9621V4.99014H39.0021ZM42.3353 10.6601C43.1819 9.98014 43.8453 9.42347 44.3253 8.99014C44.8053 8.55014 45.2086 8.09347 45.5353 7.62014C45.8686 7.14014 46.0353 6.67014 46.0353 6.21014C46.0353 5.7768 45.9286 5.4368 45.7153 5.19014C45.5086 4.9368 45.1719 4.81014 44.7053 4.81014C44.2519 4.81014 43.8986 4.95347 43.6453 5.24014C43.3986 5.52014 43.2653 5.8968 43.2453 6.37014H42.3653C42.3919 5.62347 42.6186 5.0468 43.0453 4.64014C43.4719 4.23347 44.0219 4.03014 44.6953 4.03014C45.3819 4.03014 45.9253 4.22014 46.3253 4.60014C46.7319 4.98014 46.9353 5.50347 46.9353 6.17014C46.9353 6.72347 46.7686 7.26347 46.4353 7.79014C46.1086 8.31014 45.7353 8.77014 45.3153 9.17014C44.8953 9.56347 44.3586 10.0235 43.7053 10.5501H47.1453V11.3101H42.3353V10.6601ZM48.1972 7.70014C48.1972 6.55347 48.3839 5.66014 48.7572 5.02014C49.1305 4.37347 49.7839 4.05014 50.7172 4.05014C51.6439 4.05014 52.2939 4.37347 52.6672 5.02014C53.0405 5.66014 53.2272 6.55347 53.2272 7.70014C53.2272 8.8668 53.0405 9.77347 52.6672 10.4201C52.2939 11.0668 51.6439 11.3901 50.7172 11.3901C49.7839 11.3901 49.1305 11.0668 48.7572 10.4201C48.3839 9.77347 48.1972 8.8668 48.1972 7.70014ZM52.3272 7.70014C52.3272 7.12014 52.2872 6.63014 52.2072 6.23014C52.1339 5.82347 51.9772 5.4968 51.7372 5.25014C51.5039 5.00347 51.1639 4.88014 50.7172 4.88014C50.2639 4.88014 49.9172 5.00347 49.6772 5.25014C49.4439 5.4968 49.2872 5.82347 49.2072 6.23014C49.1339 6.63014 49.0972 7.12014 49.0972 7.70014C49.0972 8.30014 49.1339 8.80347 49.2072 9.21014C49.2872 9.6168 49.4439 9.94347 49.6772 10.1901C49.9172 10.4368 50.2639 10.5601 50.7172 10.5601C51.1639 10.5601 51.5039 10.4368 51.7372 10.1901C51.9772 9.94347 52.1339 9.6168 52.2072 9.21014C52.2872 8.80347 52.3272 8.30014 52.3272 7.70014Z" fill="#010303" fill-opacity="0.87"/>
<path d="M59.3594 315.925V322.845H58.4494V317.685L56.1494 322.845H55.5094L53.1994 317.675V322.845H52.2894V315.925H53.2694L55.8294 321.645L58.3894 315.925H59.3594ZM63.2927 322.935C62.7794 322.935 62.3127 322.819 61.8927 322.585C61.4794 322.352 61.1527 322.022 60.9127 321.595C60.6794 321.162 60.5627 320.662 60.5627 320.095C60.5627 319.535 60.6827 319.042 60.9227 318.615C61.1694 318.182 61.5027 317.852 61.9227 317.625C62.3427 317.392 62.8127 317.275 63.3327 317.275C63.8527 317.275 64.3227 317.392 64.7427 317.625C65.1627 317.852 65.4927 318.179 65.7327 318.605C65.9794 319.032 66.1027 319.529 66.1027 320.095C66.1027 320.662 65.976 321.162 65.7227 321.595C65.476 322.022 65.1394 322.352 64.7127 322.585C64.286 322.819 63.8127 322.935 63.2927 322.935ZM63.2927 322.135C63.6194 322.135 63.926 322.059 64.2127 321.905C64.4994 321.752 64.7294 321.522 64.9027 321.215C65.0827 320.909 65.1727 320.535 65.1727 320.095C65.1727 319.655 65.086 319.282 64.9127 318.975C64.7394 318.669 64.5127 318.442 64.2327 318.295C63.9527 318.142 63.6494 318.065 63.3227 318.065C62.9894 318.065 62.6827 318.142 62.4027 318.295C62.1294 318.442 61.9094 318.669 61.7427 318.975C61.576 319.282 61.4927 319.655 61.4927 320.095C61.4927 320.542 61.5727 320.919 61.7327 321.225C61.8994 321.532 62.1194 321.762 62.3927 321.915C62.666 322.062 62.966 322.135 63.2927 322.135ZM69.9692 317.265C70.6358 317.265 71.1758 317.469 71.5892 317.875C72.0025 318.275 72.2092 318.855 72.2092 319.615V322.845H71.3092V319.745C71.3092 319.199 71.1725 318.782 70.8992 318.495C70.6258 318.202 70.2525 318.055 69.7792 318.055C69.2992 318.055 68.9158 318.205 68.6292 318.505C68.3492 318.805 68.2092 319.242 68.2092 319.815V322.845H67.2992V317.365H68.2092V318.145C68.3892 317.865 68.6325 317.649 68.9392 317.495C69.2525 317.342 69.5958 317.265 69.9692 317.265ZM73.3557 320.085C73.3557 319.525 73.469 319.035 73.6957 318.615C73.9223 318.189 74.2323 317.859 74.6257 317.625C75.0257 317.392 75.4723 317.275 75.9657 317.275C76.3923 317.275 76.789 317.375 77.1557 317.575C77.5223 317.769 77.8023 318.025 77.9957 318.345V315.445H78.9157V322.845H77.9957V321.815C77.8157 322.142 77.549 322.412 77.1957 322.625C76.8423 322.832 76.429 322.935 75.9557 322.935C75.469 322.935 75.0257 322.815 74.6257 322.575C74.2323 322.335 73.9223 321.999 73.6957 321.565C73.469 321.132 73.3557 320.639 73.3557 320.085ZM77.9957 320.095C77.9957 319.682 77.9123 319.322 77.7457 319.015C77.579 318.709 77.3523 318.475 77.0657 318.315C76.7857 318.149 76.4757 318.065 76.1357 318.065C75.7957 318.065 75.4857 318.145 75.2057 318.305C74.9257 318.465 74.7023 318.699 74.5357 319.005C74.369 319.312 74.2857 319.672 74.2857 320.085C74.2857 320.505 74.369 320.872 74.5357 321.185C74.7023 321.492 74.9257 321.729 75.2057 321.895C75.4857 322.055 75.7957 322.135 76.1357 322.135C76.4757 322.135 76.7857 322.055 77.0657 321.895C77.3523 321.729 77.579 321.492 77.7457 321.185C77.9123 320.872 77.9957 320.509 77.9957 320.095ZM80.1135 320.085C80.1135 319.525 80.2268 319.035 80.4535 318.615C80.6801 318.189 80.9901 317.859 81.3835 317.625C81.7835 317.392 82.2268 317.275 82.7135 317.275C83.1935 317.275 83.6101 317.379 83.9635 317.585C84.3168 317.792 84.5801 318.052 84.7535 318.365V317.365H85.6735V322.845H84.7535V321.825C84.5735 322.145 84.3035 322.412 83.9435 322.625C83.5901 322.832 83.1768 322.935 82.7035 322.935C82.2168 322.935 81.7768 322.815 81.3835 322.575C80.9901 322.335 80.6801 321.999 80.4535 321.565C80.2268 321.132 80.1135 320.639 80.1135 320.085ZM84.7535 320.095C84.7535 319.682 84.6701 319.322 84.5035 319.015C84.3368 318.709 84.1101 318.475 83.8235 318.315C83.5435 318.149 83.2335 318.065 82.8935 318.065C82.5535 318.065 82.2435 318.145 81.9635 318.305C81.6835 318.465 81.4601 318.699 81.2935 319.005C81.1268 319.312 81.0435 319.672 81.0435 320.085C81.0435 320.505 81.1268 320.872 81.2935 321.185C81.4601 321.492 81.6835 321.729 81.9635 321.895C82.2435 322.055 82.5535 322.135 82.8935 322.135C83.2335 322.135 83.5435 322.055 83.8235 321.895C84.1101 321.729 84.3368 321.492 84.5035 321.185C84.6701 320.872 84.7535 320.509 84.7535 320.095ZM91.9313 317.365L88.6313 325.425H87.6913L88.7713 322.785L86.5613 317.365H87.5713L89.2913 321.805L90.9913 317.365H91.9313Z" fill="#010303" fill-opacity="0.87"/>
<path d="M141.658 315.875V316.615H139.758V322.845H138.848V316.615H136.938V315.875H141.658ZM147.638 317.365V322.845H146.728V322.035C146.555 322.315 146.312 322.535 145.998 322.695C145.692 322.849 145.352 322.925 144.978 322.925C144.552 322.925 144.168 322.839 143.828 322.665C143.488 322.485 143.218 322.219 143.018 321.865C142.825 321.512 142.728 321.082 142.728 320.575V317.365H143.628V320.455C143.628 320.995 143.765 321.412 144.038 321.705C144.312 321.992 144.685 322.135 145.158 322.135C145.645 322.135 146.028 321.985 146.308 321.685C146.588 321.385 146.728 320.949 146.728 320.375V317.365H147.638ZM154.175 319.895C154.175 320.069 154.165 320.252 154.145 320.445H149.765C149.798 320.985 149.982 321.409 150.315 321.715C150.655 322.015 151.065 322.165 151.545 322.165C151.938 322.165 152.265 322.075 152.525 321.895C152.792 321.709 152.978 321.462 153.085 321.155H154.065C153.918 321.682 153.625 322.112 153.185 322.445C152.745 322.772 152.198 322.935 151.545 322.935C151.025 322.935 150.558 322.819 150.145 322.585C149.738 322.352 149.418 322.022 149.185 321.595C148.952 321.162 148.835 320.662 148.835 320.095C148.835 319.529 148.948 319.032 149.175 318.605C149.402 318.179 149.718 317.852 150.125 317.625C150.538 317.392 151.012 317.275 151.545 317.275C152.065 317.275 152.525 317.389 152.925 317.615C153.325 317.842 153.632 318.155 153.845 318.555C154.065 318.949 154.175 319.395 154.175 319.895ZM153.235 319.705C153.235 319.359 153.158 319.062 153.005 318.815C152.852 318.562 152.642 318.372 152.375 318.245C152.115 318.112 151.825 318.045 151.505 318.045C151.045 318.045 150.652 318.192 150.325 318.485C150.005 318.779 149.822 319.185 149.775 319.705H153.235ZM157.316 322.935C156.896 322.935 156.519 322.865 156.186 322.725C155.853 322.579 155.589 322.379 155.396 322.125C155.203 321.865 155.096 321.569 155.076 321.235H156.016C156.043 321.509 156.169 321.732 156.396 321.905C156.629 322.079 156.933 322.165 157.306 322.165C157.653 322.165 157.926 322.089 158.126 321.935C158.326 321.782 158.426 321.589 158.426 321.355C158.426 321.115 158.319 320.939 158.106 320.825C157.893 320.705 157.563 320.589 157.116 320.475C156.709 320.369 156.376 320.262 156.116 320.155C155.863 320.042 155.643 319.879 155.456 319.665C155.276 319.445 155.186 319.159 155.186 318.805C155.186 318.525 155.269 318.269 155.436 318.035C155.603 317.802 155.839 317.619 156.146 317.485C156.453 317.345 156.803 317.275 157.196 317.275C157.803 317.275 158.293 317.429 158.666 317.735C159.039 318.042 159.239 318.462 159.266 318.995H158.356C158.336 318.709 158.219 318.479 158.006 318.305C157.799 318.132 157.519 318.045 157.166 318.045C156.839 318.045 156.579 318.115 156.386 318.255C156.193 318.395 156.096 318.579 156.096 318.805C156.096 318.985 156.153 319.135 156.266 319.255C156.386 319.369 156.533 319.462 156.706 319.535C156.886 319.602 157.133 319.679 157.446 319.765C157.839 319.872 158.159 319.979 158.406 320.085C158.653 320.185 158.863 320.339 159.036 320.545C159.216 320.752 159.309 321.022 159.316 321.355C159.316 321.655 159.233 321.925 159.066 322.165C158.899 322.405 158.663 322.595 158.356 322.735C158.056 322.869 157.709 322.935 157.316 322.935ZM160.261 320.085C160.261 319.525 160.374 319.035 160.601 318.615C160.827 318.189 161.137 317.859 161.531 317.625C161.931 317.392 162.377 317.275 162.871 317.275C163.297 317.275 163.694 317.375 164.061 317.575C164.427 317.769 164.707 318.025 164.901 318.345V315.445H165.821V322.845H164.901V321.815C164.721 322.142 164.454 322.412 164.101 322.625C163.747 322.832 163.334 322.935 162.861 322.935C162.374 322.935 161.931 322.815 161.531 322.575C161.137 322.335 160.827 321.999 160.601 321.565C160.374 321.132 160.261 320.639 160.261 320.085ZM164.901 320.095C164.901 319.682 164.817 319.322 164.651 319.015C164.484 318.709 164.257 318.475 163.971 318.315C163.691 318.149 163.381 318.065 163.041 318.065C162.701 318.065 162.391 318.145 162.111 318.305C161.831 318.465 161.607 318.699 161.441 319.005C161.274 319.312 161.191 319.672 161.191 320.085C161.191 320.505 161.274 320.872 161.441 321.185C161.607 321.492 161.831 321.729 162.111 321.895C162.391 322.055 162.701 322.135 163.041 322.135C163.381 322.135 163.691 322.055 163.971 321.895C164.257 321.729 164.484 321.492 164.651 321.185C164.817 320.872 164.901 320.509 164.901 320.095ZM167.018 320.085C167.018 319.525 167.132 319.035 167.358 318.615C167.585 318.189 167.895 317.859 168.288 317.625C168.688 317.392 169.132 317.275 169.618 317.275C170.098 317.275 170.515 317.379 170.868 317.585C171.222 317.792 171.485 318.052 171.658 318.365V317.365H172.578V322.845H171.658V321.825C171.478 322.145 171.208 322.412 170.848 322.625C170.495 322.832 170.082 322.935 169.608 322.935C169.122 322.935 168.682 322.815 168.288 322.575C167.895 322.335 167.585 321.999 167.358 321.565C167.132 321.132 167.018 320.639 167.018 320.085ZM171.658 320.095C171.658 319.682 171.575 319.322 171.408 319.015C171.242 318.709 171.015 318.475 170.728 318.315C170.448 318.149 170.138 318.065 169.798 318.065C169.458 318.065 169.148 318.145 168.868 318.305C168.588 318.465 168.365 318.699 168.198 319.005C168.032 319.312 167.948 319.672 167.948 320.085C167.948 320.505 168.032 320.872 168.198 321.185C168.365 321.492 168.588 321.729 168.868 321.895C169.148 322.055 169.458 322.135 169.798 322.135C170.138 322.135 170.448 322.055 170.728 321.895C171.015 321.729 171.242 321.492 171.408 321.185C171.575 320.872 171.658 320.509 171.658 320.095ZM178.836 317.365L175.536 325.425H174.596L175.676 322.785L173.466 317.365H174.476L176.196 321.805L177.896 317.365H178.836Z" fill="#010303" fill-opacity="0.87"/>
<path d="M225.595 315.875L223.575 322.845H222.555L220.935 317.235L219.255 322.845L218.245 322.855L216.295 315.875H217.265L218.785 321.785L220.465 315.875H221.485L223.085 321.765L224.615 315.875H225.595ZM231.591 319.895C231.591 320.069 231.581 320.252 231.561 320.445H227.181C227.214 320.985 227.397 321.409 227.731 321.715C228.071 322.015 228.481 322.165 228.961 322.165C229.354 322.165 229.681 322.075 229.941 321.895C230.207 321.709 230.394 321.462 230.501 321.155H231.481C231.334 321.682 231.041 322.112 230.601 322.445C230.161 322.772 229.614 322.935 228.961 322.935C228.441 322.935 227.974 322.819 227.561 322.585C227.154 322.352 226.834 322.022 226.601 321.595C226.367 321.162 226.251 320.662 226.251 320.095C226.251 319.529 226.364 319.032 226.591 318.605C226.817 318.179 227.134 317.852 227.541 317.625C227.954 317.392 228.427 317.275 228.961 317.275C229.481 317.275 229.941 317.389 230.341 317.615C230.741 317.842 231.047 318.155 231.261 318.555C231.481 318.949 231.591 319.395 231.591 319.895ZM230.651 319.705C230.651 319.359 230.574 319.062 230.421 318.815C230.267 318.562 230.057 318.372 229.791 318.245C229.531 318.112 229.241 318.045 228.921 318.045C228.461 318.045 228.067 318.192 227.741 318.485C227.421 318.779 227.237 319.185 227.191 319.705H230.651ZM232.452 320.085C232.452 319.525 232.565 319.035 232.792 318.615C233.019 318.189 233.329 317.859 233.722 317.625C234.122 317.392 234.569 317.275 235.062 317.275C235.489 317.275 235.885 317.375 236.252 317.575C236.619 317.769 236.899 318.025 237.092 318.345V315.445H238.012V322.845H237.092V321.815C236.912 322.142 236.645 322.412 236.292 322.625C235.939 322.832 235.525 322.935 235.052 322.935C234.565 322.935 234.122 322.815 233.722 322.575C233.329 322.335 233.019 321.999 232.792 321.565C232.565 321.132 232.452 320.639 232.452 320.085ZM237.092 320.095C237.092 319.682 237.009 319.322 236.842 319.015C236.675 318.709 236.449 318.475 236.162 318.315C235.882 318.149 235.572 318.065 235.232 318.065C234.892 318.065 234.582 318.145 234.302 318.305C234.022 318.465 233.799 318.699 233.632 319.005C233.465 319.312 233.382 319.672 233.382 320.085C233.382 320.505 233.465 320.872 233.632 321.185C233.799 321.492 234.022 321.729 234.302 321.895C234.582 322.055 234.892 322.135 235.232 322.135C235.572 322.135 235.882 322.055 236.162 321.895C236.449 321.729 236.675 321.492 236.842 321.185C237.009 320.872 237.092 320.509 237.092 320.095ZM242.22 317.265C242.886 317.265 243.426 317.469 243.84 317.875C244.253 318.275 244.46 318.855 244.46 319.615V322.845H243.56V319.745C243.56 319.199 243.423 318.782 243.15 318.495C242.876 318.202 242.503 318.055 242.03 318.055C241.55 318.055 241.166 318.205 240.88 318.505C240.6 318.805 240.46 319.242 240.46 319.815V322.845H239.55V317.365H240.46V318.145C240.64 317.865 240.883 317.649 241.19 317.495C241.503 317.342 241.846 317.265 242.22 317.265ZM250.946 319.895C250.946 320.069 250.936 320.252 250.916 320.445H246.536C246.57 320.985 246.753 321.409 247.086 321.715C247.426 322.015 247.836 322.165 248.316 322.165C248.71 322.165 249.036 322.075 249.296 321.895C249.563 321.709 249.75 321.462 249.856 321.155H250.836C250.69 321.682 250.396 322.112 249.956 322.445C249.516 322.772 248.97 322.935 248.316 322.935C247.796 322.935 247.33 322.819 246.916 322.585C246.51 322.352 246.19 322.022 245.956 321.595C245.723 321.162 245.606 320.662 245.606 320.095C245.606 319.529 245.72 319.032 245.946 318.605C246.173 318.179 246.49 317.852 246.896 317.625C247.31 317.392 247.783 317.275 248.316 317.275C248.836 317.275 249.296 317.389 249.696 317.615C250.096 317.842 250.403 318.155 250.616 318.555C250.836 318.949 250.946 319.395 250.946 319.895ZM250.006 319.705C250.006 319.359 249.93 319.062 249.776 318.815C249.623 318.562 249.413 318.372 249.146 318.245C248.886 318.112 248.596 318.045 248.276 318.045C247.816 318.045 247.423 318.192 247.096 318.485C246.776 318.779 246.593 319.185 246.546 319.705H250.006ZM254.087 322.935C253.667 322.935 253.291 322.865 252.957 322.725C252.624 322.579 252.361 322.379 252.167 322.125C251.974 321.865 251.867 321.569 251.847 321.235H252.787C252.814 321.509 252.941 321.732 253.167 321.905C253.401 322.079 253.704 322.165 254.077 322.165C254.424 322.165 254.697 322.089 254.897 321.935C255.097 321.782 255.197 321.589 255.197 321.355C255.197 321.115 255.091 320.939 254.877 320.825C254.664 320.705 254.334 320.589 253.887 320.475C253.481 320.369 253.147 320.262 252.887 320.155C252.634 320.042 252.414 319.879 252.227 319.665C252.047 319.445 251.957 319.159 251.957 318.805C251.957 318.525 252.041 318.269 252.207 318.035C252.374 317.802 252.611 317.619 252.917 317.485C253.224 317.345 253.574 317.275 253.967 317.275C254.574 317.275 255.064 317.429 255.437 317.735C255.811 318.042 256.011 318.462 256.037 318.995H255.127C255.107 318.709 254.991 318.479 254.777 318.305C254.571 318.132 254.291 318.045 253.937 318.045C253.611 318.045 253.351 318.115 253.157 318.255C252.964 318.395 252.867 318.579 252.867 318.805C252.867 318.985 252.924 319.135 253.037 319.255C253.157 319.369 253.304 319.462 253.477 319.535C253.657 319.602 253.904 319.679 254.217 319.765C254.611 319.872 254.931 319.979 255.177 320.085C255.424 320.185 255.634 320.339 255.807 320.545C255.987 320.752 256.081 321.022 256.087 321.355C256.087 321.655 256.004 321.925 255.837 322.165C255.671 322.405 255.434 322.595 255.127 322.735C254.827 322.869 254.481 322.935 254.087 322.935ZM257.032 320.085C257.032 319.525 257.145 319.035 257.372 318.615C257.599 318.189 257.909 317.859 258.302 317.625C258.702 317.392 259.149 317.275 259.642 317.275C260.069 317.275 260.465 317.375 260.832 317.575C261.199 317.769 261.479 318.025 261.672 318.345V315.445H262.592V322.845H261.672V321.815C261.492 322.142 261.225 322.412 260.872 322.625C260.519 322.832 260.105 322.935 259.632 322.935C259.145 322.935 258.702 322.815 258.302 322.575C257.909 322.335 257.599 321.999 257.372 321.565C257.145 321.132 257.032 320.639 257.032 320.085ZM261.672 320.095C261.672 319.682 261.589 319.322 261.422 319.015C261.255 318.709 261.029 318.475 260.742 318.315C260.462 318.149 260.152 318.065 259.812 318.065C259.472 318.065 259.162 318.145 258.882 318.305C258.602 318.465 258.379 318.699 258.212 319.005C258.045 319.312 257.962 319.672 257.962 320.085C257.962 320.505 258.045 320.872 258.212 321.185C258.379 321.492 258.602 321.729 258.882 321.895C259.162 322.055 259.472 322.135 259.812 322.135C260.152 322.135 260.462 322.055 260.742 321.895C261.029 321.729 261.255 321.492 261.422 321.185C261.589 320.872 261.672 320.509 261.672 320.095ZM263.79 320.085C263.79 319.525 263.903 319.035 264.13 318.615C264.357 318.189 264.667 317.859 265.06 317.625C265.46 317.392 265.903 317.275 266.39 317.275C266.87 317.275 267.287 317.379 267.64 317.585C267.993 317.792 268.257 318.052 268.43 318.365V317.365H269.35V322.845H268.43V321.825C268.25 322.145 267.98 322.412 267.62 322.625C267.267 322.832 266.853 322.935 266.38 322.935C265.893 322.935 265.453 322.815 265.06 322.575C264.667 322.335 264.357 321.999 264.13 321.565C263.903 321.132 263.79 320.639 263.79 320.085ZM268.43 320.095C268.43 319.682 268.347 319.322 268.18 319.015C268.013 318.709 267.787 318.475 267.5 318.315C267.22 318.149 266.91 318.065 266.57 318.065C266.23 318.065 265.92 318.145 265.64 318.305C265.36 318.465 265.137 318.699 264.97 319.005C264.803 319.312 264.72 319.672 264.72 320.085C264.72 320.505 264.803 320.872 264.97 321.185C265.137 321.492 265.36 321.729 265.64 321.895C265.92 322.055 266.23 322.135 266.57 322.135C266.91 322.135 267.22 322.055 267.5 321.895C267.787 321.729 268.013 321.492 268.18 321.185C268.347 320.872 268.43 320.509 268.43 320.095ZM275.608 317.365L272.308 325.425H271.368L272.448 322.785L270.238 317.365H271.248L272.968 321.805L274.668 317.365H275.608Z" fill="#010303" fill-opacity="0.87"/>
<path d="M314.33 315.875V316.615H312.43V322.845H311.52V316.615H309.61V315.875H314.33ZM318.171 317.265C318.584 317.265 318.957 317.355 319.291 317.535C319.624 317.709 319.884 317.972 320.071 318.325C320.264 318.679 320.361 319.109 320.361 319.615V322.845H319.461V319.745C319.461 319.199 319.324 318.782 319.051 318.495C318.777 318.202 318.404 318.055 317.931 318.055C317.451 318.055 317.067 318.205 316.781 318.505C316.501 318.805 316.361 319.242 316.361 319.815V322.845H315.451V315.445H316.361V318.145C316.541 317.865 316.787 317.649 317.101 317.495C317.421 317.342 317.777 317.265 318.171 317.265ZM326.707 317.365V322.845H325.797V322.035C325.624 322.315 325.38 322.535 325.067 322.695C324.76 322.849 324.42 322.925 324.047 322.925C323.62 322.925 323.237 322.839 322.897 322.665C322.557 322.485 322.287 322.219 322.087 321.865C321.894 321.512 321.797 321.082 321.797 320.575V317.365H322.697V320.455C322.697 320.995 322.834 321.412 323.107 321.705C323.38 321.992 323.754 322.135 324.227 322.135C324.714 322.135 325.097 321.985 325.377 321.685C325.657 321.385 325.797 320.949 325.797 320.375V317.365H326.707ZM329.154 318.255C329.314 317.942 329.54 317.699 329.834 317.525C330.134 317.352 330.497 317.265 330.924 317.265V318.205H330.684C329.664 318.205 329.154 318.759 329.154 319.865V322.845H328.244V317.365H329.154V318.255ZM333.914 322.935C333.494 322.935 333.117 322.865 332.784 322.725C332.451 322.579 332.187 322.379 331.994 322.125C331.801 321.865 331.694 321.569 331.674 321.235H332.614C332.641 321.509 332.767 321.732 332.994 321.905C333.227 322.079 333.531 322.165 333.904 322.165C334.251 322.165 334.524 322.089 334.724 321.935C334.924 321.782 335.024 321.589 335.024 321.355C335.024 321.115 334.917 320.939 334.704 320.825C334.491 320.705 334.161 320.589 333.714 320.475C333.307 320.369 332.974 320.262 332.714 320.155C332.461 320.042 332.241 319.879 332.054 319.665C331.874 319.445 331.784 319.159 331.784 318.805C331.784 318.525 331.867 318.269 332.034 318.035C332.201 317.802 332.437 317.619 332.744 317.485C333.051 317.345 333.401 317.275 333.794 317.275C334.401 317.275 334.891 317.429 335.264 317.735C335.637 318.042 335.837 318.462 335.864 318.995H334.954C334.934 318.709 334.817 318.479 334.604 318.305C334.397 318.132 334.117 318.045 333.764 318.045C333.437 318.045 333.177 318.115 332.984 318.255C332.791 318.395 332.694 318.579 332.694 318.805C332.694 318.985 332.751 319.135 332.864 319.255C332.984 319.369 333.131 319.462 333.304 319.535C333.484 319.602 333.731 319.679 334.044 319.765C334.437 319.872 334.757 319.979 335.004 320.085C335.251 320.185 335.461 320.339 335.634 320.545C335.814 320.752 335.907 321.022 335.914 321.355C335.914 321.655 335.831 321.925 335.664 322.165C335.497 322.405 335.261 322.595 334.954 322.735C334.654 322.869 334.307 322.935 333.914 322.935ZM336.859 320.085C336.859 319.525 336.972 319.035 337.199 318.615C337.425 318.189 337.735 317.859 338.129 317.625C338.529 317.392 338.975 317.275 339.469 317.275C339.895 317.275 340.292 317.375 340.659 317.575C341.025 317.769 341.305 318.025 341.499 318.345V315.445H342.419V322.845H341.499V321.815C341.319 322.142 341.052 322.412 340.699 322.625C340.345 322.832 339.932 322.935 339.459 322.935C338.972 322.935 338.529 322.815 338.129 322.575C337.735 322.335 337.425 321.999 337.199 321.565C336.972 321.132 336.859 320.639 336.859 320.085ZM341.499 320.095C341.499 319.682 341.415 319.322 341.249 319.015C341.082 318.709 340.855 318.475 340.569 318.315C340.289 318.149 339.979 318.065 339.639 318.065C339.299 318.065 338.989 318.145 338.709 318.305C338.429 318.465 338.205 318.699 338.039 319.005C337.872 319.312 337.789 319.672 337.789 320.085C337.789 320.505 337.872 320.872 338.039 321.185C338.205 321.492 338.429 321.729 338.709 321.895C338.989 322.055 339.299 322.135 339.639 322.135C339.979 322.135 340.289 322.055 340.569 321.895C340.855 321.729 341.082 321.492 341.249 321.185C341.415 320.872 341.499 320.509 341.499 320.095ZM343.616 320.085C343.616 319.525 343.73 319.035 343.956 318.615C344.183 318.189 344.493 317.859 344.886 317.625C345.286 317.392 345.73 317.275 346.216 317.275C346.696 317.275 347.113 317.379 347.466 317.585C347.82 317.792 348.083 318.052 348.256 318.365V317.365H349.176V322.845H348.256V321.825C348.076 322.145 347.806 322.412 347.446 322.625C347.093 322.832 346.68 322.935 346.206 322.935C345.72 322.935 345.28 322.815 344.886 322.575C344.493 322.335 344.183 321.999 343.956 321.565C343.73 321.132 343.616 320.639 343.616 320.085ZM348.256 320.095C348.256 319.682 348.173 319.322 348.006 319.015C347.84 318.709 347.613 318.475 347.326 318.315C347.046 318.149 346.736 318.065 346.396 318.065C346.056 318.065 345.746 318.145 345.466 318.305C345.186 318.465 344.963 318.699 344.796 319.005C344.63 319.312 344.546 319.672 344.546 320.085C344.546 320.505 344.63 320.872 344.796 321.185C344.963 321.492 345.186 321.729 345.466 321.895C345.746 322.055 346.056 322.135 346.396 322.135C346.736 322.135 347.046 322.055 347.326 321.895C347.613 321.729 347.84 321.492 348.006 321.185C348.173 320.872 348.256 320.509 348.256 320.095ZM355.434 317.365L352.134 325.425H351.194L352.274 322.785L350.064 317.365H351.074L352.794 321.805L354.494 317.365H355.434Z" fill="#010303" fill-opacity="0.87"/>
<path d="M408.82 315.875V316.615H405.79V318.965H408.25V319.705H405.79V322.845H404.88V315.875H408.82ZM410.829 318.255C410.989 317.942 411.215 317.699 411.509 317.525C411.809 317.352 412.172 317.265 412.599 317.265V318.205H412.359C411.339 318.205 410.829 318.759 410.829 319.865V322.845H409.919V317.365H410.829V318.255ZM414.119 316.475C413.946 316.475 413.799 316.415 413.679 316.295C413.559 316.175 413.499 316.029 413.499 315.855C413.499 315.682 413.559 315.535 413.679 315.415C413.799 315.295 413.946 315.235 414.119 315.235C414.286 315.235 414.426 315.295 414.539 315.415C414.659 315.535 414.719 315.682 414.719 315.855C414.719 316.029 414.659 316.175 414.539 316.295C414.426 316.415 414.286 316.475 414.119 316.475ZM414.559 317.365V322.845H413.649V317.365H414.559ZM415.77 320.085C415.77 319.525 415.884 319.035 416.11 318.615C416.337 318.189 416.647 317.859 417.04 317.625C417.44 317.392 417.887 317.275 418.38 317.275C418.807 317.275 419.204 317.375 419.57 317.575C419.937 317.769 420.217 318.025 420.41 318.345V315.445H421.33V322.845H420.41V321.815C420.23 322.142 419.964 322.412 419.61 322.625C419.257 322.832 418.844 322.935 418.37 322.935C417.884 322.935 417.44 322.815 417.04 322.575C416.647 322.335 416.337 321.999 416.11 321.565C415.884 321.132 415.77 320.639 415.77 320.085ZM420.41 320.095C420.41 319.682 420.327 319.322 420.16 319.015C419.994 318.709 419.767 318.475 419.48 318.315C419.2 318.149 418.89 318.065 418.55 318.065C418.21 318.065 417.9 318.145 417.62 318.305C417.34 318.465 417.117 318.699 416.95 319.005C416.784 319.312 416.7 319.672 416.7 320.085C416.7 320.505 416.784 320.872 416.95 321.185C417.117 321.492 417.34 321.729 417.62 321.895C417.9 322.055 418.21 322.135 418.55 322.135C418.89 322.135 419.2 322.055 419.48 321.895C419.767 321.729 419.994 321.492 420.16 321.185C420.327 320.872 420.41 320.509 420.41 320.095ZM422.528 320.085C422.528 319.525 422.641 319.035 422.868 318.615C423.095 318.189 423.405 317.859 423.798 317.625C424.198 317.392 424.641 317.275 425.128 317.275C425.608 317.275 426.025 317.379 426.378 317.585C426.731 317.792 426.995 318.052 427.168 318.365V317.365H428.088V322.845H427.168V321.825C426.988 322.145 426.718 322.412 426.358 322.625C426.005 322.832 425.591 322.935 425.118 322.935C424.631 322.935 424.191 322.815 423.798 322.575C423.405 322.335 423.095 321.999 422.868 321.565C422.641 321.132 422.528 320.639 422.528 320.085ZM427.168 320.095C427.168 319.682 427.085 319.322 426.918 319.015C426.751 318.709 426.525 318.475 426.238 318.315C425.958 318.149 425.648 318.065 425.308 318.065C424.968 318.065 424.658 318.145 424.378 318.305C424.098 318.465 423.875 318.699 423.708 319.005C423.541 319.312 423.458 319.672 423.458 320.085C423.458 320.505 423.541 320.872 423.708 321.185C423.875 321.492 424.098 321.729 424.378 321.895C424.658 322.055 424.968 322.135 425.308 322.135C425.648 322.135 425.958 322.055 426.238 321.895C426.525 321.729 426.751 321.492 426.918 321.185C427.085 320.872 427.168 320.509 427.168 320.095ZM434.346 317.365L431.046 325.425H430.106L431.186 322.785L428.976 317.365H429.986L431.706 321.805L433.406 317.365H434.346Z" fill="#010303" fill-opacity="0.87"/>
<path d="M486.383 322.915C485.923 322.915 485.509 322.835 485.143 322.675C484.783 322.509 484.499 322.282 484.293 321.995C484.086 321.702 483.979 321.365 483.973 320.985H484.943C484.976 321.312 485.109 321.589 485.343 321.815C485.583 322.035 485.929 322.145 486.383 322.145C486.816 322.145 487.156 322.039 487.403 321.825C487.656 321.605 487.783 321.325 487.783 320.985C487.783 320.719 487.709 320.502 487.563 320.335C487.416 320.169 487.233 320.042 487.013 319.955C486.793 319.869 486.496 319.775 486.123 319.675C485.663 319.555 485.293 319.435 485.013 319.315C484.739 319.195 484.503 319.009 484.303 318.755C484.109 318.495 484.013 318.149 484.013 317.715C484.013 317.335 484.109 316.999 484.303 316.705C484.496 316.412 484.766 316.185 485.113 316.025C485.466 315.865 485.869 315.785 486.323 315.785C486.976 315.785 487.509 315.949 487.923 316.275C488.343 316.602 488.579 317.035 488.633 317.575H487.633C487.599 317.309 487.459 317.075 487.213 316.875C486.966 316.669 486.639 316.565 486.233 316.565C485.853 316.565 485.543 316.665 485.303 316.865C485.063 317.059 484.943 317.332 484.943 317.685C484.943 317.939 485.013 318.145 485.153 318.305C485.299 318.465 485.476 318.589 485.683 318.675C485.896 318.755 486.193 318.849 486.573 318.955C487.033 319.082 487.403 319.209 487.683 319.335C487.963 319.455 488.203 319.645 488.403 319.905C488.603 320.159 488.703 320.505 488.703 320.945C488.703 321.285 488.613 321.605 488.433 321.905C488.253 322.205 487.986 322.449 487.633 322.635C487.279 322.822 486.863 322.915 486.383 322.915ZM489.702 320.085C489.702 319.525 489.815 319.035 490.042 318.615C490.268 318.189 490.578 317.859 490.972 317.625C491.372 317.392 491.815 317.275 492.302 317.275C492.782 317.275 493.198 317.379 493.552 317.585C493.905 317.792 494.168 318.052 494.342 318.365V317.365H495.262V322.845H494.342V321.825C494.162 322.145 493.892 322.412 493.532 322.625C493.178 322.832 492.765 322.935 492.292 322.935C491.805 322.935 491.365 322.815 490.972 322.575C490.578 322.335 490.268 321.999 490.042 321.565C489.815 321.132 489.702 320.639 489.702 320.085ZM494.342 320.095C494.342 319.682 494.258 319.322 494.092 319.015C493.925 318.709 493.698 318.475 493.412 318.315C493.132 318.149 492.822 318.065 492.482 318.065C492.142 318.065 491.832 318.145 491.552 318.305C491.272 318.465 491.048 318.699 490.882 319.005C490.715 319.312 490.632 319.672 490.632 320.085C490.632 320.505 490.715 320.872 490.882 321.185C491.048 321.492 491.272 321.729 491.552 321.895C491.832 322.055 492.142 322.135 492.482 322.135C492.822 322.135 493.132 322.055 493.412 321.895C493.698 321.729 493.925 321.492 494.092 321.185C494.258 320.872 494.342 320.509 494.342 320.095ZM497.909 318.115V321.345C497.909 321.612 497.966 321.802 498.079 321.915C498.193 322.022 498.389 322.075 498.669 322.075H499.339V322.845H498.519C498.013 322.845 497.633 322.729 497.379 322.495C497.126 322.262 496.999 321.879 496.999 321.345V318.115H496.289V317.365H496.999V315.985H497.909V317.365H499.339V318.115H497.909ZM505.302 317.365V322.845H504.392V322.035C504.219 322.315 503.975 322.535 503.662 322.695C503.355 322.849 503.015 322.925 502.642 322.925C502.215 322.925 501.832 322.839 501.492 322.665C501.152 322.485 500.882 322.219 500.682 321.865C500.489 321.512 500.392 321.082 500.392 320.575V317.365H501.292V320.455C501.292 320.995 501.429 321.412 501.702 321.705C501.975 321.992 502.349 322.135 502.822 322.135C503.309 322.135 503.692 321.985 503.972 321.685C504.252 321.385 504.392 320.949 504.392 320.375V317.365H505.302ZM507.749 318.255C507.909 317.942 508.135 317.699 508.429 317.525C508.729 317.352 509.092 317.265 509.519 317.265V318.205H509.279C508.259 318.205 507.749 318.759 507.749 319.865V322.845H506.839V317.365H507.749V318.255ZM510.229 320.085C510.229 319.525 510.342 319.035 510.569 318.615C510.796 318.189 511.106 317.859 511.499 317.625C511.899 317.392 512.346 317.275 512.839 317.275C513.266 317.275 513.662 317.375 514.029 317.575C514.396 317.769 514.676 318.025 514.869 318.345V315.445H515.789V322.845H514.869V321.815C514.689 322.142 514.422 322.412 514.069 322.625C513.716 322.832 513.302 322.935 512.829 322.935C512.342 322.935 511.899 322.815 511.499 322.575C511.106 322.335 510.796 321.999 510.569 321.565C510.342 321.132 510.229 320.639 510.229 320.085ZM514.869 320.095C514.869 319.682 514.786 319.322 514.619 319.015C514.452 318.709 514.226 318.475 513.939 318.315C513.659 318.149 513.349 318.065 513.009 318.065C512.669 318.065 512.359 318.145 512.079 318.305C511.799 318.465 511.576 318.699 511.409 319.005C511.242 319.312 511.159 319.672 511.159 320.085C511.159 320.505 511.242 320.872 511.409 321.185C511.576 321.492 511.799 321.729 512.079 321.895C512.359 322.055 512.669 322.135 513.009 322.135C513.349 322.135 513.659 322.055 513.939 321.895C514.226 321.729 514.452 321.492 514.619 321.185C514.786 320.872 514.869 320.509 514.869 320.095ZM516.987 320.085C516.987 319.525 517.1 319.035 517.327 318.615C517.553 318.189 517.863 317.859 518.257 317.625C518.657 317.392 519.1 317.275 519.587 317.275C520.067 317.275 520.483 317.379 520.837 317.585C521.19 317.792 521.453 318.052 521.627 318.365V317.365H522.547V322.845H521.627V321.825C521.447 322.145 521.177 322.412 520.817 322.625C520.463 322.832 520.05 322.935 519.577 322.935C519.09 322.935 518.65 322.815 518.257 322.575C517.863 322.335 517.553 321.999 517.327 321.565C517.1 321.132 516.987 320.639 516.987 320.085ZM521.627 320.095C521.627 319.682 521.543 319.322 521.377 319.015C521.21 318.709 520.983 318.475 520.697 318.315C520.417 318.149 520.107 318.065 519.767 318.065C519.427 318.065 519.117 318.145 518.837 318.305C518.557 318.465 518.333 318.699 518.167 319.005C518 319.312 517.917 319.672 517.917 320.085C517.917 320.505 518 320.872 518.167 321.185C518.333 321.492 518.557 321.729 518.837 321.895C519.117 322.055 519.427 322.135 519.767 322.135C520.107 322.135 520.417 322.055 520.697 321.895C520.983 321.729 521.21 321.492 521.377 321.185C521.543 320.872 521.627 320.509 521.627 320.095ZM528.805 317.365L525.505 325.425H524.565L525.645 322.785L523.435 317.365H524.445L526.165 321.805L527.865 317.365H528.805Z" fill="#010303" fill-opacity="0.87"/>
<path d="M577.126 322.915C576.666 322.915 576.252 322.835 575.886 322.675C575.526 322.509 575.242 322.282 575.036 321.995C574.829 321.702 574.722 321.365 574.716 320.985H575.686C575.719 321.312 575.852 321.589 576.086 321.815C576.326 322.035 576.672 322.145 577.126 322.145C577.559 322.145 577.899 322.039 578.146 321.825C578.399 321.605 578.526 321.325 578.526 320.985C578.526 320.719 578.452 320.502 578.306 320.335C578.159 320.169 577.976 320.042 577.756 319.955C577.536 319.869 577.239 319.775 576.866 319.675C576.406 319.555 576.036 319.435 575.756 319.315C575.482 319.195 575.246 319.009 575.046 318.755C574.852 318.495 574.756 318.149 574.756 317.715C574.756 317.335 574.852 316.999 575.046 316.705C575.239 316.412 575.509 316.185 575.856 316.025C576.209 315.865 576.612 315.785 577.066 315.785C577.719 315.785 578.252 315.949 578.666 316.275C579.086 316.602 579.322 317.035 579.376 317.575H578.376C578.342 317.309 578.202 317.075 577.956 316.875C577.709 316.669 577.382 316.565 576.976 316.565C576.596 316.565 576.286 316.665 576.046 316.865C575.806 317.059 575.686 317.332 575.686 317.685C575.686 317.939 575.756 318.145 575.896 318.305C576.042 318.465 576.219 318.589 576.426 318.675C576.639 318.755 576.936 318.849 577.316 318.955C577.776 319.082 578.146 319.209 578.426 319.335C578.706 319.455 578.946 319.645 579.146 319.905C579.346 320.159 579.446 320.505 579.446 320.945C579.446 321.285 579.356 321.605 579.176 321.905C578.996 322.205 578.729 322.449 578.376 322.635C578.022 322.822 577.606 322.915 577.126 322.915ZM585.645 317.365V322.845H584.735V322.035C584.562 322.315 584.318 322.535 584.005 322.695C583.698 322.849 583.358 322.925 582.985 322.925C582.558 322.925 582.175 322.839 581.835 322.665C581.495 322.485 581.225 322.219 581.025 321.865C580.832 321.512 580.735 321.082 580.735 320.575V317.365H581.635V320.455C581.635 320.995 581.772 321.412 582.045 321.705C582.318 321.992 582.692 322.135 583.165 322.135C583.652 322.135 584.035 321.985 584.315 321.685C584.595 321.385 584.735 320.949 584.735 320.375V317.365H585.645ZM589.851 317.265C590.518 317.265 591.058 317.469 591.471 317.875C591.885 318.275 592.091 318.855 592.091 319.615V322.845H591.191V319.745C591.191 319.199 591.055 318.782 590.781 318.495C590.508 318.202 590.135 318.055 589.661 318.055C589.181 318.055 588.798 318.205 588.511 318.505C588.231 318.805 588.091 319.242 588.091 319.815V322.845H587.181V317.365H588.091V318.145C588.271 317.865 588.515 317.649 588.821 317.495C589.135 317.342 589.478 317.265 589.851 317.265ZM593.238 320.085C593.238 319.525 593.351 319.035 593.578 318.615C593.805 318.189 594.115 317.859 594.508 317.625C594.908 317.392 595.355 317.275 595.848 317.275C596.275 317.275 596.671 317.375 597.038 317.575C597.405 317.769 597.685 318.025 597.878 318.345V315.445H598.798V322.845H597.878V321.815C597.698 322.142 597.431 322.412 597.078 322.625C596.725 322.832 596.311 322.935 595.838 322.935C595.351 322.935 594.908 322.815 594.508 322.575C594.115 322.335 593.805 321.999 593.578 321.565C593.351 321.132 593.238 320.639 593.238 320.085ZM597.878 320.095C597.878 319.682 597.795 319.322 597.628 319.015C597.461 318.709 597.235 318.475 596.948 318.315C596.668 318.149 596.358 318.065 596.018 318.065C595.678 318.065 595.368 318.145 595.088 318.305C594.808 318.465 594.585 318.699 594.418 319.005C594.251 319.312 594.168 319.672 594.168 320.085C594.168 320.505 594.251 320.872 594.418 321.185C594.585 321.492 594.808 321.729 595.088 321.895C595.368 322.055 595.678 322.135 596.018 322.135C596.358 322.135 596.668 322.055 596.948 321.895C597.235 321.729 597.461 321.492 597.628 321.185C597.795 320.872 597.878 320.509 597.878 320.095ZM599.996 320.085C599.996 319.525 600.109 319.035 600.336 318.615C600.562 318.189 600.872 317.859 601.266 317.625C601.666 317.392 602.109 317.275 602.596 317.275C603.076 317.275 603.492 317.379 603.846 317.585C604.199 317.792 604.462 318.052 604.636 318.365V317.365H605.556V322.845H604.636V321.825C604.456 322.145 604.186 322.412 603.826 322.625C603.472 322.832 603.059 322.935 602.586 322.935C602.099 322.935 601.659 322.815 601.266 322.575C600.872 322.335 600.562 321.999 600.336 321.565C600.109 321.132 599.996 320.639 599.996 320.085ZM604.636 320.095C604.636 319.682 604.552 319.322 604.386 319.015C604.219 318.709 603.992 318.475 603.706 318.315C603.426 318.149 603.116 318.065 602.776 318.065C602.436 318.065 602.126 318.145 601.846 318.305C601.566 318.465 601.342 318.699 601.176 319.005C601.009 319.312 600.926 319.672 600.926 320.085C600.926 320.505 601.009 320.872 601.176 321.185C601.342 321.492 601.566 321.729 601.846 321.895C602.126 322.055 602.436 322.135 602.776 322.135C603.116 322.135 603.426 322.055 603.706 321.895C603.992 321.729 604.219 321.492 604.386 321.185C604.552 320.872 604.636 320.509 604.636 320.095ZM611.814 317.365L608.514 325.425H607.574L608.654 322.785L606.444 317.365H607.454L609.174 321.805L610.874 317.365H611.814Z" fill="#010303" fill-opacity="0.87"/>
<path opacity="0.2" fill-rule="evenodd" clip-rule="evenodd" d="M71.7971 223.478C115.088 223.478 115.382 247.599 158.673 247.599C201.963 247.599 202.258 199.358 245.549 199.358C288.839 199.358 289.134 151.116 332.424 151.116C375.715 151.116 376.009 163.177 419.3 163.177C462.591 163.177 462.885 223.478 506.176 223.478C549.466 223.478 549.761 175.237 593.052 175.237V295.84H71.7971V223.478Z" fill="#7F5AF0"/>
<path d="M71.7971 223.478C115.088 223.478 115.382 247.599 158.673 247.599C201.963 247.599 202.258 199.358 245.549 199.358C288.839 199.358 289.134 151.116 332.424 151.116C375.715 151.116 376.009 163.177 419.3 163.177C462.591 163.177 462.885 223.478 506.176 223.478C549.466 223.478 549.761 175.237 593.052 175.237" stroke="#7F5AF0" stroke-width="2" stroke-linejoin="round"/>
<path d="M71.7972 228.368C74.666 228.368 77.2146 226.294 77.2146 223.478C77.2146 220.661 74.666 218.587 71.7972 218.587C68.9284 218.587 66.3798 220.661 66.3798 223.478C66.3798 226.294 68.9284 228.368 71.7972 228.368Z" fill="#7F5AF0" stroke="#7F5AF0" stroke-width="2"/>
<path d="M158.673 252.489C161.542 252.489 164.09 250.415 164.09 247.599C164.09 244.782 161.542 242.708 158.673 242.708C155.804 242.708 153.255 244.782 153.255 247.599C153.255 250.415 155.804 252.489 158.673 252.489Z" fill="#7F5AF0" stroke="#7F5AF0" stroke-width="2"/>
<path d="M245.549 204.248C248.417 204.248 250.966 202.174 250.966 199.357C250.966 196.541 248.417 194.467 245.549 194.467C242.68 194.467 240.131 196.541 240.131 199.357C240.131 202.174 242.68 204.248 245.549 204.248Z" fill="#7F5AF0" stroke="#7F5AF0" stroke-width="2"/>
<path d="M332.424 156.007C335.293 156.007 337.842 153.933 337.842 151.117C337.842 148.3 335.293 146.226 332.424 146.226C329.556 146.226 327.007 148.3 327.007 151.117C327.007 153.933 329.556 156.007 332.424 156.007Z" fill="#7F5AF0" stroke="#7F5AF0" stroke-width="2"/>
<path d="M419.3 168.067C422.169 168.067 424.718 165.993 424.718 163.177C424.718 160.36 422.169 158.286 419.3 158.286C416.431 158.286 413.883 160.36 413.883 163.177C413.883 165.993 416.431 168.067 419.3 168.067Z" fill="#7F5AF0" stroke="#7F5AF0" stroke-width="2"/>
<path d="M506.176 228.369C509.045 228.369 511.594 226.295 511.594 223.478C511.594 220.662 509.045 218.588 506.176 218.588C503.308 218.588 500.759 220.662 500.759 223.478C500.759 226.295 503.308 228.369 506.176 228.369Z" fill="#7F5AF0" stroke="#7F5AF0" stroke-width="2"/>
<path d="M593.051 180.127C595.92 180.127 598.469 178.053 598.469 175.237C598.469 172.42 595.92 170.347 593.051 170.347C590.182 170.347 587.634 172.42 587.634 175.237C587.634 178.053 590.182 180.127 593.051 180.127Z" fill="#7F5AF0" stroke="#7F5AF0" stroke-width="2"/>
<path d="M3.83726 164.516L13.5253 164.516L13.5253 165.79L6.30126 165.79L13.5253 169.01L13.5253 169.906L6.28727 173.14L13.5253 173.14L13.5253 174.414L3.83727 174.414L3.83727 173.042L11.8453 169.458L3.83726 165.874L3.83726 164.516ZM4.60726 161.697C4.60726 161.94 4.52326 162.145 4.35526 162.313C4.18726 162.481 3.98193 162.565 3.73926 162.565C3.4966 162.565 3.29126 162.481 3.12326 162.313C2.95526 162.145 2.87126 161.94 2.87126 161.697C2.87126 161.464 2.95526 161.268 3.12326 161.109C3.29126 160.941 3.4966 160.857 3.73926 160.857C3.98193 160.857 4.18726 160.941 4.35526 161.109C4.52326 161.268 4.60726 161.464 4.60726 161.697ZM5.85326 161.081L13.5253 161.081L13.5253 162.355L5.85326 162.355L5.85326 161.081ZM5.71326 155.172C5.71326 154.239 5.99793 153.483 6.56726 152.904C7.12726 152.325 7.93926 152.036 9.00326 152.036L13.5253 152.036L13.5253 153.296L9.18526 153.296C8.41993 153.296 7.8366 153.487 7.43526 153.87C7.0246 154.253 6.81926 154.775 6.81926 155.438C6.81926 156.11 7.02926 156.647 7.44926 157.048C7.86926 157.44 8.4806 157.636 9.28326 157.636L13.5253 157.636L13.5253 158.91L5.85326 158.91L5.85326 157.636L6.94526 157.636C6.55326 157.384 6.24993 157.043 6.03526 156.614C5.8206 156.175 5.71326 155.695 5.71326 155.172Z" fill="#010303" fill-opacity="0.87"/>
</svg>
