<svg width="47" height="44" viewBox="0 0 47 44" fill="none" xmlns="http://www.w3.org/2000/svg">
<ellipse cx="23.0852" cy="22" rx="23.0852" ry="22" fill="#F3F6FB"/>
<path d="M20.1 12.4001C19.4 12.2001 18.6 12.1001 17.9 12.1001C17.4 12.1001 17 12.2001 16.6 12.6001C16.3 12.9001 16.1 13.4001 16.1 13.9001V14.2001H15.8C14.3 14.2001 13 15.4001 13 17.0001V27.3001C13 28.8001 14.3 30.1001 15.8 30.1001H23.2V14.2001C22.3 13.4001 21.2 12.8001 20.1 12.4001ZM15.8 28.6001C15.1 28.6001 14.5 28.0001 14.5 27.3001V17.0001C14.5 16.3001 15.1 15.7001 15.8 15.7001H16.1V25.3001C16.1 26.3001 16.9 27.0001 17.8 27.1001C18.5 27.1001 19.1 27.3001 19.7 27.5001C20.4 27.8001 21 28.2001 21.4 28.6001H15.8ZM30.2 14.2001H24.2V30.1001H30.2C31.7 30.1001 33 28.8001 33 27.3001V17.0001C33 15.4001 31.7 14.2001 30.2 14.2001ZM29.2 27.0001H26.1C25.7 27.0001 25.3 26.7001 25.3 26.2001C25.3 25.8001 25.6 25.4001 26.1 25.4001H29.2C29.6 25.4001 30 25.7001 30 26.2001C29.9 26.7001 29.6 27.0001 29.2 27.0001ZM29.2 22.9001H26.1C25.7 22.9001 25.3 22.6001 25.3 22.1001C25.3 21.7001 25.6 21.3001 26.1 21.3001H29.2C29.6 21.3001 30 21.6001 30 22.1001C29.9 22.5001 29.6 22.9001 29.2 22.9001ZM29.2 18.7001H26.1C25.7 18.7001 25.3 18.4001 25.3 17.9001C25.3 17.5001 25.6 17.1001 26.1 17.1001H29.2C29.6 17.1001 30 17.4001 30 17.9001C29.9 18.4001 29.6 18.7001 29.2 18.7001Z" fill="black"/>
</svg>
