<svg width="35" height="35" viewBox="0 0 35 35" fill="none" xmlns="http://www.w3.org/2000/svg">
<path d="M17.5013 4.01044C12.12 4.01044 7.73047 8.40002 7.73047 13.7813C7.73047 20.4604 16.4805 30.2896 16.8451 30.6979C17.1951 31.0917 17.8075 31.0917 18.1575 30.6979C18.5367 30.2896 27.2721 20.4604 27.2721 13.7813C27.2721 8.40002 22.8825 4.01044 17.5013 4.01044Z" stroke="white" stroke-width="2.5" stroke-linecap="round" stroke-linejoin="round"/>
<path d="M18.0606 17.1868C19.9457 16.8867 21.2307 15.1152 20.9306 13.2301C20.6306 11.3449 18.8591 10.0599 16.9739 10.36C15.0888 10.6601 13.8038 12.4315 14.1039 14.3167C14.4039 16.2019 16.1754 17.4869 18.0606 17.1868Z" stroke="white" stroke-width="2.5" stroke-linecap="round" stroke-linejoin="round"/>
</svg>
