<svg width="40" height="40" viewBox="0 0 40 40" fill="none" xmlns="http://www.w3.org/2000/svg">
<circle cx="20" cy="20" r="20" fill="#BA68C8"/>
<path d="M25.5037 16.25H22.5V13.75C22.5 12.46 22.605 11.6475 24.4537 11.6475H25.5387C26.2287 11.6475 26.7887 11.0875 26.7887 10.3975V8.82999C26.7887 8.17624 26.2875 7.61749 25.635 7.57374C24.88 7.52249 24.1237 7.49874 23.3663 7.49999C19.975 7.49999 17.5 9.57124 17.5 13.3737V16.25H15C14.31 16.25 13.75 16.81 13.75 17.5V20C13.75 20.69 14.31 21.25 15 21.25L17.5 21.2487V31.25C17.5 31.94 18.06 32.5 18.75 32.5H21.25C21.94 32.5 22.5 31.94 22.5 31.25V21.2462L25.2175 21.245C25.8525 21.245 26.3862 20.7687 26.4587 20.1375L26.745 17.6425C26.8313 16.9012 26.2513 16.25 25.5037 16.25Z" fill="white"/>
</svg>
