<svg width="30" height="30" viewBox="0 0 30 30" fill="none" xmlns="http://www.w3.org/2000/svg">
<path d="M24.4407 3.74636C24.1258 3.76101 23.8291 3.85256 23.5655 3.9551H23.5618C23.2945 4.0613 22.0237 4.59597 20.0938 5.4053C18.1639 6.21829 15.659 7.27297 13.1724 8.32034C8.20657 10.4114 3.32498 12.4695 3.32498 12.4695L3.38358 12.4475C3.38358 12.4475 3.04666 12.5574 2.6951 12.7991C2.51566 12.9163 2.3179 13.0774 2.14578 13.3301C1.97366 13.5828 1.8345 13.971 1.88577 14.3701C1.97 15.0476 2.40945 15.4541 2.7244 15.6775C3.043 15.9046 3.34695 16.0108 3.34695 16.0108H3.35428L7.93192 17.5525C8.13699 18.2117 9.32718 22.1228 9.61282 23.0237C9.78128 23.562 9.94608 23.899 10.1512 24.1553C10.25 24.2871 10.3672 24.397 10.5064 24.4849C10.5613 24.5178 10.6199 24.5435 10.6785 24.5655C10.6968 24.5764 10.7151 24.5801 10.7371 24.5838L10.6895 24.5728C10.7041 24.5764 10.7151 24.5874 10.7261 24.5911C10.7627 24.6021 10.7884 24.6057 10.836 24.6131C11.5611 24.8328 12.1433 24.3823 12.1433 24.3823L12.1763 24.3567L14.8789 21.8958L19.409 25.3711L19.5115 25.4151C20.4563 25.8289 21.4121 25.5982 21.9175 25.1917C22.4265 24.7815 22.6243 24.2578 22.6243 24.2578L22.6573 24.1736L26.1582 6.24026C26.2571 5.79714 26.2827 5.38333 26.1729 4.98049C26.063 4.57766 25.781 4.20046 25.4405 3.99905C25.0962 3.79397 24.7556 3.73171 24.4407 3.74636ZM24.3455 5.66897C24.3418 5.72756 24.3528 5.72024 24.3272 5.83376V5.84475L20.8592 23.5913C20.8445 23.617 20.8189 23.6719 20.7493 23.7268C20.6761 23.7854 20.6175 23.822 20.3135 23.7012L14.7727 19.4531L11.4256 22.5037L12.1287 18.0139C12.1287 18.0139 20.8079 9.92434 21.1814 9.57644C21.555 9.22854 21.4305 9.1553 21.4305 9.1553C21.4561 8.73049 20.8665 9.03079 20.8665 9.03079L9.45169 16.1023L9.44803 16.084L3.97684 14.242V14.2383C3.97317 14.2383 3.96585 14.2346 3.96219 14.2346C3.96585 14.2346 3.99149 14.2237 3.99149 14.2237L4.02078 14.209L4.05008 14.198C4.05008 14.198 8.93533 12.1399 13.9012 10.0489C16.3877 9.00149 18.8926 7.9468 20.8189 7.13381C22.7451 6.32449 24.1697 5.73123 24.2503 5.69827C24.3272 5.66897 24.2906 5.66897 24.3455 5.66897Z" fill="white"/>
</svg>
