<svg width="60" height="60" viewBox="0 0 60 60" fill="none" xmlns="http://www.w3.org/2000/svg">
<circle cx="30" cy="30" r="30" fill="black"/>
<path d="M31.0625 18.6667V20.0834C31.0625 20.6642 30.5808 21.1459 30 21.1459C29.4192 21.1459 28.9375 20.6642 28.9375 20.0834V18.6667C28.9375 18.0859 29.4192 17.6042 30 17.6042C30.5808 17.6042 31.0625 18.0859 31.0625 18.6667Z" fill="white"/>
<path d="M23.7384 23.7385C23.54 23.951 23.2567 24.0502 22.9875 24.0502C22.7184 24.0502 22.4492 23.951 22.2367 23.7385L21.2309 22.7326C20.82 22.3218 20.82 21.656 21.2309 21.231C21.6559 20.8201 22.3217 20.8201 22.7325 21.231L23.7384 22.2368C24.1492 22.6477 24.1492 23.3276 23.7384 23.7385Z" fill="white"/>
<path d="M21.1458 30C21.1458 30.5808 20.6641 31.0625 20.0833 31.0625H18.6666C18.0858 31.0625 17.6041 30.5808 17.6041 30C17.6041 29.4192 18.0858 28.9375 18.6666 28.9375H20.0833C20.6641 28.9375 21.1458 29.4192 21.1458 30Z" fill="white"/>
<path d="M23.7384 37.7634L22.7325 38.7692C22.5342 38.9676 22.265 39.0809 21.9817 39.0809C21.7125 39.0809 21.4434 38.9676 21.2309 38.7692C20.82 38.3442 20.82 37.6784 21.2309 37.2676L22.2367 36.2617C22.6475 35.8509 23.3275 35.8509 23.7384 36.2617C24.1492 36.6726 24.1492 37.3526 23.7384 37.7634Z" fill="white"/>
<path d="M31.0625 39.9167V41.3334C31.0625 41.9142 30.5808 42.3959 30 42.3959C29.4192 42.3959 28.9375 41.9142 28.9375 41.3334V39.9167C28.9375 39.3359 29.4192 38.8542 30 38.8542C30.5808 38.8542 31.0625 39.3359 31.0625 39.9167Z" fill="white"/>
<path d="M38.7692 38.7692C38.5567 38.9676 38.2876 39.0809 38.0184 39.0809C37.7492 39.0809 37.4659 38.9676 37.2676 38.7692L36.2617 37.7634C35.8509 37.3526 35.8509 36.6726 36.2617 36.2617C36.6726 35.8509 37.3526 35.8509 37.7634 36.2617L38.7692 37.2676C39.1801 37.6784 39.1801 38.3442 38.7692 38.7692Z" fill="white"/>
<path d="M42.3959 30C42.3959 30.5808 41.9142 31.0625 41.3334 31.0625H39.9167C39.3359 31.0625 38.8542 30.5808 38.8542 30C38.8542 29.4192 39.3359 28.9375 39.9167 28.9375H41.3334C41.9142 28.9375 42.3959 29.4192 42.3959 30Z" fill="white"/>
<path d="M38.7692 22.7326L37.7634 23.7385C37.5509 23.951 37.2817 24.0502 37.0126 24.0502C36.7434 24.0502 36.4742 23.951 36.2617 23.7385C35.8509 23.3276 35.8509 22.6477 36.2617 22.2368L37.2676 21.231C37.6784 20.8201 38.3584 20.8201 38.7692 21.231C39.1801 21.656 39.1801 22.3218 38.7692 22.7326Z" fill="white"/>
<path d="M21.1458 30C21.1458 30.5808 20.6641 31.0625 20.0833 31.0625H18.6666C18.0858 31.0625 17.6041 30.5808 17.6041 30C17.6041 29.4192 18.0858 28.9375 18.6666 28.9375H20.0833C20.6641 28.9375 21.1458 29.4192 21.1458 30Z" fill="white"/>
<path d="M23.7384 36.2617C24.1492 36.6726 24.1492 37.3526 23.7384 37.7634L22.7325 38.7692C22.5342 38.9676 22.265 39.0809 21.9817 39.0809C21.7125 39.0809 21.4434 38.9676 21.2309 38.7692C20.82 38.3442 20.82 37.6784 21.2309 37.2676L22.2367 36.2617C22.6475 35.8509 23.3275 35.8509 23.7384 36.2617Z" fill="white"/>
<path d="M23.7384 22.2368C24.1492 22.6477 24.1492 23.3276 23.7384 23.7385C23.54 23.951 23.2567 24.0502 22.9875 24.0502C22.7184 24.0502 22.4492 23.951 22.2367 23.7385L21.2309 22.7326C20.82 22.3218 20.82 21.656 21.2309 21.231C21.6559 20.8201 22.3217 20.8201 22.7325 21.231L23.7384 22.2368Z" fill="white"/>
<path d="M28.9375 20.0834V18.6667C28.9375 18.0859 29.4192 17.6042 30 17.6042C30.5808 17.6042 31.0625 18.0859 31.0625 18.6667V20.0834C31.0625 20.6642 30.5808 21.1459 30 21.1459C29.4192 21.1459 28.9375 20.6642 28.9375 20.0834Z" fill="white"/>
<path d="M31.0625 39.9167V41.3334C31.0625 41.9142 30.5808 42.3959 30 42.3959C29.4192 42.3959 28.9375 41.9142 28.9375 41.3334V39.9167C28.9375 39.3359 29.4192 38.8542 30 38.8542C30.5808 38.8542 31.0625 39.3359 31.0625 39.9167Z" fill="white"/>
<path d="M30 35.3125C32.934 35.3125 35.3125 32.934 35.3125 30C35.3125 27.066 32.934 24.6875 30 24.6875C27.066 24.6875 24.6875 27.066 24.6875 30C24.6875 32.934 27.066 35.3125 30 35.3125Z" fill="white"/>
<path d="M38.7692 37.2676C39.1801 37.6784 39.1801 38.3442 38.7692 38.7692C38.5567 38.9676 38.2876 39.0809 38.0184 39.0809C37.7492 39.0809 37.4659 38.9676 37.2676 38.7692L36.2617 37.7634C35.8509 37.3526 35.8509 36.6726 36.2617 36.2617C36.6726 35.8509 37.3526 35.8509 37.7634 36.2617L38.7692 37.2676Z" fill="white"/>
<path d="M36.2617 23.7385C35.8509 23.3276 35.8509 22.6477 36.2617 22.2368L37.2676 21.231C37.6784 20.8201 38.3584 20.8201 38.7692 21.231C39.1801 21.656 39.1801 22.3218 38.7692 22.7326L37.7634 23.7385C37.5509 23.951 37.2817 24.0502 37.0126 24.0502C36.7434 24.0502 36.4742 23.951 36.2617 23.7385Z" fill="white"/>
<path d="M42.3959 30C42.3959 30.5808 41.9142 31.0625 41.3334 31.0625H39.9167C39.3359 31.0625 38.8542 30.5808 38.8542 30C38.8542 29.4192 39.3359 28.9375 39.9167 28.9375H41.3334C41.9142 28.9375 42.3959 29.4192 42.3959 30Z" fill="white"/>
</svg>
