<svg width="122" height="122" viewBox="0 0 122 122" fill="none" xmlns="http://www.w3.org/2000/svg">
<path d="M1 16C1 7.71573 7.71573 1 16 1H121V121H1V16Z" stroke="#EDEFF2" stroke-width="2"/>
<path d="M31.2013 86.624C32.0813 86.624 32.8533 86.796 33.5173 87.14C34.1893 87.484 34.7053 87.976 35.0653 88.616C35.4333 89.248 35.6173 89.984 35.6173 90.824C35.6173 91.664 35.4333 92.4 35.0653 93.032C34.7053 93.656 34.1893 94.14 33.5173 94.484C32.8533 94.828 32.0813 95 31.2013 95H28.2733V86.624H31.2013ZM31.1413 93.572C32.0213 93.572 32.7013 93.332 33.1813 92.852C33.6613 92.372 33.9013 91.696 33.9013 90.824C33.9013 89.952 33.6613 89.272 33.1813 88.784C32.7013 88.288 32.0213 88.04 31.1413 88.04H29.9533V93.572H31.1413ZM36.4429 91.652C36.4429 90.98 36.5749 90.384 36.8389 89.864C37.1109 89.344 37.4749 88.944 37.9309 88.664C38.3949 88.384 38.9109 88.244 39.4789 88.244C39.9749 88.244 40.4069 88.344 40.7749 88.544C41.1509 88.744 41.4509 88.996 41.6749 89.3V88.352H43.3669V95H41.6749V94.028C41.4589 94.34 41.1589 94.6 40.7749 94.808C40.3989 95.008 39.9629 95.108 39.4669 95.108C38.9069 95.108 38.3949 94.964 37.9309 94.676C37.4749 94.388 37.1109 93.984 36.8389 93.464C36.5749 92.936 36.4429 92.332 36.4429 91.652ZM41.6749 91.676C41.6749 91.268 41.5949 90.92 41.4349 90.632C41.2749 90.336 41.0589 90.112 40.7869 89.96C40.5149 89.8 40.2229 89.72 39.9109 89.72C39.5989 89.72 39.3109 89.796 39.0469 89.948C38.7829 90.1 38.5669 90.324 38.3989 90.62C38.2389 90.908 38.1589 91.252 38.1589 91.652C38.1589 92.052 38.2389 92.404 38.3989 92.708C38.5669 93.004 38.7829 93.232 39.0469 93.392C39.3189 93.552 39.6069 93.632 39.9109 93.632C40.2229 93.632 40.5149 93.556 40.7869 93.404C41.0589 93.244 41.2749 93.02 41.4349 92.732C41.5949 92.436 41.6749 92.084 41.6749 91.676ZM47.5517 95.108C47.0077 95.108 46.5197 95.012 46.0877 94.82C45.6557 94.62 45.3117 94.352 45.0557 94.016C44.8077 93.68 44.6717 93.308 44.6477 92.9H46.3397C46.3717 93.156 46.4957 93.368 46.7117 93.536C46.9357 93.704 47.2117 93.788 47.5397 93.788C47.8597 93.788 48.1077 93.724 48.2837 93.596C48.4677 93.468 48.5597 93.304 48.5597 93.104C48.5597 92.888 48.4477 92.728 48.2237 92.624C48.0077 92.512 47.6597 92.392 47.1797 92.264C46.6837 92.144 46.2757 92.02 45.9557 91.892C45.6437 91.764 45.3717 91.568 45.1397 91.304C44.9157 91.04 44.8037 90.684 44.8037 90.236C44.8037 89.868 44.9077 89.532 45.1157 89.228C45.3317 88.924 45.6357 88.684 46.0277 88.508C46.4277 88.332 46.8957 88.244 47.4317 88.244C48.2237 88.244 48.8557 88.444 49.3277 88.844C49.7997 89.236 50.0597 89.768 50.1077 90.44H48.4997C48.4757 90.176 48.3637 89.968 48.1637 89.816C47.9717 89.656 47.7117 89.576 47.3837 89.576C47.0797 89.576 46.8437 89.632 46.6757 89.744C46.5157 89.856 46.4357 90.012 46.4357 90.212C46.4357 90.436 46.5477 90.608 46.7717 90.728C46.9957 90.84 47.3437 90.956 47.8157 91.076C48.2957 91.196 48.6917 91.32 49.0037 91.448C49.3157 91.576 49.5837 91.776 49.8077 92.048C50.0397 92.312 50.1597 92.664 50.1677 93.104C50.1677 93.488 50.0597 93.832 49.8437 94.136C49.6357 94.44 49.3317 94.68 48.9317 94.856C48.5397 95.024 48.0797 95.108 47.5517 95.108ZM55.2908 88.256C55.7948 88.256 56.2428 88.368 56.6348 88.592C57.0268 88.808 57.3308 89.132 57.5468 89.564C57.7708 89.988 57.8828 90.5 57.8828 91.1V95H56.2028V91.328C56.2028 90.8 56.0708 90.396 55.8068 90.116C55.5428 89.828 55.1828 89.684 54.7268 89.684C54.2628 89.684 53.8948 89.828 53.6228 90.116C53.3588 90.396 53.2268 90.8 53.2268 91.328V95H51.5468V86.12H53.2268V89.18C53.4428 88.892 53.7308 88.668 54.0908 88.508C54.4508 88.34 54.8508 88.256 55.2908 88.256ZM61.1603 89.324C61.3763 89.004 61.6723 88.744 62.0483 88.544C62.4323 88.344 62.8683 88.244 63.3563 88.244C63.9243 88.244 64.4363 88.384 64.8923 88.664C65.3563 88.944 65.7203 89.344 65.9843 89.864C66.2563 90.376 66.3923 90.972 66.3923 91.652C66.3923 92.332 66.2563 92.936 65.9843 93.464C65.7203 93.984 65.3563 94.388 64.8923 94.676C64.4363 94.964 63.9243 95.108 63.3563 95.108C62.8603 95.108 62.4243 95.012 62.0483 94.82C61.6803 94.62 61.3843 94.364 61.1603 94.052V95H59.4803V86.12H61.1603V89.324ZM64.6763 91.652C64.6763 91.252 64.5923 90.908 64.4243 90.62C64.2643 90.324 64.0483 90.1 63.7763 89.948C63.5123 89.796 63.2243 89.72 62.9123 89.72C62.6083 89.72 62.3203 89.8 62.0483 89.96C61.7843 90.112 61.5683 90.336 61.4003 90.632C61.2403 90.928 61.1603 91.276 61.1603 91.676C61.1603 92.076 61.2403 92.424 61.4003 92.72C61.5683 93.016 61.7843 93.244 62.0483 93.404C62.3203 93.556 62.6083 93.632 62.9123 93.632C63.2243 93.632 63.5123 93.552 63.7763 93.392C64.0483 93.232 64.2643 93.004 64.4243 92.708C64.5923 92.412 64.6763 92.06 64.6763 91.652ZM70.5652 95.108C69.9252 95.108 69.3492 94.968 68.8372 94.688C68.3252 94.4 67.9212 93.996 67.6252 93.476C67.3372 92.956 67.1932 92.356 67.1932 91.676C67.1932 90.996 67.3412 90.396 67.6372 89.876C67.9412 89.356 68.3532 88.956 68.8732 88.676C69.3932 88.388 69.9732 88.244 70.6132 88.244C71.2532 88.244 71.8332 88.388 72.3532 88.676C72.8732 88.956 73.2812 89.356 73.5772 89.876C73.8812 90.396 74.0332 90.996 74.0332 91.676C74.0332 92.356 73.8772 92.956 73.5652 93.476C73.2612 93.996 72.8452 94.4 72.3172 94.688C71.7972 94.968 71.2132 95.108 70.5652 95.108ZM70.5652 93.644C70.8692 93.644 71.1532 93.572 71.4172 93.428C71.6892 93.276 71.9052 93.052 72.0652 92.756C72.2252 92.46 72.3052 92.1 72.3052 91.676C72.3052 91.044 72.1372 90.56 71.8012 90.224C71.4732 89.88 71.0692 89.708 70.5892 89.708C70.1092 89.708 69.7052 89.88 69.3772 90.224C69.0572 90.56 68.8972 91.044 68.8972 91.676C68.8972 92.308 69.0532 92.796 69.3652 93.14C69.6852 93.476 70.0852 93.644 70.5652 93.644ZM74.8335 91.652C74.8335 90.98 74.9655 90.384 75.2295 89.864C75.5015 89.344 75.8655 88.944 76.3215 88.664C76.7855 88.384 77.3015 88.244 77.8695 88.244C78.3655 88.244 78.7975 88.344 79.1655 88.544C79.5415 88.744 79.8415 88.996 80.0655 89.3V88.352H81.7575V95H80.0655V94.028C79.8495 94.34 79.5495 94.6 79.1655 94.808C78.7895 95.008 78.3535 95.108 77.8575 95.108C77.2975 95.108 76.7855 94.964 76.3215 94.676C75.8655 94.388 75.5015 93.984 75.2295 93.464C74.9655 92.936 74.8335 92.332 74.8335 91.652ZM80.0655 91.676C80.0655 91.268 79.9855 90.92 79.8255 90.632C79.6655 90.336 79.4495 90.112 79.1775 89.96C78.9055 89.8 78.6135 89.72 78.3015 89.72C77.9895 89.72 77.7015 89.796 77.4375 89.948C77.1735 90.1 76.9575 90.324 76.7895 90.62C76.6295 90.908 76.5495 91.252 76.5495 91.652C76.5495 92.052 76.6295 92.404 76.7895 92.708C76.9575 93.004 77.1735 93.232 77.4375 93.392C77.7095 93.552 77.9975 93.632 78.3015 93.632C78.6135 93.632 78.9055 93.556 79.1775 93.404C79.4495 93.244 79.6655 93.02 79.8255 92.732C79.9855 92.436 80.0655 92.084 80.0655 91.676ZM85.0783 89.384C85.2943 89.032 85.5743 88.756 85.9183 88.556C86.2703 88.356 86.6703 88.256 87.1183 88.256V90.02H86.6743C86.1463 90.02 85.7463 90.144 85.4743 90.392C85.2103 90.64 85.0783 91.072 85.0783 91.688V95H83.3983V88.352H85.0783V89.384ZM87.8179 91.652C87.8179 90.98 87.9499 90.384 88.2139 89.864C88.4859 89.344 88.8539 88.944 89.3179 88.664C89.7819 88.384 90.2979 88.244 90.8659 88.244C91.2979 88.244 91.7099 88.34 92.1019 88.532C92.4939 88.716 92.8059 88.964 93.0379 89.276V86.12H94.7419V95H93.0379V94.016C92.8299 94.344 92.5379 94.608 92.1619 94.808C91.7859 95.008 91.3499 95.108 90.8539 95.108C90.2939 95.108 89.7819 94.964 89.3179 94.676C88.8539 94.388 88.4859 93.984 88.2139 93.464C87.9499 92.936 87.8179 92.332 87.8179 91.652ZM93.0499 91.676C93.0499 91.268 92.9699 90.92 92.8099 90.632C92.6499 90.336 92.4339 90.112 92.1619 89.96C91.8899 89.8 91.5979 89.72 91.2859 89.72C90.9739 89.72 90.6859 89.796 90.4219 89.948C90.1579 90.1 89.9419 90.324 89.7739 90.62C89.6139 90.908 89.5339 91.252 89.5339 91.652C89.5339 92.052 89.6139 92.404 89.7739 92.708C89.9419 93.004 90.1579 93.232 90.4219 93.392C90.6939 93.552 90.9819 93.632 91.2859 93.632C91.5979 93.632 91.8899 93.556 92.1619 93.404C92.4339 93.244 92.6499 93.02 92.8099 92.732C92.9699 92.436 93.0499 92.084 93.0499 91.676Z" fill="#010303" fill-opacity="0.3"/>
<path fill-rule="evenodd" clip-rule="evenodd" d="M54 47H60C60.55 47 61 46.55 61 46V38C61 37.45 60.55 37 60 37H54C53.45 37 53 37.45 53 38V46C53 46.55 53.45 47 54 47ZM54 55H60C60.55 55 61 54.55 61 54V50C61 49.45 60.55 49 60 49H54C53.45 49 53 49.45 53 50V54C53 54.55 53.45 55 54 55ZM64 55H70C70.55 55 71 54.55 71 54V46C71 45.45 70.55 45 70 45H64C63.45 45 63 45.45 63 46V54C63 54.55 63.45 55 64 55ZM63 38V42C63 42.55 63.45 43 64 43H70C70.55 43 71 42.55 71 42V38C71 37.45 70.55 37 70 37H64C63.45 37 63 37.45 63 38Z" fill="#010303" fill-opacity="0.87"/>
</svg>
