<svg width="70" height="70" viewBox="0 0 70 70" fill="none" xmlns="http://www.w3.org/2000/svg">
<g filter="url(#filter0_d_591_2220)">
<rect x="15" y="11" width="40" height="40" rx="20" fill="white" shape-rendering="crispEdges"/>
<path fill-rule="evenodd" clip-rule="evenodd" d="M35 21C29.47 21 25 25.47 25 31C25 36.53 29.47 41 35 41C40.53 41 45 36.53 45 31C45 25.47 40.53 21 35 21ZM39.3 35.3C38.91 35.69 38.28 35.69 37.89 35.3L35 32.41L32.11 35.3C31.72 35.69 31.09 35.69 30.7 35.3C30.5127 35.1132 30.4075 34.8595 30.4075 34.595C30.4075 34.3305 30.5127 34.0768 30.7 33.89L33.59 31L30.7 28.11C30.5127 27.9232 30.4075 27.6695 30.4075 27.405C30.4075 27.1405 30.5127 26.8868 30.7 26.7C31.09 26.31 31.72 26.31 32.11 26.7L35 29.59L37.89 26.7C38.28 26.31 38.91 26.31 39.3 26.7C39.69 27.09 39.69 27.72 39.3 28.11L36.41 31L39.3 33.89C39.68 34.27 39.68 34.91 39.3 35.3Z" fill="#010303" fill-opacity="0.4"/>
</g>
<defs>
<filter id="filter0_d_591_2220" x="0" y="0" width="70" height="70" filterUnits="userSpaceOnUse" color-interpolation-filters="sRGB">
<feFlood flood-opacity="0" result="BackgroundImageFix"/>
<feColorMatrix in="SourceAlpha" type="matrix" values="0 0 0 0 0 0 0 0 0 0 0 0 0 0 0 0 0 0 127 0" result="hardAlpha"/>
<feOffset dy="4"/>
<feGaussianBlur stdDeviation="7.5"/>
<feComposite in2="hardAlpha" operator="out"/>
<feColorMatrix type="matrix" values="0 0 0 0 0 0 0 0 0 0 0 0 0 0 0 0 0 0 0.15 0"/>
<feBlend mode="normal" in2="BackgroundImageFix" result="effect1_dropShadow_591_2220"/>
<feBlend mode="normal" in="SourceGraphic" in2="effect1_dropShadow_591_2220" result="shape"/>
</filter>
</defs>
</svg>
