<svg width="34" height="34" viewBox="0 0 34 34" fill="none" xmlns="http://www.w3.org/2000/svg">
<path d="M27.2728 22.3107C27.8586 22.8964 28.8084 22.8964 29.3942 22.3107C29.9799 21.7249 29.9799 20.7751 29.3942 20.1893L27.2728 22.3107ZM17.0002 9.91667L18.0608 8.85601C17.475 8.27022 16.5253 8.27022 15.9395 8.85601L17.0002 9.91667ZM4.60617 20.1893C4.02038 20.7751 4.02038 21.7249 4.60617 22.3107C5.19195 22.8964 6.1417 22.8964 6.72749 22.3107L4.60617 20.1893ZM29.3942 20.1893L18.0608 8.85601L15.9395 10.9773L27.2728 22.3107L29.3942 20.1893ZM15.9395 8.85601L4.60617 20.1893L6.72749 22.3107L18.0608 10.9773L15.9395 8.85601Z" fill="black"/>
</svg>
