<svg width="516" height="96" viewBox="0 0 516 96" fill="none" xmlns="http://www.w3.org/2000/svg">
<g filter="url(#filter0_d_397_625)">
<rect x="4" y="2" width="248" height="88" rx="5" fill="white"/>
<path d="M59.5897 47.0817C59.5708 43.9669 61.0296 41.6194 63.9755 39.8884C62.3279 37.6049 59.8352 36.3489 56.5494 36.1069C53.4382 35.8694 50.0343 37.8606 48.788 37.8606C47.4708 37.8606 44.4588 36.1891 42.0888 36.1891C37.1979 36.2621 32 39.9615 32 47.4881C32 49.7123 32.4202 52.0096 33.2605 54.3754C34.3841 57.4902 38.4348 65.1218 42.6601 64.9985C44.8695 64.9483 46.4322 63.4822 49.3073 63.4822C52.0974 63.4822 53.5421 64.9985 56.0064 64.9985C60.2695 64.9391 63.933 58.0017 65 54.8778C59.2828 52.2699 59.5897 47.2415 59.5897 47.0817ZM54.6279 33.1519C57.0215 30.4025 56.8043 27.8997 56.7335 27C54.6185 27.1187 52.173 28.393 50.7803 29.9595C49.2459 31.6402 48.3442 33.7182 48.5378 36.0612C50.8227 36.2302 52.9094 35.093 54.6279 33.1519Z" fill="#252B42"/>
<path d="M91.162 36V26.2H95.614C96.678 26.2 97.616 26.4053 98.428 26.816C99.24 27.2173 99.8747 27.782 100.332 28.51C100.789 29.238 101.018 30.1013 101.018 31.1C101.018 32.0893 100.789 32.9527 100.332 33.69C99.8747 34.418 99.24 34.9873 98.428 35.398C97.616 35.7993 96.678 36 95.614 36H91.162ZM93.43 34.138H95.502C96.1553 34.138 96.72 34.0167 97.196 33.774C97.6813 33.522 98.0547 33.1673 98.316 32.71C98.5867 32.2527 98.722 31.716 98.722 31.1C98.722 30.4747 98.5867 29.938 98.316 29.49C98.0547 29.0327 97.6813 28.6827 97.196 28.44C96.72 28.188 96.1553 28.062 95.502 28.062H93.43V34.138ZM106.358 36.112C105.556 36.112 104.842 35.944 104.216 35.608C103.6 35.272 103.11 34.8147 102.746 34.236C102.392 33.648 102.214 32.9807 102.214 32.234C102.214 31.478 102.392 30.8107 102.746 30.232C103.11 29.644 103.6 29.1867 104.216 28.86C104.842 28.524 105.556 28.356 106.358 28.356C107.152 28.356 107.861 28.524 108.486 28.86C109.112 29.1867 109.602 29.6393 109.956 30.218C110.311 30.7967 110.488 31.4687 110.488 32.234C110.488 32.9807 110.311 33.648 109.956 34.236C109.602 34.8147 109.112 35.272 108.486 35.608C107.861 35.944 107.152 36.112 106.358 36.112ZM106.358 34.32C106.722 34.32 107.049 34.236 107.338 34.068C107.628 33.9 107.856 33.662 108.024 33.354C108.192 33.0367 108.276 32.6633 108.276 32.234C108.276 31.7953 108.192 31.422 108.024 31.114C107.856 30.806 107.628 30.568 107.338 30.4C107.049 30.232 106.722 30.148 106.358 30.148C105.994 30.148 105.668 30.232 105.378 30.4C105.089 30.568 104.856 30.806 104.678 31.114C104.51 31.422 104.426 31.7953 104.426 32.234C104.426 32.6633 104.51 33.0367 104.678 33.354C104.856 33.662 105.089 33.9 105.378 34.068C105.668 34.236 105.994 34.32 106.358 34.32ZM113.665 36L110.949 28.468H113.007L115.261 34.95H114.281L116.633 28.468H118.481L120.763 34.95H119.783L122.107 28.468H124.039L121.309 36H119.195L117.193 30.442H117.837L115.765 36H113.665ZM129.832 28.356C130.43 28.356 130.962 28.4773 131.428 28.72C131.904 28.9533 132.278 29.3173 132.548 29.812C132.819 30.2973 132.954 30.9227 132.954 31.688V36H130.77V32.024C130.77 31.4173 130.635 30.9693 130.364 30.68C130.103 30.3907 129.73 30.246 129.244 30.246C128.899 30.246 128.586 30.3207 128.306 30.47C128.036 30.61 127.821 30.8293 127.662 31.128C127.513 31.4267 127.438 31.8093 127.438 32.276V36H125.254V28.468H127.34V30.554L126.948 29.924C127.219 29.42 127.606 29.0327 128.11 28.762C128.614 28.4913 129.188 28.356 129.832 28.356ZM135.134 36V25.612H137.318V36H135.134ZM143.129 36.112C142.326 36.112 141.612 35.944 140.987 35.608C140.371 35.272 139.881 34.8147 139.517 34.236C139.162 33.648 138.985 32.9807 138.985 32.234C138.985 31.478 139.162 30.8107 139.517 30.232C139.881 29.644 140.371 29.1867 140.987 28.86C141.612 28.524 142.326 28.356 143.129 28.356C143.922 28.356 144.632 28.524 145.257 28.86C145.882 29.1867 146.372 29.6393 146.727 30.218C147.082 30.7967 147.259 31.4687 147.259 32.234C147.259 32.9807 147.082 33.648 146.727 34.236C146.372 34.8147 145.882 35.272 145.257 35.608C144.632 35.944 143.922 36.112 143.129 36.112ZM143.129 34.32C143.493 34.32 143.82 34.236 144.109 34.068C144.398 33.9 144.627 33.662 144.795 33.354C144.963 33.0367 145.047 32.6633 145.047 32.234C145.047 31.7953 144.963 31.422 144.795 31.114C144.627 30.806 144.398 30.568 144.109 30.4C143.82 30.232 143.493 30.148 143.129 30.148C142.765 30.148 142.438 30.232 142.149 30.4C141.86 30.568 141.626 30.806 141.449 31.114C141.281 31.422 141.197 31.7953 141.197 32.234C141.197 32.6633 141.281 33.0367 141.449 33.354C141.626 33.662 141.86 33.9 142.149 34.068C142.438 34.236 142.765 34.32 143.129 34.32ZM153.416 36V34.53L153.276 34.208V31.576C153.276 31.1093 153.131 30.7453 152.842 30.484C152.562 30.2227 152.128 30.092 151.54 30.092C151.139 30.092 150.742 30.1573 150.35 30.288C149.967 30.4093 149.641 30.5773 149.37 30.792L148.586 29.266C148.997 28.9767 149.491 28.7527 150.07 28.594C150.649 28.4353 151.237 28.356 151.834 28.356C152.982 28.356 153.873 28.6267 154.508 29.168C155.143 29.7093 155.46 30.554 155.46 31.702V36H153.416ZM151.12 36.112C150.532 36.112 150.028 36.014 149.608 35.818C149.188 35.6127 148.866 35.3373 148.642 34.992C148.418 34.6467 148.306 34.2593 148.306 33.83C148.306 33.382 148.413 32.99 148.628 32.654C148.852 32.318 149.202 32.0567 149.678 31.87C150.154 31.674 150.775 31.576 151.54 31.576H153.542V32.85H151.778C151.265 32.85 150.91 32.934 150.714 33.102C150.527 33.27 150.434 33.48 150.434 33.732C150.434 34.012 150.541 34.236 150.756 34.404C150.98 34.5627 151.283 34.642 151.666 34.642C152.03 34.642 152.357 34.558 152.646 34.39C152.935 34.2127 153.145 33.956 153.276 33.62L153.612 34.628C153.453 35.1133 153.164 35.482 152.744 35.734C152.324 35.986 151.783 36.112 151.12 36.112ZM160.925 36.112C160.216 36.112 159.577 35.9533 159.007 35.636C158.438 35.3093 157.985 34.8567 157.649 34.278C157.323 33.6993 157.159 33.018 157.159 32.234C157.159 31.4407 157.323 30.7547 157.649 30.176C157.985 29.5973 158.438 29.1493 159.007 28.832C159.577 28.5147 160.216 28.356 160.925 28.356C161.56 28.356 162.115 28.496 162.591 28.776C163.067 29.056 163.436 29.4807 163.697 30.05C163.959 30.6193 164.089 31.3473 164.089 32.234C164.089 33.1113 163.963 33.8393 163.711 34.418C163.459 34.9873 163.095 35.412 162.619 35.692C162.153 35.972 161.588 36.112 160.925 36.112ZM161.303 34.32C161.658 34.32 161.98 34.236 162.269 34.068C162.559 33.9 162.787 33.662 162.955 33.354C163.133 33.0367 163.221 32.6633 163.221 32.234C163.221 31.7953 163.133 31.422 162.955 31.114C162.787 30.806 162.559 30.568 162.269 30.4C161.98 30.232 161.658 30.148 161.303 30.148C160.939 30.148 160.613 30.232 160.323 30.4C160.034 30.568 159.801 30.806 159.623 31.114C159.455 31.422 159.371 31.7953 159.371 32.234C159.371 32.6633 159.455 33.0367 159.623 33.354C159.801 33.662 160.034 33.9 160.323 34.068C160.613 34.236 160.939 34.32 161.303 34.32ZM163.277 36V34.46L163.319 32.22L163.179 29.994V25.612H165.363V36H163.277ZM175.333 36.112C174.531 36.112 173.817 35.944 173.191 35.608C172.575 35.272 172.085 34.8147 171.721 34.236C171.367 33.648 171.189 32.9807 171.189 32.234C171.189 31.478 171.367 30.8107 171.721 30.232C172.085 29.644 172.575 29.1867 173.191 28.86C173.817 28.524 174.531 28.356 175.333 28.356C176.127 28.356 176.836 28.524 177.461 28.86C178.087 29.1867 178.577 29.6393 178.931 30.218C179.286 30.7967 179.463 31.4687 179.463 32.234C179.463 32.9807 179.286 33.648 178.931 34.236C178.577 34.8147 178.087 35.272 177.461 35.608C176.836 35.944 176.127 36.112 175.333 36.112ZM175.333 34.32C175.697 34.32 176.024 34.236 176.313 34.068C176.603 33.9 176.831 33.662 176.999 33.354C177.167 33.0367 177.251 32.6633 177.251 32.234C177.251 31.7953 177.167 31.422 176.999 31.114C176.831 30.806 176.603 30.568 176.313 30.4C176.024 30.232 175.697 30.148 175.333 30.148C174.969 30.148 174.643 30.232 174.353 30.4C174.064 30.568 173.831 30.806 173.653 31.114C173.485 31.422 173.401 31.7953 173.401 32.234C173.401 32.6633 173.485 33.0367 173.653 33.354C173.831 33.662 174.064 33.9 174.353 34.068C174.643 34.236 174.969 34.32 175.333 34.32ZM185.701 28.356C186.299 28.356 186.831 28.4773 187.297 28.72C187.773 28.9533 188.147 29.3173 188.417 29.812C188.688 30.2973 188.823 30.9227 188.823 31.688V36H186.639V32.024C186.639 31.4173 186.504 30.9693 186.233 30.68C185.972 30.3907 185.599 30.246 185.113 30.246C184.768 30.246 184.455 30.3207 184.175 30.47C183.905 30.61 183.69 30.8293 183.531 31.128C183.382 31.4267 183.307 31.8093 183.307 32.276V36H181.123V28.468H183.209V30.554L182.817 29.924C183.088 29.42 183.475 29.0327 183.979 28.762C184.483 28.4913 185.057 28.356 185.701 28.356ZM198.248 36.112C197.361 36.112 196.67 35.888 196.176 35.44C195.681 34.9827 195.434 34.306 195.434 33.41V26.802H197.618V33.382C197.618 33.6993 197.702 33.9467 197.87 34.124C198.038 34.292 198.266 34.376 198.556 34.376C198.901 34.376 199.195 34.2827 199.438 34.096L200.026 35.636C199.802 35.7947 199.531 35.916 199.214 36C198.906 36.0747 198.584 36.112 198.248 36.112ZM194.272 30.316V28.636H199.494V30.316H194.272ZM206.03 28.356C206.627 28.356 207.159 28.4773 207.626 28.72C208.102 28.9533 208.475 29.3173 208.746 29.812C209.016 30.2973 209.152 30.9227 209.152 31.688V36H206.968V32.024C206.968 31.4173 206.832 30.9693 206.562 30.68C206.3 30.3907 205.927 30.246 205.442 30.246C205.096 30.246 204.784 30.3207 204.504 30.47C204.233 30.61 204.018 30.8293 203.86 31.128C203.71 31.4267 203.636 31.8093 203.636 32.276V36H201.452V25.612H203.636V30.554L203.146 29.924C203.416 29.42 203.804 29.0327 204.308 28.762C204.812 28.4913 205.386 28.356 206.03 28.356ZM215.124 36.112C214.265 36.112 213.509 35.944 212.856 35.608C212.212 35.272 211.713 34.8147 211.358 34.236C211.003 33.648 210.826 32.9807 210.826 32.234C210.826 31.478 210.999 30.8107 211.344 30.232C211.699 29.644 212.179 29.1867 212.786 28.86C213.393 28.524 214.079 28.356 214.844 28.356C215.581 28.356 216.244 28.5147 216.832 28.832C217.429 29.14 217.901 29.588 218.246 30.176C218.591 30.7547 218.764 31.45 218.764 32.262C218.764 32.346 218.759 32.444 218.75 32.556C218.741 32.6587 218.731 32.7567 218.722 32.85H212.604V31.576H217.574L216.734 31.954C216.734 31.562 216.655 31.2213 216.496 30.932C216.337 30.6427 216.118 30.4187 215.838 30.26C215.558 30.092 215.231 30.008 214.858 30.008C214.485 30.008 214.153 30.092 213.864 30.26C213.584 30.4187 213.365 30.6473 213.206 30.946C213.047 31.2353 212.968 31.5807 212.968 31.982V32.318C212.968 32.7287 213.057 33.0927 213.234 33.41C213.421 33.718 213.677 33.956 214.004 34.124C214.34 34.2827 214.732 34.362 215.18 34.362C215.581 34.362 215.931 34.3013 216.23 34.18C216.538 34.0587 216.818 33.8767 217.07 33.634L218.232 34.894C217.887 35.286 217.453 35.5893 216.93 35.804C216.407 36.0093 215.805 36.112 215.124 36.112Z" fill="#252B42"/>
<path d="M89.98 64L96.32 50H98.3L104.66 64H102.56L96.9 51.12H97.7L92.04 64H89.98ZM92.68 60.5L93.22 58.9H101.1L101.68 60.5H92.68ZM112.288 64.12C111.408 64.12 110.602 63.92 109.868 63.52C109.148 63.1067 108.568 62.5 108.128 61.7C107.702 60.9 107.488 59.9 107.488 58.7C107.488 57.5 107.695 56.5 108.108 55.7C108.535 54.9 109.108 54.3 109.828 53.9C110.562 53.5 111.382 53.3 112.288 53.3C113.328 53.3 114.248 53.5267 115.048 53.98C115.848 54.4333 116.482 55.0667 116.948 55.88C117.415 56.68 117.648 57.62 117.648 58.7C117.648 59.78 117.415 60.7267 116.948 61.54C116.482 62.3533 115.848 62.9867 115.048 63.44C114.248 63.8933 113.328 64.12 112.288 64.12ZM106.668 67.88V53.4H108.508V56.26L108.388 58.72L108.588 61.18V67.88H106.668ZM112.128 62.44C112.808 62.44 113.415 62.2867 113.948 61.98C114.495 61.6733 114.922 61.24 115.228 60.68C115.548 60.1067 115.708 59.4467 115.708 58.7C115.708 57.94 115.548 57.2867 115.228 56.74C114.922 56.18 114.495 55.7467 113.948 55.44C113.415 55.1333 112.808 54.98 112.128 54.98C111.462 54.98 110.855 55.1333 110.308 55.44C109.775 55.7467 109.348 56.18 109.028 56.74C108.722 57.2867 108.568 57.94 108.568 58.7C108.568 59.4467 108.722 60.1067 109.028 60.68C109.348 61.24 109.775 61.6733 110.308 61.98C110.855 62.2867 111.462 62.44 112.128 62.44ZM126.121 64.12C125.241 64.12 124.435 63.92 123.701 63.52C122.981 63.1067 122.401 62.5 121.961 61.7C121.535 60.9 121.321 59.9 121.321 58.7C121.321 57.5 121.528 56.5 121.941 55.7C122.368 54.9 122.941 54.3 123.661 53.9C124.395 53.5 125.215 53.3 126.121 53.3C127.161 53.3 128.081 53.5267 128.881 53.98C129.681 54.4333 130.315 55.0667 130.781 55.88C131.248 56.68 131.481 57.62 131.481 58.7C131.481 59.78 131.248 60.7267 130.781 61.54C130.315 62.3533 129.681 62.9867 128.881 63.44C128.081 63.8933 127.161 64.12 126.121 64.12ZM120.501 67.88V53.4H122.341V56.26L122.221 58.72L122.421 61.18V67.88H120.501ZM125.961 62.44C126.641 62.44 127.248 62.2867 127.781 61.98C128.328 61.6733 128.755 61.24 129.061 60.68C129.381 60.1067 129.541 59.4467 129.541 58.7C129.541 57.94 129.381 57.2867 129.061 56.74C128.755 56.18 128.328 55.7467 127.781 55.44C127.248 55.1333 126.641 54.98 125.961 54.98C125.295 54.98 124.688 55.1333 124.141 55.44C123.608 55.7467 123.181 56.18 122.861 56.74C122.555 57.2867 122.401 57.94 122.401 58.7C122.401 59.4467 122.555 60.1067 122.861 60.68C123.181 61.24 123.608 61.6733 124.141 61.98C124.688 62.2867 125.295 62.44 125.961 62.44ZM144.265 64.16C143.198 64.16 142.178 64 141.205 63.68C140.232 63.3467 139.465 62.92 138.905 62.4L139.645 60.84C140.178 61.3067 140.858 61.6933 141.685 62C142.512 62.3067 143.372 62.46 144.265 62.46C145.078 62.46 145.738 62.3667 146.245 62.18C146.752 61.9933 147.125 61.74 147.365 61.42C147.605 61.0867 147.725 60.7133 147.725 60.3C147.725 59.82 147.565 59.4333 147.245 59.14C146.938 58.8467 146.532 58.6133 146.025 58.44C145.532 58.2533 144.985 58.0933 144.385 57.96C143.785 57.8267 143.178 57.6733 142.565 57.5C141.965 57.3133 141.412 57.08 140.905 56.8C140.412 56.52 140.012 56.1467 139.705 55.68C139.398 55.2 139.245 54.5867 139.245 53.84C139.245 53.12 139.432 52.46 139.805 51.86C140.192 51.2467 140.778 50.76 141.565 50.4C142.365 50.0267 143.378 49.84 144.605 49.84C145.418 49.84 146.225 49.9467 147.025 50.16C147.825 50.3733 148.518 50.68 149.105 51.08L148.445 52.68C147.845 52.28 147.212 51.9933 146.545 51.82C145.878 51.6333 145.232 51.54 144.605 51.54C143.818 51.54 143.172 51.64 142.665 51.84C142.158 52.04 141.785 52.3067 141.545 52.64C141.318 52.9733 141.205 53.3467 141.205 53.76C141.205 54.2533 141.358 54.6467 141.665 54.94C141.985 55.2333 142.392 55.4667 142.885 55.64C143.392 55.8133 143.945 55.9733 144.545 56.12C145.145 56.2533 145.745 56.4067 146.345 56.58C146.958 56.7533 147.512 56.98 148.005 57.26C148.512 57.54 148.918 57.9133 149.225 58.38C149.532 58.8467 149.685 59.4467 149.685 60.18C149.685 60.8867 149.492 61.5467 149.105 62.16C148.718 62.76 148.118 63.2467 147.305 63.62C146.505 63.98 145.492 64.16 144.265 64.16ZM156.167 64.12C155.1 64.12 154.274 63.8333 153.687 63.26C153.1 62.6867 152.807 61.8667 152.807 60.8V51.08H154.727V60.72C154.727 61.2933 154.867 61.7333 155.147 62.04C155.44 62.3467 155.854 62.5 156.387 62.5C156.987 62.5 157.487 62.3333 157.887 62L158.487 63.38C158.194 63.6333 157.84 63.82 157.427 63.94C157.027 64.06 156.607 64.12 156.167 64.12ZM151.007 54.98V53.4H157.767V54.98H151.007ZM165.197 64.12C164.13 64.12 163.183 63.8867 162.357 63.42C161.53 62.9533 160.877 62.3133 160.397 61.5C159.917 60.6733 159.677 59.74 159.677 58.7C159.677 57.6467 159.917 56.7133 160.397 55.9C160.877 55.0867 161.53 54.4533 162.357 54C163.183 53.5333 164.13 53.3 165.197 53.3C166.25 53.3 167.19 53.5333 168.017 54C168.857 54.4533 169.51 55.0867 169.977 55.9C170.457 56.7 170.697 57.6333 170.697 58.7C170.697 59.7533 170.457 60.6867 169.977 61.5C169.51 62.3133 168.857 62.9533 168.017 63.42C167.19 63.8867 166.25 64.12 165.197 64.12ZM165.197 62.44C165.877 62.44 166.483 62.2867 167.017 61.98C167.563 61.6733 167.99 61.24 168.297 60.68C168.603 60.1067 168.757 59.4467 168.757 58.7C168.757 57.94 168.603 57.2867 168.297 56.74C167.99 56.18 167.563 55.7467 167.017 55.44C166.483 55.1333 165.877 54.98 165.197 54.98C164.517 54.98 163.91 55.1333 163.377 55.44C162.843 55.7467 162.417 56.18 162.097 56.74C161.777 57.2867 161.617 57.94 161.617 58.7C161.617 59.4467 161.777 60.1067 162.097 60.68C162.417 61.24 162.843 61.6733 163.377 61.98C163.91 62.2867 164.517 62.44 165.197 62.44ZM173.552 64V53.4H175.392V56.28L175.212 55.56C175.505 54.8267 175.999 54.2667 176.692 53.88C177.385 53.4933 178.239 53.3 179.252 53.3V55.16C179.172 55.1467 179.092 55.14 179.012 55.14C178.945 55.14 178.879 55.14 178.812 55.14C177.785 55.14 176.972 55.4467 176.372 56.06C175.772 56.6733 175.472 57.56 175.472 58.72V64H173.552ZM186.441 64.12C185.307 64.12 184.307 63.8867 183.441 63.42C182.587 62.9533 181.921 62.3133 181.441 61.5C180.974 60.6867 180.741 59.7533 180.741 58.7C180.741 57.6467 180.967 56.7133 181.421 55.9C181.887 55.0867 182.521 54.4533 183.321 54C184.134 53.5333 185.047 53.3 186.061 53.3C187.087 53.3 187.994 53.5267 188.781 53.98C189.567 54.4333 190.181 55.0733 190.621 55.9C191.074 56.7133 191.301 57.6667 191.301 58.76C191.301 58.84 191.294 58.9333 191.281 59.04C191.281 59.1467 191.274 59.2467 191.261 59.34H182.241V57.96H190.261L189.481 58.44C189.494 57.76 189.354 57.1533 189.061 56.62C188.767 56.0867 188.361 55.6733 187.841 55.38C187.334 55.0733 186.741 54.92 186.061 54.92C185.394 54.92 184.801 55.0733 184.281 55.38C183.761 55.6733 183.354 56.0933 183.061 56.64C182.767 57.1733 182.621 57.7867 182.621 58.48V58.8C182.621 59.5067 182.781 60.14 183.101 60.7C183.434 61.2467 183.894 61.6733 184.481 61.98C185.067 62.2867 185.741 62.44 186.501 62.44C187.127 62.44 187.694 62.3333 188.201 62.12C188.721 61.9067 189.174 61.5867 189.561 61.16L190.621 62.4C190.141 62.96 189.541 63.3867 188.821 63.68C188.114 63.9733 187.321 64.12 186.441 64.12Z" fill="#252B42"/>
<rect x="4.5" y="2.5" width="247" height="87" rx="4.5" stroke="#BDBDBD"/>
</g>
<g filter="url(#filter1_d_397_625)">
<rect x="262" y="2" width="250" height="88" rx="5" fill="white"/>
<path d="M315.822 51.853C320.261 49.3767 323.626 47.4897 323.916 47.343C324.844 46.8417 325.802 45.5148 323.916 44.4842C323.307 44.16 320.028 42.3318 315.822 39.9741L309.99 45.9576L315.822 51.8529V51.853Z" fill="#FFD900"/>
<path d="M309.99 45.9575L291.422 64.9706C291.858 65.0293 292.35 64.9119 292.93 64.5879C294.148 63.9105 307.059 56.7469 315.822 51.8543L309.99 45.9575Z" fill="#F43249"/>
<path d="M309.99 45.9577L315.821 40.0036C315.821 40.0036 294.235 28.0351 292.929 27.3286C292.437 27.0325 291.886 26.9445 291.393 27.0325L309.99 45.9577Z" fill="#00EE76"/>
<path d="M309.99 45.9574L291.393 27.0322C290.638 27.2095 290 27.887 290 29.2725V62.7302C290 63.9984 290.494 64.9118 291.421 64.9998L309.99 45.9574Z" fill="#00D3FF"/>
<path d="M351.162 36V26.2H355.614C356.678 26.2 357.616 26.4053 358.428 26.816C359.24 27.2173 359.875 27.782 360.332 28.51C360.789 29.238 361.018 30.1013 361.018 31.1C361.018 32.0893 360.789 32.9527 360.332 33.69C359.875 34.418 359.24 34.9873 358.428 35.398C357.616 35.7993 356.678 36 355.614 36H351.162ZM353.43 34.138H355.502C356.155 34.138 356.72 34.0167 357.196 33.774C357.681 33.522 358.055 33.1673 358.316 32.71C358.587 32.2527 358.722 31.716 358.722 31.1C358.722 30.4747 358.587 29.938 358.316 29.49C358.055 29.0327 357.681 28.6827 357.196 28.44C356.72 28.188 356.155 28.062 355.502 28.062H353.43V34.138ZM366.358 36.112C365.556 36.112 364.842 35.944 364.216 35.608C363.6 35.272 363.11 34.8147 362.746 34.236C362.392 33.648 362.214 32.9807 362.214 32.234C362.214 31.478 362.392 30.8107 362.746 30.232C363.11 29.644 363.6 29.1867 364.216 28.86C364.842 28.524 365.556 28.356 366.358 28.356C367.152 28.356 367.861 28.524 368.486 28.86C369.112 29.1867 369.602 29.6393 369.956 30.218C370.311 30.7967 370.488 31.4687 370.488 32.234C370.488 32.9807 370.311 33.648 369.956 34.236C369.602 34.8147 369.112 35.272 368.486 35.608C367.861 35.944 367.152 36.112 366.358 36.112ZM366.358 34.32C366.722 34.32 367.049 34.236 367.338 34.068C367.628 33.9 367.856 33.662 368.024 33.354C368.192 33.0367 368.276 32.6633 368.276 32.234C368.276 31.7953 368.192 31.422 368.024 31.114C367.856 30.806 367.628 30.568 367.338 30.4C367.049 30.232 366.722 30.148 366.358 30.148C365.994 30.148 365.668 30.232 365.378 30.4C365.089 30.568 364.856 30.806 364.678 31.114C364.51 31.422 364.426 31.7953 364.426 32.234C364.426 32.6633 364.51 33.0367 364.678 33.354C364.856 33.662 365.089 33.9 365.378 34.068C365.668 34.236 365.994 34.32 366.358 34.32ZM373.665 36L370.949 28.468H373.007L375.261 34.95H374.281L376.633 28.468H378.481L380.763 34.95H379.783L382.107 28.468H384.039L381.309 36H379.195L377.193 30.442H377.837L375.765 36H373.665ZM389.832 28.356C390.43 28.356 390.962 28.4773 391.428 28.72C391.904 28.9533 392.278 29.3173 392.548 29.812C392.819 30.2973 392.954 30.9227 392.954 31.688V36H390.77V32.024C390.77 31.4173 390.635 30.9693 390.364 30.68C390.103 30.3907 389.73 30.246 389.244 30.246C388.899 30.246 388.586 30.3207 388.306 30.47C388.036 30.61 387.821 30.8293 387.662 31.128C387.513 31.4267 387.438 31.8093 387.438 32.276V36H385.254V28.468H387.34V30.554L386.948 29.924C387.219 29.42 387.606 29.0327 388.11 28.762C388.614 28.4913 389.188 28.356 389.832 28.356ZM395.134 36V25.612H397.318V36H395.134ZM403.129 36.112C402.326 36.112 401.612 35.944 400.987 35.608C400.371 35.272 399.881 34.8147 399.517 34.236C399.162 33.648 398.985 32.9807 398.985 32.234C398.985 31.478 399.162 30.8107 399.517 30.232C399.881 29.644 400.371 29.1867 400.987 28.86C401.612 28.524 402.326 28.356 403.129 28.356C403.922 28.356 404.632 28.524 405.257 28.86C405.882 29.1867 406.372 29.6393 406.727 30.218C407.082 30.7967 407.259 31.4687 407.259 32.234C407.259 32.9807 407.082 33.648 406.727 34.236C406.372 34.8147 405.882 35.272 405.257 35.608C404.632 35.944 403.922 36.112 403.129 36.112ZM403.129 34.32C403.493 34.32 403.82 34.236 404.109 34.068C404.398 33.9 404.627 33.662 404.795 33.354C404.963 33.0367 405.047 32.6633 405.047 32.234C405.047 31.7953 404.963 31.422 404.795 31.114C404.627 30.806 404.398 30.568 404.109 30.4C403.82 30.232 403.493 30.148 403.129 30.148C402.765 30.148 402.438 30.232 402.149 30.4C401.86 30.568 401.626 30.806 401.449 31.114C401.281 31.422 401.197 31.7953 401.197 32.234C401.197 32.6633 401.281 33.0367 401.449 33.354C401.626 33.662 401.86 33.9 402.149 34.068C402.438 34.236 402.765 34.32 403.129 34.32ZM413.416 36V34.53L413.276 34.208V31.576C413.276 31.1093 413.131 30.7453 412.842 30.484C412.562 30.2227 412.128 30.092 411.54 30.092C411.139 30.092 410.742 30.1573 410.35 30.288C409.967 30.4093 409.641 30.5773 409.37 30.792L408.586 29.266C408.997 28.9767 409.491 28.7527 410.07 28.594C410.649 28.4353 411.237 28.356 411.834 28.356C412.982 28.356 413.873 28.6267 414.508 29.168C415.143 29.7093 415.46 30.554 415.46 31.702V36H413.416ZM411.12 36.112C410.532 36.112 410.028 36.014 409.608 35.818C409.188 35.6127 408.866 35.3373 408.642 34.992C408.418 34.6467 408.306 34.2593 408.306 33.83C408.306 33.382 408.413 32.99 408.628 32.654C408.852 32.318 409.202 32.0567 409.678 31.87C410.154 31.674 410.775 31.576 411.54 31.576H413.542V32.85H411.778C411.265 32.85 410.91 32.934 410.714 33.102C410.527 33.27 410.434 33.48 410.434 33.732C410.434 34.012 410.541 34.236 410.756 34.404C410.98 34.5627 411.283 34.642 411.666 34.642C412.03 34.642 412.357 34.558 412.646 34.39C412.935 34.2127 413.145 33.956 413.276 33.62L413.612 34.628C413.453 35.1133 413.164 35.482 412.744 35.734C412.324 35.986 411.783 36.112 411.12 36.112ZM420.925 36.112C420.216 36.112 419.577 35.9533 419.007 35.636C418.438 35.3093 417.985 34.8567 417.649 34.278C417.323 33.6993 417.159 33.018 417.159 32.234C417.159 31.4407 417.323 30.7547 417.649 30.176C417.985 29.5973 418.438 29.1493 419.007 28.832C419.577 28.5147 420.216 28.356 420.925 28.356C421.56 28.356 422.115 28.496 422.591 28.776C423.067 29.056 423.436 29.4807 423.697 30.05C423.959 30.6193 424.089 31.3473 424.089 32.234C424.089 33.1113 423.963 33.8393 423.711 34.418C423.459 34.9873 423.095 35.412 422.619 35.692C422.153 35.972 421.588 36.112 420.925 36.112ZM421.303 34.32C421.658 34.32 421.98 34.236 422.269 34.068C422.559 33.9 422.787 33.662 422.955 33.354C423.133 33.0367 423.221 32.6633 423.221 32.234C423.221 31.7953 423.133 31.422 422.955 31.114C422.787 30.806 422.559 30.568 422.269 30.4C421.98 30.232 421.658 30.148 421.303 30.148C420.939 30.148 420.613 30.232 420.323 30.4C420.034 30.568 419.801 30.806 419.623 31.114C419.455 31.422 419.371 31.7953 419.371 32.234C419.371 32.6633 419.455 33.0367 419.623 33.354C419.801 33.662 420.034 33.9 420.323 34.068C420.613 34.236 420.939 34.32 421.303 34.32ZM423.277 36V34.46L423.319 32.22L423.179 29.994V25.612H425.363V36H423.277ZM435.333 36.112C434.531 36.112 433.817 35.944 433.191 35.608C432.575 35.272 432.085 34.8147 431.721 34.236C431.367 33.648 431.189 32.9807 431.189 32.234C431.189 31.478 431.367 30.8107 431.721 30.232C432.085 29.644 432.575 29.1867 433.191 28.86C433.817 28.524 434.531 28.356 435.333 28.356C436.127 28.356 436.836 28.524 437.461 28.86C438.087 29.1867 438.577 29.6393 438.931 30.218C439.286 30.7967 439.463 31.4687 439.463 32.234C439.463 32.9807 439.286 33.648 438.931 34.236C438.577 34.8147 438.087 35.272 437.461 35.608C436.836 35.944 436.127 36.112 435.333 36.112ZM435.333 34.32C435.697 34.32 436.024 34.236 436.313 34.068C436.603 33.9 436.831 33.662 436.999 33.354C437.167 33.0367 437.251 32.6633 437.251 32.234C437.251 31.7953 437.167 31.422 436.999 31.114C436.831 30.806 436.603 30.568 436.313 30.4C436.024 30.232 435.697 30.148 435.333 30.148C434.969 30.148 434.643 30.232 434.353 30.4C434.064 30.568 433.831 30.806 433.653 31.114C433.485 31.422 433.401 31.7953 433.401 32.234C433.401 32.6633 433.485 33.0367 433.653 33.354C433.831 33.662 434.064 33.9 434.353 34.068C434.643 34.236 434.969 34.32 435.333 34.32ZM445.701 28.356C446.299 28.356 446.831 28.4773 447.297 28.72C447.773 28.9533 448.147 29.3173 448.417 29.812C448.688 30.2973 448.823 30.9227 448.823 31.688V36H446.639V32.024C446.639 31.4173 446.504 30.9693 446.233 30.68C445.972 30.3907 445.599 30.246 445.113 30.246C444.768 30.246 444.455 30.3207 444.175 30.47C443.905 30.61 443.69 30.8293 443.531 31.128C443.382 31.4267 443.307 31.8093 443.307 32.276V36H441.123V28.468H443.209V30.554L442.817 29.924C443.088 29.42 443.475 29.0327 443.979 28.762C444.483 28.4913 445.057 28.356 445.701 28.356ZM458.248 36.112C457.361 36.112 456.67 35.888 456.176 35.44C455.681 34.9827 455.434 34.306 455.434 33.41V26.802H457.618V33.382C457.618 33.6993 457.702 33.9467 457.87 34.124C458.038 34.292 458.266 34.376 458.556 34.376C458.901 34.376 459.195 34.2827 459.438 34.096L460.026 35.636C459.802 35.7947 459.531 35.916 459.214 36C458.906 36.0747 458.584 36.112 458.248 36.112ZM454.272 30.316V28.636H459.494V30.316H454.272ZM466.03 28.356C466.627 28.356 467.159 28.4773 467.626 28.72C468.102 28.9533 468.475 29.3173 468.746 29.812C469.016 30.2973 469.152 30.9227 469.152 31.688V36H466.968V32.024C466.968 31.4173 466.832 30.9693 466.562 30.68C466.3 30.3907 465.927 30.246 465.442 30.246C465.096 30.246 464.784 30.3207 464.504 30.47C464.233 30.61 464.018 30.8293 463.86 31.128C463.71 31.4267 463.636 31.8093 463.636 32.276V36H461.452V25.612H463.636V30.554L463.146 29.924C463.416 29.42 463.804 29.0327 464.308 28.762C464.812 28.4913 465.386 28.356 466.03 28.356ZM475.124 36.112C474.265 36.112 473.509 35.944 472.856 35.608C472.212 35.272 471.713 34.8147 471.358 34.236C471.003 33.648 470.826 32.9807 470.826 32.234C470.826 31.478 470.999 30.8107 471.344 30.232C471.699 29.644 472.179 29.1867 472.786 28.86C473.393 28.524 474.079 28.356 474.844 28.356C475.581 28.356 476.244 28.5147 476.832 28.832C477.429 29.14 477.901 29.588 478.246 30.176C478.591 30.7547 478.764 31.45 478.764 32.262C478.764 32.346 478.759 32.444 478.75 32.556C478.741 32.6587 478.731 32.7567 478.722 32.85H472.604V31.576H477.574L476.734 31.954C476.734 31.562 476.655 31.2213 476.496 30.932C476.337 30.6427 476.118 30.4187 475.838 30.26C475.558 30.092 475.231 30.008 474.858 30.008C474.485 30.008 474.153 30.092 473.864 30.26C473.584 30.4187 473.365 30.6473 473.206 30.946C473.047 31.2353 472.968 31.5807 472.968 31.982V32.318C472.968 32.7287 473.057 33.0927 473.234 33.41C473.421 33.718 473.677 33.956 474.004 34.124C474.34 34.2827 474.732 34.362 475.18 34.362C475.581 34.362 475.931 34.3013 476.23 34.18C476.538 34.0587 476.818 33.8767 477.07 33.634L478.232 34.894C477.887 35.286 477.453 35.5893 476.93 35.804C476.407 36.0093 475.805 36.112 475.124 36.112Z" fill="#252B42"/>
<path d="M358.42 64.16C357.34 64.16 356.347 63.9867 355.44 63.64C354.533 63.28 353.747 62.78 353.08 62.14C352.413 61.4867 351.893 60.7267 351.52 59.86C351.147 58.9933 350.96 58.04 350.96 57C350.96 55.96 351.147 55.0067 351.52 54.14C351.893 53.2733 352.413 52.52 353.08 51.88C353.76 51.2267 354.553 50.7267 355.46 50.38C356.367 50.02 357.367 49.84 358.46 49.84C359.567 49.84 360.58 50.02 361.5 50.38C362.42 50.74 363.2 51.28 363.84 52L362.6 53.24C362.027 52.68 361.4 52.2733 360.72 52.02C360.053 51.7533 359.327 51.62 358.54 51.62C357.74 51.62 356.993 51.7533 356.3 52.02C355.62 52.2867 355.027 52.66 354.52 53.14C354.027 53.62 353.64 54.1933 353.36 54.86C353.093 55.5133 352.96 56.2267 352.96 57C352.96 57.76 353.093 58.4733 353.36 59.14C353.64 59.7933 354.027 60.3667 354.52 60.86C355.027 61.34 355.62 61.7133 356.3 61.98C356.98 62.2467 357.72 62.38 358.52 62.38C359.267 62.38 359.98 62.2667 360.66 62.04C361.353 61.8 361.993 61.4067 362.58 60.86L363.72 62.38C363.027 62.9667 362.213 63.4133 361.28 63.72C360.36 64.0133 359.407 64.16 358.42 64.16ZM361.8 62.12V56.92H363.72V62.38L361.8 62.12ZM372.009 64.12C370.943 64.12 369.996 63.8867 369.169 63.42C368.343 62.9533 367.689 62.3133 367.209 61.5C366.729 60.6733 366.489 59.74 366.489 58.7C366.489 57.6467 366.729 56.7133 367.209 55.9C367.689 55.0867 368.343 54.4533 369.169 54C369.996 53.5333 370.943 53.3 372.009 53.3C373.063 53.3 374.003 53.5333 374.829 54C375.669 54.4533 376.323 55.0867 376.789 55.9C377.269 56.7 377.509 57.6333 377.509 58.7C377.509 59.7533 377.269 60.6867 376.789 61.5C376.323 62.3133 375.669 62.9533 374.829 63.42C374.003 63.8867 373.063 64.12 372.009 64.12ZM372.009 62.44C372.689 62.44 373.296 62.2867 373.829 61.98C374.376 61.6733 374.803 61.24 375.109 60.68C375.416 60.1067 375.569 59.4467 375.569 58.7C375.569 57.94 375.416 57.2867 375.109 56.74C374.803 56.18 374.376 55.7467 373.829 55.44C373.296 55.1333 372.689 54.98 372.009 54.98C371.329 54.98 370.723 55.1333 370.189 55.44C369.656 55.7467 369.229 56.18 368.909 56.74C368.589 57.2867 368.429 57.94 368.429 58.7C368.429 59.4467 368.589 60.1067 368.909 60.68C369.229 61.24 369.656 61.6733 370.189 61.98C370.723 62.2867 371.329 62.44 372.009 62.44ZM384.905 64.12C383.838 64.12 382.891 63.8867 382.065 63.42C381.238 62.9533 380.585 62.3133 380.105 61.5C379.625 60.6733 379.385 59.74 379.385 58.7C379.385 57.6467 379.625 56.7133 380.105 55.9C380.585 55.0867 381.238 54.4533 382.065 54C382.891 53.5333 383.838 53.3 384.905 53.3C385.958 53.3 386.898 53.5333 387.725 54C388.565 54.4533 389.218 55.0867 389.685 55.9C390.165 56.7 390.405 57.6333 390.405 58.7C390.405 59.7533 390.165 60.6867 389.685 61.5C389.218 62.3133 388.565 62.9533 387.725 63.42C386.898 63.8867 385.958 64.12 384.905 64.12ZM384.905 62.44C385.585 62.44 386.191 62.2867 386.725 61.98C387.271 61.6733 387.698 61.24 388.005 60.68C388.311 60.1067 388.465 59.4467 388.465 58.7C388.465 57.94 388.311 57.2867 388.005 56.74C387.698 56.18 387.271 55.7467 386.725 55.44C386.191 55.1333 385.585 54.98 384.905 54.98C384.225 54.98 383.618 55.1333 383.085 55.44C382.551 55.7467 382.125 56.18 381.805 56.74C381.485 57.2867 381.325 57.94 381.325 58.7C381.325 59.4467 381.485 60.1067 381.805 60.68C382.125 61.24 382.551 61.6733 383.085 61.98C383.618 62.2867 384.225 62.44 384.905 62.44ZM397.9 68C396.927 68 395.98 67.86 395.06 67.58C394.153 67.3133 393.413 66.9267 392.84 66.42L393.76 64.94C394.253 65.3667 394.86 65.7 395.58 65.94C396.3 66.1933 397.053 66.32 397.84 66.32C399.093 66.32 400.013 66.0267 400.6 65.44C401.187 64.8533 401.48 63.96 401.48 62.76V60.52L401.68 58.42L401.58 56.3V53.4H403.4V62.56C403.4 64.4267 402.933 65.8 402 66.68C401.067 67.56 399.7 68 397.9 68ZM397.66 63.56C396.633 63.56 395.713 63.3467 394.9 62.92C394.1 62.48 393.46 61.8733 392.98 61.1C392.513 60.3267 392.28 59.4333 392.28 58.42C392.28 57.3933 392.513 56.5 392.98 55.74C393.46 54.9667 394.1 54.3667 394.9 53.94C395.713 53.5133 396.633 53.3 397.66 53.3C398.567 53.3 399.393 53.4867 400.14 53.86C400.887 54.22 401.48 54.78 401.92 55.54C402.373 56.3 402.6 57.26 402.6 58.42C402.6 59.5667 402.373 60.52 401.92 61.28C401.48 62.04 400.887 62.6133 400.14 63C399.393 63.3733 398.567 63.56 397.66 63.56ZM397.88 61.88C398.587 61.88 399.213 61.7333 399.76 61.44C400.307 61.1467 400.733 60.74 401.04 60.22C401.36 59.7 401.52 59.1 401.52 58.42C401.52 57.74 401.36 57.14 401.04 56.62C400.733 56.1 400.307 55.7 399.76 55.42C399.213 55.1267 398.587 54.98 397.88 54.98C397.173 54.98 396.54 55.1267 395.98 55.42C395.433 55.7 395 56.1 394.68 56.62C394.373 57.14 394.22 57.74 394.22 58.42C394.22 59.1 394.373 59.7 394.68 60.22C395 60.74 395.433 61.1467 395.98 61.44C396.54 61.7333 397.173 61.88 397.88 61.88ZM407.268 64V49.16H409.188V64H407.268ZM417.774 64.12C416.641 64.12 415.641 63.8867 414.774 63.42C413.921 62.9533 413.254 62.3133 412.774 61.5C412.308 60.6867 412.074 59.7533 412.074 58.7C412.074 57.6467 412.301 56.7133 412.754 55.9C413.221 55.0867 413.854 54.4533 414.654 54C415.468 53.5333 416.381 53.3 417.394 53.3C418.421 53.3 419.328 53.5267 420.114 53.98C420.901 54.4333 421.514 55.0733 421.954 55.9C422.408 56.7133 422.634 57.6667 422.634 58.76C422.634 58.84 422.628 58.9333 422.614 59.04C422.614 59.1467 422.608 59.2467 422.594 59.34H413.574V57.96H421.594L420.814 58.44C420.828 57.76 420.688 57.1533 420.394 56.62C420.101 56.0867 419.694 55.6733 419.174 55.38C418.668 55.0733 418.074 54.92 417.394 54.92C416.728 54.92 416.134 55.0733 415.614 55.38C415.094 55.6733 414.688 56.0933 414.394 56.64C414.101 57.1733 413.954 57.7867 413.954 58.48V58.8C413.954 59.5067 414.114 60.14 414.434 60.7C414.768 61.2467 415.228 61.6733 415.814 61.98C416.401 62.2867 417.074 62.44 417.834 62.44C418.461 62.44 419.028 62.3333 419.534 62.12C420.054 61.9067 420.508 61.5867 420.894 61.16L421.954 62.4C421.474 62.96 420.874 63.3867 420.154 63.68C419.448 63.9733 418.654 64.12 417.774 64.12ZM431.352 64V50H436.812C438.038 50 439.085 50.1933 439.952 50.58C440.818 50.9667 441.485 51.5267 441.952 52.26C442.418 52.9933 442.652 53.8667 442.652 54.88C442.652 55.8933 442.418 56.7667 441.952 57.5C441.485 58.22 440.818 58.78 439.952 59.18C439.085 59.5667 438.038 59.76 436.812 59.76H432.452L433.352 58.82V64H431.352ZM433.352 59.02L432.452 58.02H436.752C438.032 58.02 438.998 57.7467 439.652 57.2C440.318 56.6533 440.652 55.88 440.652 54.88C440.652 53.88 440.318 53.1067 439.652 52.56C438.998 52.0133 438.032 51.74 436.752 51.74H432.452L433.352 50.74V59.02ZM445.705 64V49.16H447.625V64H445.705ZM458.071 64V61.76L457.971 61.34V57.52C457.971 56.7067 457.731 56.08 457.251 55.64C456.784 55.1867 456.078 54.96 455.131 54.96C454.504 54.96 453.891 55.0667 453.291 55.28C452.691 55.48 452.184 55.7533 451.771 56.1L450.971 54.66C451.518 54.22 452.171 53.8867 452.931 53.66C453.704 53.42 454.511 53.3 455.351 53.3C456.804 53.3 457.924 53.6533 458.711 54.36C459.498 55.0667 459.891 56.1467 459.891 57.6V64H458.071ZM454.591 64.12C453.804 64.12 453.111 63.9867 452.511 63.72C451.924 63.4533 451.471 63.0867 451.151 62.62C450.831 62.14 450.671 61.6 450.671 61C450.671 60.4267 450.804 59.9067 451.071 59.44C451.351 58.9733 451.798 58.6 452.411 58.32C453.038 58.04 453.878 57.9 454.931 57.9H458.291V59.28H455.011C454.051 59.28 453.404 59.44 453.071 59.76C452.738 60.08 452.571 60.4667 452.571 60.92C452.571 61.44 452.778 61.86 453.191 62.18C453.604 62.4867 454.178 62.64 454.911 62.64C455.631 62.64 456.258 62.48 456.791 62.16C457.338 61.84 457.731 61.3733 457.971 60.76L458.351 62.08C458.098 62.7067 457.651 63.2067 457.011 63.58C456.371 63.94 455.564 64.12 454.591 64.12ZM463.909 68C463.402 68 462.909 67.9133 462.429 67.74C461.949 67.58 461.536 67.34 461.189 67.02L462.009 65.58C462.276 65.8333 462.569 66.0267 462.889 66.16C463.209 66.2933 463.549 66.36 463.909 66.36C464.376 66.36 464.762 66.24 465.069 66C465.376 65.76 465.662 65.3333 465.929 64.72L466.589 63.26L466.789 63.02L470.949 53.4H472.829L467.689 65.06C467.382 65.8067 467.036 66.3933 466.649 66.82C466.276 67.2467 465.862 67.5467 465.409 67.72C464.956 67.9067 464.456 68 463.909 68ZM466.429 64.34L461.589 53.4H463.589L467.709 62.84L466.429 64.34Z" fill="#252B42"/>
<rect x="262.5" y="2.5" width="249" height="87" rx="4.5" stroke="#BDBDBD"/>
</g>
<defs>
<filter id="filter0_d_397_625" x="0" y="0" width="256" height="96" filterUnits="userSpaceOnUse" color-interpolation-filters="sRGB">
<feFlood flood-opacity="0" result="BackgroundImageFix"/>
<feColorMatrix in="SourceAlpha" type="matrix" values="0 0 0 0 0 0 0 0 0 0 0 0 0 0 0 0 0 0 127 0" result="hardAlpha"/>
<feOffset dy="2"/>
<feGaussianBlur stdDeviation="2"/>
<feColorMatrix type="matrix" values="0 0 0 0 0 0 0 0 0 0 0 0 0 0 0 0 0 0 0.1 0"/>
<feBlend mode="normal" in2="BackgroundImageFix" result="effect1_dropShadow_397_625"/>
<feBlend mode="normal" in="SourceGraphic" in2="effect1_dropShadow_397_625" result="shape"/>
</filter>
<filter id="filter1_d_397_625" x="258" y="0" width="258" height="96" filterUnits="userSpaceOnUse" color-interpolation-filters="sRGB">
<feFlood flood-opacity="0" result="BackgroundImageFix"/>
<feColorMatrix in="SourceAlpha" type="matrix" values="0 0 0 0 0 0 0 0 0 0 0 0 0 0 0 0 0 0 127 0" result="hardAlpha"/>
<feOffset dy="2"/>
<feGaussianBlur stdDeviation="2"/>
<feColorMatrix type="matrix" values="0 0 0 0 0 0 0 0 0 0 0 0 0 0 0 0 0 0 0.1 0"/>
<feBlend mode="normal" in2="BackgroundImageFix" result="effect1_dropShadow_397_625"/>
<feBlend mode="normal" in="SourceGraphic" in2="effect1_dropShadow_397_625" result="shape"/>
</filter>
</defs>
</svg>
