<svg width="18" height="18" viewBox="0 0 18 18" fill="none" xmlns="http://www.w3.org/2000/svg">
<path d="M3.53033 6.21967C3.23744 5.92678 2.76256 5.92678 2.46967 6.21967C2.17678 6.51256 2.17678 6.98744 2.46967 7.28033L3.53033 6.21967ZM9 12.75L8.46967 13.2803C8.76256 13.5732 9.23744 13.5732 9.53033 13.2803L9 12.75ZM15.5303 7.28033C15.8232 6.98744 15.8232 6.51256 15.5303 6.21967C15.2374 5.92678 14.7626 5.92678 14.4697 6.21967L15.5303 7.28033ZM2.46967 7.28033L8.46967 13.2803L9.53033 12.2197L3.53033 6.21967L2.46967 7.28033ZM9.53033 13.2803L15.5303 7.28033L14.4697 6.21967L8.46967 12.2197L9.53033 13.2803Z" fill="black"/>
</svg>
