<svg width="30" height="30" viewBox="0 0 30 30" fill="none" xmlns="http://www.w3.org/2000/svg">
<path d="M20.5037 11.25H17.5V8.74999C17.5 7.45999 17.605 6.64749 19.4537 6.64749H20.5387C21.2287 6.64749 21.7887 6.08749 21.7887 5.39749V3.82999C21.7887 3.17624 21.2875 2.61749 20.635 2.57374C19.88 2.52249 19.1237 2.49874 18.3662 2.49999C14.975 2.49999 12.5 4.57124 12.5 8.37374V11.25H10C9.31 11.25 8.75 11.81 8.75 12.5V15C8.75 15.69 9.31 16.25 10 16.25L12.5 16.2487V26.25C12.5 26.94 13.06 27.5 13.75 27.5H16.25C16.94 27.5 17.5 26.94 17.5 26.25V16.2462L20.2175 16.245C20.8525 16.245 21.3862 15.7687 21.4587 15.1375L21.745 12.6425C21.8312 11.9012 21.2512 11.25 20.5037 11.25Z" fill="white"/>
</svg>
