<svg width="70" height="70" viewBox="0 0 70 70" fill="none" xmlns="http://www.w3.org/2000/svg">
<path fill-rule="evenodd" clip-rule="evenodd" d="M53.6665 11.667H16.3332C13.7665 11.667 11.6898 13.767 11.6898 16.3337L11.6665 58.3337L20.9998 49.0003H53.6665C56.2332 49.0003 58.3332 46.9003 58.3332 44.3337V16.3337C58.3332 13.767 56.2332 11.667 53.6665 11.667ZM23.3332 28.0003H46.6665C47.9498 28.0003 48.9998 29.0503 48.9998 30.3337C48.9998 31.617 47.9498 32.667 46.6665 32.667H23.3332C22.0498 32.667 20.9998 31.617 20.9998 30.3337C20.9998 29.0503 22.0498 28.0003 23.3332 28.0003ZM37.3332 39.667H23.3332C22.0498 39.667 20.9998 38.617 20.9998 37.3337C20.9998 36.0503 22.0498 35.0003 23.3332 35.0003H37.3332C38.6165 35.0003 39.6665 36.0503 39.6665 37.3337C39.6665 38.617 38.6165 39.667 37.3332 39.667ZM46.6665 25.667H23.3332C22.0498 25.667 20.9998 24.617 20.9998 23.3337C20.9998 22.0503 22.0498 21.0003 23.3332 21.0003H46.6665C47.9498 21.0003 48.9998 22.0503 48.9998 23.3337C48.9998 24.617 47.9498 25.667 46.6665 25.667Z" fill="#010303" fill-opacity="0.87"/>
</svg>
