<svg width="245" height="250" viewBox="0 0 245 250" fill="none" xmlns="http://www.w3.org/2000/svg">
<g filter="url(#filter0_d_924_1128)">
<rect x="15" y="11" width="215" height="220" rx="10" fill="white"/>
</g>
<ellipse cx="61.1704" cy="61" rx="23.0852" ry="22" fill="#F3F6FB"/>
<path fill-rule="evenodd" clip-rule="evenodd" d="M68.1666 54.1667H54.8333C53.9166 54.1667 53.175 54.9167 53.175 55.8334L53.1666 70.8334L56.5 67.5001H68.1666C69.0833 67.5001 69.8333 66.7501 69.8333 65.8334V55.8334C69.8333 54.9167 69.0833 54.1667 68.1666 54.1667ZM57.3333 60.0001H65.6666C66.125 60.0001 66.5 60.3751 66.5 60.8334C66.5 61.2917 66.125 61.6667 65.6666 61.6667H57.3333C56.875 61.6667 56.5 61.2917 56.5 60.8334C56.5 60.3751 56.875 60.0001 57.3333 60.0001ZM62.3333 64.1667H57.3333C56.875 64.1667 56.5 63.7917 56.5 63.3334C56.5 62.8751 56.875 62.5001 57.3333 62.5001H62.3333C62.7916 62.5001 63.1666 62.8751 63.1666 63.3334C63.1666 63.7917 62.7916 64.1667 62.3333 64.1667ZM65.6666 59.1667H57.3333C56.875 59.1667 56.5 58.7917 56.5 58.3334C56.5 57.8751 56.875 57.5001 57.3333 57.5001H65.6666C66.125 57.5001 66.5 57.8751 66.5 58.3334C66.5 58.7917 66.125 59.1667 65.6666 59.1667Z" fill="#010303" fill-opacity="0.87"/>
<path d="M47.272 191.112C46.2373 191.112 45.2827 190.872 44.408 190.392C43.544 189.901 42.856 189.224 42.344 188.36C41.8427 187.485 41.592 186.504 41.592 185.416C41.592 184.328 41.8427 183.352 42.344 182.488C42.856 181.624 43.544 180.952 44.408 180.472C45.2827 179.981 46.2373 179.736 47.272 179.736C48.3173 179.736 49.272 179.981 50.136 180.472C51.0107 180.952 51.6987 181.624 52.2 182.488C52.7013 183.352 52.952 184.328 52.952 185.416C52.952 186.504 52.7013 187.485 52.2 188.36C51.6987 189.224 51.0107 189.901 50.136 190.392C49.272 190.872 48.3173 191.112 47.272 191.112ZM47.272 189.528C48.008 189.528 48.664 189.363 49.24 189.032C49.816 188.691 50.264 188.211 50.584 187.592C50.9147 186.963 51.08 186.237 51.08 185.416C51.08 184.595 50.9147 183.875 50.584 183.256C50.264 182.637 49.816 182.163 49.24 181.832C48.664 181.501 48.008 181.336 47.272 181.336C46.536 181.336 45.88 181.501 45.304 181.832C44.728 182.163 44.2747 182.637 43.944 183.256C43.624 183.875 43.464 184.595 43.464 185.416C43.464 186.237 43.624 186.963 43.944 187.592C44.2747 188.211 44.728 188.691 45.304 189.032C45.88 189.363 46.536 189.528 47.272 189.528ZM59.1949 182.04C59.8882 182.04 60.5069 182.184 61.0509 182.472C61.6055 182.76 62.0375 183.187 62.3469 183.752C62.6562 184.317 62.8109 185 62.8109 185.8V191H61.0029V186.072C61.0029 185.283 60.8055 184.68 60.4109 184.264C60.0162 183.837 59.4775 183.624 58.7949 183.624C58.1122 183.624 57.5682 183.837 57.1629 184.264C56.7682 184.68 56.5709 185.283 56.5709 186.072V191H54.7469V182.184H56.5709V183.192C56.8695 182.829 57.2482 182.547 57.7069 182.344C58.1762 182.141 58.6722 182.04 59.1949 182.04ZM73.2175 186.376C73.2175 186.707 73.1962 187.005 73.1535 187.272H66.4175C66.4708 187.976 66.7322 188.541 67.2015 188.968C67.6708 189.395 68.2468 189.608 68.9295 189.608C69.9108 189.608 70.6042 189.197 71.0095 188.376H72.9775C72.7108 189.187 72.2255 189.853 71.5215 190.376C70.8282 190.888 69.9642 191.144 68.9295 191.144C68.0868 191.144 67.3295 190.957 66.6575 190.584C65.9962 190.2 65.4735 189.667 65.0895 188.984C64.7162 188.291 64.5295 187.491 64.5295 186.584C64.5295 185.677 64.7108 184.883 65.0735 184.2C65.4468 183.507 65.9642 182.973 66.6255 182.6C67.2975 182.227 68.0655 182.04 68.9295 182.04C69.7615 182.04 70.5028 182.221 71.1535 182.584C71.8042 182.947 72.3108 183.459 72.6735 184.12C73.0362 184.771 73.2175 185.523 73.2175 186.376ZM71.3135 185.8C71.3028 185.128 71.0628 184.589 70.5935 184.184C70.1242 183.779 69.5428 183.576 68.8495 183.576C68.2202 183.576 67.6815 183.779 67.2335 184.184C66.7855 184.579 66.5188 185.117 66.4335 185.8H71.3135ZM85.7128 179.88V181.368H80.9928V184.648H84.6728V186.136H80.9928V191H79.1688V179.88H85.7128ZM95.4831 186.376C95.4831 186.707 95.4618 187.005 95.4191 187.272H88.6831C88.7365 187.976 88.9978 188.541 89.4671 188.968C89.9365 189.395 90.5125 189.608 91.1951 189.608C92.1765 189.608 92.8698 189.197 93.2751 188.376H95.2431C94.9765 189.187 94.4911 189.853 93.7871 190.376C93.0938 190.888 92.2298 191.144 91.1951 191.144C90.3525 191.144 89.5951 190.957 88.9231 190.584C88.2618 190.2 87.7391 189.667 87.3551 188.984C86.9818 188.291 86.7951 187.491 86.7951 186.584C86.7951 185.677 86.9765 184.883 87.3391 184.2C87.7125 183.507 88.2298 182.973 88.8911 182.6C89.5631 182.227 90.3311 182.04 91.1951 182.04C92.0271 182.04 92.7685 182.221 93.4191 182.584C94.0698 182.947 94.5765 183.459 94.9391 184.12C95.3018 184.771 95.4831 185.523 95.4831 186.376ZM93.5791 185.8C93.5685 185.128 93.3285 184.589 92.8591 184.184C92.3898 183.779 91.8085 183.576 91.1151 183.576C90.4858 183.576 89.9471 183.779 89.4991 184.184C89.0511 184.579 88.7845 185.117 88.6991 185.8H93.5791ZM105.358 186.376C105.358 186.707 105.337 187.005 105.294 187.272H98.5581C98.6115 187.976 98.8728 188.541 99.3421 188.968C99.8115 189.395 100.387 189.608 101.07 189.608C102.051 189.608 102.745 189.197 103.15 188.376H105.118C104.851 189.187 104.366 189.853 103.662 190.376C102.969 190.888 102.105 191.144 101.07 191.144C100.227 191.144 99.4701 190.957 98.7981 190.584C98.1368 190.2 97.6141 189.667 97.2301 188.984C96.8568 188.291 96.6701 187.491 96.6701 186.584C96.6701 185.677 96.8515 184.883 97.2141 184.2C97.5875 183.507 98.1048 182.973 98.7661 182.6C99.4381 182.227 100.206 182.04 101.07 182.04C101.902 182.04 102.643 182.221 103.294 182.584C103.945 182.947 104.451 183.459 104.814 184.12C105.177 184.771 105.358 185.523 105.358 186.376ZM103.454 185.8C103.443 185.128 103.203 184.589 102.734 184.184C102.265 183.779 101.683 183.576 100.99 183.576C100.361 183.576 99.8221 183.779 99.3741 184.184C98.9261 184.579 98.6595 185.117 98.5741 185.8H103.454ZM106.545 186.552C106.545 185.667 106.726 184.883 107.089 184.2C107.462 183.517 107.964 182.989 108.593 182.616C109.233 182.232 109.942 182.04 110.721 182.04C111.297 182.04 111.862 182.168 112.417 182.424C112.982 182.669 113.43 183 113.761 183.416V179.16H115.601V191H113.761V189.672C113.462 190.099 113.046 190.451 112.513 190.728C111.99 191.005 111.388 191.144 110.705 191.144C109.937 191.144 109.233 190.952 108.593 190.568C107.964 190.173 107.462 189.629 107.089 188.936C106.726 188.232 106.545 187.437 106.545 186.552ZM113.761 186.584C113.761 185.976 113.633 185.448 113.377 185C113.132 184.552 112.806 184.211 112.401 183.976C111.996 183.741 111.558 183.624 111.089 183.624C110.62 183.624 110.182 183.741 109.777 183.976C109.372 184.2 109.041 184.536 108.785 184.984C108.54 185.421 108.417 185.944 108.417 186.552C108.417 187.16 108.54 187.693 108.785 188.152C109.041 188.611 109.372 188.963 109.777 189.208C110.193 189.443 110.63 189.56 111.089 189.56C111.558 189.56 111.996 189.443 112.401 189.208C112.806 188.973 113.132 188.632 113.377 188.184C113.633 187.725 113.761 187.192 113.761 186.584ZM119.821 183.496C120.13 183.069 120.552 182.723 121.085 182.456C121.629 182.179 122.232 182.04 122.893 182.04C123.672 182.04 124.376 182.227 125.005 182.6C125.634 182.973 126.13 183.507 126.493 184.2C126.856 184.883 127.037 185.667 127.037 186.552C127.037 187.437 126.856 188.232 126.493 188.936C126.13 189.629 125.629 190.173 124.989 190.568C124.36 190.952 123.661 191.144 122.893 191.144C122.21 191.144 121.602 191.011 121.069 190.744C120.546 190.477 120.13 190.136 119.821 189.72V191H117.997V179.16H119.821V183.496ZM125.181 186.552C125.181 185.944 125.053 185.421 124.797 184.984C124.552 184.536 124.221 184.2 123.805 183.976C123.4 183.741 122.962 183.624 122.493 183.624C122.034 183.624 121.597 183.741 121.181 183.976C120.776 184.211 120.445 184.552 120.189 185C119.944 185.448 119.821 185.976 119.821 186.584C119.821 187.192 119.944 187.725 120.189 188.184C120.445 188.632 120.776 188.973 121.181 189.208C121.597 189.443 122.034 189.56 122.493 189.56C122.962 189.56 123.4 189.443 123.805 189.208C124.221 188.963 124.552 188.611 124.797 188.152C125.053 187.693 125.181 187.16 125.181 186.552ZM128.233 186.552C128.233 185.667 128.414 184.883 128.777 184.2C129.15 183.517 129.651 182.989 130.281 182.616C130.921 182.232 131.625 182.04 132.393 182.04C133.086 182.04 133.689 182.179 134.201 182.456C134.723 182.723 135.139 183.059 135.449 183.464V182.184H137.289V191H135.449V189.688C135.139 190.104 134.718 190.451 134.185 190.728C133.651 191.005 133.043 191.144 132.361 191.144C131.603 191.144 130.91 190.952 130.281 190.568C129.651 190.173 129.15 189.629 128.777 188.936C128.414 188.232 128.233 187.437 128.233 186.552ZM135.449 186.584C135.449 185.976 135.321 185.448 135.065 185C134.819 184.552 134.494 184.211 134.089 183.976C133.683 183.741 133.246 183.624 132.777 183.624C132.307 183.624 131.87 183.741 131.465 183.976C131.059 184.2 130.729 184.536 130.473 184.984C130.227 185.421 130.105 185.944 130.105 186.552C130.105 187.16 130.227 187.693 130.473 188.152C130.729 188.611 131.059 188.963 131.465 189.208C131.881 189.443 132.318 189.56 132.777 189.56C133.246 189.56 133.683 189.443 134.089 189.208C134.494 188.973 134.819 188.632 135.065 188.184C135.321 187.725 135.449 187.192 135.449 186.584ZM139.076 186.584C139.076 185.677 139.258 184.883 139.62 184.2C139.994 183.507 140.506 182.973 141.156 182.6C141.807 182.227 142.554 182.04 143.396 182.04C144.463 182.04 145.343 182.296 146.036 182.808C146.74 183.309 147.215 184.029 147.46 184.968H145.492C145.332 184.531 145.076 184.189 144.724 183.944C144.372 183.699 143.93 183.576 143.396 183.576C142.65 183.576 142.052 183.843 141.604 184.376C141.167 184.899 140.948 185.635 140.948 186.584C140.948 187.533 141.167 188.275 141.604 188.808C142.052 189.341 142.65 189.608 143.396 189.608C144.452 189.608 145.151 189.144 145.492 188.216H147.46C147.204 189.112 146.724 189.827 146.02 190.36C145.316 190.883 144.442 191.144 143.396 191.144C142.554 191.144 141.807 190.957 141.156 190.584C140.506 190.2 139.994 189.667 139.62 188.984C139.258 188.291 139.076 187.491 139.076 186.584ZM152.766 186.6L156.83 191H154.366L151.102 187.208V191H149.278V179.16H151.102V186.04L154.302 182.184H156.83L152.766 186.6Z" fill="#7F5AF0"/>
<path d="M56.1932 119.808H45.4732V126.176C45.9212 125.579 46.5825 125.077 47.4572 124.672C48.3532 124.267 49.3025 124.064 50.3052 124.064C52.0972 124.064 53.5478 124.448 54.6572 125.216C55.7878 125.984 56.5878 126.955 57.0572 128.128C57.5478 129.301 57.7932 130.539 57.7932 131.84C57.7932 133.419 57.4838 134.827 56.8652 136.064C56.2678 137.28 55.3612 138.24 54.1452 138.944C52.9505 139.648 51.4785 140 49.7292 140C47.4038 140 45.5372 139.424 44.1292 138.272C42.7212 137.12 41.8785 135.595 41.6012 133.696H45.1532C45.3878 134.699 45.9105 135.499 46.7212 136.096C47.5318 136.672 48.5452 136.96 49.7612 136.96C51.2758 136.96 52.4065 136.501 53.1532 135.584C53.9212 134.667 54.3052 133.451 54.3052 131.936C54.3052 130.4 53.9212 129.227 53.1532 128.416C52.3852 127.584 51.2545 127.168 49.7612 127.168C48.7158 127.168 47.8305 127.435 47.1052 127.968C46.4012 128.48 45.8892 129.184 45.5692 130.08H42.1132V116.608H56.1932V119.808ZM85.9352 124.384C85.9352 125.515 85.6685 126.581 85.1352 127.584C84.6018 128.587 83.7485 129.408 82.5752 130.048C81.4018 130.667 79.8978 130.976 78.0632 130.976H74.0312V140H70.3832V117.76H78.0632C79.7698 117.76 81.2098 118.059 82.3832 118.656C83.5778 119.232 84.4632 120.021 85.0392 121.024C85.6365 122.027 85.9352 123.147 85.9352 124.384ZM78.0632 128C79.4498 128 80.4845 127.691 81.1672 127.072C81.8498 126.432 82.1912 125.536 82.1912 124.384C82.1912 121.952 80.8152 120.736 78.0632 120.736H74.0312V128H78.0632ZM97.0624 140.288C95.3984 140.288 93.8944 139.915 92.5504 139.168C91.2064 138.4 90.1504 137.333 89.3824 135.968C88.6144 134.581 88.2304 132.981 88.2304 131.168C88.2304 129.376 88.6251 127.787 89.4144 126.4C90.2037 125.013 91.2811 123.947 92.6464 123.2C94.0117 122.453 95.5371 122.08 97.2224 122.08C98.9077 122.08 100.433 122.453 101.798 123.2C103.164 123.947 104.241 125.013 105.03 126.4C105.82 127.787 106.214 129.376 106.214 131.168C106.214 132.96 105.809 134.549 104.998 135.936C104.188 137.323 103.078 138.4 101.67 139.168C100.284 139.915 98.7477 140.288 97.0624 140.288ZM97.0624 137.12C98.0011 137.12 98.8757 136.896 99.6864 136.448C100.518 136 101.19 135.328 101.702 134.432C102.214 133.536 102.47 132.448 102.47 131.168C102.47 129.888 102.225 128.811 101.734 127.936C101.244 127.04 100.593 126.368 99.7824 125.92C98.9717 125.472 98.0971 125.248 97.1584 125.248C96.2197 125.248 95.3451 125.472 94.5344 125.92C93.7451 126.368 93.1157 127.04 92.6464 127.936C92.1771 128.811 91.9424 129.888 91.9424 131.168C91.9424 133.067 92.4224 134.539 93.3824 135.584C94.3637 136.608 95.5904 137.12 97.0624 137.12ZM111.677 120.032C111.015 120.032 110.461 119.808 110.013 119.36C109.565 118.912 109.341 118.357 109.341 117.696C109.341 117.035 109.565 116.48 110.013 116.032C110.461 115.584 111.015 115.36 111.677 115.36C112.317 115.36 112.861 115.584 113.309 116.032C113.757 116.48 113.981 117.035 113.981 117.696C113.981 118.357 113.757 118.912 113.309 119.36C112.861 119.808 112.317 120.032 111.677 120.032ZM113.469 122.368V140H109.821V122.368H113.469ZM127.154 122.08C128.541 122.08 129.778 122.368 130.866 122.944C131.975 123.52 132.839 124.373 133.458 125.504C134.077 126.635 134.386 128 134.386 129.6V140H130.77V130.144C130.77 128.565 130.375 127.36 129.586 126.528C128.797 125.675 127.719 125.248 126.354 125.248C124.989 125.248 123.901 125.675 123.09 126.528C122.301 127.36 121.906 128.565 121.906 130.144V140H118.258V122.368H121.906V124.384C122.503 123.659 123.261 123.093 124.178 122.688C125.117 122.283 126.109 122.08 127.154 122.08ZM143.295 125.344V135.104C143.295 135.765 143.445 136.245 143.743 136.544C144.063 136.821 144.597 136.96 145.343 136.96H147.583V140H144.703C143.061 140 141.802 139.616 140.927 138.848C140.053 138.08 139.615 136.832 139.615 135.104V125.344H137.535V122.368H139.615V117.984H143.295V122.368H147.583V125.344H143.295ZM157.346 140.288C155.959 140.288 154.711 140.043 153.602 139.552C152.514 139.04 151.65 138.357 151.01 137.504C150.37 136.629 150.028 135.659 149.986 134.592H153.762C153.826 135.339 154.178 135.968 154.818 136.48C155.479 136.971 156.3 137.216 157.282 137.216C158.306 137.216 159.095 137.024 159.65 136.64C160.226 136.235 160.514 135.723 160.514 135.104C160.514 134.443 160.194 133.952 159.554 133.632C158.935 133.312 157.943 132.96 156.578 132.576C155.255 132.213 154.178 131.861 153.346 131.52C152.514 131.179 151.788 130.656 151.17 129.952C150.572 129.248 150.274 128.32 150.274 127.168C150.274 126.229 150.551 125.376 151.106 124.608C151.66 123.819 152.45 123.2 153.474 122.752C154.519 122.304 155.714 122.08 157.058 122.08C159.063 122.08 160.674 122.592 161.89 123.616C163.127 124.619 163.788 125.995 163.874 127.744H160.226C160.162 126.955 159.842 126.325 159.266 125.856C158.69 125.387 157.911 125.152 156.93 125.152C155.97 125.152 155.234 125.333 154.722 125.696C154.21 126.059 153.954 126.539 153.954 127.136C153.954 127.605 154.124 128 154.466 128.32C154.807 128.64 155.223 128.896 155.714 129.088C156.204 129.259 156.93 129.483 157.89 129.76C159.17 130.101 160.215 130.453 161.026 130.816C161.858 131.157 162.572 131.669 163.17 132.352C163.767 133.035 164.076 133.941 164.098 135.072C164.098 136.075 163.82 136.971 163.266 137.76C162.711 138.549 161.922 139.168 160.898 139.616C159.895 140.064 158.711 140.288 157.346 140.288Z" fill="black"/>
<path d="M108.712 55.49V57.164H103.402V60.854H107.542V62.528H103.402V68H101.35V55.49H108.712ZM119.704 62.798C119.704 63.17 119.68 63.506 119.632 63.806H112.054C112.114 64.598 112.408 65.234 112.936 65.714C113.464 66.194 114.112 66.434 114.88 66.434C115.984 66.434 116.764 65.972 117.22 65.048H119.434C119.134 65.96 118.588 66.71 117.796 67.298C117.016 67.874 116.044 68.162 114.88 68.162C113.932 68.162 113.08 67.952 112.324 67.532C111.58 67.1 110.992 66.5 110.56 65.732C110.14 64.952 109.93 64.052 109.93 63.032C109.93 62.012 110.134 61.118 110.542 60.35C110.962 59.57 111.544 58.97 112.288 58.55C113.044 58.13 113.908 57.92 114.88 57.92C115.816 57.92 116.65 58.124 117.382 58.532C118.114 58.94 118.684 59.516 119.092 60.26C119.5 60.992 119.704 61.838 119.704 62.798ZM117.562 62.15C117.55 61.394 117.28 60.788 116.752 60.332C116.224 59.876 115.57 59.648 114.79 59.648C114.082 59.648 113.476 59.876 112.972 60.332C112.468 60.776 112.168 61.382 112.072 62.15H117.562ZM130.813 62.798C130.813 63.17 130.789 63.506 130.741 63.806H123.163C123.223 64.598 123.517 65.234 124.045 65.714C124.573 66.194 125.221 66.434 125.989 66.434C127.093 66.434 127.873 65.972 128.329 65.048H130.543C130.243 65.96 129.697 66.71 128.905 67.298C128.125 67.874 127.153 68.162 125.989 68.162C125.041 68.162 124.189 67.952 123.433 67.532C122.689 67.1 122.101 66.5 121.669 65.732C121.249 64.952 121.039 64.052 121.039 63.032C121.039 62.012 121.243 61.118 121.651 60.35C122.071 59.57 122.653 58.97 123.397 58.55C124.153 58.13 125.017 57.92 125.989 57.92C126.925 57.92 127.759 58.124 128.491 58.532C129.223 58.94 129.793 59.516 130.201 60.26C130.609 60.992 130.813 61.838 130.813 62.798ZM128.671 62.15C128.659 61.394 128.389 60.788 127.861 60.332C127.333 59.876 126.679 59.648 125.899 59.648C125.191 59.648 124.585 59.876 124.081 60.332C123.577 60.776 123.277 61.382 123.181 62.15H128.671ZM132.148 62.996C132.148 62 132.352 61.118 132.76 60.35C133.18 59.582 133.744 58.988 134.452 58.568C135.172 58.136 135.97 57.92 136.846 57.92C137.494 57.92 138.13 58.064 138.754 58.352C139.39 58.628 139.894 59 140.266 59.468V54.68H142.336V68H140.266V66.506C139.93 66.986 139.462 67.382 138.862 67.694C138.274 68.006 137.596 68.162 136.828 68.162C135.964 68.162 135.172 67.946 134.452 67.514C133.744 67.07 133.18 66.458 132.76 65.678C132.352 64.886 132.148 63.992 132.148 62.996ZM140.266 63.032C140.266 62.348 140.122 61.754 139.834 61.25C139.558 60.746 139.192 60.362 138.736 60.098C138.28 59.834 137.788 59.702 137.26 59.702C136.732 59.702 136.24 59.834 135.784 60.098C135.328 60.35 134.956 60.728 134.668 61.232C134.392 61.724 134.254 62.312 134.254 62.996C134.254 63.68 134.392 64.28 134.668 64.796C134.956 65.312 135.328 65.708 135.784 65.984C136.252 66.248 136.744 66.38 137.26 66.38C137.788 66.38 138.28 66.248 138.736 65.984C139.192 65.72 139.558 65.336 139.834 64.832C140.122 64.316 140.266 63.716 140.266 63.032ZM147.084 59.558C147.432 59.078 147.906 58.688 148.506 58.388C149.118 58.076 149.796 57.92 150.54 57.92C151.416 57.92 152.208 58.13 152.916 58.55C153.624 58.97 154.182 59.57 154.59 60.35C154.998 61.118 155.202 62 155.202 62.996C155.202 63.992 154.998 64.886 154.59 65.678C154.182 66.458 153.618 67.07 152.898 67.514C152.19 67.946 151.404 68.162 150.54 68.162C149.772 68.162 149.088 68.012 148.488 67.712C147.9 67.412 147.432 67.028 147.084 66.56V68H145.032V54.68H147.084V59.558ZM153.114 62.996C153.114 62.312 152.97 61.724 152.682 61.232C152.406 60.728 152.034 60.35 151.566 60.098C151.11 59.834 150.618 59.702 150.09 59.702C149.574 59.702 149.082 59.834 148.614 60.098C148.158 60.362 147.786 60.746 147.498 61.25C147.222 61.754 147.084 62.348 147.084 63.032C147.084 63.716 147.222 64.316 147.498 64.832C147.786 65.336 148.158 65.72 148.614 65.984C149.082 66.248 149.574 66.38 150.09 66.38C150.618 66.38 151.11 66.248 151.566 65.984C152.034 65.708 152.406 65.312 152.682 64.796C152.97 64.28 153.114 63.68 153.114 62.996ZM156.547 62.996C156.547 62 156.751 61.118 157.159 60.35C157.579 59.582 158.143 58.988 158.851 58.568C159.571 58.136 160.363 57.92 161.227 57.92C162.007 57.92 162.685 58.076 163.261 58.388C163.849 58.688 164.317 59.066 164.665 59.522V58.082H166.735V68H164.665V66.524C164.317 66.992 163.843 67.382 163.243 67.694C162.643 68.006 161.959 68.162 161.191 68.162C160.339 68.162 159.559 67.946 158.851 67.514C158.143 67.07 157.579 66.458 157.159 65.678C156.751 64.886 156.547 63.992 156.547 62.996ZM164.665 63.032C164.665 62.348 164.521 61.754 164.233 61.25C163.957 60.746 163.591 60.362 163.135 60.098C162.679 59.834 162.187 59.702 161.659 59.702C161.131 59.702 160.639 59.834 160.183 60.098C159.727 60.35 159.355 60.728 159.067 61.232C158.791 61.724 158.653 62.312 158.653 62.996C158.653 63.68 158.791 64.28 159.067 64.796C159.355 65.312 159.727 65.708 160.183 65.984C160.651 66.248 161.143 66.38 161.659 66.38C162.187 66.38 162.679 66.248 163.135 65.984C163.591 65.72 163.957 65.336 164.233 64.832C164.521 64.316 164.665 63.716 164.665 63.032ZM168.746 63.032C168.746 62.012 168.95 61.118 169.358 60.35C169.778 59.57 170.354 58.97 171.086 58.55C171.818 58.13 172.658 57.92 173.606 57.92C174.806 57.92 175.796 58.208 176.576 58.784C177.368 59.348 177.902 60.158 178.178 61.214H175.964C175.784 60.722 175.496 60.338 175.1 60.062C174.704 59.786 174.206 59.648 173.606 59.648C172.766 59.648 172.094 59.948 171.59 60.548C171.098 61.136 170.852 61.964 170.852 63.032C170.852 64.1 171.098 64.934 171.59 65.534C172.094 66.134 172.766 66.434 173.606 66.434C174.794 66.434 175.58 65.912 175.964 64.868H178.178C177.89 65.876 177.35 66.68 176.558 67.28C175.766 67.868 174.782 68.162 173.606 68.162C172.658 68.162 171.818 67.952 171.086 67.532C170.354 67.1 169.778 66.5 169.358 65.732C168.95 64.952 168.746 64.052 168.746 63.032ZM184.147 63.05L188.719 68H185.947L182.275 63.734V68H180.223V54.68H182.275V62.42L185.875 58.082H188.719L184.147 63.05Z" fill="#191C32"/>
<defs>
<filter id="filter0_d_924_1128" x="0" y="0" width="245" height="250" filterUnits="userSpaceOnUse" color-interpolation-filters="sRGB">
<feFlood flood-opacity="0" result="BackgroundImageFix"/>
<feColorMatrix in="SourceAlpha" type="matrix" values="0 0 0 0 0 0 0 0 0 0 0 0 0 0 0 0 0 0 127 0" result="hardAlpha"/>
<feOffset dy="4"/>
<feGaussianBlur stdDeviation="7.5"/>
<feComposite in2="hardAlpha" operator="out"/>
<feColorMatrix type="matrix" values="0 0 0 0 0 0 0 0 0 0 0 0 0 0 0 0 0 0 0.15 0"/>
<feBlend mode="normal" in2="BackgroundImageFix" result="effect1_dropShadow_924_1128"/>
<feBlend mode="normal" in="SourceGraphic" in2="effect1_dropShadow_924_1128" result="shape"/>
</filter>
</defs>
</svg>
