<svg width="44" height="44" viewBox="0 0 44 44" fill="none" xmlns="http://www.w3.org/2000/svg">
<circle cx="22" cy="22" r="22" fill="#F3F6FB"/>
<path fill-rule="evenodd" clip-rule="evenodd" d="M29.1667 14.1667H15.8334C14.9167 14.1667 14.1751 14.9167 14.1751 15.8334L14.1667 30.8334L17.5001 27.5001H29.1667C30.0834 27.5001 30.8334 26.7501 30.8334 25.8334V15.8334C30.8334 14.9167 30.0834 14.1667 29.1667 14.1667ZM18.3334 20.0001H26.6667C27.1251 20.0001 27.5001 20.3751 27.5001 20.8334C27.5001 21.2917 27.1251 21.6667 26.6667 21.6667H18.3334C17.8751 21.6667 17.5001 21.2917 17.5001 20.8334C17.5001 20.3751 17.8751 20.0001 18.3334 20.0001ZM23.3334 24.1667H18.3334C17.8751 24.1667 17.5001 23.7917 17.5001 23.3334C17.5001 22.8751 17.8751 22.5001 18.3334 22.5001H23.3334C23.7917 22.5001 24.1667 22.8751 24.1667 23.3334C24.1667 23.7917 23.7917 24.1667 23.3334 24.1667ZM26.6667 19.1667H18.3334C17.8751 19.1667 17.5001 18.7917 17.5001 18.3334C17.5001 17.8751 17.8751 17.5001 18.3334 17.5001H26.6667C27.1251 17.5001 27.5001 17.8751 27.5001 18.3334C27.5001 18.7917 27.1251 19.1667 26.6667 19.1667Z" fill="#010303" fill-opacity="0.87"/>
</svg>
