<svg width="40" height="40" viewBox="0 0 40 40" fill="none" xmlns="http://www.w3.org/2000/svg">
<path fill-rule="evenodd" clip-rule="evenodd" d="M30.6667 6.66699H9.33341C7.86675 6.66699 6.68008 7.86699 6.68008 9.33366L6.66675 33.3337L12.0001 28.0003H30.6667C32.1334 28.0003 33.3334 26.8003 33.3334 25.3337V9.33366C33.3334 7.86699 32.1334 6.66699 30.6667 6.66699ZM13.3334 16.0003H26.6667C27.4001 16.0003 28.0001 16.6003 28.0001 17.3337C28.0001 18.067 27.4001 18.667 26.6667 18.667H13.3334C12.6001 18.667 12.0001 18.067 12.0001 17.3337C12.0001 16.6003 12.6001 16.0003 13.3334 16.0003ZM21.3334 22.667H13.3334C12.6001 22.667 12.0001 22.067 12.0001 21.3337C12.0001 20.6003 12.6001 20.0003 13.3334 20.0003H21.3334C22.0667 20.0003 22.6667 20.6003 22.6667 21.3337C22.6667 22.067 22.0667 22.667 21.3334 22.667ZM26.6667 14.667H13.3334C12.6001 14.667 12.0001 14.067 12.0001 13.3337C12.0001 12.6003 12.6001 12.0003 13.3334 12.0003H26.6667C27.4001 12.0003 28.0001 12.6003 28.0001 13.3337C28.0001 14.067 27.4001 14.667 26.6667 14.667Z" fill="#2CB67D"/>
</svg>
