<svg width="50" height="50" viewBox="0 0 50 42" fill="none" xmlns="http://www.w3.org/2000/svg">
<path d="M49.9585 9.05968C50.1856 6.55195 49.4804 4.66518 47.8587 3.4551C46.3387 2.31667 44.3915 2.08845 43.0907 2.0858C43.1479 1.5962 43.1939 1.11455 43.2098 0.671387H6.78543C6.80132 1.11322 6.84738 1.5962 6.90773 2.0858C5.60374 2.08978 3.66126 2.31667 2.13808 3.4551C0.519609 4.66518 -0.185594 6.55195 0.0415324 9.05968C0.673674 16.0521 7.87024 21.9022 18.8708 24.4656C19.6935 25.0654 20.5321 25.5948 21.4025 25.965C21.3199 26.2277 21.2596 26.4984 21.2596 26.7823C21.2596 27.7456 21.7916 28.5961 22.6112 29.1693V37.9304H20.6592C18.7151 37.9304 16.9299 38.8313 16.023 40.2683L15.1081 41.7185H34.8903L33.9739 40.267C33.067 38.83 31.2833 37.9304 29.3376 37.9304H27.3872V29.1693C28.2084 28.5961 28.7373 27.7456 28.7373 26.7823C28.7373 26.4984 28.6785 26.2277 28.5943 25.965C29.4647 25.5948 30.3017 25.064 31.1276 24.4656C42.1282 21.9022 49.3247 16.0521 49.9585 9.05968ZM46.2768 4.94912C47.3044 5.72533 47.7428 7.05747 47.5697 8.90842C47.1631 13.4157 43.5211 17.4082 37.6412 20.1322C37.2489 20.3139 36.7566 20.2542 36.4437 19.9849C36.1292 19.7155 36.0704 19.3042 36.2975 18.9805C39.5043 14.4148 41.8391 8.66295 42.7698 4.088C43.6418 4.05749 45.1904 4.13046 46.2768 4.94912ZM2.42556 8.90974C2.2572 7.0588 2.69557 5.72665 3.72161 4.95045C4.80959 4.13046 6.35501 4.05881 7.22698 4.09066C8.15931 8.66561 10.4941 14.4161 13.6993 18.9818C13.928 19.3055 13.8661 19.7169 13.5532 19.9849C13.2387 20.2542 12.7495 20.3153 12.3556 20.1335C6.47889 17.4082 2.83376 13.4157 2.42556 8.90974Z" fill="#EDC967"/>
</svg>
