<svg width="2322" height="1525" viewBox="0 0 2322 1525" fill="none" xmlns="http://www.w3.org/2000/svg">
<path d="M206.615 1521.65C206.615 1521.65 -123.255 1319.65 50.6154 921.531C160.505 669.731 415.955 746.331 403.585 361.871C391.215 -22.5891 993.785 -55.6191 1185.59 55.8709C1377.39 167.361 1360.38 234.431 1754.19 173.651C2091.49 121.601 2180.19 494.831 2038.75 703.821C1867.75 956.481 2546.58 995.401 2198.85 1521.61L206.615 1521.65Z" fill="#F4F7FA"/>
<path d="M1480.22 1521.36H789.645L835.865 1340.22H1436.35L1480.22 1521.36Z" fill="#8C9DF4"/>
<path d="M1136.16 1363.04C1301.95 1363.04 1436.36 1352.82 1436.36 1340.22C1436.36 1327.62 1301.95 1317.4 1136.16 1317.4C970.359 1317.4 835.955 1327.62 835.955 1340.22C835.955 1352.82 970.359 1363.04 1136.16 1363.04Z" fill="#6980E2"/>
<path d="M1287.53 1471.99C1287.54 1475.05 1286.63 1478.05 1284.93 1480.59C1283.23 1483.14 1280.81 1485.13 1277.99 1486.3C1275.16 1487.47 1272.04 1487.78 1269.04 1487.18C1266.04 1486.59 1263.28 1485.11 1261.11 1482.95C1258.95 1480.78 1257.47 1478.03 1256.87 1475.02C1256.27 1472.02 1256.58 1468.91 1257.75 1466.08C1258.92 1463.25 1260.91 1460.83 1263.45 1459.13C1266 1457.43 1268.99 1456.52 1272.05 1456.52C1274.09 1456.52 1276.1 1456.92 1277.98 1457.69C1279.86 1458.47 1281.56 1459.61 1283 1461.05C1284.44 1462.48 1285.58 1464.19 1286.36 1466.07C1287.13 1467.94 1287.53 1469.96 1287.53 1471.99V1471.99Z" fill="#FFC440"/>
<path d="M1347.95 1471.99C1347.96 1475.05 1347.05 1478.05 1345.35 1480.59C1343.65 1483.14 1341.23 1485.13 1338.41 1486.3C1335.58 1487.47 1332.46 1487.78 1329.46 1487.18C1326.46 1486.59 1323.7 1485.11 1321.53 1482.95C1319.37 1480.78 1317.89 1478.03 1317.29 1475.02C1316.69 1472.02 1317 1468.91 1318.17 1466.08C1319.34 1463.25 1321.33 1460.83 1323.87 1459.13C1326.42 1457.43 1329.41 1456.52 1332.47 1456.52C1334.51 1456.52 1336.52 1456.92 1338.4 1457.69C1340.28 1458.47 1341.98 1459.61 1343.42 1461.05C1344.86 1462.48 1346 1464.19 1346.78 1466.07C1347.55 1467.94 1347.95 1469.96 1347.95 1471.99V1471.99Z" fill="#AEC3FF"/>
<path d="M1408.25 1471.99C1408.25 1475.05 1407.34 1478.05 1405.64 1480.59C1403.94 1483.14 1401.52 1485.13 1398.69 1486.3C1395.86 1487.47 1392.75 1487.78 1389.75 1487.18C1386.74 1486.59 1383.98 1485.11 1381.82 1482.95C1379.65 1480.78 1378.18 1478.02 1377.58 1475.02C1376.99 1472.01 1377.29 1468.9 1378.47 1466.07C1379.64 1463.24 1381.62 1460.82 1384.17 1459.12C1386.72 1457.42 1389.71 1456.52 1392.78 1456.52C1396.88 1456.52 1400.81 1458.15 1403.71 1461.05C1406.62 1463.95 1408.25 1467.89 1408.25 1471.99V1471.99Z" fill="#213F7A"/>
<path d="M405.025 1522.65H446.635C445.901 1517.6 444.792 1512.61 443.315 1507.72C442.677 1505.67 441.888 1503.66 440.955 1501.72C436.955 1493.65 411.205 1498.78 411.205 1498.78C411.205 1498.78 408.825 1500.78 406.955 1508.64C405.917 1513.25 405.272 1517.93 405.025 1522.65V1522.65Z" fill="#233862"/>
<path d="M481.405 887.131C481.405 887.131 514.555 892.951 522.055 912.521C529.555 932.091 571.895 1248.19 571.895 1248.19C571.895 1248.19 550.895 1264.8 505.895 1258.84C460.895 1252.88 481.405 887.131 481.405 887.131Z" fill="#8C9DF4"/>
<path d="M530.755 1509.52C530.865 1515.18 531.575 1520.52 533.635 1522.65H615.955C614.955 1519.65 611.955 1515.2 603.495 1513.83C593.895 1512.27 578.935 1507.65 570.195 1498.41C567.022 1495.18 564.792 1491.15 563.745 1486.74C559.875 1469.5 531.745 1492.02 531.745 1492.02C531.045 1497.83 530.715 1503.67 530.755 1509.52Z" fill="#233862"/>
<path d="M566.195 1501.14C556.995 1504.07 539.415 1513.03 528.255 1508.82C521.035 1506.1 480.695 1389.42 478.085 1338.38C477.693 1333.28 477.002 1328.2 476.015 1323.18C473.625 1310.01 469.445 1291.91 464.635 1271.94C451.725 1218.42 434.265 1151.48 434.635 1130.08C435.225 1096.87 533.635 1123.08 533.635 1123.08C533.635 1123.08 540.395 1150.33 541.745 1189.77C544.415 1268.06 551.745 1400.3 571.745 1492.14C572.098 1494.06 571.726 1496.04 570.7 1497.71C569.675 1499.37 568.07 1500.59 566.195 1501.14V1501.14Z" fill="#FFB91D"/>
<path d="M497.955 1130.2L445.955 1507.2C445.955 1507.2 423.115 1512.71 405.345 1508.3C405.345 1508.3 390.115 1307.82 391.345 1259.35C392.575 1210.88 380.405 1129.65 394.115 1120.65C407.825 1111.65 497.955 1130.2 497.955 1130.2Z" fill="#FFC440"/>
<path d="M387.535 904.401C387.535 904.401 442.195 869.061 481.405 887.131C487.645 890.011 494.775 898.051 499.875 903.671C514.045 919.291 541.735 1167.34 541.735 1167.34C541.735 1167.34 463.135 1193.96 387.535 1158.34V904.401Z" fill="white"/>
<path d="M484.515 886.24C484.515 886.24 539.845 908.91 547.345 926.34C554.845 943.77 579.195 1050.76 579.195 1063.34C579.195 1075.92 536.785 1066.15 529.955 1045.91C524.285 1029.11 505.165 977.48 495.075 944.83L484.515 886.24Z" fill="#8C9DF4"/>
<path d="M473.025 903.52C460.945 905.89 443.195 903.36 430.205 894.8C436.065 880.8 438.475 869.73 439.325 862.57C439.325 862.19 439.415 861.82 439.455 861.46C439.783 859.014 439.833 856.538 439.605 854.08H470.835C470.835 854.08 479.375 857.98 479.375 860.68C479.375 862.12 479.375 863.5 479.375 864.82C479.435 868.41 479.575 871.55 479.765 874.24C479.969 878.571 480.503 882.881 481.365 887.13C481.365 887.13 485.215 901.12 473.025 903.52Z" fill="#FFB27D"/>
<path d="M479.805 874.241C456.145 878.811 442.405 865.881 439.325 862.571C438.895 862.091 438.665 861.811 438.665 861.811C438.915 861.691 439.175 861.571 439.455 861.461C448.265 857.901 468.245 860.731 479.455 864.821C479.475 868.411 479.615 871.551 479.805 874.241Z" fill="#E2915A"/>
<path d="M431.606 848.95C435.826 871.7 465.185 870.95 477.875 869.52C481.445 869.13 483.695 868.67 483.695 868.67C487.695 867.59 489.966 861.25 491.016 852.95C493.086 836.51 490.465 812.37 487.695 806.2C483.515 796.91 475.635 786.87 446.065 794.12C416.495 801.37 426.176 819.79 431.606 848.95Z" fill="#FFB27D"/>
<path d="M488.795 793.509C484.795 787.909 476.185 781.079 468.395 776.869C451.675 767.819 430.285 777.149 430.195 777.189C406.045 787.809 399.735 806.289 412.535 835.069C426.075 865.509 438.965 862.069 438.965 862.069C438.965 862.069 436.235 860.369 436.485 850.879C436.485 850.339 436.485 849.879 436.545 849.509C436.627 848.549 436.489 847.583 436.143 846.684C435.796 845.785 435.25 844.977 434.545 844.319C431.545 841.639 430.085 833.539 432.545 831.319C435.545 828.599 439.835 831.899 441.195 834.439C441.455 834.877 441.802 835.256 442.214 835.554C442.626 835.852 443.095 836.063 443.592 836.172C444.089 836.282 444.603 836.289 445.102 836.192C445.601 836.095 446.076 835.897 446.495 835.609C454.015 830.859 449.135 821.349 456.315 815.539C463.495 809.729 478.075 814.609 488.845 809.969C502.955 804.699 491.835 797.719 488.795 793.509Z" fill="#233862"/>
<path d="M492.155 1271.41C487.395 1272.64 482.678 1273.64 478.005 1274.41C473.865 1275.11 469.735 1275.64 465.615 1275.99C442.215 1277.99 418.725 1274.73 391.255 1266.86C385.075 1265.08 378.675 1263.08 372.055 1260.86C371.345 1260.62 373.855 1188 376.755 1113.09C377.045 1105.36 377.355 1097.6 377.655 1089.89C377.782 1086.62 377.912 1083.37 378.045 1080.13C380.675 1013.88 383.275 954.05 383.825 950.83C385.085 943.54 386.255 937.32 387.535 931.94C391.275 916.24 395.925 907.64 406.055 900.23C407.055 899.49 415.145 895.4 422.285 891.85C428.215 888.85 433.465 886.34 433.465 886.34C435.825 887.49 438.645 892.89 441.615 900.47C447.055 914.47 452.925 935.82 457.005 951.79V951.87C459.635 962.18 461.525 970.21 462.005 972.52C462.915 976.41 464.125 983.94 465.545 994.15C467.465 1008.05 469.765 1026.91 472.195 1048.32C472.445 1050.52 472.695 1052.75 472.945 1054.99C473.232 1057.56 473.522 1060.16 473.815 1062.78C473.905 1063.63 474.005 1064.47 474.085 1065.31C475.025 1073.79 475.965 1082.54 476.905 1091.43C477.685 1098.78 488.835 1104.1 489.605 1111.58C490.045 1115.97 490.975 1156.48 492.165 1169.41C493.105 1178.65 492.495 1267.07 492.155 1271.41Z" fill="#8C9DF4"/>
<path d="M411.485 977.531C411.485 977.681 409.595 1044.53 459.875 1052.64C510.155 1060.75 476.745 1062.91 476.745 1062.91C476.745 1062.91 382.145 1058.91 380.575 1056.39C379.005 1053.87 411.485 977.531 411.485 977.531Z" fill="#6980E2"/>
<path d="M453.956 1081.33C453.956 1081.33 453.016 1082 451.206 1083.17L451.116 1083.23C443.436 1088.12 420.676 1101.47 387.526 1110.42C384.046 1111.36 380.446 1112.26 376.746 1113.08C377.036 1105.35 377.346 1097.59 377.646 1089.88C373.459 1089.57 369.297 1089 365.186 1088.15C365.316 1087.15 365.456 1086.15 365.586 1085.15C369.796 1083.42 373.996 1081.75 378.036 1080.15C381.326 1078.87 384.506 1077.64 387.526 1076.5C401.146 1071.33 411.236 1067.83 411.236 1067.83L451.546 1080.6L453.956 1081.33Z" fill="#6980E2"/>
<path d="M464.635 1080.22C464.635 1080.22 459.455 1081.51 451.215 1083.22H451.125C435.925 1086.22 410.365 1090.56 387.535 1090.33C384.165 1090.33 380.855 1090.16 377.655 1089.91C373.469 1089.6 369.307 1089.03 365.195 1088.18C356.845 1086.42 349.855 1083.44 345.285 1078.78C311.285 1044.19 363.815 920.051 374.855 907.971C387.745 893.861 411.255 888.971 424.245 887.221L425.815 887.021C430.375 886.481 433.305 886.361 433.465 886.361C433.465 886.361 432.465 889.631 430.745 895.181C430.085 897.331 429.315 899.821 428.465 902.601C420.465 928.721 405.105 980.061 398.315 1009.01C395.835 1019.6 394.505 1027.2 395.105 1029.47C397.755 1039.35 425.195 1044.47 442.575 1046.69C449.825 1047.62 455.335 1048.07 456.575 1048.16H456.825L457.825 1052.28L460.225 1062.17L462.595 1071.88L464.635 1080.22Z" fill="#8C9DF4"/>
<path d="M559.355 1139.72L442.725 1134.81L466.385 989.461L583.015 994.371L559.355 1139.72Z" fill="#233862"/>
<path d="M456.825 1048.15C456.825 1048.15 479.535 1046.57 480.675 1051.86C483.325 1064.19 461.155 1074.32 453.965 1073.63C446.775 1072.94 451.605 1047.33 456.825 1048.15Z" fill="#FFB27D"/>
<path d="M576.636 1023.89C576.636 1023.89 554.916 1017.1 552.636 1021.98C547.196 1033.37 566.426 1048.35 573.576 1049.34C580.726 1050.33 581.956 1024.3 576.636 1023.89Z" fill="#FFB27D"/>
<path d="M435.835 879.031C435.835 879.031 426.275 883.581 421.495 890.451C421.495 890.451 457.195 952.451 457.035 951.861C456.875 951.271 444.955 886.971 435.835 879.031Z" fill="#6980E2"/>
<path d="M480.295 879.9C483.445 881.09 489.475 887.27 490.835 890.68L495.075 944.8C495.075 944.8 486.015 905.08 481.405 887.13C480.744 884.774 480.371 882.346 480.295 879.9V879.9Z" fill="#6980E2"/>
<path d="M505.045 991.09C505.045 991.09 505.965 987.09 511.275 987.53C516.585 987.97 546.415 989.46 546.415 989.46C546.415 989.46 552.165 989.37 551.625 993.05L505.045 991.09Z" fill="#C65447"/>
<g opacity="0.4">
<path d="M1826.28 1522.55H1825.96C1825.29 1522.55 1824.63 1522.4 1824.02 1522.13C1823.41 1521.86 1822.86 1521.47 1822.42 1520.97C1821.97 1520.48 1821.62 1519.9 1821.41 1519.27C1821.2 1518.63 1821.12 1517.97 1821.18 1517.3L1840.18 1320.38L1856.76 1321.91L1829.48 1519.91C1829.36 1520.67 1828.97 1521.35 1828.38 1521.84C1827.79 1522.32 1827.04 1522.58 1826.28 1522.55V1522.55Z" fill="#8C9DF4"/>
<path d="M2009.25 1522.55H2009.6C2010.26 1522.55 2010.92 1522.4 2011.53 1522.13C2012.14 1521.86 2012.69 1521.47 2013.14 1520.97C2013.58 1520.48 2013.93 1519.9 2014.14 1519.27C2014.35 1518.63 2014.43 1517.97 2014.38 1517.3L1995.38 1320.38L1978.8 1321.91L2006.08 1519.91C2006.19 1520.66 2006.58 1521.34 2007.16 1521.83C2007.75 1522.31 2008.49 1522.57 2009.25 1522.55V1522.55Z" fill="#8C9DF4"/>
<path d="M2003.59 1292.76L2037.32 1126.19C2041.65 1103.64 2022.96 1083.02 1998.7 1083.57L1933.7 1085.06C1922.76 1085.31 1912.19 1089.04 1903.53 1095.71C1894.86 1102.38 1888.55 1111.65 1885.51 1122.15L1836.16 1292.76H2003.59Z" fill="#8C9DF4"/>
<path d="M1983.19 1292.76L2016.96 1126.19C2021.29 1103.64 2002.6 1083.02 1978.33 1083.57L1913.33 1085.06C1902.39 1085.31 1891.82 1089.04 1883.16 1095.71C1874.49 1102.38 1868.18 1111.65 1865.14 1122.15L1815.79 1292.76H1983.19Z" fill="#8C9DF4"/>
<path d="M1736.82 1292.76H2003.59V1313.76C2003.59 1316.25 2002.6 1318.65 2000.83 1320.41C1999.07 1322.17 1996.68 1323.16 1994.19 1323.16H1736.82C1734.32 1323.16 1731.93 1322.17 1730.17 1320.41C1728.41 1318.65 1727.42 1316.25 1727.42 1313.76V1302.18C1727.41 1300.95 1727.65 1299.72 1728.13 1298.58C1728.6 1297.44 1729.29 1296.4 1730.16 1295.52C1731.03 1294.65 1732.07 1293.95 1733.21 1293.48C1734.36 1293.01 1735.58 1292.76 1736.82 1292.76V1292.76Z" fill="#8C9DF4"/>
<path d="M1873.42 1292.76H1709.35C1705.16 1292.76 1701.78 1296.15 1701.78 1300.33V1315.57C1701.78 1319.75 1705.16 1323.14 1709.35 1323.14H1873.42C1877.6 1323.14 1880.99 1319.75 1880.99 1315.57V1300.33C1880.99 1296.15 1877.6 1292.76 1873.42 1292.76Z" fill="#8C9DF4"/>
</g>
<path d="M1865.57 942.97C1865.57 942.97 1873.22 919.34 1906.86 920.42C1906.86 920.42 1913.58 907.77 1929.73 909.93C1945.88 912.09 1954.73 970.46 1939.41 984.72C1924.09 998.98 1914.56 999.41 1914.56 999.41L1865.56 945.17L1865.57 942.97Z" fill="#A9453D"/>
<path d="M1874.59 1121.65L1847.26 1190.82C1847.26 1190.82 1820.91 1221.82 1799.74 1211.82L1866.74 1081.73L1874.59 1121.65Z" fill="#ABDDDA"/>
<path d="M1688.84 1501.65C1689.63 1509.29 1679 1511.27 1666.67 1512.02C1654.34 1512.77 1658.09 1515.25 1641.22 1518.49C1624.35 1521.73 1617.52 1517.18 1616.22 1514.91C1615.11 1512.91 1622.93 1509.64 1631.22 1505.97L1634.37 1504.57C1643.76 1500.32 1648.96 1491.81 1656.22 1483.89C1663.11 1476.39 1669.46 1452.54 1669.46 1452.54L1692.39 1447.39C1692.39 1447.39 1686.16 1468.86 1684.02 1478.02C1682.76 1483.4 1684.77 1489.39 1686.54 1493.94C1687.66 1496.4 1688.43 1498.99 1688.84 1501.65Z" fill="#FFB27D"/>
<path d="M1666.67 1512.06C1654.34 1512.8 1658.09 1515.29 1641.22 1518.53C1624.35 1521.77 1617.52 1517.22 1616.22 1514.95C1615.11 1512.95 1622.93 1509.68 1631.22 1506.01L1631.35 1506.15C1639.74 1508.46 1648.59 1508.46 1656.97 1506.15C1668.12 1503 1678.86 1496.15 1686.54 1493.95C1687.62 1496.41 1688.36 1499 1688.74 1501.66C1689.63 1509.33 1679 1511.31 1666.67 1512.06Z" fill="#0F2549"/>
<path d="M1723.57 1236.11C1735.91 1227.45 1815.93 1189.46 1857.57 1184.99L1905.16 1167.6C1905.16 1167.6 1944.33 1225.6 1944.64 1270.01C1944.79 1290.7 1935.26 1292.76 1935.25 1292.76C1935.24 1292.76 1787.72 1293.86 1781.25 1294.52C1770.67 1295.62 1756.7 1321.99 1753.25 1346.01C1749.8 1370.03 1688.25 1467.71 1688.25 1467.71C1688.25 1467.71 1675.42 1471.83 1669.49 1471.48C1663.11 1471.1 1660.15 1468.96 1660.15 1468.96C1660.15 1468.96 1695.75 1255.65 1723.57 1236.11Z" fill="#FFB91D"/>
<path d="M1727.01 1501.65C1727.8 1509.29 1717.17 1511.27 1704.84 1512.02C1692.51 1512.77 1696.26 1515.25 1679.39 1518.49C1662.52 1521.73 1661.16 1509.64 1669.49 1505.97L1672.65 1504.57C1682.03 1500.32 1687.23 1491.81 1694.5 1483.89C1701.38 1476.39 1707.73 1452.54 1707.73 1452.54L1730.66 1447.39C1730.66 1447.39 1724.43 1468.86 1722.29 1478.02C1721.03 1483.4 1723.04 1489.39 1724.82 1493.94C1725.88 1496.4 1726.62 1498.99 1727.01 1501.65V1501.65Z" fill="#FFB27D"/>
<path d="M1704.83 1512.06C1692.5 1512.8 1696.25 1515.29 1679.38 1518.53C1662.51 1521.77 1655.68 1517.22 1654.38 1514.95C1653.27 1512.95 1661.1 1509.68 1669.38 1506.01L1669.52 1506.15C1677.9 1508.46 1686.75 1508.46 1695.13 1506.15C1706.28 1503 1717.02 1496.15 1724.71 1493.95C1725.78 1496.41 1726.52 1499.01 1726.9 1501.66C1727.79 1509.33 1717.16 1511.31 1704.83 1512.06Z" fill="#233862"/>
<path d="M1762.07 1236.11C1772.78 1228.59 1799.74 1225.18 1838.94 1212.41C1848.37 1209.34 1884.71 1191.82 1887.12 1182.19L1869.19 1173.92L1943.66 1167.6C1943.66 1167.6 1962.5 1204.12 1962.81 1248.51C1962.96 1269.2 1944.65 1292.76 1944.65 1292.76C1944.65 1292.76 1826.22 1293.86 1819.75 1294.52C1809.16 1295.62 1795.2 1321.99 1791.75 1346.01C1788.3 1370.03 1726.75 1467.71 1726.75 1467.71C1726.75 1467.71 1713.92 1471.83 1707.99 1471.48C1701.61 1471.1 1698.65 1468.96 1698.65 1468.96C1698.65 1468.96 1734.25 1255.65 1762.07 1236.11Z" fill="#FFC440"/>
<path d="M1879.83 1045.94C1879.68 1046.02 1894.77 1052.88 1905.67 1049.28C1915.92 1045.9 1924.95 1030.47 1924.8 1030.45C1920.36 1029.81 1915.8 1025.45 1914.57 999.451L1912.57 999.941L1879.44 1008.32C1879.44 1008.32 1880.76 1018.81 1881.3 1028.73C1881.78 1037.02 1881.69 1044.95 1879.83 1045.94Z" fill="#FFB27D"/>
<path d="M1879.46 1008.28C1879.46 1008.28 1879.46 1010.44 1880.7 1020.2C1899.44 1015.47 1907.7 1009.26 1913.52 1002.2L1879.46 1008.28Z" fill="#ED975D"/>
<path d="M1872.41 1009.65C1872.41 1009.65 1916.21 1016.78 1920.23 989.43C1924.25 962.08 1932.62 944.59 1904.82 938.88C1877.02 933.17 1870.04 942.8 1866.48 951.6C1862.92 960.4 1861.12 1007.04 1872.41 1009.65Z" fill="#FFB27D"/>
<path d="M1872.37 937.65C1872.37 937.65 1892.26 969.05 1910.02 976.49C1927.78 983.93 1936.5 980.15 1936.5 980.15C1931.17 971.384 1927.7 961.614 1926.32 951.45C1926.01 949.069 1925.07 946.813 1923.6 944.915C1922.13 943.017 1920.18 941.545 1917.96 940.65C1905.26 935.56 1880.6 927.51 1872.37 937.65Z" fill="#A9453D"/>
<path d="M1889.83 940.721C1889.83 940.721 1878.17 946.721 1873.37 952.301C1868.74 957.701 1863.37 972.371 1863.77 978.961C1863.77 978.961 1858.01 947.391 1869.99 936.541C1882.7 925.031 1889.83 940.721 1889.83 940.721Z" fill="#A9453D"/>
<path d="M1844.77 1112.75C1846.1 1201.75 1813.29 1176.87 1823.03 1185.32C1825.38 1187.32 1835.03 1202.51 1871.2 1204.32C1898.53 1205.68 1947.8 1192.78 1949.63 1187.73C1955.93 1170.27 1951.48 1164.85 1956.74 1138.12C1957.28 1135.28 1957.96 1132.2 1958.74 1128.85C1963.12 1110.49 1967.38 1104.25 1951.84 1074.75C1937.74 1048.04 1921.17 1026.34 1919.84 1027.12C1882.66 1049.19 1881.38 1030.69 1881.38 1030.69C1881.38 1030.69 1844.12 1069.32 1844.77 1112.75Z" fill="#2B478B"/>
<path d="M1881.42 1030.65C1881.42 1030.65 1843.42 1037.1 1838.87 1053.57C1834.32 1070.04 1785.28 1199.83 1785.28 1199.83C1785.28 1199.83 1829.57 1208.83 1838.55 1199.83C1847.53 1190.83 1867.64 1078.04 1867.64 1078.04L1881.42 1030.65Z" fill="#8C9DF4"/>
<path d="M1881.08 1024.87L1881.42 1030.68C1877.1 1045.55 1866.5 1095.68 1857.42 1131.18L1854.33 1076.18L1859.57 1071.9L1857.57 1064.7L1874.73 1032.14L1881.08 1024.87Z" fill="#6980E2"/>
<path d="M1881.42 1269.3C1940.14 1288.94 1986.63 1275.74 1986.63 1275.74L1977.04 1218.99L1971.8 1188.05L1960.58 1121.65L1941.39 1058.47L1924.62 1048.31L1909.96 1121.65L1881.42 1269.3Z" fill="#8C9DF4"/>
<path d="M1952.21 1128.52C1953.21 1130.07 1953.21 1160.24 1924.81 1167.62C1896.41 1175 1966.44 1182.19 1966.44 1182.19C1966.44 1182.19 1989.03 1164.86 1988.7 1160.6C1988.37 1156.34 1952.21 1128.52 1952.21 1128.52Z" fill="#6980E2"/>
<path d="M1900.38 1194.23C1900.38 1194.23 1939.33 1216.53 1977.04 1218.99L1971.8 1188.05L1900.38 1194.23Z" fill="#6980E2"/>
<path d="M1874.88 1189.65C1874.88 1189.65 1871.65 1198.28 1870.14 1199.65C1869.4 1200.41 1868.46 1200.94 1867.43 1201.18L1869.03 1193.51L1874.88 1189.65Z" fill="#FFB27D"/>
<path d="M1873.89 1182.13L1860.58 1194.65C1861.01 1194.93 1861.5 1195.1 1862.01 1195.13C1862.52 1195.17 1863.03 1195.07 1863.49 1194.84C1865.39 1194.16 1869.71 1190.84 1869.71 1190.84L1873.89 1182.13Z" fill="#FFB27D"/>
<path d="M1904.83 1176.28C1904.83 1176.28 1877.33 1178.55 1873.89 1182.13C1870.45 1185.71 1862.89 1197.13 1862.52 1200.45C1862.15 1203.77 1871.07 1195.39 1874.21 1193.45C1876.21 1192.16 1882.69 1192.38 1885.88 1192.45C1899.28 1192.72 1906.07 1188.33 1906.07 1188.33L1904.83 1176.28Z" fill="#FFB27D"/>
<path d="M1919.87 1027.11C1919.87 1027.11 1957.99 1029.34 1970.51 1046.8C1988.14 1071.38 2023.1 1176.14 2003.06 1190.11C1980.5 1205.85 1900.36 1194.23 1900.36 1194.23C1900.36 1194.23 1897.7 1181.77 1901.41 1175.74C1905.12 1169.71 1965.41 1159.97 1968.2 1157.18C1970.99 1154.39 1933.41 1102.92 1933.41 1094.57C1933.41 1086.22 1919.87 1027.11 1919.87 1027.11Z" fill="#8C9DF4"/>
<path d="M1917.69 1022.21L1909.96 1121.65L1927.64 1083.58L1924.64 1076.8C1924.64 1076.8 1931.1 1065.67 1931.1 1064.36C1931.1 1063.05 1929.27 1028.2 1929.27 1028.2L1917.69 1022.21Z" fill="#6980E2"/>
<path d="M1687.45 1176.68H1841.98L1813.9 1072.84H1659.38L1687.45 1176.68Z" fill="#142D5E"/>
<path d="M1682.57 1176.68H1837.1L1809.02 1072.84H1654.49L1682.57 1176.68Z" fill="#2B478B"/>
<path d="M1748.39 1201.87L1780.79 1202.17L1758.36 1133.79L1725.96 1133.5L1748.39 1201.87Z" fill="#142D5E"/>
<path d="M1730.03 1202.17H1800.8V1198.91H1730.03V1202.17Z" fill="#142D5E"/>
<path d="M1822.54 1202.94H1873.29V1196.15H1822.54V1202.94Z" fill="#233862"/>
<path d="M2065.7 1519.65C2064.78 1519.68 2063.88 1519.38 2063.16 1518.82C2062.44 1518.25 2061.94 1517.45 2061.75 1516.56L2042.36 1411.97L2014.48 1261.55L2006.68 1219.48L2026.54 1218.94L2029.99 1243.36L2054.18 1414.96L2068.52 1516.65C2068.56 1517.04 2068.52 1517.43 2068.39 1517.8C2068.27 1518.17 2068.06 1518.51 2067.8 1518.8C2067.53 1519.08 2067.2 1519.31 2066.84 1519.45C2066.48 1519.6 2066.09 1519.67 2065.7 1519.65V1519.65Z" fill="#4C64A5"/>
<path d="M2029.95 1243.37C2017.08 1248.78 2014.44 1261.56 2014.44 1261.56L2005.99 1216.96L2026.5 1218.96L2029.95 1243.37Z" fill="#4C64A5"/>
<path d="M1516.85 1518.65C1517.77 1518.68 1518.66 1518.38 1519.38 1517.82C1520.1 1517.26 1520.61 1516.46 1520.8 1515.57L1540.19 1411.34L1568.07 1261.43L1575.86 1219.51L1556 1218.97L1552.56 1243.31L1528.37 1414.31L1514.02 1515.65C1513.98 1516.04 1514.03 1516.43 1514.15 1516.8C1514.28 1517.18 1514.48 1517.52 1514.75 1517.8C1515.02 1518.08 1515.35 1518.31 1515.71 1518.46C1516.07 1518.6 1516.46 1518.67 1516.85 1518.65V1518.65Z" fill="#4C64A5"/>
<path d="M1552.56 1243.29C1565.42 1248.67 1568.07 1261.41 1568.07 1261.41L1579.57 1218.41L1556 1218.93L1552.56 1243.29Z" fill="#4C64A5"/>
<path d="M2084.54 1202.17H1511.85C1508.45 1202.17 1505.71 1204.92 1505.71 1208.31V1212.81C1505.71 1216.2 1508.45 1218.95 1511.85 1218.95H2084.54C2087.93 1218.95 2090.68 1216.2 2090.68 1212.81V1208.31C2090.68 1204.92 2087.93 1202.17 2084.54 1202.17Z" fill="#4C64A5"/>
<path d="M902.686 1340.22L641.096 369.729C641.096 369.729 1091.69 72.9295 1577.93 369.729L1356.43 1340.22H902.686Z" fill="#F5F9FD"/>
<path d="M1323.14 1110.14C1323.14 1110.14 1314.36 962.01 1332.54 916.58C1350.72 871.15 1532.46 613.65 1408.27 453.15C1284.08 292.65 1038.73 335.03 932.725 398.65C826.715 462.27 899.405 589.48 857.005 650.05C814.605 710.62 772.525 745.72 796.755 759.35C820.985 772.98 854.295 768.43 854.295 797.2C854.295 825.97 842.745 833.97 854.855 852.81C866.965 871.65 850.855 870.98 858.855 887.14C866.855 903.3 870.045 901.35 867.265 906.14C864.485 910.93 849.095 938.95 855.155 960.14C861.215 981.33 898.565 989.42 949.045 985.38C999.525 981.34 1030.81 976.29 1033.84 1002.54C1036.87 1028.79 1038.84 1110.14 1038.84 1110.14C1038.84 1110.14 1319.95 1109 1323.14 1110.14Z" fill="#8C9DF4"/>
<path d="M1305.03 871.141C1305.03 871.141 1455.03 666.531 1392.03 528.771C1329.03 391.011 1165.88 362.651 1054.96 378.861C944.035 395.071 915.805 447.741 939.725 492.311C963.645 536.881 965.815 603.731 1031.05 638.171C1096.28 672.611 1169.75 673.711 1179.53 719.291C1189.31 764.871 1229.96 907.521 1305.03 871.141Z" fill="#FFC440"/>
<path d="M1323.15 1110.14C1323.15 1116.14 1259.51 1120.94 1181 1120.94C1102.49 1120.94 1038.85 1116.1 1038.85 1110.14C1038.85 1104.18 1102.49 1099.33 1181 1099.33C1259.51 1099.33 1323.15 1104.17 1323.15 1110.14Z" fill="#8C9DF4"/>
<path d="M1129.44 1357.44C1254.66 1357.44 1356.18 1349.73 1356.18 1340.22C1356.18 1330.71 1254.66 1323 1129.44 1323C1004.21 1323 902.695 1330.71 902.695 1340.22C902.695 1349.73 1004.21 1357.44 1129.44 1357.44Z" fill="#F5F9FD"/>
<path d="M1330.71 490.071H1215.48L1178.35 452.931H1053.97V448.291H1180.27L1217.41 485.431H1330.71V490.071Z" fill="#EBF3FA"/>
<path d="M1050.59 450.65C1050.59 449.979 1050.79 449.323 1051.16 448.765C1051.53 448.208 1052.06 447.773 1052.68 447.517C1053.3 447.261 1053.98 447.194 1054.64 447.326C1055.3 447.457 1055.9 447.781 1056.38 448.256C1056.85 448.731 1057.17 449.336 1057.3 449.995C1057.43 450.653 1057.36 451.335 1057.1 451.954C1056.85 452.573 1056.41 453.102 1055.85 453.473C1055.29 453.845 1054.64 454.042 1053.97 454.04C1053.52 454.04 1053.08 453.952 1052.67 453.782C1052.26 453.611 1051.89 453.361 1051.57 453.046C1051.26 452.731 1051.01 452.358 1050.84 451.946C1050.67 451.535 1050.58 451.094 1050.59 450.65Z" fill="#EBF3FA"/>
<path d="M1327.61 487.751C1327.61 487.136 1327.79 486.534 1328.13 486.023C1328.47 485.511 1328.96 485.113 1329.53 484.877C1330.09 484.642 1330.72 484.58 1331.32 484.7C1331.93 484.82 1332.48 485.117 1332.91 485.552C1333.35 485.986 1333.65 486.541 1333.77 487.144C1333.89 487.747 1333.82 488.373 1333.59 488.941C1333.35 489.509 1332.95 489.995 1332.44 490.336C1331.93 490.678 1331.33 490.861 1330.72 490.861C1329.89 490.861 1329.1 490.533 1328.52 489.95C1327.93 489.366 1327.61 488.575 1327.61 487.751V487.751Z" fill="#EBF3FA"/>
<path d="M1330.86 505.12H1215.63L1178.49 467.98H1054.11V463.33H1180.41L1217.56 500.47H1330.86V505.12Z" fill="#EBF3FA"/>
<path d="M1050.72 465.65C1050.72 464.979 1050.92 464.322 1051.29 463.763C1051.66 463.204 1052.19 462.768 1052.81 462.51C1053.43 462.252 1054.11 462.184 1054.77 462.315C1055.43 462.445 1056.04 462.768 1056.51 463.243C1056.99 463.718 1057.31 464.323 1057.44 464.981C1057.57 465.64 1057.5 466.322 1057.24 466.942C1056.99 467.562 1056.55 468.091 1055.99 468.463C1055.43 468.835 1054.78 469.032 1054.1 469.03C1053.66 469.03 1053.22 468.943 1052.81 468.773C1052.4 468.603 1052.03 468.354 1051.71 468.04C1051.4 467.726 1051.15 467.354 1050.98 466.943C1050.81 466.533 1050.72 466.094 1050.72 465.65Z" fill="#EBF3FA"/>
<path d="M1327.74 502.79C1327.74 502.175 1327.93 501.573 1328.27 501.062C1328.61 500.55 1329.1 500.152 1329.66 499.916C1330.23 499.681 1330.86 499.619 1331.46 499.739C1332.06 499.859 1332.62 500.156 1333.05 500.591C1333.49 501.026 1333.78 501.58 1333.9 502.183C1334.02 502.786 1333.96 503.412 1333.73 503.98C1333.49 504.548 1333.09 505.034 1332.58 505.376C1332.07 505.717 1331.47 505.9 1330.85 505.9C1330.03 505.9 1329.24 505.572 1328.66 504.989C1328.07 504.406 1327.74 503.615 1327.74 502.79V502.79Z" fill="#EBF3FA"/>
<path d="M1330.86 520.71H1215.63L1178.49 483.57H1054.11V478.93H1180.41L1217.55 516.07H1330.86V520.71Z" fill="#EBF3FA"/>
<path d="M1050.72 481.251C1050.72 480.58 1050.92 479.925 1051.3 479.367C1051.67 478.809 1052.2 478.375 1052.82 478.118C1053.44 477.862 1054.12 477.796 1054.78 477.927C1055.44 478.059 1056.04 478.383 1056.52 478.858C1056.99 479.333 1057.31 479.938 1057.44 480.596C1057.57 481.254 1057.5 481.936 1057.24 482.556C1056.99 483.175 1056.55 483.704 1055.99 484.075C1055.43 484.446 1054.78 484.643 1054.1 484.641C1053.66 484.641 1053.22 484.554 1052.81 484.383C1052.4 484.213 1052.03 483.963 1051.71 483.648C1051.4 483.333 1051.15 482.959 1050.98 482.548C1050.81 482.137 1050.72 481.696 1050.72 481.251Z" fill="#EBF3FA"/>
<path d="M1327.74 518.391C1327.74 517.776 1327.93 517.175 1328.27 516.663C1328.61 516.152 1329.1 515.753 1329.66 515.518C1330.23 515.283 1330.86 515.221 1331.46 515.341C1332.06 515.461 1332.62 515.757 1333.05 516.192C1333.49 516.627 1333.78 517.181 1333.9 517.784C1334.02 518.388 1333.96 519.013 1333.73 519.581C1333.49 520.15 1333.09 520.635 1332.58 520.977C1332.07 521.319 1331.47 521.501 1330.85 521.501C1330.03 521.501 1329.24 521.174 1328.66 520.59C1328.07 520.007 1327.74 519.216 1327.74 518.391V518.391Z" fill="#EBF3FA"/>
<path d="M1155.53 633.641H1150.88V554.191L1134.71 538.021H1055.86V533.371H1136.63L1155.53 552.261V633.641Z" fill="#EBF3FA"/>
<path d="M1054.95 532.311C1055.63 532.309 1056.28 532.506 1056.84 532.878C1057.4 533.249 1057.84 533.779 1058.09 534.399C1058.35 535.018 1058.42 535.701 1058.29 536.36C1058.16 537.018 1057.84 537.623 1057.36 538.098C1056.89 538.572 1056.28 538.895 1055.62 539.026C1054.96 539.156 1054.28 539.088 1053.66 538.831C1053.04 538.573 1052.51 538.137 1052.14 537.578C1051.77 537.019 1051.57 536.362 1051.57 535.691C1051.57 534.794 1051.93 533.934 1052.56 533.301C1053.2 532.667 1054.06 532.311 1054.95 532.311Z" fill="#EBF3FA"/>
<path d="M1149.81 632.861C1149.81 632.19 1150.01 631.534 1150.39 630.976C1150.76 630.419 1151.29 629.984 1151.91 629.728C1152.53 629.472 1153.21 629.405 1153.87 629.537C1154.53 629.668 1155.13 629.992 1155.61 630.467C1156.08 630.942 1156.4 631.547 1156.53 632.206C1156.66 632.864 1156.59 633.546 1156.33 634.165C1156.08 634.784 1155.64 635.313 1155.08 635.684C1154.52 636.056 1153.87 636.253 1153.19 636.251C1152.75 636.251 1152.31 636.163 1151.9 635.992C1151.49 635.822 1151.11 635.572 1150.8 635.257C1150.49 634.942 1150.24 634.568 1150.07 634.157C1149.9 633.746 1149.81 633.305 1149.81 632.861V632.861Z" fill="#EBF3FA"/>
<path d="M1170.02 650.08H1165.38V548.14L1141.72 524.47H1057.49V519.83H1143.64L1170.02 546.22V650.08Z" fill="#EBF3FA"/>
<path d="M1054.95 518.77C1055.63 518.768 1056.28 518.965 1056.84 519.337C1057.4 519.708 1057.84 520.238 1058.09 520.858C1058.35 521.477 1058.42 522.16 1058.29 522.818C1058.16 523.477 1057.84 524.082 1057.36 524.557C1056.89 525.031 1056.28 525.354 1055.62 525.485C1054.96 525.615 1054.28 525.547 1053.66 525.29C1053.04 525.032 1052.51 524.596 1052.14 524.037C1051.77 523.478 1051.57 522.821 1051.57 522.15C1051.57 521.253 1051.93 520.393 1052.56 519.76C1053.2 519.126 1054.06 518.77 1054.95 518.77Z" fill="#EBF3FA"/>
<path d="M1164.32 650.08C1164.32 649.408 1164.52 648.752 1164.89 648.193C1165.26 647.634 1165.79 647.197 1166.41 646.94C1167.03 646.682 1167.71 646.614 1168.37 646.744C1169.03 646.875 1169.64 647.198 1170.11 647.673C1170.59 648.147 1170.91 648.752 1171.04 649.411C1171.17 650.069 1171.1 650.752 1170.84 651.372C1170.59 651.991 1170.15 652.521 1169.59 652.893C1169.03 653.264 1168.38 653.462 1167.7 653.46C1166.81 653.46 1165.95 653.104 1165.31 652.47C1164.68 651.836 1164.32 650.976 1164.32 650.08V650.08Z" fill="#EBF3FA"/>
<path d="M1187.82 669.821H1183.17V537.301L1152.15 506.281H1053.97V501.641H1154.08L1187.82 535.381V669.821Z" fill="#EBF3FA"/>
<path d="M1051.6 503.96C1051.6 503.289 1051.79 502.634 1052.17 502.076C1052.54 501.518 1053.07 501.084 1053.69 500.827C1054.31 500.571 1054.99 500.505 1055.65 500.636C1056.31 500.768 1056.91 501.092 1057.39 501.567C1057.86 502.042 1058.18 502.647 1058.31 503.305C1058.44 503.963 1058.37 504.645 1058.11 505.265C1057.86 505.884 1057.42 506.413 1056.86 506.784C1056.3 507.155 1055.65 507.352 1054.98 507.35C1054.53 507.35 1054.09 507.263 1053.68 507.092C1053.27 506.922 1052.9 506.672 1052.58 506.357C1052.27 506.042 1052.02 505.668 1051.85 505.257C1051.68 504.846 1051.59 504.405 1051.6 503.96V503.96Z" fill="#EBF3FA"/>
<path d="M1183.96 666.72C1184.57 666.452 1185.24 666.371 1185.9 666.487C1186.56 666.603 1187.17 666.912 1187.65 667.373C1188.13 667.835 1188.47 668.429 1188.61 669.081C1188.76 669.733 1188.71 670.413 1188.47 671.036C1188.22 671.658 1187.8 672.196 1187.26 672.58C1186.71 672.964 1186.06 673.178 1185.4 673.194C1184.73 673.211 1184.07 673.03 1183.51 672.673C1182.94 672.316 1182.5 671.8 1182.23 671.19C1182.04 670.783 1181.95 670.345 1181.93 669.899C1181.92 669.454 1182 669.011 1182.16 668.596C1182.32 668.18 1182.56 667.801 1182.87 667.479C1183.18 667.157 1183.55 666.899 1183.96 666.72V666.72Z" fill="#EBF3FA"/>
<path d="M1207.57 700.95H1202.93V543.71L1216.65 529.99H1330.72V534.63H1218.58L1207.57 545.64V700.95Z" fill="#EBF3FA"/>
<path d="M1221.68 717.779H1217.03V555.499L1228.84 543.689H1330.72V548.339H1230.76L1221.68 557.419V717.779Z" fill="#EBF3FA"/>
<path d="M1237.92 717.78H1234.44V561.68H1330.72V565.16H1237.92V717.78Z" fill="#EBF3FA"/>
<path d="M1327.34 532.31C1327.33 531.639 1327.53 530.982 1327.9 530.423C1328.27 529.864 1328.8 529.428 1329.42 529.17C1330.04 528.912 1330.73 528.844 1331.38 528.975C1332.04 529.105 1332.65 529.428 1333.12 529.903C1333.6 530.378 1333.92 530.983 1334.05 531.641C1334.18 532.3 1334.11 532.982 1333.86 533.602C1333.6 534.222 1333.16 534.751 1332.6 535.123C1332.04 535.495 1331.39 535.692 1330.72 535.69C1329.82 535.69 1328.96 535.334 1328.33 534.7C1327.69 534.066 1327.34 533.207 1327.34 532.31V532.31Z" fill="#EBF3FA"/>
<path d="M1330.72 542.65C1331.39 542.648 1332.04 542.846 1332.6 543.217C1333.16 543.588 1333.6 544.117 1333.85 544.736C1334.11 545.355 1334.18 546.037 1334.05 546.696C1333.92 547.354 1333.6 547.959 1333.13 548.434C1332.65 548.909 1332.05 549.233 1331.39 549.365C1330.73 549.496 1330.05 549.43 1329.43 549.173C1328.81 548.917 1328.28 548.483 1327.91 547.925C1327.54 547.367 1327.34 546.711 1327.34 546.04C1327.34 545.143 1327.69 544.282 1328.33 543.647C1328.96 543.011 1329.82 542.653 1330.72 542.65V542.65Z" fill="#EBF3FA"/>
<path d="M1330.72 560.041C1331.39 560.039 1332.04 560.236 1332.6 560.608C1333.16 560.98 1333.6 561.509 1333.86 562.129C1334.11 562.749 1334.18 563.431 1334.05 564.09C1333.92 564.748 1333.6 565.353 1333.12 565.828C1332.65 566.303 1332.04 566.626 1331.38 566.756C1330.73 566.887 1330.04 566.819 1329.42 566.561C1328.8 566.303 1328.27 565.867 1327.9 565.308C1327.53 564.749 1327.33 564.092 1327.34 563.421C1327.34 562.977 1327.42 562.538 1327.59 562.128C1327.76 561.717 1328.01 561.345 1328.33 561.031C1328.64 560.717 1329.01 560.468 1329.42 560.298C1329.83 560.128 1330.27 560.041 1330.72 560.041V560.041Z" fill="#EBF3FA"/>
<path d="M1232.79 717.781C1232.79 717.11 1232.99 716.453 1233.36 715.894C1233.73 715.335 1234.26 714.899 1234.88 714.641C1235.5 714.383 1236.19 714.315 1236.84 714.446C1237.5 714.576 1238.11 714.899 1238.58 715.374C1239.06 715.848 1239.38 716.453 1239.51 717.112C1239.64 717.77 1239.57 718.453 1239.31 719.073C1239.06 719.693 1238.62 720.222 1238.06 720.594C1237.5 720.965 1236.85 721.163 1236.17 721.161C1235.73 721.161 1235.29 721.073 1234.88 720.904C1234.47 720.734 1234.1 720.485 1233.78 720.171C1233.47 719.857 1233.22 719.484 1233.05 719.074C1232.88 718.664 1232.79 718.225 1232.79 717.781Z" fill="#EBF3FA"/>
<path d="M1215.96 717.781C1215.95 717.11 1216.15 716.454 1216.52 715.895C1216.89 715.336 1217.42 714.9 1218.04 714.642C1218.66 714.384 1219.34 714.315 1220 714.445C1220.66 714.574 1221.26 714.897 1221.74 715.37C1222.21 715.844 1222.54 716.448 1222.67 717.106C1222.8 717.764 1222.73 718.446 1222.48 719.066C1222.22 719.686 1221.79 720.216 1221.23 720.589C1220.67 720.962 1220.02 721.161 1219.35 721.161C1218.9 721.162 1218.46 721.076 1218.05 720.906C1217.64 720.737 1217.26 720.488 1216.95 720.174C1216.63 719.86 1216.38 719.487 1216.21 719.077C1216.04 718.666 1215.96 718.226 1215.96 717.781V717.781Z" fill="#EBF3FA"/>
<path d="M1201.86 700.951C1201.86 700.28 1202.05 699.625 1202.43 699.067C1202.8 698.51 1203.33 698.075 1203.95 697.819C1204.57 697.562 1205.25 697.495 1205.91 697.626C1206.56 697.757 1207.17 698.079 1207.64 698.553C1208.12 699.028 1208.44 699.632 1208.57 700.289C1208.7 700.947 1208.63 701.628 1208.38 702.248C1208.12 702.867 1207.69 703.397 1207.13 703.769C1206.57 704.142 1205.92 704.341 1205.25 704.341C1204.8 704.342 1204.36 704.255 1203.95 704.085C1203.53 703.915 1203.16 703.666 1202.85 703.351C1202.53 703.035 1202.28 702.661 1202.11 702.249C1201.94 701.838 1201.85 701.396 1201.86 700.951V700.951Z" fill="#EBF3FA"/>
<path d="M1366.59 704.33H1361.94V622.55L1326.38 586.99H1253.12V582.34H1328.3L1366.59 620.63V704.33Z" fill="#EBF3FA"/>
<path d="M1347.49 744.9H1342.85V631.57L1315.76 604.49H1253.12V599.84H1317.68L1347.49 629.65V744.9Z" fill="#EBF3FA"/>
<path d="M1331.84 744.901H1327.2V638.421L1307.73 618.951H1253.12V614.311H1309.65L1331.84 636.491V744.901Z" fill="#EBF3FA"/>
<path d="M1313.14 769.88H1308.5V648.9L1298.17 638.57H1259.13V744.9H1254.48V633.93H1300.09L1313.14 646.98V769.88Z" fill="#EBF3FA"/>
<path d="M1293.63 773.01H1288.98V652.4H1277.35V769.88H1272.71V647.76H1293.63V773.01Z" fill="#EBF3FA"/>
<path d="M1131.8 629.48H1127.16V574.16H1029.03V569.52H1131.8V629.48Z" fill="#EBF3FA"/>
<path d="M1111.95 623.06H1107.31V591.54H1036.97V586.9H1111.95V623.06Z" fill="#EBF3FA"/>
<path d="M1094.77 623.06H1090.11V608.46H1066.38V603.82H1094.77V623.06Z" fill="#EBF3FA"/>
<path d="M1023.9 555.43H992.596V550.79H1021.98L1034.66 538.12V429.48H1039.3V540.04L1023.9 555.43Z" fill="#EBF3FA"/>
<path d="M1019.33 538.019H989.275V533.369H1014.69V431.689H1019.33V538.019Z" fill="#EBF3FA"/>
<path d="M997.695 440.01H993.055V518.76H997.695V440.01Z" fill="#EBF3FA"/>
<path d="M1278.81 462.3H1218.5L1187.99 431.8H1053.97V427.15H1189.91L1220.42 457.66H1278.81V462.3Z" fill="#EBF3FA"/>
<path d="M1263.28 437.901H1230.14L1214.49 422.241L1217.77 418.961L1232.07 433.261H1263.28V437.901Z" fill="#EBF3FA"/>
<path d="M1172.75 494.428L1169.44 497.678L1195.06 523.793L1198.38 520.544L1172.75 494.428Z" fill="#EBF3FA"/>
<path d="M1212.89 420.65C1212.89 420.009 1213.08 419.383 1213.44 418.85C1213.8 418.317 1214.3 417.902 1214.89 417.657C1215.49 417.412 1216.14 417.347 1216.77 417.472C1217.4 417.597 1217.97 417.906 1218.43 418.359C1218.88 418.812 1219.19 419.39 1219.31 420.018C1219.44 420.647 1219.37 421.298 1219.13 421.89C1218.88 422.482 1218.47 422.988 1217.93 423.344C1217.4 423.7 1216.78 423.89 1216.13 423.89C1215.28 423.89 1214.45 423.549 1213.84 422.941C1213.24 422.334 1212.89 421.509 1212.89 420.65V420.65Z" fill="#EBF3FA"/>
<path d="M1260.04 435.58C1260.04 434.939 1260.23 434.311 1260.59 433.777C1260.94 433.243 1261.45 432.826 1262.04 432.58C1262.63 432.333 1263.28 432.267 1263.91 432.391C1264.54 432.515 1265.12 432.823 1265.57 433.276C1266.03 433.728 1266.34 434.306 1266.46 434.934C1266.59 435.563 1266.52 436.215 1266.28 436.808C1266.03 437.4 1265.62 437.907 1265.09 438.263C1264.55 438.62 1263.93 438.81 1263.28 438.81C1262.43 438.81 1261.6 438.47 1261 437.865C1260.39 437.259 1260.05 436.438 1260.04 435.58V435.58Z" fill="#EBF3FA"/>
<path d="M1168.65 496.16C1168.65 495.519 1168.84 494.893 1169.2 494.36C1169.56 493.827 1170.06 493.412 1170.65 493.167C1171.25 492.921 1171.9 492.857 1172.53 492.982C1173.15 493.107 1173.73 493.416 1174.19 493.869C1174.64 494.322 1174.95 494.899 1175.07 495.528C1175.2 496.156 1175.13 496.808 1174.89 497.4C1174.64 497.992 1174.23 498.498 1173.69 498.854C1173.16 499.21 1172.54 499.4 1171.89 499.4C1171.03 499.4 1170.21 499.059 1169.6 498.451C1169 497.843 1168.65 497.019 1168.65 496.16V496.16Z" fill="#EBF3FA"/>
<path d="M1193.48 522.15C1193.48 521.509 1193.67 520.882 1194.03 520.349C1194.39 519.816 1194.89 519.401 1195.49 519.156C1196.08 518.911 1196.73 518.847 1197.36 518.973C1197.99 519.099 1198.57 519.409 1199.02 519.863C1199.47 520.317 1199.78 520.895 1199.9 521.524C1200.03 522.153 1199.96 522.805 1199.71 523.397C1199.47 523.989 1199.05 524.494 1198.52 524.849C1197.98 525.204 1197.36 525.392 1196.71 525.39C1196.29 525.39 1195.87 525.306 1195.48 525.143C1195.08 524.98 1194.73 524.742 1194.43 524.441C1194.13 524.14 1193.89 523.782 1193.73 523.389C1193.57 522.996 1193.48 522.575 1193.48 522.15V522.15Z" fill="#EBF3FA"/>
<path d="M1033.73 429.48C1033.73 428.839 1033.92 428.212 1034.28 427.678C1034.63 427.144 1035.14 426.727 1035.73 426.48C1036.32 426.233 1036.97 426.168 1037.6 426.292C1038.23 426.415 1038.81 426.723 1039.26 427.176C1039.72 427.629 1040.03 428.206 1040.15 428.835C1040.28 429.463 1040.21 430.115 1039.97 430.708C1039.72 431.301 1039.31 431.807 1038.78 432.164C1038.24 432.52 1037.62 432.71 1036.97 432.71C1036.12 432.71 1035.29 432.37 1034.69 431.765C1034.08 431.16 1033.74 430.338 1033.73 429.48V429.48Z" fill="#EBF3FA"/>
<path d="M989.376 552.819C989.434 552.181 989.68 551.574 990.083 551.076C990.486 550.578 991.028 550.21 991.64 550.019C992.252 549.829 992.906 549.824 993.521 550.006C994.136 550.188 994.683 550.548 995.093 551.04C995.503 551.533 995.757 552.136 995.825 552.773C995.892 553.411 995.768 554.054 995.47 554.621C995.172 555.188 994.712 555.654 994.149 555.96C993.585 556.266 992.944 556.398 992.306 556.339C991.452 556.258 990.664 555.843 990.115 555.183C989.567 554.524 989.301 553.674 989.376 552.819Z" fill="#EBF3FA"/>
<path d="M986.035 535.65C986.035 535.009 986.225 534.383 986.581 533.85C986.937 533.317 987.443 532.902 988.035 532.657C988.627 532.412 989.279 532.347 989.907 532.472C990.536 532.597 991.113 532.906 991.566 533.359C992.019 533.812 992.328 534.39 992.453 535.018C992.578 535.647 992.514 536.298 992.269 536.89C992.023 537.482 991.608 537.988 991.075 538.344C990.542 538.7 989.916 538.89 989.275 538.89C988.85 538.89 988.428 538.806 988.035 538.643C987.642 538.481 987.285 538.242 986.984 537.941C986.683 537.64 986.445 537.283 986.282 536.89C986.119 536.497 986.035 536.076 986.035 535.65V535.65Z" fill="#EBF3FA"/>
<path d="M1013.77 432.34C1013.77 431.699 1013.96 431.072 1014.31 430.54C1014.67 430.007 1015.17 429.591 1015.77 429.346C1016.36 429.101 1017.01 429.037 1017.64 429.162C1018.27 429.287 1018.84 429.595 1019.3 430.049C1019.75 430.502 1020.06 431.079 1020.18 431.708C1020.31 432.336 1020.24 432.987 1020 433.579C1019.75 434.171 1019.34 434.678 1018.81 435.034C1018.27 435.39 1017.65 435.58 1017.01 435.58C1016.58 435.581 1016.16 435.498 1015.76 435.336C1015.37 435.173 1015.01 434.935 1014.71 434.634C1014.41 434.332 1014.17 433.975 1014.01 433.581C1013.85 433.187 1013.76 432.765 1013.77 432.34Z" fill="#EBF3FA"/>
<path d="M992.135 440.01C992.135 439.369 992.325 438.742 992.681 438.209C993.037 437.677 993.543 437.261 994.135 437.016C994.727 436.771 995.378 436.707 996.007 436.832C996.635 436.957 997.213 437.265 997.666 437.719C998.119 438.172 998.427 438.749 998.552 439.377C998.678 440.006 998.613 440.657 998.368 441.249C998.123 441.841 997.708 442.347 997.175 442.703C996.642 443.06 996.016 443.25 995.375 443.25C994.515 443.25 993.691 442.908 993.084 442.301C992.476 441.693 992.135 440.869 992.135 440.01V440.01Z" fill="#EBF3FA"/>
<path d="M992.135 518.39C992.135 517.75 992.325 517.123 992.681 516.59C993.037 516.058 993.543 515.642 994.135 515.397C994.727 515.152 995.378 515.088 996.007 515.213C996.635 515.338 997.213 515.646 997.666 516.099C998.119 516.552 998.427 517.13 998.552 517.758C998.678 518.387 998.613 519.038 998.368 519.63C998.123 520.222 997.708 520.728 997.175 521.084C996.642 521.44 996.016 521.63 995.375 521.63C994.515 521.63 993.691 521.289 993.084 520.681C992.476 520.074 992.135 519.25 992.135 518.39V518.39Z" fill="#EBF3FA"/>
<path d="M1063.96 606.14C1063.96 605.5 1064.15 604.873 1064.5 604.34C1064.86 603.808 1065.36 603.392 1065.96 603.147C1066.55 602.902 1067.2 602.838 1067.83 602.963C1068.46 603.088 1069.03 603.396 1069.49 603.849C1069.94 604.302 1070.25 604.88 1070.37 605.508C1070.5 606.137 1070.43 606.788 1070.19 607.38C1069.94 607.972 1069.53 608.478 1069 608.834C1068.46 609.19 1067.84 609.38 1067.2 609.38C1066.34 609.38 1065.51 609.039 1064.9 608.431C1064.3 607.824 1063.96 607 1063.96 606.14V606.14Z" fill="#EBF3FA"/>
<path d="M1089.21 621.951C1089.2 621.31 1089.39 620.683 1089.75 620.148C1090.1 619.614 1090.61 619.197 1091.2 618.951C1091.79 618.704 1092.44 618.638 1093.07 618.762C1093.7 618.886 1094.28 619.194 1094.73 619.647C1095.19 620.099 1095.5 620.677 1095.62 621.305C1095.75 621.934 1095.68 622.586 1095.44 623.179C1095.19 623.771 1094.78 624.278 1094.25 624.634C1093.71 624.991 1093.09 625.181 1092.45 625.181C1091.59 625.181 1090.76 624.841 1090.16 624.236C1089.55 623.63 1089.21 622.809 1089.21 621.951V621.951Z" fill="#EBF3FA"/>
<path d="M1034.44 589.22C1034.44 588.579 1034.63 587.952 1034.98 587.419C1035.34 586.886 1035.85 586.471 1036.44 586.226C1037.03 585.981 1037.68 585.918 1038.31 586.043C1038.94 586.169 1039.52 586.479 1039.97 586.933C1040.42 587.387 1040.73 587.965 1040.85 588.594C1040.98 589.224 1040.91 589.875 1040.67 590.467C1040.42 591.059 1040 591.565 1039.47 591.919C1038.93 592.274 1038.31 592.462 1037.67 592.46C1037.24 592.46 1036.82 592.377 1036.43 592.214C1036.03 592.051 1035.68 591.812 1035.38 591.511C1035.08 591.21 1034.84 590.853 1034.68 590.46C1034.52 590.067 1034.43 589.645 1034.44 589.22V589.22Z" fill="#EBF3FA"/>
<path d="M1106.4 623.06C1106.4 622.419 1106.59 621.791 1106.95 621.257C1107.3 620.722 1107.81 620.306 1108.4 620.059C1108.99 619.813 1109.64 619.748 1110.27 619.872C1110.9 619.997 1111.48 620.306 1111.94 620.76C1112.39 621.213 1112.7 621.791 1112.82 622.421C1112.95 623.05 1112.88 623.703 1112.64 624.295C1112.39 624.887 1111.97 625.393 1111.44 625.749C1110.9 626.104 1110.28 626.293 1109.63 626.291C1108.78 626.291 1107.96 625.95 1107.35 625.344C1106.74 624.739 1106.4 623.917 1106.4 623.06Z" fill="#EBF3FA"/>
<path d="M1126.23 628.42C1126.23 627.779 1126.42 627.151 1126.78 626.617C1127.13 626.083 1127.64 625.666 1128.23 625.419C1128.82 625.173 1129.47 625.107 1130.1 625.231C1130.73 625.355 1131.31 625.663 1131.76 626.115C1132.22 626.568 1132.53 627.145 1132.65 627.774C1132.78 628.403 1132.71 629.055 1132.47 629.647C1132.22 630.24 1131.81 630.747 1131.28 631.103C1130.74 631.46 1130.12 631.65 1129.47 631.65C1128.62 631.65 1127.79 631.31 1127.19 630.704C1126.58 630.099 1126.24 629.277 1126.23 628.42V628.42Z" fill="#EBF3FA"/>
<path d="M1025.79 571.84C1025.79 571.199 1025.98 570.572 1026.33 570.04C1026.69 569.507 1027.19 569.091 1027.79 568.846C1028.38 568.601 1029.03 568.537 1029.66 568.662C1030.29 568.787 1030.86 569.095 1031.32 569.549C1031.77 570.002 1032.08 570.579 1032.2 571.208C1032.33 571.836 1032.26 572.487 1032.02 573.079C1031.77 573.671 1031.36 574.178 1030.83 574.534C1030.29 574.89 1029.67 575.08 1029.03 575.08C1028.17 575.08 1027.34 574.738 1026.73 574.131C1026.13 573.523 1025.79 572.699 1025.79 571.84V571.84Z" fill="#EBF3FA"/>
<path d="M1121.84 550.791H1043.45V555.431H1121.84V550.791Z" fill="#EBF3FA"/>
<path d="M1118.64 553.111C1118.64 552.47 1118.83 551.843 1119.19 551.31C1119.55 550.777 1120.05 550.362 1120.65 550.117C1121.24 549.872 1121.89 549.808 1122.52 549.934C1123.15 550.06 1123.73 550.369 1124.18 550.824C1124.63 551.278 1124.94 551.856 1125.06 552.485C1125.19 553.114 1125.12 553.766 1124.88 554.358C1124.63 554.95 1124.21 555.455 1123.68 555.81C1123.14 556.165 1122.52 556.353 1121.87 556.351C1121.45 556.351 1121.03 556.267 1120.64 556.104C1120.24 555.941 1119.89 555.702 1119.59 555.401C1119.29 555.101 1119.05 554.743 1118.89 554.35C1118.73 553.957 1118.64 553.536 1118.64 553.111V553.111Z" fill="#EBF3FA"/>
<path d="M1040.21 553.111C1040.21 552.47 1040.4 551.844 1040.75 551.311C1041.11 550.778 1041.61 550.363 1042.21 550.118C1042.8 549.873 1043.45 549.808 1044.08 549.933C1044.71 550.058 1045.28 550.367 1045.74 550.82C1046.19 551.273 1046.5 551.851 1046.62 552.479C1046.75 553.108 1046.68 553.759 1046.44 554.351C1046.19 554.943 1045.78 555.449 1045.25 555.805C1044.71 556.161 1044.09 556.351 1043.45 556.351C1042.59 556.351 1041.76 556.01 1041.15 555.402C1040.55 554.795 1040.21 553.97 1040.21 553.111V553.111Z" fill="#EBF3FA"/>
<path d="M2319.05 1517.38H98.9346C97.4379 1517.38 96.2246 1518.59 96.2246 1520.09V1521.46C96.2246 1522.96 97.4379 1524.17 98.9346 1524.17H2319.05C2320.55 1524.17 2321.76 1522.96 2321.76 1521.46V1520.09C2321.76 1518.59 2320.55 1517.38 2319.05 1517.38Z" fill="#2E3552"/>
<path d="M776.505 490.371H523.135C508.875 490.371 497.315 501.931 497.315 516.191V644.611C497.315 658.871 508.875 670.431 523.135 670.431H776.505C790.765 670.431 802.325 658.871 802.325 644.611V516.191C802.325 501.931 790.765 490.371 776.505 490.371Z" fill="#2A4E96"/>
<path d="M635.465 638.65H522.695V602.73H635.465V638.65ZM524.075 637.27H634.075V604.11H524.075V637.27Z" fill="#C0D4FF"/>
<path d="M574.485 612.371H530.865V615.211H574.485V612.371Z" fill="#C0D4FF"/>
<path d="M610.024 612.371H579.074V615.211H610.024V612.371Z" fill="#C0D4FF"/>
<path d="M554.935 620.5H530.865V623.34H554.935V620.5Z" fill="#C0D4FF"/>
<path d="M589.956 620.5H559.006V623.34H589.956V620.5Z" fill="#C0D4FF"/>
<path d="M624.116 620.5H593.166V623.34H624.116V620.5Z" fill="#C0D4FF"/>
<path d="M769.956 638.65H657.166V602.73H769.956V638.65ZM658.556 637.23H768.556V604.11H658.556V637.23Z" fill="#C0D4FF"/>
<path d="M708.956 612.371H665.336V615.211H708.956V612.371Z" fill="#C0D4FF"/>
<path d="M744.505 612.371H713.555V615.211H744.505V612.371Z" fill="#C0D4FF"/>
<path d="M689.416 620.5H665.336V623.34H689.416V620.5Z" fill="#C0D4FF"/>
<path d="M724.434 620.5H693.484V623.34H724.434V620.5Z" fill="#C0D4FF"/>
<path d="M758.595 620.5H727.645V623.34H758.595V620.5Z" fill="#C0D4FF"/>
<path d="M776.955 588.491H522.695V567.881H776.955V588.491ZM525.115 586.081H774.535V570.291H525.105L525.115 586.081Z" fill="#C0D4FF"/>
<path d="M721.255 569.08H523.895V587.29H721.255V569.08Z" fill="#C0D4FF"/>
<path d="M776.955 547.501H522.695V526.881H776.955V547.501ZM525.115 545.091H774.535V529.291H525.105L525.115 545.091Z" fill="#C0D4FF"/>
<path d="M654.905 526.881H522.695V547.501H654.905V526.881Z" fill="#FFC440"/>
<path d="M871.505 1065.65C871.505 1065.75 871.435 1065.8 871.375 1065.8L871.455 1065.62C871.535 1065.49 871.555 1065.49 871.505 1065.65Z" fill="#ABDDDA"/>
</svg>
