<svg width="2872" height="2913" viewBox="0 0 2872 2913" fill="none" xmlns="http://www.w3.org/2000/svg">
<path d="M690.381 175.04C593.931 315.64 707.021 543.6 563.901 649.34C424.581 752.28 253.431 583.549 122.141 672.159C-72.639 803.599 -37.069 1405.06 247.661 1778.76C333.301 1891.14 404.861 1934.87 436.551 2061.97C504.601 2334.89 265.431 2497.23 310.951 2632.21C413.431 2936.14 1989.51 3191.21 2621.95 2277.77C2917.3 1851.17 2961.49 1235.17 2697.6 767.31C2220.76 -78.1105 906.811 -140.45 690.381 175.04Z" fill="#F4F7FA"/>
<path d="M1737.51 2687.51C1815.51 2663.95 1946.86 2624.3 2042.45 2503.64C2216.23 2284.27 2159.05 1939.54 2038.24 1720.05C1934.48 1531.52 1741.97 1408.76 1356.97 1163.23C994.371 931.98 870.461 905.23 839.791 764.43C796.071 563.75 1003.69 415.16 917.581 188.69C907.251 161.52 871.761 68.1898 786.661 32.8398C640.961 -27.5902 452.091 124.43 363.601 236.71C278.231 345.04 186.091 543.41 254.511 704.14C304.081 820.59 395.821 818.36 414.971 925.41C434.231 1033.11 347.181 1067.85 306.441 1244.91C290.161 1315.64 257.491 1457.62 319.771 1580.03C400.291 1738.31 566.661 1720.58 596.661 1852.11C618.291 1947.11 538.501 1987.46 539.981 2097.43C541.911 2242.2 682.551 2348.71 800.771 2435.78C939.931 2538.31 1315.5 2814.92 1737.51 2687.51Z" fill="url(#paint0_linear_2732_1217)"/>
<g style="mix-blend-mode:screen" opacity="0.16">
<path d="M730.661 94.1997C808.081 151.84 571.231 389.84 625.441 715.67C683.771 1066.27 1043.44 1304.75 1209.7 1414.96C1493.31 1602.96 1617.7 1569.08 1797.46 1776.45C1868.6 1858.53 2016.81 2029.52 1992.23 2259.38C1989.95 2280.73 1960.93 2518.44 1773.46 2625.38C1560.82 2746.63 1305.98 2607.38 1086.4 2487.38C953.721 2414.84 688.661 2270.07 712.961 2121.09C727.821 2030.02 847.381 1958.36 944.411 1939.66C1082.9 1912.95 1194.41 1990.44 1207.64 1966.94C1219.52 1945.78 1140.43 1862.55 1030.34 1799.23C810.141 1672.58 691.011 1755.06 528.211 1638.57C508.481 1624.46 353.751 1510.31 356.001 1343.92C357.301 1247.92 410.861 1132.11 489.001 1115.04C577.341 1095.74 659.001 1211.12 679.931 1192.96C699.931 1175.6 637.511 1059.57 559.031 953.9C443.661 798.65 389.871 795.15 348.451 697.84C285.241 549.42 342.711 398.35 351.281 376.75C431.661 174.4 664.461 44.9197 730.661 94.1997Z" fill="white"/>
</g>
<path d="M1905.28 2665.03C1956.57 2676.14 2042.92 2694.86 2134.45 2656.78C2300.87 2587.55 2376.39 2375.56 2376.95 2214.21C2377.44 2075.62 2307.4 1946.33 2167.32 1687.75C2035.39 1444.22 1973.99 1390.41 2000.71 1301.56C2038.8 1174.89 2202.15 1156.09 2224.43 1001.66C2227.1 983.129 2236.28 919.479 2199.43 872.999C2136.27 793.439 1982.43 819.999 1897.48 855.599C1815.53 889.909 1701.66 972.839 1689.96 1084.71C1681.48 1165.78 1733.84 1193.19 1711.17 1259.46C1688.36 1326.13 1628.49 1318.46 1550.17 1405.46C1518.9 1440.2 1456.17 1509.95 1452.96 1598.34C1448.84 1712.63 1548.07 1754.64 1523.83 1838.06C1506.31 1898.34 1448.83 1896.11 1415.25 1958.5C1371.1 2040.63 1417.01 2144.56 1456.37 2230.5C1502.76 2331.77 1627.81 2604.9 1905.28 2665.03Z" fill="url(#paint1_linear_2732_1217)"/>
<g style="mix-blend-mode:screen" opacity="0.16">
<path d="M2148.66 890.04C2174.25 946.7 1966.51 1006.68 1895.21 1207.12C1818.49 1422.78 1946.52 1669.48 2005.69 1783.48C2106.69 1978 2187.29 1997.78 2223.69 2170.73C2238.1 2239.18 2268.13 2381.78 2182.46 2503.54C2174.46 2514.85 2083.88 2639.65 1944.9 2641.26C1787.26 2643.09 1687.27 2485.04 1601.11 2348.86C1549.05 2266.58 1445.04 2102.2 1505.28 2025.86C1542.11 1979.22 1631.83 1976.23 1692.28 1996.02C1778.62 2024.25 1817.22 2102.75 1831.99 2093.64C1845.29 2085.43 1826.76 2013.85 1784.56 1943.79C1700.13 1803.66 1607.28 1812.88 1552 1696.41C1545.3 1682.29 1493.84 1569.66 1547.1 1476.67C1577.82 1423.03 1644.19 1374.53 1693.51 1389.33C1749.29 1406.07 1759.2 1496.55 1776.68 1492.88C1793.39 1489.36 1794.48 1404.5 1783.3 1320.48C1766.88 1197.01 1737.67 1178.23 1744.74 1110.48C1755.52 1007.14 1835.1 940.03 1846.67 930.55C1955.24 841.75 2126.82 841.6 2148.66 890.04Z" fill="white"/>
</g>
<path d="M1187.1 2740.59C1218.99 2717.11 1272.66 2677.59 1296.78 2606.76C1340.63 2478.03 1258.32 2329.51 1167.28 2248.68C1089.07 2179.25 980.951 2154.39 764.701 2104.68C561.031 2057.84 499.931 2065.75 462.981 2006.29C410.291 1921.53 481.151 1819.69 404.851 1730.02C395.701 1719.26 364.261 1682.31 319.541 1680.02C242.991 1676.07 181.271 1776.43 159.031 1842.24C137.581 1905.72 127.691 2011.55 185.191 2074C226.841 2119.25 268.481 2103.29 294.681 2149.18C321.031 2195.35 286.831 2225.44 297.011 2313.13C301.071 2348.13 309.231 2418.49 357.671 2464.4C420.311 2523.76 493.601 2488.55 528.671 2543.9C554.051 2583.9 524.081 2615.34 542.671 2665.45C567.131 2731.45 648.861 2757.28 717.171 2777.9C797.661 2802.14 1014.66 2867.64 1187.1 2740.59Z" fill="url(#paint2_linear_2732_1217)"/>
<g style="mix-blend-mode:screen" opacity="0.16">
<path d="M303.891 1717.17C348.721 1730.96 279.021 1878.47 356.891 2018.84C440.681 2169.84 644.201 2220.49 738.251 2243.89C898.721 2283.8 950.151 2248.02 1066.25 2313.7C1112.18 2339.7 1207.88 2393.86 1234.05 2503.1C1236.48 2513.25 1261.9 2626.81 1193.47 2706.28C1115.85 2796.41 976.471 2774.15 856.471 2754.97C783.921 2743.38 638.991 2720.23 625.861 2648.07C617.861 2603.95 660.861 2551.68 702.291 2527.32C761.351 2492.54 825.041 2509.86 827.291 2496.95C829.291 2485.33 779.521 2460.1 718.811 2449.03C597.371 2426.9 556.251 2484.03 462.751 2457.23C451.421 2453.98 361.991 2426.91 335.931 2350.36C320.931 2306.21 326.561 2244.45 359.551 2223.92C396.861 2200.7 453.021 2240.23 459.661 2228.51C466.001 2217.29 418.511 2174.34 365.381 2138.74C287.301 2086.43 262.091 2093.59 227.281 2055.74C174.181 1998.08 175.901 1919.55 176.281 1908.27C180.031 1802.58 265.551 1705.38 303.891 1717.17Z" fill="white"/>
</g>
<path d="M354.821 2811.02C311.881 2812.5 268.581 2800.56 233.351 2774.33C155.351 2716.24 146.911 2610.65 214.711 2539.24L995.061 1704.98C1027.47 1670.85 1074.34 1652.06 1123.4 1653.4C1172.25 1654.73 1218.49 1675.88 1250.25 1711.3L1582.02 2081.3L2315.86 1284.93C2372.25 1222.93 2469.93 1219.16 2533.93 1275.93C2597.55 1332.31 2604.34 1427.66 2549.2 1489.52L1703.6 2419.66C1673.15 2453.81 1628.83 2473.76 1582.02 2474.26C1535.02 2474.76 1490.1 2455.59 1459.02 2421.65L1123.38 2054.85L493.381 2749.48C457.291 2788.2 406.311 2809.26 354.821 2811.02Z" fill="url(#paint3_linear_2732_1217)"/>
<path d="M2651.02 1565.78L2239.46 1204.76L2772.27 1025.86H2809.48L2689.19 1561.49L2651.02 1565.78Z" fill="url(#paint4_linear_2732_1217)"/>
<path d="M392.031 2811.02C349.031 2812.5 305.791 2800.56 270.561 2774.33C192.561 2716.24 184.121 2610.65 251.921 2539.24L1032.26 1704.98C1064.68 1670.85 1111.54 1652.06 1160.61 1653.4C1209.46 1654.73 1255.7 1675.88 1287.46 1711.3L1619.23 2081.3L2353.07 1284.93C2409.46 1222.93 2507.14 1219.16 2571.14 1275.93C2634.75 1332.31 2641.55 1427.66 2586.41 1489.52L1740.8 2419.66C1710.36 2453.81 1666.04 2473.76 1619.23 2474.26C1572.23 2474.76 1527.31 2455.59 1496.23 2421.65L1160.66 2054.76L530.661 2749.39C494.501 2788.2 443.521 2809.26 392.031 2811.02Z" fill="url(#paint5_linear_2732_1217)"/>
<path d="M2688.23 1565.78L2276.67 1204.76L2809.48 1025.86L2688.23 1565.78Z" fill="url(#paint6_linear_2732_1217)"/>
<path d="M1358.9 1704.97L1354.49 1775.52C1354.49 1775.52 1364.49 1786.13 1383.78 1778.74L1404.83 1709.47L1358.9 1704.97Z" fill="url(#paint7_linear_2732_1217)"/>
<path d="M1367.73 1756.84C1367.73 1756.84 1333.18 1770.93 1339.89 1786.22C1343.49 1794.42 1355.95 1812.96 1366.72 1828.36C1371.58 1835.32 1378.51 1840.57 1386.52 1843.36C1394.54 1846.16 1403.23 1846.36 1411.36 1843.94C1416.96 1842.26 1422.68 1840.63 1427.74 1839.32C1438.21 1836.62 1438.83 1821.98 1428.63 1818.38C1424.05 1816.69 1419.32 1815.42 1414.51 1814.57C1401.86 1812.62 1384.51 1782.73 1382.42 1770.76C1380.33 1758.79 1367.73 1756.84 1367.73 1756.84Z" fill="url(#paint8_linear_2732_1217)"/>
<path d="M1284.66 1027.84C1335.56 1045.4 1523.76 1116.54 1565.66 1279.72C1567.9 1288.43 1573.66 1312.66 1573.9 1352.22C1574.98 1516.93 1479.2 1656.32 1409.55 1737.41L1343.67 1736.31C1332.67 1694.31 1322.67 1631.4 1338.4 1560.65C1362.49 1452.53 1424.98 1424.48 1412.93 1371.41C1391.05 1275.04 1167.27 1289.62 1146.18 1203.33C1138.6 1172.14 1155.34 1119.24 1284.66 1027.84Z" fill="url(#paint9_linear_2732_1217)"/>
<path d="M655.191 2013.84L750.761 2011.61C752.057 2011.58 753.312 2011.15 754.359 2010.39C755.406 2009.62 756.194 2008.56 756.619 2007.33C757.043 2006.11 757.083 2004.78 756.733 2003.54C756.383 2002.29 755.66 2001.18 754.661 2000.35C752.168 1998.13 749.243 1996.45 746.069 1995.42C742.895 1994.39 739.543 1994.02 736.221 1994.35C718.061 1996.24 677.281 1970.82 658.781 1976.27C652.781 1978.06 647.781 1992.27 645.311 1996.2C644.184 1997.95 643.554 1999.97 643.489 2002.05C643.424 2004.12 643.926 2006.18 644.942 2007.99C645.958 2009.81 647.449 2011.31 649.255 2012.34C651.061 2013.37 653.113 2013.89 655.191 2013.84V2013.84Z" fill="url(#paint10_linear_2732_1217)"/>
<path d="M698.131 1940.46L658.781 1976.33C658.781 1976.33 672.521 1986.6 692.561 1982.2L732.781 1954.52L698.131 1940.46Z" fill="url(#paint11_linear_2732_1217)"/>
<g style="mix-blend-mode:color-burn" opacity="0.3">
<path d="M1453.51 1452.78C1479.91 1381.51 1511.56 1293.65 1475.41 1243.78C1438.83 1193.29 1358.68 1235.91 1278.28 1195.22C1248.45 1180.13 1217.8 1153.13 1192.28 1104.22C1147.14 1150.82 1141.01 1182.1 1146.19 1203.31C1167.28 1289.6 1391.06 1275.02 1412.94 1371.39C1424.94 1424.46 1362.5 1452.51 1338.41 1560.63C1324.86 1621.45 1330.41 1676.41 1339.2 1717.36C1347.49 1676.59 1360.44 1636.9 1377.8 1599.09C1406.66 1536.61 1425.71 1527.84 1453.51 1452.78Z" fill="url(#paint12_linear_2732_1217)"/>
</g>
<path d="M1313.84 1007.25C1282.84 1149.47 1216.84 1366.63 1065.63 1593.3C973.578 1731.16 861.932 1854.88 734.211 1960.56C715.097 1966.32 694.521 1964.74 676.511 1956.13C683.161 1916.04 697.171 1856.81 730.411 1792.84C791.231 1675.78 845.411 1679.54 906.471 1576.22C951.201 1500.57 965.741 1420.22 994.831 1259.49C1017.29 1135.38 1017.3 1105.72 1048.06 1070.13C1110.24 998.179 1226.99 997.369 1313.84 1007.25Z" fill="url(#paint13_linear_2732_1217)"/>
<g style="mix-blend-mode:multiply" opacity="0.3">
<path d="M753.721 1819.31C775.431 1785.05 813.941 1749.38 889.901 1679.01C968.411 1606.29 965.391 1619.44 980.841 1597.94C1050.03 1501.73 1012.57 1398.94 1029.67 1274.84C1039.21 1205.61 1069.78 1115.15 1158.77 1013.84C1117.06 1021.53 1077.13 1038.06 1048.06 1070.14C1012.36 1109.52 1014.99 1148.14 994.831 1259.5C965.741 1420.22 951.201 1500.58 906.471 1576.23C845.381 1679.55 791.231 1675.79 730.411 1792.85C697.171 1856.85 683.161 1916.05 676.511 1956.14C691.092 1963.13 707.451 1965.51 723.421 1962.99C718.401 1881.64 742.711 1836.69 753.721 1819.31Z" fill="url(#paint14_linear_2732_1217)"/>
</g>
<path d="M1401.54 463.95C1338.97 454.68 1128.45 430.25 979.001 541.43C943.651 567.73 856.911 632.27 875.851 708.76C894.121 782.5 1005.77 847.97 1152.85 855.47L1189.24 825.11C1112.24 800.58 1065.47 752.27 1070.1 713.11C1074.1 678.86 1116.54 659.47 1137.81 649.74C1210.27 616.6 1289.18 634.12 1316 641.19C1344.53 582.096 1373.04 523.016 1401.54 463.95Z" fill="url(#paint15_linear_2732_1217)"/>
<path d="M2015.39 201.18C2030.31 240.26 2020.22 280.399 1992.86 290.839C1965.5 301.279 1931.22 278.079 1916.31 238.999C1901.4 199.919 1911.48 159.789 1938.84 149.339C1966.2 138.889 2000.48 162.11 2015.39 201.18Z" fill="url(#paint16_linear_2732_1217)"/>
<path d="M1633.66 371.58L1925.53 175.84C1927.4 174.579 1929.54 173.777 1931.78 173.5C1934.01 173.224 1936.28 173.481 1938.4 174.25C1956.99 181.03 2004.69 204.891 1993.57 268.681C1993.12 271.287 1991.96 273.719 1990.22 275.715C1988.48 277.71 1986.23 279.192 1983.71 280L1646 387.34L1633.66 371.58Z" fill="url(#paint17_linear_2732_1217)"/>
<path d="M1649.91 375.199C1652.83 382.829 1650.85 390.669 1645.51 392.709C1640.17 394.749 1633.51 390.219 1630.56 382.579C1627.61 374.939 1629.62 367.109 1634.96 365.069C1640.3 363.029 1647 367.559 1649.91 375.199Z" fill="url(#paint18_linear_2732_1217)"/>
<path d="M1867.17 369.9L1831.02 328.51C1831.02 328.51 1853.73 326.65 1852.75 293.39C1851.77 260.13 1871.23 270.57 1866.56 296.28C1861.89 321.99 1864.87 340.94 1864.87 340.94L1887.1 365.3L1867.17 369.9Z" fill="url(#paint19_linear_2732_1217)"/>
<path d="M1593.4 440.97C1606.47 425.97 1605.59 405.97 1605.4 401.62C1604.4 383.47 1603.4 380.54 1600.82 376.27L1597.16 370.6L1596.65 370.07C1593.88 367.31 1582.65 361.57 1580.16 360.96C1572.07 359.04 1550.02 385.26 1532.16 428.62C1531.09 430.093 1530.02 431.58 1528.95 433.08C1526.95 435.87 1525.58 437.95 1525.47 438.08C1523.26 441.34 1511.91 452.76 1500.9 458.76C1475.52 472.61 1423.62 473.12 1422.35 481.27C1421.16 488.84 1463.59 503.1 1506.83 511.19C1537.38 516.9 1589.94 523.58 1593.12 512.96C1596.3 502.34 1545.54 486.58 1559.18 451.79C1560.49 448.36 1583.78 452 1593.4 440.97Z" fill="url(#paint20_linear_2732_1217)"/>
<path d="M1618.05 365.84C1611.78 378.93 1598.95 389.99 1594.73 390.74C1592.19 391.324 1589.75 392.313 1587.52 393.67C1586.98 394.006 1586.48 394.409 1586.04 394.87C1579.24 401.76 1587.76 417.73 1583.46 420.22C1580.35 422.03 1573.13 414.22 1570.96 416.01C1568.79 417.8 1574.2 425.76 1571.82 427.83C1570.03 429.39 1566.32 425.42 1562.01 427.07C1559.86 427.9 1559.71 429.29 1556.01 433.16C1554.08 435.223 1551.96 437.101 1549.68 438.77C1541.49 444.31 1527.32 441.03 1526.32 436.77C1526.04 435.59 1526.97 435.15 1527.64 431.94C1528.04 429.629 1528.12 427.273 1527.87 424.94C1527.31 419.26 1522.4 413.07 1518.15 405.34C1510.27 391.03 1510.51 382.13 1510.72 379.19C1510.79 378.19 1510.89 377.37 1510.96 376.81C1512.44 365.67 1519.17 351.47 1527.66 344.81C1541.89 333.65 1555.01 348.39 1575.33 340.29C1598.77 330.94 1600.4 303.71 1610.01 305.18C1620.59 306.84 1629.66 341.62 1618.05 365.84Z" fill="#26264F"/>
<path d="M1580.21 414.84C1579.1 408.9 1571.48 410.37 1568.74 416.06C1566 421.75 1568.74 430.33 1574.6 431.75C1580.46 433.17 1581.71 422.84 1580.21 414.84Z" fill="url(#paint21_linear_2732_1217)"/>
<path d="M1325.1 465.84C1355.81 452.07 1398.97 457.33 1485.1 469.14C1549.78 477.97 1608.51 492.84 1643.66 501.84C1720 521.35 1747.08 533.3 1798.53 531.28C1834.82 529.85 1876.33 528.22 1894.06 501C1913.55 471.1 1899.12 418.33 1857.2 371L1892.28 352.93C1909.66 360.75 1964.54 388.11 1993.95 450.82C2019.51 505.3 2022.77 577.62 1987.74 631.37C1956.33 679.56 1905.24 695.87 1828.32 720.44C1742.14 747.96 1728.49 731.28 1689.32 757.52C1659.64 777.39 1636.51 827.18 1591.46 925.96C1566.08 981.61 1546.66 1028.74 1509.2 1099.09C1473.41 1166.29 1463.96 1174.32 1454.38 1179.98C1408.53 1207.1 1372.78 1172.52 1255.51 1164.98C1180.65 1160.16 1178.51 1173.1 1113.19 1163.87C1052.83 1155.34 989.391 1146.38 961.051 1097.11C937.051 1055.42 952.521 1006.36 954.871 999.42C972.531 947.18 1016.47 932.06 1064.52 892.16C1107.66 856.34 1133.89 809.1 1186.34 714.64C1276.16 552.75 1262.66 493.78 1325.1 465.84Z" fill="url(#paint22_linear_2732_1217)"/>
<path style="mix-blend-mode:multiply" opacity="0.3" d="M2013.4 545.27C2002.27 567.35 1987.08 588.53 1966.32 606.36C1898.93 664.24 1799.03 664.71 1746.88 664.97C1652.23 665.42 1600.32 638.67 1575.99 668.11C1553.07 695.85 1590.7 729.73 1574.12 784.63C1554.12 850.82 1488.12 839.27 1429.6 916.37C1369.5 995.53 1392.1 1069.61 1344.97 1085.27C1313.1 1095.86 1298.97 1063.27 1236.69 1044.11C1123.2 1009.29 1046.69 1079.73 997.761 1039.11C985.431 1028.88 972.391 1009.5 970.831 968.68C963.907 977.991 958.507 988.343 954.831 999.35C952.481 1006.29 937.041 1055.35 961.011 1097.04C989.351 1146.31 1052.79 1155.27 1113.15 1163.8C1178.51 1173.03 1180.61 1160.09 1255.47 1164.91C1372.74 1172.48 1408.47 1207.06 1454.34 1179.91C1463.92 1174.25 1473.34 1166.22 1509.16 1099.02C1546.62 1028.67 1566.04 981.54 1591.42 925.89C1636.42 827.11 1659.6 777.32 1689.28 757.45C1728.5 731.21 1742.15 747.89 1828.28 720.37C1905.2 695.8 1956.28 679.49 1987.7 631.3C2004.54 605.6 2012.45 575.56 2013.4 545.27Z" fill="url(#paint23_linear_2732_1217)"/>
<defs>
<linearGradient id="paint0_linear_2732_1217" x1="200.169" y1="1333.33" x2="2182.32" y2="1412.94" gradientUnits="userSpaceOnUse">
<stop stop-color="#AA80F9"/>
<stop offset="1" stop-color="#6165D7"/>
</linearGradient>
<linearGradient id="paint1_linear_2732_1217" x1="1873.54" y1="2082.28" x2="2367.91" y2="321.422" gradientUnits="userSpaceOnUse">
<stop stop-color="#E38DDD"/>
<stop offset="1" stop-color="#9571F6"/>
</linearGradient>
<linearGradient id="paint2_linear_2732_1217" x1="840.461" y1="2467.27" x2="84.2252" y2="1309.11" gradientUnits="userSpaceOnUse">
<stop stop-color="#E38DDD"/>
<stop offset="1" stop-color="#9571F6"/>
</linearGradient>
<linearGradient id="paint3_linear_2732_1217" x1="1171.48" y1="2681.48" x2="1572.34" y2="1396.36" gradientUnits="userSpaceOnUse">
<stop stop-color="#311944"/>
<stop offset="1" stop-color="#893976"/>
</linearGradient>
<linearGradient id="paint4_linear_2732_1217" x1="2022.68" y1="2799" x2="2392.66" y2="1612.89" gradientUnits="userSpaceOnUse">
<stop stop-color="#311944"/>
<stop offset="1" stop-color="#893976"/>
</linearGradient>
<linearGradient id="paint5_linear_2732_1217" x1="1208.69" y1="2681.48" x2="1609.55" y2="1396.36" gradientUnits="userSpaceOnUse">
<stop stop-color="#FCB148"/>
<stop offset="0.05" stop-color="#FDBA46"/>
<stop offset="0.14" stop-color="#FFC244"/>
<stop offset="0.32" stop-color="#FFC444"/>
<stop offset="0.48" stop-color="#FDB946"/>
<stop offset="0.78" stop-color="#F99C4D"/>
<stop offset="0.87" stop-color="#F8924F"/>
<stop offset="1" stop-color="#F8924F"/>
</linearGradient>
<linearGradient id="paint6_linear_2732_1217" x1="2051.11" y1="2768.11" x2="2413.8" y2="1605.36" gradientUnits="userSpaceOnUse">
<stop stop-color="#FCB148"/>
<stop offset="0.05" stop-color="#FDBA46"/>
<stop offset="0.14" stop-color="#FFC244"/>
<stop offset="0.32" stop-color="#FFC444"/>
<stop offset="0.48" stop-color="#FDB946"/>
<stop offset="0.78" stop-color="#F99C4D"/>
<stop offset="0.87" stop-color="#F8924F"/>
<stop offset="1" stop-color="#F8924F"/>
</linearGradient>
<linearGradient id="paint7_linear_2732_1217" x1="1349.5" y1="1746.05" x2="1409.35" y2="1735.86" gradientUnits="userSpaceOnUse">
<stop stop-color="#F36F56"/>
<stop offset="1" stop-color="#FFC444"/>
</linearGradient>
<linearGradient id="paint8_linear_2732_1217" x1="1423.19" y1="1479.75" x2="1359.98" y2="2057.12" gradientUnits="userSpaceOnUse">
<stop stop-color="#444B8C"/>
<stop offset="1" stop-color="#26264F"/>
</linearGradient>
<linearGradient id="paint9_linear_2732_1217" x1="1540.71" y1="1221.99" x2="1025.9" y2="1644.87" gradientUnits="userSpaceOnUse">
<stop stop-color="#26264F"/>
<stop offset="1" stop-color="#444B8C"/>
</linearGradient>
<linearGradient id="paint10_linear_2732_1217" x1="929.82" y1="1413.89" x2="743.204" y2="1892.81" gradientUnits="userSpaceOnUse">
<stop stop-color="#444B8C"/>
<stop offset="1" stop-color="#26264F"/>
</linearGradient>
<linearGradient id="paint11_linear_2732_1217" x1="660.262" y1="1959.22" x2="731.577" y2="1965.94" gradientUnits="userSpaceOnUse">
<stop stop-color="#F36F56"/>
<stop offset="1" stop-color="#FFC444"/>
</linearGradient>
<linearGradient id="paint12_linear_2732_1217" x1="1777.09" y1="1583.48" x2="1141.08" y2="1368.73" gradientUnits="userSpaceOnUse">
<stop stop-color="#AB316D"/>
<stop offset="1" stop-color="#792D3D"/>
</linearGradient>
<linearGradient id="paint13_linear_2732_1217" x1="1117.44" y1="1220.56" x2="750.291" y2="1956.67" gradientUnits="userSpaceOnUse">
<stop stop-color="#26264F"/>
<stop offset="1" stop-color="#444B8C"/>
</linearGradient>
<linearGradient id="paint14_linear_2732_1217" x1="1071.51" y1="1217.49" x2="711.973" y2="1938.31" gradientUnits="userSpaceOnUse">
<stop stop-color="#AB316D"/>
<stop offset="1" stop-color="#792D3D"/>
</linearGradient>
<linearGradient id="paint15_linear_2732_1217" x1="873.181" y1="655.27" x2="1401.54" y2="655.27" gradientUnits="userSpaceOnUse">
<stop stop-color="#2CB67D"/>
<stop offset="0.63" stop-color="#2CB67D"/>
<stop offset="1" stop-color="#2CB67D"/>
</linearGradient>
<linearGradient id="paint16_linear_2732_1217" x1="1906.18" y1="219.77" x2="2024.87" y2="245.203" gradientUnits="userSpaceOnUse">
<stop stop-color="#26264F"/>
<stop offset="1" stop-color="#444B8C"/>
</linearGradient>
<linearGradient id="paint17_linear_2732_1217" x1="1657.43" y1="263.791" x2="1981.94" y2="333.329" gradientUnits="userSpaceOnUse">
<stop stop-color="#26264F"/>
<stop offset="1" stop-color="#444B8C"/>
</linearGradient>
<linearGradient id="paint18_linear_2732_1217" x1="1626.89" y1="387.717" x2="1650.06" y2="392.684" gradientUnits="userSpaceOnUse">
<stop stop-color="#26264F"/>
<stop offset="1" stop-color="#444B8C"/>
</linearGradient>
<linearGradient id="paint19_linear_2732_1217" x1="1832.83" y1="326.961" x2="1894.01" y2="340.071" gradientUnits="userSpaceOnUse">
<stop stop-color="#FFC444"/>
<stop offset="1" stop-color="#F36F56"/>
</linearGradient>
<linearGradient id="paint20_linear_2732_1217" x1="1646.97" y1="362.382" x2="1343.19" y2="627.523" gradientUnits="userSpaceOnUse">
<stop stop-color="#FFC444"/>
<stop offset="1" stop-color="#F36F56"/>
</linearGradient>
<linearGradient id="paint21_linear_2732_1217" x1="1634.28" y1="356.565" x2="1371.4" y2="586.004" gradientUnits="userSpaceOnUse">
<stop stop-color="#FFC444"/>
<stop offset="1" stop-color="#F36F56"/>
</linearGradient>
<linearGradient id="paint22_linear_2732_1217" x1="947.761" y1="771.56" x2="2013.58" y2="771.56" gradientUnits="userSpaceOnUse">
<stop stop-color="#2CB67D"/>
<stop offset="0.63" stop-color="#2CB67D"/>
<stop offset="1" stop-color="#2CB67D"/>
</linearGradient>
<linearGradient id="paint23_linear_2732_1217" x1="2028.04" y1="465.95" x2="1365.34" y2="965.931" gradientUnits="userSpaceOnUse">
<stop stop-color="#2CB67D"/>
<stop offset="1" stop-color="#2CB67D"/>
</linearGradient>
</defs>
</svg>
