<svg width="2872" height="2913" viewBox="0 0 2872 2913" fill="none" xmlns="http://www.w3.org/2000/svg">
<path d="M255.571 2907.45C255.571 2907.45 -152.459 2521.49 62.6083 1760.79C198.536 1279.67 514.513 1426.03 499.212 691.436C483.911 -43.1614 1229.26 -106.273 1466.5 106.754C1703.75 319.781 1682.71 447.933 2169.83 331.799C2587.05 232.346 2696.76 945.485 2521.81 1344.81C2310.29 1827.57 3149.97 1901.94 2719.85 2907.38L255.571 2907.45Z" fill="#F4F7FA"/>
<path d="M1830.95 2906.9H976.745L1033.92 2560.79H1776.69L1830.95 2906.9Z" fill="#8C9DF4"/>
<path d="M1405.36 2604.39C1610.44 2604.39 1776.69 2584.87 1776.69 2560.79C1776.69 2536.71 1610.44 2517.19 1405.36 2517.19C1200.28 2517.19 1034.03 2536.71 1034.03 2560.79C1034.03 2584.87 1200.28 2604.39 1405.36 2604.39Z" fill="#6980E2"/>
<path d="M1592.61 2812.57C1592.61 2818.42 1591.49 2824.14 1589.39 2829C1587.28 2833.87 1584.29 2837.67 1580.79 2839.91C1577.3 2842.15 1573.45 2842.74 1569.73 2841.6C1566.02 2840.46 1562.6 2837.64 1559.92 2833.51C1557.24 2829.37 1555.42 2824.1 1554.68 2818.36C1553.94 2812.63 1554.32 2806.68 1555.77 2801.27C1557.22 2795.87 1559.67 2791.24 1562.82 2787.99C1565.97 2784.74 1569.67 2783.01 1573.46 2783.01C1575.97 2783.01 1578.46 2783.77 1580.79 2785.25C1583.11 2786.74 1585.22 2788.91 1587 2791.66C1588.78 2794.4 1590.19 2797.66 1591.15 2801.25C1592.11 2804.84 1592.61 2808.68 1592.61 2812.57V2812.57Z" fill="#FFC440"/>
<path d="M1667.34 2812.57C1667.34 2818.42 1666.22 2824.14 1664.12 2829C1662.02 2833.87 1659.03 2837.67 1655.53 2839.91C1652.03 2842.15 1648.18 2842.74 1644.47 2841.6C1640.75 2840.46 1637.34 2837.64 1634.66 2833.51C1631.98 2829.37 1630.16 2824.1 1629.42 2818.36C1628.68 2812.63 1629.05 2806.68 1630.5 2801.27C1631.95 2795.87 1634.41 2791.24 1637.55 2787.99C1640.7 2784.74 1644.41 2783.01 1648.19 2783.01C1650.71 2783.01 1653.2 2783.77 1655.52 2785.25C1657.84 2786.74 1659.95 2788.91 1661.73 2791.66C1663.51 2794.4 1664.92 2797.66 1665.88 2801.25C1666.85 2804.84 1667.34 2808.68 1667.34 2812.57V2812.57Z" fill="#AEC3FF"/>
<path d="M1741.92 2812.57C1741.92 2818.42 1740.8 2824.14 1738.7 2829.01C1736.59 2833.87 1733.6 2837.67 1730.1 2839.91C1726.6 2842.15 1722.75 2842.74 1719.04 2841.6C1715.32 2840.46 1711.91 2837.64 1709.23 2833.5C1706.55 2829.36 1704.73 2824.09 1703.99 2818.35C1703.25 2812.61 1703.63 2806.66 1705.08 2801.26C1706.53 2795.85 1708.99 2791.23 1712.14 2787.98C1715.29 2784.74 1719 2783 1722.78 2783.01C1727.86 2783.01 1732.73 2786.12 1736.31 2791.67C1739.9 2797.21 1741.92 2804.73 1741.92 2812.57V2812.57Z" fill="#213F7A"/>
<path d="M500.993 2909.37H552.462C551.554 2899.71 550.182 2890.18 548.356 2880.84C547.566 2876.91 546.59 2873.08 545.437 2869.37C540.489 2853.95 508.637 2863.76 508.637 2863.76C508.637 2863.76 505.694 2867.58 503.38 2882.6C502.097 2891.4 501.298 2900.35 500.993 2909.37V2909.37Z" fill="#233862"/>
<path d="M595.471 1695.06C595.471 1695.06 636.475 1706.18 645.752 1743.58C655.03 1780.97 707.402 2384.95 707.402 2384.95C707.402 2384.95 681.426 2416.69 625.763 2405.3C570.101 2393.91 595.471 1695.06 595.471 1695.06Z" fill="#8C9DF4"/>
<path d="M656.514 2884.28C656.65 2895.09 657.528 2905.29 660.076 2909.36H761.901C760.665 2903.63 756.954 2895.13 746.489 2892.51C734.614 2889.53 716.11 2880.7 705.299 2863.05C701.374 2856.88 698.615 2849.17 697.321 2840.75C692.534 2807.81 657.738 2850.84 657.738 2850.84C656.872 2861.93 656.463 2873.1 656.514 2884.28Z" fill="#233862"/>
<path d="M700.35 2868.26C688.971 2873.86 667.225 2890.98 653.421 2882.94C644.49 2877.74 594.592 2654.8 591.363 2557.28C590.879 2547.53 590.024 2537.83 588.803 2528.23C585.847 2503.07 580.676 2468.48 574.727 2430.33C558.758 2328.06 537.161 2200.16 537.618 2159.27C538.348 2095.82 660.076 2145.9 660.076 2145.9C660.076 2145.9 668.437 2197.96 670.107 2273.32C673.41 2422.91 682.477 2675.59 707.215 2851.07C707.652 2854.74 707.192 2858.53 705.924 2861.71C704.656 2864.88 702.67 2867.22 700.35 2868.26V2868.26Z" fill="#FFB91D"/>
<path d="M615.942 2159.5L551.621 2879.84C551.621 2879.84 523.369 2890.37 501.389 2881.94C501.389 2881.94 482.55 2498.88 484.072 2406.27C485.593 2313.66 470.54 2158.45 487.498 2141.25C504.457 2124.05 615.942 2159.5 615.942 2159.5Z" fill="#FFC440"/>
<path d="M479.359 1728.06C479.359 1728.06 546.97 1660.53 595.471 1695.06C603.189 1700.56 612.009 1715.93 618.317 1726.66C635.844 1756.51 670.095 2230.47 670.095 2230.47C670.095 2230.47 572.872 2281.33 479.359 2213.27V1728.06Z" fill="white"/>
<path d="M599.317 1693.36C599.317 1693.36 667.757 1736.68 677.034 1769.98C686.311 1803.29 716.431 2007.71 716.431 2031.75C716.431 2055.79 663.972 2037.12 655.524 1998.45C648.51 1966.35 624.86 1867.7 612.379 1805.31L599.317 1693.36Z" fill="#8C9DF4"/>
<path d="M585.105 1726.38C570.163 1730.91 548.207 1726.07 532.139 1709.72C539.388 1682.97 542.369 1661.81 543.42 1648.13C543.42 1647.41 543.531 1646.7 543.581 1646.01C543.986 1641.34 544.048 1636.61 543.766 1631.91H582.396C582.396 1631.91 592.96 1639.36 592.96 1644.52C592.96 1647.27 592.96 1649.91 592.96 1652.43C593.034 1659.29 593.207 1665.29 593.442 1670.43C593.694 1678.71 594.355 1686.94 595.421 1695.06C595.421 1695.06 600.183 1721.79 585.105 1726.38Z" fill="#FFB27D"/>
<path d="M593.491 1670.43C564.225 1679.16 547.23 1654.46 543.42 1648.13C542.888 1647.22 542.604 1646.68 542.604 1646.68C542.913 1646.45 543.234 1646.22 543.581 1646.01C554.478 1639.21 579.192 1644.62 593.058 1652.43C593.083 1659.29 593.256 1665.29 593.491 1670.43Z" fill="#E2915A"/>
<path d="M533.871 1622.11C539.091 1665.58 575.408 1664.15 591.105 1661.41C595.52 1660.67 598.304 1659.79 598.304 1659.79C603.251 1657.73 606.059 1645.61 607.358 1629.75C609.918 1598.34 606.678 1552.22 603.251 1540.43C598.081 1522.68 588.334 1503.49 551.757 1517.35C515.181 1531.2 527.155 1566.39 533.871 1622.11Z" fill="#FFB27D"/>
<path d="M604.612 1516.18C599.664 1505.48 589.014 1492.43 579.378 1484.38C558.696 1467.09 532.238 1484.92 532.127 1484.99C502.255 1505.29 494.45 1540.6 510.283 1595.59C527.031 1653.75 542.975 1647.18 542.975 1647.18C542.975 1647.18 539.598 1643.93 539.907 1625.8C539.907 1624.76 539.907 1623.88 539.982 1623.18C540.082 1621.34 539.912 1619.5 539.484 1617.78C539.055 1616.06 538.379 1614.52 537.508 1613.26C533.797 1608.14 531.991 1592.66 535.034 1588.42C538.745 1583.22 544.051 1589.53 545.733 1594.38C546.055 1595.22 546.483 1595.94 546.993 1596.51C547.503 1597.08 548.083 1597.48 548.698 1597.69C549.312 1597.9 549.948 1597.92 550.566 1597.73C551.183 1597.55 551.77 1597.17 552.289 1596.62C561.591 1587.54 555.555 1569.37 564.436 1558.27C573.317 1547.17 591.352 1556.49 604.674 1547.63C622.127 1537.56 608.372 1524.22 604.612 1516.18Z" fill="#233862"/>
<path d="M608.768 2429.31C602.88 2431.67 597.046 2433.58 591.265 2435.05C586.144 2436.38 581.035 2437.39 575.939 2438.06C546.995 2441.89 517.939 2435.66 483.96 2420.62C476.316 2417.22 468.399 2413.4 460.211 2409.16C459.333 2408.7 462.437 2269.94 466.024 2126.81C466.383 2112.04 466.767 2097.21 467.138 2082.48C467.294 2076.24 467.455 2070.02 467.62 2063.83C470.873 1937.24 474.089 1822.93 474.77 1816.77C476.328 1802.84 477.775 1790.96 479.359 1780.68C483.985 1750.68 489.737 1734.25 502.267 1720.09C503.504 1718.68 513.511 1710.86 522.343 1704.08C529.678 1698.35 536.172 1693.55 536.172 1693.55C539.091 1695.75 542.579 1706.07 546.253 1720.55C552.982 1747.3 560.242 1788.09 565.289 1818.61V1818.76C568.542 1838.46 570.88 1853.8 571.474 1858.22C572.599 1865.65 574.096 1880.04 575.853 1899.55C578.228 1926.1 581.073 1962.14 584.078 2003.05C584.388 2007.25 584.697 2011.51 585.006 2015.79C585.361 2020.71 585.719 2025.67 586.082 2030.68C586.193 2032.3 586.317 2033.91 586.416 2035.51C587.579 2051.72 588.742 2068.43 589.904 2085.42C590.869 2099.47 604.661 2109.63 605.614 2123.92C606.158 2132.31 607.308 2209.71 608.78 2234.42C609.943 2252.07 609.188 2421.02 608.768 2429.31Z" fill="#8C9DF4"/>
<path d="M508.983 1867.79C508.983 1868.08 506.645 1995.81 568.839 2011.31C631.032 2026.8 589.706 2030.93 589.706 2030.93C589.706 2030.93 472.691 2023.29 470.749 2018.47C468.807 2013.66 508.983 1867.79 508.983 1867.79Z" fill="#6980E2"/>
<path d="M561.517 2066.12C561.517 2066.12 560.354 2067.4 558.115 2069.64L558.004 2069.75C548.504 2079.1 520.352 2104.6 479.347 2121.71C475.042 2123.5 470.589 2125.22 466.013 2126.79C466.371 2112.02 466.755 2097.19 467.126 2082.46C461.948 2081.87 456.799 2080.77 451.714 2079.15C451.874 2077.24 452.048 2075.33 452.208 2073.42C457.416 2070.12 462.611 2066.93 467.608 2063.87C471.678 2061.42 475.611 2059.07 479.347 2056.89C496.194 2047.02 508.675 2040.33 508.675 2040.33L558.536 2064.73L561.517 2066.12Z" fill="#6980E2"/>
<path d="M574.727 2064C574.727 2064 568.319 2066.47 558.127 2069.74H558.016C539.214 2075.47 507.598 2083.76 479.359 2083.32C475.19 2083.32 471.096 2083 467.137 2082.52C461.959 2081.93 456.811 2080.83 451.725 2079.21C441.397 2075.85 432.75 2070.16 427.098 2061.25C385.042 1995.16 450.018 1757.96 463.674 1734.88C479.618 1707.92 508.699 1698.58 524.767 1695.23L526.709 1694.85C532.349 1693.82 535.973 1693.59 536.171 1693.59C536.171 1693.59 534.934 1699.84 532.807 1710.44C531.99 1714.55 531.038 1719.31 529.987 1724.62C520.091 1774.53 501.092 1872.63 492.693 1927.94C489.625 1948.18 487.98 1962.7 488.722 1967.04C492 1985.91 525.942 1995.7 547.44 1999.94C556.408 2001.72 563.223 2002.57 564.757 2002.75H565.066L566.303 2010.62L569.272 2029.52L572.203 2048.07L574.727 2064Z" fill="#8C9DF4"/>
<path d="M691.89 2177.69L547.625 2168.31L576.891 1890.59L721.156 1899.97L691.89 2177.69Z" fill="#233862"/>
<path d="M565.066 2002.73C565.066 2002.73 593.157 1999.71 594.567 2009.82C597.845 2033.37 570.422 2052.73 561.528 2051.41C552.635 2050.09 558.609 2001.16 565.066 2002.73Z" fill="#FFB27D"/>
<path d="M713.266 1956.37C713.266 1956.37 686.399 1943.4 683.579 1952.73C676.85 1974.49 700.637 2003.11 709.481 2005C718.325 2006.89 719.846 1957.16 713.266 1956.37Z" fill="#FFB27D"/>
<path d="M539.103 1679.59C539.103 1679.59 527.278 1688.28 521.365 1701.41C521.365 1701.41 565.524 1819.87 565.326 1818.74C565.128 1817.62 550.384 1694.76 539.103 1679.59Z" fill="#6980E2"/>
<path d="M594.097 1681.25C597.994 1683.52 605.453 1695.33 607.135 1701.84L612.379 1805.25C612.379 1805.25 601.173 1729.36 595.47 1695.06C594.653 1690.56 594.192 1685.92 594.097 1681.25V1681.25Z" fill="#6980E2"/>
<path d="M624.712 1893.7C624.712 1893.7 625.85 1886.06 632.418 1886.9C638.986 1887.74 675.884 1890.58 675.884 1890.58C675.884 1890.58 682.996 1890.41 682.328 1897.44L624.712 1893.7Z" fill="#C65447"/>
<g opacity="0.4">
<path d="M2259 2909.17H2258.6C2257.78 2909.17 2256.96 2908.89 2256.21 2908.37C2255.46 2907.86 2254.78 2907.1 2254.22 2906.16C2253.67 2905.22 2253.25 2904.11 2252.98 2902.9C2252.72 2901.69 2252.62 2900.41 2252.69 2899.14L2276.19 2522.88L2296.7 2525.81L2262.96 2904.13C2262.81 2905.57 2262.33 2906.88 2261.6 2907.81C2260.87 2908.74 2259.94 2909.22 2259 2909.17V2909.17Z" fill="#8C9DF4"/>
<path d="M2485.32 2909.17H2485.75C2486.58 2909.17 2487.39 2908.89 2488.15 2908.37C2488.9 2907.86 2489.58 2907.1 2490.13 2906.16C2490.69 2905.22 2491.11 2904.11 2491.38 2902.9C2491.64 2901.69 2491.74 2900.41 2491.67 2899.14L2468.17 2522.88L2447.66 2525.81L2481.4 2904.13C2481.55 2905.56 2482.03 2906.86 2482.75 2907.79C2483.47 2908.72 2484.38 2909.21 2485.32 2909.17V2909.17Z" fill="#8C9DF4"/>
<path d="M2478.32 2470.11L2520.04 2151.84C2525.4 2108.75 2502.28 2069.35 2472.27 2070.41L2391.87 2073.25C2378.35 2073.73 2365.27 2080.86 2354.55 2093.61C2343.83 2106.35 2336.02 2124.05 2332.26 2144.12L2271.22 2470.11H2478.32Z" fill="#8C9DF4"/>
<path d="M2453.09 2470.11L2494.86 2151.84C2500.21 2108.75 2477.1 2069.35 2447.08 2070.41L2366.67 2073.25C2353.15 2073.73 2340.08 2080.86 2329.36 2093.61C2318.64 2106.35 2310.83 2124.05 2307.07 2144.12L2246.02 2470.11H2453.09Z" fill="#8C9DF4"/>
<path d="M2148.34 2470.11H2478.32V2510.24C2478.32 2515 2477.1 2519.57 2474.92 2522.94C2472.73 2526.31 2469.78 2528.2 2466.69 2528.2H2148.34C2145.26 2528.2 2142.3 2526.31 2140.12 2522.94C2137.94 2519.57 2136.71 2515 2136.71 2510.24V2488.11C2136.71 2485.75 2137.01 2483.41 2137.59 2481.23C2138.18 2479.04 2139.03 2477.06 2140.11 2475.39C2141.19 2473.71 2142.47 2472.39 2143.89 2471.48C2145.3 2470.58 2146.81 2470.11 2148.34 2470.11V2470.11Z" fill="#8C9DF4"/>
<path d="M2317.31 2470.11H2114.36C2109.19 2470.11 2105 2476.59 2105 2484.58V2513.7C2105 2521.68 2109.19 2528.16 2114.36 2528.16H2317.31C2322.48 2528.16 2326.67 2521.68 2326.67 2513.7V2484.58C2326.67 2476.59 2322.48 2470.11 2317.31 2470.11Z" fill="#8C9DF4"/>
</g>
<path d="M2307.61 1801.75C2307.61 1801.75 2317.07 1756.6 2358.68 1758.67C2358.68 1758.67 2366.99 1734.5 2386.97 1738.62C2406.95 1742.75 2417.89 1854.28 2398.94 1881.53C2379.99 1908.77 2368.21 1909.6 2368.21 1909.6L2307.6 1805.96L2307.61 1801.75Z" fill="#A9453D"/>
<path d="M2318.77 2143.16L2284.96 2275.33C2284.96 2275.33 2252.37 2334.56 2226.18 2315.45L2309.06 2066.89L2318.77 2143.16Z" fill="#ABDDDA"/>
<path d="M2089 2869.24C2089.98 2883.84 2076.83 2887.62 2061.58 2889.05C2046.33 2890.49 2050.97 2895.23 2030.1 2901.42C2009.23 2907.61 2000.79 2898.91 1999.18 2894.58C1997.8 2890.76 2007.48 2884.51 2017.73 2877.49L2021.63 2874.82C2033.24 2866.7 2039.68 2850.44 2048.66 2835.31C2057.18 2820.98 2065.03 2775.4 2065.03 2775.4L2093.4 2765.56C2093.4 2765.56 2085.69 2806.59 2083.04 2824.09C2081.48 2834.37 2083.97 2845.81 2086.16 2854.51C2087.53 2859.2 2088.49 2864.15 2089 2869.24Z" fill="#FFB27D"/>
<path d="M2061.58 2889.13C2046.33 2890.54 2050.97 2895.3 2030.1 2901.49C2009.23 2907.68 2000.79 2898.99 1999.18 2894.65C1997.8 2890.83 2007.48 2884.58 2017.73 2877.57L2017.89 2877.84C2028.26 2882.26 2039.21 2882.26 2049.58 2877.84C2063.37 2871.82 2076.66 2858.73 2086.16 2854.53C2087.49 2859.23 2088.41 2864.18 2088.88 2869.26C2089.98 2883.91 2076.83 2887.7 2061.58 2889.13Z" fill="#0F2549"/>
<path d="M2131.96 2361.86C2147.23 2345.32 2246.21 2272.73 2297.71 2264.19L2356.58 2230.96C2356.58 2230.96 2405.03 2341.78 2405.41 2426.64C2405.6 2466.17 2393.81 2470.11 2393.8 2470.11C2393.79 2470.11 2211.31 2472.21 2203.31 2473.47C2190.22 2475.57 2172.94 2525.96 2168.68 2571.85C2164.41 2617.75 2088.27 2804.39 2088.27 2804.39C2088.27 2804.39 2072.4 2812.26 2065.07 2811.59C2057.18 2810.87 2053.52 2806.78 2053.52 2806.78C2053.52 2806.78 2097.55 2399.2 2131.96 2361.86Z" fill="#FFB91D"/>
<path d="M2136.21 2869.24C2137.18 2883.84 2124.04 2887.62 2108.78 2889.05C2093.53 2890.49 2098.17 2895.23 2077.3 2901.42C2056.44 2907.61 2054.75 2884.51 2065.06 2877.49L2068.97 2874.82C2080.57 2866.7 2087 2850.44 2095.99 2835.31C2104.5 2820.98 2112.36 2775.4 2112.36 2775.4L2140.72 2765.56C2140.72 2765.56 2133.02 2806.59 2130.37 2824.09C2128.81 2834.37 2131.3 2845.81 2133.5 2854.51C2134.82 2859.21 2135.73 2864.17 2136.21 2869.24V2869.24Z" fill="#FFB27D"/>
<path d="M2108.78 2889.13C2093.53 2890.54 2098.17 2895.3 2077.3 2901.49C2056.44 2907.68 2047.99 2898.99 2046.38 2894.65C2045.01 2890.83 2054.69 2884.58 2064.93 2877.57L2065.11 2877.84C2075.47 2882.26 2086.42 2882.26 2096.78 2877.84C2110.58 2871.82 2123.86 2858.73 2133.37 2854.53C2134.7 2859.23 2135.61 2864.18 2136.08 2869.26C2137.18 2883.91 2124.03 2887.7 2108.78 2889.13Z" fill="#233862"/>
<path d="M2179.59 2361.86C2192.83 2347.5 2226.18 2340.98 2274.67 2316.58C2286.33 2310.71 2331.28 2277.24 2334.26 2258.84L2312.09 2243.04L2404.2 2230.96C2404.2 2230.96 2427.51 2300.74 2427.89 2385.56C2428.07 2425.09 2405.43 2470.11 2405.43 2470.11C2405.43 2470.11 2258.94 2472.21 2250.93 2473.47C2237.83 2475.57 2220.57 2525.96 2216.3 2571.85C2212.03 2617.75 2135.9 2804.39 2135.9 2804.39C2135.9 2804.39 2120.03 2812.26 2112.69 2811.59C2104.8 2810.87 2101.14 2806.78 2101.14 2806.78C2101.14 2806.78 2145.17 2399.2 2179.59 2361.86Z" fill="#FFC440"/>
<path d="M2325.24 1998.51C2325.05 1998.66 2343.72 2011.77 2357.2 2004.89C2369.88 1998.43 2381.05 1968.95 2380.86 1968.91C2375.37 1967.69 2369.73 1959.35 2368.21 1909.68L2365.73 1910.61L2324.75 1926.62C2324.75 1926.62 2326.39 1946.67 2327.05 1965.62C2327.65 1981.46 2327.54 1996.61 2325.24 1998.51Z" fill="#FFB27D"/>
<path d="M2324.79 1926.55C2324.79 1926.55 2324.79 1930.67 2326.32 1949.32C2349.5 1940.28 2359.72 1928.42 2366.92 1914.93L2324.79 1926.55Z" fill="#ED975D"/>
<path d="M2316.06 1929.16C2316.06 1929.16 2370.24 1942.79 2375.21 1890.53C2380.18 1838.27 2390.53 1804.85 2356.15 1793.94C2321.76 1783.03 2313.13 1801.43 2308.72 1818.24C2304.32 1835.06 2302.09 1924.18 2316.06 1929.16Z" fill="#FFB27D"/>
<path d="M2316.01 1791.59C2316.01 1791.59 2340.61 1851.59 2362.58 1865.8C2384.55 1880.02 2395.33 1872.8 2395.33 1872.8C2388.74 1856.05 2384.46 1837.38 2382.74 1817.96C2382.36 1813.41 2381.2 1809.1 2379.39 1805.47C2377.57 1801.84 2375.16 1799.03 2372.4 1797.32C2356.69 1787.6 2326.19 1772.22 2316.01 1791.59Z" fill="#A9453D"/>
<path d="M2337.62 1797.46C2337.62 1797.46 2323.19 1808.92 2317.26 1819.58C2311.53 1829.9 2304.89 1857.93 2305.38 1870.52C2305.38 1870.52 2298.26 1810.2 2313.08 1789.47C2328.8 1767.48 2337.62 1797.46 2337.62 1797.46Z" fill="#A9453D"/>
<path d="M2281.88 2126.16C2283.53 2296.21 2242.94 2248.67 2254.99 2264.82C2257.9 2268.64 2269.83 2297.66 2314.57 2301.12C2348.38 2303.72 2409.32 2279.07 2411.59 2269.42C2419.38 2236.06 2413.88 2225.71 2420.38 2174.63C2421.05 2169.21 2421.89 2163.32 2422.86 2156.92C2428.27 2121.84 2433.54 2109.92 2414.32 2053.55C2396.88 2002.52 2376.38 1961.05 2374.74 1962.54C2328.75 2004.71 2327.17 1969.36 2327.17 1969.36C2327.17 1969.36 2281.08 2043.18 2281.88 2126.16Z" fill="#2B478B"/>
<path d="M2327.2 1969.29C2327.2 1969.29 2280.2 1981.61 2274.57 2013.08C2268.94 2044.55 2208.28 2292.55 2208.28 2292.55C2208.28 2292.55 2263.07 2309.74 2274.18 2292.55C2285.28 2275.35 2310.16 2059.84 2310.16 2059.84L2327.2 1969.29Z" fill="#8C9DF4"/>
<path d="M2326.78 1958.25L2327.2 1969.35C2321.86 1997.76 2308.75 2093.54 2297.52 2161.38L2293.7 2056.29L2300.18 2048.11L2297.7 2034.35L2318.93 1972.14L2326.78 1958.25Z" fill="#6980E2"/>
<path d="M2327.2 2425.28C2399.84 2462.81 2457.34 2437.59 2457.34 2437.59L2445.48 2329.15L2439 2270.04L2425.12 2143.16L2401.38 2022.44L2380.64 2003.03L2362.51 2143.16L2327.2 2425.28Z" fill="#8C9DF4"/>
<path d="M2414.77 2156.29C2416 2159.25 2416 2216.9 2380.87 2231C2345.75 2245.1 2432.37 2258.84 2432.37 2258.84C2432.37 2258.84 2460.31 2225.72 2459.9 2217.59C2459.49 2209.45 2414.77 2156.29 2414.77 2156.29Z" fill="#6980E2"/>
<path d="M2350.66 2281.85C2350.66 2281.85 2398.83 2324.45 2445.48 2329.15L2439 2270.04L2350.66 2281.85Z" fill="#6980E2"/>
<path d="M2319.11 2273.09C2319.11 2273.09 2315.12 2289.58 2313.25 2292.2C2312.34 2293.65 2311.17 2294.66 2309.9 2295.12L2311.88 2280.47L2319.11 2273.09Z" fill="#FFB27D"/>
<path d="M2317.9 2258.73L2301.44 2282.65C2301.96 2283.19 2302.57 2283.51 2303.2 2283.57C2303.84 2283.64 2304.47 2283.44 2305.04 2283.01C2307.39 2281.71 2312.73 2275.37 2312.73 2275.37L2317.9 2258.73Z" fill="#FFB27D"/>
<path d="M2356.17 2247.55C2356.17 2247.55 2322.16 2251.89 2317.9 2258.73C2313.65 2265.57 2304.29 2287.39 2303.84 2293.73C2303.38 2300.07 2314.41 2284.06 2318.3 2280.36C2320.77 2277.89 2328.79 2278.31 2332.73 2278.45C2349.31 2278.96 2357.71 2270.57 2357.71 2270.57L2356.17 2247.55Z" fill="#FFB27D"/>
<path d="M2374.77 1962.53C2374.77 1962.53 2421.93 1966.79 2437.41 2000.15C2459.22 2047.12 2502.46 2247.28 2477.68 2273.98C2449.77 2304.05 2350.64 2281.85 2350.64 2281.85C2350.64 2281.85 2347.35 2258.04 2351.94 2246.52C2356.53 2235 2431.11 2216.39 2434.56 2211.06C2438.01 2205.72 2391.52 2107.38 2391.52 2091.42C2391.52 2075.47 2374.77 1962.53 2374.77 1962.53Z" fill="#8C9DF4"/>
<path d="M2372.07 1953.16L2362.5 2143.17L2384.37 2070.43L2380.66 2057.47C2380.66 2057.47 2388.67 2036.2 2388.67 2033.7C2388.67 2031.2 2386.39 1964.61 2386.39 1964.61L2372.07 1953.16Z" fill="#6980E2"/>
<path d="M2087.29 2248.31H2278.43L2243.7 2049.9H2052.55L2087.29 2248.31Z" fill="#142D5E"/>
<path d="M2081.25 2248.31H2272.39L2237.66 2049.9H2046.51L2081.25 2248.31Z" fill="#2B478B"/>
<path d="M2162.66 2296.44L2202.74 2297.01L2175 2166.36L2134.92 2165.8L2162.66 2296.44Z" fill="#142D5E"/>
<path d="M2139.95 2297.02H2227.49V2290.79H2139.95V2297.02Z" fill="#142D5E"/>
<path d="M2254.37 2298.48H2317.15V2285.51H2254.37V2298.48Z" fill="#233862"/>
<path d="M2555.15 2903.63C2554.02 2903.68 2552.91 2903.12 2552.02 2902.04C2551.12 2900.96 2550.5 2899.44 2550.26 2897.73L2526.28 2697.88L2491.79 2410.47L2482.14 2330.09L2506.71 2329.06L2510.98 2375.72L2540.9 2703.6L2558.64 2897.9C2558.69 2898.64 2558.64 2899.39 2558.48 2900.1C2558.33 2900.81 2558.08 2901.46 2557.75 2902C2557.41 2902.55 2557.01 2902.98 2556.56 2903.26C2556.11 2903.54 2555.63 2903.67 2555.15 2903.63V2903.63Z" fill="#4C64A5"/>
<path d="M2510.94 2375.74C2495.02 2386.08 2491.75 2410.5 2491.75 2410.5L2481.3 2325.28L2506.67 2329.1L2510.94 2375.74Z" fill="#4C64A5"/>
<path d="M1876.26 2901.72C1877.39 2901.77 1878.5 2901.21 1879.39 2900.14C1880.28 2899.06 1880.9 2897.54 1881.15 2895.84L1905.13 2696.68L1939.62 2410.25L1949.25 2330.15L1924.69 2329.12L1920.43 2375.62L1890.51 2702.36L1872.76 2895.99C1872.71 2896.74 1872.77 2897.49 1872.92 2898.2C1873.08 2898.9 1873.33 2899.55 1873.66 2900.1C1873.99 2900.64 1874.4 2901.07 1874.85 2901.35C1875.3 2901.63 1875.78 2901.76 1876.26 2901.72V2901.72Z" fill="#4C64A5"/>
<path d="M1920.43 2375.58C1936.34 2385.86 1939.62 2410.21 1939.62 2410.21L1953.84 2328.04L1924.69 2329.04L1920.43 2375.58Z" fill="#4C64A5"/>
<path d="M2578.45 2297.02H1870.07C1865.87 2297.02 1862.47 2302.27 1862.47 2308.75V2317.35C1862.47 2323.83 1865.87 2329.08 1870.07 2329.08H2578.45C2582.65 2329.08 2586.05 2323.83 2586.05 2317.35V2308.75C2586.05 2302.27 2582.65 2297.02 2578.45 2297.02Z" fill="#4C64A5"/>
<path d="M1116.57 2560.79L792.999 706.452C792.999 706.452 1350.35 139.349 1951.8 706.452L1677.82 2560.79H1116.57Z" fill="#E5FFF4"/>
<path d="M1636.65 2121.17C1636.65 2121.17 1625.79 1838.14 1648.28 1751.33C1670.77 1664.53 1895.56 1172.52 1741.94 865.845C1588.33 559.173 1284.86 640.15 1153.73 761.71C1022.6 883.27 1112.51 1126.33 1060.07 1242.07C1007.62 1357.8 955.569 1424.87 985.54 1450.91C1015.51 1476.95 1056.71 1468.26 1056.71 1523.23C1056.71 1578.2 1042.43 1593.49 1057.41 1629.48C1072.39 1665.48 1052.46 1664.2 1062.35 1695.08C1072.25 1725.96 1076.2 1722.23 1072.76 1731.38C1069.32 1740.54 1050.28 1794.07 1057.78 1834.56C1065.27 1875.05 1111.47 1890.51 1173.91 1882.79C1236.36 1875.07 1275.06 1865.42 1278.81 1915.58C1282.56 1965.73 1284.99 2121.17 1284.99 2121.17C1284.99 2121.17 1632.71 2118.99 1636.65 2121.17Z" fill="#8C9DF4"/>
<path d="M1614.24 1664.51C1614.24 1664.51 1799.78 1273.56 1721.86 1010.34C1643.93 747.115 1442.12 692.927 1304.92 723.9C1167.72 754.872 1132.8 855.51 1162.39 940.671C1191.97 1025.83 1194.66 1153.56 1275.34 1219.37C1356.03 1285.17 1446.91 1287.28 1459.01 1374.37C1471.1 1461.46 1521.38 1734.02 1614.24 1664.51Z" fill="#FFC440"/>
<path d="M1636.66 2121.17C1636.66 2132.63 1557.94 2141.81 1460.82 2141.81C1363.71 2141.81 1284.99 2132.56 1284.99 2121.17C1284.99 2109.78 1363.71 2100.52 1460.82 2100.52C1557.94 2100.52 1636.66 2109.76 1636.66 2121.17Z" fill="#8C9DF4"/>
<path d="M1397.05 2593.69C1551.94 2593.69 1677.51 2578.96 1677.51 2560.79C1677.51 2542.62 1551.94 2527.89 1397.05 2527.89C1242.15 2527.89 1116.58 2542.62 1116.58 2560.79C1116.58 2578.96 1242.15 2593.69 1397.05 2593.69Z" fill="#F5F9FD"/>
<path d="M1646.02 936.391H1503.48L1457.56 865.426H1303.71V856.561H1459.93L1505.87 927.525H1646.02V936.391Z" fill="#EBF3FA"/>
<path d="M1299.51 861.067C1299.51 859.785 1299.76 858.532 1300.22 857.467C1300.68 856.401 1301.34 855.571 1302.11 855.081C1302.87 854.591 1303.72 854.464 1304.53 854.716C1305.34 854.967 1306.09 855.586 1306.68 856.494C1307.26 857.402 1307.66 858.557 1307.82 859.815C1307.98 861.073 1307.9 862.376 1307.58 863.559C1307.26 864.742 1306.72 865.753 1306.03 866.462C1305.34 867.172 1304.53 867.548 1303.7 867.545C1303.15 867.545 1302.6 867.377 1302.09 867.051C1301.58 866.725 1301.12 866.248 1300.73 865.646C1300.35 865.044 1300.04 864.33 1299.83 863.545C1299.62 862.759 1299.51 861.917 1299.51 861.067Z" fill="#EBF3FA"/>
<path d="M1642.17 931.956C1642.17 930.781 1642.4 929.632 1642.82 928.655C1643.24 927.677 1643.84 926.916 1644.55 926.466C1645.25 926.016 1646.02 925.899 1646.77 926.128C1647.52 926.357 1648.2 926.923 1648.74 927.754C1649.28 928.585 1649.64 929.644 1649.79 930.797C1649.94 931.949 1649.86 933.144 1649.57 934.23C1649.28 935.316 1648.79 936.244 1648.16 936.897C1647.52 937.55 1646.78 937.898 1646.02 937.898C1645 937.898 1644.02 937.272 1643.3 936.158C1642.58 935.043 1642.17 933.532 1642.17 931.956V931.956Z" fill="#EBF3FA"/>
<path d="M1646.19 965.146H1503.66L1457.72 894.182H1303.87V885.297H1460.09L1506.05 956.261H1646.19V965.146Z" fill="#EBF3FA"/>
<path d="M1299.69 889.729C1299.68 888.446 1299.93 887.191 1300.39 886.123C1300.85 885.055 1301.5 884.222 1302.27 883.729C1303.04 883.237 1303.88 883.107 1304.69 883.356C1305.51 883.605 1306.26 884.223 1306.84 885.13C1307.43 886.037 1307.83 887.193 1307.99 888.451C1308.15 889.709 1308.07 891.013 1307.75 892.197C1307.43 893.382 1306.89 894.393 1306.2 895.103C1305.51 895.814 1304.7 896.191 1303.87 896.187C1303.32 896.187 1302.77 896.02 1302.27 895.696C1301.76 895.371 1301.3 894.895 1300.91 894.296C1300.52 893.696 1300.21 892.984 1300 892.2C1299.79 891.417 1299.69 890.577 1299.69 889.729Z" fill="#EBF3FA"/>
<path d="M1642.34 960.692C1642.34 959.517 1642.57 958.368 1642.99 957.391C1643.41 956.414 1644.02 955.652 1644.72 955.202C1645.42 954.753 1646.19 954.635 1646.94 954.864C1647.69 955.093 1648.37 955.659 1648.91 956.49C1649.45 957.322 1649.81 958.38 1649.96 959.533C1650.11 960.686 1650.04 961.881 1649.74 962.966C1649.45 964.052 1648.96 964.98 1648.33 965.633C1647.69 966.286 1646.95 966.635 1646.19 966.635C1645.17 966.635 1644.19 966.009 1643.47 964.894C1642.75 963.78 1642.34 962.268 1642.34 960.692V960.692Z" fill="#EBF3FA"/>
<path d="M1646.19 994.932H1503.66L1457.72 923.967H1303.87V915.102H1460.09L1506.03 986.066H1646.19V994.932Z" fill="#EBF3FA"/>
<path d="M1299.69 919.538C1299.69 918.256 1299.93 917.003 1300.39 915.937C1300.85 914.872 1301.51 914.041 1302.28 913.552C1303.04 913.062 1303.89 912.935 1304.7 913.186C1305.52 913.438 1306.26 914.057 1306.85 914.965C1307.43 915.872 1307.83 917.028 1307.99 918.286C1308.15 919.544 1308.07 920.847 1307.75 922.03C1307.43 923.213 1306.89 924.223 1306.2 924.933C1305.51 925.642 1304.7 926.019 1303.87 926.015C1303.32 926.015 1302.77 925.848 1302.26 925.522C1301.76 925.196 1301.29 924.719 1300.91 924.117C1300.52 923.515 1300.21 922.801 1300 922.015C1299.79 921.229 1299.68 920.388 1299.69 919.538Z" fill="#EBF3FA"/>
<path d="M1642.34 990.503C1642.34 989.328 1642.57 988.179 1642.99 987.202C1643.41 986.224 1644.02 985.463 1644.72 985.013C1645.42 984.563 1646.19 984.445 1646.94 984.675C1647.69 984.904 1648.37 985.47 1648.91 986.301C1649.45 987.132 1649.81 988.191 1649.96 989.344C1650.11 990.496 1650.04 991.691 1649.74 992.777C1649.45 993.863 1648.96 994.791 1648.33 995.444C1647.69 996.097 1646.95 996.445 1646.19 996.445C1645.17 996.445 1644.19 995.819 1643.47 994.705C1642.75 993.59 1642.34 992.079 1642.34 990.503V990.503Z" fill="#EBF3FA"/>
<path d="M1429.32 1210.71H1423.57V1058.91L1403.57 1028.01H1306.03V1019.12H1405.94L1429.32 1055.22V1210.71Z" fill="#EBF3FA"/>
<path d="M1304.92 1017.1C1305.75 1017.09 1306.56 1017.47 1307.25 1018.18C1307.94 1018.89 1308.48 1019.9 1308.8 1021.09C1309.12 1022.27 1309.21 1023.58 1309.04 1024.83C1308.88 1026.09 1308.48 1027.25 1307.9 1028.16C1307.31 1029.06 1306.56 1029.68 1305.75 1029.93C1304.93 1030.18 1304.09 1030.05 1303.32 1029.56C1302.55 1029.06 1301.9 1028.23 1301.44 1027.16C1300.98 1026.09 1300.73 1024.84 1300.74 1023.56C1300.74 1021.84 1301.18 1020.2 1301.96 1018.99C1302.75 1017.78 1303.81 1017.1 1304.92 1017.1Z" fill="#EBF3FA"/>
<path d="M1422.25 1209.22C1422.25 1207.94 1422.5 1206.69 1422.96 1205.62C1423.42 1204.56 1424.08 1203.73 1424.85 1203.24C1425.61 1202.75 1426.46 1202.62 1427.27 1202.87C1428.08 1203.12 1428.83 1203.74 1429.42 1204.65C1430 1205.56 1430.4 1206.71 1430.56 1207.97C1430.72 1209.23 1430.64 1210.53 1430.32 1211.71C1430 1212.9 1429.46 1213.91 1428.77 1214.62C1428.08 1215.33 1427.27 1215.7 1426.44 1215.7C1425.89 1215.7 1425.34 1215.53 1424.83 1215.21C1424.32 1214.88 1423.86 1214.4 1423.47 1213.8C1423.09 1213.2 1422.78 1212.48 1422.57 1211.7C1422.36 1210.91 1422.25 1210.07 1422.25 1209.22V1209.22Z" fill="#EBF3FA"/>
<path d="M1447.25 1242.12H1441.51V1047.34L1412.25 1002.12H1308.06V993.252H1414.62L1447.25 1043.68V1242.12Z" fill="#EBF3FA"/>
<path d="M1304.92 991.225C1305.75 991.221 1306.56 991.598 1307.25 992.308C1307.94 993.019 1308.48 994.03 1308.8 995.214C1309.12 996.399 1309.21 997.703 1309.04 998.961C1308.88 1000.22 1308.48 1001.38 1307.9 1002.28C1307.31 1003.19 1306.56 1003.81 1305.75 1004.06C1304.93 1004.31 1304.09 1004.18 1303.32 1003.68C1302.55 1003.19 1301.9 1002.36 1301.44 1001.29C1300.98 1000.22 1300.73 998.966 1300.74 997.683C1300.74 995.97 1301.18 994.327 1301.96 993.116C1302.75 991.905 1303.81 991.225 1304.92 991.225Z" fill="#EBF3FA"/>
<path d="M1440.2 1242.12C1440.2 1240.84 1440.44 1239.59 1440.9 1238.52C1441.36 1237.45 1442.02 1236.62 1442.79 1236.12C1443.55 1235.63 1444.4 1235.5 1445.21 1235.75C1446.03 1236 1446.77 1236.62 1447.36 1237.52C1447.95 1238.43 1448.35 1239.59 1448.51 1240.85C1448.67 1242.1 1448.59 1243.41 1448.27 1244.59C1447.95 1245.78 1447.41 1246.79 1446.72 1247.5C1446.03 1248.21 1445.21 1248.59 1444.38 1248.58C1443.27 1248.58 1442.21 1247.9 1441.43 1246.69C1440.64 1245.48 1440.2 1243.84 1440.2 1242.12V1242.12Z" fill="#EBF3FA"/>
<path d="M1469.27 1279.84H1463.52V1026.63L1425.15 967.362H1303.71V958.496H1427.54L1469.27 1022.96V1279.84Z" fill="#EBF3FA"/>
<path d="M1300.76 962.928C1300.76 961.647 1301.01 960.394 1301.47 959.328C1301.93 958.262 1302.59 957.432 1303.36 956.942C1304.12 956.453 1304.97 956.326 1305.78 956.577C1306.59 956.829 1307.34 957.447 1307.93 958.355C1308.51 959.263 1308.91 960.419 1309.07 961.677C1309.23 962.934 1309.15 964.237 1308.83 965.421C1308.51 966.604 1307.97 967.614 1307.28 968.323C1306.59 969.033 1305.77 969.41 1304.94 969.406C1304.39 969.406 1303.85 969.238 1303.34 968.912C1302.83 968.587 1302.37 968.109 1301.98 967.507C1301.6 966.906 1301.29 966.192 1301.08 965.406C1300.87 964.62 1300.76 963.778 1300.76 962.928V962.928Z" fill="#EBF3FA"/>
<path d="M1464.49 1273.92C1465.24 1273.41 1466.08 1273.25 1466.89 1273.47C1467.71 1273.7 1468.46 1274.28 1469.06 1275.17C1469.65 1276.05 1470.07 1277.18 1470.25 1278.43C1470.43 1279.67 1470.36 1280.97 1470.06 1282.16C1469.77 1283.35 1469.25 1284.38 1468.57 1285.11C1467.9 1285.85 1467.09 1286.26 1466.27 1286.29C1465.44 1286.32 1464.63 1285.97 1463.93 1285.29C1463.23 1284.61 1462.68 1283.63 1462.35 1282.46C1462.12 1281.68 1462 1280.84 1461.99 1279.99C1461.97 1279.14 1462.07 1278.3 1462.27 1277.5C1462.47 1276.71 1462.76 1275.98 1463.14 1275.37C1463.53 1274.75 1463.98 1274.26 1464.49 1273.92V1273.92Z" fill="#EBF3FA"/>
<path d="M1493.69 1339.32H1487.95V1038.88L1504.92 1012.67H1646.02V1021.53H1507.31L1493.69 1042.57V1339.32Z" fill="#EBF3FA"/>
<path d="M1511.14 1371.48H1505.39V1061.41L1520 1038.84H1646.02V1047.72H1522.37L1511.14 1065.07V1371.48Z" fill="#EBF3FA"/>
<path d="M1531.23 1371.48H1526.93V1073.21H1646.02V1079.86H1531.23V1371.48Z" fill="#EBF3FA"/>
<path d="M1641.84 1017.1C1641.84 1015.82 1642.08 1014.56 1642.54 1013.49C1643 1012.42 1643.65 1011.59 1644.42 1011.1C1645.19 1010.61 1646.03 1010.48 1646.85 1010.73C1647.66 1010.97 1648.41 1011.59 1649 1012.5C1649.58 1013.41 1649.98 1014.56 1650.15 1015.82C1650.31 1017.08 1650.22 1018.38 1649.9 1019.57C1649.58 1020.75 1649.05 1021.76 1648.35 1022.47C1647.66 1023.18 1646.85 1023.56 1646.02 1023.56C1644.91 1023.56 1643.85 1022.88 1643.06 1021.66C1642.28 1020.45 1641.84 1018.81 1641.84 1017.1V1017.1Z" fill="#EBF3FA"/>
<path d="M1646.02 1036.86C1646.85 1036.85 1647.66 1037.23 1648.35 1037.94C1649.04 1038.65 1649.58 1039.66 1649.9 1040.84C1650.22 1042.02 1650.31 1043.33 1650.15 1044.58C1649.99 1045.84 1649.59 1047 1649 1047.91C1648.42 1048.81 1647.67 1049.43 1646.85 1049.68C1646.04 1049.94 1645.2 1049.81 1644.43 1049.32C1643.66 1048.83 1643.01 1048 1642.55 1046.93C1642.08 1045.87 1641.84 1044.61 1641.84 1043.33C1641.84 1041.62 1642.28 1039.97 1643.06 1038.76C1643.85 1037.55 1644.91 1036.86 1646.02 1036.86V1036.86Z" fill="#EBF3FA"/>
<path d="M1646.02 1070.08C1646.85 1070.08 1647.66 1070.46 1648.35 1071.17C1649.05 1071.88 1649.58 1072.89 1649.9 1074.07C1650.22 1075.26 1650.31 1076.56 1650.15 1077.82C1649.98 1079.08 1649.58 1080.23 1649 1081.14C1648.41 1082.05 1647.66 1082.67 1646.85 1082.92C1646.03 1083.16 1645.19 1083.03 1644.42 1082.54C1643.65 1082.05 1643 1081.22 1642.54 1080.15C1642.08 1079.08 1641.84 1077.82 1641.84 1076.54C1641.84 1075.69 1641.95 1074.85 1642.16 1074.07C1642.37 1073.29 1642.67 1072.58 1643.06 1071.98C1643.45 1071.38 1643.91 1070.9 1644.42 1070.58C1644.93 1070.25 1645.47 1070.08 1646.02 1070.08V1070.08Z" fill="#EBF3FA"/>
<path d="M1524.9 1371.48C1524.89 1370.2 1525.14 1368.94 1525.6 1367.87C1526.06 1366.81 1526.71 1365.97 1527.48 1365.48C1528.25 1364.99 1529.09 1364.86 1529.91 1365.11C1530.72 1365.36 1531.47 1365.97 1532.06 1366.88C1532.64 1367.79 1533.04 1368.94 1533.2 1370.2C1533.36 1371.46 1533.28 1372.76 1532.96 1373.95C1532.64 1375.13 1532.1 1376.15 1531.41 1376.86C1530.72 1377.57 1529.91 1377.94 1529.08 1377.94C1528.53 1377.94 1527.98 1377.77 1527.48 1377.45C1526.97 1377.12 1526.51 1376.65 1526.12 1376.05C1525.73 1375.45 1525.43 1374.74 1525.22 1373.95C1525 1373.17 1524.9 1372.33 1524.9 1371.48Z" fill="#EBF3FA"/>
<path d="M1504.07 1371.48C1504.06 1370.2 1504.31 1368.94 1504.77 1367.88C1505.23 1366.81 1505.88 1365.98 1506.65 1365.48C1507.41 1364.99 1508.26 1364.86 1509.07 1365.11C1509.88 1365.35 1510.63 1365.97 1511.22 1366.87C1511.81 1367.78 1512.21 1368.93 1512.37 1370.19C1512.53 1371.45 1512.45 1372.75 1512.14 1373.94C1511.82 1375.12 1511.28 1376.13 1510.59 1376.85C1509.9 1377.56 1509.09 1377.94 1508.26 1377.94C1507.71 1377.94 1507.17 1377.78 1506.66 1377.45C1506.15 1377.13 1505.69 1376.65 1505.3 1376.05C1504.91 1375.45 1504.6 1374.74 1504.39 1373.96C1504.18 1373.17 1504.07 1372.33 1504.07 1371.48V1371.48Z" fill="#EBF3FA"/>
<path d="M1486.63 1339.32C1486.63 1338.04 1486.87 1336.79 1487.33 1335.72C1487.79 1334.66 1488.45 1333.83 1489.21 1333.34C1489.98 1332.85 1490.82 1332.72 1491.64 1332.97C1492.45 1333.22 1493.2 1333.84 1493.78 1334.74C1494.37 1335.65 1494.77 1336.8 1494.93 1338.06C1495.09 1339.32 1495.01 1340.62 1494.69 1341.8C1494.38 1342.99 1493.84 1344 1493.15 1344.71C1492.46 1345.42 1491.65 1345.8 1490.82 1345.8C1490.27 1345.8 1489.72 1345.64 1489.21 1345.31C1488.7 1344.99 1488.24 1344.51 1487.85 1343.91C1487.46 1343.31 1487.15 1342.59 1486.94 1341.8C1486.73 1341.02 1486.62 1340.17 1486.63 1339.32V1339.32Z" fill="#EBF3FA"/>
<path d="M1690.39 1345.78H1684.64V1189.52L1640.65 1121.58H1550.03V1112.69H1643.03L1690.39 1185.85V1345.78Z" fill="#EBF3FA"/>
<path d="M1666.76 1423.3H1661.02V1206.76L1627.51 1155.01H1550.03V1146.13H1629.89L1666.76 1203.09V1423.3Z" fill="#EBF3FA"/>
<path d="M1647.4 1423.3H1641.66V1219.84L1617.58 1182.64H1550.03V1173.78H1619.96L1647.4 1216.16V1423.3Z" fill="#EBF3FA"/>
<path d="M1624.28 1471.03H1618.55V1239.87L1605.77 1220.13H1557.48V1423.3H1551.73V1211.27H1608.14L1624.28 1236.2V1471.03Z" fill="#EBF3FA"/>
<path d="M1600.15 1477.01H1594.4V1246.56H1580.01V1471.03H1574.28V1237.69H1600.15V1477.01Z" fill="#EBF3FA"/>
<path d="M1399.97 1202.76H1394.23V1097.06H1272.85V1088.2H1399.97V1202.76Z" fill="#EBF3FA"/>
<path d="M1375.42 1190.5H1369.68V1130.27H1282.68V1121.4H1375.42V1190.5Z" fill="#EBF3FA"/>
<path d="M1354.16 1190.5H1348.41V1162.6H1319.04V1153.73H1354.16V1190.5Z" fill="#EBF3FA"/>
<path d="M1266.5 1061.27H1227.78V1052.41H1264.13L1279.81 1028.2V820.619H1285.55V1031.87L1266.5 1061.27Z" fill="#EBF3FA"/>
<path d="M1260.85 1028.01H1223.68V1019.12H1255.11V824.84H1260.85V1028.01Z" fill="#EBF3FA"/>
<path d="M1234.09 840.736H1228.35V991.206H1234.09V840.736Z" fill="#EBF3FA"/>
<path d="M1581.82 883.328H1507.22L1469.48 825.051H1303.71V816.166H1471.86L1509.6 874.462H1581.82V883.328Z" fill="#EBF3FA"/>
<path d="M1562.61 836.709H1521.62L1502.26 806.787L1506.32 800.52L1524.01 827.843H1562.61V836.709Z" fill="#EBF3FA"/>
<path d="M1450.62 944.716L1446.52 950.926L1478.23 1000.83L1482.32 994.616L1450.62 944.716Z" fill="#EBF3FA"/>
<path d="M1500.28 803.745C1500.28 802.521 1500.52 801.324 1500.96 800.306C1501.4 799.288 1502.02 798.495 1502.76 798.026C1503.49 797.557 1504.29 797.435 1505.07 797.674C1505.85 797.913 1506.56 798.502 1507.12 799.368C1507.68 800.234 1508.07 801.337 1508.22 802.538C1508.37 803.739 1508.29 804.983 1507.99 806.114C1507.69 807.246 1507.17 808.213 1506.52 808.893C1505.86 809.573 1505.08 809.936 1504.29 809.936C1503.23 809.936 1502.21 809.284 1501.46 808.123C1500.7 806.962 1500.28 805.387 1500.28 803.745V803.745Z" fill="#EBF3FA"/>
<path d="M1558.6 832.272C1558.6 831.047 1558.83 829.848 1559.27 828.828C1559.71 827.807 1560.34 827.011 1561.07 826.539C1561.8 826.068 1562.61 825.942 1563.39 826.179C1564.16 826.416 1564.88 827.004 1565.44 827.869C1566 828.734 1566.39 829.837 1566.54 831.039C1566.7 832.24 1566.62 833.486 1566.32 834.618C1566.01 835.75 1565.5 836.718 1564.84 837.399C1564.18 838.08 1563.4 838.444 1562.61 838.444C1561.55 838.444 1560.53 837.794 1559.78 836.638C1559.03 835.481 1558.61 833.911 1558.6 832.272V832.272Z" fill="#EBF3FA"/>
<path d="M1445.56 948.025C1445.56 946.8 1445.79 945.603 1446.23 944.585C1446.67 943.567 1447.3 942.774 1448.03 942.305C1448.76 941.837 1449.57 941.714 1450.35 941.953C1451.13 942.192 1451.84 942.781 1452.4 943.647C1452.96 944.513 1453.34 945.616 1453.5 946.817C1453.65 948.018 1453.57 949.263 1453.27 950.394C1452.97 951.525 1452.45 952.492 1451.79 953.172C1451.13 953.852 1450.36 954.215 1449.57 954.215C1448.5 954.215 1447.48 953.563 1446.73 952.402C1445.98 951.241 1445.56 949.667 1445.56 948.025V948.025Z" fill="#EBF3FA"/>
<path d="M1476.27 997.685C1476.27 996.46 1476.51 995.262 1476.95 994.243C1477.39 993.225 1478.02 992.432 1478.75 991.964C1479.48 991.496 1480.29 991.374 1481.07 991.615C1481.84 991.855 1482.56 992.446 1483.12 993.314C1483.68 994.182 1484.06 995.287 1484.21 996.489C1484.37 997.691 1484.28 998.936 1483.98 1000.07C1483.67 1001.2 1483.16 1002.16 1482.5 1002.84C1481.84 1003.52 1481.06 1003.88 1480.27 1003.88C1479.74 1003.88 1479.22 1003.72 1478.74 1003.4C1478.25 1003.09 1477.81 1002.64 1477.44 1002.06C1477.07 1001.49 1476.77 1000.8 1476.57 1000.05C1476.37 999.302 1476.27 998.497 1476.27 997.685V997.685Z" fill="#EBF3FA"/>
<path d="M1278.67 820.618C1278.67 819.393 1278.9 818.194 1279.34 817.173C1279.78 816.153 1280.4 815.356 1281.14 814.885C1281.87 814.413 1282.67 814.288 1283.45 814.525C1284.23 814.762 1284.95 815.35 1285.51 816.215C1286.07 817.08 1286.45 818.183 1286.61 819.384C1286.76 820.586 1286.68 821.831 1286.38 822.964C1286.08 824.096 1285.57 825.064 1284.91 825.745C1284.25 826.426 1283.47 826.79 1282.68 826.79C1281.62 826.79 1280.6 826.14 1279.85 824.983C1279.1 823.826 1278.67 822.257 1278.67 820.618V820.618Z" fill="#EBF3FA"/>
<path d="M1223.8 1056.29C1223.87 1055.07 1224.18 1053.91 1224.68 1052.95C1225.17 1052 1225.84 1051.3 1226.6 1050.94C1227.36 1050.57 1228.17 1050.56 1228.93 1050.91C1229.69 1051.26 1230.37 1051.95 1230.87 1052.89C1231.38 1053.83 1231.69 1054.98 1231.78 1056.2C1231.86 1057.42 1231.71 1058.64 1231.34 1059.73C1230.97 1060.81 1230.4 1061.7 1229.7 1062.29C1229.01 1062.87 1228.21 1063.12 1227.43 1063.01C1226.37 1062.86 1225.39 1062.06 1224.72 1060.8C1224.04 1059.54 1223.71 1057.92 1223.8 1056.29Z" fill="#EBF3FA"/>
<path d="M1219.67 1023.48C1219.67 1022.26 1219.9 1021.06 1220.34 1020.04C1220.78 1019.02 1221.41 1018.23 1222.14 1017.76C1222.88 1017.29 1223.68 1017.17 1224.46 1017.41C1225.24 1017.65 1225.95 1018.24 1226.51 1019.1C1227.07 1019.97 1227.45 1021.07 1227.61 1022.27C1227.76 1023.47 1227.68 1024.72 1227.38 1025.85C1227.08 1026.98 1226.56 1027.95 1225.9 1028.63C1225.24 1029.31 1224.47 1029.67 1223.68 1029.67C1223.15 1029.67 1222.63 1029.51 1222.14 1029.2C1221.66 1028.89 1221.21 1028.43 1220.84 1027.86C1220.47 1027.28 1220.18 1026.6 1219.97 1025.85C1219.77 1025.1 1219.67 1024.29 1219.67 1023.48V1023.48Z" fill="#EBF3FA"/>
<path d="M1253.97 826.081C1253.97 824.857 1254.21 823.66 1254.65 822.642C1255.09 821.624 1255.71 820.83 1256.44 820.362C1257.18 819.893 1257.98 819.771 1258.76 820.01C1259.54 820.248 1260.25 820.838 1260.81 821.704C1261.37 822.57 1261.75 823.673 1261.91 824.874C1262.06 826.075 1261.98 827.319 1261.68 828.45C1261.38 829.582 1260.86 830.549 1260.2 831.229C1259.55 831.909 1258.77 832.272 1257.98 832.272C1257.45 832.275 1256.93 832.116 1256.44 831.806C1255.96 831.496 1255.51 831.04 1255.14 830.464C1254.77 829.889 1254.47 829.206 1254.27 828.453C1254.07 827.701 1253.97 826.895 1253.97 826.081Z" fill="#EBF3FA"/>
<path d="M1227.21 840.738C1227.21 839.513 1227.45 838.316 1227.89 837.298C1228.33 836.28 1228.96 835.487 1229.69 835.018C1230.42 834.55 1231.23 834.427 1232 834.666C1232.78 834.905 1233.49 835.494 1234.06 836.36C1234.62 837.226 1235 838.329 1235.15 839.53C1235.31 840.731 1235.23 841.976 1234.92 843.107C1234.62 844.238 1234.11 845.205 1233.45 845.885C1232.79 846.565 1232.01 846.928 1231.22 846.928C1230.16 846.928 1229.14 846.276 1228.39 845.115C1227.64 843.954 1227.21 842.379 1227.21 840.738V840.738Z" fill="#EBF3FA"/>
<path d="M1227.21 990.501C1227.21 989.277 1227.45 988.08 1227.89 987.062C1228.33 986.044 1228.96 985.25 1229.69 984.782C1230.42 984.313 1231.23 984.191 1232 984.429C1232.78 984.668 1233.49 985.258 1234.06 986.124C1234.62 986.99 1235 988.093 1235.15 989.294C1235.31 990.494 1235.23 991.739 1234.92 992.87C1234.62 994.002 1234.11 994.968 1233.45 995.649C1232.79 996.329 1232.01 996.692 1231.22 996.692C1230.16 996.692 1229.14 996.04 1228.39 994.879C1227.64 993.718 1227.21 992.143 1227.21 990.501V990.501Z" fill="#EBF3FA"/>
<path d="M1316.05 1158.17C1316.05 1156.94 1316.29 1155.75 1316.73 1154.73C1317.17 1153.71 1317.79 1152.92 1318.53 1152.45C1319.26 1151.98 1320.06 1151.86 1320.84 1152.1C1321.62 1152.33 1322.33 1152.92 1322.89 1153.79C1323.45 1154.66 1323.84 1155.76 1323.99 1156.96C1324.14 1158.16 1324.07 1159.41 1323.76 1160.54C1323.46 1161.67 1322.94 1162.63 1322.29 1163.31C1321.63 1163.99 1320.85 1164.36 1320.06 1164.36C1319 1164.36 1317.98 1163.71 1317.23 1162.54C1316.47 1161.38 1316.05 1159.81 1316.05 1158.17V1158.17Z" fill="#EBF3FA"/>
<path d="M1347.28 1188.38C1347.28 1187.15 1347.51 1185.95 1347.95 1184.93C1348.39 1183.91 1349.02 1183.12 1349.75 1182.64C1350.48 1182.17 1351.29 1182.05 1352.07 1182.28C1352.84 1182.52 1353.56 1183.11 1354.12 1183.97C1354.68 1184.84 1355.07 1185.94 1355.22 1187.14C1355.38 1188.35 1355.3 1189.59 1355 1190.72C1354.69 1191.86 1354.18 1192.82 1353.52 1193.5C1352.86 1194.19 1352.09 1194.55 1351.29 1194.55C1350.23 1194.55 1349.21 1193.9 1348.46 1192.74C1347.71 1191.59 1347.29 1190.02 1347.28 1188.38V1188.38Z" fill="#EBF3FA"/>
<path d="M1279.54 1125.84C1279.54 1124.61 1279.77 1123.41 1280.21 1122.4C1280.65 1121.38 1281.28 1120.58 1282.01 1120.12C1282.75 1119.65 1283.55 1119.53 1284.33 1119.77C1285.11 1120.01 1285.82 1120.6 1286.38 1121.47C1286.94 1122.33 1287.32 1123.44 1287.48 1124.64C1287.63 1125.84 1287.55 1127.09 1287.24 1128.22C1286.94 1129.35 1286.42 1130.32 1285.76 1130.99C1285.1 1131.67 1284.33 1132.03 1283.53 1132.03C1283.01 1132.03 1282.49 1131.87 1282 1131.56C1281.52 1131.24 1281.07 1130.79 1280.7 1130.21C1280.33 1129.64 1280.04 1128.96 1279.84 1128.2C1279.64 1127.45 1279.54 1126.65 1279.54 1125.84V1125.84Z" fill="#EBF3FA"/>
<path d="M1368.56 1190.5C1368.56 1189.27 1368.79 1188.07 1369.23 1187.05C1369.67 1186.03 1370.29 1185.23 1371.03 1184.76C1371.76 1184.29 1372.57 1184.17 1373.35 1184.41C1374.12 1184.64 1374.84 1185.23 1375.4 1186.1C1375.96 1186.97 1376.34 1188.07 1376.5 1189.27C1376.65 1190.48 1376.57 1191.72 1376.27 1192.86C1375.96 1193.99 1375.45 1194.95 1374.79 1195.63C1374.12 1196.31 1373.35 1196.67 1372.55 1196.67C1371.49 1196.67 1370.48 1196.02 1369.73 1194.86C1368.98 1193.7 1368.56 1192.13 1368.56 1190.5Z" fill="#EBF3FA"/>
<path d="M1393.09 1200.74C1393.08 1199.51 1393.32 1198.31 1393.76 1197.29C1394.2 1196.27 1394.82 1195.48 1395.55 1195C1396.28 1194.53 1397.09 1194.41 1397.87 1194.64C1398.65 1194.88 1399.36 1195.47 1399.92 1196.33C1400.49 1197.2 1400.87 1198.3 1401.02 1199.5C1401.18 1200.7 1401.1 1201.95 1400.8 1203.08C1400.5 1204.22 1399.98 1205.18 1399.32 1205.86C1398.66 1206.55 1397.89 1206.91 1397.1 1206.91C1396.03 1206.91 1395.02 1206.26 1394.27 1205.1C1393.51 1203.95 1393.09 1202.38 1393.09 1200.74V1200.74Z" fill="#EBF3FA"/>
<path d="M1268.84 1092.63C1268.84 1091.4 1269.07 1090.21 1269.51 1089.19C1269.95 1088.17 1270.58 1087.38 1271.31 1086.91C1272.04 1086.44 1272.85 1086.32 1273.63 1086.56C1274.4 1086.8 1275.12 1087.38 1275.68 1088.25C1276.24 1089.12 1276.62 1090.22 1276.78 1091.42C1276.93 1092.62 1276.85 1093.87 1276.55 1095C1276.24 1096.13 1275.73 1097.1 1275.07 1097.78C1274.41 1098.46 1273.64 1098.82 1272.85 1098.82C1271.78 1098.82 1270.76 1098.17 1270.01 1097.01C1269.26 1095.84 1268.84 1094.27 1268.84 1092.63V1092.63Z" fill="#EBF3FA"/>
<path d="M1387.65 1052.41H1290.68V1061.28H1387.65V1052.41Z" fill="#EBF3FA"/>
<path d="M1383.7 1056.84C1383.7 1055.62 1383.93 1054.42 1384.38 1053.4C1384.82 1052.38 1385.44 1051.59 1386.18 1051.12C1386.91 1050.65 1387.72 1050.53 1388.49 1050.77C1389.27 1051.01 1389.99 1051.6 1390.55 1052.47C1391.11 1053.34 1391.49 1054.44 1391.64 1055.65C1391.79 1056.85 1391.71 1058.09 1391.41 1059.23C1391.1 1060.36 1390.59 1061.32 1389.92 1062C1389.26 1062.68 1388.49 1063.04 1387.69 1063.03C1387.17 1063.03 1386.65 1062.87 1386.16 1062.56C1385.68 1062.25 1385.24 1061.79 1384.87 1061.22C1384.49 1060.64 1384.2 1059.96 1384 1059.21C1383.8 1058.46 1383.7 1057.66 1383.7 1056.84V1056.84Z" fill="#EBF3FA"/>
<path d="M1286.67 1056.84C1286.67 1055.62 1286.91 1054.42 1287.35 1053.4C1287.79 1052.39 1288.42 1051.59 1289.15 1051.12C1289.88 1050.66 1290.69 1050.53 1291.46 1050.77C1292.24 1051.01 1292.96 1051.6 1293.52 1052.47C1294.08 1053.33 1294.46 1054.43 1294.61 1055.64C1294.77 1056.84 1294.69 1058.08 1294.38 1059.21C1294.08 1060.34 1293.57 1061.31 1292.91 1061.99C1292.25 1062.67 1291.47 1063.03 1290.68 1063.03C1289.62 1063.03 1288.6 1062.38 1287.85 1061.22C1287.1 1060.06 1286.67 1058.49 1286.67 1056.84V1056.84Z" fill="#EBF3FA"/>
<path d="M2868.54 2899.3H122.377C120.525 2899.3 119.024 2901.62 119.024 2904.47V2907.09C119.024 2909.95 120.525 2912.27 122.377 2912.27H2868.54C2870.39 2912.27 2871.89 2909.95 2871.89 2907.09V2904.47C2871.89 2901.62 2870.39 2899.3 2868.54 2899.3Z" fill="#2E3552"/>
<path d="M960.493 936.965H647.089C629.45 936.965 615.151 959.053 615.151 986.3V1231.68C615.151 1258.92 629.45 1281.01 647.089 1281.01H960.493C978.131 1281.01 992.431 1258.92 992.431 1231.68V986.3C992.431 959.053 978.131 936.965 960.493 936.965Z" fill="#2A4E96"/>
<path d="M786.034 1220.29H646.544V1151.65H786.034V1220.29ZM648.251 1217.65H784.315V1154.29H648.251V1217.65Z" fill="#C0D4FF"/>
<path d="M710.605 1170.07H656.65V1175.5H710.605V1170.07Z" fill="#C0D4FF"/>
<path d="M754.565 1170.07H716.282V1175.5H754.565V1170.07Z" fill="#C0D4FF"/>
<path d="M686.423 1185.6H656.65V1191.03H686.423V1185.6Z" fill="#C0D4FF"/>
<path d="M729.742 1185.6H691.458V1191.03H729.742V1185.6Z" fill="#C0D4FF"/>
<path d="M771.996 1185.6H733.712V1191.03H771.996V1185.6Z" fill="#C0D4FF"/>
<path d="M952.391 1220.29H812.877V1151.65H952.391V1220.29ZM814.596 1217.57H950.66V1154.29H814.596V1217.57Z" fill="#C0D4FF"/>
<path d="M876.938 1170.07H822.982V1175.5H876.938V1170.07Z" fill="#C0D4FF"/>
<path d="M920.91 1170.07H882.626V1175.5H920.91V1170.07Z" fill="#C0D4FF"/>
<path d="M852.768 1185.6H822.982V1191.03H852.768V1185.6Z" fill="#C0D4FF"/>
<path d="M896.084 1185.6H857.801V1191.03H896.084V1185.6Z" fill="#C0D4FF"/>
<path d="M938.338 1185.6H900.055V1191.03H938.338V1185.6Z" fill="#C0D4FF"/>
<path d="M961.049 1124.44H646.544V1085.06H961.049V1124.44ZM649.538 1119.84H958.056V1089.67H649.525L649.538 1119.84Z" fill="#C0D4FF"/>
<path d="M892.151 1087.36H648.028V1122.15H892.151V1087.36Z" fill="#C0D4FF"/>
<path d="M961.049 1046.12H646.544V1006.72H961.049V1046.12ZM649.538 1041.52H958.056V1011.33H649.525L649.538 1041.52Z" fill="#C0D4FF"/>
<path d="M810.08 1006.72H646.544V1046.12H810.08V1006.72Z" fill="#FFC440"/>
<path d="M1078 2036.16C1078 2036.35 1077.92 2036.45 1077.84 2036.45L1077.94 2036.11C1078.04 2035.86 1078.06 2035.86 1078 2036.16Z" fill="#ABDDDA"/>
</svg>
