<svg width="868" height="424" viewBox="0 0 868 424" fill="none" xmlns="http://www.w3.org/2000/svg">
<rect y="0.24707" width="868" height="423.753" fill="#E0E0E0" fill-opacity="0.1"/>
<path d="M467.999 235.033C466.779 235.033 465.538 234.994 464.312 234.919C450.254 234.041 437.002 227.934 426.994 217.716C416.989 207.502 411.149 194.127 410.546 180.048C409.719 160.698 418.578 142.355 434.241 130.977C438.96 127.551 441.775 122.133 441.775 116.487V101.257C441.775 92.2057 449.138 84.8423 458.19 84.8423H477.806C486.858 84.8423 494.221 92.2057 494.221 101.257V116.487C494.221 122.133 497.036 127.551 501.755 130.977C517.421 142.352 526.277 160.698 525.45 180.048C524.847 194.124 519.007 207.502 509.002 217.716C498.994 227.934 485.739 234.044 471.684 234.919C470.461 234.994 469.22 235.033 467.999 235.033ZM413.134 179.937C413.709 193.374 419.289 206.146 428.844 215.902C438.402 225.661 451.057 231.496 464.474 232.332C466.818 232.479 469.178 232.479 471.525 232.332C484.942 231.496 497.594 225.658 507.155 215.902C516.713 206.146 522.293 193.374 522.865 179.937C523.657 161.456 515.196 143.938 500.235 133.073C494.848 129.161 491.634 122.96 491.634 116.487V101.257C491.634 93.6328 485.431 87.4327 477.809 87.4327H458.193C450.568 87.4327 444.368 93.6328 444.368 101.257V116.487C444.368 122.96 441.151 129.161 435.767 133.073C420.803 143.938 412.345 161.456 413.134 179.937Z" fill="#272525" fill-opacity="0.05"/>
<path d="M492.805 100.702H443.183C442.466 100.702 441.888 100.124 441.888 99.4072C441.888 98.6907 442.466 98.1121 443.183 98.1121H492.805C493.521 98.1121 494.1 98.6907 494.1 99.4072C494.1 100.121 493.521 100.702 492.805 100.702Z" fill="#272525" fill-opacity="0.05"/>
<path d="M492.816 114.047H443.194C442.477 114.047 441.898 113.468 441.898 112.751C441.898 112.035 442.477 111.456 443.194 111.456H492.816C493.532 111.456 494.111 112.035 494.111 112.751C494.111 113.465 493.529 114.047 492.816 114.047Z" fill="#272525" fill-opacity="0.05"/>
<path d="M479.658 87.4326C478.941 87.4326 478.362 86.854 478.362 86.1374C478.362 82.2698 476.531 79.5745 474.888 79.5745H461.105C459.462 79.5745 457.63 82.2698 457.63 86.1374C457.63 86.854 457.052 87.4326 456.335 87.4326C455.619 87.4326 455.04 86.854 455.04 86.1374C455.04 81.0046 457.705 76.9841 461.105 76.9841H474.888C478.291 76.9841 480.953 81.0046 480.953 86.1374C480.953 86.851 480.374 87.4326 479.658 87.4326Z" fill="#272525" fill-opacity="0.05"/>
<path d="M509.842 186.425C509.767 186.425 509.692 186.419 509.617 186.404C508.912 186.281 508.442 185.61 508.564 184.905C508.972 182.564 509.182 180.162 509.182 177.767C509.182 176.762 509.146 175.746 509.074 174.751C509.023 174.037 509.56 173.417 510.273 173.366C510.987 173.312 511.608 173.851 511.659 174.565C511.736 175.623 511.775 176.699 511.775 177.767C511.775 180.312 511.554 182.864 511.119 185.352C511.005 185.982 510.459 186.425 509.842 186.425Z" fill="#272525" fill-opacity="0.05"/>
<path d="M486.966 217.079C486.492 217.079 486.033 216.815 485.805 216.362C485.484 215.723 485.745 214.944 486.384 214.623C495.471 210.081 502.538 202.391 506.282 192.965C506.546 192.299 507.299 191.975 507.964 192.239C508.63 192.503 508.954 193.255 508.69 193.921C504.708 203.938 497.198 212.114 487.541 216.941C487.358 217.034 487.16 217.079 486.966 217.079Z" fill="#272525" fill-opacity="0.05"/>
<path d="M466.706 78.2763C466.706 78.9929 467.285 79.5715 468.001 79.5715C468.718 79.5715 469.296 78.9929 469.296 78.2763V0.24707H466.706V78.2763Z" fill="#272525" fill-opacity="0.05"/>
<path d="M605.6 193.536C604.596 193.536 603.574 193.504 602.564 193.442C590.991 192.719 580.081 187.692 571.842 179.28C563.606 170.871 558.798 159.86 558.302 148.269C557.62 132.339 564.914 117.239 577.808 107.872C581.693 105.05 584.011 100.59 584.011 95.9427V83.4041C584.011 75.9526 590.073 69.8906 597.524 69.8906H613.674C621.125 69.8906 627.187 75.9526 627.187 83.4041V95.9427C627.187 100.59 629.505 105.05 633.39 107.872C646.286 117.236 653.578 132.339 652.896 148.269C652.4 159.857 647.592 170.871 639.356 179.28C631.117 187.692 620.205 192.722 608.634 193.442C607.627 193.504 606.605 193.536 605.6 193.536ZM560.432 148.178C560.906 159.24 565.499 169.755 573.365 177.787C581.234 185.821 591.652 190.624 602.698 191.312C604.628 191.433 606.57 191.433 608.503 191.312C619.548 190.624 629.964 185.818 637.835 177.787C645.704 169.755 650.297 159.24 650.769 148.178C651.42 132.964 644.455 118.542 632.139 109.597C627.703 106.376 625.057 101.272 625.057 95.9427V83.4041C625.057 77.1275 619.95 72.0232 613.676 72.0232H597.527C591.25 72.0232 586.146 77.1275 586.146 83.4041V95.9427C586.146 101.272 583.497 106.376 579.064 109.597C566.745 118.542 559.783 132.964 560.432 148.178Z" fill="#272525" fill-opacity="0.05"/>
<path d="M626.028 82.9477H585.177C584.587 82.9477 584.11 82.4714 584.11 81.8815C584.11 81.2915 584.587 80.8152 585.177 80.8152H626.028C626.618 80.8152 627.094 81.2915 627.094 81.8815C627.094 82.4689 626.618 82.9477 626.028 82.9477Z" fill="#272525" fill-opacity="0.05"/>
<path d="M626.028 93.9333H585.177C584.587 93.9333 584.11 93.457 584.11 92.8671C584.11 92.2772 584.587 91.8008 585.177 91.8008H626.028C626.618 91.8008 627.094 92.2772 627.094 92.8671C627.094 93.4545 626.616 93.9333 626.028 93.9333Z" fill="#272525" fill-opacity="0.05"/>
<path d="M615.197 72.0231C614.607 72.0231 614.131 71.5468 614.131 70.9569C614.131 67.7729 612.623 65.5539 611.27 65.5539H599.924C598.571 65.5539 597.063 67.7729 597.063 70.9569C597.063 71.5468 596.587 72.0231 595.997 72.0231C595.407 72.0231 594.931 71.5468 594.931 70.9569C594.931 66.7313 597.125 63.4214 599.924 63.4214H611.27C614.072 63.4214 616.264 66.7313 616.264 70.9569C616.264 71.5443 615.787 72.0231 615.197 72.0231Z" fill="#272525" fill-opacity="0.05"/>
<path d="M640.047 153.519C639.985 153.519 639.924 153.514 639.862 153.502C639.282 153.4 638.894 152.847 638.996 152.267C639.331 150.34 639.504 148.363 639.504 146.391C639.504 145.564 639.474 144.727 639.415 143.908C639.373 143.32 639.815 142.809 640.402 142.767C640.99 142.723 641.501 143.167 641.543 143.755C641.607 144.626 641.639 145.512 641.639 146.391C641.639 148.486 641.456 150.587 641.098 152.635C641.005 153.154 640.555 153.519 640.047 153.519Z" fill="#272525" fill-opacity="0.05"/>
<path d="M621.216 178.754C620.826 178.754 620.448 178.537 620.261 178.164C619.996 177.638 620.211 176.997 620.737 176.733C628.218 172.993 634.036 166.662 637.118 158.902C637.336 158.354 637.955 158.088 638.503 158.305C639.051 158.522 639.318 159.142 639.1 159.69C635.823 167.936 629.64 174.667 621.69 178.641C621.539 178.717 621.376 178.754 621.216 178.754Z" fill="#272525" fill-opacity="0.05"/>
<path d="M604.539 64.4851C604.539 65.075 605.015 65.5513 605.605 65.5513C606.195 65.5513 606.672 65.075 606.672 64.4851V0.24707H604.539V64.4851Z" fill="#272525" fill-opacity="0.05"/>
<path d="M724.473 158.529C723.65 158.529 722.814 158.503 721.987 158.452C712.51 157.86 703.576 153.743 696.829 146.854C690.085 139.968 686.147 130.952 685.741 121.46C685.183 108.415 691.156 96.0497 701.714 88.3792C704.896 86.069 706.794 82.4167 706.794 78.6108V68.3431C706.794 62.2412 711.758 57.2771 717.86 57.2771H731.084C737.186 57.2771 742.15 62.2412 742.15 68.3431V78.6108C742.15 82.4167 744.048 86.069 747.23 88.3792C757.79 96.0476 763.761 108.415 763.203 121.46C762.797 130.95 758.86 139.968 752.115 146.854C745.368 153.743 736.433 157.862 726.957 158.452C726.133 158.503 725.296 158.529 724.473 158.529ZM687.485 121.385C687.873 130.444 691.635 139.055 698.076 145.632C704.52 152.211 713.051 156.144 722.096 156.708C723.677 156.807 725.267 156.807 726.85 156.708C735.895 156.144 744.424 152.209 750.87 145.632C757.313 139.055 761.075 130.444 761.461 121.385C761.995 108.927 756.291 97.1169 746.205 89.7921C742.573 87.1544 740.406 82.9746 740.406 78.6108V68.3431C740.406 63.2032 736.224 59.0234 731.086 59.0234H717.862C712.722 59.0234 708.542 63.2032 708.542 68.3431V78.6108C708.542 82.9746 706.373 87.1544 702.743 89.7921C692.655 97.1169 686.954 108.927 687.485 121.385Z" fill="#272525" fill-opacity="0.05"/>
<path d="M741.202 67.9697H707.749C707.266 67.9697 706.876 67.5796 706.876 67.0965C706.876 66.6135 707.266 66.2234 707.749 66.2234H741.202C741.685 66.2234 742.075 66.6135 742.075 67.0965C742.075 67.5776 741.685 67.9697 741.202 67.9697Z" fill="#272525" fill-opacity="0.05"/>
<path d="M741.202 76.9653H707.749C707.266 76.9653 706.876 76.5752 706.876 76.0922C706.876 75.6091 707.266 75.219 707.749 75.219H741.202C741.685 75.219 742.075 75.6091 742.075 76.0922C742.075 76.5732 741.683 76.9653 741.202 76.9653Z" fill="#272525" fill-opacity="0.05"/>
<path d="M732.335 59.0236C731.852 59.0236 731.462 58.6335 731.462 58.1504C731.462 55.5431 730.227 53.726 729.12 53.726H719.828C718.721 53.726 717.486 55.5431 717.486 58.1504C717.486 58.6335 717.095 59.0236 716.612 59.0236C716.129 59.0236 715.739 58.6335 715.739 58.1504C715.739 54.6902 717.536 51.9797 719.828 51.9797H729.12C731.414 51.9797 733.208 54.6902 733.208 58.1504C733.208 58.6315 732.818 59.0236 732.335 59.0236Z" fill="#272525" fill-opacity="0.05"/>
<path d="M752.682 125.759C752.631 125.759 752.581 125.755 752.53 125.745C752.055 125.662 751.738 125.209 751.821 124.734C752.096 123.156 752.237 121.537 752.237 119.922C752.237 119.245 752.213 118.56 752.164 117.889C752.13 117.408 752.492 116.989 752.973 116.955C753.454 116.919 753.872 117.282 753.907 117.763C753.959 118.477 753.985 119.202 753.985 119.922C753.985 121.638 753.836 123.358 753.543 125.036C753.466 125.46 753.098 125.759 752.682 125.759Z" fill="#272525" fill-opacity="0.05"/>
<path d="M737.251 146.424C736.931 146.424 736.622 146.246 736.469 145.941C736.252 145.51 736.428 144.985 736.859 144.769C742.985 141.707 747.749 136.522 750.273 130.167C750.451 129.719 750.958 129.501 751.407 129.678C751.856 129.856 752.074 130.364 751.896 130.812C749.212 137.565 744.149 143.077 737.639 146.331C737.516 146.394 737.382 146.424 737.251 146.424Z" fill="#272525" fill-opacity="0.05"/>
<path d="M723.601 52.8507C723.601 53.3337 723.991 53.7238 724.474 53.7238C724.957 53.7238 725.347 53.3337 725.347 52.8507V0.24707H723.601V52.8507Z" fill="#272525" fill-opacity="0.05"/>
<path d="M818.388 91.6495C817.913 91.6495 817.43 91.6343 816.953 91.6051C811.48 91.2631 806.321 88.8856 802.425 84.9079C798.53 80.9314 796.256 75.7246 796.022 70.2436C795.7 62.7107 799.149 55.57 805.246 51.1406C807.083 49.8065 808.179 47.6974 808.179 45.4996V39.5704C808.179 36.0467 811.045 33.1802 814.569 33.1802H822.206C825.73 33.1802 828.596 36.0467 828.596 39.5704V45.4996C828.596 47.6974 829.692 49.8065 831.529 51.1406C837.628 55.5688 841.076 62.7107 840.753 70.2436C840.519 75.7235 838.245 80.9314 834.35 84.9079C830.454 88.8856 825.294 91.2643 819.823 91.6051C819.346 91.6343 818.863 91.6495 818.388 91.6495ZM797.029 70.2004C797.253 75.4317 799.425 80.4038 803.145 84.2018C806.866 88.0009 811.792 90.2722 817.016 90.5979C817.928 90.6551 818.847 90.6551 819.761 90.5979C824.984 90.2722 829.909 87.9997 833.631 84.2018C837.352 80.4038 839.524 75.4317 839.747 70.2004C840.055 63.006 836.762 56.1862 830.938 51.9564C828.84 50.4333 827.589 48.0196 827.589 45.4996V39.5704C827.589 36.6023 825.174 34.1886 822.207 34.1886H814.57C811.602 34.1886 809.189 36.6023 809.189 39.5704V45.4996C809.189 48.0196 807.936 50.4333 805.84 51.9564C800.015 56.1862 796.722 63.006 797.029 70.2004Z" fill="#272525" fill-opacity="0.05"/>
<path d="M828.049 39.3546H808.731C808.452 39.3546 808.227 39.1294 808.227 38.8504C808.227 38.5715 808.452 38.3462 808.731 38.3462H828.049C828.328 38.3462 828.553 38.5715 828.553 38.8504C828.553 39.1282 828.328 39.3546 828.049 39.3546Z" fill="#272525" fill-opacity="0.05"/>
<path d="M828.049 44.5495H808.731C808.452 44.5495 808.227 44.3242 808.227 44.0452C808.227 43.7663 808.452 43.541 808.731 43.541H828.049C828.328 43.541 828.553 43.7663 828.553 44.0452C828.553 44.323 828.326 44.5495 828.049 44.5495Z" fill="#272525" fill-opacity="0.05"/>
<path d="M822.923 34.1884C822.645 34.1884 822.419 33.9632 822.419 33.6842C822.419 32.1786 821.706 31.1293 821.067 31.1293H815.701C815.061 31.1293 814.348 32.1786 814.348 33.6842C814.348 33.9632 814.123 34.1884 813.844 34.1884C813.565 34.1884 813.34 33.9632 813.34 33.6842C813.34 31.686 814.377 30.1208 815.701 30.1208H821.067C822.391 30.1208 823.428 31.686 823.428 33.6842C823.428 33.962 823.202 34.1884 822.923 34.1884Z" fill="#272525" fill-opacity="0.05"/>
<path d="M834.679 72.7258C834.649 72.7258 834.62 72.7234 834.591 72.7176C834.317 72.6697 834.134 72.4083 834.181 72.134C834.34 71.2225 834.422 70.2876 834.422 69.355C834.422 68.964 834.408 68.5683 834.38 68.1808C834.36 67.903 834.569 67.6614 834.847 67.6416C835.124 67.6206 835.366 67.8307 835.386 68.1085C835.416 68.5205 835.431 68.9395 835.431 69.355C835.431 70.3459 835.345 71.3392 835.176 72.3079C835.131 72.553 834.919 72.7258 834.679 72.7258Z" fill="#272525" fill-opacity="0.05"/>
<path d="M825.77 84.6594C825.585 84.6594 825.407 84.5567 825.318 84.3804C825.193 84.1318 825.295 83.8283 825.543 83.7035C829.081 81.9352 831.832 78.9414 833.29 75.2718C833.393 75.0127 833.686 74.8867 833.945 74.9894C834.204 75.0921 834.33 75.385 834.227 75.6441C832.677 79.5437 829.753 82.7265 825.994 84.6057C825.923 84.6419 825.846 84.6594 825.77 84.6594Z" fill="#272525" fill-opacity="0.05"/>
<path d="M817.883 30.6238C817.883 30.9028 818.108 31.128 818.387 31.128C818.666 31.128 818.891 30.9028 818.891 30.6238V0.24707H817.883V30.6238Z" fill="#272525" fill-opacity="0.05"/>
</svg>
