<svg width="169" height="158" viewBox="0 0 169 158" fill="none" xmlns="http://www.w3.org/2000/svg">
<g clip-path="url(#clip0_1004_4138)">
<path fill-rule="evenodd" clip-rule="evenodd" d="M71.438 59.3179C67.8407 35.2179 47.9866 25.7271 40.0107 22.2011C32.9227 19.0733 31.3755 13.2847 31.3755 13.2847C31.3755 13.2847 29.4549 19.793 29.4549 22.9247C29.4549 26.0602 28.7347 40.7614 34.4927 53.0508C40.2508 65.3439 57.765 69.6815 62.8028 75.7075C67.8407 81.7335 65.9201 92.3383 65.9201 92.3383C65.9201 92.3383 65.68 83.9004 59.9219 78.8392C54.1639 73.778 40.0107 73.778 32.0957 59.3179C24.177 44.8579 23.5063 17.8826 30.4152 7.74109C33.803 2.77177 30.6781 10.3674 35.9332 15.2142C40.8071 19.7088 55.5662 24.1728 64.2395 33.0471C74.1322 43.1695 71.6781 59.8003 71.438 59.3179Z" fill="#2CB67D" fill-opacity="0.2"/>
<path fill-rule="evenodd" clip-rule="evenodd" d="M60.4247 69.1647C62.494 59.6012 62.433 55.2559 56.675 49.2299C50.8026 43.0814 45.0788 45.1335 38.5586 34.2531C41.9502 47.4727 50.3605 46.4734 55.0516 53.7475C59.6321 60.8531 59.956 68.9043 60.4247 69.1647Z" fill="#2CB67D" fill-opacity="0.2"/>
<path fill-rule="evenodd" clip-rule="evenodd" d="M78.8399 58.3226C88.1191 55.3402 91.8345 53.1159 94.1515 45.0915C96.5142 36.9101 91.8841 32.9553 98.0042 21.8413C88.302 31.4048 93.3703 38.2194 89.4452 45.9376C85.6116 53.4758 78.8322 57.7828 78.8399 58.3226Z" fill="#2CB67D" fill-opacity="0.2"/>
<path fill-rule="evenodd" clip-rule="evenodd" d="M97.8984 68.3415C105.105 74.9226 108.881 77.0397 116.956 75.0451C125.191 73.0084 126.285 67.0015 138.925 66.7718C125.831 63.1118 122.489 70.9295 113.873 71.3736C105.455 71.8062 98.3557 68.062 97.8984 68.3415Z" fill="#2CB67D" fill-opacity="0.2"/>
<path fill-rule="evenodd" clip-rule="evenodd" d="M99.2257 91.4807C97.1564 101.044 97.2174 105.389 102.975 111.415C108.848 117.564 114.572 115.512 121.092 126.392C117.7 113.169 109.29 114.172 104.599 106.898C100.018 99.7923 99.6944 91.741 99.2257 91.4807Z" fill="#2CB67D" fill-opacity="0.2"/>
<path fill-rule="evenodd" clip-rule="evenodd" d="M82.2425 102.564C72.9633 105.542 69.2516 107.771 66.9347 115.791C64.572 123.976 69.2021 127.931 63.082 139.045C72.7842 129.482 67.7121 122.663 71.6372 114.949C75.4746 107.407 82.254 103.104 82.2425 102.564Z" fill="#2CB67D" fill-opacity="0.2"/>
<path fill-rule="evenodd" clip-rule="evenodd" d="M64.8703 92.5451C57.6603 85.964 53.8839 83.843 45.8127 85.8415C37.5738 87.8744 36.4801 93.8812 23.8398 94.1147C36.9336 97.7747 40.2757 89.9532 48.8918 89.513C57.3098 89.0804 64.4092 92.8246 64.8703 92.5451Z" fill="#2CB67D" fill-opacity="0.2"/>
<path fill-rule="evenodd" clip-rule="evenodd" d="M93.7607 61.5231C112.738 46.3433 110.997 24.3259 110.044 15.6238C109.198 7.89038 113.413 3.65229 113.413 3.65229C113.413 3.65229 106.843 5.23344 104.141 6.80311C101.443 8.36894 88.4104 15.0917 80.6936 26.2478C72.9768 37.4039 77.9918 54.808 75.3166 62.2046C72.6415 69.6011 62.543 73.2305 62.543 73.2305C62.543 73.2305 69.692 68.8048 71.1782 61.2666C72.6605 53.7245 65.584 41.4123 74.0896 27.2929C82.599 13.1736 105.517 -0.895911 117.711 0.0458873C123.69 0.505301 115.581 1.58493 114.03 8.5795C112.59 15.0687 116.126 30.1413 112.811 42.1282C109.03 55.7957 93.4673 61.9748 93.7607 61.5231Z" fill="#2CB67D" fill-opacity="0.2"/>
<path fill-rule="evenodd" clip-rule="evenodd" d="M103.336 81.3237C125.911 90.244 144.02 77.7174 151.043 72.5413C157.285 67.9395 163.047 69.4862 163.047 69.4862C163.047 69.4862 158.398 64.5628 155.696 62.9931C152.994 61.4273 140.682 53.4527 127.207 52.3156C113.736 51.1786 101.24 64.245 93.5275 65.6156C85.8145 66.9862 77.6328 60.0146 77.6328 60.0146C77.6328 60.0146 85.0219 64.023 92.2661 61.546C99.5066 59.0651 106.583 46.7529 123.008 47.0936C139.432 47.4382 163.021 60.34 168.306 71.4234C170.897 76.856 165.909 70.3399 159.107 72.4877C152.792 74.4785 141.57 85.091 129.577 88.1996C115.908 91.7448 102.799 81.2931 103.336 81.3237Z" fill="#2CB67D" fill-opacity="0.2"/>
<path fill-rule="evenodd" clip-rule="evenodd" d="M89.7238 98.973C93.3211 123.073 113.171 132.564 121.147 136.086C128.239 139.218 129.786 145.006 129.786 145.006C129.786 145.006 131.703 138.498 131.703 135.366C131.703 132.231 132.423 117.529 126.665 105.236C120.907 92.947 103.397 88.6094 98.359 82.5834C93.3211 76.5574 95.238 65.9526 95.238 65.9526C95.238 65.9526 95.478 74.3905 101.236 79.4517C106.994 84.513 121.147 84.5129 129.066 98.973C136.981 113.433 137.656 140.408 130.743 150.546C127.355 155.519 130.48 147.924 125.225 143.077C120.351 138.582 105.592 134.118 96.9185 125.244C87.0258 115.121 89.4837 98.4906 89.7238 98.973Z" fill="#2CB67D" fill-opacity="0.2"/>
<path fill-rule="evenodd" clip-rule="evenodd" d="M67.9892 96.4769C49.0116 111.657 50.7569 133.678 51.7096 142.376C52.5518 150.11 48.3409 154.348 48.3409 154.348C48.3409 154.348 54.9069 152.767 57.6087 151.201C60.3105 149.631 73.3433 142.908 81.0601 131.752C88.7769 120.596 83.7581 103.192 86.4333 95.7955C89.1084 88.4027 99.2108 84.7695 99.2108 84.7695C99.2108 84.7695 92.058 89.1952 90.5756 96.7334C89.0894 104.275 96.166 116.588 87.6603 130.707C79.1547 144.826 56.2368 158.9 44.0424 157.954C38.0595 157.495 46.1726 156.415 47.7236 149.421C49.1602 142.931 45.6277 127.859 48.943 115.872C52.7233 102.208 68.2864 96.029 67.9892 96.4769Z" fill="#2CB67D" fill-opacity="0.2"/>
<path fill-rule="evenodd" clip-rule="evenodd" d="M58.67 76.9326C36.095 68.0123 17.9863 80.539 10.9592 85.7189C4.7172 90.3207 -1.04467 88.774 -1.04467 88.774C-1.04467 88.774 3.60446 93.6974 6.30629 95.2632C9.00812 96.829 21.3207 104.808 34.7955 105.941C48.2704 107.078 60.7659 94.0113 68.4789 92.6407C76.1918 91.2701 84.3735 98.2417 84.3735 98.2417C84.3735 98.2417 76.9807 94.2334 69.7402 96.7104C62.496 99.1912 55.4194 111.503 38.995 111.163C22.5744 110.818 -1.01799 97.9163 -6.30352 86.8368C-8.89484 81.4004 -3.90655 87.9202 2.89566 85.7725C9.21009 83.7779 20.4366 73.1693 32.4252 70.0606C46.0944 66.5154 59.2035 76.9632 58.67 76.9326Z" fill="#2CB67D" fill-opacity="0.2"/>
</g>
<defs>
<clipPath id="clip0_1004_4138">
<rect width="176" height="158" fill="white" transform="translate(-7)"/>
</clipPath>
</defs>
</svg>
