<svg width="133" height="198" viewBox="0 0 133 198" fill="none" xmlns="http://www.w3.org/2000/svg">
<g clip-path="url(#clip0_1004_4166)">
<path fill-rule="evenodd" clip-rule="evenodd" d="M98.9418 74.3352C94.4042 44.1339 69.361 32.2404 59.3005 27.8218C50.3599 23.9021 48.4083 16.648 48.4083 16.648C48.4083 16.648 45.9858 24.804 45.9858 28.7285C45.9858 32.6578 45.0773 51.0809 52.3403 66.4814C59.6033 81.8867 81.6951 87.3225 88.0497 94.8741C94.4042 102.426 91.9816 115.715 91.9816 115.715C91.9816 115.715 91.6788 105.141 84.4158 98.7985C77.1527 92.456 59.3005 92.456 49.3168 74.3352C39.3284 56.2144 38.4824 22.41 47.197 9.70093C51.4703 3.47355 47.5287 12.9921 54.1572 19.066C60.3051 24.6985 78.9216 30.2926 89.8618 41.4136C102.34 54.0986 99.2446 74.9397 98.9418 74.3352Z" fill="#2CB67D" fill-opacity="0.2"/>
<path fill-rule="evenodd" clip-rule="evenodd" d="M85.046 86.6748C87.6561 74.6902 87.5792 69.2448 80.3162 61.6933C72.909 53.9882 65.6892 56.5598 57.4648 42.9248C61.7429 59.4912 72.3514 58.239 78.2685 67.3546C84.0462 76.259 84.4548 86.3486 85.046 86.6748Z" fill="#2CB67D" fill-opacity="0.2"/>
<path fill-rule="evenodd" clip-rule="evenodd" d="M108.277 73.0879C119.982 69.3505 124.668 66.563 127.591 56.5071C130.571 46.2545 124.731 41.2985 132.451 27.3708C120.213 39.3554 126.606 47.8953 121.655 57.5674C116.819 67.014 108.268 72.4114 108.277 73.0879Z" fill="#2CB67D" fill-opacity="0.2"/>
<path fill-rule="evenodd" clip-rule="evenodd" d="M132.312 85.6433C141.402 93.8905 146.166 96.5436 156.351 94.044C166.738 91.4916 168.118 83.9641 184.062 83.6762C167.546 79.0897 163.33 88.8865 152.462 89.443C141.844 89.9852 132.889 85.293 132.312 85.6433Z" fill="#2CB67D" fill-opacity="0.2"/>
<path fill-rule="evenodd" clip-rule="evenodd" d="M133.988 114.641C131.378 126.625 131.454 132.071 138.717 139.622C146.125 147.327 153.344 144.756 161.569 158.391C157.291 141.819 146.682 143.076 140.765 133.961C134.987 125.056 134.579 114.967 133.988 114.641Z" fill="#2CB67D" fill-opacity="0.2"/>
<path fill-rule="evenodd" clip-rule="evenodd" d="M112.567 128.53C100.862 132.262 96.1806 135.055 93.2581 145.106C90.2779 155.363 96.1181 160.319 88.3984 174.247C100.636 162.262 94.2387 153.718 99.1896 144.05C104.03 134.599 112.581 129.206 112.567 128.53Z" fill="#2CB67D" fill-opacity="0.2"/>
<path fill-rule="evenodd" clip-rule="evenodd" d="M90.6528 115.974C81.5584 107.727 76.7949 105.069 66.6142 107.574C56.222 110.121 54.8424 117.649 38.8984 117.941C55.4144 122.528 59.63 112.726 70.498 112.175C81.1162 111.633 90.0712 116.325 90.6528 115.974Z" fill="#2CB67D" fill-opacity="0.2"/>
<path fill-rule="evenodd" clip-rule="evenodd" d="M127.096 77.0986C151.033 58.0759 148.837 30.4844 147.635 19.5793C146.568 9.88803 151.884 4.57701 151.884 4.57701C151.884 4.57701 143.597 6.55845 140.189 8.5255C136.786 10.4877 120.347 18.9125 110.613 32.8929C100.88 46.8733 107.205 68.6835 103.831 77.9526C100.457 87.2217 87.7188 91.7699 87.7188 91.7699C87.7188 91.7699 96.7362 86.2238 98.6109 76.7772C100.481 67.3258 91.5545 51.8965 102.283 34.2026C113.017 16.5088 141.925 -1.12264 157.306 0.0575924C164.848 0.633313 154.619 1.98626 152.663 10.7516C150.846 18.8837 155.307 37.7721 151.125 52.7936C146.356 69.9213 126.726 77.6647 127.096 77.0986Z" fill="#2CB67D" fill-opacity="0.2"/>
<path fill-rule="evenodd" clip-rule="evenodd" d="M139.175 101.912C167.651 113.091 190.492 97.3929 199.351 90.9064C207.225 85.1396 214.493 87.0779 214.493 87.0779C214.493 87.0779 208.628 80.908 205.22 78.941C201.812 76.9788 186.282 66.9852 169.285 65.5603C152.293 64.1354 136.532 80.5098 126.803 82.2274C117.074 83.945 106.754 75.2084 106.754 75.2084C106.754 75.2084 116.074 80.2316 125.212 77.1275C134.345 74.0186 143.271 58.5893 163.988 59.0163C184.705 59.4481 214.459 75.6162 221.126 89.5055C224.394 96.3134 218.102 88.1477 209.522 90.8392C201.558 93.334 187.402 106.633 172.275 110.529C155.033 114.972 138.498 101.874 139.175 101.912Z" fill="#2CB67D" fill-opacity="0.2"/>
<path fill-rule="evenodd" clip-rule="evenodd" d="M122.004 124.03C126.541 154.231 151.579 166.124 161.64 170.538C170.585 174.463 172.537 181.717 172.537 181.717C172.537 181.717 174.955 173.561 174.955 169.636C174.955 165.707 175.863 147.284 168.6 131.879C161.337 116.478 139.25 111.042 132.896 103.491C126.541 95.9392 128.959 82.6497 128.959 82.6497C128.959 82.6497 129.262 93.2237 136.525 99.5663C143.788 105.909 161.64 105.909 171.628 124.03C181.612 142.15 182.463 175.955 173.743 188.659C169.47 194.891 173.412 185.373 166.783 179.299C160.635 173.666 142.019 168.072 131.079 156.951C118.6 144.266 121.701 123.425 122.004 124.03Z" fill="#2CB67D" fill-opacity="0.2"/>
<path fill-rule="evenodd" clip-rule="evenodd" d="M94.5851 120.902C70.6474 139.924 72.8489 167.52 74.0506 178.421C75.1129 188.112 69.8014 193.423 69.8014 193.423C69.8014 193.423 78.0835 191.442 81.4915 189.479C84.8994 187.512 101.339 179.088 111.072 165.107C120.806 151.127 114.475 129.317 117.85 120.048C121.224 110.783 133.967 106.23 133.967 106.23C133.967 106.23 124.945 111.776 123.075 121.223C121.2 130.674 130.126 146.104 119.398 163.798C108.669 181.491 79.761 199.128 64.3794 197.943C56.8328 197.367 67.0664 196.014 69.0227 187.249C70.8349 179.116 66.379 160.228 70.5609 145.207C75.3292 128.084 94.96 120.34 94.5851 120.902Z" fill="#2CB67D" fill-opacity="0.2"/>
<path fill-rule="evenodd" clip-rule="evenodd" d="M82.8337 96.4092C54.3585 85.2307 31.5168 100.929 22.6531 107.42C14.7797 113.187 7.51184 111.248 7.51184 111.248C7.51184 111.248 13.3761 117.418 16.7841 119.38C20.1921 121.343 35.7227 131.341 52.7194 132.761C69.7161 134.186 85.4774 117.812 95.2063 116.094C104.935 114.377 115.255 123.113 115.255 123.113C115.255 123.113 105.93 118.09 96.7973 121.194C87.6597 124.303 78.7335 139.732 58.0164 139.305C37.3041 138.873 7.54549 122.705 0.878515 108.821C-2.39008 102.008 3.90196 110.179 12.482 107.487C20.4468 104.987 34.6075 91.6931 49.7296 87.7974C66.9714 83.3548 83.5067 96.4476 82.8337 96.4092Z" fill="#2CB67D" fill-opacity="0.2"/>
</g>
<defs>
<clipPath id="clip0_1004_4166">
<rect width="222" height="198" fill="white"/>
</clipPath>
</defs>
</svg>
