<svg width="68" height="68" viewBox="0 0 68 68" fill="none" xmlns="http://www.w3.org/2000/svg">
<g filter="url(#filter0_d_2810_1299)">
<circle cx="34" cy="33" r="30" fill="white"/>
</g>
<path d="M35.0625 21.6667V23.0834C35.0625 23.6642 34.5808 24.1459 34 24.1459C33.4192 24.1459 32.9375 23.6642 32.9375 23.0834V21.6667C32.9375 21.0859 33.4192 20.6042 34 20.6042C34.5808 20.6042 35.0625 21.0859 35.0625 21.6667Z" fill="black"/>
<path d="M27.7384 26.7385C27.54 26.951 27.2567 27.0502 26.9875 27.0502C26.7184 27.0502 26.4492 26.951 26.2367 26.7385L25.2309 25.7326C24.82 25.3218 24.82 24.656 25.2309 24.231C25.6559 23.8201 26.3217 23.8201 26.7325 24.231L27.7384 25.2368C28.1492 25.6477 28.1492 26.3276 27.7384 26.7385Z" fill="black"/>
<path d="M25.1458 33C25.1458 33.5808 24.6641 34.0625 24.0833 34.0625H22.6666C22.0858 34.0625 21.6041 33.5808 21.6041 33C21.6041 32.4192 22.0858 31.9375 22.6666 31.9375H24.0833C24.6641 31.9375 25.1458 32.4192 25.1458 33Z" fill="black"/>
<path d="M27.7384 40.7634L26.7325 41.7692C26.5342 41.9676 26.265 42.0809 25.9817 42.0809C25.7125 42.0809 25.4434 41.9676 25.2309 41.7692C24.82 41.3442 24.82 40.6784 25.2309 40.2676L26.2367 39.2617C26.6475 38.8509 27.3275 38.8509 27.7384 39.2617C28.1492 39.6726 28.1492 40.3526 27.7384 40.7634Z" fill="black"/>
<path d="M35.0625 42.9167V44.3334C35.0625 44.9142 34.5808 45.3959 34 45.3959C33.4192 45.3959 32.9375 44.9142 32.9375 44.3334V42.9167C32.9375 42.3359 33.4192 41.8542 34 41.8542C34.5808 41.8542 35.0625 42.3359 35.0625 42.9167Z" fill="black"/>
<path d="M42.7692 41.7692C42.5567 41.9676 42.2876 42.0809 42.0184 42.0809C41.7492 42.0809 41.4659 41.9676 41.2676 41.7692L40.2617 40.7634C39.8509 40.3526 39.8509 39.6726 40.2617 39.2617C40.6726 38.8509 41.3526 38.8509 41.7634 39.2617L42.7692 40.2676C43.1801 40.6784 43.1801 41.3442 42.7692 41.7692Z" fill="black"/>
<path d="M46.3959 33C46.3959 33.5808 45.9142 34.0625 45.3334 34.0625H43.9167C43.3359 34.0625 42.8542 33.5808 42.8542 33C42.8542 32.4192 43.3359 31.9375 43.9167 31.9375H45.3334C45.9142 31.9375 46.3959 32.4192 46.3959 33Z" fill="black"/>
<path d="M42.7692 25.7326L41.7634 26.7385C41.5509 26.951 41.2817 27.0502 41.0126 27.0502C40.7434 27.0502 40.4742 26.951 40.2617 26.7385C39.8509 26.3276 39.8509 25.6477 40.2617 25.2368L41.2676 24.231C41.6784 23.8201 42.3584 23.8201 42.7692 24.231C43.1801 24.656 43.1801 25.3218 42.7692 25.7326Z" fill="black"/>
<path d="M25.1458 33C25.1458 33.5808 24.6641 34.0625 24.0833 34.0625H22.6666C22.0858 34.0625 21.6041 33.5808 21.6041 33C21.6041 32.4192 22.0858 31.9375 22.6666 31.9375H24.0833C24.6641 31.9375 25.1458 32.4192 25.1458 33Z" fill="black"/>
<path d="M27.7384 39.2617C28.1492 39.6726 28.1492 40.3526 27.7384 40.7634L26.7325 41.7692C26.5342 41.9676 26.265 42.0809 25.9817 42.0809C25.7125 42.0809 25.4434 41.9676 25.2309 41.7692C24.82 41.3442 24.82 40.6784 25.2309 40.2676L26.2367 39.2617C26.6475 38.8509 27.3275 38.8509 27.7384 39.2617Z" fill="black"/>
<path d="M27.7384 25.2368C28.1492 25.6477 28.1492 26.3276 27.7384 26.7385C27.54 26.951 27.2567 27.0502 26.9875 27.0502C26.7184 27.0502 26.4492 26.951 26.2367 26.7385L25.2309 25.7326C24.82 25.3218 24.82 24.656 25.2309 24.231C25.6559 23.8201 26.3217 23.8201 26.7325 24.231L27.7384 25.2368Z" fill="black"/>
<path d="M32.9375 23.0834V21.6667C32.9375 21.0859 33.4192 20.6042 34 20.6042C34.5808 20.6042 35.0625 21.0859 35.0625 21.6667V23.0834C35.0625 23.6642 34.5808 24.1459 34 24.1459C33.4192 24.1459 32.9375 23.6642 32.9375 23.0834Z" fill="black"/>
<path d="M35.0625 42.9167V44.3334C35.0625 44.9142 34.5808 45.3959 34 45.3959C33.4192 45.3959 32.9375 44.9142 32.9375 44.3334V42.9167C32.9375 42.3359 33.4192 41.8542 34 41.8542C34.5808 41.8542 35.0625 42.3359 35.0625 42.9167Z" fill="black"/>
<path d="M34 38.3125C36.934 38.3125 39.3125 35.934 39.3125 33C39.3125 30.066 36.934 27.6875 34 27.6875C31.066 27.6875 28.6875 30.066 28.6875 33C28.6875 35.934 31.066 38.3125 34 38.3125Z" fill="black"/>
<path d="M42.7692 40.2676C43.1801 40.6784 43.1801 41.3442 42.7692 41.7692C42.5567 41.9676 42.2876 42.0809 42.0184 42.0809C41.7492 42.0809 41.4659 41.9676 41.2676 41.7692L40.2617 40.7634C39.8509 40.3526 39.8509 39.6726 40.2617 39.2617C40.6726 38.8509 41.3526 38.8509 41.7634 39.2617L42.7692 40.2676Z" fill="black"/>
<path d="M40.2617 26.7385C39.8509 26.3276 39.8509 25.6477 40.2617 25.2368L41.2676 24.231C41.6784 23.8201 42.3584 23.8201 42.7692 24.231C43.1801 24.656 43.1801 25.3218 42.7692 25.7326L41.7634 26.7385C41.5509 26.951 41.2817 27.0502 41.0126 27.0502C40.7434 27.0502 40.4742 26.951 40.2617 26.7385Z" fill="black"/>
<path d="M46.3959 33C46.3959 33.5808 45.9142 34.0625 45.3334 34.0625H43.9167C43.3359 34.0625 42.8542 33.5808 42.8542 33C42.8542 32.4192 43.3359 31.9375 43.9167 31.9375H45.3334C45.9142 31.9375 46.3959 32.4192 46.3959 33Z" fill="black"/>
<defs>
<filter id="filter0_d_2810_1299" x="0" y="0" width="68" height="68" filterUnits="userSpaceOnUse" color-interpolation-filters="sRGB">
<feFlood flood-opacity="0" result="BackgroundImageFix"/>
<feColorMatrix in="SourceAlpha" type="matrix" values="0 0 0 0 0 0 0 0 0 0 0 0 0 0 0 0 0 0 127 0" result="hardAlpha"/>
<feOffset dy="1"/>
<feGaussianBlur stdDeviation="2"/>
<feComposite in2="hardAlpha" operator="out"/>
<feColorMatrix type="matrix" values="0 0 0 0 0 0 0 0 0 0 0 0 0 0 0 0 0 0 0.1 0"/>
<feBlend mode="normal" in2="BackgroundImageFix" result="effect1_dropShadow_2810_1299"/>
<feBlend mode="normal" in="SourceGraphic" in2="effect1_dropShadow_2810_1299" result="shape"/>
</filter>
</defs>
</svg>
