<svg width="35" height="35" viewBox="0 0 35 35" fill="none" xmlns="http://www.w3.org/2000/svg">
<path d="M17.5007 30.625L16.8821 31.9915C17.2753 32.1695 17.726 32.1695 18.1192 31.9915L17.5007 30.625ZM20.3757 16.0417C20.3757 17.6295 19.0885 18.9167 17.5007 18.9167V21.9167C20.7453 21.9167 23.3757 19.2863 23.3757 16.0417H20.3757ZM17.5007 18.9167C15.9128 18.9167 14.6257 17.6295 14.6257 16.0417H11.6257C11.6257 19.2863 14.256 21.9167 17.5007 21.9167V18.9167ZM14.6257 16.0417C14.6257 14.4538 15.9128 13.1667 17.5007 13.1667V10.1667C14.256 10.1667 11.6257 12.797 11.6257 16.0417H14.6257ZM17.5007 13.1667C19.0885 13.1667 20.3757 14.4538 20.3757 16.0417H23.3757C23.3757 12.797 20.7453 10.1667 17.5007 10.1667V13.1667ZM27.6673 16.0417C27.6673 21.6125 23.1065 26.4409 16.8821 29.2585L18.1192 31.9915C24.7814 28.9758 30.6673 23.3575 30.6673 16.0417H27.6673ZM18.1192 29.2585C11.8948 26.4409 7.33398 21.6125 7.33398 16.0417H4.33398C4.33398 23.3575 10.2199 28.9758 16.8821 31.9915L18.1192 29.2585ZM7.33398 16.0417C7.33398 10.4268 11.8858 5.875 17.5007 5.875V2.875C10.2289 2.875 4.33398 8.76992 4.33398 16.0417H7.33398ZM17.5007 5.875C23.1155 5.875 27.6673 10.4268 27.6673 16.0417H30.6673C30.6673 8.76992 24.7724 2.875 17.5007 2.875V5.875Z" fill="white"/>
</svg>
