<svg width="670" height="670" viewBox="0 0 670 670" fill="none" xmlns="http://www.w3.org/2000/svg">
<path d="M167.808 521.582C260.148 565.587 409.852 565.601 502.192 521.582C594.531 477.563 594.518 406.221 502.192 362.215C409.866 318.21 260.148 318.21 167.808 362.215C75.4687 406.221 75.4821 477.576 167.808 521.582Z" fill="#F5F5F5"/>
<path d="M501.869 489.06C518.876 489.06 532.663 482.491 532.663 474.387C532.663 466.283 518.876 459.714 501.869 459.714C484.863 459.714 471.076 466.283 471.076 474.387C471.076 482.491 484.863 489.06 501.869 489.06Z" fill="#EBEBEB"/>
<path d="M160.799 476.491L171.693 470.206C177.776 465.242 182.405 458.729 185.093 451.352C188.456 442.079 187.987 435.031 185.575 431.493C182.614 427.138 174.936 427.902 174.628 437.068C173.984 455.131 168.718 467.66 160.799 476.491Z" fill="#2CB67D"/>
<path opacity="0.2" d="M160.799 476.491L171.693 470.206C177.776 465.242 182.405 458.729 185.093 451.352C188.456 442.079 187.987 435.031 185.575 431.493C182.614 427.138 174.936 427.902 174.628 437.068C173.984 455.131 168.718 467.66 160.799 476.491Z" fill="black"/>
<path d="M160.799 477.161C160.657 477.159 160.519 477.112 160.405 477.027C160.292 476.942 160.208 476.823 160.166 476.688C160.125 476.552 160.127 476.407 160.173 476.273C160.219 476.138 160.307 476.022 160.423 475.941C185.615 458.521 180.738 434.227 180.684 433.986C180.666 433.898 180.665 433.807 180.681 433.719C180.698 433.63 180.732 433.546 180.781 433.471C180.83 433.396 180.894 433.331 180.968 433.28C181.042 433.229 181.125 433.194 181.213 433.175C181.301 433.157 181.392 433.156 181.481 433.172C181.569 433.189 181.653 433.223 181.728 433.272C181.804 433.321 181.869 433.385 181.919 433.459C181.97 433.533 182.006 433.616 182.024 433.704C182.024 433.959 187.17 459.084 161.227 477.04C161.101 477.126 160.951 477.168 160.799 477.161Z" fill="white"/>
<path d="M138.971 489.1C138.971 489.1 135.178 486.018 136.09 481.837C137.001 477.656 139.453 474.655 135.259 469.268C131.065 463.881 129.899 456.699 134.91 452.813C138.729 449.798 144.692 454.059 146.836 446.113C148.418 440.297 147.882 427.42 155.292 423.132C162.702 418.844 167.352 425.303 166.186 434.039C165.168 441.852 163.72 449.369 164.846 451.459C167.017 455.479 170.729 454.93 170.554 462.273C170.407 469.107 163.935 474.762 163.935 474.762L138.971 489.1Z" fill="#2CB67D"/>
<path d="M151.419 482.547C151.255 482.546 151.097 482.485 150.974 482.377C150.851 482.269 150.771 482.12 150.749 481.958C148.832 466.079 153.429 438.662 157.181 430.515C157.212 430.425 157.263 430.342 157.329 430.273C157.395 430.204 157.475 430.15 157.564 430.114C157.653 430.079 157.749 430.063 157.844 430.067C157.94 430.071 158.033 430.096 158.119 430.14C158.199 430.176 158.271 430.228 158.33 430.292C158.39 430.356 158.436 430.432 158.466 430.514C158.496 430.597 158.509 430.684 158.505 430.772C158.5 430.86 158.478 430.945 158.44 431.024C154.728 439.064 150.293 466.561 152.129 481.743C152.148 481.919 152.096 482.095 151.986 482.233C151.875 482.371 151.715 482.46 151.539 482.48L151.419 482.547Z" fill="white"/>
<path d="M151.058 470.179C150.955 470.184 150.853 470.161 150.763 470.112C146.113 467.848 143.165 459.767 143.045 459.392C143.012 459.309 142.996 459.22 142.998 459.13C143 459.041 143.021 458.952 143.057 458.871C143.094 458.789 143.147 458.716 143.213 458.655C143.279 458.594 143.356 458.547 143.44 458.517C143.524 458.486 143.614 458.473 143.703 458.477C143.793 458.482 143.88 458.505 143.961 458.544C144.042 458.583 144.113 458.638 144.172 458.706C144.231 458.773 144.276 458.851 144.304 458.937C144.304 459.017 147.185 466.843 151.353 468.866C151.489 468.932 151.6 469.043 151.665 469.18C151.731 469.317 151.748 469.472 151.713 469.62C151.679 469.768 151.596 469.9 151.476 469.994C151.357 470.089 151.21 470.14 151.058 470.139V470.179Z" fill="white"/>
<path d="M150.977 475.539C150.842 475.539 150.711 475.498 150.601 475.422C150.491 475.345 150.407 475.236 150.36 475.11C150.293 474.947 150.294 474.764 150.362 474.6C150.43 474.437 150.559 474.308 150.722 474.239C158.548 471.104 163.425 461.791 163.479 461.684C163.56 461.525 163.702 461.406 163.871 461.352C164.041 461.298 164.225 461.314 164.383 461.396C164.541 461.477 164.661 461.618 164.715 461.788C164.769 461.958 164.753 462.142 164.671 462.3C164.457 462.702 159.512 472.162 151.271 475.486C151.179 475.529 151.078 475.548 150.977 475.539Z" fill="white"/>
<path d="M424.512 403.447C424.512 403.447 418.656 393.96 418.08 383.655C417.504 373.351 419.768 369.063 422.877 367.83C425.986 366.597 426.227 370.389 427.822 372.627C429.416 374.865 432.673 373.592 433.879 366.611C435.085 359.629 439.48 347.851 448.619 345.559C458.669 343.067 453.282 354.859 450.749 359.455C448.217 364.051 446.26 370.322 447.922 372.024C449.583 373.726 452.17 370.577 454.622 373.498C457.61 377.022 448.324 389.712 442.991 392.781L424.512 403.447Z" fill="#2CB67D"/>
<path d="M432.538 399.467C432.45 399.464 432.364 399.443 432.284 399.406C432.204 399.369 432.132 399.317 432.072 399.252C432.012 399.188 431.966 399.112 431.936 399.029C431.905 398.947 431.891 398.859 431.895 398.771C432.802 382.194 437.972 366.133 446.903 352.139C446.954 352.066 447.019 352.004 447.094 351.957C447.169 351.91 447.253 351.878 447.341 351.864C447.428 351.851 447.518 351.855 447.604 351.877C447.69 351.898 447.771 351.937 447.841 351.991C447.982 352.096 448.076 352.251 448.103 352.424C448.131 352.596 448.09 352.773 447.989 352.916C439.217 366.705 434.141 382.519 433.249 398.838C433.243 398.926 433.221 399.012 433.182 399.091C433.144 399.171 433.09 399.242 433.024 399.3C432.958 399.359 432.881 399.403 432.798 399.432C432.715 399.461 432.626 399.473 432.538 399.467Z" fill="white"/>
<path d="M433.303 391.548C433.191 391.547 433.08 391.519 432.981 391.468C429.229 389.391 427.152 383.227 427.072 382.972C427.042 382.888 427.029 382.8 427.034 382.711C427.039 382.623 427.062 382.536 427.1 382.457C427.139 382.377 427.193 382.305 427.259 382.247C427.326 382.188 427.403 382.143 427.487 382.114C427.656 382.059 427.84 382.074 427.998 382.154C428.156 382.235 428.276 382.375 428.331 382.543C428.331 382.543 430.341 388.479 433.691 390.288C433.843 390.378 433.954 390.523 434.002 390.693C434.049 390.863 434.029 391.044 433.946 391.2C433.885 391.315 433.792 391.41 433.677 391.472C433.563 391.534 433.432 391.56 433.303 391.548Z" fill="white"/>
<path d="M433.957 387.488C433.809 387.486 433.665 387.435 433.549 387.343C433.432 387.251 433.35 387.123 433.314 386.979C433.292 386.894 433.287 386.806 433.3 386.72C433.312 386.633 433.342 386.55 433.387 386.475C433.431 386.401 433.491 386.335 433.561 386.284C433.632 386.232 433.712 386.195 433.797 386.175C443.471 383.722 446.821 378.657 446.848 378.604C446.896 378.529 446.957 378.464 447.03 378.413C447.103 378.362 447.184 378.326 447.271 378.307C447.357 378.288 447.447 378.286 447.534 378.301C447.621 378.316 447.705 378.348 447.779 378.396C447.854 378.443 447.919 378.505 447.97 378.578C448.021 378.65 448.057 378.732 448.076 378.819C448.095 378.905 448.098 378.995 448.082 379.082C448.067 379.169 448.035 379.252 447.987 379.327C447.84 379.555 444.356 384.875 434.132 387.474L433.957 387.488Z" fill="white"/>
<path d="M278.719 382.624C278.719 382.624 265.868 379.488 265.198 355.422C264.488 329.452 268.347 299.142 253.138 296.689C237.929 294.237 229.487 312.769 229.675 334.41C229.849 353.358 237.487 394.496 278.665 402.563L278.719 382.624Z" fill="#2CB67D"/>
<path opacity="0.2" d="M278.719 382.624C278.719 382.624 265.868 379.488 265.198 355.422C264.488 329.452 268.347 299.142 253.138 296.689C237.929 294.237 229.487 312.769 229.675 334.41C229.849 353.358 237.487 394.496 278.665 402.563L278.719 382.624Z" fill="black"/>
<path d="M278.72 400.097H278.599C269.34 398.409 261.796 393.303 256.181 384.942C239.538 360.112 244.778 313.748 246.506 305.654C246.545 305.482 246.649 305.331 246.796 305.233C246.944 305.136 247.123 305.099 247.297 305.131C247.47 305.173 247.621 305.28 247.719 305.429C247.816 305.579 247.852 305.76 247.82 305.935C246.118 313.975 240.905 359.75 257.293 384.191C259.679 387.982 262.826 391.235 266.535 393.745C270.245 396.254 274.435 397.966 278.841 398.771C278.928 398.787 279.011 398.82 279.086 398.869C279.16 398.917 279.224 398.98 279.274 399.054C279.324 399.127 279.359 399.21 279.376 399.297C279.394 399.384 279.394 399.474 279.377 399.561C279.348 399.714 279.267 399.851 279.146 399.949C279.026 400.047 278.875 400.1 278.72 400.097Z" fill="white"/>
<path d="M278.72 461.858C265.441 463.653 243.88 463.627 231.431 453.818C218.983 444.009 221.582 435.567 226.366 432.043C231.15 428.519 235.304 424.499 227.076 416.673C218.849 408.847 205.636 396.278 201.348 377.424C197.06 358.571 199.178 346.779 207.593 342.852C215.753 339.047 217.911 345.104 222.909 357.592C227.907 370.081 239.15 359.375 248.771 363.274C258.392 367.173 258.004 374.892 258.607 381.525C259.21 388.158 262.385 389.994 267.839 389.994C273.293 389.994 278.72 393.129 278.72 399.374V461.858Z" fill="#2CB67D"/>
<path d="M278.719 439.962C278.661 439.975 278.602 439.975 278.545 439.962C277.968 439.801 264.233 435.808 244.227 417.437C222.921 397.873 212.871 368.527 212.764 368.232C212.713 368.063 212.729 367.881 212.808 367.724C212.888 367.566 213.026 367.446 213.193 367.388C213.36 367.332 213.542 367.345 213.7 367.422C213.858 367.5 213.979 367.637 214.037 367.803C214.131 368.098 224.087 397.122 245.138 416.445C264.863 434.575 278.759 438.636 278.906 438.676C278.991 438.7 279.07 438.741 279.138 438.797C279.207 438.852 279.264 438.92 279.306 438.997C279.349 439.074 279.375 439.159 279.385 439.246C279.394 439.334 279.387 439.422 279.362 439.507C279.319 439.642 279.232 439.759 279.116 439.842C279 439.924 278.861 439.966 278.719 439.962Z" fill="white"/>
<path d="M249.816 422.1C249.682 422.102 249.55 422.062 249.439 421.985C249.329 421.908 249.245 421.798 249.2 421.671C244.899 410.63 243.92 387.005 243.84 386C243.836 385.824 243.901 385.652 244.021 385.522C244.141 385.392 244.307 385.314 244.483 385.304C244.658 385.306 244.826 385.373 244.955 385.492C245.083 385.611 245.164 385.773 245.18 385.947C245.18 386.188 246.185 410.348 250.406 421.189C250.438 421.271 250.454 421.36 250.452 421.448C250.45 421.537 250.43 421.624 250.394 421.706C250.358 421.787 250.306 421.86 250.241 421.92C250.177 421.981 250.1 422.029 250.017 422.06C249.953 422.083 249.885 422.097 249.816 422.1Z" fill="white"/>
<path d="M249.709 437.979C248.473 437.989 247.239 437.926 246.01 437.791C245.922 437.781 245.837 437.753 245.76 437.71C245.683 437.666 245.615 437.608 245.56 437.538C245.505 437.469 245.465 437.389 245.441 437.304C245.417 437.218 245.41 437.129 245.421 437.041C245.431 436.953 245.459 436.868 245.503 436.791C245.546 436.714 245.604 436.646 245.674 436.591C245.744 436.536 245.823 436.496 245.909 436.472C245.994 436.448 246.083 436.441 246.171 436.451C246.292 436.451 258.767 437.872 264.489 432.043C264.549 431.972 264.622 431.915 264.705 431.874C264.788 431.833 264.878 431.81 264.97 431.806C265.063 431.802 265.155 431.817 265.241 431.85C265.327 431.883 265.406 431.933 265.471 431.998C265.537 432.063 265.589 432.141 265.623 432.226C265.657 432.312 265.673 432.404 265.671 432.496C265.668 432.588 265.646 432.679 265.606 432.763C265.567 432.846 265.51 432.92 265.44 432.981C261.3 437.255 254.077 437.979 249.709 437.979Z" fill="white"/>
<path d="M240.063 184.237L238.615 175.888L231.165 180.793C230.484 179.453 229.519 178.278 228.338 177.349L231.902 167.701L225.202 166.214L220.298 175.594C218.523 175.893 216.803 176.453 215.192 177.255L213.062 170.18L205.102 176.438L205.625 184.746C204.004 186.562 202.534 188.507 201.229 190.561L194.663 190.226L190.054 200.558L195.695 202.97C195.106 205.107 194.734 207.298 194.583 209.509L187.414 216.102L188.848 224.463L196.312 219.559C196.989 220.898 197.954 222.069 199.139 222.989L195.642 232.651L202.342 234.125L209.363 227.291C210.985 227.036 210.583 223.981 212.351 223.11L214.482 230.158L222.428 223.914L222.227 220.644C223.835 218.849 229.919 214.896 231.232 212.832L232.88 210.152L237.49 199.821L235.346 195.935L232.961 190.87L240.063 184.237ZM215.742 211.72C209.631 216.517 207.702 217.576 206.67 211.157C205.638 204.739 209.135 194.983 215.246 190.173C221.356 185.362 223.688 185.027 224.787 191.432C225.885 197.838 221.865 206.976 215.742 211.72Z" fill="#E0E0E0"/>
<path d="M225.254 166.214L233.951 171.225L229.046 180.578L220.35 175.567L225.254 166.214Z" fill="#F5F5F5"/>
<path d="M247.311 180.9L239.861 185.804L231.164 180.793L238.614 175.888L247.311 180.9Z" fill="#F5F5F5"/>
<path d="M246.119 204.792L240.478 202.394L231.781 197.382L237.423 199.781L246.119 204.792Z" fill="#E0E0E0"/>
<path d="M195.627 232.651L204.324 237.649L207.888 228.001L199.191 222.989L195.627 232.651Z" fill="#E0E0E0"/>
<path d="M223.097 235.17L214.414 230.158L212.283 223.11L220.98 228.122L223.097 235.17Z" fill="#E0E0E0"/>
<path d="M248.746 189.248L247.312 180.9L239.861 185.804C239.176 184.464 238.206 183.289 237.021 182.361L240.585 172.713L233.952 171.225L229.034 180.605C227.26 180.905 225.54 181.464 223.929 182.267L221.812 175.218L213.852 181.476L214.375 189.784C212.752 191.613 211.282 193.571 209.979 195.64L203.4 195.305L198.79 205.636L204.432 208.048C203.848 210.191 203.476 212.386 203.32 214.601L196.164 221.1L197.598 229.462L205.048 224.557C205.734 225.894 206.704 227.065 207.889 227.988L204.325 237.636L211.025 239.123L215.929 229.743C217.71 229.447 219.436 228.882 221.048 228.068L223.165 235.116L231.125 228.872L230.602 220.564C232.223 218.748 233.693 216.803 234.997 214.748L241.577 215.07L246.186 204.739L240.464 202.34C241.058 200.199 241.435 198.004 241.59 195.787L248.746 189.248ZM224.451 216.785C218.354 221.582 212.512 220.283 211.4 213.877C210.288 207.472 214.348 198.374 220.458 193.576C226.569 188.779 232.398 190.092 233.51 196.498C234.622 202.903 230.562 211.988 224.451 216.785Z" fill="#EBEBEB"/>
<path d="M221.81 175.192L213.114 170.18L205.154 176.438L213.851 181.449L221.81 175.192Z" fill="#F5F5F5"/>
<path d="M205.154 176.438L205.677 184.746L214.373 189.757L213.851 181.449L205.154 176.438Z" fill="#E0E0E0"/>
<path d="M209.979 195.573L201.283 190.561L194.717 190.24L203.4 195.251L209.979 195.573Z" fill="#F5F5F5"/>
<path d="M194.717 190.24L190.107 200.558L198.791 205.569L203.4 195.251L194.717 190.24Z" fill="#E0E0E0"/>
<path d="M203.319 214.521L194.636 209.509L187.467 216.102L196.15 221.113L203.319 214.521Z" fill="#F5F5F5"/>
<path d="M197.597 229.475L188.901 224.463L187.467 216.102L196.15 221.113L197.597 229.475Z" fill="#E0E0E0"/>
<path d="M233.95 171.225L225.254 166.214L231.9 167.701L240.583 172.713L233.95 171.225Z" fill="#F5F5F5"/>
<path d="M201.121 146.341V133.866L191.192 138.342C190.666 136.225 189.758 134.222 188.512 132.432L194.77 119.823L187.132 115.414L179.333 127.139C177.16 126.949 174.97 127.163 172.874 127.769L171.775 116.928L160.975 123.173L159.889 135.233C157.539 137.316 155.378 139.603 153.431 142.067L145.632 139.387L137.994 152.626L144.238 157.986C143.084 160.904 142.188 163.917 141.558 166.991L131.629 173.972V186.461L141.558 181.985C142.084 184.102 142.992 186.105 144.238 187.895L138.021 200.518L145.659 204.926L153.457 193.201C155.631 193.39 157.82 193.177 159.916 192.571L161.002 203.412L171.802 197.168L172.901 185.108C176.272 183.878 179.258 181.779 181.557 179.024L187.158 180.994L194.796 167.768L190.106 163.748C191.125 160.396 191.502 156.882 191.219 153.39L201.121 146.341ZM166.375 177.51C158.094 182.294 152.975 178.85 152.975 169.322C152.975 159.795 159.822 148.016 168.117 143.233C176.412 138.449 181.423 141.893 181.423 151.5C181.423 161.108 174.67 172.713 166.375 177.51Z" fill="#E0E0E0"/>
<path d="M195.814 120.412L187.131 115.414L179.332 127.139L188.015 132.151L195.814 120.412Z" fill="#F5F5F5"/>
<path d="M209.817 138.878L201.121 133.866L191.191 138.342L199.888 143.353L209.817 138.878Z" fill="#F5F5F5"/>
<path d="M169.657 208.424L160.974 203.412L159.889 192.571L168.572 197.583L169.657 208.424Z" fill="#E0E0E0"/>
<path d="M137.98 200.518L146.677 205.529L152.935 192.92L144.238 187.908L137.98 200.518Z" fill="#E0E0E0"/>
<path d="M209.819 151.42V138.945L199.889 143.38C199.369 141.262 198.46 139.258 197.209 137.471L203.467 124.861L195.829 120.439L188.03 132.178C185.857 131.981 183.666 132.195 181.571 132.807L180.473 121.94L169.672 128.184L168.573 140.244C166.226 142.331 164.065 144.617 162.115 147.078L154.316 144.398L146.678 157.638L152.936 162.998C151.776 165.913 150.879 168.927 150.256 172.002L140.326 178.984V191.473L150.256 186.997C150.776 189.116 151.684 191.119 152.936 192.906L146.678 205.516L154.316 209.924L162.115 198.199C164.288 198.389 166.478 198.176 168.573 197.57L169.672 208.41L180.473 202.166L181.558 190.106C183.909 188.023 186.07 185.736 188.017 183.272L195.816 185.952L203.454 172.726L197.196 167.366C198.355 164.45 199.252 161.437 199.876 158.361L209.819 151.42ZM175.072 182.588C166.778 187.372 160.051 183.486 160.051 173.919C160.051 164.351 166.751 152.706 175.072 147.909C183.394 143.112 190.08 147.011 190.08 156.579C190.08 166.147 183.354 177.724 175.072 182.521V182.588Z" fill="#EBEBEB"/>
<path d="M153.432 142.094L162.115 147.105L154.316 144.385L145.633 139.36L153.432 142.094Z" fill="#F0F0F0"/>
<path d="M145.63 139.374L137.99 152.617L146.684 157.633L154.324 144.389L145.63 139.374Z" fill="#F5F5F5"/>
<path d="M137.98 152.599L146.677 157.611L152.935 162.998L144.238 157.999L137.98 152.599Z" fill="#E0E0E0"/>
<path d="M141.558 167.004L150.255 172.016L140.326 178.997L131.629 173.986L141.558 167.004Z" fill="#F5F5F5"/>
<path d="M131.629 173.986L140.326 178.997V191.486L131.629 186.474V173.986Z" fill="#E0E0E0"/>
<path d="M180.472 121.94L171.775 116.928L160.975 123.173L169.658 128.184L180.472 121.94Z" fill="#F5F5F5"/>
<path d="M291.96 479.787L417.92 407.052C418.197 406.954 418.438 406.773 418.608 406.533C418.778 406.293 418.869 406.006 418.869 405.712C418.869 405.418 418.778 405.131 418.608 404.891C418.438 404.651 418.197 404.469 417.92 404.372L406.275 397.672C405.554 397.309 404.758 397.12 403.95 397.12C403.143 397.12 402.347 397.309 401.625 397.672L275.625 470.34C275.348 470.438 275.107 470.619 274.937 470.859C274.767 471.099 274.676 471.386 274.676 471.68C274.676 471.974 274.767 472.261 274.937 472.501C275.107 472.741 275.348 472.922 275.625 473.02L287.31 479.72C288.026 480.093 288.819 480.294 289.627 480.306C290.434 480.317 291.233 480.14 291.96 479.787Z" fill="#E0E0E0"/>
<path d="M414.463 126.228L300.884 191.808C299.196 192.909 297.791 194.394 296.783 196.14C295.775 197.886 295.192 199.844 295.082 201.858V471.291C295.082 474.99 297.682 476.491 300.884 474.641L414.463 409.062C416.153 407.962 417.56 406.479 418.568 404.732C419.577 402.986 420.158 401.026 420.265 399.012V129.578C420.265 125.88 417.679 124.379 414.463 126.228Z" fill="#455A64"/>
<path d="M300.884 191.808L414.463 126.228C417.33 124.566 419.702 125.598 420.184 128.479C419.917 126.668 419.268 124.934 418.282 123.391C417.296 121.848 415.994 120.532 414.463 119.528L409.746 116.848C407.948 115.936 405.96 115.46 403.944 115.46C401.927 115.46 399.94 115.936 398.141 116.848L284.55 182.374C282.839 183.447 281.428 184.936 280.449 186.702L296.784 196.082C297.762 194.33 299.174 192.858 300.884 191.808Z" fill="#37474F"/>
<path d="M278.721 461.858C278.831 463.871 279.413 465.83 280.421 467.576C281.429 469.322 282.835 470.806 284.523 471.908L289.253 474.588C290.89 475.407 292.682 475.871 294.511 475.949C296.34 476.028 298.165 475.719 299.866 475.043C297.186 476.089 295.055 474.548 295.055 471.238V201.858C295.122 199.836 295.708 197.866 296.757 196.136L280.423 186.756C279.389 188.472 278.803 190.422 278.721 192.424V461.858Z" fill="#263238"/>
<path d="M304.006 227.706L411.381 165.731C413.31 164.632 414.865 165.53 414.865 167.741V367.16C414.8 368.369 414.451 369.545 413.845 370.593C413.24 371.641 412.395 372.531 411.381 373.19L304.046 435.165C302.117 436.277 300.562 435.379 300.562 433.155V233.736C300.623 232.531 300.967 231.358 301.565 230.31C302.163 229.263 303 228.371 304.006 227.706Z" fill="white"/>
<path d="M357.674 169.229C357.081 169.618 356.588 170.141 356.234 170.755C355.88 171.369 355.676 172.058 355.637 172.766C355.637 174.106 356.548 174.602 357.674 173.945C358.268 173.559 358.763 173.037 359.117 172.422C359.471 171.807 359.675 171.117 359.71 170.408C359.71 169.108 358.799 168.585 357.674 169.229Z" fill="#37474F"/>
<path d="M357.673 413.712C355.33 415.244 353.382 417.307 351.985 419.733C350.588 422.158 349.782 424.879 349.633 427.674C349.633 432.807 353.237 434.897 357.673 432.324C360.015 430.791 361.963 428.728 363.359 426.302C364.756 423.877 365.562 421.156 365.713 418.361C365.74 413.229 362.122 411.139 357.673 413.712Z" fill="#37474F"/>
<path d="M338.391 189.972C337.213 190.754 336.236 191.801 335.538 193.03C334.839 194.259 334.44 195.635 334.371 197.047C334.371 199.647 336.193 200.705 338.391 199.405C339.581 198.631 340.572 197.587 341.282 196.357C341.992 195.128 342.402 193.748 342.478 192.33C342.478 189.731 340.656 188.672 338.391 189.972Z" fill="#37474F"/>
<path d="M348.4 189.087C348.4 190.829 349.74 191.486 351.308 190.561L378.108 175.058C378.938 174.539 379.634 173.832 380.14 172.994C380.645 172.155 380.945 171.21 381.016 170.234C381.016 168.505 379.676 167.848 378.108 168.773L351.308 184.277C350.48 184.794 349.785 185.499 349.28 186.335C348.774 187.17 348.473 188.114 348.4 189.087Z" fill="#37474F"/>
<path d="M287.78 236.336C288.731 236.955 289.522 237.79 290.09 238.772C290.658 239.755 290.987 240.857 291.049 241.991C291.049 244.081 289.589 244.925 287.78 243.88C286.832 243.258 286.044 242.423 285.478 241.44C284.912 240.458 284.585 239.357 284.523 238.225C284.523 236.148 285.984 235.304 287.78 236.336Z" fill="#37474F"/>
<path d="M287.78 261.501C288.731 262.12 289.522 262.955 290.09 263.938C290.658 264.92 290.987 266.023 291.049 267.156C291.049 269.233 289.589 270.077 287.78 269.045C286.832 268.424 286.044 267.588 285.478 266.606C284.912 265.624 284.585 264.522 284.523 263.39C284.523 261.3 285.984 260.456 287.78 261.501Z" fill="#37474F"/>
<path d="M286.76 236.845C287.711 237.464 288.502 238.299 289.07 239.282C289.638 240.264 289.967 241.367 290.029 242.5C290.029 244.577 288.569 245.421 286.76 244.389C285.809 243.77 285.017 242.935 284.449 241.953C283.881 240.97 283.553 239.868 283.49 238.734C283.504 236.644 284.964 235.84 286.76 236.845Z" fill="#455A64"/>
<path d="M286.76 261.997C287.713 262.618 288.505 263.454 289.073 264.439C289.642 265.424 289.969 266.53 290.029 267.665C290.029 269.742 288.569 270.586 286.76 269.541C285.807 268.924 285.013 268.09 284.445 267.107C283.877 266.124 283.549 265.02 283.49 263.886C283.504 261.809 284.964 260.965 286.76 261.997Z" fill="#455A64"/>
<path d="M436.599 174.053C436.599 171.828 435.044 170.93 433.115 172.043L420.264 179.453L325.781 234.018C324.766 234.677 323.921 235.567 323.316 236.615C322.71 237.663 322.361 238.839 322.297 240.048V439.413C322.297 441.637 323.851 442.535 325.781 441.423L420.304 386.845L433.115 379.448C434.13 378.788 434.974 377.898 435.58 376.85C436.185 375.803 436.534 374.626 436.599 373.418V174.053Z" fill="white"/>
<path d="M437.939 174.053C438.024 173.381 437.908 172.699 437.607 172.092C437.305 171.485 436.832 170.981 436.246 170.642C435.659 170.303 434.986 170.145 434.31 170.186C433.634 170.228 432.985 170.468 432.445 170.877L420.184 177.965L325.111 232.905C323.887 233.678 322.869 234.737 322.146 235.99C321.422 237.244 321.014 238.655 320.957 240.101V439.413C320.903 440.082 321.032 440.753 321.329 441.355C321.627 441.956 322.082 442.466 322.646 442.83C323.125 443.109 323.672 443.252 324.227 443.245C325.012 443.221 325.778 442.995 326.451 442.589L421.591 387.649L433.825 380.587C435.043 379.807 436.055 378.746 436.778 377.494C437.5 376.242 437.912 374.835 437.979 373.391L437.939 174.053ZM420.211 385.357L419.112 386L325.165 440.244C325.007 440.365 324.824 440.449 324.629 440.491C324.435 440.533 324.233 440.531 324.039 440.485C323.865 440.378 323.691 440.002 323.691 439.386V240.048C323.76 239.075 324.05 238.13 324.537 237.285C325.024 236.44 325.697 235.717 326.505 235.17L420.358 180.9L433.758 173.141C433.916 173.02 434.099 172.935 434.294 172.894C434.489 172.852 434.69 172.854 434.884 172.9C435.058 173.007 435.232 173.383 435.232 173.999V373.418C435.163 374.391 434.874 375.335 434.386 376.18C433.899 377.025 433.226 377.748 432.418 378.295L420.184 385.357H420.211Z" fill="#2CB67D"/>
<path d="M379.449 220.376C391.509 213.435 401.224 219.036 401.224 232.959C401.224 246.882 391.469 263.779 379.449 270.667C367.429 277.554 357.674 272.007 357.674 258.097C357.674 244.188 367.429 227.331 379.449 220.376Z" fill="#2CB67D"/>
<path d="M379.449 231.311C383.348 229.06 386.51 230.882 386.51 235.331C386.378 237.782 385.669 240.167 384.442 242.292C383.215 244.418 381.505 246.224 379.449 247.565C375.549 249.816 372.387 247.994 372.387 243.545C372.519 241.094 373.228 238.709 374.455 236.583C375.682 234.458 377.393 232.651 379.449 231.311Z" fill="#2CB67D"/>
<path d="M393.209 255.324C393.209 247.927 388.023 244.925 381.605 248.624L377.585 250.942C371.18 254.64 365.98 263.645 365.98 271.042V273.038C369.692 274.258 374.355 273.601 379.38 270.667C384.947 267.233 389.654 262.571 393.142 257.039L393.209 255.324Z" fill="#2CB67D"/>
<path opacity="0.7" d="M379.449 231.311C383.348 229.06 386.51 230.882 386.51 235.331C386.378 237.782 385.669 240.167 384.442 242.292C383.215 244.418 381.505 246.224 379.449 247.565C375.549 249.816 372.387 247.994 372.387 243.545C372.519 241.094 373.228 238.709 374.455 236.583C375.682 234.458 377.393 232.651 379.449 231.311Z" fill="white"/>
<path opacity="0.7" d="M393.209 255.324C393.209 247.927 388.023 244.925 381.605 248.624L377.585 250.942C371.18 254.64 365.98 263.645 365.98 271.042V273.038C369.692 274.258 374.355 273.601 379.38 270.667C384.947 267.233 389.654 262.571 393.142 257.039L393.209 255.324Z" fill="white"/>
<path d="M337.318 301.286L365.338 285.112C366.678 284.375 367.656 284.964 367.656 286.452V287.376C367.613 288.182 367.381 288.966 366.978 289.664C366.576 290.363 366.013 290.956 365.338 291.396L337.318 307.57C336.045 308.307 335 307.704 335 306.23V305.306C335.043 304.501 335.276 303.717 335.679 303.019C336.082 302.32 336.643 301.727 337.318 301.286Z" fill="#2CB67D"/>
<path opacity="0.1" d="M337.318 301.286L365.338 285.112C366.678 284.375 367.656 284.964 367.656 286.452V287.376C367.613 288.182 367.381 288.966 366.978 289.664C366.576 290.363 366.013 290.956 365.338 291.396L337.318 307.57C336.045 308.307 335 307.704 335 306.23V305.306C335.043 304.501 335.276 303.717 335.679 303.019C336.082 302.32 336.643 301.727 337.318 301.286Z" fill="black"/>
<path d="M336.166 320.809L420.934 271.873C421.564 271.497 422.087 271.792 422.087 272.543V282.432C422.063 282.833 421.947 283.224 421.747 283.572C421.547 283.921 421.269 284.219 420.934 284.442L336.166 333.379C335.523 333.754 335 333.446 335 332.709V322.819C335.023 322.416 335.141 322.024 335.343 321.675C335.546 321.326 335.827 321.029 336.166 320.809Z" fill="#2CB67D"/>
<path opacity="0.2" d="M336.166 320.809L420.934 271.873C421.564 271.497 422.087 271.792 422.087 272.543V282.432C422.063 282.833 421.947 283.224 421.747 283.572C421.547 283.921 421.269 284.219 420.934 284.442L336.166 333.379C335.523 333.754 335 333.446 335 332.709V322.819C335.023 322.416 335.141 322.024 335.343 321.675C335.546 321.326 335.827 321.029 336.166 320.809Z" fill="white"/>
<path d="M337.318 345.278L365.338 329.104C366.678 328.367 367.656 328.97 367.656 330.444V331.369C367.614 332.174 367.383 332.959 366.98 333.657C366.577 334.356 366.014 334.949 365.338 335.389L337.318 351.562C336.045 352.313 335 351.71 335 350.222V349.298C335.046 348.493 335.279 347.711 335.682 347.013C336.084 346.314 336.645 345.72 337.318 345.278Z" fill="#2CB67D"/>
<path opacity="0.1" d="M337.318 345.278L365.338 329.104C366.678 328.367 367.656 328.97 367.656 330.444V331.369C367.614 332.174 367.383 332.959 366.98 333.657C366.577 334.356 366.014 334.949 365.338 335.389L337.318 351.562C336.045 352.313 335 351.71 335 350.222V349.298C335.046 348.493 335.279 347.711 335.682 347.013C336.084 346.314 336.645 345.72 337.318 345.278Z" fill="black"/>
<path d="M336.166 364.802L420.934 315.865C421.564 315.49 422.087 315.798 422.087 316.535V326.424C422.063 326.825 421.947 327.216 421.747 327.564C421.547 327.913 421.269 328.211 420.934 328.434L336.166 377.371C335.523 377.746 335 377.451 335 376.701V366.812C335.023 366.409 335.141 366.017 335.343 365.668C335.546 365.318 335.827 365.022 336.166 364.802Z" fill="#2CB67D"/>
<path opacity="0.2" d="M336.166 364.802L420.934 315.865C421.564 315.49 422.087 315.798 422.087 316.535V326.424C422.063 326.825 421.947 327.216 421.747 327.564C421.547 327.913 421.269 328.211 420.934 328.434L336.166 377.371C335.523 377.746 335 377.451 335 376.701V366.812C335.023 366.409 335.141 366.017 335.343 365.668C335.546 365.318 335.827 365.022 336.166 364.802Z" fill="white"/>
<path d="M369.974 370.416L403.474 351.107C404.814 350.356 405.806 350.959 405.806 352.447V362.792C405.762 363.598 405.528 364.383 405.123 365.081C404.718 365.78 404.153 366.373 403.474 366.812L369.974 386.134C368.634 386.871 367.656 386.268 367.656 384.794V374.436C367.703 373.632 367.937 372.85 368.339 372.152C368.742 371.454 369.302 370.859 369.974 370.416Z" fill="#2CB67D"/>
<path opacity="0.1" d="M369.974 370.416L403.474 351.107C404.814 350.356 405.806 350.959 405.806 352.447V362.792C405.762 363.598 405.528 364.383 405.123 365.081C404.718 365.78 404.153 366.373 403.474 366.812L369.974 386.134C368.634 386.871 367.656 386.268 367.656 384.794V374.436C367.703 373.632 367.937 372.85 368.339 372.152C368.742 371.454 369.302 370.859 369.974 370.416Z" fill="black"/>
<path d="M449.301 326.759C449.301 326.759 432.846 304.059 431.881 301.299C431.117 299.262 431.881 296.234 432.122 294.827C432.364 293.42 432.578 290.284 432.819 289.467C433.221 287.939 431.251 288.247 430.139 289.641C429.027 291.034 428.652 293.822 428.076 294.277C427.499 294.733 423.118 288.341 420.826 285.393C418.535 282.445 417.101 280.649 415.694 281.748C414.689 282.539 415.439 284.254 417.101 286.773C418.071 288.13 418.966 289.539 419.781 290.994C420.036 291.544 418.669 291.584 417.932 292.723C417.356 293.607 417.932 295.041 417.128 295.724C416.633 296.101 416.294 296.646 416.175 297.257C416.057 297.867 416.167 298.5 416.485 299.034C417.976 301.377 419.9 303.414 422.153 305.037C424.618 306.739 425.61 307.342 427.071 309.66C428.531 311.979 441.636 335.656 442.521 337.077C443.405 338.497 445.107 341.392 447.693 341.472C450.279 341.552 471.451 323.328 472.537 322.417C476.021 319.509 477.133 319.094 477.723 321.707C477.926 322.636 478.078 323.575 478.178 324.521C478.594 327.844 480.858 339.717 480.858 339.717C480.858 339.717 491.578 344.903 500.382 342.397C509.186 339.891 512.161 336.152 512.161 336.152L507.752 328.97C508.945 326.008 514.452 314.002 516.234 305.6L488.63 301.138C488.067 301.017 487.156 300.79 485.95 300.482C484.436 300.08 480.59 298.753 477.682 301.299C468.195 309.567 449.328 326.759 449.328 326.759" fill="#FFA8A7"/>
<path d="M504.027 466.039L499.082 472.913C501.329 473.962 503.785 474.489 506.264 474.454C510.7 474.615 511.919 473.114 512.08 472.819C512.83 471.211 511.665 468.316 511.343 465.824L504.027 466.039Z" fill="#37474F"/>
<path d="M499.364 469.616C499.364 469.616 493.361 469.228 489.22 468.719C485.08 468.209 481.797 470.219 482.761 471.921C483.726 473.623 486.018 475.043 489.582 476.236C492.624 477.268 496.282 478.005 499.445 478.916C502.607 479.827 504.804 481.02 506.64 480.377C508.69 479.666 509.575 478.849 509.401 477.348C508.953 475.213 508.399 473.102 507.739 471.023L499.364 469.616Z" fill="#37474F"/>
<path d="M512.081 459.138C512.081 459.138 511.33 465.382 511.277 466.722C511.223 468.062 505.18 468.491 504.027 466.039L503.84 458.401L512.081 459.138Z" fill="#F28F8F"/>
<path d="M505.997 462.97L508.154 472.457C508.154 472.457 508.355 473.61 503.424 474.347C498.493 475.084 490.748 471.76 489.421 471.09C488.095 470.42 487.947 469.067 492.798 469.335C497.649 469.603 499.364 469.616 499.364 469.616L497.783 465.422L505.997 462.97Z" fill="#FFA8A7"/>
<path d="M516.153 305.52L519.57 304.568C519.57 304.568 526.712 327.174 527.503 329.358C528.293 331.543 529.191 333.847 527.65 336.541C525.814 339.743 516.153 352.621 516.153 352.621L510.016 346.618L516.984 333.861L510.82 321.399L516.153 305.52Z" fill="#F28F8F"/>
<path d="M481.06 276.161C480.259 274.657 479.852 272.974 479.878 271.271C479.904 269.567 480.361 267.898 481.207 266.419C484.611 260.107 492.195 257.039 501.227 258.205C505.408 258.754 510.339 262.225 513.032 267.41C516.007 273.159 516.289 284.737 517.052 289.118L481.06 276.161Z" fill="#37474F"/>
<path d="M480.819 278.64C480.819 278.64 478.675 282.727 479.05 283.102C479.606 283.426 480.213 283.653 480.846 283.772L480.819 278.64Z" fill="#FFA8A7"/>
<path d="M487.331 265.722C484.999 267.236 480.979 270.023 480.805 279.202C480.617 288.582 481.957 291.678 483.351 292.763C484.289 293.5 489.796 293.125 492.155 292.576C494.513 292.026 501.307 288.663 503.759 283.557C506.64 277.554 506.05 268.817 501.776 266.137C499.6 264.851 497.133 264.138 494.607 264.065C492.08 263.992 489.577 264.563 487.331 265.722Z" fill="#FFA8A7"/>
<path d="M512.08 336.099C516.207 342.531 520.12 348.159 520.977 355.422C522.746 370.684 516.957 388.131 515.711 399.427C518.055 402.64 519.406 406.47 519.597 410.442C519.597 415.119 512.08 459.138 512.08 459.138C512.08 459.138 506.612 460.799 503.839 458.401L498.68 377.424L501.36 367.562L512.08 336.099Z" fill="#2CB67D"/>
<path opacity="0.2" d="M512.08 336.099C516.207 342.531 520.12 348.159 520.977 355.422C522.746 370.684 516.957 388.131 515.711 399.427C518.055 402.64 519.406 406.47 519.597 410.442C519.597 415.119 512.08 459.138 512.08 459.138C512.08 459.138 506.612 460.799 503.839 458.401L498.68 377.424L501.36 367.562L512.08 336.099Z" fill="black"/>
<path d="M498.68 377.424L501.36 367.562C506.491 366.211 511.44 364.245 516.1 361.706C516.1 361.706 513.312 366.785 505.299 369.572L501.159 382.235L500.81 411.246L498.68 377.424Z" fill="#2CB67D"/>
<path opacity="0.3" d="M498.68 377.424L501.36 367.562C506.491 366.211 511.44 364.245 516.1 361.706C516.1 361.706 513.312 366.785 505.299 369.572L501.159 382.235L500.81 411.246L498.68 377.424Z" fill="black"/>
<path d="M512.08 336.099C514.291 339.717 519.57 345.881 518.445 351.817C517.105 358.999 513.219 364.051 501.4 367.562L490.305 407.762C490.305 407.762 496.08 413.122 497.849 418.308C499.618 423.494 505.996 462.997 505.996 462.997C505.996 462.997 504.013 466.226 497.782 465.449C497.782 465.449 476.061 415.869 474.533 412.64C472.679 409.369 472.029 405.552 472.697 401.853C473.381 396.653 480.737 339.744 480.737 339.744L512.08 336.099Z" fill="#2CB67D"/>
<path opacity="0.2" d="M512.08 336.099C514.291 339.717 519.57 345.881 518.445 351.817C517.105 358.999 513.219 364.051 501.4 367.562L490.305 407.762C490.305 407.762 496.08 413.122 497.849 418.308C499.618 423.494 505.996 462.997 505.996 462.997C505.996 462.997 504.013 466.226 497.782 465.449C497.782 465.449 476.061 415.869 474.533 412.64C472.679 409.369 472.029 405.552 472.697 401.853C473.381 396.653 480.737 339.744 480.737 339.744L512.08 336.099Z" fill="black"/>
<path d="M516.153 305.52L488.549 301.058C487.987 300.937 487.075 300.709 485.869 300.401C485.869 300.401 484.69 317.714 477.602 321.68C477.776 322.511 477.923 323.436 478.057 324.494C478.473 327.818 480.737 339.69 480.737 339.69C480.737 339.69 491.457 344.876 500.261 342.37C509.065 339.864 512.04 336.126 512.04 336.126L507.631 328.943C508.864 325.955 514.411 313.949 516.153 305.52Z" fill="#2CB67D"/>
<path opacity="0.7" d="M516.153 305.52L488.549 301.058C487.987 300.937 487.075 300.709 485.869 300.401C485.869 300.401 484.69 317.714 477.602 321.68C477.776 322.511 477.923 323.436 478.057 324.494C478.473 327.818 480.737 339.69 480.737 339.69C480.737 339.69 491.457 344.876 500.261 342.37C509.065 339.864 512.04 336.126 512.04 336.126L507.631 328.943C508.864 325.955 514.411 313.949 516.153 305.52Z" fill="white"/>
<path d="M508.878 326.089C505.212 328.29 501.372 330.186 497.395 331.757C501.004 331.685 504.538 330.708 507.672 328.916L508.878 326.089Z" fill="#2CB67D"/>
<path d="M486.647 266.178C486.647 266.178 485.307 274.888 488.47 280.006C488.47 280.006 489.649 276.536 492.583 277.192C495.518 277.849 495.679 281.722 493.615 283.892C493.091 284.501 492.405 284.95 491.637 285.187C490.869 285.424 490.05 285.44 489.274 285.232C489.274 285.232 488.805 291.53 488.55 296.81C488.295 302.09 486.902 313.6 492.838 318.25C498.774 322.9 513.675 324.535 520.656 314.779C524.542 309.352 519.383 299.758 516.985 288.998C514.774 279.109 513.528 264.449 503.035 262.091C492.543 259.732 486.647 266.178 486.647 266.178Z" fill="#37474F"/>
<path d="M525.145 147.172L522.934 148.512C523.12 147.725 523.223 146.922 523.243 146.114C523.243 141.625 520.094 139.816 516.208 142.094C515.025 142.807 513.97 143.713 513.085 144.774C513.085 138.744 508.851 136.291 503.625 139.306C500.871 141.102 498.579 143.522 496.936 146.37C495.292 149.217 494.343 152.412 494.165 155.695C494.165 156.003 494.165 156.298 494.165 156.592C492.818 156.423 491.456 156.736 490.319 157.477C488.271 158.811 486.567 160.609 485.345 162.726C484.122 164.842 483.416 167.217 483.284 169.657C483.283 170.225 483.341 170.791 483.458 171.346L482.279 172.029C479.076 173.878 476.477 177.483 476.477 180.069C476.477 182.655 479.076 183.272 482.279 181.409L525.159 156.686C528.361 154.837 530.961 151.232 530.961 148.646C530.961 146.06 528.348 145.31 525.145 147.172Z" fill="#EBEBEB"/>
</svg>
