<svg width="569" height="569" viewBox="0 0 569 569" fill="none" xmlns="http://www.w3.org/2000/svg">
<path d="M465.589 117.214C437.276 52.6553 369.315 28.3477 315.692 71.6941C294.753 88.6048 281.689 115.518 256.049 126.318C231.992 136.446 201.516 133.465 175.502 138.95C120.104 150.557 45.5194 194.598 51.2094 262.457C53.7016 292.182 73.7532 325.195 83.6652 353.008C95.0452 385.008 101.873 425.043 131.996 444.173C183.638 477.016 245.933 450.17 292.454 423.689C317.49 409.452 331.271 400.701 358.23 405.583C383.187 410.135 405.662 426.067 430.05 407.165C448.36 392.974 449.874 364.217 465.248 347.329C482.568 328.302 500.128 326.925 509.129 298.327C520.043 263.629 503.963 241.95 493.095 210.951C482.227 179.952 478.927 147.587 465.589 117.214Z" fill="#2CB67D"/>
<g opacity="0.7">
<path d="M465.589 117.214C437.276 52.6553 369.315 28.3477 315.692 71.6941C294.753 88.6048 281.689 115.518 256.049 126.318C231.992 136.446 201.516 133.465 175.502 138.95C120.104 150.557 45.5194 194.598 51.2094 262.457C53.7016 292.182 73.7532 325.195 83.6652 353.008C95.0452 385.008 101.873 425.043 131.996 444.173C183.638 477.016 245.933 450.17 292.454 423.689C317.49 409.452 331.271 400.701 358.23 405.583C383.187 410.135 405.662 426.067 430.05 407.165C448.36 392.974 449.874 364.217 465.248 347.329C482.568 328.302 500.128 326.925 509.129 298.327C520.043 263.629 503.963 241.95 493.095 210.951C482.227 179.952 478.927 147.587 465.589 117.214Z" fill="white"/>
</g>
<path d="M382.334 70.3967H205.455C193.243 70.3967 183.344 80.2963 183.344 92.5081V465.931C183.344 478.143 193.243 488.043 205.455 488.043H382.334C394.546 488.043 404.446 478.143 404.446 465.931V92.5081C404.446 80.2963 394.546 70.3967 382.334 70.3967Z" fill="#263238"/>
<path d="M394.613 116.258H193.164V442.181H394.613V116.258Z" fill="white" stroke="#263238" stroke-width="1.33739" stroke-miterlimit="10"/>
<path d="M324.77 248.234C341.822 231.182 341.822 203.535 324.77 186.482C307.718 169.43 280.071 169.43 263.018 186.482C245.966 203.535 245.966 231.182 263.018 248.234C280.071 265.286 307.718 265.286 324.77 248.234Z" fill="#2CB67D"/>
<path d="M351.222 421.686H236.58C236.322 421.687 236.066 421.638 235.828 421.54C235.589 421.442 235.372 421.299 235.189 421.117C235.006 420.935 234.861 420.718 234.761 420.48C234.662 420.242 234.611 419.987 234.611 419.729C234.61 419.47 234.66 419.213 234.758 418.973C234.857 418.734 235.001 418.516 235.185 418.333C235.368 418.15 235.585 418.005 235.825 417.907C236.064 417.808 236.321 417.758 236.58 417.76H351.222C351.48 417.76 351.736 417.811 351.974 417.91C352.212 418.009 352.428 418.154 352.61 418.337C352.792 418.52 352.936 418.737 353.034 418.976C353.132 419.215 353.181 419.471 353.18 419.729C353.18 420.248 352.973 420.746 352.606 421.113C352.239 421.48 351.741 421.686 351.222 421.686Z" fill="#2CB67D"/>
<path d="M354.954 285.57H232.835C230.315 285.57 228.271 287.613 228.271 290.133V304.529C228.271 307.049 230.315 309.092 232.835 309.092H354.954C357.474 309.092 359.517 307.049 359.517 304.529V290.133C359.517 287.613 357.474 285.57 354.954 285.57Z" fill="#2CB67D"/>
<path d="M354.954 329.565H232.835C230.315 329.565 228.271 331.608 228.271 334.128V348.524C228.271 351.044 230.315 353.087 232.835 353.087H354.954C357.474 353.087 359.517 351.044 359.517 348.524V334.128C359.517 331.608 357.474 329.565 354.954 329.565Z" fill="#2CB67D"/>
<path d="M315.637 239.139L302.789 231.742V225.631C304.649 223.38 305.997 220.751 306.738 217.927C307.18 218.084 307.645 218.165 308.115 218.166C309.708 218.166 310.721 213.227 310.891 209.699C312.746 205.773 310.22 203.474 310.22 203.474C310.22 203.474 311.267 202.427 311.961 198.228C312.655 194.029 309.514 195.781 307.068 191.935C304.621 188.089 302.868 183.901 294.834 183.901C292.62 183.828 290.436 184.423 288.565 185.608C286.693 186.793 285.222 188.514 284.342 190.547C282.342 190.554 280.349 190.787 278.401 191.241C275.943 191.935 275.249 199.981 277.343 203.133C278.28 204.856 278.781 206.782 278.8 208.743C278.242 208.06 277.662 207.878 277.343 209.426C276.649 212.92 279.448 217.813 279.448 217.813L280.894 217.403C281.622 220.422 283.026 223.235 285.002 225.631V231.742L272.154 239.139C270.653 240.006 269.407 241.251 268.54 242.751C267.673 244.251 267.216 245.953 267.215 247.686V251.919C274.856 257.822 284.239 261.024 293.895 261.024C303.551 261.024 312.934 257.822 320.576 251.919V247.686C320.577 245.953 320.12 244.25 319.253 242.75C318.386 241.249 317.139 240.004 315.637 239.139V239.139Z" fill="#263238"/>
<path d="M244.898 347.238C244.603 347.234 244.322 347.116 244.112 346.908C244 346.808 243.911 346.685 243.85 346.548C243.789 346.41 243.759 346.262 243.76 346.111C243.763 345.906 243.822 345.706 243.93 345.531L245.979 342.254L241.984 342.379C241.834 342.388 241.683 342.366 241.542 342.313C241.401 342.26 241.272 342.178 241.165 342.072C240.979 341.863 240.877 341.594 240.877 341.315C240.877 341.036 240.979 340.766 241.165 340.558C241.27 340.448 241.398 340.363 241.539 340.307C241.681 340.252 241.833 340.229 241.984 340.239L245.922 340.387L243.896 337.121C243.786 336.943 243.727 336.739 243.726 336.53C243.724 336.379 243.755 336.231 243.816 336.093C243.877 335.956 243.966 335.833 244.078 335.733C244.287 335.525 244.569 335.407 244.864 335.403C245.057 335.404 245.247 335.46 245.41 335.565C245.573 335.67 245.703 335.819 245.785 335.995L247.731 339.511L249.655 336.017C249.746 335.831 249.886 335.673 250.061 335.561C250.235 335.448 250.437 335.386 250.645 335.38C250.788 335.381 250.93 335.412 251.062 335.471C251.193 335.529 251.311 335.615 251.407 335.722C251.616 335.938 251.73 336.229 251.726 336.53C251.725 336.725 251.674 336.917 251.578 337.087L249.518 340.387L253.512 340.239C253.664 340.229 253.816 340.252 253.958 340.307C254.099 340.363 254.227 340.448 254.332 340.558C254.526 340.759 254.632 341.03 254.628 341.309C254.627 341.591 254.521 341.863 254.332 342.072C254.225 342.178 254.096 342.26 253.955 342.313C253.814 342.366 253.663 342.388 253.512 342.379L249.495 342.254L251.498 345.497C251.61 345.678 251.669 345.887 251.669 346.1C251.669 346.402 251.549 346.691 251.335 346.905C251.122 347.118 250.833 347.238 250.531 347.238C250.336 347.236 250.146 347.176 249.984 347.067C249.822 346.958 249.696 346.804 249.62 346.624L247.72 343.21L245.831 346.624C245.747 346.802 245.616 346.954 245.451 347.062C245.286 347.171 245.095 347.232 244.898 347.238V347.238Z" fill="#263238"/>
<path d="M263.356 347.238C263.061 347.234 262.78 347.116 262.571 346.908C262.459 346.808 262.369 346.685 262.308 346.548C262.248 346.41 262.217 346.262 262.218 346.112C262.221 345.906 262.28 345.706 262.389 345.531L264.437 342.254L260.454 342.379C260.302 342.386 260.15 342.362 260.007 342.309C259.865 342.257 259.734 342.176 259.623 342.072C259.472 341.916 259.371 341.718 259.334 341.504C259.297 341.29 259.325 341.07 259.415 340.873C259.504 340.675 259.652 340.509 259.837 340.396C260.022 340.283 260.237 340.228 260.454 340.239L264.38 340.387L262.354 337.121C262.244 336.943 262.185 336.739 262.184 336.53C262.183 336.379 262.213 336.231 262.274 336.093C262.335 335.956 262.425 335.833 262.536 335.733C262.746 335.525 263.027 335.407 263.322 335.403C263.516 335.404 263.705 335.46 263.868 335.565C264.032 335.67 264.162 335.819 264.243 335.995L266.189 339.511L268.113 336.017C268.204 335.831 268.344 335.673 268.519 335.561C268.693 335.448 268.895 335.386 269.103 335.38C269.247 335.38 269.389 335.41 269.521 335.469C269.652 335.527 269.77 335.614 269.865 335.722C269.971 335.828 270.054 335.954 270.111 336.093C270.167 336.231 270.196 336.38 270.195 336.53C270.191 336.726 270.136 336.918 270.036 337.087L267.976 340.387L271.982 340.262C272.132 340.252 272.282 340.275 272.422 340.33C272.562 340.386 272.687 340.471 272.79 340.581C272.984 340.782 273.09 341.052 273.086 341.332C273.085 341.614 272.98 341.886 272.79 342.094C272.685 342.2 272.558 342.282 272.419 342.335C272.28 342.388 272.131 342.411 271.982 342.402L267.953 342.276L269.956 345.52C270.068 345.701 270.128 345.91 270.127 346.123C270.127 346.425 270.007 346.714 269.794 346.928C269.58 347.141 269.291 347.261 268.989 347.261C268.794 347.258 268.604 347.199 268.442 347.09C268.28 346.98 268.154 346.826 268.079 346.646L266.178 343.232L264.289 346.646C264.202 346.821 264.069 346.968 263.905 347.072C263.74 347.176 263.551 347.234 263.356 347.238V347.238Z" fill="#263238"/>
<path d="M281.827 347.238C281.528 347.237 281.242 347.118 281.03 346.908C280.918 346.808 280.829 346.685 280.768 346.548C280.707 346.41 280.676 346.262 280.677 346.112C280.681 345.906 280.74 345.706 280.848 345.531L282.896 342.254L278.913 342.379C278.699 342.387 278.487 342.332 278.304 342.219C278.121 342.107 277.976 341.943 277.887 341.747C277.797 341.552 277.769 341.335 277.803 341.123C277.838 340.911 277.935 340.714 278.083 340.558C278.19 340.448 278.32 340.363 278.463 340.308C278.607 340.253 278.76 340.23 278.913 340.239L282.839 340.387L280.814 337.121C280.704 336.943 280.644 336.739 280.643 336.53C280.647 336.38 280.68 336.233 280.74 336.096C280.801 335.959 280.888 335.836 280.996 335.733C281.208 335.523 281.494 335.404 281.792 335.403C281.984 335.406 282.172 335.464 282.332 335.568C282.493 335.673 282.622 335.821 282.703 335.995L284.649 339.511L286.572 336.017C286.663 335.831 286.804 335.673 286.978 335.561C287.153 335.448 287.355 335.386 287.562 335.38C287.706 335.38 287.849 335.41 287.98 335.469C288.112 335.527 288.229 335.614 288.325 335.722C288.43 335.828 288.513 335.954 288.57 336.093C288.627 336.231 288.655 336.38 288.655 336.53C288.65 336.726 288.596 336.918 288.495 337.087L286.435 340.387L290.441 340.239C290.588 340.225 290.737 340.242 290.877 340.289C291.018 340.337 291.146 340.414 291.254 340.515C291.362 340.617 291.446 340.74 291.503 340.877C291.559 341.014 291.585 341.161 291.579 341.309C291.582 341.59 291.48 341.861 291.295 342.072C291.188 342.178 291.059 342.26 290.918 342.313C290.777 342.366 290.626 342.388 290.475 342.379L286.458 342.254L288.45 345.497C288.562 345.678 288.621 345.887 288.62 346.1C288.617 346.25 288.584 346.397 288.523 346.533C288.463 346.67 288.376 346.794 288.268 346.897C288.169 347.003 288.049 347.088 287.916 347.147C287.783 347.206 287.639 347.237 287.494 347.238C287.3 347.235 287.112 347.175 286.952 347.066C286.792 346.956 286.668 346.803 286.595 346.624L284.683 343.21L282.794 346.624C282.709 346.808 282.572 346.964 282.401 347.073C282.229 347.182 282.03 347.239 281.827 347.238V347.238Z" fill="#263238"/>
<path d="M300.284 347.238C299.986 347.237 299.699 347.118 299.487 346.908C299.273 346.698 299.15 346.412 299.146 346.112C299.143 345.907 299.198 345.705 299.305 345.531L301.354 342.254L297.371 342.379C297.219 342.386 297.067 342.362 296.924 342.309C296.782 342.257 296.651 342.176 296.54 342.072C296.354 341.863 296.252 341.594 296.252 341.315C296.252 341.036 296.354 340.766 296.54 340.558C296.65 340.452 296.78 340.369 296.923 340.314C297.066 340.259 297.218 340.234 297.371 340.239L301.308 340.387L299.294 337.121C299.184 336.943 299.125 336.739 299.123 336.53C299.127 336.38 299.16 336.233 299.22 336.096C299.281 335.959 299.368 335.836 299.476 335.733C299.688 335.523 299.974 335.404 300.273 335.403C300.467 335.404 300.656 335.46 300.819 335.565C300.983 335.67 301.113 335.819 301.194 335.995L303.129 339.511L305.052 336.017C305.144 335.831 305.284 335.673 305.459 335.561C305.633 335.448 305.835 335.386 306.042 335.38C306.186 335.38 306.329 335.41 306.46 335.469C306.592 335.527 306.709 335.614 306.805 335.722C306.91 335.828 306.994 335.954 307.05 336.093C307.107 336.231 307.136 336.38 307.135 336.53C307.131 336.726 307.076 336.918 306.976 337.087L304.916 340.387L308.921 340.239C309.069 340.225 309.217 340.242 309.358 340.289C309.498 340.337 309.626 340.414 309.734 340.515C309.842 340.617 309.927 340.74 309.983 340.877C310.039 341.014 310.065 341.161 310.059 341.309C310.062 341.59 309.961 341.861 309.775 342.072C309.668 342.178 309.539 342.26 309.398 342.313C309.257 342.366 309.106 342.388 308.956 342.379L304.938 342.254L306.93 345.497C307.042 345.678 307.101 345.887 307.101 346.1C307.102 346.25 307.071 346.399 307.01 346.536C306.949 346.674 306.86 346.797 306.748 346.897C306.649 347.003 306.529 347.088 306.396 347.147C306.263 347.206 306.119 347.237 305.974 347.238C305.781 347.235 305.592 347.175 305.432 347.066C305.273 346.956 305.148 346.803 305.075 346.624L303.163 343.21L301.274 346.624C301.187 346.812 301.047 346.97 300.871 347.079C300.695 347.189 300.491 347.244 300.284 347.238Z" fill="#263238"/>
<path d="M318.743 347.238C318.445 347.237 318.158 347.118 317.946 346.908C317.77 346.73 317.658 346.498 317.627 346.249C317.596 346 317.648 345.747 317.776 345.531L319.813 342.254L315.83 342.379C315.678 342.386 315.526 342.362 315.383 342.309C315.241 342.257 315.11 342.176 314.999 342.072C314.813 341.863 314.711 341.594 314.711 341.315C314.711 341.036 314.813 340.766 314.999 340.558C315.109 340.452 315.239 340.369 315.382 340.314C315.525 340.259 315.677 340.234 315.83 340.239L319.767 340.387L317.742 337.121C317.631 336.943 317.572 336.739 317.571 336.53C317.575 336.229 317.698 335.943 317.912 335.733C318.124 335.523 318.41 335.404 318.709 335.403C318.903 335.404 319.092 335.46 319.256 335.565C319.419 335.67 319.549 335.819 319.631 335.995L321.565 339.511L323.489 336.017C323.58 335.831 323.72 335.673 323.895 335.561C324.069 335.448 324.271 335.386 324.479 335.38C324.624 335.379 324.769 335.409 324.902 335.468C325.035 335.527 325.155 335.613 325.252 335.722C325.461 335.938 325.576 336.229 325.571 336.53C325.567 336.726 325.512 336.918 325.412 337.087L323.352 340.387L327.358 340.239C327.505 340.225 327.654 340.242 327.794 340.289C327.934 340.337 328.062 340.414 328.17 340.515C328.278 340.617 328.363 340.74 328.419 340.877C328.475 341.014 328.501 341.161 328.496 341.309C328.498 341.59 328.397 341.861 328.211 342.072C328.104 342.178 327.976 342.26 327.834 342.313C327.693 342.366 327.542 342.388 327.392 342.379L323.375 342.254L325.366 345.497C325.478 345.678 325.538 345.887 325.537 346.1C325.538 346.25 325.507 346.399 325.446 346.536C325.385 346.674 325.296 346.797 325.184 346.897C325.085 347.003 324.965 347.088 324.832 347.147C324.699 347.206 324.556 347.237 324.41 347.238C324.217 347.235 324.028 347.175 323.869 347.066C323.709 346.956 323.585 346.803 323.511 346.624L321.599 343.21L319.71 346.624C319.625 346.808 319.489 346.964 319.317 347.073C319.146 347.182 318.946 347.239 318.743 347.238Z" fill="#263238"/>
<path d="M337.202 347.238C336.907 347.234 336.626 347.116 336.417 346.908C336.305 346.808 336.215 346.685 336.154 346.548C336.094 346.41 336.063 346.262 336.064 346.112C336.067 345.906 336.126 345.706 336.234 345.531L338.271 342.254L334.288 342.379C334.142 342.39 333.995 342.37 333.856 342.321C333.718 342.272 333.591 342.195 333.484 342.095C333.377 341.994 333.292 341.872 333.234 341.737C333.177 341.602 333.148 341.456 333.15 341.309C333.15 341.17 333.177 341.032 333.229 340.903C333.282 340.774 333.36 340.657 333.458 340.558C333.563 340.448 333.69 340.363 333.832 340.307C333.974 340.252 334.126 340.229 334.277 340.239L338.215 340.387L336.189 337.121C336.079 336.943 336.02 336.739 336.018 336.53C336.023 336.229 336.145 335.943 336.36 335.733C336.572 335.523 336.858 335.404 337.156 335.403C337.35 335.404 337.54 335.46 337.703 335.565C337.866 335.67 337.996 335.819 338.078 335.995L340.013 339.511L341.947 336.017C342.038 335.833 342.176 335.676 342.349 335.564C342.521 335.451 342.72 335.388 342.926 335.38C343.072 335.379 343.216 335.409 343.349 335.468C343.483 335.527 343.602 335.613 343.7 335.722C343.909 335.938 344.023 336.229 344.018 336.53C344.018 336.725 343.967 336.917 343.87 337.087L341.811 340.387L345.805 340.239C345.957 340.229 346.109 340.252 346.25 340.307C346.392 340.363 346.52 340.448 346.624 340.558C346.818 340.759 346.925 341.03 346.92 341.309C346.92 341.591 346.814 341.863 346.624 342.072C346.517 342.178 346.389 342.26 346.248 342.313C346.106 342.366 345.956 342.388 345.805 342.379L341.788 342.254L343.779 345.497C343.892 345.678 343.951 345.887 343.95 346.1C343.946 346.4 343.823 346.687 343.609 346.897C343.401 347.108 343.12 347.231 342.823 347.238C342.63 347.235 342.442 347.175 342.282 347.066C342.122 346.956 341.998 346.803 341.924 346.624L340.013 343.21L338.124 346.624C338.042 346.801 337.912 346.953 337.749 347.061C337.587 347.17 337.397 347.231 337.202 347.238Z" fill="#263238"/>
<g style="mix-blend-mode:multiply">
<path d="M394.613 116.691H193.164V129.311H394.613V116.691Z" fill="#2CB67D"/>
</g>
<path d="M315.797 93.4411H271.984C271.193 93.4411 270.434 93.127 269.875 92.5679C269.316 92.0087 269.002 91.2503 269.002 90.4596V90.4596C269.002 89.6688 269.316 88.9105 269.875 88.3513C270.434 87.7922 271.193 87.478 271.984 87.478H315.797C316.587 87.478 317.346 87.7922 317.905 88.3513C318.464 88.9105 318.778 89.6688 318.778 90.4596V90.4596C318.778 91.2503 318.464 92.0087 317.905 92.5679C317.346 93.127 316.587 93.4411 315.797 93.4411V93.4411Z" fill="#2CB67D" stroke="#263238" stroke-width="1.33739" stroke-linecap="round" stroke-linejoin="round"/>
<path d="M305.837 460.594C305.84 458.23 305.141 455.918 303.828 453.951C302.516 451.985 300.65 450.451 298.466 449.546C296.283 448.64 293.879 448.402 291.56 448.863C289.241 449.324 287.111 450.462 285.439 452.134C283.767 453.805 282.629 455.936 282.169 458.254C281.708 460.573 281.945 462.977 282.851 465.161C283.757 467.345 285.29 469.211 287.257 470.523C289.224 471.835 291.536 472.534 293.9 472.532C297.065 472.529 300.1 471.27 302.338 469.032C304.576 466.794 305.834 463.759 305.837 460.594Z" fill="#2CB67D"/>
<path d="M299.954 454.54H287.846V466.648H299.954V454.54Z" fill="#2CB67D" stroke="#263238" stroke-width="1.33739" stroke-linecap="round" stroke-linejoin="round"/>
<path d="M139.61 243.339L102.136 231.105L98.8016 222.297L91.1884 222.058L77.373 219.441L79.0345 222.297L96.4232 234.917L100.713 237.057L139.906 257.53L139.61 243.339Z" fill="white" stroke="#263238" stroke-width="1.00396" stroke-miterlimit="10"/>
<path d="M98.8023 222.297L95.229 220.157L88.0938 222.775L89.2773 224.197L98.8023 222.297Z" fill="white" stroke="#263238" stroke-width="1.00396" stroke-linejoin="round"/>
<path d="M139.61 243.339L102.136 231.105L98.8016 222.297L91.1884 222.058L77.373 219.441L79.0345 222.297L96.4232 234.917L100.713 237.057L139.906 257.53L139.61 243.339Z" fill="white"/>
<mask id="mask0_2865_1214" style="mask-type:alpha" maskUnits="userSpaceOnUse" x="77" y="219" width="63" height="39">
<path d="M139.61 243.339L102.136 231.105L98.8016 222.297L91.1884 222.058L77.373 219.441L79.0345 222.297L96.4232 234.917L100.713 237.057L139.906 257.53L139.61 243.339Z" fill="white"/>
</mask>
<g mask="url(#mask0_2865_1214)">
<path opacity="0.5" d="M139.61 243.339L102.136 231.105L98.8016 222.297L91.1884 222.058L77.373 219.441L79.0345 222.297L96.4232 234.917L100.713 237.057L139.906 257.53L139.61 243.339Z" fill="#2CB67D" stroke="#263238" stroke-width="1.00396" stroke-miterlimit="10"/>
</g>
<path d="M139.61 243.339L102.136 231.105L98.8016 222.297L91.1884 222.058L77.373 219.441L79.0345 222.297L96.4232 234.917L100.713 237.057L139.906 257.53L139.61 243.339Z" stroke="#263238" stroke-width="1.00396" stroke-miterlimit="10"/>
<path d="M98.8023 222.297L95.229 220.157L88.0938 222.775L89.2773 224.197L98.8023 222.297Z" fill="white"/>
<mask id="mask1_2865_1214" style="mask-type:alpha" maskUnits="userSpaceOnUse" x="88" y="220" width="11" height="5">
<path d="M98.8023 222.297L95.229 220.157L88.0938 222.775L89.2773 224.197L98.8023 222.297Z" fill="white"/>
</mask>
<g mask="url(#mask1_2865_1214)">
<path opacity="0.5" d="M98.8023 222.297L95.229 220.157L88.0938 222.775L89.2773 224.197L98.8023 222.297Z" fill="#2CB67D" stroke="#263238" stroke-width="1.00396" stroke-linejoin="round"/>
</g>
<path d="M98.8023 222.297L95.229 220.157L88.0938 222.775L89.2773 224.197L98.8023 222.297Z" stroke="#263238" stroke-width="1.00396" stroke-linejoin="round"/>
<path d="M147.565 163.94C147.565 163.94 146.985 169.061 148.43 172.35C149.875 175.639 157.898 186.78 157.898 186.78L142.922 198.786C142.922 198.786 136.708 186.268 135.525 184.242C134.341 182.217 132.919 173.499 136.777 167.252C140.635 161.004 146.188 159.32 147.565 163.94Z" fill="white"/>
<mask id="mask2_2865_1214" style="mask-type:alpha" maskUnits="userSpaceOnUse" x="134" y="161" width="24" height="38">
<path d="M147.565 163.94C147.565 163.94 146.985 169.061 148.43 172.35C149.875 175.639 157.898 186.78 157.898 186.78L142.922 198.786C142.922 198.786 136.708 186.268 135.525 184.242C134.341 182.217 132.919 173.499 136.777 167.252C140.635 161.004 146.188 159.32 147.565 163.94Z" fill="white"/>
</mask>
<g mask="url(#mask2_2865_1214)">
<g style="mix-blend-mode:multiply" opacity="0.5">
<path d="M139.873 180.396L146.371 193.87L142.911 198.797L136.379 187.133L139.873 180.396Z" fill="#2CB67D"/>
</g>
</g>
<path d="M147.565 163.94C147.565 163.94 146.985 169.061 148.43 172.35C149.875 175.639 157.898 186.78 157.898 186.78L142.922 198.786C142.922 198.786 136.708 186.268 135.525 184.242C134.341 182.217 132.919 173.499 136.777 167.252C140.635 161.004 146.188 159.32 147.565 163.94Z" stroke="#263238" stroke-width="1.00396" stroke-miterlimit="10"/>
<path d="M152.208 154.563C151.287 148.873 144.766 137.3 134.421 137.744C127.707 138.039 124.566 139.394 121.653 141.044C119.278 142.443 117.065 144.099 115.053 145.983C110 152.048 108.225 153.71 109.203 158.353C109.123 160.205 109.413 162.054 110.057 163.792C111.604 167.923 112.663 170.62 114.006 172.589C113.596 174.512 112.526 179.588 112.469 180.749C112.412 181.909 115.883 181.101 117.636 180.658C120.891 187.941 126.854 192.994 128.709 193.574C131.941 194.587 137.05 189.272 139.759 185.153C142.467 181.033 140.419 176.401 140.43 174.558C140.441 172.714 146.518 168.663 148.772 167.377C151.025 166.091 153.119 160.242 152.208 154.563Z" fill="white"/>
<mask id="mask3_2865_1214" style="mask-type:alpha" maskUnits="userSpaceOnUse" x="108" y="137" width="45" height="57">
<path d="M152.208 154.563C151.287 148.873 144.766 137.3 134.421 137.744C127.707 138.039 124.566 139.394 121.653 141.044C119.278 142.443 117.065 144.099 115.053 145.983C110 152.048 108.225 153.71 109.203 158.353C109.123 160.205 109.413 162.054 110.057 163.792C111.604 167.923 112.663 170.62 114.006 172.589C113.596 174.512 112.526 179.588 112.469 180.749C112.412 181.909 115.883 181.101 117.636 180.658C120.891 187.941 126.854 192.994 128.709 193.574C131.941 194.587 137.05 189.272 139.759 185.153C142.467 181.033 140.419 176.401 140.43 174.558C140.441 172.714 146.518 168.663 148.772 167.377C151.025 166.091 153.119 160.242 152.208 154.563Z" fill="white"/>
</mask>
<g mask="url(#mask3_2865_1214)">
<g style="mix-blend-mode:multiply" opacity="0.5">
<path d="M109.248 158.353C109.168 160.205 109.458 162.054 110.101 163.792C111.649 167.923 112.708 170.621 114.05 172.589C113.641 174.512 112.571 179.588 112.514 180.749C112.457 181.909 115.928 181.101 117.681 180.658C120.935 187.941 126.898 192.994 128.753 193.574C131.985 194.587 137.095 189.272 139.803 185.153C140.48 184.124 140.919 182.958 141.089 181.739C140.941 181.204 140.839 180.874 140.839 180.874C140.839 180.874 139.314 186.735 136.287 185.972C133.26 185.21 128.628 179.144 126.045 177.05C123.462 174.956 124.52 172.202 124.008 169.084C123.496 165.966 115.848 163.224 115.336 161.437C114.824 159.65 116.611 152.253 116.611 152.253C116.611 152.253 119.513 148.384 118.887 149.977C118.444 151.359 118.284 152.815 118.415 154.259C118.546 155.704 118.966 157.108 119.649 158.387C120.129 159.396 120.89 160.246 121.841 160.833C122.792 161.421 123.892 161.721 125.009 161.699L127.786 147.94L121.925 143.092L115.097 145.937C109.999 152.048 108.258 153.71 109.248 158.353Z" fill="#2CB67D"/>
</g>
</g>
<path d="M152.208 154.563C151.287 148.873 144.766 137.3 134.421 137.744C127.707 138.039 124.566 139.394 121.653 141.044C119.278 142.443 117.065 144.099 115.053 145.983C110 152.048 108.225 153.71 109.203 158.353C109.123 160.205 109.413 162.054 110.057 163.792C111.604 167.923 112.663 170.62 114.006 172.589C113.596 174.512 112.526 179.588 112.469 180.749C112.412 181.909 115.883 181.101 117.636 180.658C120.891 187.941 126.854 192.994 128.709 193.574C131.941 194.587 137.05 189.272 139.759 185.153C142.467 181.033 140.419 176.401 140.43 174.558C140.441 172.714 146.518 168.663 148.772 167.377C151.025 166.091 153.119 160.242 152.208 154.563Z" stroke="#263238" stroke-miterlimit="10"/>
<path d="M115.416 169.152L116.554 172.407C116.554 172.407 119.001 173.215 121.982 169.96" stroke="#263238" stroke-miterlimit="10" stroke-linecap="round"/>
<path d="M123.826 184.356C123.826 184.356 126.535 184.083 127.627 180.282" stroke="#263238" stroke-miterlimit="10" stroke-linecap="round"/>
<path d="M113.516 166.433C113.516 166.433 114.324 163.986 119.206 163.986" stroke="#263238" stroke-miterlimit="10" stroke-linecap="round"/>
<path d="M138.54 133.214C134.993 132.704 131.415 132.431 127.831 132.395C127.831 132.395 117.111 126.216 106.812 132.805C96.5136 139.394 101.464 150.933 101.464 153.812C101.464 156.691 98.1637 156.703 100.223 160.413C102.283 164.122 109.248 162.074 109.248 162.074C109.321 160.675 109.691 159.307 110.333 158.061C110.974 156.816 111.873 155.72 112.969 154.848C116.679 151.969 119.638 151.343 120.867 152.173C120.867 152.173 120.047 158.353 121.276 160.822C121.276 160.822 125.396 162.882 126.636 162.882C127.877 162.882 125.828 164.623 129.937 166.171C130.685 166.44 131.486 166.531 132.276 166.438C133.065 166.346 133.823 166.071 134.489 165.636C135.092 163.132 136.412 159.366 138.87 160.242C142.477 161.528 145.766 170.404 140.884 173.431C146.756 174.501 153.869 164.111 154.29 154.643C154.711 145.175 144.64 134.284 138.54 133.214Z" fill="#263238"/>
<path d="M121.049 148.111C121.049 148.111 124.076 146.483 127.786 149.966C131.496 153.448 138.711 158.102 148.27 155.542" stroke="white" stroke-width="0.5" stroke-linecap="round" stroke-linejoin="round"/>
<path d="M120.629 145.323C120.629 145.323 122.711 142.068 126.194 142.068C129.676 142.068 137.813 146.95 144.311 146.95" stroke="white" stroke-width="0.5" stroke-linecap="round" stroke-linejoin="round"/>
<path d="M118.262 151.593C118.262 151.593 114.313 146.722 110.603 150.671C106.893 154.62 109.249 158.353 109.249 158.353" stroke="white" stroke-width="0.5" stroke-linecap="round" stroke-linejoin="round"/>
<path d="M102.477 154.848C104.739 152.807 106.146 149.985 106.414 146.95C106.881 141.84 113.857 137.425 118.261 141.613" stroke="white" stroke-width="0.5" stroke-linecap="round" stroke-linejoin="round"/>
<path d="M109.67 136.264C109.67 136.264 116.646 129.527 122.45 138.119" stroke="white" stroke-width="0.5" stroke-linecap="round" stroke-linejoin="round"/>
<path d="M166.445 467.502C166.445 467.502 170.735 474.171 170.257 478.461L169.791 482.751C169.791 482.751 154.052 487.064 150.718 487.064C147.384 487.064 129.733 485.391 129.733 485.391L128.971 482.364C128.917 482.141 128.943 481.906 129.042 481.698C129.141 481.491 129.309 481.324 129.517 481.226L145.256 473.886L150.217 468.458L166.445 467.502Z" fill="white" stroke="#263238" stroke-width="1.00396" stroke-miterlimit="10"/>
<path d="M153.106 483.707C157.374 484.037 165.476 481.431 170.176 479.77L169.846 482.751C169.846 482.751 154.051 487.064 150.717 487.064C147.382 487.064 129.732 485.391 129.732 485.391L129.186 483.229C132.008 483.24 147.462 483.275 153.106 483.707Z" fill="#2CB67D" stroke="#263238" stroke-width="1.00396" stroke-miterlimit="10"/>
<path d="M145.278 473.886L122.37 483.855C122.37 483.855 120.413 488.76 122.37 489.738C124.327 490.717 167.002 489.738 167.002 489.738C167.002 489.738 169.95 481.989 165.295 476.788C160.641 471.587 145.278 473.886 145.278 473.886Z" fill="white" stroke="#263238" stroke-width="1.00396" stroke-miterlimit="10"/>
<path d="M167.002 489.738C167.002 489.738 124.327 490.717 122.37 489.738C121.425 489.26 121.391 487.883 121.607 486.575H167.753C167.602 487.65 167.351 488.71 167.002 489.738Z" fill="#2CB67D" stroke="#263238" stroke-width="1.00396" stroke-miterlimit="10"/>
<path d="M134.444 300.671C134.444 300.671 128.458 327.198 126.193 343.79C123.929 360.382 122.597 393.623 123.075 397.435C123.553 401.248 147.383 465.124 147.383 465.124L149.761 470.814L166.444 467.479C166.444 467.479 158.82 443.172 155.964 429.823C153.107 416.474 146.86 394.545 146.86 390.732C146.86 386.92 161.654 314.111 162.712 309.331C163.77 304.552 168.573 297.212 168.573 297.212L136.629 296.563L134.444 300.671Z" fill="#2CB67D" stroke="#263238" stroke-width="1.00396" stroke-miterlimit="10"/>
<path d="M134.444 300.671C134.444 300.671 130.939 324.899 132.385 341.742C133.83 358.584 136.937 394.442 136.937 399.78C136.937 405.117 145.551 436.992 146.041 447.007C146.803 461.471 145.733 468.629 145.733 468.629L145.221 473.875C145.221 473.875 155.27 475.309 157.466 475.935C160.003 476.588 162.621 476.872 165.239 476.777C165.239 476.777 168.892 460.697 168.892 446.995C168.892 433.294 165.853 405.094 164.34 393.668C162.826 382.243 167.594 338.168 170.303 329.94C173.011 321.713 178.929 304.29 174.946 295.391C170.963 286.492 134.444 300.671 134.444 300.671Z" fill="#2CB67D" stroke="#263238" stroke-width="1.00396" stroke-miterlimit="10"/>
<path d="M179.372 290.93L179.008 301.763C179.008 301.763 172.521 303.049 163.781 304.563C156.566 305.815 138.449 304.233 132.35 303.641C131.794 303.592 131.28 303.325 130.92 302.899C130.56 302.473 130.382 301.921 130.427 301.365L131.018 291.578L179.372 290.93Z" fill="#263238"/>
<path d="M154.018 182.934C154.018 182.934 143.776 194.006 139.919 200.891C136.061 207.776 134.536 218.325 133.091 226.633C131.645 234.94 135.56 254.446 134.456 263.402L130.962 291.613C130.962 291.613 130.211 293.524 132.726 295.618C135.241 297.712 147.52 298.475 158.616 299.032C162.667 299.237 174.764 296.631 176.744 296.506C179.134 296.358 179.214 293.32 179.316 290.93C179.794 279.698 181.82 249.757 183.151 236.715C185.894 210.12 170.883 184.447 154.018 182.934Z" fill="white" stroke="#263238" stroke-width="1.00396" stroke-miterlimit="10"/>
<g style="mix-blend-mode:multiply">
<path d="M181.898 251.839C182.353 245.933 182.808 240.573 183.206 236.715C183.32 235.577 183.389 234.439 183.445 233.301L156.236 237.853L132.861 229.887C132.864 234.724 133.137 239.557 133.681 244.363L156.611 250.781L181.898 251.839Z" fill="#2CB67D"/>
</g>
<g style="mix-blend-mode:multiply">
<path d="M153.004 184.049C151.456 185.767 148.384 189.261 145.459 192.971L162.734 210.53L168.424 208.254L153.004 184.049Z" fill="#2CB67D"/>
</g>
<path d="M154.018 182.934C154.018 182.934 143.776 194.006 139.918 200.891C138.774 202.984 137.847 205.188 137.152 207.469L157.75 183.673C156.533 183.305 155.283 183.057 154.018 182.934V182.934Z" fill="#263238"/>
<g style="mix-blend-mode:multiply">
<path d="M133.887 222.149L156.237 229.5L183.378 226.382C182.953 219.621 181.451 212.971 178.929 206.684L157.045 215.458L137.483 206.593C135.883 211.677 134.681 216.878 133.887 222.149V222.149Z" fill="#2CB67D"/>
</g>
<g style="mix-blend-mode:multiply">
<path d="M172.362 279.698C161.026 281.601 149.394 280.651 138.518 276.932L133.067 275.066L131.371 288.722L137.585 290.463C149.397 293.766 161.742 294.717 173.921 293.263L178.939 292.66C179.201 292.107 179.348 291.507 179.372 290.896C179.508 287.857 179.747 283.442 180.055 278.378L172.362 279.698Z" fill="#2CB67D"/>
</g>
<g style="mix-blend-mode:multiply">
<path d="M175.401 261.103C164.065 263.014 152.431 262.059 141.557 258.326L134.615 255.948C134.788 258.427 134.753 260.917 134.513 263.39L133.705 269.957L140.624 271.891C152.432 275.197 164.774 276.152 176.949 274.702L180.363 274.292C180.648 269.74 180.978 264.892 181.33 260.101L175.401 261.103Z" fill="#2CB67D"/>
</g>
<path d="M68.635 212.979L90.6387 230.67L91.5871 229.491L69.5834 211.799L68.635 212.979Z" fill="#263238"/>
<path d="M164.611 195.213C164.611 195.213 172.68 200.709 172.862 213.694C172.941 219.384 172.35 224.698 171.041 234.018C169.732 243.339 161.607 273.689 155.28 277.376C148.952 281.063 139.132 274.099 139.132 274.099L91.6314 242.565L80.149 233.29L74.459 222.547L76.2456 219.133L90.2544 229.876L82.7095 222.9L84.1889 221.022L86.9201 222.923L94.8861 225.905L96.6272 237.285L99.0853 238.969L144.526 255.572C144.526 255.572 143.957 231.117 144.378 226.439C144.799 221.762 145.379 210.007 150.386 201.483" fill="white"/>
<mask id="mask4_2865_1214" style="mask-type:alpha" maskUnits="userSpaceOnUse" x="74" y="195" width="99" height="84">
<path d="M164.611 195.213C164.611 195.213 172.68 200.709 172.862 213.694C172.941 219.384 172.35 224.698 171.041 234.018C169.732 243.339 161.607 273.689 155.28 277.376C148.952 281.063 139.132 274.099 139.132 274.099L91.6314 242.565L80.149 233.29L74.459 222.547L76.2456 219.133L90.2544 229.876L82.7095 222.9L84.1889 221.022L86.9201 222.923L94.8861 225.905L96.6272 237.285L99.0853 238.969L144.526 255.572C144.526 255.572 143.957 231.117 144.378 226.439C144.799 221.762 145.379 210.007 150.386 201.483" fill="white"/>
</mask>
<g mask="url(#mask4_2865_1214)">
<g style="mix-blend-mode:multiply" opacity="0.5">
<path d="M144.208 237.091C144.208 245.535 144.492 255.572 144.492 255.572L99.0974 239.037L96.6394 237.353L94.8982 225.973L86.9322 222.991L84.2124 221.057L82.733 222.934L90.2552 229.876L76.2464 219.133L74.5508 222.49L80.2408 233.233L91.7232 242.565L94.6137 244.488L157.374 264.71L144.208 237.091Z" fill="#2CB67D"/>
</g>
</g>
<path d="M164.611 195.213C164.611 195.213 172.68 200.709 172.862 213.694C172.941 219.384 172.35 224.698 171.041 234.018C169.732 243.339 161.607 273.689 155.28 277.376C148.952 281.063 139.132 274.099 139.132 274.099L91.6314 242.565L80.149 233.29L74.459 222.547L76.2456 219.133L90.2544 229.876L82.7095 222.9L84.1889 221.022L86.9201 222.923L94.8861 225.905L96.6272 237.285L99.0853 238.969L144.526 255.572C144.526 255.572 143.957 231.117 144.378 226.439C144.799 221.762 145.379 210.007 150.386 201.483" stroke="#263238" stroke-width="1.00396" stroke-miterlimit="10"/>
<path d="M144.526 255.572L161.87 268.09L166.365 260.124C166.365 260.124 169.471 257.677 169.927 255.834C170.382 253.99 169.801 250.997 170.268 249.154C170.735 247.31 173.056 245.58 173.272 241.119C173.488 236.659 173.272 232.937 173.272 232.937C173.272 232.937 177.028 217.495 176.618 210.78C176.208 204.066 169.733 192.197 164.544 191.935C159.355 191.673 152.606 192.459 147.371 200.379C142.137 208.3 143.206 231.424 142.387 232.869C141.568 234.314 142.706 241.449 142.706 241.449C142.251 241.789 141.873 242.221 141.599 242.717C141.324 243.214 141.158 243.763 141.112 244.329C141.021 246.184 143.024 250.747 143.024 250.747L144.526 255.572Z" fill="white" stroke="#263238" stroke-width="1.00396" stroke-miterlimit="10"/>
<g style="mix-blend-mode:multiply">
<path d="M142.842 226.929C142.877 228.915 142.729 230.899 142.398 232.858C141.669 234.155 142.5 240.016 142.682 241.211C152.437 244.24 162.752 245.019 172.851 243.487C173.068 242.695 173.197 241.882 173.238 241.063C173.465 236.613 173.238 232.88 173.238 232.88C173.238 232.88 173.568 231.503 174.023 229.41C163.564 230.074 153.064 229.239 142.842 226.929V226.929Z" fill="#2CB67D"/>
</g>
<g style="mix-blend-mode:multiply">
<path d="M146.667 201.642C145.039 204.908 144.129 209.813 143.605 214.786C153.936 218.729 165.075 220.085 176.05 218.735C176.488 216.103 176.682 213.437 176.63 210.769C176.433 208.661 175.935 206.591 175.151 204.624C165.568 204.848 155.996 203.846 146.667 201.642V201.642Z" fill="#2CB67D"/>
</g>
<path d="M143.023 250.872L144.491 255.572L161.835 268.09L166.33 260.124C166.33 260.124 169.436 257.677 169.892 255.834C169.973 255.513 170.022 255.185 170.04 254.855C160.9 254.697 151.82 253.358 143.023 250.872V250.872Z" fill="#263238"/>
<path d="M155.576 475.787C155.576 475.787 155.963 465.932 157.852 451.524C159.741 437.117 155.201 416.656 154.438 413.242C153.676 409.828 154.825 402.249 154.063 399.586C153.3 396.923 149.613 385.566 151.787 372.388C153.96 359.21 155.724 324.376 155.724 324.376C155.724 324.376 150.25 319.926 148.646 314.134C147.041 308.341 148.27 306.521 148.27 306.521" stroke="#263238" stroke-width="1.00396" stroke-miterlimit="10"/>
<path d="M158.115 307.055L156.01 318.708" stroke="#263238" stroke-width="1.00396" stroke-miterlimit="10"/>
</svg>
