<svg width="20" height="20" viewBox="0 0 20 20" fill="none" xmlns="http://www.w3.org/2000/svg">
<g clip-path="url(#clip0_1443_993)">
<path d="M1.86919 5.71167L9.57502 1.09167C9.70453 1.01396 9.85273 0.972916 10.0038 0.972916C10.1548 0.972916 10.303 1.01396 10.4325 1.09167L18.1309 5.71251C18.1926 5.74952 18.2437 5.80191 18.2792 5.86456C18.3147 5.92722 18.3334 5.998 18.3334 6.07001V16.6667C18.3334 16.8877 18.2456 17.0997 18.0893 17.2559C17.933 17.4122 17.721 17.5 17.5 17.5H2.50002C2.27901 17.5 2.06704 17.4122 1.91076 17.2559C1.75448 17.0997 1.66669 16.8877 1.66669 16.6667V6.06917C1.66667 5.99717 1.68532 5.92638 1.72081 5.86373C1.7563 5.80107 1.80742 5.74869 1.86919 5.71167ZM3.33335 6.77751V15.8333H16.6667V6.77667L10.0034 2.77667L3.33335 6.77667V6.77751ZM10.05 11.415L14.4634 7.69584L15.5367 8.97084L10.0617 13.585L4.47002 8.97668L5.53002 7.69001L10.05 11.415Z" fill="#010303" fill-opacity="0.4"/>
</g>
<defs>
<clipPath id="clip0_1443_993">
<rect width="20" height="20" fill="white"/>
</clipPath>
</defs>
</svg>
