<svg width="35" height="35" viewBox="0 0 35 35" fill="none" xmlns="http://www.w3.org/2000/svg">
<path d="M15.4376 18.3542L16.4983 17.2935L16.4983 17.2935L15.4376 18.3542ZM19.5624 18.3542L18.5017 17.2935L18.5017 17.2935L19.5624 18.3542ZM5.83333 8.79163H29.1667V5.79163H5.83333V8.79163ZM29.125 8.74996V26.25H32.125V8.74996H29.125ZM29.1667 26.2083H5.83333V29.2083H29.1667V26.2083ZM5.875 26.25V8.74996H2.875V26.25H5.875ZM5.83333 26.2083C5.83632 26.2083 5.84294 26.2092 5.85001 26.2122C5.85608 26.2148 5.86012 26.2178 5.8628 26.2205C5.86548 26.2232 5.86854 26.2272 5.87111 26.2333C5.8741 26.2404 5.875 26.247 5.875 26.25H2.875C2.875 27.8838 4.19949 29.2083 5.83333 29.2083V26.2083ZM29.125 26.25C29.125 26.247 29.1259 26.2404 29.1289 26.2333C29.1315 26.2272 29.1345 26.2232 29.1372 26.2205C29.1399 26.2178 29.1439 26.2148 29.15 26.2122C29.1571 26.2092 29.1637 26.2083 29.1667 26.2083V29.2083C30.8005 29.2083 32.125 27.8838 32.125 26.25H29.125ZM5.83333 5.79163C5.01683 5.79163 4.27519 6.12439 3.74148 6.6581L5.8628 8.77942C5.86012 8.7821 5.85608 8.78517 5.85001 8.78774C5.84688 8.78906 5.84351 8.79011 5.84014 8.7908C5.83668 8.79151 5.83424 8.79163 5.83333 8.79163V5.79163ZM3.74148 6.6581C3.20777 7.19181 2.875 7.93345 2.875 8.74996H5.875C5.875 8.75087 5.87488 8.75331 5.87418 8.75677C5.87349 8.76014 5.87243 8.76351 5.87111 8.76664C5.86854 8.77271 5.86548 8.77674 5.8628 8.77942L3.74148 6.6581ZM29.1667 8.79163C29.1658 8.79163 29.1633 8.79151 29.1599 8.7908C29.1565 8.79011 29.1531 8.78906 29.15 8.78774C29.1439 8.78517 29.1399 8.7821 29.1372 8.77942L31.2585 6.6581C30.7248 6.12439 29.9832 5.79163 29.1667 5.79163V8.79163ZM29.1372 8.77942C29.1345 8.77674 29.1315 8.77271 29.1289 8.76664C29.1276 8.76351 29.1265 8.76014 29.1258 8.75677C29.1251 8.75331 29.125 8.75087 29.125 8.74996H32.125C32.125 7.93345 31.7922 7.19181 31.2585 6.6581L29.1372 8.77942ZM14.3769 19.4148C16.1018 21.1396 18.8982 21.1396 20.6231 19.4148L18.5017 17.2935C17.9485 17.8467 17.0515 17.8467 16.4983 17.2935L14.3769 19.4148ZM3.74148 8.77943L14.3769 19.4148L16.4983 17.2935L5.86279 6.6581L3.74148 8.77943ZM20.6231 19.4148L31.2585 8.77943L29.1372 6.6581L18.5017 17.2935L20.6231 19.4148Z" fill="white"/>
</svg>
