<svg width="30" height="30" viewBox="0 0 30 30" fill="none" xmlns="http://www.w3.org/2000/svg">
<path d="M26.5625 10.9C26.5625 12.35 26.0125 13.8125 24.9 14.925L23.05 16.775L15.0875 24.7375C15.05 24.775 15.0375 24.7875 15 24.8125C14.9625 24.7875 14.95 24.775 14.9125 24.7375L5.1 14.925C3.9875 13.8125 3.4375 12.3625 3.4375 10.9C3.4375 9.43749 3.9875 7.975 5.1 6.8625C7.325 4.65 10.925 4.65 13.15 6.8625L14.9875 8.71249L16.8375 6.8625C19.0625 4.65 22.65 4.65 24.875 6.8625C26.0125 7.975 26.5625 9.42499 26.5625 10.9Z" stroke="black" stroke-width="2" stroke-linecap="round" stroke-linejoin="round"/>
</svg>
