<svg width="20" height="20" viewBox="0 0 20 20" fill="none" xmlns="http://www.w3.org/2000/svg">
<path d="M17.4995 13.7306L16.7497 13.7119C16.7496 13.7181 16.7495 13.7243 16.7495 13.7306L17.4995 13.7306ZM17.4995 15.9887L16.7495 15.9887L16.7495 15.9917L17.4995 15.9887ZM4.00676 2.50007L4.00676 1.75007L4.00605 1.75007L4.00676 2.50007ZM6.26937 2.50007L6.26937 3.25011L6.27674 3.25004L6.26937 2.50007ZM7.26776 2.86403L6.77929 3.43315L6.77929 3.43315L7.26776 2.86403ZM7.0085 8.45403L6.47869 7.92318C6.23936 8.16204 6.18945 8.53151 6.35684 8.82531L7.0085 8.45403ZM11.5337 12.9703L11.1636 13.6226C11.4568 13.789 11.8249 13.7393 12.0635 13.5012L11.5337 12.9703ZM17.1424 12.72L17.7142 12.2346L17.7141 12.2346L17.1424 12.72ZM8.36901 6.75357L9.10245 6.9103L9.10245 6.9103L8.36901 6.75357ZM13.2376 11.6125L13.3937 12.3461L13.3937 12.3461L13.2376 11.6125ZM15.8553 17.4941L15.9227 16.7472C15.9001 16.7451 15.8774 16.7441 15.8547 16.7441L15.8553 17.4941ZM2.50589 4.14099L3.25589 4.14158C3.25591 4.1188 3.25489 4.09604 3.25283 4.07335L2.50589 4.14099ZM16.7495 13.7306V15.9887H18.2495V13.7306H16.7495ZM4.00676 3.25007H6.26937V1.75007H4.00676V3.25007ZM6.27674 3.25004C6.4612 3.24822 6.6398 3.31343 6.77929 3.43315L7.75623 2.29492C7.34067 1.93824 6.80959 1.74473 6.26201 1.75011L6.27674 3.25004ZM6.35684 8.82531C7.49739 10.8272 9.15809 12.4845 11.1636 13.6226L11.9039 12.318C10.133 11.3131 8.6669 9.84979 7.66015 8.08276L6.35684 8.82531ZM16.5707 13.2054C16.6907 13.3468 16.7543 13.5271 16.7497 13.7119L18.2493 13.7492C18.263 13.1957 18.0725 12.6567 17.7142 12.2346L16.5707 13.2054ZM6.77929 3.43315C6.86243 3.50451 6.98759 3.66836 7.12359 3.95265C7.25378 4.22478 7.37015 4.55698 7.46162 4.9088C7.65388 5.64835 7.69611 6.31355 7.63557 6.59683L9.10245 6.9103C9.23718 6.27982 9.12329 5.33887 8.91336 4.53139C8.80373 4.1097 8.65749 3.68317 8.47672 3.3053C8.30176 2.93959 8.0676 2.56216 7.75623 2.29492L6.77929 3.43315ZM13.3937 12.3461C13.6791 12.2853 14.3492 12.3279 15.0923 12.521C15.446 12.6129 15.7796 12.7298 16.0524 12.8606C16.3376 12.9974 16.5006 13.1229 16.5707 13.2054L17.7141 12.2346C17.447 11.9199 17.0678 11.684 16.7009 11.5081C16.3216 11.3262 15.8931 11.1793 15.4695 11.0692C14.6581 10.8584 13.7131 10.7445 13.0814 10.8789L13.3937 12.3461ZM12.0635 13.5012C12.2008 13.3642 12.3388 13.2111 12.4585 13.0806C12.5845 12.9432 12.6991 12.8207 12.8151 12.7115C13.0533 12.4872 13.2352 12.3798 13.3937 12.3461L13.0814 10.8789C12.5251 10.9973 12.0996 11.3249 11.7868 11.6195C11.6273 11.7697 11.4805 11.9276 11.3529 12.0668C11.219 12.2128 11.1111 12.3325 11.0039 12.4395L12.0635 13.5012ZM7.63557 6.59683C7.60197 6.75408 7.4948 6.93527 7.26995 7.17308C7.16048 7.28887 7.03777 7.40328 6.90009 7.52904C6.76932 7.64849 6.61596 7.78618 6.47869 7.92318L7.5383 8.98489C7.64549 8.87791 7.76538 8.77023 7.91171 8.63657C8.05115 8.50921 8.20943 8.36277 8.35991 8.20361C8.65498 7.89152 8.98361 7.46645 9.10245 6.9103L7.63557 6.59683ZM15.8547 16.7441C8.74955 16.7497 3.25032 11.2005 3.25589 4.14158L1.75589 4.1404C1.74968 12.0244 7.91712 18.2503 15.8559 18.2441L15.8547 16.7441ZM16.7495 15.9917C16.7512 16.4147 16.3522 16.7859 15.9227 16.7472L15.788 18.2411C17.1015 18.3596 18.2548 17.2891 18.2495 15.9856L16.7495 15.9917ZM3.25283 4.07335C3.21452 3.65023 3.58105 3.25047 4.00746 3.25007L4.00605 1.75007C2.70824 1.75129 1.64027 2.89801 1.75894 4.20862L3.25283 4.07335Z" fill="#949595"/>
</svg>
