<svg width="122" height="122" viewBox="0 0 122 122" fill="none" xmlns="http://www.w3.org/2000/svg">
<path d="M1 1H106C114.284 1 121 7.71573 121 16V121H1V1Z" stroke="#EDEFF2" stroke-width="2"/>
<path d="M50.4683 95L48.6203 91.736H47.8283V95H46.1483V86.624H49.2923C49.9403 86.624 50.4923 86.74 50.9483 86.972C51.4043 87.196 51.7443 87.504 51.9683 87.896C52.2003 88.28 52.3163 88.712 52.3163 89.192C52.3163 89.744 52.1563 90.244 51.8363 90.692C51.5163 91.132 51.0403 91.436 50.4083 91.604L52.4123 95H50.4683ZM47.8283 90.476H49.2323C49.6883 90.476 50.0283 90.368 50.2523 90.152C50.4763 89.928 50.5883 89.62 50.5883 89.228C50.5883 88.844 50.4763 88.548 50.2523 88.34C50.0283 88.124 49.6883 88.016 49.2323 88.016H47.8283V90.476ZM60.0158 91.532C60.0158 91.772 59.9998 91.988 59.9678 92.18H55.1078C55.1478 92.66 55.3158 93.036 55.6118 93.308C55.9078 93.58 56.2718 93.716 56.7038 93.716C57.3278 93.716 57.7718 93.448 58.0358 92.912H59.8478C59.6558 93.552 59.2878 94.08 58.7438 94.496C58.1998 94.904 57.5318 95.108 56.7398 95.108C56.0998 95.108 55.5238 94.968 55.0118 94.688C54.5078 94.4 54.1118 93.996 53.8238 93.476C53.5438 92.956 53.4038 92.356 53.4038 91.676C53.4038 90.988 53.5438 90.384 53.8238 89.864C54.1038 89.344 54.4958 88.944 54.9998 88.664C55.5038 88.384 56.0838 88.244 56.7398 88.244C57.3718 88.244 57.9358 88.38 58.4318 88.652C58.9358 88.924 59.3238 89.312 59.5958 89.816C59.8758 90.312 60.0158 90.884 60.0158 91.532ZM58.2758 91.052C58.2678 90.62 58.1118 90.276 57.8078 90.02C57.5038 89.756 57.1318 89.624 56.6918 89.624C56.2758 89.624 55.9238 89.752 55.6358 90.008C55.3558 90.256 55.1838 90.604 55.1198 91.052H58.2758ZM60.8101 91.652C60.8101 90.98 60.9421 90.384 61.2061 89.864C61.4781 89.344 61.8421 88.944 62.2981 88.664C62.7621 88.384 63.2781 88.244 63.8461 88.244C64.3421 88.244 64.7741 88.344 65.1421 88.544C65.5181 88.744 65.8181 88.996 66.0421 89.3V88.352H67.7341V95H66.0421V94.028C65.8261 94.34 65.5261 94.6 65.1421 94.808C64.7661 95.008 64.3301 95.108 63.8341 95.108C63.2741 95.108 62.7621 94.964 62.2981 94.676C61.8421 94.388 61.4781 93.984 61.2061 93.464C60.9421 92.936 60.8101 92.332 60.8101 91.652ZM66.0421 91.676C66.0421 91.268 65.9621 90.92 65.8021 90.632C65.6421 90.336 65.4261 90.112 65.1541 89.96C64.8821 89.8 64.5901 89.72 64.2781 89.72C63.9661 89.72 63.6781 89.796 63.4141 89.948C63.1501 90.1 62.9341 90.324 62.7661 90.62C62.6061 90.908 62.5261 91.252 62.5261 91.652C62.5261 92.052 62.6061 92.404 62.7661 92.708C62.9341 93.004 63.1501 93.232 63.4141 93.392C63.6861 93.552 63.9741 93.632 64.2781 93.632C64.5901 93.632 64.8821 93.556 65.1541 93.404C65.4261 93.244 65.6421 93.02 65.8021 92.732C65.9621 92.436 66.0421 92.084 66.0421 91.676ZM68.9429 91.652C68.9429 90.98 69.0749 90.384 69.3389 89.864C69.6109 89.344 69.9789 88.944 70.4429 88.664C70.9069 88.384 71.4229 88.244 71.9909 88.244C72.4229 88.244 72.8349 88.34 73.2269 88.532C73.6189 88.716 73.9309 88.964 74.1629 89.276V86.12H75.8669V95H74.1629V94.016C73.9549 94.344 73.6629 94.608 73.2869 94.808C72.9109 95.008 72.4749 95.108 71.9789 95.108C71.4189 95.108 70.9069 94.964 70.4429 94.676C69.9789 94.388 69.6109 93.984 69.3389 93.464C69.0749 92.936 68.9429 92.332 68.9429 91.652ZM74.1749 91.676C74.1749 91.268 74.0949 90.92 73.9349 90.632C73.7749 90.336 73.5589 90.112 73.2869 89.96C73.0149 89.8 72.7229 89.72 72.4109 89.72C72.0989 89.72 71.8109 89.796 71.5469 89.948C71.2829 90.1 71.0669 90.324 70.8989 90.62C70.7389 90.908 70.6589 91.252 70.6589 91.652C70.6589 92.052 70.7389 92.404 70.8989 92.708C71.0669 93.004 71.2829 93.232 71.5469 93.392C71.8189 93.552 72.1069 93.632 72.4109 93.632C72.7229 93.632 73.0149 93.556 73.2869 93.404C73.5589 93.244 73.7749 93.02 73.9349 92.732C74.0949 92.436 74.1749 92.084 74.1749 91.676Z" fill="#010303" fill-opacity="0.3"/>
<path d="M58.1 39.4001C57.4 39.2001 56.6 39.1001 55.9 39.1001C55.4 39.1001 55 39.2001 54.6 39.6001C54.3 39.9001 54.1 40.4001 54.1 40.9001V41.2001H53.8C52.3 41.2001 51 42.4001 51 44.0001V54.3001C51 55.8001 52.3 57.1001 53.8 57.1001H61.2V41.2001C60.3 40.4001 59.2 39.8001 58.1 39.4001ZM53.8 55.6001C53.1 55.6001 52.5 55.0001 52.5 54.3001V44.0001C52.5 43.3001 53.1 42.7001 53.8 42.7001H54.1V52.3001C54.1 53.3001 54.9 54.0001 55.8 54.1001C56.5 54.1001 57.1 54.3001 57.7 54.5001C58.4 54.8001 59 55.2001 59.4 55.6001H53.8ZM68.2 41.2001H62.2V57.1001H68.2C69.7 57.1001 71 55.8001 71 54.3001V44.0001C71 42.4001 69.7 41.2001 68.2 41.2001ZM67.2 54.0001H64.1C63.7 54.0001 63.3 53.7001 63.3 53.2001C63.3 52.8001 63.6 52.4001 64.1 52.4001H67.2C67.6 52.4001 68 52.7001 68 53.2001C67.9 53.7001 67.6 54.0001 67.2 54.0001ZM67.2 49.9001H64.1C63.7 49.9001 63.3 49.6001 63.3 49.1001C63.3 48.7001 63.6 48.3001 64.1 48.3001H67.2C67.6 48.3001 68 48.6001 68 49.1001C67.9 49.5001 67.6 49.9001 67.2 49.9001ZM67.2 45.7001H64.1C63.7 45.7001 63.3 45.4001 63.3 44.9001C63.3 44.5001 63.6 44.1001 64.1 44.1001H67.2C67.6 44.1001 68 44.4001 68 44.9001C67.9 45.4001 67.6 45.7001 67.2 45.7001Z" fill="black"/>
</svg>
