<svg width="30" height="30" viewBox="0 0 30 30" fill="none" xmlns="http://www.w3.org/2000/svg">
<path d="M11.375 3C10.5 2.75 9.5 2.625 8.625 2.625C8 2.625 7.5 2.75 7 3.25C6.625 3.625 6.375 4.25 6.375 4.875V5.25H6C4.125 5.25 2.5 6.75 2.5 8.75V21.625C2.5 23.5 4.125 25.125 6 25.125H15.25V5.25C14.125 4.25 12.75 3.5 11.375 3ZM6 23.25C5.125 23.25 4.375 22.5 4.375 21.625V8.75C4.375 7.875 5.125 7.125 6 7.125H6.375V19.125C6.375 20.375 7.375 21.25 8.5 21.375C9.375 21.375 10.125 21.625 10.875 21.875C11.75 22.25 12.5 22.75 13 23.25H6ZM24 5.25H16.5V25.125H24C25.875 25.125 27.5 23.5 27.5 21.625V8.75C27.5 6.75 25.875 5.25 24 5.25ZM22.75 21.25H18.875C18.375 21.25 17.875 20.875 17.875 20.25C17.875 19.75 18.25 19.25 18.875 19.25H22.75C23.25 19.25 23.75 19.625 23.75 20.25C23.625 20.875 23.25 21.25 22.75 21.25ZM22.75 16.125H18.875C18.375 16.125 17.875 15.75 17.875 15.125C17.875 14.625 18.25 14.125 18.875 14.125H22.75C23.25 14.125 23.75 14.5 23.75 15.125C23.625 15.625 23.25 16.125 22.75 16.125ZM22.75 10.875H18.875C18.375 10.875 17.875 10.5 17.875 9.875C17.875 9.375 18.25 8.875 18.875 8.875H22.75C23.25 8.875 23.75 9.25 23.75 9.875C23.625 10.5 23.25 10.875 22.75 10.875Z" fill="white"/>
</svg>
