<svg width="120" height="117" viewBox="0 0 120 117" fill="none" xmlns="http://www.w3.org/2000/svg">
<path d="M56.7966 115.534C97.6227 120.376 118.663 108.606 119.919 80.2205C121.803 37.643 90.0726 42.2426 80.8321 31.0211C71.5911 19.7997 81.9431 35.7467 64.1465 12.4932C52.2816 -3.0093 36.4718 -3.08891 16.7172 12.255C0.782922 27.4554 -0.940441 47.3898 11.5466 72.0576C24.0337 96.7249 39.1168 111.217 56.7966 115.534Z" fill="white"/>
<path d="M6.70171 88.5403L5.43169 90.0289L3.353 87.5912L1.27002 90.0326L0 88.5441L2.08191 86.1026L0.00321119 83.6662L1.27323 82.1764L3.35193 84.6141L5.43491 82.1739L6.70492 83.6625L4.62301 86.1039L6.70171 88.5403Z" fill="white"/>
<path d="M111.472 34.8016C109.498 34.8016 107.899 32.9246 107.899 30.611C107.899 28.2973 109.498 26.4203 111.472 26.4203C113.447 26.4203 115.046 28.2973 115.046 30.611C115.046 32.9246 113.447 34.8016 111.472 34.8016ZM111.472 32.4132C112.317 32.4132 113.004 31.6074 113.004 30.611C113.004 29.6146 112.317 28.8088 111.472 28.8088C110.627 28.8088 109.941 29.6146 109.941 30.611C109.941 31.6074 110.627 32.4132 111.472 32.4132Z" fill="#2CB67D"/>
<path d="M38.2429 10.1443C46.4764 10.1443 47.5056 15.8482 47.5056 21.5418V27.7536C47.5056 28.7379 48.1442 29.5377 48.9299 29.5377L97.443 29.0431C98.2293 29.0431 98.8674 28.2439 98.8674 27.2596V20.5629C98.8674 14.4543 94.9143 9.50131 90.0385 9.50131C89.7082 9.50131 37.8981 10.1443 38.2429 10.1443Z" fill="#2CB67D"/>
<path d="M38.2417 11.1883C38.2417 12.1196 38.8875 12.8753 39.6826 12.8753C90.0491 12.8753 90.0584 12.8747 90.0677 12.8753C93.3682 12.8819 96.0426 16.0436 96.0477 19.9465V27.949H97.4721C98.2579 27.949 98.896 27.1951 98.896 26.2656V19.9465C98.9171 14.1751 94.9774 9.4766 90.0965 9.45187H90.0394H89.5078C89.3771 9.46092 89.25 9.48565 89.1208 9.50193H39.6805C38.886 9.50193 38.2417 10.2571 38.2417 11.1883Z" fill="#2CB67D"/>
<path d="M90.039 12.6675V9.50104H38.741C32.0195 9.5131 26.573 15.9504 26.5627 23.8938V106.54C26.5627 107.469 27.2008 108.223 27.9866 108.223H71.9085C78.6213 108.198 84.0543 101.764 84.059 93.8304V19.9342V19.8552C84.1007 15.9848 86.7647 12.6784 90.039 12.673C90.0524 12.673 90.0648 12.6681 90.0776 12.6675H90.039Z" fill="white"/>
<path d="M38.713 9.5009C31.9909 9.51357 26.544 15.9509 26.5337 23.8943V72.2794L57.2043 9.45627L38.713 9.5009Z" fill="white"/>
<path d="M26.5621 43.4096V24.9608C26.5729 17.0168 32.0193 10.5801 38.7414 10.5674H90.0389M22.9167 105.935C25.9801 105.935 26.5343 102.12 26.5343 99.7092C26.5343 79.9944 26.5621 66.0582 26.5621 61.0587M26.8302 49.046V51.2625" stroke="#2CB67D" stroke-width="7.2" stroke-miterlimit="10" stroke-linecap="round"/>
<path d="M90.039 9.45099H89.5075C84.8514 9.78332 81.2169 14.3401 81.2107 19.8558V20.0132V93.7888C81.202 98.816 78.329 103.204 74.2154 104.475C73.7656 104.612 73.3051 104.679 72.845 104.685V104.686H72.8095H72.773H19.5242C21.6618 106.898 24.4581 108.242 27.5214 108.245H27.5405H42.8933H71.909C72.2218 108.245 72.7056 108.245 73.0195 108.189C73.5726 108.13 74.1212 108.021 74.661 107.864C80.1754 106.346 84.0806 100.539 84.0878 93.8449V19.9119V19.8335C84.1284 16.2056 86.4801 13.2025 89.5352 12.8744C89.704 12.8636 90.0272 12.8648 90.1949 12.8744L90.039 9.45099Z" fill="#2CB67D"/>
<path d="M90.0385 9.45099H89.5069C84.8509 9.78392 81.2178 14.3401 81.2112 19.8558V20.0132V93.7888C81.2024 98.816 78.3295 103.205 74.2158 104.475C73.2818 104.76 72.301 104.76 71.3676 104.475C67.2411 103.187 64.3691 98.7677 64.3805 93.7219V91.477C64.3861 90.5475 63.7532 89.7876 62.9669 89.7821H53.9415H46.6852H35.4985H23.7859H16.7855C15.9997 89.7821 15.3616 90.5367 15.3616 91.4661V93.8455C15.3554 101.792 20.8008 108.239 27.5219 108.245H27.5399H42.8927H71.9079C72.2213 108.245 72.7055 108.245 73.0189 108.189C73.5726 108.13 74.1217 108.022 74.6615 107.864C80.1758 106.347 84.0805 100.54 84.0872 93.8455V19.9125V19.8335C84.1279 16.2062 86.4801 13.2019 89.5357 12.875C89.7127 12.8636 89.8897 12.8636 90.0673 12.875C93.3679 12.881 96.0422 16.0433 96.0478 19.9456V27.9487H97.4717C98.258 27.9487 98.8961 27.1948 98.8961 26.2654V19.9456C98.9167 14.1742 94.977 9.47632 90.0961 9.45099H90.0385Z" fill="#2CB67D"/>
<path d="M89.8681 77.1702C90.8381 76.0369 92.4076 76.0387 93.3765 77.1726L105.618 91.4966C106.583 92.6269 106.585 94.461 105.62 95.5937L105.616 95.5985C104.646 96.7312 103.077 96.7306 102.107 95.5961L89.866 81.2727C88.9001 80.1418 88.8991 78.3077 89.8634 77.1756L89.8681 77.1702Z" fill="white"/>
<path d="M92.499 80.156C100.047 72.0506 100.553 58.3025 93.6298 49.4486C86.7065 40.5942 74.9761 39.9874 67.4284 48.0928C59.8806 56.1982 59.3735 69.9467 66.2968 78.801C73.2197 87.6549 84.9512 88.2614 92.499 80.156Z" fill="white"/>
<path d="M92.499 80.156C100.047 72.0506 100.553 58.3025 93.6298 49.4486C86.7065 40.5942 74.9761 39.9874 67.4284 48.0928C59.8806 56.1982 59.3735 69.9467 66.2968 78.801C73.2197 87.6549 84.9512 88.2614 92.499 80.156Z" stroke="white" stroke-width="7.2" stroke-miterlimit="10"/>
<path d="M38.0354 75.1023H51.9576" stroke="white" stroke-width="7.2" stroke-miterlimit="10" stroke-linecap="round"/>
<path d="M38.0354 59.9031H51.9576" stroke="white" stroke-width="7.2" stroke-miterlimit="10" stroke-linecap="round"/>
<path d="M38.0344 44.7037H69.5917" stroke="#2CB67D" stroke-width="7.2" stroke-miterlimit="10" stroke-linecap="round"/>
<path d="M38.0344 28.4189H73.2381" stroke="#2CB67D" stroke-width="7.2" stroke-miterlimit="10" stroke-linecap="round"/>
<path d="M93.4183 73.491C94.3883 72.3577 95.9578 72.3595 96.9268 73.4934L109.168 87.8174C110.134 88.9477 110.135 90.7819 109.17 91.9146L109.166 91.9194C108.196 93.0521 106.627 93.0515 105.657 91.917L93.4163 77.5936C92.4504 76.4627 92.4494 74.6285 93.4137 73.4965L93.4183 73.491Z" fill="#2CB67D"/>
<path d="M96.0497 76.4769C103.598 68.3715 104.104 54.6234 97.1806 45.7694C90.2573 36.9151 78.5269 36.3082 70.9791 44.4136C63.4314 52.519 62.9242 66.2675 69.8476 75.1219C76.7705 83.9758 88.502 84.5823 96.0497 76.4769Z" fill="white"/>
<path d="M96.0498 76.4769C103.598 68.3715 104.104 54.6234 97.1806 45.7694C90.2573 36.9151 78.5269 36.3082 70.9791 44.4136C63.4314 52.519 62.9242 66.2675 69.8476 75.1219C76.7705 83.9758 88.502 84.5823 96.0498 76.4769Z" stroke="#2CB67D" stroke-width="7.2" stroke-miterlimit="10"/>
<path d="M90.3602 65.3257L88.6044 67.3824L84.0853 62.0856L79.6001 67.342L77.8345 65.2732L82.3197 60.0157L77.8 54.7183L79.5558 52.6609L84.075 57.9583L88.5601 52.7014L90.3257 54.7707L85.8405 60.0283L90.3602 65.3257Z" fill="#2CB67D"/>
</svg>
