<svg width="569" height="801" viewBox="0 0 569 801" fill="none" xmlns="http://www.w3.org/2000/svg">
<rect width="569" height="801" fill="#D9D9D9"/>
<rect width="1440" height="1024" transform="translate(-59 -111)" fill="white"/>
<g filter="url(#filter0_d_0_1)">
<rect x="1" y="1" width="1320" height="800" rx="10" fill="white"/>
</g>
<rect width="569" height="801" rx="10" fill="#2CB67D"/>
<path d="M78.5007 300.625L77.8821 301.992C78.2753 302.169 78.726 302.169 79.1192 301.992L78.5007 300.625ZM81.3757 286.042C81.3757 287.629 80.0885 288.917 78.5007 288.917V291.917C81.7453 291.917 84.3757 289.286 84.3757 286.042H81.3757ZM78.5007 288.917C76.9128 288.917 75.6257 287.629 75.6257 286.042H72.6257C72.6257 289.286 75.256 291.917 78.5007 291.917V288.917ZM75.6257 286.042C75.6257 284.454 76.9128 283.167 78.5007 283.167V280.167C75.256 280.167 72.6257 282.797 72.6257 286.042H75.6257ZM78.5007 283.167C80.0885 283.167 81.3757 284.454 81.3757 286.042H84.3757C84.3757 282.797 81.7453 280.167 78.5007 280.167V283.167ZM88.6673 286.042C88.6673 291.612 84.1065 296.441 77.8821 299.258L79.1192 301.992C85.7814 298.976 91.6673 293.357 91.6673 286.042H88.6673ZM79.1192 299.258C72.8948 296.441 68.334 291.612 68.334 286.042H65.334C65.334 293.357 71.2199 298.976 77.8821 301.992L79.1192 299.258ZM68.334 286.042C68.334 280.427 72.8858 275.875 78.5007 275.875V272.875C71.2289 272.875 65.334 278.77 65.334 286.042H68.334ZM78.5007 275.875C84.1155 275.875 88.6673 280.427 88.6673 286.042H91.6673C91.6673 278.77 85.7724 272.875 78.5007 272.875V275.875Z" fill="white"/>
<path d="M76.4376 208.354L77.4983 207.294L77.4983 207.294L76.4376 208.354ZM80.5624 208.354L79.5017 207.294L79.5017 207.294L80.5624 208.354ZM66.8333 198.792H90.1667V195.792H66.8333V198.792ZM90.125 198.75V216.25H93.125V198.75H90.125ZM90.1667 216.208H66.8333V219.208H90.1667V216.208ZM66.875 216.25V198.75H63.875V216.25H66.875ZM66.8333 216.208C66.8363 216.208 66.8429 216.209 66.85 216.212C66.8561 216.215 66.8601 216.218 66.8628 216.221C66.8655 216.223 66.8685 216.227 66.8711 216.233C66.8741 216.24 66.875 216.247 66.875 216.25H63.875C63.875 217.884 65.1995 219.208 66.8333 219.208V216.208ZM90.125 216.25C90.125 216.247 90.1259 216.24 90.1289 216.233C90.1315 216.227 90.1345 216.223 90.1372 216.221C90.1399 216.218 90.1439 216.215 90.15 216.212C90.1571 216.209 90.1637 216.208 90.1667 216.208V219.208C91.8005 219.208 93.125 217.884 93.125 216.25H90.125ZM66.8333 195.792C66.0168 195.792 65.2752 196.124 64.7415 196.658L66.8628 198.779C66.8601 198.782 66.8561 198.785 66.85 198.788C66.8469 198.789 66.8435 198.79 66.8401 198.791C66.8367 198.792 66.8342 198.792 66.8333 198.792V195.792ZM64.7415 196.658C64.2078 197.192 63.875 197.933 63.875 198.75H66.875C66.875 198.751 66.8749 198.753 66.8742 198.757C66.8735 198.76 66.8724 198.764 66.8711 198.767C66.8685 198.773 66.8655 198.777 66.8628 198.779L64.7415 196.658ZM90.1667 198.792C90.1658 198.792 90.1633 198.792 90.1599 198.791C90.1565 198.79 90.1531 198.789 90.15 198.788C90.1439 198.785 90.1399 198.782 90.1372 198.779L92.2585 196.658C91.7248 196.124 90.9832 195.792 90.1667 195.792V198.792ZM90.1372 198.779C90.1345 198.777 90.1315 198.773 90.1289 198.767C90.1276 198.764 90.1265 198.76 90.1258 198.757C90.1251 198.753 90.125 198.751 90.125 198.75H93.125C93.125 197.933 92.7922 197.192 92.2585 196.658L90.1372 198.779ZM75.3769 209.415C77.1018 211.14 79.8982 211.14 81.6231 209.415L79.5017 207.294C78.9485 207.847 78.0515 207.847 77.4983 207.294L75.3769 209.415ZM64.7415 198.779L75.3769 209.415L77.4983 207.294L66.8628 196.658L64.7415 198.779ZM81.6231 209.415L92.2585 198.779L90.1372 196.658L79.5017 207.294L81.6231 209.415Z" fill="white"/>
<path d="M62.12 113.8C62.12 111.603 62.6107 109.64 63.592 107.912C64.5947 106.163 65.9493 104.808 67.656 103.848C69.384 102.867 71.3147 102.376 73.448 102.376C75.944 102.376 78.1307 103.016 80.008 104.296C81.8853 105.576 83.1973 107.347 83.944 109.608H78.792C78.28 108.541 77.5547 107.741 76.616 107.208C75.6987 106.675 74.632 106.408 73.416 106.408C72.1147 106.408 70.952 106.717 69.928 107.336C68.9253 107.933 68.136 108.787 67.56 109.896C67.0053 111.005 66.728 112.307 66.728 113.8C66.728 115.272 67.0053 116.573 67.56 117.704C68.136 118.813 68.9253 119.677 69.928 120.296C70.952 120.893 72.1147 121.192 73.416 121.192C74.632 121.192 75.6987 120.925 76.616 120.392C77.5547 119.837 78.28 119.027 78.792 117.96H83.944C83.1973 120.243 81.8853 122.024 80.008 123.304C78.152 124.563 75.9653 125.192 73.448 125.192C71.3147 125.192 69.384 124.712 67.656 123.752C65.9493 122.771 64.5947 121.416 63.592 119.688C62.6107 117.96 62.12 115.997 62.12 113.8ZM95.6425 125.288C93.9358 125.288 92.3998 124.915 91.0345 124.168C89.6692 123.4 88.5918 122.323 87.8025 120.936C87.0345 119.549 86.6505 117.949 86.6505 116.136C86.6505 114.323 87.0452 112.723 87.8345 111.336C88.6452 109.949 89.7438 108.883 91.1305 108.136C92.5172 107.368 94.0638 106.984 95.7705 106.984C97.4772 106.984 99.0238 107.368 100.411 108.136C101.797 108.883 102.885 109.949 103.675 111.336C104.485 112.723 104.891 114.323 104.891 116.136C104.891 117.949 104.475 119.549 103.642 120.936C102.832 122.323 101.723 123.4 100.315 124.168C98.9278 124.915 97.3705 125.288 95.6425 125.288ZM95.6425 121.384C96.4532 121.384 97.2105 121.192 97.9145 120.808C98.6398 120.403 99.2158 119.805 99.6425 119.016C100.069 118.227 100.283 117.267 100.283 116.136C100.283 114.451 99.8345 113.16 98.9385 112.264C98.0638 111.347 96.9865 110.888 95.7065 110.888C94.4265 110.888 93.3492 111.347 92.4745 112.264C91.6212 113.16 91.1945 114.451 91.1945 116.136C91.1945 117.821 91.6105 119.123 92.4425 120.04C93.2958 120.936 94.3625 121.384 95.6425 121.384ZM118.001 107.016C120.113 107.016 121.819 107.688 123.121 109.032C124.422 110.355 125.073 112.211 125.073 114.6V125H120.593V115.208C120.593 113.8 120.241 112.723 119.537 111.976C118.833 111.208 117.873 110.824 116.657 110.824C115.419 110.824 114.438 111.208 113.713 111.976C113.009 112.723 112.657 113.8 112.657 115.208V125H108.177V107.272H112.657V109.48C113.254 108.712 114.011 108.115 114.929 107.688C115.867 107.24 116.891 107.016 118.001 107.016ZM134.549 110.952V119.528C134.549 120.125 134.688 120.563 134.965 120.84C135.264 121.096 135.754 121.224 136.437 121.224H138.517V125H135.701C131.925 125 130.037 123.165 130.037 119.496V110.952H127.925V107.272H130.037V102.888H134.549V107.272H138.517V110.952H134.549ZM140.587 116.072C140.587 114.28 140.939 112.691 141.643 111.304C142.369 109.917 143.339 108.851 144.555 108.104C145.793 107.357 147.169 106.984 148.683 106.984C150.006 106.984 151.158 107.251 152.139 107.784C153.142 108.317 153.942 108.989 154.539 109.8V107.272H159.051V125H154.539V122.408C153.963 123.24 153.163 123.933 152.139 124.488C151.137 125.021 149.974 125.288 148.651 125.288C147.158 125.288 145.793 124.904 144.555 124.136C143.339 123.368 142.369 122.291 141.643 120.904C140.939 119.496 140.587 117.885 140.587 116.072ZM154.539 116.136C154.539 115.048 154.326 114.12 153.899 113.352C153.473 112.563 152.897 111.965 152.171 111.56C151.446 111.133 150.667 110.92 149.835 110.92C149.003 110.92 148.235 111.123 147.531 111.528C146.827 111.933 146.251 112.531 145.803 113.32C145.377 114.088 145.163 115.005 145.163 116.072C145.163 117.139 145.377 118.077 145.803 118.888C146.251 119.677 146.827 120.285 147.531 120.712C148.257 121.139 149.025 121.352 149.835 121.352C150.667 121.352 151.446 121.149 152.171 120.744C152.897 120.317 153.473 119.72 153.899 118.952C154.326 118.163 154.539 117.224 154.539 116.136ZM162.275 116.136C162.275 114.301 162.648 112.701 163.395 111.336C164.141 109.949 165.176 108.883 166.499 108.136C167.821 107.368 169.336 106.984 171.043 106.984C173.24 106.984 175.053 107.539 176.483 108.648C177.933 109.736 178.904 111.272 179.395 113.256H174.563C174.307 112.488 173.869 111.891 173.251 111.464C172.653 111.016 171.907 110.792 171.011 110.792C169.731 110.792 168.717 111.261 167.971 112.2C167.224 113.117 166.851 114.429 166.851 116.136C166.851 117.821 167.224 119.133 167.971 120.072C168.717 120.989 169.731 121.448 171.011 121.448C172.824 121.448 174.008 120.637 174.563 119.016H179.395C178.904 120.936 177.933 122.461 176.483 123.592C175.032 124.723 173.219 125.288 171.043 125.288C169.336 125.288 167.821 124.915 166.499 124.168C165.176 123.4 164.141 122.333 163.395 120.968C162.648 119.581 162.275 117.971 162.275 116.136ZM187.893 110.952V119.528C187.893 120.125 188.031 120.563 188.309 120.84C188.607 121.096 189.098 121.224 189.781 121.224H191.861V125H189.045C185.269 125 183.381 123.165 183.381 119.496V110.952H181.269V107.272H183.381V102.888H187.893V107.272H191.861V110.952H187.893ZM207.188 102.664V125H202.708V102.664H207.188ZM221.438 107.016C223.55 107.016 225.257 107.688 226.558 109.032C227.86 110.355 228.51 112.211 228.51 114.6V125H224.03V115.208C224.03 113.8 223.678 112.723 222.974 111.976C222.27 111.208 221.31 110.824 220.094 110.824C218.857 110.824 217.876 111.208 217.15 111.976C216.446 112.723 216.094 113.8 216.094 115.208V125H211.614V107.272H216.094V109.48C216.692 108.712 217.449 108.115 218.366 107.688C219.305 107.24 220.329 107.016 221.438 107.016ZM240.899 110.952H237.795V125H233.251V110.952H231.235V107.272H233.251V106.376C233.251 104.2 233.869 102.6 235.107 101.576C236.344 100.552 238.211 100.072 240.707 100.136V103.912C239.619 103.891 238.861 104.072 238.435 104.456C238.008 104.84 237.795 105.533 237.795 106.536V107.272H240.899V110.952ZM251.674 125.288C249.967 125.288 248.431 124.915 247.066 124.168C245.7 123.4 244.623 122.323 243.834 120.936C243.066 119.549 242.682 117.949 242.682 116.136C242.682 114.323 243.076 112.723 243.866 111.336C244.676 109.949 245.775 108.883 247.162 108.136C248.548 107.368 250.095 106.984 251.802 106.984C253.508 106.984 255.055 107.368 256.442 108.136C257.828 108.883 258.916 109.949 259.706 111.336C260.516 112.723 260.922 114.323 260.922 116.136C260.922 117.949 260.506 119.549 259.674 120.936C258.863 122.323 257.754 123.4 256.346 124.168C254.959 124.915 253.402 125.288 251.674 125.288ZM251.674 121.384C252.484 121.384 253.242 121.192 253.946 120.808C254.671 120.403 255.247 119.805 255.674 119.016C256.1 118.227 256.314 117.267 256.314 116.136C256.314 114.451 255.866 113.16 254.97 112.264C254.095 111.347 253.018 110.888 251.738 110.888C250.458 110.888 249.38 111.347 248.506 112.264C247.652 113.16 247.226 114.451 247.226 116.136C247.226 117.821 247.642 119.123 248.474 120.04C249.327 120.936 250.394 121.384 251.674 121.384ZM268.688 110.024C269.264 109.085 270.011 108.349 270.928 107.816C271.867 107.283 272.933 107.016 274.128 107.016V111.72H272.944C271.536 111.72 270.469 112.051 269.744 112.712C269.04 113.373 268.688 114.525 268.688 116.168V125H264.208V107.272H268.688V110.024ZM299.162 107.016C301.338 107.016 303.087 107.688 304.41 109.032C305.754 110.355 306.426 112.211 306.426 114.6V125H301.946V115.208C301.946 113.821 301.594 112.765 300.89 112.04C300.186 111.293 299.226 110.92 298.01 110.92C296.794 110.92 295.823 111.293 295.098 112.04C294.394 112.765 294.042 113.821 294.042 115.208V125H289.562V115.208C289.562 113.821 289.21 112.765 288.506 112.04C287.802 111.293 286.842 110.92 285.626 110.92C284.388 110.92 283.407 111.293 282.682 112.04C281.978 112.765 281.626 113.821 281.626 115.208V125H277.146V107.272H281.626V109.416C282.202 108.669 282.938 108.083 283.834 107.656C284.751 107.229 285.754 107.016 286.842 107.016C288.228 107.016 289.466 107.315 290.554 107.912C291.642 108.488 292.484 109.32 293.082 110.408C293.658 109.384 294.49 108.563 295.578 107.944C296.687 107.325 297.882 107.016 299.162 107.016ZM309.525 116.072C309.525 114.28 309.877 112.691 310.581 111.304C311.306 109.917 312.277 108.851 313.493 108.104C314.73 107.357 316.106 106.984 317.621 106.984C318.943 106.984 320.095 107.251 321.077 107.784C322.079 108.317 322.879 108.989 323.477 109.8V107.272H327.989V125H323.477V122.408C322.901 123.24 322.101 123.933 321.077 124.488C320.074 125.021 318.911 125.288 317.589 125.288C316.095 125.288 314.73 124.904 313.493 124.136C312.277 123.368 311.306 122.291 310.581 120.904C309.877 119.496 309.525 117.885 309.525 116.072ZM323.477 116.136C323.477 115.048 323.263 114.12 322.837 113.352C322.41 112.563 321.834 111.965 321.109 111.56C320.383 111.133 319.605 110.92 318.773 110.92C317.941 110.92 317.173 111.123 316.469 111.528C315.765 111.933 315.189 112.531 314.741 113.32C314.314 114.088 314.101 115.005 314.101 116.072C314.101 117.139 314.314 118.077 314.741 118.888C315.189 119.677 315.765 120.285 316.469 120.712C317.194 121.139 317.962 121.352 318.773 121.352C319.605 121.352 320.383 121.149 321.109 120.744C321.834 120.317 322.41 119.72 322.837 118.952C323.263 118.163 323.477 117.224 323.477 116.136ZM337.58 110.952V119.528C337.58 120.125 337.719 120.563 337.996 120.84C338.295 121.096 338.786 121.224 339.468 121.224H341.548V125H338.732C334.956 125 333.068 123.165 333.068 119.496V110.952H330.956V107.272H333.068V102.888H337.58V107.272H341.548V110.952H337.58ZM347.043 105.16C346.253 105.16 345.592 104.915 345.059 104.424C344.547 103.912 344.291 103.283 344.291 102.536C344.291 101.789 344.547 101.171 345.059 100.68C345.592 100.168 346.253 99.912 347.043 99.912C347.832 99.912 348.483 100.168 348.995 100.68C349.528 101.171 349.795 101.789 349.795 102.536C349.795 103.283 349.528 103.912 348.995 104.424C348.483 104.915 347.832 105.16 347.043 105.16ZM349.251 107.272V125H344.771V107.272H349.251ZM361.549 125.288C359.842 125.288 358.306 124.915 356.941 124.168C355.575 123.4 354.498 122.323 353.709 120.936C352.941 119.549 352.557 117.949 352.557 116.136C352.557 114.323 352.951 112.723 353.741 111.336C354.551 109.949 355.65 108.883 357.037 108.136C358.423 107.368 359.97 106.984 361.677 106.984C363.383 106.984 364.93 107.368 366.317 108.136C367.703 108.883 368.791 109.949 369.581 111.336C370.391 112.723 370.797 114.323 370.797 116.136C370.797 117.949 370.381 119.549 369.549 120.936C368.738 122.323 367.629 123.4 366.221 124.168C364.834 124.915 363.277 125.288 361.549 125.288ZM361.549 121.384C362.359 121.384 363.117 121.192 363.821 120.808C364.546 120.403 365.122 119.805 365.549 119.016C365.975 118.227 366.189 117.267 366.189 116.136C366.189 114.451 365.741 113.16 364.845 112.264C363.97 111.347 362.893 110.888 361.613 110.888C360.333 110.888 359.255 111.347 358.381 112.264C357.527 113.16 357.101 114.451 357.101 116.136C357.101 117.821 357.517 119.123 358.349 120.04C359.202 120.936 360.269 121.384 361.549 121.384ZM383.907 107.016C386.019 107.016 387.726 107.688 389.027 109.032C390.328 110.355 390.979 112.211 390.979 114.6V125H386.499V115.208C386.499 113.8 386.147 112.723 385.443 111.976C384.739 111.208 383.779 110.824 382.563 110.824C381.326 110.824 380.344 111.208 379.619 111.976C378.915 112.723 378.563 113.8 378.563 115.208V125H374.083V107.272H378.563V109.48C379.16 108.712 379.918 108.115 380.835 107.688C381.774 107.24 382.798 107.016 383.907 107.016Z" fill="white"/>
<path d="M342.949 460.002L345.768 457.834V451.629C345.768 446.719 349.682 441.013 353.941 438.554C358.2 436.095 361.654 438.087 361.654 443.004V443.9C362.55 442.447 363.772 441.222 365.224 440.323C368.288 438.554 370.778 439.986 370.778 443.525V443.939L376.415 440.683C378.43 439.519 380.069 440.461 380.069 442.79C380 444.057 379.633 445.291 378.998 446.39C378.363 447.489 377.478 448.423 376.415 449.117L342.949 468.435C340.934 469.6 339.295 468.658 339.295 466.329C339.364 465.061 339.731 463.828 340.366 462.729C341.001 461.63 341.886 460.695 342.949 460.002Z" fill="#EBEBEB"/>
<path d="M140.733 628.629C140.335 628.56 139.913 628.438 139.439 628.315C137.838 627.886 136.26 627.374 134.712 626.783C131.625 625.663 128.712 624.107 126.064 622.164C124.612 621.131 123.369 619.831 122.403 618.334C121.437 616.818 121.094 614.988 121.445 613.225C121.64 612.355 122.079 611.558 122.712 610.93C123.344 610.302 124.143 609.867 125.015 609.678C125.834 609.548 126.685 609.678 127.504 609.533C127.924 609.499 128.322 609.332 128.64 609.057C128.958 608.781 129.18 608.411 129.274 608.001C129.277 607.531 129.15 607.069 128.906 606.668C127.418 603.942 126.137 601.107 125.076 598.188C124.187 595.584 124.134 592.766 124.923 590.13C125.593 587.507 127.027 585.142 129.044 583.335C129.963 582.569 131.235 581.911 132.345 582.393C132.698 582.573 133.009 582.827 133.255 583.138C133.5 583.448 133.676 583.808 133.77 584.193C133.942 584.963 134.029 585.749 134.031 586.537C134.14 588.234 134.464 589.909 134.996 591.524C135.234 592.533 135.813 593.429 136.635 594.059C138.06 594.948 140.021 594.251 141.537 594.971C143.054 595.691 143.575 597.346 143.644 598.908C143.713 600.471 143.399 602.049 143.575 603.604C143.606 604.094 143.761 604.569 144.027 604.983C144.449 605.435 144.937 605.819 145.475 606.124C146.181 606.708 146.748 607.444 147.132 608.277C147.517 609.109 147.709 610.017 147.696 610.934C147.65 612.767 147.3 614.578 146.662 616.296C145.959 618.698 145.446 621.152 145.13 623.635C144.88 625.156 144.236 626.585 143.261 627.779C142.972 628.156 142.577 628.438 142.127 628.589C141.676 628.741 141.191 628.755 140.733 628.629Z" fill="#BA68C8"/>
<path d="M143.277 627.357C143.232 627.357 143.188 627.345 143.149 627.322C143.11 627.299 143.078 627.266 143.055 627.227C134.116 612.152 131.289 601.536 130.485 595.277C129.604 588.46 130.845 585.266 130.899 585.136C130.911 585.103 130.93 585.074 130.954 585.049C130.978 585.024 131.006 585.004 131.038 584.99C131.07 584.976 131.104 584.969 131.138 584.968C131.173 584.968 131.207 584.974 131.239 584.986C131.272 584.999 131.301 585.018 131.326 585.042C131.351 585.065 131.371 585.094 131.385 585.126C131.399 585.157 131.406 585.191 131.407 585.226C131.407 585.261 131.401 585.295 131.389 585.327C131.389 585.381 130.148 588.59 131.013 595.285C131.779 601.482 134.644 612.007 143.507 626.967C143.525 626.996 143.537 627.029 143.542 627.064C143.547 627.098 143.545 627.133 143.536 627.166C143.528 627.2 143.513 627.231 143.492 627.259C143.471 627.286 143.445 627.309 143.415 627.327C143.372 627.347 143.325 627.358 143.277 627.357Z" fill="white"/>
<path d="M138.496 618.617C127.604 617.422 124.525 613.845 124.394 613.692C124.346 613.643 124.318 613.577 124.318 613.508C124.318 613.439 124.346 613.373 124.394 613.324C124.418 613.299 124.446 613.279 124.478 613.266C124.51 613.252 124.544 613.245 124.578 613.245C124.613 613.245 124.647 613.252 124.678 613.266C124.71 613.279 124.738 613.299 124.762 613.324C124.762 613.363 127.872 616.894 138.512 618.066C138.574 618.077 138.631 618.109 138.671 618.157C138.712 618.206 138.735 618.267 138.735 618.33C138.735 618.393 138.712 618.455 138.671 618.503C138.631 618.551 138.574 618.584 138.512 618.594L138.496 618.617Z" fill="white"/>
<path d="M135.425 611.831C135.367 611.831 135.31 611.812 135.264 611.777C135.237 611.756 135.214 611.73 135.197 611.7C135.179 611.67 135.168 611.637 135.164 611.603C135.16 611.569 135.162 611.534 135.172 611.501C135.181 611.467 135.197 611.436 135.218 611.409C138.673 606.867 138.895 599.421 138.902 599.345C138.902 599.31 138.909 599.276 138.923 599.244C138.937 599.213 138.957 599.184 138.982 599.16C139.007 599.137 139.037 599.119 139.069 599.107C139.102 599.095 139.136 599.09 139.171 599.092C139.205 599.092 139.239 599.099 139.271 599.113C139.303 599.126 139.331 599.146 139.355 599.171C139.379 599.197 139.397 599.226 139.409 599.259C139.42 599.291 139.425 599.326 139.423 599.36C139.423 599.674 139.193 607.02 135.639 611.723C135.614 611.757 135.582 611.784 135.545 611.802C135.507 611.821 135.466 611.831 135.425 611.831Z" fill="white"/>
<path d="M358.668 582.072C359.725 574.948 359.741 566.254 354.509 553.553C349.277 540.853 350.901 534.197 356.508 532.381C362.115 530.566 374.54 540.21 374.08 556.426C373.628 572.083 363.05 585.013 363.05 585.013L358.668 582.072Z" fill="#BA68C8"/>
<path opacity="0.1" d="M358.668 582.072C359.725 574.948 359.741 566.254 354.509 553.553C349.277 540.853 350.901 534.197 356.508 532.381C362.115 530.566 374.54 540.21 374.08 556.426C373.628 572.083 363.05 585.013 363.05 585.013L358.668 582.072Z" fill="black"/>
<path d="M361.402 584.17C361.37 584.177 361.336 584.177 361.303 584.17C361.27 584.158 361.241 584.139 361.216 584.114C361.191 584.09 361.171 584.061 361.159 584.028C361.146 583.996 361.139 583.961 361.141 583.926C361.142 583.891 361.15 583.857 361.165 583.826C361.219 583.695 366.948 570.313 366.527 558.165C366.052 544.185 358.308 536.495 358.231 536.418C358.207 536.394 358.187 536.365 358.173 536.333C358.16 536.302 358.153 536.268 358.152 536.233C358.152 536.199 358.158 536.164 358.171 536.132C358.184 536.1 358.203 536.071 358.227 536.046C358.252 536.022 358.28 536.002 358.312 535.989C358.344 535.975 358.378 535.968 358.412 535.968C358.447 535.967 358.481 535.974 358.513 535.987C358.545 535.999 358.574 536.018 358.599 536.043C358.675 536.119 366.565 543.94 367.025 558.149C367.446 570.405 361.663 583.902 361.617 584.033C361.595 584.072 361.565 584.105 361.527 584.129C361.49 584.153 361.447 584.167 361.402 584.17Z" fill="white"/>
<path d="M358.975 588.391C358.975 588.391 361.931 571.171 372.426 561.275C382.92 551.378 400.415 549.494 405.9 554.779C411.384 560.064 407.868 565.204 400.139 566.989C391.407 569.004 386.053 572.527 391.407 575.224C396.378 577.721 395.819 583.136 390.641 585.733C382.368 589.885 367.431 585.932 363.831 594.098L358.975 588.391Z" fill="#BA68C8"/>
<path d="M361.195 592.037H361.11C361.045 592.013 360.992 591.964 360.962 591.901C360.932 591.838 360.927 591.766 360.95 591.7C363.369 584.967 367.097 578.778 371.919 573.492C375.698 569.405 380.123 565.966 385.017 563.312C389.88 560.629 395.173 558.814 400.659 557.95C400.729 557.944 400.799 557.965 400.853 558.009C400.908 558.054 400.942 558.118 400.95 558.188C400.954 558.222 400.952 558.257 400.943 558.29C400.933 558.323 400.917 558.354 400.896 558.381C400.875 558.408 400.848 558.431 400.818 558.448C400.788 558.464 400.755 558.475 400.72 558.479C395.29 559.351 390.053 561.166 385.247 563.841C377.587 568 367.193 576.25 361.425 591.915C361.399 591.952 361.365 591.983 361.325 592.005C361.285 592.026 361.24 592.037 361.195 592.037Z" fill="white"/>
<path d="M366.519 581.206C366.464 581.206 366.41 581.189 366.365 581.158C366.319 581.126 366.285 581.082 366.266 581.03C366.244 580.964 366.248 580.892 366.278 580.829C366.308 580.766 366.362 580.717 366.427 580.693C375.381 577.567 388.22 579.207 388.35 579.222C388.384 579.227 388.417 579.238 388.447 579.255C388.477 579.272 388.503 579.295 388.524 579.323C388.545 579.35 388.56 579.381 388.569 579.415C388.578 579.448 388.58 579.483 388.576 579.517C388.571 579.551 388.56 579.584 388.543 579.614C388.525 579.644 388.503 579.67 388.475 579.691C388.448 579.712 388.416 579.727 388.383 579.736C388.35 579.745 388.315 579.747 388.281 579.743C388.158 579.743 375.435 578.104 366.603 581.191C366.577 581.203 366.548 581.208 366.519 581.206Z" fill="white"/>
<path d="M151.734 404.62C151.67 403.437 151.328 402.286 150.735 401.26C150.143 400.233 149.317 399.361 148.325 398.714L145.544 397.106C144.488 396.569 143.32 396.29 142.136 396.29C140.951 396.29 139.783 396.569 138.727 397.106L116.735 409.798C115.688 410.456 114.832 411.378 114.253 412.471C113.755 413.34 113.442 414.303 113.334 415.298C113.334 415.436 113.334 415.574 113.334 415.712V441.097C113.399 442.281 113.742 443.432 114.336 444.459C114.929 445.485 115.757 446.356 116.75 447.003L119.523 448.611L119.876 448.795L120.006 448.849L120.243 448.948L120.427 449.017L120.626 449.086L120.848 449.148L121.017 449.194L121.277 449.255H121.408L121.722 449.308H121.783C123.353 449.566 124.965 449.311 126.379 448.581L148.325 435.919C149.319 435.271 150.146 434.398 150.74 433.37C151.333 432.343 151.676 431.19 151.741 430.005L151.734 404.62Z" fill="#BA68C8"/>
<path opacity="0.4" d="M123.921 417.895C123.527 418.547 123.233 419.254 123.048 419.994C123.505 418.079 124.682 416.414 126.334 415.344L148.326 402.651C150.21 401.564 151.742 402.445 151.742 404.62C151.677 403.436 151.334 402.285 150.74 401.258C150.147 400.232 149.319 399.361 148.326 398.714L145.545 397.106C144.489 396.569 143.321 396.29 142.136 396.29C140.952 396.29 139.784 396.569 138.728 397.106L116.736 409.798C115.688 410.456 114.833 411.378 114.254 412.471L114.323 412.349L123.921 417.895Z" fill="white"/>
<path opacity="0.1" d="M125.628 448.933L125.467 448.979L125.192 449.033H124.931H124.663C124.346 449.009 124.043 448.895 123.79 448.703L123.667 448.588L123.598 448.527L123.506 448.412L123.43 448.313L123.353 448.19L123.284 448.068C123.284 448.068 123.284 447.983 123.231 447.937C123.207 447.89 123.187 447.842 123.169 447.792L123.047 447.669V447.516C123.047 447.47 123.047 447.424 123.047 447.378C123.043 447.304 123.043 447.23 123.047 447.156C123.043 447.115 123.043 447.074 123.047 447.033C123.047 446.919 123.047 446.796 123.047 446.666V421.258C123.047 420.983 123.07 420.709 123.116 420.438C123.116 420.338 123.116 420.231 123.177 420.132V420.009C123.353 419.271 123.637 418.564 124.02 417.91L114.322 412.349L114.253 412.472C113.755 413.34 113.442 414.303 113.334 415.298C113.334 415.436 113.334 415.574 113.334 415.712V441.097C113.399 442.281 113.742 443.432 114.336 444.459C114.929 445.485 115.757 446.356 116.75 447.003L119.523 448.611L119.876 448.795L120.006 448.849L120.243 448.948L120.427 449.017L120.626 449.086L120.848 449.148L121.017 449.194L121.277 449.255H121.408L121.722 449.308H121.783C123.076 449.505 124.398 449.376 125.628 448.933Z" fill="black"/>
<path d="M142.127 427.899C143.596 424.618 144.348 421.061 144.333 417.466C145.051 416.352 145.654 415.169 146.133 413.935C145.515 414.66 144.819 415.315 144.057 415.888C144.83 414.808 145.37 413.579 145.643 412.28C144.98 413.202 144.209 414.04 143.345 414.777C142.963 414.493 142.5 414.34 142.024 414.34C141.548 414.34 141.084 414.493 140.702 414.777C138.404 416.125 136.658 420.017 137.186 422.728C134.184 424.26 131.518 423.877 129.741 421.962C128.791 424.674 129.251 427.248 130.859 427.746C130.367 428.041 129.79 428.163 129.22 428.09C129.22 430.388 130.377 431.744 132.116 431.2C131.655 431.659 131.097 432.01 130.484 432.227C130.944 433.874 132.276 434.525 133.862 433.628C132.628 435.823 130.759 437.594 128.5 438.707C130.093 439.151 131.993 438.853 134.038 437.673C137.608 435.612 140.35 431.882 142.104 427.845" fill="white"/>
<path d="M151.734 497.053C151.665 495.875 151.321 494.73 150.729 493.71C150.137 492.689 149.313 491.822 148.325 491.178L145.544 489.569C144.488 489.033 143.32 488.754 142.136 488.754C140.951 488.754 139.783 489.033 138.727 489.569L116.743 502.262C115.695 502.92 114.84 503.842 114.261 504.935C113.763 505.804 113.45 506.766 113.342 507.762C113.342 507.9 113.342 508.038 113.342 508.176V533.561C113.409 534.737 113.751 535.881 114.34 536.902C114.929 537.922 115.75 538.79 116.735 539.436L119.508 541.045L119.86 541.221L119.991 541.282L120.228 541.382L120.412 541.451L120.611 541.52L120.833 541.581L121.002 541.627L121.262 541.688H121.392L121.707 541.742H121.768C123.342 541.987 124.954 541.719 126.364 540.976L148.325 528.352C149.319 527.704 150.146 526.831 150.74 525.803C151.333 524.776 151.676 523.623 151.741 522.438L151.734 497.053Z" fill="#BA68C8"/>
<path opacity="0.4" d="M123.921 510.328C123.538 510.982 123.254 511.689 123.078 512.427C123.528 510.517 124.693 508.853 126.334 507.777L148.326 495.085C150.21 493.997 151.742 494.878 151.742 497.053C151.673 495.875 151.327 494.729 150.734 493.709C150.14 492.688 149.315 491.821 148.326 491.178L145.545 489.569C144.489 489.033 143.321 488.754 142.136 488.754C140.952 488.754 139.784 489.033 138.728 489.569L116.744 502.262C115.696 502.92 114.84 503.842 114.262 504.935L114.331 504.813L123.921 510.328Z" fill="white"/>
<path opacity="0.1" d="M125.629 541.366L125.468 541.412C125.378 541.44 125.286 541.46 125.192 541.474H124.932H124.664C124.347 541.45 124.044 541.336 123.791 541.144L123.668 541.029L123.599 540.968L123.507 540.845L123.431 540.754L123.354 540.631L123.285 540.508C123.285 540.462 123.285 540.424 123.231 540.378C123.206 540.329 123.186 540.278 123.17 540.225L123.124 540.095L123.078 539.911C123.078 539.911 123.078 539.827 123.078 539.781C123.074 539.707 123.074 539.633 123.078 539.559C123.074 539.518 123.074 539.477 123.078 539.436C123.078 539.321 123.078 539.191 123.078 539.061V513.691C123.079 513.416 123.102 513.142 123.147 512.871C123.147 512.764 123.147 512.664 123.208 512.565V512.442C123.384 511.705 123.668 510.997 124.051 510.343L114.453 504.797L114.384 504.92C113.886 505.789 113.573 506.751 113.465 507.747C113.465 507.884 113.465 508.022 113.465 508.16V533.545C113.516 534.714 113.838 535.854 114.405 536.877C114.973 537.899 115.771 538.775 116.736 539.436L119.509 541.045L119.861 541.221L119.991 541.282L120.229 541.382L120.412 541.451L120.612 541.52L120.834 541.581L121.002 541.627L121.263 541.688H121.393L121.707 541.742H121.768C123.066 541.941 124.394 541.812 125.629 541.366Z" fill="black"/>
<path d="M137.326 508.796C139.578 507.494 139.846 507.356 140.734 506.896C141.202 506.616 141.724 506.438 142.266 506.375C142.613 506.34 142.959 506.442 143.231 506.659C143.538 506.891 143.761 507.216 143.867 507.586C144.065 508.207 144.163 508.856 144.158 509.508C144.197 510.665 144.204 511.04 144.204 514.02C144.204 517 144.204 517.375 144.158 518.616C144.145 519.375 144.047 520.131 143.867 520.868C143.729 521.445 143.515 522.001 143.231 522.523C142.977 523.033 142.652 523.505 142.266 523.925C141.816 524.421 141.301 524.853 140.734 525.211C139.846 525.778 139.578 525.977 137.326 527.241C135.074 528.505 134.813 528.689 133.925 529.149C133.456 529.427 132.934 529.602 132.393 529.662C132.044 529.697 131.695 529.596 131.42 529.378C131.118 529.143 130.898 528.819 130.792 528.452C130.595 527.832 130.496 527.186 130.501 526.537C130.501 525.372 130.447 525.005 130.447 522.025C130.447 519.045 130.447 518.662 130.501 517.429C130.512 516.654 130.61 515.884 130.792 515.131C130.932 514.556 131.143 514 131.42 513.476C131.68 512.968 132.007 512.496 132.393 512.074C132.841 511.577 133.357 511.144 133.925 510.788C134.813 510.221 135.081 510.022 137.326 508.758M137.326 506.735C135.028 508.053 134.752 508.267 133.856 508.804C133.099 509.277 132.411 509.852 131.81 510.512C131.202 511.154 130.686 511.879 130.278 512.664C129.851 513.472 129.525 514.328 129.306 515.215C129.067 516.183 128.936 517.175 128.915 518.172C128.915 519.39 128.861 519.78 128.861 522.829C128.861 525.878 128.861 526.261 128.915 527.425C128.915 528.275 129.047 529.12 129.306 529.93C129.475 530.494 129.815 530.991 130.278 531.355C130.713 531.694 131.262 531.85 131.81 531.791C132.531 531.72 133.229 531.495 133.856 531.133C134.752 530.665 135.035 530.512 137.326 529.195C139.616 527.877 139.899 527.663 140.803 527.119C142.309 526.187 143.532 524.863 144.342 523.289C144.768 522.482 145.092 521.625 145.307 520.738C145.549 519.773 145.682 518.784 145.706 517.789C145.706 516.563 145.752 516.173 145.752 513.124C145.752 510.075 145.752 509.7 145.706 508.528C145.705 507.68 145.57 506.837 145.307 506.031C145.139 505.466 144.802 504.966 144.342 504.598C143.907 504.261 143.357 504.107 142.81 504.169C142.089 504.237 141.39 504.462 140.765 504.828C139.861 505.288 139.578 505.441 137.287 506.766M137.287 512.228C134.897 513.606 132.959 517.306 132.959 520.493C132.959 523.679 134.897 525.142 137.287 523.764C139.677 522.385 141.615 518.685 141.615 515.499C141.615 512.312 139.677 510.849 137.287 512.228ZM137.287 521.741C135.755 522.638 134.484 521.688 134.484 519.62C134.484 517.551 135.74 515.146 137.287 514.258C138.835 513.369 140.099 514.311 140.099 516.387C140.099 518.463 138.842 520.853 137.287 521.749M142.795 508.827C142.795 508.061 142.343 507.739 141.784 508.061C141.475 508.282 141.223 508.572 141.047 508.909C140.871 509.246 140.777 509.619 140.773 509.999C140.773 510.765 141.225 511.079 141.784 510.765C142.091 510.544 142.343 510.255 142.519 509.92C142.694 509.584 142.789 509.213 142.795 508.834" fill="white"/>
<path d="M190.004 437.949C189.944 436.768 189.607 435.618 189.02 434.592C188.433 433.566 187.613 432.693 186.626 432.043L183.845 430.434C182.788 429.898 181.618 429.618 180.433 429.618C179.247 429.618 178.078 429.898 177.02 430.434L155.036 443.127C154.106 443.744 153.321 444.555 152.736 445.504C152.15 446.454 151.777 447.519 151.643 448.627C151.643 448.765 151.643 448.902 151.643 449.04V474.426C151.706 475.609 152.048 476.76 152.64 477.786C153.232 478.813 154.059 479.685 155.051 480.331L157.832 481.94L158.184 482.124L158.314 482.177L158.552 482.277L158.728 482.346L158.935 482.415L159.149 482.476L159.326 482.522L159.586 482.583H159.716L160.03 482.637H160.092C161.662 482.894 163.273 482.639 164.688 481.909L186.626 469.247C187.619 468.599 188.445 467.726 189.037 466.698C189.629 465.671 189.971 464.518 190.034 463.334L190.004 437.949Z" fill="#BA68C8"/>
<path opacity="0.4" d="M162.197 451.223C161.815 451.879 161.528 452.586 161.347 453.322C161.798 451.411 162.966 449.747 164.61 448.673L186.625 435.98C188.509 434.892 190.033 435.773 190.033 437.949C189.97 436.765 189.628 435.614 189.036 434.588C188.443 433.562 187.617 432.69 186.625 432.043L183.844 430.434C182.786 429.898 181.617 429.618 180.431 429.618C179.246 429.618 178.077 429.898 177.019 430.434L155.035 443.127C153.991 443.787 153.139 444.709 152.561 445.8L152.622 445.678L162.197 451.223Z" fill="white"/>
<path opacity="0.1" d="M163.905 482.262L163.737 482.308C163.649 482.335 163.559 482.356 163.469 482.369H163.216H162.879C162.565 482.345 162.264 482.23 162.013 482.04L161.891 481.925L161.822 481.863L161.722 481.741L161.653 481.649C161.623 481.611 161.598 481.57 161.577 481.526L161.508 481.404C161.508 481.366 161.508 481.32 161.446 481.274L161.393 481.128L161.347 480.99C161.347 480.934 161.331 480.873 161.301 480.806C161.296 480.763 161.296 480.719 161.301 480.676C161.297 480.602 161.297 480.528 161.301 480.454C161.297 480.413 161.297 480.372 161.301 480.331C161.293 480.209 161.293 480.086 161.301 479.964V454.586C161.305 454.312 161.328 454.038 161.37 453.767C161.37 453.659 161.37 453.56 161.423 453.46C161.426 453.419 161.426 453.378 161.423 453.338C161.605 452.601 161.892 451.894 162.274 451.239L152.668 445.693L152.607 445.815C152.105 446.683 151.792 447.646 151.688 448.642C151.688 448.78 151.688 448.918 151.688 449.056V474.441C151.751 475.624 152.093 476.776 152.685 477.802C153.277 478.828 154.103 479.7 155.096 480.347L157.877 481.955L158.229 482.139L158.359 482.193L158.597 482.292L158.773 482.361L158.98 482.43L159.194 482.492L159.37 482.538L159.631 482.599H159.761L160.075 482.652H160.136C161.406 482.831 162.7 482.697 163.905 482.262Z" fill="black"/>
<path d="M173.227 473.039L176.896 470.917V458.661L179.455 457.183L179.723 452.924L176.896 454.556V452.219C176.896 451.254 177.042 450.787 177.739 450.388L179.723 449.239V444.981L177.188 446.451C175.933 447.112 174.894 448.118 174.192 449.351C173.491 450.583 173.156 451.99 173.227 453.407V456.708L171.305 457.788V461.94L173.212 460.844L173.227 473.039Z" fill="white"/>
<path d="M140.326 632.888L228.209 683.613C229.242 684.137 230.383 684.411 231.541 684.411C232.699 684.411 233.841 684.137 234.873 683.613L371.926 604.492C373.765 603.428 373.765 601.712 371.926 600.662L284.043 549.907C283.012 549.383 281.872 549.109 280.715 549.109C279.558 549.109 278.417 549.383 277.386 549.907L140.326 629.058C138.488 630.1 138.488 631.816 140.326 632.888Z" fill="#E0E0E0"/>
<path d="M143.091 620.632L228.485 669.939C229.528 670.468 230.682 670.744 231.852 670.744C233.021 670.744 234.175 670.468 235.218 669.939L370.609 591.784C372.47 590.712 372.47 588.973 370.609 587.901L285.207 538.593C284.164 538.064 283.011 537.789 281.841 537.789C280.671 537.789 279.518 538.064 278.474 538.593L143.091 616.802C141.23 617.836 141.23 619.575 143.091 620.632Z" fill="#37474F"/>
<path d="M228.485 669.955L143.091 620.632C141.429 619.674 141.253 618.181 142.563 617.108C141.73 617.768 141.047 618.597 140.557 619.539C140.067 620.482 139.782 621.517 139.721 622.578V625.741C139.784 626.911 140.123 628.048 140.708 629.062C141.294 630.077 142.11 630.938 143.091 631.578L228.485 680.878C229.521 681.429 230.682 681.705 231.855 681.682V670.759C230.682 670.782 229.521 670.505 228.485 669.955Z" fill="#455A64"/>
<path d="M370.609 602.723C371.588 602.084 372.404 601.224 372.988 600.211C373.572 599.198 373.909 598.061 373.971 596.894V593.73C373.91 592.67 373.626 591.634 373.136 590.691C372.646 589.749 371.962 588.92 371.13 588.261C372.439 589.333 372.271 590.827 370.609 591.784L235.218 669.955C234.184 670.504 233.027 670.781 231.855 670.759V681.698C233.027 681.719 234.184 681.443 235.218 680.893L370.609 602.723Z" fill="#263238"/>
<path d="M188.921 643.405C190.37 644.142 191.972 644.526 193.597 644.526C195.223 644.526 196.825 644.142 198.274 643.405C200.855 641.873 200.855 639.499 198.274 638.005C196.824 637.272 195.222 636.891 193.597 636.891C191.973 636.891 190.371 637.272 188.921 638.005C186.37 639.499 186.37 641.919 188.921 643.405Z" fill="#263238"/>
<path d="M241.776 659.491L160.036 612.267C158.925 611.624 158.925 610.574 160.036 609.931L266.51 548.437C267.136 548.12 267.827 547.954 268.529 547.954C269.23 547.954 269.921 548.12 270.547 548.437L352.287 595.66C353.405 596.304 353.405 597.346 352.287 597.958L245.813 659.461C245.19 659.782 244.499 659.953 243.798 659.958C243.097 659.963 242.404 659.803 241.776 659.491Z" fill="white"/>
<path d="M321.73 566.713C322.097 566.898 322.503 566.995 322.914 566.995C323.325 566.995 323.73 566.898 324.097 566.713C324.225 566.65 324.332 566.552 324.407 566.431C324.482 566.31 324.522 566.17 324.522 566.028C324.522 565.885 324.482 565.746 324.407 565.625C324.332 565.503 324.225 565.406 324.097 565.342C323.73 565.157 323.325 565.06 322.914 565.06C322.503 565.06 322.097 565.157 321.73 565.342C321.072 565.717 321.072 566.33 321.73 566.713Z" fill="#263238"/>
<path d="M325.514 577.453C326.248 577.823 327.058 578.016 327.881 578.016C328.703 578.016 329.513 577.823 330.248 577.453C331.557 576.687 331.557 575.469 330.248 574.718C329.515 574.344 328.703 574.149 327.881 574.149C327.058 574.149 326.247 574.344 325.514 574.718C324.204 575.438 324.204 576.694 325.514 577.453Z" fill="#263238"/>
<path d="M322.205 572.688C323.078 572.19 323.033 571.348 322.098 570.811L306.518 561.811C306.017 561.545 305.46 561.401 304.893 561.39C304.326 561.38 303.765 561.503 303.254 561.75C302.381 562.255 302.427 563.098 303.362 563.634L318.942 572.634C319.444 572.899 320 573.042 320.567 573.051C321.134 573.061 321.695 572.936 322.205 572.688Z" fill="#263238"/>
<path d="M265.13 561.137C264.011 561.78 264.011 562.822 265.13 563.435L327.406 599.398C328.033 599.716 328.725 599.881 329.428 599.881C330.13 599.881 330.823 599.716 331.45 599.398L345.238 591.455L278.918 553.155L265.13 561.137Z" fill="#EBEBEB"/>
<path d="M265.59 567.38L260.619 564.515C260.411 564.409 260.181 564.354 259.948 564.354C259.716 564.354 259.486 564.409 259.278 564.515L256.145 566.323C255.77 566.537 255.77 566.882 256.145 567.089L256.574 567.341L254.989 568.184C254.805 568.284 254.82 568.345 255.035 568.33L257.823 568.061L261.117 569.961C261.326 570.064 261.557 570.117 261.791 570.117C262.024 570.117 262.255 570.064 262.465 569.961L265.59 568.153C265.669 568.124 265.736 568.071 265.784 568.002C265.832 567.932 265.857 567.85 265.857 567.766C265.857 567.683 265.832 567.601 265.784 567.531C265.736 567.462 265.669 567.409 265.59 567.38Z" fill="#EBEBEB"/>
<path d="M267.053 574.856L266.685 574.09C266.21 573.086 265.919 571.723 267.298 570.934C267.82 570.669 268.398 570.532 268.983 570.532C269.569 570.532 270.146 570.669 270.668 570.934C271.388 571.348 271.549 571.968 271.151 572.466C272.045 572.221 272.999 572.319 273.824 572.742C274.029 572.808 274.207 572.938 274.334 573.112C274.46 573.286 274.528 573.495 274.528 573.711C274.528 573.926 274.46 574.136 274.334 574.31C274.207 574.484 274.029 574.613 273.824 574.68C272.476 575.446 270.117 575.308 268.378 575.04L267.053 574.856Z" fill="#EBEBEB"/>
<path d="M198.802 601.758L261.085 637.721C261.712 638.039 262.405 638.204 263.107 638.204C263.81 638.204 264.503 638.039 265.13 637.721L313.633 609.709C314.743 609.065 314.743 608.024 313.633 607.411L251.349 571.416C250.722 571.099 250.03 570.934 249.327 570.934C248.624 570.934 247.932 571.099 247.305 571.416L198.802 599.429C197.683 600.073 197.683 601.114 198.802 601.758Z" fill="#EBEBEB"/>
<path d="M199.277 605.672L194.283 602.8C194.073 602.697 193.842 602.643 193.609 602.643C193.375 602.643 193.145 602.697 192.935 602.8L189.802 604.607C189.726 604.638 189.66 604.691 189.615 604.76C189.569 604.828 189.544 604.908 189.544 604.99C189.544 605.072 189.569 605.153 189.615 605.221C189.66 605.289 189.726 605.342 189.802 605.373L190.238 605.626L188.653 606.461C188.461 606.561 188.484 606.63 188.653 606.607L191.441 606.346L194.735 608.246C194.945 608.349 195.175 608.402 195.409 608.402C195.643 608.402 195.873 608.349 196.083 608.246L199.216 606.43C199.296 606.408 199.366 606.361 199.419 606.297C199.471 606.233 199.503 606.155 199.51 606.072C199.516 605.99 199.498 605.907 199.456 605.836C199.415 605.764 199.352 605.707 199.277 605.672Z" fill="#EBEBEB"/>
<path d="M200.703 613.141L200.343 612.375C199.86 611.371 199.577 610.008 200.955 609.211C201.476 608.947 202.052 608.809 202.637 608.809C203.221 608.809 203.797 608.947 204.318 609.211C205.084 609.632 205.207 610.253 204.801 610.743C205.698 610.507 206.651 610.605 207.482 611.019C207.685 611.087 207.862 611.218 207.988 611.393C208.113 611.567 208.181 611.777 208.181 611.992C208.181 612.206 208.113 612.416 207.988 612.59C207.862 612.765 207.685 612.896 207.482 612.964C206.133 613.73 203.774 613.592 202.028 613.324L200.703 613.141Z" fill="#EBEBEB"/>
<path d="M180.993 609.709C181.62 609.392 182.313 609.227 183.016 609.227C183.718 609.227 184.411 609.392 185.038 609.709L247.314 645.665C248.432 646.308 248.432 647.358 247.314 648.001L234.606 655.339L168.301 617.039L180.993 609.709Z" fill="#EBEBEB"/>
<path d="M250.2 601.428L214.75 610.95L261.101 637.714C261.728 638.031 262.42 638.196 263.123 638.196C263.825 638.196 264.518 638.031 265.145 637.714L266.149 637.132L286.149 607.786L243.674 616.12L250.2 601.428Z" fill="#E0E0E0"/>
<path d="M267.658 580.838L251.349 571.416C250.723 571.099 250.03 570.934 249.327 570.934C248.625 570.934 247.932 571.099 247.305 571.416L229.074 581.949C229.909 583.535 231.633 585.013 234.245 586.292C241.905 589.954 254.375 589.954 262.058 586.292C265.275 584.76 267.137 582.83 267.658 580.838Z" fill="#E0E0E0"/>
<path opacity="0.2" d="M346.304 577.522L264.557 530.305C263.931 529.988 263.24 529.823 262.538 529.823C261.837 529.823 261.146 529.988 260.52 530.305L154.046 591.8C152.935 592.443 152.935 593.485 154.046 594.098L171.327 604.056L235.816 641.306C236.442 641.623 237.133 641.788 237.835 641.788C238.536 641.788 239.228 641.623 239.853 641.306L335.695 585.932L346.297 579.804C347.423 579.214 347.423 578.165 346.304 577.522Z" fill="white"/>
<path d="M346.502 577.184L278.911 538.118L264.755 529.968C264.07 529.617 263.311 529.434 262.541 529.434C261.771 529.434 261.013 529.617 260.327 529.968L153.853 591.463C153.55 591.579 153.289 591.785 153.105 592.053C152.921 592.321 152.822 592.639 152.822 592.964C152.822 593.289 152.921 593.607 153.105 593.875C153.289 594.143 153.55 594.349 153.853 594.465L171.134 604.423L235.647 641.697C236.332 642.049 237.091 642.233 237.861 642.233C238.631 642.233 239.39 642.049 240.074 641.697L335.909 586.323L346.518 580.195C346.82 580.076 347.08 579.869 347.264 579.601C347.447 579.332 347.545 579.015 347.545 578.69C347.545 578.365 347.447 578.047 347.264 577.778C347.08 577.51 346.82 577.303 346.518 577.184H346.502ZM346.112 579.521L335.503 585.649L239.668 641.023C239.101 641.306 238.476 641.454 237.841 641.454C237.207 641.454 236.582 641.306 236.015 641.023L171.525 603.78L154.252 593.822C154.067 593.775 153.904 593.667 153.787 593.517C153.67 593.366 153.607 593.181 153.607 592.991C153.607 592.8 153.67 592.615 153.787 592.465C153.904 592.314 154.067 592.207 154.252 592.16L260.726 530.665C261.294 530.384 261.919 530.237 262.553 530.237C263.186 530.237 263.812 530.384 264.379 530.665L278.543 538.823L346.135 577.889C346.319 577.936 346.483 578.044 346.6 578.194C346.716 578.345 346.78 578.53 346.78 578.72C346.78 578.911 346.716 579.096 346.6 579.246C346.483 579.397 346.319 579.504 346.135 579.551L346.112 579.521Z" fill="white"/>
<path d="M309.62 386.037C310.746 385.386 311.665 385.914 311.665 387.216V537.804C311.626 538.514 311.42 539.205 311.065 539.821C310.71 540.437 310.215 540.961 309.62 541.351L250.852 575.285L243.958 598.265C243.338 600.348 242.097 600.44 241.193 598.456L234.881 584.523L217.723 594.427C216.597 595.078 215.678 594.55 215.678 593.248V442.66C215.716 441.949 215.921 441.258 216.277 440.642C216.632 440.026 217.127 439.502 217.723 439.113L309.62 386.037Z" fill="#BA68C8"/>
<path d="M302.113 502.285C302.043 503.26 301.743 504.205 301.239 505.042C300.734 505.879 300.039 506.586 299.21 507.103L266.923 525.748C265.322 526.667 264.02 526.016 264.02 524.277C264.092 523.302 264.393 522.359 264.897 521.522C265.401 520.685 266.095 519.978 266.923 519.459L299.225 500.822C300.818 499.895 302.113 500.554 302.113 502.285Z" fill="white"/>
<path d="M296.161 520.906C296.089 521.881 295.789 522.825 295.285 523.662C294.78 524.499 294.086 525.206 293.258 525.725L266.44 541.228C264.839 542.155 263.545 541.497 263.545 539.758C263.615 538.785 263.914 537.842 264.417 537.006C264.92 536.17 265.614 535.465 266.44 534.947L293.289 519.443C294.89 518.517 296.161 519.175 296.161 520.906Z" fill="white"/>
<path d="M247.789 547.395L247.72 546.491C246.257 550.183 244.051 552.833 241.592 554.25C237.249 556.763 233.365 554.534 233.365 547.885C233.365 541.619 236.429 534.748 241.201 532.013C244.334 530.206 246.471 531.539 246.824 532.328V530.796C246.824 529.945 247.689 528.758 248.746 528.145C249.804 527.532 250.677 528.092 250.677 529.401V543.611C250.677 545.418 251.351 545.786 252.308 545.227C254.055 544.223 255.663 539.926 255.663 535.031C255.663 525.579 250.707 521.175 242.802 525.74C235.395 530.014 229.52 540.815 229.52 550.252C229.52 559.513 235.073 563.044 242.343 558.854C244.43 557.557 246.28 555.912 247.812 553.99C248.639 552.979 249.543 552.672 249.941 553.393C250.34 554.113 250.095 555.599 249.275 556.61C247.337 559.042 245.007 561.133 242.381 562.799C233.335 568.015 226.494 563.465 226.494 552.021C226.494 540.332 233.656 527.226 242.841 521.918C252.025 516.609 258.758 521.328 258.758 533.155C258.758 540.325 255.947 546.606 251.956 548.904C249.75 550.114 248.18 549.831 247.789 547.395ZM237.532 545.242C237.532 548.904 239.309 550.911 242.021 549.348C244.733 547.785 246.617 543.772 246.617 540.072C246.617 536.51 244.802 534.71 241.983 536.334C239.309 537.85 237.532 541.734 237.532 545.242Z" fill="white"/>
<path d="M263.653 434.494C279.517 425.302 292.37 432.763 292.37 451.078C292.37 469.393 279.517 491.676 263.653 500.822C247.789 509.968 234.936 502.553 234.936 484.238C234.936 465.923 247.789 443.686 263.653 434.494Z" fill="white"/>
<path d="M263.653 434.494C279.517 425.302 292.37 432.763 292.37 451.078C292.37 469.393 279.517 491.676 263.653 500.822C247.789 509.968 234.936 502.553 234.936 484.238C234.936 465.923 247.789 443.686 263.653 434.494Z" fill="#F5F5F5"/>
<path d="M253.181 458.815C251.865 459.042 250.689 459.773 249.902 460.852C248.493 462.667 248.784 465.257 249.902 471.086L254.261 470.419L253.181 458.815Z" fill="#263238"/>
<path d="M278.582 450.235C279.561 449.974 280.485 449.538 281.309 448.948C282.65 447.822 282.995 449.255 282.259 450.772C281.772 451.853 281.074 452.826 280.208 453.636C279.341 454.446 278.323 455.076 277.211 455.49C277.165 455.306 275.955 452.426 275.955 452.426L278.582 450.235Z" fill="#263238"/>
<path d="M255.686 488.88C255.686 488.88 247.566 494.119 245.805 495.965C244.043 497.812 243.315 503.564 242.664 510.604C242.664 510.604 251.91 514.503 266.41 507.325C280.91 500.148 282.22 494.472 282.22 494.472C282.22 494.472 280.344 485.946 279.647 483.579C278.766 480.584 277.065 478.424 267.176 482.913L255.686 488.88Z" fill="#263238"/>
<path d="M255.227 470.167C254.576 470.726 253.657 469.73 252.86 469.11C252.064 468.489 249.459 468.045 248.157 471.132C246.855 474.219 249.842 477.176 251.604 477.934C252.207 478.187 252.87 478.26 253.514 478.143C254.157 478.026 254.752 477.725 255.227 477.275L255.687 488.88C255.687 488.88 257.985 492.856 264.266 492.028C270.547 491.201 269.238 484.889 267.185 482.913V480.523C267.185 480.523 270.425 480.308 271.949 479.497C272.769 479.06 274.714 476.18 275.971 473.208C278.561 467.733 279.152 461.524 277.641 455.659C275.396 446.712 265.139 449.171 259.027 454.655C252.914 460.14 255.227 470.167 255.227 470.167Z" fill="#FFA8A7"/>
<path d="M280.352 441.258C279.8 439.45 279.463 439.772 275.028 442.889C271.641 445.274 267.861 447.045 263.86 448.121C260.735 449.071 256.46 449.822 254.262 452.717C253.317 453.962 252.834 455.498 252.899 457.06C252.712 456.888 252.486 456.764 252.24 456.7C251.16 456.409 249.835 457.198 249.275 458.47L253.105 459.489C252.807 461.695 251.949 468.504 252.883 469.102C253.688 469.615 254.921 471.339 255.25 471.247C256.346 470.933 256.782 466.076 257.38 463.135C258.031 459.787 258.284 458.539 259.486 458.401C263.392 457.785 267.237 456.829 270.976 455.544C275.113 453.927 276.3 452.556 276.3 452.556L278.506 451.155C279.491 449.727 280.164 448.108 280.482 446.403C280.8 444.698 280.756 442.945 280.352 441.258Z" fill="#263238"/>
<path d="M267.169 480.523C267.169 480.523 261.371 480.914 259.348 480.377C258.184 480.1 257.176 479.373 256.545 478.355C256.832 479.42 257.379 480.397 258.138 481.197C259.617 482.729 267.169 482.07 267.169 482.07V480.523Z" fill="#F28F8F"/>
<path d="M265.69 473.79L268.34 474.073C268.231 474.466 267.996 474.813 267.671 475.059C267.345 475.305 266.948 475.438 266.54 475.437C265.805 475.36 265.43 474.625 265.69 473.79Z" fill="#F28F8F"/>
<path d="M269.52 463.449L269.903 470.335L273.556 468.121L269.52 463.449Z" fill="#F28F8F"/>
<path d="M265.774 465.9C265.767 466.245 265.651 466.578 265.444 466.853C265.236 467.128 264.947 467.331 264.618 467.432C264.48 467.479 264.333 467.492 264.189 467.468C264.046 467.444 263.91 467.386 263.795 467.297C263.679 467.208 263.588 467.092 263.528 466.959C263.469 466.826 263.443 466.681 263.453 466.536C263.462 466.191 263.58 465.857 263.789 465.582C263.998 465.307 264.288 465.105 264.618 465.004C264.755 464.956 264.902 464.943 265.045 464.967C265.189 464.991 265.324 465.049 265.439 465.138C265.554 465.227 265.645 465.344 265.703 465.477C265.762 465.61 265.786 465.755 265.774 465.9Z" fill="#263238"/>
<path d="M264.541 461.833L262.059 463.87C261.898 463.501 261.868 463.088 261.974 462.699C262.08 462.311 262.315 461.97 262.641 461.733C262.763 461.598 262.914 461.492 263.082 461.422C263.251 461.352 263.433 461.321 263.615 461.331C263.797 461.34 263.974 461.39 264.134 461.477C264.295 461.564 264.433 461.685 264.541 461.833Z" fill="#263238"/>
<path d="M276.138 459.688L273.84 458.554C274.013 458.2 274.308 457.92 274.671 457.766C275.035 457.613 275.441 457.596 275.816 457.719C275.973 457.822 276.106 457.957 276.208 458.114C276.31 458.271 276.378 458.448 276.409 458.633C276.439 458.818 276.43 459.007 276.384 459.189C276.337 459.37 276.253 459.54 276.138 459.688Z" fill="#263238"/>
<path d="M275.479 462.966C275.47 463.31 275.353 463.643 275.146 463.917C274.939 464.192 274.651 464.395 274.323 464.498C274.185 464.545 274.038 464.558 273.894 464.534C273.751 464.511 273.615 464.452 273.5 464.363C273.385 464.274 273.293 464.158 273.233 464.025C273.174 463.893 273.148 463.747 273.159 463.602C273.167 463.257 273.285 462.923 273.494 462.648C273.703 462.373 273.993 462.171 274.323 462.07C274.46 462.022 274.607 462.01 274.75 462.033C274.894 462.057 275.029 462.116 275.144 462.205C275.259 462.294 275.35 462.41 275.408 462.543C275.467 462.676 275.491 462.821 275.479 462.966Z" fill="#263238"/>
<path d="M127 753C124.284 753 122.08 755.194 122.022 757.896C119.621 757.608 118.057 756.711 117.098 755.826C116.034 754.845 115.697 753.974 115.697 753.974C115.648 753.85 115.567 753.741 115.462 753.659C115.357 753.577 115.232 753.525 115.1 753.507C114.968 753.489 114.833 753.507 114.71 753.558C114.588 753.61 114.481 753.693 114.401 753.8C114.401 753.8 113.5 755 113.5 756.75C113.5 757.75 113.816 758.491 114.193 759.118C114.179 759.112 114.085 759.079 114.085 759.079C113.966 759.019 113.832 758.993 113.699 759.002C113.566 759.011 113.437 759.055 113.327 759.131C113.217 759.206 113.128 759.31 113.071 759.431C113.015 759.551 112.991 759.685 113.003 759.818C113.003 759.818 113.292 761.928 115.276 763.471L115.069 763.522C114.956 763.551 114.852 763.604 114.764 763.679C114.675 763.754 114.606 763.849 114.56 763.956C114.515 764.062 114.495 764.178 114.501 764.293C114.508 764.409 114.541 764.521 114.599 764.622C114.599 764.622 114.935 765.191 115.64 765.79C116.058 766.145 116.671 766.512 117.395 766.851C116.506 767.175 115.182 767.5 113.25 767.5C113.106 767.5 112.965 767.541 112.844 767.62C112.723 767.698 112.627 767.809 112.567 767.94C112.507 768.071 112.487 768.217 112.508 768.36C112.529 768.502 112.591 768.636 112.686 768.744C112.686 768.744 113.259 769.376 114.392 769.925C115.525 770.474 117.27 771 119.75 771C124.11 771 127.242 768.909 129.197 766.258C131.152 763.607 132 760.431 132 758C132 757.846 131.991 757.694 131.977 757.543C133.032 756.526 133.428 755.761 133.447 755.724C133.542 755.533 133.507 755.304 133.36 755.152C133.213 755 132.985 754.957 132.791 755.046L132.71 755.083C132.641 755.115 132.571 755.147 132.501 755.179C132.705 754.854 132.865 754.507 132.977 754.148C133.039 753.95 132.972 753.733 132.808 753.605C132.644 753.477 132.418 753.464 132.24 753.572C131.629 753.944 131.043 754.204 130.434 754.378C129.536 753.527 128.329 753 127 753ZM127 754.5C128.942 754.5 130.5 756.058 130.5 758C130.5 760.069 129.723 763.018 127.99 765.367C126.258 767.716 123.64 769.5 119.75 769.5C117.868 769.5 116.615 769.159 115.677 768.791C116.66 768.638 117.506 768.435 118.114 768.199C119.169 767.791 119.738 767.319 119.738 767.319C119.843 767.23 119.921 767.113 119.963 766.982C120.006 766.851 120.012 766.711 119.98 766.578C119.948 766.444 119.88 766.321 119.784 766.223C119.687 766.125 119.565 766.056 119.432 766.022C118.07 765.682 117.197 765.132 116.65 764.673L117.432 764.478C117.586 764.439 117.725 764.352 117.827 764.229C117.929 764.107 117.989 763.955 117.999 763.796C118.009 763.637 117.967 763.479 117.881 763.344C117.795 763.21 117.668 763.107 117.52 763.05C115.897 762.426 115.216 761.543 114.867 760.804C115.291 760.891 115.686 761 116.25 761C116.419 761 116.583 760.943 116.715 760.838C116.848 760.733 116.941 760.586 116.98 760.422C117.018 760.258 117.001 760.085 116.929 759.932C116.857 759.779 116.736 759.655 116.585 759.579C116.585 759.579 115 758.85 115 756.75C115 756.373 115.105 756.134 115.181 755.849C115.442 756.2 115.658 756.539 116.08 756.929C117.368 758.116 119.495 759.327 122.71 759.499C122.812 759.504 122.914 759.489 123.009 759.454C123.105 759.419 123.192 759.364 123.266 759.294C123.34 759.224 123.399 759.14 123.439 759.046C123.479 758.953 123.5 758.852 123.5 758.75V758C123.5 756.058 125.059 754.5 127 754.5Z" fill="white"/>
<circle cx="78.5" cy="761.5" r="17.5" fill="#BA68C8"/>
<path d="M83.403 759H81V757C81 755.968 81.084 755.318 82.563 755.318H83.431C83.983 755.318 84.431 754.87 84.431 754.318V753.064C84.431 752.541 84.03 752.094 83.508 752.059C82.904 752.018 82.299 751.999 81.693 752C78.98 752 77 753.657 77 756.699V759H75C74.448 759 74 759.448 74 760V762C74 762.552 74.448 763 75 763L77 762.999V771C77 771.552 77.448 772 78 772H80C80.552 772 81 771.552 81 771V762.997L83.174 762.996C83.682 762.996 84.109 762.615 84.167 762.11L84.396 760.114C84.465 759.521 84.001 759 83.403 759Z" fill="white"/>
<path d="M174.553 752.997C174.301 753.009 174.063 753.082 173.852 753.164H173.849C173.636 753.249 172.619 753.677 171.075 754.324C169.531 754.975 167.527 755.818 165.538 756.656C161.565 758.329 157.66 759.976 157.66 759.976L157.707 759.958C157.707 759.958 157.437 760.046 157.156 760.239C157.013 760.333 156.854 760.462 156.717 760.664C156.579 760.866 156.468 761.177 156.509 761.496C156.576 762.038 156.928 762.363 157.18 762.542C157.434 762.724 157.678 762.809 157.678 762.809H157.683L161.346 764.042C161.51 764.569 162.462 767.698 162.69 768.419C162.825 768.85 162.957 769.119 163.121 769.324C163.2 769.43 163.294 769.518 163.405 769.588C163.449 769.614 163.496 769.635 163.543 769.652C163.557 769.661 163.572 769.664 163.59 769.667L163.552 769.658C163.563 769.661 163.572 769.67 163.581 769.673C163.61 769.682 163.631 769.685 163.669 769.69C164.249 769.866 164.715 769.506 164.715 769.506L164.741 769.485L166.903 767.517L170.527 770.297L170.609 770.332C171.365 770.663 172.13 770.479 172.534 770.153C172.941 769.825 173.099 769.406 173.099 769.406L173.126 769.339L175.927 754.992C176.006 754.638 176.026 754.307 175.938 753.984C175.85 753.662 175.625 753.36 175.352 753.199C175.077 753.035 174.805 752.985 174.553 752.997ZM174.476 754.535C174.473 754.582 174.482 754.576 174.462 754.667V754.676L171.687 768.873C171.676 768.894 171.655 768.937 171.599 768.981C171.541 769.028 171.494 769.058 171.251 768.961L166.818 765.562L164.14 768.003L164.703 764.411C164.703 764.411 171.646 757.939 171.945 757.661C172.244 757.383 172.144 757.324 172.144 757.324C172.165 756.984 171.693 757.225 171.693 757.225L162.561 762.882L162.558 762.867L158.181 761.394V761.391C158.179 761.391 158.173 761.388 158.17 761.388C158.173 761.388 158.193 761.379 158.193 761.379L158.217 761.367L158.24 761.358C158.24 761.358 162.148 759.712 166.121 758.039C168.11 757.201 170.114 756.357 171.655 755.707C173.196 755.06 174.336 754.585 174.4 754.559C174.462 754.535 174.432 754.535 174.476 754.535Z" fill="white"/>
<path d="M114.36 201.12C113.768 201.12 113.272 200.936 112.872 200.568C112.488 200.184 112.296 199.712 112.296 199.152C112.296 198.592 112.488 198.128 112.872 197.76C113.272 197.376 113.768 197.184 114.36 197.184C114.952 197.184 115.44 197.376 115.824 197.76C116.224 198.128 116.424 198.592 116.424 199.152C116.424 199.712 116.224 200.184 115.824 200.568C115.44 200.936 114.952 201.12 114.36 201.12ZM116.016 202.704V216H112.656V202.704H116.016ZM126.704 202.512C128.288 202.512 129.568 203.016 130.544 204.024C131.52 205.016 132.008 206.408 132.008 208.2V216H128.648V208.656C128.648 207.6 128.384 206.792 127.856 206.232C127.328 205.656 126.608 205.368 125.696 205.368C124.768 205.368 124.032 205.656 123.488 206.232C122.96 206.792 122.696 207.6 122.696 208.656V216H119.336V202.704H122.696V204.36C123.144 203.784 123.712 203.336 124.4 203.016C125.104 202.68 125.872 202.512 126.704 202.512ZM141.299 205.464H138.971V216H135.563V205.464H134.051V202.704H135.563V202.032C135.563 200.4 136.027 199.2 136.955 198.432C137.883 197.664 139.283 197.304 141.155 197.352V200.184C140.339 200.168 139.771 200.304 139.451 200.592C139.131 200.88 138.971 201.4 138.971 202.152V202.704H141.299V205.464ZM149.38 216.216C148.1 216.216 146.948 215.936 145.924 215.376C144.9 214.8 144.092 213.992 143.5 212.952C142.924 211.912 142.636 210.712 142.636 209.352C142.636 207.992 142.932 206.792 143.524 205.752C144.132 204.712 144.956 203.912 145.996 203.352C147.036 202.776 148.196 202.488 149.476 202.488C150.756 202.488 151.916 202.776 152.956 203.352C153.996 203.912 154.812 204.712 155.404 205.752C156.012 206.792 156.316 207.992 156.316 209.352C156.316 210.712 156.004 211.912 155.38 212.952C154.772 213.992 153.94 214.8 152.884 215.376C151.844 215.936 150.676 216.216 149.38 216.216ZM149.38 213.288C149.988 213.288 150.556 213.144 151.084 212.856C151.628 212.552 152.06 212.104 152.38 211.512C152.7 210.92 152.86 210.2 152.86 209.352C152.86 208.088 152.524 207.12 151.852 206.448C151.196 205.76 150.388 205.416 149.428 205.416C148.468 205.416 147.66 205.76 147.004 206.448C146.364 207.12 146.044 208.088 146.044 209.352C146.044 210.616 146.356 211.592 146.98 212.28C147.62 212.952 148.42 213.288 149.38 213.288ZM171.573 200.256C173.429 200.256 175.037 200.6 176.397 201.288C177.757 201.976 178.797 202.944 179.517 204.192C180.253 205.44 180.621 206.88 180.621 208.512C180.621 209.824 180.389 211.064 179.925 212.232C179.477 213.4 178.821 214.344 177.957 215.064C177.093 215.784 176.069 216.144 174.885 216.144C174.053 216.144 173.381 215.976 172.869 215.64C172.357 215.288 172.029 214.792 171.885 214.152C171.421 214.776 170.821 215.272 170.085 215.64C169.349 215.992 168.573 216.168 167.757 216.168C166.541 216.168 165.589 215.808 164.901 215.088C164.213 214.352 163.869 213.352 163.869 212.088C163.869 210.888 164.117 209.768 164.613 208.728C165.109 207.688 165.797 206.856 166.677 206.232C167.557 205.592 168.549 205.272 169.653 205.272C171.029 205.272 171.973 205.752 172.485 206.712L172.701 205.464H175.509L174.381 211.944C174.333 212.248 174.309 212.528 174.309 212.784C174.309 213.168 174.389 213.456 174.549 213.648C174.709 213.84 174.981 213.936 175.365 213.936C175.941 213.936 176.421 213.664 176.805 213.12C177.205 212.576 177.501 211.896 177.693 211.08C177.901 210.264 178.005 209.448 178.005 208.632C178.005 206.696 177.413 205.2 176.229 204.144C175.045 203.072 173.373 202.536 171.213 202.536C169.373 202.536 167.709 202.984 166.221 203.88C164.733 204.76 163.565 205.968 162.717 207.504C161.885 209.024 161.469 210.72 161.469 212.592C161.469 214.576 162.053 216.104 163.221 217.176C164.405 218.248 166.077 218.784 168.237 218.784C169.789 218.784 171.157 218.504 172.341 217.944L172.821 220.152C171.301 220.792 169.613 221.112 167.757 221.112C165.965 221.112 164.397 220.768 163.053 220.08C161.709 219.408 160.669 218.448 159.933 217.2C159.197 215.952 158.829 214.504 158.829 212.856C158.829 210.504 159.373 208.368 160.461 206.448C161.565 204.528 163.085 203.016 165.021 201.912C166.973 200.808 169.157 200.256 171.573 200.256ZM168.813 213.672C169.389 213.672 169.917 213.504 170.397 213.168C170.877 212.832 171.253 212.384 171.525 211.824C171.813 211.264 171.957 210.664 171.957 210.024C171.957 209.352 171.773 208.808 171.405 208.392C171.037 207.976 170.525 207.768 169.869 207.768C169.277 207.768 168.757 207.952 168.309 208.32C167.861 208.672 167.509 209.136 167.253 209.712C167.013 210.288 166.893 210.896 166.893 211.536C166.893 212.192 167.053 212.712 167.373 213.096C167.693 213.48 168.173 213.672 168.813 213.672ZM185.704 201.12C185.112 201.12 184.616 200.936 184.216 200.568C183.832 200.184 183.64 199.712 183.64 199.152C183.64 198.592 183.832 198.128 184.216 197.76C184.616 197.376 185.112 197.184 185.704 197.184C186.296 197.184 186.784 197.376 187.168 197.76C187.568 198.128 187.768 198.592 187.768 199.152C187.768 199.712 187.568 200.184 187.168 200.568C186.784 200.936 186.296 201.12 185.704 201.12ZM187.36 202.704V216H184V202.704H187.36ZM189.815 209.304C189.815 207.96 190.079 206.768 190.607 205.728C191.151 204.688 191.887 203.888 192.815 203.328C193.743 202.768 194.775 202.488 195.911 202.488C196.775 202.488 197.599 202.68 198.383 203.064C199.167 203.432 199.791 203.928 200.255 204.552V198.24H203.663V216H200.255V214.032C199.839 214.688 199.255 215.216 198.503 215.616C197.751 216.016 196.879 216.216 195.887 216.216C194.767 216.216 193.743 215.928 192.815 215.352C191.887 214.776 191.151 213.968 190.607 212.928C190.079 211.872 189.815 210.664 189.815 209.304ZM200.279 209.352C200.279 208.536 200.119 207.84 199.799 207.264C199.479 206.672 199.047 206.224 198.503 205.92C197.959 205.6 197.375 205.44 196.751 205.44C196.127 205.44 195.551 205.592 195.023 205.896C194.495 206.2 194.063 206.648 193.727 207.24C193.407 207.816 193.247 208.504 193.247 209.304C193.247 210.104 193.407 210.808 193.727 211.416C194.063 212.008 194.495 212.464 195.023 212.784C195.567 213.104 196.143 213.264 196.751 213.264C197.375 213.264 197.959 213.112 198.503 212.808C199.047 212.488 199.479 212.04 199.799 211.464C200.119 210.872 200.279 210.168 200.279 209.352ZM219.305 209.064C219.305 209.544 219.273 209.976 219.209 210.36H209.489C209.569 211.32 209.905 212.072 210.497 212.616C211.089 213.16 211.817 213.432 212.681 213.432C213.929 213.432 214.817 212.896 215.345 211.824H218.969C218.585 213.104 217.849 214.16 216.761 214.992C215.673 215.808 214.337 216.216 212.753 216.216C211.473 216.216 210.321 215.936 209.297 215.376C208.289 214.8 207.497 213.992 206.921 212.952C206.361 211.912 206.081 210.712 206.081 209.352C206.081 207.976 206.361 206.768 206.921 205.728C207.481 204.688 208.265 203.888 209.273 203.328C210.281 202.768 211.441 202.488 212.753 202.488C214.017 202.488 215.145 202.76 216.137 203.304C217.145 203.848 217.921 204.624 218.465 205.632C219.025 206.624 219.305 207.768 219.305 209.064ZM215.825 208.104C215.809 207.24 215.497 206.552 214.889 206.04C214.281 205.512 213.537 205.248 212.657 205.248C211.825 205.248 211.121 205.504 210.545 206.016C209.985 206.512 209.641 207.208 209.513 208.104H215.825ZM227.662 216.216C226.382 216.216 225.23 215.936 224.206 215.376C223.182 214.8 222.374 213.992 221.782 212.952C221.206 211.912 220.918 210.712 220.918 209.352C220.918 207.992 221.214 206.792 221.806 205.752C222.414 204.712 223.238 203.912 224.278 203.352C225.318 202.776 226.478 202.488 227.758 202.488C229.038 202.488 230.198 202.776 231.238 203.352C232.278 203.912 233.094 204.712 233.686 205.752C234.294 206.792 234.598 207.992 234.598 209.352C234.598 210.712 234.286 211.912 233.662 212.952C233.054 213.992 232.222 214.8 231.166 215.376C230.126 215.936 228.958 216.216 227.662 216.216ZM227.662 213.288C228.27 213.288 228.838 213.144 229.366 212.856C229.91 212.552 230.342 212.104 230.662 211.512C230.982 210.92 231.142 210.2 231.142 209.352C231.142 208.088 230.806 207.12 230.134 206.448C229.478 205.76 228.67 205.416 227.71 205.416C226.75 205.416 225.942 205.76 225.286 206.448C224.646 207.12 224.326 208.088 224.326 209.352C224.326 210.616 224.638 211.592 225.262 212.28C225.902 212.952 226.702 213.288 227.662 213.288ZM240.422 204.624C240.854 204.016 241.446 203.512 242.198 203.112C242.966 202.696 243.838 202.488 244.814 202.488C245.95 202.488 246.974 202.768 247.886 203.328C248.814 203.888 249.542 204.688 250.07 205.728C250.614 206.752 250.886 207.944 250.886 209.304C250.886 210.664 250.614 211.872 250.07 212.928C249.542 213.968 248.814 214.776 247.886 215.352C246.974 215.928 245.95 216.216 244.814 216.216C243.838 216.216 242.974 216.016 242.222 215.616C241.486 215.216 240.886 214.712 240.422 214.104V222.336H237.062V202.704H240.422V204.624ZM247.454 209.304C247.454 208.504 247.286 207.816 246.95 207.24C246.63 206.648 246.198 206.2 245.654 205.896C245.126 205.592 244.55 205.44 243.926 205.44C243.318 205.44 242.742 205.6 242.198 205.92C241.67 206.224 241.238 206.672 240.902 207.264C240.582 207.856 240.422 208.552 240.422 209.352C240.422 210.152 240.582 210.848 240.902 211.44C241.238 212.032 241.67 212.488 242.198 212.808C242.742 213.112 243.318 213.264 243.926 213.264C244.55 213.264 245.126 213.104 245.654 212.784C246.198 212.464 246.63 212.008 246.95 211.416C247.286 210.824 247.454 210.12 247.454 209.304ZM265.688 209.064C265.688 209.544 265.656 209.976 265.592 210.36H255.872C255.952 211.32 256.288 212.072 256.88 212.616C257.472 213.16 258.2 213.432 259.064 213.432C260.312 213.432 261.2 212.896 261.728 211.824H265.352C264.968 213.104 264.232 214.16 263.144 214.992C262.056 215.808 260.72 216.216 259.136 216.216C257.856 216.216 256.704 215.936 255.68 215.376C254.672 214.8 253.88 213.992 253.304 212.952C252.744 211.912 252.464 210.712 252.464 209.352C252.464 207.976 252.744 206.768 253.304 205.728C253.864 204.688 254.648 203.888 255.656 203.328C256.664 202.768 257.824 202.488 259.136 202.488C260.4 202.488 261.528 202.76 262.52 203.304C263.528 203.848 264.304 204.624 264.848 205.632C265.408 206.624 265.688 207.768 265.688 209.064ZM262.208 208.104C262.192 207.24 261.88 206.552 261.272 206.04C260.664 205.512 259.92 205.248 259.04 205.248C258.208 205.248 257.504 205.504 256.928 206.016C256.368 206.512 256.024 207.208 255.896 208.104H262.208ZM267.276 209.304C267.276 207.96 267.54 206.768 268.068 205.728C268.612 204.688 269.348 203.888 270.276 203.328C271.204 202.768 272.236 202.488 273.372 202.488C274.236 202.488 275.06 202.68 275.844 203.064C276.628 203.432 277.252 203.928 277.716 204.552V198.24H281.124V216H277.716V214.032C277.3 214.688 276.716 215.216 275.964 215.616C275.212 216.016 274.34 216.216 273.348 216.216C272.228 216.216 271.204 215.928 270.276 215.352C269.348 214.776 268.612 213.968 268.068 212.928C267.54 211.872 267.276 210.664 267.276 209.304ZM277.74 209.352C277.74 208.536 277.58 207.84 277.26 207.264C276.94 206.672 276.508 206.224 275.964 205.92C275.42 205.6 274.836 205.44 274.212 205.44C273.588 205.44 273.012 205.592 272.484 205.896C271.956 206.2 271.524 206.648 271.188 207.24C270.868 207.816 270.708 208.504 270.708 209.304C270.708 210.104 270.868 210.808 271.188 211.416C271.524 212.008 271.956 212.464 272.484 212.784C273.028 213.104 273.604 213.264 274.212 213.264C274.836 213.264 275.42 213.112 275.964 212.808C276.508 212.488 276.94 212.04 277.26 211.464C277.58 210.872 277.74 210.168 277.74 209.352ZM286.11 201.12C285.518 201.12 285.022 200.936 284.622 200.568C284.238 200.184 284.046 199.712 284.046 199.152C284.046 198.592 284.238 198.128 284.622 197.76C285.022 197.376 285.518 197.184 286.11 197.184C286.702 197.184 287.19 197.376 287.574 197.76C287.974 198.128 288.174 198.592 288.174 199.152C288.174 199.712 287.974 200.184 287.574 200.568C287.19 200.936 286.702 201.12 286.11 201.12ZM287.766 202.704V216H284.406V202.704H287.766ZM290.222 209.304C290.222 207.96 290.486 206.768 291.014 205.728C291.558 204.688 292.286 203.888 293.198 203.328C294.126 202.768 295.158 202.488 296.294 202.488C297.286 202.488 298.15 202.688 298.886 203.088C299.638 203.488 300.238 203.992 300.686 204.6V202.704H304.07V216H300.686V214.056C300.254 214.68 299.654 215.2 298.886 215.616C298.134 216.016 297.262 216.216 296.27 216.216C295.15 216.216 294.126 215.928 293.198 215.352C292.286 214.776 291.558 213.968 291.014 212.928C290.486 211.872 290.222 210.664 290.222 209.304ZM300.686 209.352C300.686 208.536 300.526 207.84 300.206 207.264C299.886 206.672 299.454 206.224 298.91 205.92C298.366 205.6 297.782 205.44 297.158 205.44C296.534 205.44 295.958 205.592 295.43 205.896C294.902 206.2 294.47 206.648 294.134 207.24C293.814 207.816 293.654 208.504 293.654 209.304C293.654 210.104 293.814 210.808 294.134 211.416C294.47 212.008 294.902 212.464 295.43 212.784C295.974 213.104 296.55 213.264 297.158 213.264C297.782 213.264 298.366 213.112 298.91 212.808C299.454 212.488 299.886 212.04 300.206 211.464C300.526 210.872 300.686 210.168 300.686 209.352ZM308.839 216.168C308.231 216.168 307.727 215.984 307.327 215.616C306.943 215.232 306.751 214.76 306.751 214.2C306.751 213.64 306.943 213.176 307.327 212.808C307.727 212.424 308.231 212.232 308.839 212.232C309.431 212.232 309.919 212.424 310.303 212.808C310.687 213.176 310.879 213.64 310.879 214.2C310.879 214.76 310.687 215.232 310.303 215.616C309.919 215.984 309.431 216.168 308.839 216.168ZM319.49 216.216C318.21 216.216 317.058 215.936 316.034 215.376C315.01 214.8 314.202 213.992 313.61 212.952C313.034 211.912 312.746 210.712 312.746 209.352C312.746 207.992 313.042 206.792 313.634 205.752C314.242 204.712 315.066 203.912 316.106 203.352C317.146 202.776 318.306 202.488 319.586 202.488C320.866 202.488 322.026 202.776 323.066 203.352C324.106 203.912 324.922 204.712 325.514 205.752C326.122 206.792 326.426 207.992 326.426 209.352C326.426 210.712 326.114 211.912 325.49 212.952C324.882 213.992 324.05 214.8 322.994 215.376C321.954 215.936 320.786 216.216 319.49 216.216ZM319.49 213.288C320.098 213.288 320.666 213.144 321.194 212.856C321.738 212.552 322.17 212.104 322.49 211.512C322.81 210.92 322.97 210.2 322.97 209.352C322.97 208.088 322.634 207.12 321.962 206.448C321.306 205.76 320.498 205.416 319.538 205.416C318.578 205.416 317.77 205.76 317.114 206.448C316.474 207.12 316.154 208.088 316.154 209.352C316.154 210.616 316.466 211.592 317.09 212.28C317.73 212.952 318.53 213.288 319.49 213.288ZM332.25 204.768C332.682 204.064 333.242 203.512 333.93 203.112C334.634 202.712 335.434 202.512 336.33 202.512V206.04H335.442C334.386 206.04 333.586 206.288 333.042 206.784C332.514 207.28 332.25 208.144 332.25 209.376V216H328.89V202.704H332.25V204.768ZM343.802 202.488C344.794 202.488 345.666 202.688 346.418 203.088C347.17 203.472 347.762 203.976 348.194 204.6V202.704H351.578V216.096C351.578 217.328 351.33 218.424 350.834 219.384C350.338 220.36 349.594 221.128 348.602 221.688C347.61 222.264 346.41 222.552 345.002 222.552C343.114 222.552 341.562 222.112 340.346 221.232C339.146 220.352 338.466 219.152 338.306 217.632H341.642C341.818 218.24 342.194 218.72 342.77 219.072C343.362 219.44 344.074 219.624 344.906 219.624C345.882 219.624 346.674 219.328 347.282 218.736C347.89 218.16 348.194 217.28 348.194 216.096V214.032C347.762 214.656 347.162 215.176 346.394 215.592C345.642 216.008 344.778 216.216 343.802 216.216C342.682 216.216 341.658 215.928 340.73 215.352C339.802 214.776 339.066 213.968 338.521 212.928C337.993 211.872 337.729 210.664 337.729 209.304C337.729 207.96 337.993 206.768 338.521 205.728C339.066 204.688 339.794 203.888 340.706 203.328C341.634 202.768 342.666 202.488 343.802 202.488ZM348.194 209.352C348.194 208.536 348.034 207.84 347.714 207.264C347.394 206.672 346.962 206.224 346.418 205.92C345.874 205.6 345.29 205.44 344.666 205.44C344.042 205.44 343.466 205.592 342.938 205.896C342.41 206.2 341.978 206.648 341.642 207.24C341.322 207.816 341.162 208.504 341.162 209.304C341.162 210.104 341.322 210.808 341.642 211.416C341.978 212.008 342.41 212.464 342.938 212.784C343.482 213.104 344.058 213.264 344.666 213.264C345.29 213.264 345.874 213.112 346.418 212.808C346.962 212.488 347.394 212.04 347.714 211.464C348.034 210.872 348.194 210.168 348.194 209.352Z" fill="white"/>
<path d="M114.36 280.12C113.768 280.12 113.272 279.936 112.872 279.568C112.488 279.184 112.296 278.712 112.296 278.152C112.296 277.592 112.488 277.128 112.872 276.76C113.272 276.376 113.768 276.184 114.36 276.184C114.952 276.184 115.44 276.376 115.824 276.76C116.224 277.128 116.424 277.592 116.424 278.152C116.424 278.712 116.224 279.184 115.824 279.568C115.44 279.936 114.952 280.12 114.36 280.12ZM116.016 281.704V295H112.656V281.704H116.016ZM126.704 281.512C128.288 281.512 129.568 282.016 130.544 283.024C131.52 284.016 132.008 285.408 132.008 287.2V295H128.648V287.656C128.648 286.6 128.384 285.792 127.856 285.232C127.328 284.656 126.608 284.368 125.696 284.368C124.768 284.368 124.032 284.656 123.488 285.232C122.96 285.792 122.696 286.6 122.696 287.656V295H119.336V281.704H122.696V283.36C123.144 282.784 123.712 282.336 124.4 282.016C125.104 281.68 125.872 281.512 126.704 281.512ZM141.299 284.464H138.971V295H135.563V284.464H134.051V281.704H135.563V281.032C135.563 279.4 136.027 278.2 136.955 277.432C137.883 276.664 139.283 276.304 141.155 276.352V279.184C140.339 279.168 139.771 279.304 139.451 279.592C139.131 279.88 138.971 280.4 138.971 281.152V281.704H141.299V284.464ZM149.38 295.216C148.1 295.216 146.948 294.936 145.924 294.376C144.9 293.8 144.092 292.992 143.5 291.952C142.924 290.912 142.636 289.712 142.636 288.352C142.636 286.992 142.932 285.792 143.524 284.752C144.132 283.712 144.956 282.912 145.996 282.352C147.036 281.776 148.196 281.488 149.476 281.488C150.756 281.488 151.916 281.776 152.956 282.352C153.996 282.912 154.812 283.712 155.404 284.752C156.012 285.792 156.316 286.992 156.316 288.352C156.316 289.712 156.004 290.912 155.38 291.952C154.772 292.992 153.94 293.8 152.884 294.376C151.844 294.936 150.676 295.216 149.38 295.216ZM149.38 292.288C149.988 292.288 150.556 292.144 151.084 291.856C151.628 291.552 152.06 291.104 152.38 290.512C152.7 289.92 152.86 289.2 152.86 288.352C152.86 287.088 152.524 286.12 151.852 285.448C151.196 284.76 150.388 284.416 149.428 284.416C148.468 284.416 147.66 284.76 147.004 285.448C146.364 286.12 146.044 287.088 146.044 288.352C146.044 289.616 146.356 290.592 146.98 291.28C147.62 291.952 148.42 292.288 149.38 292.288ZM171.573 279.256C173.429 279.256 175.037 279.6 176.397 280.288C177.757 280.976 178.797 281.944 179.517 283.192C180.253 284.44 180.621 285.88 180.621 287.512C180.621 288.824 180.389 290.064 179.925 291.232C179.477 292.4 178.821 293.344 177.957 294.064C177.093 294.784 176.069 295.144 174.885 295.144C174.053 295.144 173.381 294.976 172.869 294.64C172.357 294.288 172.029 293.792 171.885 293.152C171.421 293.776 170.821 294.272 170.085 294.64C169.349 294.992 168.573 295.168 167.757 295.168C166.541 295.168 165.589 294.808 164.901 294.088C164.213 293.352 163.869 292.352 163.869 291.088C163.869 289.888 164.117 288.768 164.613 287.728C165.109 286.688 165.797 285.856 166.677 285.232C167.557 284.592 168.549 284.272 169.653 284.272C171.029 284.272 171.973 284.752 172.485 285.712L172.701 284.464H175.509L174.381 290.944C174.333 291.248 174.309 291.528 174.309 291.784C174.309 292.168 174.389 292.456 174.549 292.648C174.709 292.84 174.981 292.936 175.365 292.936C175.941 292.936 176.421 292.664 176.805 292.12C177.205 291.576 177.501 290.896 177.693 290.08C177.901 289.264 178.005 288.448 178.005 287.632C178.005 285.696 177.413 284.2 176.229 283.144C175.045 282.072 173.373 281.536 171.213 281.536C169.373 281.536 167.709 281.984 166.221 282.88C164.733 283.76 163.565 284.968 162.717 286.504C161.885 288.024 161.469 289.72 161.469 291.592C161.469 293.576 162.053 295.104 163.221 296.176C164.405 297.248 166.077 297.784 168.237 297.784C169.789 297.784 171.157 297.504 172.341 296.944L172.821 299.152C171.301 299.792 169.613 300.112 167.757 300.112C165.965 300.112 164.397 299.768 163.053 299.08C161.709 298.408 160.669 297.448 159.933 296.2C159.197 294.952 158.829 293.504 158.829 291.856C158.829 289.504 159.373 287.368 160.461 285.448C161.565 283.528 163.085 282.016 165.021 280.912C166.973 279.808 169.157 279.256 171.573 279.256ZM168.813 292.672C169.389 292.672 169.917 292.504 170.397 292.168C170.877 291.832 171.253 291.384 171.525 290.824C171.813 290.264 171.957 289.664 171.957 289.024C171.957 288.352 171.773 287.808 171.405 287.392C171.037 286.976 170.525 286.768 169.869 286.768C169.277 286.768 168.757 286.952 168.309 287.32C167.861 287.672 167.509 288.136 167.253 288.712C167.013 289.288 166.893 289.896 166.893 290.536C166.893 291.192 167.053 291.712 167.373 292.096C167.693 292.48 168.173 292.672 168.813 292.672ZM185.704 280.12C185.112 280.12 184.616 279.936 184.216 279.568C183.832 279.184 183.64 278.712 183.64 278.152C183.64 277.592 183.832 277.128 184.216 276.76C184.616 276.376 185.112 276.184 185.704 276.184C186.296 276.184 186.784 276.376 187.168 276.76C187.568 277.128 187.768 277.592 187.768 278.152C187.768 278.712 187.568 279.184 187.168 279.568C186.784 279.936 186.296 280.12 185.704 280.12ZM187.36 281.704V295H184V281.704H187.36ZM189.815 288.304C189.815 286.96 190.079 285.768 190.607 284.728C191.151 283.688 191.887 282.888 192.815 282.328C193.743 281.768 194.775 281.488 195.911 281.488C196.775 281.488 197.599 281.68 198.383 282.064C199.167 282.432 199.791 282.928 200.255 283.552V277.24H203.663V295H200.255V293.032C199.839 293.688 199.255 294.216 198.503 294.616C197.751 295.016 196.879 295.216 195.887 295.216C194.767 295.216 193.743 294.928 192.815 294.352C191.887 293.776 191.151 292.968 190.607 291.928C190.079 290.872 189.815 289.664 189.815 288.304ZM200.279 288.352C200.279 287.536 200.119 286.84 199.799 286.264C199.479 285.672 199.047 285.224 198.503 284.92C197.959 284.6 197.375 284.44 196.751 284.44C196.127 284.44 195.551 284.592 195.023 284.896C194.495 285.2 194.063 285.648 193.727 286.24C193.407 286.816 193.247 287.504 193.247 288.304C193.247 289.104 193.407 289.808 193.727 290.416C194.063 291.008 194.495 291.464 195.023 291.784C195.567 292.104 196.143 292.264 196.751 292.264C197.375 292.264 197.959 292.112 198.503 291.808C199.047 291.488 199.479 291.04 199.799 290.464C200.119 289.872 200.279 289.168 200.279 288.352ZM219.305 288.064C219.305 288.544 219.273 288.976 219.209 289.36H209.489C209.569 290.32 209.905 291.072 210.497 291.616C211.089 292.16 211.817 292.432 212.681 292.432C213.929 292.432 214.817 291.896 215.345 290.824H218.969C218.585 292.104 217.849 293.16 216.761 293.992C215.673 294.808 214.337 295.216 212.753 295.216C211.473 295.216 210.321 294.936 209.297 294.376C208.289 293.8 207.497 292.992 206.921 291.952C206.361 290.912 206.081 289.712 206.081 288.352C206.081 286.976 206.361 285.768 206.921 284.728C207.481 283.688 208.265 282.888 209.273 282.328C210.281 281.768 211.441 281.488 212.753 281.488C214.017 281.488 215.145 281.76 216.137 282.304C217.145 282.848 217.921 283.624 218.465 284.632C219.025 285.624 219.305 286.768 219.305 288.064ZM215.825 287.104C215.809 286.24 215.497 285.552 214.889 285.04C214.281 284.512 213.537 284.248 212.657 284.248C211.825 284.248 211.121 284.504 210.545 285.016C209.985 285.512 209.641 286.208 209.513 287.104H215.825ZM227.662 295.216C226.382 295.216 225.23 294.936 224.206 294.376C223.182 293.8 222.374 292.992 221.782 291.952C221.206 290.912 220.918 289.712 220.918 288.352C220.918 286.992 221.214 285.792 221.806 284.752C222.414 283.712 223.238 282.912 224.278 282.352C225.318 281.776 226.478 281.488 227.758 281.488C229.038 281.488 230.198 281.776 231.238 282.352C232.278 282.912 233.094 283.712 233.686 284.752C234.294 285.792 234.598 286.992 234.598 288.352C234.598 289.712 234.286 290.912 233.662 291.952C233.054 292.992 232.222 293.8 231.166 294.376C230.126 294.936 228.958 295.216 227.662 295.216ZM227.662 292.288C228.27 292.288 228.838 292.144 229.366 291.856C229.91 291.552 230.342 291.104 230.662 290.512C230.982 289.92 231.142 289.2 231.142 288.352C231.142 287.088 230.806 286.12 230.134 285.448C229.478 284.76 228.67 284.416 227.71 284.416C226.75 284.416 225.942 284.76 225.286 285.448C224.646 286.12 224.326 287.088 224.326 288.352C224.326 289.616 224.638 290.592 225.262 291.28C225.902 291.952 226.702 292.288 227.662 292.288ZM240.422 283.624C240.854 283.016 241.446 282.512 242.198 282.112C242.966 281.696 243.838 281.488 244.814 281.488C245.95 281.488 246.974 281.768 247.886 282.328C248.814 282.888 249.542 283.688 250.07 284.728C250.614 285.752 250.886 286.944 250.886 288.304C250.886 289.664 250.614 290.872 250.07 291.928C249.542 292.968 248.814 293.776 247.886 294.352C246.974 294.928 245.95 295.216 244.814 295.216C243.838 295.216 242.974 295.016 242.222 294.616C241.486 294.216 240.886 293.712 240.422 293.104V301.336H237.062V281.704H240.422V283.624ZM247.454 288.304C247.454 287.504 247.286 286.816 246.95 286.24C246.63 285.648 246.198 285.2 245.654 284.896C245.126 284.592 244.55 284.44 243.926 284.44C243.318 284.44 242.742 284.6 242.198 284.92C241.67 285.224 241.238 285.672 240.902 286.264C240.582 286.856 240.422 287.552 240.422 288.352C240.422 289.152 240.582 289.848 240.902 290.44C241.238 291.032 241.67 291.488 242.198 291.808C242.742 292.112 243.318 292.264 243.926 292.264C244.55 292.264 245.126 292.104 245.654 291.784C246.198 291.464 246.63 291.008 246.95 290.416C247.286 289.824 247.454 289.12 247.454 288.304ZM265.688 288.064C265.688 288.544 265.656 288.976 265.592 289.36H255.872C255.952 290.32 256.288 291.072 256.88 291.616C257.472 292.16 258.2 292.432 259.064 292.432C260.312 292.432 261.2 291.896 261.728 290.824H265.352C264.968 292.104 264.232 293.16 263.144 293.992C262.056 294.808 260.72 295.216 259.136 295.216C257.856 295.216 256.704 294.936 255.68 294.376C254.672 293.8 253.88 292.992 253.304 291.952C252.744 290.912 252.464 289.712 252.464 288.352C252.464 286.976 252.744 285.768 253.304 284.728C253.864 283.688 254.648 282.888 255.656 282.328C256.664 281.768 257.824 281.488 259.136 281.488C260.4 281.488 261.528 281.76 262.52 282.304C263.528 282.848 264.304 283.624 264.848 284.632C265.408 285.624 265.688 286.768 265.688 288.064ZM262.208 287.104C262.192 286.24 261.88 285.552 261.272 285.04C260.664 284.512 259.92 284.248 259.04 284.248C258.208 284.248 257.504 284.504 256.928 285.016C256.368 285.512 256.024 286.208 255.896 287.104H262.208ZM267.276 288.304C267.276 286.96 267.54 285.768 268.068 284.728C268.612 283.688 269.348 282.888 270.276 282.328C271.204 281.768 272.236 281.488 273.372 281.488C274.236 281.488 275.06 281.68 275.844 282.064C276.628 282.432 277.252 282.928 277.716 283.552V277.24H281.124V295H277.716V293.032C277.3 293.688 276.716 294.216 275.964 294.616C275.212 295.016 274.34 295.216 273.348 295.216C272.228 295.216 271.204 294.928 270.276 294.352C269.348 293.776 268.612 292.968 268.068 291.928C267.54 290.872 267.276 289.664 267.276 288.304ZM277.74 288.352C277.74 287.536 277.58 286.84 277.26 286.264C276.94 285.672 276.508 285.224 275.964 284.92C275.42 284.6 274.836 284.44 274.212 284.44C273.588 284.44 273.012 284.592 272.484 284.896C271.956 285.2 271.524 285.648 271.188 286.24C270.868 286.816 270.708 287.504 270.708 288.304C270.708 289.104 270.868 289.808 271.188 290.416C271.524 291.008 271.956 291.464 272.484 291.784C273.028 292.104 273.604 292.264 274.212 292.264C274.836 292.264 275.42 292.112 275.964 291.808C276.508 291.488 276.94 291.04 277.26 290.464C277.58 289.872 277.74 289.168 277.74 288.352ZM286.11 280.12C285.518 280.12 285.022 279.936 284.622 279.568C284.238 279.184 284.046 278.712 284.046 278.152C284.046 277.592 284.238 277.128 284.622 276.76C285.022 276.376 285.518 276.184 286.11 276.184C286.702 276.184 287.19 276.376 287.574 276.76C287.974 277.128 288.174 277.592 288.174 278.152C288.174 278.712 287.974 279.184 287.574 279.568C287.19 279.936 286.702 280.12 286.11 280.12ZM287.766 281.704V295H284.406V281.704H287.766ZM290.222 288.304C290.222 286.96 290.486 285.768 291.014 284.728C291.558 283.688 292.286 282.888 293.198 282.328C294.126 281.768 295.158 281.488 296.294 281.488C297.286 281.488 298.15 281.688 298.886 282.088C299.638 282.488 300.238 282.992 300.686 283.6V281.704H304.07V295H300.686V293.056C300.254 293.68 299.654 294.2 298.886 294.616C298.134 295.016 297.262 295.216 296.27 295.216C295.15 295.216 294.126 294.928 293.198 294.352C292.286 293.776 291.558 292.968 291.014 291.928C290.486 290.872 290.222 289.664 290.222 288.304ZM300.686 288.352C300.686 287.536 300.526 286.84 300.206 286.264C299.886 285.672 299.454 285.224 298.91 284.92C298.366 284.6 297.782 284.44 297.158 284.44C296.534 284.44 295.958 284.592 295.43 284.896C294.902 285.2 294.47 285.648 294.134 286.24C293.814 286.816 293.654 287.504 293.654 288.304C293.654 289.104 293.814 289.808 294.134 290.416C294.47 291.008 294.902 291.464 295.43 291.784C295.974 292.104 296.55 292.264 297.158 292.264C297.782 292.264 298.366 292.112 298.91 291.808C299.454 291.488 299.886 291.04 300.206 290.464C300.526 289.872 300.686 289.168 300.686 288.352ZM308.839 295.168C308.231 295.168 307.727 294.984 307.327 294.616C306.943 294.232 306.751 293.76 306.751 293.2C306.751 292.64 306.943 292.176 307.327 291.808C307.727 291.424 308.231 291.232 308.839 291.232C309.431 291.232 309.919 291.424 310.303 291.808C310.687 292.176 310.879 292.64 310.879 293.2C310.879 293.76 310.687 294.232 310.303 294.616C309.919 294.984 309.431 295.168 308.839 295.168ZM319.49 295.216C318.21 295.216 317.058 294.936 316.034 294.376C315.01 293.8 314.202 292.992 313.61 291.952C313.034 290.912 312.746 289.712 312.746 288.352C312.746 286.992 313.042 285.792 313.634 284.752C314.242 283.712 315.066 282.912 316.106 282.352C317.146 281.776 318.306 281.488 319.586 281.488C320.866 281.488 322.026 281.776 323.066 282.352C324.106 282.912 324.922 283.712 325.514 284.752C326.122 285.792 326.426 286.992 326.426 288.352C326.426 289.712 326.114 290.912 325.49 291.952C324.882 292.992 324.05 293.8 322.994 294.376C321.954 294.936 320.786 295.216 319.49 295.216ZM319.49 292.288C320.098 292.288 320.666 292.144 321.194 291.856C321.738 291.552 322.17 291.104 322.49 290.512C322.81 289.92 322.97 289.2 322.97 288.352C322.97 287.088 322.634 286.12 321.962 285.448C321.306 284.76 320.498 284.416 319.538 284.416C318.578 284.416 317.77 284.76 317.114 285.448C316.474 286.12 316.154 287.088 316.154 288.352C316.154 289.616 316.466 290.592 317.09 291.28C317.73 291.952 318.53 292.288 319.49 292.288ZM332.25 283.768C332.682 283.064 333.242 282.512 333.93 282.112C334.634 281.712 335.434 281.512 336.33 281.512V285.04H335.442C334.386 285.04 333.586 285.288 333.042 285.784C332.514 286.28 332.25 287.144 332.25 288.376V295H328.89V281.704H332.25V283.768ZM343.802 281.488C344.794 281.488 345.666 281.688 346.418 282.088C347.17 282.472 347.762 282.976 348.194 283.6V281.704H351.578V295.096C351.578 296.328 351.33 297.424 350.834 298.384C350.338 299.36 349.594 300.128 348.602 300.688C347.61 301.264 346.41 301.552 345.002 301.552C343.114 301.552 341.562 301.112 340.346 300.232C339.146 299.352 338.466 298.152 338.306 296.632H341.642C341.818 297.24 342.194 297.72 342.77 298.072C343.362 298.44 344.074 298.624 344.906 298.624C345.882 298.624 346.674 298.328 347.282 297.736C347.89 297.16 348.194 296.28 348.194 295.096V293.032C347.762 293.656 347.162 294.176 346.394 294.592C345.642 295.008 344.778 295.216 343.802 295.216C342.682 295.216 341.658 294.928 340.73 294.352C339.802 293.776 339.066 292.968 338.521 291.928C337.993 290.872 337.729 289.664 337.729 288.304C337.729 286.96 337.993 285.768 338.521 284.728C339.066 283.688 339.794 282.888 340.706 282.328C341.634 281.768 342.666 281.488 343.802 281.488ZM348.194 288.352C348.194 287.536 348.034 286.84 347.714 286.264C347.394 285.672 346.962 285.224 346.418 284.92C345.874 284.6 345.29 284.44 344.666 284.44C344.042 284.44 343.466 284.592 342.938 284.896C342.41 285.2 341.978 285.648 341.642 286.24C341.322 286.816 341.162 287.504 341.162 288.304C341.162 289.104 341.322 289.808 341.642 290.416C341.978 291.008 342.41 291.464 342.938 291.784C343.482 292.104 344.058 292.264 344.666 292.264C345.29 292.264 345.874 292.112 346.418 291.808C346.962 291.488 347.394 291.04 347.714 290.464C348.034 289.872 348.194 289.168 348.194 288.352Z" fill="white"/>
<defs>
<filter id="filter0_d_0_1" x="-24" y="-24" width="1380" height="860" filterUnits="userSpaceOnUse" color-interpolation-filters="sRGB">
<feFlood flood-opacity="0" result="BackgroundImageFix"/>
<feColorMatrix in="SourceAlpha" type="matrix" values="0 0 0 0 0 0 0 0 0 0 0 0 0 0 0 0 0 0 127 0" result="hardAlpha"/>
<feOffset dx="5" dy="5"/>
<feGaussianBlur stdDeviation="15"/>
<feComposite in2="hardAlpha" operator="out"/>
<feColorMatrix type="matrix" values="0 0 0 0 0 0 0 0 0 0 0 0 0 0 0 0 0 0 0.1 0"/>
<feBlend mode="normal" in2="BackgroundImageFix" result="effect1_dropShadow_0_1"/>
<feBlend mode="normal" in="SourceGraphic" in2="effect1_dropShadow_0_1" result="shape"/>
</filter>
</defs>
</svg>
