<svg width="190" height="140" viewBox="0 0 190 140" fill="none" xmlns="http://www.w3.org/2000/svg">
<g clip-path="url(#clip0_141_1008)">
<rect width="200" height="170" fill="#2CB67D"/>
<path d="M-15.9692 19.4766C-34.1084 -46.2539 33.0858 -52.9445 81.5778 -33.0973C109.871 -22.8901 128.451 -54.6336 163.5 -41.9652C198.55 -29.2968 156.533 10.6088 210.162 31.0894C263.792 51.5701 237.611 143.205 190.737 144.261C143.864 145.316 156.744 160.73 109.871 195.99C62.9974 231.251 -15.9691 182.266 3.66692 130.537C23.303 78.8071 3.6667 90.631 -15.9692 19.4766Z" stroke="white" stroke-opacity="0.05" stroke-width="1.09076"/>
<path d="M84.9124 70.6312C82.8194 64.3707 92.6224 54.271 100.505 58.5813C107.723 62.5283 115.074 59.8663 119.93 61.6259C132.714 66.2583 128.012 68.7104 133.727 74.2122C140.681 80.9071 144 98.4381 128.012 98.4381C114.862 98.4381 118.797 104.825 108.951 107.654C99.1041 110.484 87.9377 105.667 87.9377 92.9856C87.9377 88.2232 88.3982 81.0582 84.9124 70.6312Z" stroke="white" stroke-opacity="0.05" stroke-width="1.09076"/>
<path d="M-6.79911 23.8077C-23.4795 -36.5165 38.4973 -43.517 83.2975 -25.0822C109.674 -15.4442 127.234 -44.5439 159.538 -32.8672C192.564 -20.9293 153.939 15.5714 203.213 34.6903C252.599 53.9177 229.1 138.816 185.034 139.776C141.227 140.735 153.293 155.328 109.786 187.64C66.2789 219.952 -6.52398 174.983 11.327 126.803C29.1779 79.3438 11.3686 89.4414 -6.79911 23.8077Z" stroke="white" stroke-opacity="0.05" stroke-width="1.09076"/>
<path d="M2.37107 28.1394C-12.8506 -26.7784 43.9089 -34.0888 85.0173 -17.0665C109.478 -7.99754 126.017 -34.4535 155.577 -23.7685C186.578 -12.5611 151.345 20.5347 196.263 38.2919C241.407 56.2661 220.589 134.428 179.331 135.291C138.589 136.155 149.843 149.927 109.701 179.291C69.5605 208.655 2.92121 167.701 18.9871 123.071C35.0529 79.8811 19.0706 88.2525 2.37107 28.1394Z" stroke="white" stroke-opacity="0.05" stroke-width="1.09076"/>
<path d="M11.5393 32.4709C-2.22356 -17.0405 49.3185 -24.6608 86.7351 -9.05099C109.28 -0.551155 124.798 -24.3633 151.613 -14.67C180.59 -4.19323 148.75 25.4978 189.312 41.8932C230.212 58.6141 212.076 130.039 173.626 130.807C135.95 131.574 146.39 144.526 109.615 170.942C72.8401 197.357 12.3645 160.418 26.6453 119.338C40.926 80.4182 26.7707 87.0633 11.5393 32.4709Z" stroke="white" stroke-opacity="0.05" stroke-width="1.09076"/>
<path d="M20.7097 36.802C8.40549 -7.30305 54.7302 -15.2333 88.4551 -1.0359C109.084 6.89483 123.581 -14.2736 147.651 -5.57198C174.604 4.17427 146.156 30.4604 182.362 45.4942C219.019 60.9618 203.565 125.65 167.923 126.322C133.313 126.993 142.94 139.124 109.531 162.592C76.1218 186.059 21.8098 153.136 34.3055 115.605C46.8012 80.9549 34.4728 85.8737 20.7097 36.802Z" stroke="white" stroke-opacity="0.05" stroke-width="1.09076"/>
<path d="M29.8801 41.3533C19.0347 2.65459 60.1419 -5.58559 90.1751 7.19936C108.889 14.561 122.364 -3.96364 143.69 3.74624C168.619 12.7619 143.563 35.6432 175.413 49.3153C207.827 63.5297 195.054 121.481 162.22 122.057C130.676 122.633 139.489 133.943 109.446 154.462C79.4036 174.981 31.2553 146.073 41.9658 112.093C52.6764 81.7117 42.175 84.9043 29.8801 41.3533Z" stroke="white" stroke-opacity="0.05" stroke-width="1.09076"/>
<path d="M39.0506 46.1648C29.664 12.8724 65.5539 4.32235 91.8952 15.6948C108.693 22.4874 121.148 6.60651 139.728 13.3247C162.633 21.6098 140.969 41.0862 168.464 53.3966C196.634 66.3577 186.544 117.572 156.517 118.052C128.039 118.532 136.039 129.022 109.362 146.593C82.6855 164.164 40.7008 139.271 49.6263 108.84C58.5518 82.7288 49.8774 84.1951 39.0506 46.1648Z" stroke="white" stroke-opacity="0.05" stroke-width="1.09076"/>
<path d="M48.2214 50.9899C40.2935 23.104 70.966 14.2439 93.6156 24.204C108.497 30.4274 119.931 17.1903 135.767 22.9168C156.648 30.4714 138.376 46.5429 161.515 57.4915C185.442 69.1994 178.033 113.677 150.814 114.061C125.402 114.445 132.589 124.114 109.278 138.737C85.9677 153.36 50.1466 132.482 57.287 105.601C64.4274 83.7595 57.58 83.4996 48.2214 50.9899Z" stroke="white" stroke-opacity="0.05" stroke-width="1.09076"/>
<path d="M57.3926 55.8362C50.9234 33.3566 76.3785 24.1867 95.3364 32.7343C108.302 38.3886 118.715 27.7953 131.806 32.53C150.663 39.3541 135.784 52.0207 154.566 61.6077C174.25 72.0623 169.523 109.803 145.112 110.091C122.765 110.379 129.139 119.228 109.195 130.902C89.2502 142.577 59.5928 125.714 64.9481 102.383C70.3034 84.8114 65.283 82.8252 57.3926 55.8362Z" stroke="white" stroke-opacity="0.05" stroke-width="1.09076"/>
<path d="M66.5634 60.7126C61.553 43.6394 81.7907 34.1596 97.0568 41.2947C108.107 46.3799 117.499 38.4304 127.845 42.1734C144.678 48.2669 133.191 57.5287 147.617 65.7539C163.058 74.9553 161.013 105.96 139.41 106.152C120.129 106.344 125.689 114.371 109.111 123.098C92.5324 131.824 69.0387 118.977 72.6089 99.1953C76.1791 85.8934 72.9856 82.181 66.5634 60.7126Z" stroke="white" stroke-opacity="0.05" stroke-width="1.09076"/>
<path d="M75.7375 65.6358C72.1859 53.969 87.2062 44.1792 98.7805 49.9019C107.915 54.418 116.286 49.1122 123.887 51.8636C138.696 57.2265 130.601 63.0835 140.672 69.947C151.869 77.8951 152.506 102.163 133.71 102.259C117.495 102.355 122.243 109.562 109.03 115.34C95.818 121.118 78.4878 112.286 80.2729 96.0543C82.058 87.0222 80.6915 81.5835 75.7375 65.6358Z" stroke="white" stroke-opacity="0.05" stroke-width="1.09076"/>
<path d="M59.44 33.272C60.0693 33.3893 60.5867 33.704 60.992 34.216C61.3973 34.728 61.6 35.3147 61.6 35.976C61.6 36.5733 61.4507 37.1013 61.152 37.56C60.864 38.008 60.4427 38.36 59.888 38.616C59.3333 38.872 58.6773 39 57.92 39H53.104V27.832H57.712C58.4693 27.832 59.12 27.9547 59.664 28.2C60.2187 28.4453 60.6347 28.7867 60.912 29.224C61.2 29.6613 61.344 30.1573 61.344 30.712C61.344 31.3627 61.168 31.9067 60.816 32.344C60.4747 32.7813 60.016 33.0907 59.44 33.272ZM55.344 32.44H57.392C57.9253 32.44 58.336 32.3227 58.624 32.088C58.912 31.8427 59.056 31.496 59.056 31.048C59.056 30.6 58.912 30.2533 58.624 30.008C58.336 29.7627 57.9253 29.64 57.392 29.64H55.344V32.44ZM57.6 37.176C58.144 37.176 58.5653 37.048 58.864 36.792C59.1733 36.536 59.328 36.1733 59.328 35.704C59.328 35.224 59.168 34.8507 58.848 34.584C58.528 34.3067 58.096 34.168 57.552 34.168H55.344V37.176H57.6ZM67.3213 39.144C66.4679 39.144 65.6999 38.9573 65.0173 38.584C64.3346 38.2 63.7959 37.6613 63.4013 36.968C63.0173 36.2747 62.8253 35.4747 62.8253 34.568C62.8253 33.6613 63.0226 32.8613 63.4173 32.168C63.8226 31.4747 64.3719 30.9413 65.0653 30.568C65.7586 30.184 66.5319 29.992 67.3853 29.992C68.2386 29.992 69.0119 30.184 69.7053 30.568C70.3986 30.9413 70.9426 31.4747 71.3373 32.168C71.7426 32.8613 71.9453 33.6613 71.9453 34.568C71.9453 35.4747 71.7373 36.2747 71.3212 36.968C70.9159 37.6613 70.3613 38.2 69.6573 38.584C68.9639 38.9573 68.1853 39.144 67.3213 39.144ZM67.3213 37.192C67.7266 37.192 68.1053 37.096 68.4573 36.904C68.8199 36.7013 69.1079 36.4027 69.3213 36.008C69.5346 35.6133 69.6413 35.1333 69.6413 34.568C69.6413 33.7253 69.4173 33.08 68.9693 32.632C68.5319 32.1733 67.9933 31.944 67.3533 31.944C66.7133 31.944 66.1746 32.1733 65.7373 32.632C65.3106 33.08 65.0973 33.7253 65.0973 34.568C65.0973 35.4107 65.3053 36.0613 65.7213 36.52C66.1479 36.968 66.6813 37.192 67.3213 37.192ZM77.5244 39.144C76.671 39.144 75.903 38.9573 75.2204 38.584C74.5377 38.2 73.999 37.6613 73.6044 36.968C73.2204 36.2747 73.0284 35.4747 73.0284 34.568C73.0284 33.6613 73.2257 32.8613 73.6204 32.168C74.0257 31.4747 74.575 30.9413 75.2684 30.568C75.9617 30.184 76.735 29.992 77.5884 29.992C78.4417 29.992 79.215 30.184 79.9084 30.568C80.6017 30.9413 81.1457 31.4747 81.5404 32.168C81.9457 32.8613 82.1484 33.6613 82.1484 34.568C82.1484 35.4747 81.9404 36.2747 81.5244 36.968C81.119 37.6613 80.5644 38.2 79.8604 38.584C79.167 38.9573 78.3884 39.144 77.5244 39.144ZM77.5244 37.192C77.9297 37.192 78.3084 37.096 78.6604 36.904C79.023 36.7013 79.311 36.4027 79.5244 36.008C79.7377 35.6133 79.8444 35.1333 79.8444 34.568C79.8444 33.7253 79.6204 33.08 79.1724 32.632C78.735 32.1733 78.1964 31.944 77.5564 31.944C76.9164 31.944 76.3777 32.1733 75.9404 32.632C75.5137 33.08 75.3004 33.7253 75.3004 34.568C75.3004 35.4107 75.5084 36.0613 75.9244 36.52C76.351 36.968 76.8844 37.192 77.5244 37.192ZM89.0395 39L86.0315 35.224V39H83.7915V27.16H86.0315V33.896L89.0075 30.136H91.9195L88.0155 34.584L91.9515 39H89.0395ZM96.5273 39.144C95.8019 39.144 95.1513 39.016 94.5753 38.76C93.9993 38.4933 93.5406 38.136 93.1993 37.688C92.8686 37.24 92.6873 36.744 92.6553 36.2H94.9113C94.9539 36.5413 95.1193 36.824 95.4073 37.048C95.7059 37.272 96.0739 37.384 96.5113 37.384C96.9379 37.384 97.2686 37.2987 97.5033 37.128C97.7486 36.9573 97.8713 36.7387 97.8713 36.472C97.8713 36.184 97.7219 35.9707 97.4233 35.832C97.1353 35.6827 96.6713 35.5227 96.0312 35.352C95.3699 35.192 94.8259 35.0267 94.3993 34.856C93.9833 34.6853 93.6206 34.424 93.3113 34.072C93.0126 33.72 92.8633 33.2453 92.8633 32.648C92.8633 32.1573 93.0019 31.7093 93.2793 31.304C93.5673 30.8987 93.9726 30.5787 94.4953 30.344C95.0286 30.1093 95.6526 29.992 96.3673 29.992C97.4233 29.992 98.2659 30.2587 98.8953 30.792C99.5246 31.3147 99.8713 32.024 99.9353 32.92H97.7913C97.7593 32.568 97.6099 32.2907 97.3433 32.088C97.0873 31.8747 96.7406 31.768 96.3033 31.768C95.8979 31.768 95.5833 31.8427 95.3593 31.992C95.1459 32.1413 95.0393 32.3493 95.0393 32.616C95.0393 32.9147 95.1886 33.144 95.4873 33.304C95.7859 33.4533 96.2499 33.608 96.8793 33.768C97.5193 33.928 98.0473 34.0933 98.4633 34.264C98.8793 34.4347 99.2366 34.7013 99.5353 35.064C99.8446 35.416 100.005 35.8853 100.015 36.472C100.015 36.984 99.8713 37.4427 99.5833 37.848C99.3059 38.2533 98.9006 38.5733 98.3673 38.808C97.8446 39.032 97.2313 39.144 96.5273 39.144ZM111.427 39L108.963 34.648H107.907V39H105.667V27.832H109.859C110.723 27.832 111.459 27.9867 112.067 28.296C112.675 28.5947 113.128 29.0053 113.427 29.528C113.736 30.04 113.891 30.616 113.891 31.256C113.891 31.992 113.677 32.6587 113.251 33.256C112.824 33.8427 112.189 34.248 111.347 34.472L114.019 39H111.427ZM107.907 32.968H109.779C110.387 32.968 110.84 32.824 111.139 32.536C111.437 32.2373 111.587 31.8267 111.587 31.304C111.587 30.792 111.437 30.3973 111.139 30.12C110.84 29.832 110.387 29.688 109.779 29.688H107.907V32.968ZM124.157 34.376C124.157 34.696 124.135 34.984 124.093 35.24H117.613C117.666 35.88 117.89 36.3813 118.285 36.744C118.679 37.1067 119.165 37.288 119.741 37.288C120.573 37.288 121.165 36.9307 121.517 36.216H123.933C123.677 37.0693 123.186 37.7733 122.461 38.328C121.735 38.872 120.845 39.144 119.789 39.144C118.935 39.144 118.167 38.9573 117.485 38.584C116.813 38.2 116.285 37.6613 115.901 36.968C115.527 36.2747 115.34 35.4747 115.34 34.568C115.34 33.6507 115.527 32.8453 115.901 32.152C116.274 31.4587 116.797 30.9253 117.469 30.552C118.141 30.1787 118.914 29.992 119.789 29.992C120.631 29.992 121.383 30.1733 122.045 30.536C122.717 30.8987 123.234 31.416 123.597 32.088C123.97 32.7493 124.157 33.512 124.157 34.376ZM121.837 33.736C121.826 33.16 121.618 32.7013 121.213 32.36C120.807 32.008 120.311 31.832 119.725 31.832C119.17 31.832 118.701 32.0027 118.317 32.344C117.943 32.6747 117.714 33.1387 117.629 33.736H121.837ZM125.215 34.536C125.215 33.64 125.391 32.8453 125.743 32.152C126.106 31.4587 126.592 30.9253 127.2 30.552C127.818 30.1787 128.506 29.992 129.264 29.992C129.925 29.992 130.501 30.1253 130.992 30.392C131.493 30.6587 131.893 30.9947 132.192 31.4V30.136H134.448V39H132.192V37.704C131.904 38.12 131.504 38.4667 130.992 38.744C130.49 39.0107 129.909 39.144 129.248 39.144C128.501 39.144 127.818 38.952 127.2 38.568C126.592 38.184 126.106 37.6453 125.743 36.952C125.391 36.248 125.215 35.4427 125.215 34.536ZM132.192 34.568C132.192 34.024 132.085 33.56 131.872 33.176C131.658 32.7813 131.37 32.4827 131.008 32.28C130.645 32.0667 130.256 31.96 129.84 31.96C129.424 31.96 129.04 32.0613 128.688 32.264C128.336 32.4667 128.048 32.7653 127.824 33.16C127.61 33.544 127.504 34.0027 127.504 34.536C127.504 35.0693 127.61 35.5387 127.824 35.944C128.048 36.3387 128.336 36.6427 128.688 36.856C129.05 37.0693 129.434 37.176 129.84 37.176C130.256 37.176 130.645 37.0747 131.008 36.872C131.37 36.6587 131.658 36.36 131.872 35.976C132.085 35.5813 132.192 35.112 132.192 34.568ZM136.059 34.536C136.059 33.64 136.235 32.8453 136.587 32.152C136.95 31.4587 137.441 30.9253 138.059 30.552C138.678 30.1787 139.366 29.992 140.123 29.992C140.699 29.992 141.249 30.12 141.771 30.376C142.294 30.6213 142.71 30.952 143.019 31.368V27.16H145.291V39H143.019V37.688C142.742 38.1253 142.353 38.4773 141.851 38.744C141.35 39.0107 140.769 39.144 140.107 39.144C139.361 39.144 138.678 38.952 138.059 38.568C137.441 38.184 136.95 37.6453 136.587 36.952C136.235 36.248 136.059 35.4427 136.059 34.536ZM143.035 34.568C143.035 34.024 142.929 33.56 142.715 33.176C142.502 32.7813 142.214 32.4827 141.851 32.28C141.489 32.0667 141.099 31.96 140.683 31.96C140.267 31.96 139.883 32.0613 139.531 32.264C139.179 32.4667 138.891 32.7653 138.667 33.16C138.454 33.544 138.347 34.0027 138.347 34.536C138.347 35.0693 138.454 35.5387 138.667 35.944C138.891 36.3387 139.179 36.6427 139.531 36.856C139.894 37.0693 140.278 37.176 140.683 37.176C141.099 37.176 141.489 37.0747 141.851 36.872C142.214 36.6587 142.502 36.36 142.715 35.976C142.929 35.5813 143.035 35.112 143.035 34.568Z" fill="white"/>
<path d="M24.4791 22.5C23.75 22.2917 22.9166 22.1875 22.1875 22.1875C21.6666 22.1875 21.25 22.2917 20.8333 22.7083C20.5208 23.0208 20.3125 23.5417 20.3125 24.0625V24.375H20C18.4375 24.375 17.0833 25.625 17.0833 27.2917V38.0208C17.0833 39.5833 18.4375 40.9375 20 40.9375H27.7083V24.375C26.7708 23.5417 25.625 22.9167 24.4791 22.5ZM20 39.375C19.2708 39.375 18.6458 38.75 18.6458 38.0208V27.2917C18.6458 26.5625 19.2708 25.9375 20 25.9375H20.3125V35.9375C20.3125 36.9792 21.1458 37.7083 22.0833 37.8125C22.8125 37.8125 23.4375 38.0208 24.0625 38.2292C24.7916 38.5417 25.4166 38.9583 25.8333 39.375H20ZM35 24.375H28.75V40.9375H35C36.5625 40.9375 37.9166 39.5833 37.9166 38.0208V27.2917C37.9166 25.625 36.5625 24.375 35 24.375ZM33.9583 37.7083H30.7291C30.3125 37.7083 29.8958 37.3958 29.8958 36.875C29.8958 36.4583 30.2083 36.0417 30.7291 36.0417H33.9583C34.375 36.0417 34.7916 36.3542 34.7916 36.875C34.6875 37.3958 34.375 37.7083 33.9583 37.7083ZM33.9583 33.4375H30.7291C30.3125 33.4375 29.8958 33.125 29.8958 32.6042C29.8958 32.1875 30.2083 31.7708 30.7291 31.7708H33.9583C34.375 31.7708 34.7916 32.0833 34.7916 32.6042C34.6875 33.0208 34.375 33.4375 33.9583 33.4375ZM33.9583 29.0625H30.7291C30.3125 29.0625 29.8958 28.75 29.8958 28.2292C29.8958 27.8125 30.2083 27.3958 30.7291 27.3958H33.9583C34.375 27.3958 34.7916 27.7083 34.7916 28.2292C34.6875 28.75 34.375 29.0625 33.9583 29.0625Z" fill="white"/>
<path d="M49.5155 91.208C51.0515 89.928 52.2755 88.864 53.1875 88.016C54.0995 87.152 54.8595 86.256 55.4675 85.328C56.0755 84.4 56.3795 83.488 56.3795 82.592C56.3795 81.776 56.1875 81.136 55.8035 80.672C55.4195 80.208 54.8275 79.976 54.0275 79.976C53.2275 79.976 52.6115 80.248 52.1795 80.792C51.7475 81.32 51.5235 82.048 51.5075 82.976H48.2435C48.3075 81.056 48.8755 79.6 49.9475 78.608C51.0355 77.616 52.4115 77.12 54.0755 77.12C55.8995 77.12 57.2995 77.608 58.2755 78.584C59.2515 79.544 59.7395 80.816 59.7395 82.4C59.7395 83.648 59.4035 84.84 58.7315 85.976C58.0595 87.112 57.2915 88.104 56.4275 88.952C55.5635 89.784 54.4355 90.792 53.0435 91.976H60.1235V94.76H48.2675V92.264L49.5155 91.208ZM77.8475 86.408C78.7915 86.584 79.5675 87.056 80.1755 87.824C80.7835 88.592 81.0875 89.472 81.0875 90.464C81.0875 91.36 80.8635 92.152 80.4155 92.84C79.9835 93.512 79.3515 94.04 78.5195 94.424C77.6875 94.808 76.7035 95 75.5675 95H68.3435V78.248H75.2555C76.3915 78.248 77.3675 78.432 78.1835 78.8C79.0155 79.168 79.6395 79.68 80.0555 80.336C80.4875 80.992 80.7035 81.736 80.7035 82.568C80.7035 83.544 80.4395 84.36 79.9115 85.016C79.3995 85.672 78.7115 86.136 77.8475 86.408ZM71.7035 85.16H74.7755C75.5755 85.16 76.1915 84.984 76.6235 84.632C77.0555 84.264 77.2715 83.744 77.2715 83.072C77.2715 82.4 77.0555 81.88 76.6235 81.512C76.1915 81.144 75.5755 80.96 74.7755 80.96H71.7035V85.16ZM75.0875 92.264C75.9035 92.264 76.5355 92.072 76.9835 91.688C77.4475 91.304 77.6795 90.76 77.6795 90.056C77.6795 89.336 77.4395 88.776 76.9595 88.376C76.4795 87.96 75.8315 87.752 75.0155 87.752H71.7035V92.264H75.0875ZM89.6694 95.216C88.3894 95.216 87.2374 94.936 86.2134 94.376C85.1894 93.8 84.3814 92.992 83.7894 91.952C83.2134 90.912 82.9254 89.712 82.9254 88.352C82.9254 86.992 83.2214 85.792 83.8134 84.752C84.4214 83.712 85.2454 82.912 86.2854 82.352C87.3254 81.776 88.4854 81.488 89.7654 81.488C91.0454 81.488 92.2054 81.776 93.2454 82.352C94.2854 82.912 95.1014 83.712 95.6934 84.752C96.3014 85.792 96.6054 86.992 96.6054 88.352C96.6054 89.712 96.2934 90.912 95.6694 91.952C95.0614 92.992 94.2294 93.8 93.1734 94.376C92.1334 94.936 90.9654 95.216 89.6694 95.216ZM89.6694 92.288C90.2774 92.288 90.8454 92.144 91.3734 91.856C91.9174 91.552 92.3494 91.104 92.6694 90.512C92.9894 89.92 93.1494 89.2 93.1494 88.352C93.1494 87.088 92.8134 86.12 92.1414 85.448C91.4854 84.76 90.6774 84.416 89.7174 84.416C88.7574 84.416 87.9494 84.76 87.2934 85.448C86.6534 86.12 86.3334 87.088 86.3334 88.352C86.3334 89.616 86.6454 90.592 87.2694 91.28C87.9094 91.952 88.7094 92.288 89.6694 92.288ZM104.974 95.216C103.694 95.216 102.542 94.936 101.518 94.376C100.494 93.8 99.6861 92.992 99.0941 91.952C98.5181 90.912 98.2301 89.712 98.2301 88.352C98.2301 86.992 98.5261 85.792 99.1181 84.752C99.7261 83.712 100.55 82.912 101.59 82.352C102.63 81.776 103.79 81.488 105.07 81.488C106.35 81.488 107.51 81.776 108.55 82.352C109.59 82.912 110.406 83.712 110.998 84.752C111.606 85.792 111.91 86.992 111.91 88.352C111.91 89.712 111.598 90.912 110.974 91.952C110.366 92.992 109.534 93.8 108.478 94.376C107.438 94.936 106.27 95.216 104.974 95.216ZM104.974 92.288C105.582 92.288 106.15 92.144 106.678 91.856C107.222 91.552 107.654 91.104 107.974 90.512C108.294 89.92 108.454 89.2 108.454 88.352C108.454 87.088 108.118 86.12 107.446 85.448C106.79 84.76 105.982 84.416 105.022 84.416C104.062 84.416 103.254 84.76 102.598 85.448C101.958 86.12 101.638 87.088 101.638 88.352C101.638 89.616 101.95 90.592 102.574 91.28C103.214 91.952 104.014 92.288 104.974 92.288ZM122.247 95L117.735 89.336V95H114.375V77.24H117.735V87.344L122.199 81.704H126.567L120.711 88.376L126.615 95H122.247ZM133.478 95.216C132.39 95.216 131.414 95.024 130.55 94.64C129.686 94.24 128.998 93.704 128.486 93.032C127.99 92.36 127.718 91.616 127.67 90.8H131.054C131.118 91.312 131.366 91.736 131.798 92.072C132.246 92.408 132.798 92.576 133.454 92.576C134.094 92.576 134.59 92.448 134.942 92.192C135.31 91.936 135.494 91.608 135.494 91.208C135.494 90.776 135.27 90.456 134.822 90.248C134.39 90.024 133.694 89.784 132.734 89.528C131.742 89.288 130.926 89.04 130.286 88.784C129.662 88.528 129.118 88.136 128.654 87.608C128.206 87.08 127.982 86.368 127.982 85.472C127.982 84.736 128.19 84.064 128.606 83.456C129.038 82.848 129.646 82.368 130.43 82.016C131.23 81.664 132.166 81.488 133.238 81.488C134.822 81.488 136.086 81.888 137.03 82.688C137.974 83.472 138.494 84.536 138.59 85.88H135.374C135.326 85.352 135.102 84.936 134.702 84.632C134.318 84.312 133.798 84.152 133.142 84.152C132.534 84.152 132.062 84.264 131.726 84.488C131.406 84.712 131.246 85.024 131.246 85.424C131.246 85.872 131.47 86.216 131.918 86.456C132.366 86.68 133.062 86.912 134.006 87.152C134.966 87.392 135.758 87.64 136.382 87.896C137.006 88.152 137.542 88.552 137.99 89.096C138.454 89.624 138.694 90.328 138.71 91.208C138.71 91.976 138.494 92.664 138.062 93.272C137.646 93.88 137.038 94.36 136.238 94.712C135.454 95.048 134.534 95.216 133.478 95.216Z" fill="#FAFAFA"/>
</g>
<defs>
<clipPath id="clip0_141_1008">
<rect width="190" height="140" rx="10" fill="white"/>
</clipPath>
</defs>
</svg>
