<svg width="124" height="124" viewBox="0 0 124 124" fill="none" xmlns="http://www.w3.org/2000/svg">
<g filter="url(#filter0_dd_2285_1257)">
<circle cx="62" cy="60" r="40" fill="white"/>
</g>
<path d="M73.606 73.7273C74.1918 74.3131 75.1415 74.3131 75.7273 73.7273C76.3131 73.1416 76.3131 72.1918 75.7273 71.606L73.606 73.7273ZM69.0825 64.9613C68.4967 64.3755 67.547 64.3755 66.9612 64.9613C66.3754 65.547 66.3754 66.4968 66.9612 67.0826L69.0825 64.9613ZM59.625 68C53.895 68 49.25 63.355 49.25 57.625H46.25C46.25 65.0118 52.2382 71 59.625 71V68ZM49.25 57.625C49.25 51.895 53.895 47.25 59.625 47.25V44.25C52.2382 44.25 46.25 50.2382 46.25 57.625H49.25ZM59.625 47.25C65.355 47.25 70 51.895 70 57.625H73C73 50.2382 67.0118 44.25 59.625 44.25V47.25ZM70 57.625C70 63.355 65.355 68 59.625 68V71C67.0118 71 73 65.0118 73 57.625H70ZM75.7273 71.606L69.0825 64.9613L66.9612 67.0826L73.606 73.7273L75.7273 71.606Z" fill="#2CB67D"/>
<defs>
<filter id="filter0_dd_2285_1257" x="0" y="0" width="124" height="124" filterUnits="userSpaceOnUse" color-interpolation-filters="sRGB">
<feFlood flood-opacity="0" result="BackgroundImageFix"/>
<feColorMatrix in="SourceAlpha" type="matrix" values="0 0 0 0 0 0 0 0 0 0 0 0 0 0 0 0 0 0 127 0" result="hardAlpha"/>
<feMorphology radius="2" operator="dilate" in="SourceAlpha" result="effect1_dropShadow_2285_1257"/>
<feOffset dy="2"/>
<feGaussianBlur stdDeviation="10"/>
<feComposite in2="hardAlpha" operator="out"/>
<feColorMatrix type="matrix" values="0 0 0 0 1 0 0 0 0 1 0 0 0 0 1 0 0 0 0.15 0"/>
<feBlend mode="normal" in2="BackgroundImageFix" result="effect1_dropShadow_2285_1257"/>
<feColorMatrix in="SourceAlpha" type="matrix" values="0 0 0 0 0 0 0 0 0 0 0 0 0 0 0 0 0 0 127 0" result="hardAlpha"/>
<feOffset dy="4"/>
<feGaussianBlur stdDeviation="5"/>
<feComposite in2="hardAlpha" operator="out"/>
<feColorMatrix type="matrix" values="0 0 0 0 0 0 0 0 0 0 0 0 0 0 0 0 0 0 0.15 0"/>
<feBlend mode="normal" in2="effect1_dropShadow_2285_1257" result="effect2_dropShadow_2285_1257"/>
<feBlend mode="normal" in="SourceGraphic" in2="effect2_dropShadow_2285_1257" result="shape"/>
</filter>
</defs>
</svg>
