<svg width="136" height="136" viewBox="0 0 136 136" fill="none" xmlns="http://www.w3.org/2000/svg">
<g filter="url(#filter0_d_2124_1214)">
<circle cx="68" cy="64" r="50" fill="white"/>
</g>
<path d="M80.2726 78.394C80.8584 78.9798 81.8082 78.9798 82.394 78.394C82.9798 77.8082 82.9798 76.8585 82.394 76.2727L80.2726 78.394ZM75.3995 69.2782C74.8137 68.6924 73.8639 68.6924 73.2781 69.2782C72.6924 69.864 72.6924 70.8137 73.2781 71.3995L75.3995 69.2782ZM65.5 72.5C59.4249 72.5 54.5 67.5751 54.5 61.5H51.5C51.5 69.232 57.768 75.5 65.5 75.5V72.5ZM54.5 61.5C54.5 55.4249 59.4249 50.5 65.5 50.5V47.5C57.768 47.5 51.5 53.768 51.5 61.5H54.5ZM65.5 50.5C71.5751 50.5 76.5 55.4249 76.5 61.5H79.5C79.5 53.768 73.232 47.5 65.5 47.5V50.5ZM76.5 61.5C76.5 67.5751 71.5751 72.5 65.5 72.5V75.5C73.232 75.5 79.5 69.232 79.5 61.5H76.5ZM82.394 76.2727L75.3995 69.2782L73.2781 71.3995L80.2726 78.394L82.394 76.2727Z" fill="#2CB67D"/>
<defs>
<filter id="filter0_d_2124_1214" x="0" y="0" width="136" height="136" filterUnits="userSpaceOnUse" color-interpolation-filters="sRGB">
<feFlood flood-opacity="0" result="BackgroundImageFix"/>
<feColorMatrix in="SourceAlpha" type="matrix" values="0 0 0 0 0 0 0 0 0 0 0 0 0 0 0 0 0 0 127 0" result="hardAlpha"/>
<feMorphology radius="2" operator="erode" in="SourceAlpha" result="effect1_dropShadow_2124_1214"/>
<feOffset dy="4"/>
<feGaussianBlur stdDeviation="10"/>
<feComposite in2="hardAlpha" operator="out"/>
<feColorMatrix type="matrix" values="0 0 0 0 0 0 0 0 0 0 0 0 0 0 0 0 0 0 0.1 0"/>
<feBlend mode="normal" in2="BackgroundImageFix" result="effect1_dropShadow_2124_1214"/>
<feBlend mode="normal" in="SourceGraphic" in2="effect1_dropShadow_2124_1214" result="shape"/>
</filter>
</defs>
</svg>
