<svg width="124" height="124" viewBox="0 0 124 124" fill="none" xmlns="http://www.w3.org/2000/svg">
<g filter="url(#filter0_dd_2123_1213)">
<circle cx="62" cy="60" r="40" fill="white"/>
</g>
<path d="M68 55.5C68.8284 55.5 69.5 54.8284 69.5 54C69.5 53.1716 68.8284 52.5 68 52.5V55.5ZM64 52.5C63.1716 52.5 62.5 53.1716 62.5 54C62.5 54.8284 63.1716 55.5 64 55.5V52.5ZM66.3033 45.818C66.8891 45.2322 66.8891 44.2825 66.3033 43.6967C65.7175 43.1109 64.7678 43.1109 64.182 43.6967L66.3033 45.818ZM59.9394 47.9393C59.3536 48.5251 59.3536 49.4748 59.9394 50.0606C60.5252 50.6464 61.4749 50.6464 62.0607 50.0606L59.9394 47.9393ZM54.5 46C54.5 46.8284 55.1716 47.5 56 47.5C56.8284 47.5 57.5 46.8284 57.5 46H54.5ZM57.5 42C57.5 41.1716 56.8284 40.5 56 40.5C55.1716 40.5 54.5 41.1716 54.5 42H57.5ZM49.9394 50.0607C50.5252 50.6465 51.4749 50.6465 52.0607 50.0607C52.6465 49.4749 52.6465 48.5252 52.0607 47.9394L49.9394 50.0607ZM47.818 43.6967C47.2323 43.1109 46.2825 43.1109 45.6967 43.6967C45.1109 44.2825 45.1109 45.2323 45.6967 45.818L47.818 43.6967ZM48 55.5C48.8284 55.5 49.5 54.8284 49.5 54C49.5 53.1716 48.8284 52.5 48 52.5V55.5ZM44 52.5C43.1716 52.5 42.5 53.1716 42.5 54C42.5 54.8284 43.1716 55.5 44 55.5V52.5ZM52.0607 60.0607C52.6465 59.4749 52.6465 58.5252 52.0607 57.9394C51.4749 57.3536 50.5252 57.3536 49.9394 57.9394L52.0607 60.0607ZM45.6968 62.182C45.111 62.7678 45.111 63.7176 45.6968 64.3034C46.2825 64.8891 47.2323 64.8891 47.8181 64.3034L45.6968 62.182ZM54.5 66C54.5 66.8284 55.1716 67.5 56 67.5C56.8284 67.5 57.5 66.8284 57.5 66H54.5ZM57.5 62C57.5 61.1716 56.8284 60.5 56 60.5C55.1716 60.5 54.5 61.1716 54.5 62H57.5ZM76.9393 77.0606C77.5251 77.6464 78.4749 77.6464 79.0607 77.0606C79.6464 76.4748 79.6464 75.5251 79.0607 74.9393L76.9393 77.0606ZM63.0606 58.9393C62.4748 58.3535 61.5251 58.3535 60.9393 58.9393C60.3535 59.5251 60.3535 60.4748 60.9393 61.0606L63.0606 58.9393ZM68 52.5H64V55.5H68V52.5ZM64.182 43.6967L59.9394 47.9393L62.0607 50.0606L66.3033 45.818L64.182 43.6967ZM57.5 46V42H54.5V46H57.5ZM52.0607 47.9394L47.818 43.6967L45.6967 45.818L49.9394 50.0607L52.0607 47.9394ZM48 52.5H44V55.5H48V52.5ZM49.9394 57.9394L45.6968 62.182L47.8181 64.3034L52.0607 60.0607L49.9394 57.9394ZM57.5 66V62H54.5V66H57.5ZM79.0607 74.9393L63.0606 58.9393L60.9393 61.0606L76.9393 77.0606L79.0607 74.9393Z" fill="#2CB67D"/>
<defs>
<filter id="filter0_dd_2123_1213" x="0" y="0" width="124" height="124" filterUnits="userSpaceOnUse" color-interpolation-filters="sRGB">
<feFlood flood-opacity="0" result="BackgroundImageFix"/>
<feColorMatrix in="SourceAlpha" type="matrix" values="0 0 0 0 0 0 0 0 0 0 0 0 0 0 0 0 0 0 127 0" result="hardAlpha"/>
<feMorphology radius="2" operator="dilate" in="SourceAlpha" result="effect1_dropShadow_2123_1213"/>
<feOffset dy="2"/>
<feGaussianBlur stdDeviation="10"/>
<feComposite in2="hardAlpha" operator="out"/>
<feColorMatrix type="matrix" values="0 0 0 0 1 0 0 0 0 1 0 0 0 0 1 0 0 0 0.15 0"/>
<feBlend mode="normal" in2="BackgroundImageFix" result="effect1_dropShadow_2123_1213"/>
<feColorMatrix in="SourceAlpha" type="matrix" values="0 0 0 0 0 0 0 0 0 0 0 0 0 0 0 0 0 0 127 0" result="hardAlpha"/>
<feOffset dy="4"/>
<feGaussianBlur stdDeviation="5"/>
<feComposite in2="hardAlpha" operator="out"/>
<feColorMatrix type="matrix" values="0 0 0 0 0 0 0 0 0 0 0 0 0 0 0 0 0 0 0.15 0"/>
<feBlend mode="normal" in2="effect1_dropShadow_2123_1213" result="effect2_dropShadow_2123_1213"/>
<feBlend mode="normal" in="SourceGraphic" in2="effect2_dropShadow_2123_1213" result="shape"/>
</filter>
</defs>
</svg>
