<svg width="70" height="70" viewBox="0 0 105 105" fill="none" xmlns="http://www.w3.org/2000/svg">
<g filter="url(#filter0_d_2202_1280)">
<circle cx="52.0223" cy="48.0223" r="37.0223" fill="white"/>
</g>
<path d="M50.5 52.5H53.5V39H56.5L52 33L47.5 39H50.5V52.5ZM62.5 43.5H58V46.5H61V60H43V46.5H46V43.5H41.5C41.1022 43.5 40.7206 43.658 40.4393 43.9393C40.158 44.2206 40 44.6022 40 45V61.5C40 61.8978 40.158 62.2794 40.4393 62.5607C40.7206 62.842 41.1022 63 41.5 63H62.5C62.8978 63 63.2794 62.842 63.5607 62.5607C63.842 62.2794 64 61.8978 64 61.5V45C64 44.6022 63.842 44.2206 63.5607 43.9393C63.2794 43.658 62.8978 43.5 62.5 43.5Z" fill="black"/>
<defs>
<filter id="filter0_d_2202_1280" x="0" y="0" width="104.044" height="104.044" filterUnits="userSpaceOnUse" color-interpolation-filters="sRGB">
<feFlood flood-opacity="0" result="BackgroundImageFix"/>
<feColorMatrix in="SourceAlpha" type="matrix" values="0 0 0 0 0 0 0 0 0 0 0 0 0 0 0 0 0 0 127 0" result="hardAlpha"/>
<feOffset dy="4"/>
<feGaussianBlur stdDeviation="7.5"/>
<feComposite in2="hardAlpha" operator="out"/>
<feColorMatrix type="matrix" values="0 0 0 0 0 0 0 0 0 0 0 0 0 0 0 0 0 0 0.15 0"/>
<feBlend mode="normal" in2="BackgroundImageFix" result="effect1_dropShadow_2202_1280"/>
<feBlend mode="normal" in="SourceGraphic" in2="effect1_dropShadow_2202_1280" result="shape"/>
</filter>
</defs>
</svg>
