<svg width="569" height="559" viewBox="0 0 569 559" fill="none" xmlns="http://www.w3.org/2000/svg">
<path d="M569 427.523H0V427.803H569V427.523Z" fill="#EBEBEB"/>
<path d="M493.653 439.419H455.963V439.698H493.653V439.419Z" fill="#EBEBEB"/>
<path d="M356.274 439.285H346.385V439.564H356.274V439.285Z" fill="#EBEBEB"/>
<path d="M511.987 445.512H490.148V445.791H511.987V445.512Z" fill="#EBEBEB"/>
<path d="M130.414 449.224H81.2637V449.503H130.414V449.224Z" fill="#EBEBEB"/>
<path d="M126.194 437.015H118.99V437.295H126.194V437.015Z" fill="#EBEBEB"/>
<path d="M282.736 438.211H213.432V438.491H282.736V438.211Z" fill="#EBEBEB"/>
<path d="M269.705 377.66H49.969C48.2476 377.657 46.5978 376.984 45.3816 375.787C44.1655 374.59 43.4824 372.968 43.4824 371.277V67.8179C43.4974 66.1364 44.1871 64.5287 45.4016 63.3439C46.6161 62.1591 48.2574 61.4929 49.969 61.49H269.705C271.429 61.49 273.082 62.1626 274.3 63.3598C275.519 64.5569 276.203 66.1807 276.203 67.8738V371.277C276.203 372.97 275.519 374.593 274.3 375.791C273.082 376.988 271.429 377.66 269.705 377.66ZM49.969 61.7136C48.3231 61.7166 46.7456 62.361 45.5828 63.5054C44.42 64.6499 43.7669 66.2008 43.7669 67.8179V371.277C43.7669 372.894 44.42 374.445 45.5828 375.589C46.7456 376.733 48.3231 377.378 49.969 377.381H269.705C271.352 377.378 272.931 376.734 274.096 375.59C275.26 374.446 275.916 372.895 275.919 371.277V67.8179C275.916 66.1998 275.26 64.6489 274.096 63.5048C272.931 62.3606 271.352 61.7165 269.705 61.7136H49.969Z" fill="#EBEBEB"/>
<path d="M515.867 377.66H296.119C294.397 377.657 292.746 376.984 291.528 375.787C290.31 374.591 289.624 372.969 289.621 371.277V67.8179C289.639 66.1354 290.331 64.5277 291.548 63.3432C292.764 62.1587 294.406 61.4928 296.119 61.49H515.867C517.576 61.4958 519.215 62.1633 520.427 63.3478C521.639 64.5323 522.327 66.1384 522.342 67.8179V371.277C522.342 372.966 521.661 374.586 520.447 375.783C519.233 376.979 517.586 377.654 515.867 377.66ZM296.119 61.7136C294.472 61.7165 292.893 62.3606 291.729 63.5048C290.564 64.6489 289.909 66.1998 289.906 67.8179V371.277C289.909 372.895 290.564 374.446 291.729 375.59C292.893 376.734 294.472 377.378 296.119 377.381H515.867C517.514 377.378 519.093 376.734 520.257 375.59C521.422 374.446 522.077 372.895 522.08 371.277V67.8179C522.077 66.1998 521.422 64.6489 520.257 63.5048C519.093 62.3606 517.514 61.7165 515.867 61.7136H296.119Z" fill="#EBEBEB"/>
<path d="M488.078 107.697H80.9238V274.156H488.078V107.697Z" fill="#F0F0F0"/>
<path d="M480.111 266.341V115.534L88.8897 115.534V266.341H480.111Z" fill="#FAFAFA"/>
<path d="M140.395 266.33L180.52 115.523H210.108L169.983 266.33H140.395Z" fill="white"/>
<path d="M176.811 266.33L216.936 115.523H230.171L190.045 266.33H176.811Z" fill="white"/>
<path d="M241.562 266.33L281.7 115.523H311.288L271.151 266.33H241.562Z" fill="white"/>
<path d="M316.17 266.33L356.296 115.523H369.542L329.405 266.33H316.17Z" fill="white"/>
<path d="M193.699 266.341V115.534H191.674V266.341H193.699Z" fill="#E0E0E0"/>
<path d="M90.9141 266.341L90.9141 115.534H88.8884L88.8884 266.341H90.9141Z" fill="#E0E0E0"/>
<path d="M191.674 266.341V115.534H183.708V266.341H191.674Z" fill="#F0F0F0"/>
<path d="M292.467 266.341V115.534H290.441V266.341H292.467Z" fill="#E0E0E0"/>
<path d="M290.439 266.341V115.534H282.473V266.341H290.439Z" fill="#F0F0F0"/>
<path d="M391.279 266.33V115.523H389.254V266.33H391.279Z" fill="#E0E0E0"/>
<path d="M389.252 266.33V115.523H381.286V266.33H389.252Z" fill="#F0F0F0"/>
<path d="M490.102 274.156V107.697H488.076V274.156H490.102Z" fill="#E0E0E0"/>
<path d="M494.655 96.2709H74.3459C73.879 96.268 73.4321 96.0845 73.102 95.7601C72.7718 95.4358 72.585 94.9967 72.582 94.538C72.582 94.0774 72.7675 93.6355 73.098 93.3087C73.4284 92.982 73.8771 92.7969 74.3459 92.7939H494.655C495.124 92.7969 495.572 92.982 495.903 93.3087C496.233 93.6355 496.419 94.0774 496.419 94.538C496.416 94.9967 496.229 95.4358 495.899 95.7601C495.569 96.0845 495.122 96.268 494.655 96.2709Z" fill="#E0E0E0"/>
<g opacity="0.6">
<path d="M161.983 89.4399H75.9961V393.167H161.983V89.4399Z" fill="#F5F5F5"/>
<path d="M122.586 395.649H115.383L117.408 91.9219H120.629L122.586 395.649Z" fill="#E6E6E6"/>
<path d="M98.7225 395.649H95.2402L96.2189 91.9219H97.778L98.7225 395.649Z" fill="#E6E6E6"/>
<path d="M146.517 395.649H143.035L144.014 91.9219H145.573L146.517 395.649Z" fill="#E6E6E6"/>
</g>
<g opacity="0.6">
<path d="M491.979 89.4399H405.992V393.167H491.979V89.4399Z" fill="#F5F5F5"/>
<path d="M439.688 395.649H432.484L434.51 91.9219H437.731L439.688 395.649Z" fill="#E6E6E6"/>
<path d="M423.791 395.649H420.32L421.288 91.9219H422.847L423.791 395.649Z" fill="#E6E6E6"/>
<path d="M460.582 395.649H457.111L458.09 91.9219H459.638L460.582 395.649Z" fill="#E6E6E6"/>
<path d="M478.289 395.649H474.818L475.786 91.9219H477.345L478.289 395.649Z" fill="#E6E6E6"/>
</g>
<path d="M370.088 425.623H386.248V334.64H370.088V425.623Z" fill="#E6E6E6"/>
<path d="M182.752 425.623H376.314V334.64H182.752V425.623Z" fill="#F0F0F0"/>
<path d="M371.966 425.623H366.139H191.104V427.523H366.139H371.966H377.895V425.623H371.966Z" fill="#E0E0E0"/>
<path opacity="0.5" d="M188.271 377.046H370.795V340.33H188.271V377.046Z" fill="#FAFAFA"/>
<path opacity="0.5" d="M188.271 419.686H370.795V382.971H188.271V419.686Z" fill="#FAFAFA"/>
<path d="M215.935 358.688C215.935 359.486 215.694 360.267 215.243 360.93C214.791 361.594 214.15 362.111 213.399 362.417C212.648 362.722 211.822 362.802 211.025 362.646C210.229 362.491 209.497 362.106 208.922 361.542C208.347 360.977 207.956 360.258 207.798 359.475C207.639 358.692 207.721 357.881 208.031 357.143C208.342 356.406 208.869 355.776 209.545 355.332C210.22 354.889 211.014 354.652 211.827 354.652C212.366 354.652 212.901 354.756 213.399 354.959C213.897 355.162 214.35 355.459 214.732 355.834C215.113 356.209 215.416 356.654 215.622 357.143C215.829 357.633 215.935 358.158 215.935 358.688Z" fill="#E0E0E0"/>
<path d="M351.336 358.688C351.336 359.486 351.095 360.267 350.643 360.93C350.192 361.594 349.55 362.111 348.799 362.417C348.049 362.722 347.223 362.802 346.426 362.646C345.629 362.491 344.897 362.106 344.322 361.542C343.748 360.977 343.357 360.258 343.198 359.475C343.04 358.692 343.121 357.881 343.432 357.143C343.743 356.406 344.269 355.776 344.945 355.332C345.621 354.889 346.415 354.652 347.227 354.652C347.767 354.652 348.301 354.756 348.799 354.959C349.298 355.162 349.751 355.459 350.132 355.834C350.514 356.209 350.816 356.654 351.023 357.143C351.229 357.633 351.336 358.158 351.336 358.688Z" fill="#E0E0E0"/>
<path d="M211.827 405.364C214.096 405.364 215.935 403.557 215.935 401.328C215.935 399.099 214.096 397.292 211.827 397.292C209.558 397.292 207.719 399.099 207.719 401.328C207.719 403.557 209.558 405.364 211.827 405.364Z" fill="#E0E0E0"/>
<path d="M351.336 401.362C351.336 402.16 351.095 402.941 350.643 403.604C350.192 404.268 349.55 404.785 348.799 405.091C348.049 405.396 347.223 405.476 346.426 405.32C345.629 405.165 344.897 404.78 344.322 404.216C343.748 403.651 343.357 402.932 343.198 402.149C343.04 401.367 343.121 400.555 343.432 399.817C343.743 399.08 344.269 398.45 344.945 398.006C345.621 397.563 346.415 397.326 347.227 397.326C348.317 397.326 349.362 397.751 350.132 398.508C350.903 399.265 351.336 400.292 351.336 401.362Z" fill="#E0E0E0"/>
<path d="M283.634 358.688C283.634 359.486 283.393 360.267 282.942 360.93C282.491 361.594 281.849 362.111 281.098 362.417C280.348 362.722 279.522 362.802 278.725 362.646C277.928 362.491 277.196 362.106 276.621 361.542C276.047 360.977 275.655 360.258 275.497 359.475C275.338 358.692 275.42 357.881 275.731 357.143C276.042 356.406 276.568 355.776 277.244 355.332C277.919 354.889 278.714 354.652 279.526 354.652C280.066 354.652 280.6 354.756 281.098 354.959C281.597 355.162 282.05 355.459 282.431 355.834C282.813 356.209 283.115 356.654 283.322 357.143C283.528 357.633 283.634 358.158 283.634 358.688Z" fill="#E0E0E0"/>
<path d="M279.526 405.364C281.795 405.364 283.634 403.557 283.634 401.328C283.634 399.099 281.795 397.292 279.526 397.292C277.257 397.292 275.418 399.099 275.418 401.328C275.418 403.557 277.257 405.364 279.526 405.364Z" fill="#E0E0E0"/>
<path d="M364.343 319.189C364.343 323.287 362.686 327.217 359.737 330.114C356.787 333.012 352.787 334.64 348.616 334.64C344.445 334.64 340.444 333.012 337.495 330.114C334.546 327.217 332.889 323.287 332.889 319.189H364.343Z" fill="#F0F0F0"/>
<path d="M239.992 316.394C239.992 321.224 238.039 325.857 234.562 329.272C231.086 332.687 226.371 334.606 221.454 334.606C216.537 334.606 211.822 332.687 208.346 329.272C204.869 325.857 202.916 321.224 202.916 316.394H239.992Z" fill="#F0F0F0"/>
<path d="M319.686 323.918C319.686 326.762 318.536 329.489 316.49 331.499C314.443 333.51 311.667 334.64 308.773 334.64C305.878 334.64 303.103 333.51 301.056 331.499C299.009 329.489 297.859 326.762 297.859 323.918H319.686Z" fill="#F0F0F0"/>
<path d="M284.5 478.012C406.36 478.012 505.147 472.346 505.147 465.356C505.147 458.367 406.36 452.701 284.5 452.701C162.64 452.701 63.8535 458.367 63.8535 465.356C63.8535 472.346 162.64 478.012 284.5 478.012Z" fill="#F5F5F5"/>
<path d="M396.193 128.972C393.769 126.591 389.104 117.569 393.576 113.32C398.048 109.072 402.031 112.929 402.339 114.997C402.646 117.066 401.827 134.495 396.193 128.972Z" fill="#263238"/>
<path d="M395.17 453.517L385.008 453.606L382.242 430.531L392.393 430.441L395.17 453.517Z" fill="#FF8B7B"/>
<path d="M384.995 452.455L396.079 452.354C396.284 452.357 396.482 452.423 396.646 452.544C396.809 452.664 396.93 452.833 396.99 453.025L399.675 461.868C399.747 462.074 399.767 462.294 399.733 462.509C399.7 462.724 399.614 462.927 399.484 463.103C399.353 463.279 399.181 463.421 398.983 463.517C398.784 463.613 398.565 463.661 398.344 463.657C394.35 463.657 388.546 463.445 383.55 463.489C377.678 463.489 375.061 463.892 368.164 463.959C363.999 463.959 362.474 459.867 364.238 459.487C372.056 457.709 376.096 457.474 382.64 453.26C383.328 452.772 384.147 452.492 384.995 452.455Z" fill="#263238"/>
<path opacity="0.2" d="M382.242 430.542L383.676 442.437L393.827 442.348L392.405 430.452L382.242 430.542Z" fill="black"/>
<path d="M380.797 454.232C381.893 454.213 382.984 454.082 384.052 453.841C384.103 453.834 384.149 453.81 384.184 453.773C384.219 453.737 384.241 453.69 384.246 453.64C384.25 453.592 384.24 453.543 384.215 453.501C384.191 453.459 384.154 453.425 384.109 453.405C383.631 453.17 379.364 451.169 378.191 451.873C378.083 451.941 377.995 452.036 377.935 452.147C377.875 452.259 377.846 452.384 377.85 452.511C377.847 452.726 377.895 452.938 377.99 453.132C378.085 453.326 378.224 453.496 378.396 453.629C379.108 454.082 379.951 454.294 380.797 454.232ZM383.233 453.517C381.036 453.897 379.364 453.819 378.681 453.282C378.563 453.191 378.469 453.074 378.407 452.939C378.346 452.805 378.318 452.658 378.328 452.511C378.321 452.465 378.329 452.418 378.349 452.376C378.369 452.334 378.401 452.3 378.442 452.276C379.079 451.896 381.492 452.79 383.233 453.517Z" fill="#2CB67D"/>
<path d="M384.005 453.908C384.059 453.904 384.11 453.885 384.153 453.852C384.187 453.827 384.213 453.792 384.228 453.752C384.242 453.712 384.244 453.669 384.233 453.628C384.233 453.45 383.436 449.156 381.024 449.425C380.386 449.492 380.204 449.816 380.17 450.062C379.999 451.18 382.605 453.349 383.903 453.886L384.005 453.908ZM381.228 449.883C382.685 449.883 383.413 452.22 383.664 453.237C382.321 452.499 380.546 450.8 380.648 450.129C380.648 450.129 380.648 449.939 381.08 449.894L381.228 449.883Z" fill="#2CB67D"/>
<path d="M387.989 179.361L386.942 180.479L385.963 181.429C385.315 182.055 384.643 182.648 383.972 183.229C382.636 184.407 381.271 185.525 379.875 186.583C377.058 188.783 374.092 190.792 370.999 192.598C369.439 193.503 367.835 194.364 366.208 195.18C364.58 195.997 362.862 196.701 361.132 197.416C357.585 198.807 353.89 199.8 350.116 200.379L349.274 200.502C348.727 200.571 348.176 200.605 347.624 200.603C346.357 200.591 345.103 200.348 343.926 199.887C342.758 199.427 341.689 198.756 340.773 197.908C340.044 197.225 339.409 196.451 338.884 195.605C338.158 194.378 337.61 193.057 337.257 191.681C336.981 190.615 336.779 189.532 336.654 188.439C336.447 186.549 336.39 184.647 336.483 182.748C336.563 180.937 336.711 179.193 336.915 177.482C337.348 174.05 337.962 170.774 338.714 167.42C339.465 164.066 340.318 160.97 341.422 157.727L348.899 159.181C348.625 165.464 348.318 171.904 348.523 177.986C348.56 180.81 348.865 183.624 349.433 186.393C349.546 186.904 349.702 187.405 349.9 187.891C350.059 188.271 350.253 188.506 350.241 188.405C350.175 188.235 350.07 188.082 349.934 187.958C349.624 187.664 349.262 187.429 348.864 187.265C348.455 187.096 348.021 186.994 347.578 186.963C347.374 186.963 347.283 186.963 347.157 186.963H347.283L347.522 186.896C350.217 186.216 352.84 185.28 355.351 184.101C357.979 182.855 360.522 181.444 362.964 179.875C365.434 178.265 367.869 176.521 370.213 174.676C371.351 173.76 372.546 172.798 373.627 171.825L375.289 170.35L376.085 169.623L376.78 168.974L387.989 179.361Z" fill="#FF8B7B"/>
<path d="M394.009 175.414C393.622 164.871 384.814 161.204 373.776 168.393C368.909 171.424 364.224 174.728 359.744 178.287L366.879 200.804C366.879 200.804 380.535 196.544 388.433 188.182C393.748 182.502 394.146 179.003 394.009 175.414Z" fill="#263238"/>
<path opacity="0.2" d="M380.568 179.909C380.568 179.909 373.979 189.166 371.646 199.004C374.886 197.647 378.007 196.032 380.978 194.174L380.568 179.909Z" fill="black"/>
<path d="M348.524 162.524L352.348 154.038L341.525 150.93C341.525 150.93 339.67 154.988 340.729 161.954L348.524 162.524Z" fill="#FF8B7B"/>
<path d="M353.495 144.088L344.084 145.195L341.523 150.93L352.346 154.038L353.495 144.088Z" fill="#FF8B7B"/>
<path d="M380.637 251.841C380.637 251.841 373.649 309.373 372.875 340.163C372.079 372.149 378.463 436.668 378.463 436.668L396.796 436.288C396.796 436.288 399.004 367.218 401.667 335.568C404.557 301.066 411.841 251.215 411.841 251.215L380.637 251.841Z" fill="#2CB67D"/>
<path opacity="0.6" d="M380.637 251.841C380.637 251.841 373.649 309.373 372.875 340.163C372.079 372.149 378.463 436.668 378.463 436.668L396.796 436.288C396.796 436.288 399.004 367.218 401.667 335.568C404.557 301.066 411.841 251.215 411.841 251.215L380.637 251.841Z" fill="white"/>
<path opacity="0.2" d="M402.475 268.13C394.282 285.873 396.478 325.506 401.132 342.499C401.303 340.029 401.485 337.692 401.667 335.534C403.568 312.794 407.357 283.402 409.758 265.995C407.528 262.819 405.036 262.574 402.475 268.13Z" fill="black"/>
<path d="M399.051 437.06L377.497 437.485L375.904 430.452L398.789 430.396L399.051 437.06Z" fill="#2CB67D"/>
<path d="M440.451 453.517L430.3 453.606L427.535 430.531L437.686 430.441L440.451 453.517Z" fill="#FF8B7B"/>
<path d="M430.277 452.455L441.372 452.354C441.576 452.359 441.774 452.426 441.937 452.546C442.1 452.666 442.221 452.834 442.283 453.025L444.968 461.868C445.037 462.074 445.055 462.293 445.02 462.507C444.986 462.721 444.9 462.923 444.77 463.098C444.64 463.273 444.469 463.415 444.272 463.512C444.075 463.609 443.857 463.659 443.637 463.657C439.631 463.657 433.839 463.445 428.843 463.489C422.971 463.489 420.342 463.892 413.457 463.959C409.292 463.959 407.767 459.867 409.531 459.487C417.338 457.709 421.378 457.474 427.933 453.26C428.617 452.772 429.432 452.492 430.277 452.455Z" fill="#263238"/>
<path opacity="0.2" d="M427.535 430.542L428.958 442.437L439.12 442.348L437.697 430.452L427.535 430.542Z" fill="black"/>
<path d="M426.089 454.232C427.185 454.212 428.275 454.08 429.344 453.841C429.393 453.833 429.438 453.809 429.471 453.772C429.505 453.736 429.524 453.689 429.526 453.64C429.533 453.593 429.525 453.544 429.502 453.502C429.48 453.46 429.444 453.426 429.401 453.405C428.911 453.17 424.644 451.169 423.483 451.873C423.373 451.939 423.283 452.034 423.223 452.146C423.163 452.258 423.135 452.384 423.142 452.511C423.139 452.724 423.186 452.936 423.279 453.13C423.371 453.323 423.507 453.494 423.676 453.629C424.393 454.081 425.24 454.293 426.089 454.232ZM428.524 453.517C426.328 453.897 424.655 453.819 423.972 453.282C423.855 453.19 423.761 453.072 423.698 452.938C423.634 452.805 423.604 452.658 423.608 452.511C423.601 452.465 423.609 452.418 423.629 452.376C423.649 452.334 423.682 452.3 423.722 452.276C424.359 451.896 426.749 452.79 428.524 453.517Z" fill="#2CB67D"/>
<path d="M429.287 453.908C429.322 453.907 429.357 453.898 429.388 453.883C429.42 453.868 429.448 453.847 429.47 453.82C429.493 453.794 429.509 453.763 429.519 453.73C429.529 453.697 429.531 453.663 429.526 453.628C429.526 453.45 428.73 449.156 426.317 449.425C425.68 449.492 425.498 449.816 425.452 450.062C425.293 451.18 427.899 453.349 429.196 453.886L429.287 453.908ZM426.522 449.883C427.967 449.883 428.707 452.22 428.957 453.237C427.615 452.499 425.828 450.8 425.93 450.129C425.93 450.129 425.93 449.939 426.363 449.894L426.522 449.883Z" fill="#2CB67D"/>
<path d="M398.527 251.461C398.527 251.461 403.591 313.364 407.29 343.908C411.125 375.682 423.757 436.635 423.757 436.635L442.09 436.255C442.09 436.255 437.06 367.051 435.114 335.344C432.986 300.742 432.44 250.7 432.44 250.7L398.527 251.461Z" fill="#2CB67D"/>
<path opacity="0.6" d="M398.527 251.461C398.527 251.461 403.591 313.364 407.29 343.908C411.125 375.682 423.757 436.635 423.757 436.635L442.09 436.255C442.09 436.255 437.06 367.051 435.114 335.344C432.986 300.742 432.44 250.7 432.44 250.7L398.527 251.461Z" fill="white"/>
<path d="M444.342 437.06L422.777 437.485L421.195 430.452L444.081 430.396L444.342 437.06Z" fill="#2CB67D"/>
<path d="M379.375 165.632C379.375 165.632 371.875 192.978 380.638 251.841C397.002 251.494 424.485 250.868 432.44 250.723C432.645 242.528 426.488 202.347 433.692 163.608C428.509 162.729 423.268 162.228 418.01 162.11C410.314 161.834 402.608 161.998 394.931 162.602C389.674 163.213 384.472 164.226 379.375 165.632Z" fill="#263238"/>
<path opacity="0.2" d="M430.55 191.178L422.072 184.28C422.63 189.669 427.592 202.872 430.209 209.558C430.163 203.7 430.22 197.517 430.55 191.178Z" fill="black"/>
<path d="M400.223 181.485L390.971 199.474C390.776 199.851 390.707 200.28 390.776 200.699C390.844 201.117 391.046 201.503 391.353 201.801C391.659 202.1 392.054 202.295 392.48 202.359C392.906 202.423 393.342 202.352 393.725 202.157L399.768 198.892C400.096 198.719 400.468 198.639 400.84 198.663C401.212 198.687 401.57 198.813 401.873 199.026L407.825 203.241C408.167 203.486 408.579 203.615 409.002 203.611C409.425 203.607 409.835 203.47 410.172 203.219C410.509 202.968 410.755 202.618 410.873 202.219C410.991 201.82 410.976 201.395 410.829 201.005L403.876 181.798C403.755 181.433 403.528 181.11 403.222 180.871C402.916 180.632 402.545 180.487 402.155 180.453C401.765 180.42 401.375 180.5 401.031 180.684C400.687 180.867 400.406 181.146 400.223 181.485Z" fill="white"/>
<path d="M415.164 136.575C413.866 143.909 412.706 157.303 418.009 162.054C418.009 162.054 416.461 168.695 402.338 170.998C392.847 168.002 394.93 162.591 394.93 162.591C403.169 160.467 402.816 154.441 401.257 148.806L415.164 136.575Z" fill="#FF8B7B"/>
<path opacity="0.2" d="M409.497 141.55L401.258 148.75C401.641 150.063 401.908 151.406 402.054 152.764C405.218 152.249 409.486 148.739 409.747 145.485C409.909 144.17 409.824 142.836 409.497 141.55Z" fill="black"/>
<path d="M419.682 127.553C416.94 137.078 415.836 142.791 409.782 146.693C400.678 152.551 389.514 145.575 389.298 135.412C389.093 126.289 393.599 112.236 404.092 110.447C406.396 110.046 408.767 110.229 410.98 110.979C413.192 111.73 415.173 113.023 416.734 114.736C418.296 116.449 419.386 118.525 419.902 120.768C420.418 123.011 420.342 125.346 419.682 127.553Z" fill="#FF8B7B"/>
<path d="M413.844 133.389C412.569 130.348 411.647 120.33 416.962 117.871C422.276 115.411 427.796 121.415 426.396 124.255C424.245 128.659 416.802 140.432 413.844 133.389Z" fill="#263238"/>
<path d="M417.02 121.404C415.711 118.05 400.109 116.149 397.924 112.538C395.329 108.245 405.97 107.73 413.287 109.911C419.717 111.834 424.007 113.689 423.256 118.385C422.835 121.046 417.02 121.404 417.02 121.404Z" fill="#263238"/>
<path d="M420.41 117.949C420.41 117.949 423.824 118.866 425.69 116.406C425.099 118.843 422.197 121.303 420.41 117.949Z" fill="#263238"/>
<path d="M404.787 107.608C400.098 104.03 393.714 108.234 394.317 112.896C394.92 117.558 410.727 121.102 410.727 121.102C410.727 121.102 411.012 112.359 404.787 107.608Z" fill="#263238"/>
<path d="M394.328 112.918C395.045 116.183 397.469 118.743 402.374 120.643C399.535 118.581 397.384 115.737 396.194 112.471L394.328 112.918Z" fill="#263238"/>
<path d="M404.171 127.072C404 127.866 403.443 128.413 402.919 128.302C402.396 128.19 402.111 127.452 402.282 126.669C402.453 125.887 403.022 125.339 403.545 125.451C404.069 125.563 404.353 126.334 404.171 127.072Z" fill="#263238"/>
<path d="M395.136 125.149C394.953 125.932 394.396 126.479 393.872 126.368C393.349 126.256 393.064 125.529 393.235 124.746C393.406 123.964 393.975 123.416 394.498 123.517C395.022 123.617 395.306 124.366 395.136 125.149Z" fill="#263238"/>
<path d="M397.924 126.155C396.438 128.354 394.65 130.341 392.609 132.058C393.747 133.657 396.285 133.579 396.285 133.579L397.924 126.155Z" fill="#FF5652"/>
<path d="M398.129 136.251C399.198 136.511 400.315 136.514 401.385 136.259C402.455 136.004 403.446 135.499 404.274 134.786C404.297 134.764 404.315 134.738 404.327 134.709C404.34 134.681 404.346 134.65 404.346 134.618C404.346 134.587 404.34 134.556 404.327 134.527C404.315 134.499 404.297 134.473 404.274 134.451C404.228 134.408 404.167 134.385 404.104 134.385C404.04 134.385 403.979 134.408 403.933 134.451C403.156 135.093 402.237 135.548 401.249 135.779C400.261 136.01 399.231 136.011 398.243 135.781C398.18 135.768 398.113 135.78 398.059 135.814C398.004 135.849 397.966 135.903 397.953 135.966C397.939 136.028 397.951 136.093 397.986 136.146C398.022 136.2 398.077 136.237 398.14 136.251H398.129Z" fill="#263238"/>
<path d="M407.529 124.791C407.616 124.808 407.707 124.802 407.791 124.772C407.875 124.743 407.949 124.691 408.005 124.623C408.061 124.555 408.097 124.474 408.11 124.387C408.122 124.3 408.11 124.212 408.075 124.132C407.768 123.443 407.298 122.836 406.704 122.362C406.111 121.887 405.41 121.559 404.661 121.404C404.535 121.388 404.407 121.421 404.305 121.496C404.203 121.571 404.135 121.682 404.115 121.806C404.105 121.867 404.108 121.929 404.123 121.989C404.138 122.049 404.164 122.106 404.201 122.155C404.238 122.205 404.285 122.248 404.338 122.28C404.392 122.312 404.451 122.333 404.513 122.343C405.104 122.47 405.655 122.735 406.12 123.114C406.585 123.493 406.951 123.976 407.188 124.523C407.22 124.591 407.267 124.65 407.326 124.697C407.386 124.743 407.455 124.776 407.529 124.791Z" fill="#263238"/>
<path d="M391.836 121.247C391.925 121.271 392.02 121.268 392.107 121.238C392.195 121.208 392.271 121.153 392.325 121.079C392.686 120.605 393.155 120.219 393.694 119.955C394.234 119.691 394.829 119.555 395.432 119.559C395.559 119.571 395.685 119.533 395.783 119.453C395.881 119.373 395.943 119.259 395.956 119.134C395.968 119.01 395.929 118.885 395.848 118.789C395.767 118.693 395.65 118.632 395.523 118.62C394.76 118.598 394.002 118.757 393.314 119.084C392.627 119.411 392.03 119.896 391.574 120.498C391.534 120.546 391.504 120.601 391.486 120.661C391.468 120.72 391.463 120.783 391.47 120.845C391.477 120.906 391.498 120.966 391.529 121.02C391.561 121.074 391.603 121.12 391.654 121.158C391.706 121.203 391.768 121.233 391.836 121.247Z" fill="#263238"/>
<path d="M436.171 171.233C438.242 174.788 439.972 178.232 441.77 181.776C443.568 185.32 445.184 188.886 446.721 192.531C448.257 196.175 449.748 199.876 451.045 203.711C452.394 207.535 453.533 211.428 454.459 215.372L455.153 218.424C455.457 219.857 455.587 221.321 455.54 222.784C455.444 225.503 454.83 228.18 453.731 230.677C451.798 234.885 449.05 238.682 445.639 241.857C442.597 244.743 439.282 247.337 435.739 249.605C434.02 250.723 432.245 251.751 430.459 252.735C428.672 253.719 426.897 254.625 424.905 255.485L421.127 248.99C422.504 247.872 424.017 246.754 425.429 245.546C426.84 244.339 428.217 243.109 429.582 241.879C432.219 239.476 434.665 236.878 436.9 234.109C438.886 231.734 440.428 229.032 441.452 226.127C441.804 225.044 441.943 223.906 441.861 222.773C441.828 222.317 441.74 221.867 441.6 221.431L440.826 218.927C438.526 211.98 435.79 205.181 432.632 198.568C431.073 195.214 429.412 191.86 427.75 188.506C426.089 185.152 424.336 181.798 422.641 178.612L436.171 171.233Z" fill="#FF8B7B"/>
<path d="M434.079 163.664C443.57 165.676 450.17 190.004 450.17 190.004L433.203 205.131C427.808 199.234 423.564 192.413 420.685 185.007C416.189 172.832 423.928 161.495 434.079 163.664Z" fill="#263238"/>
<path d="M423.187 247.838L412.273 247.95L419.101 258.761C419.101 258.761 426.874 256.872 427.568 253.037L423.187 247.838Z" fill="#FF8B7B"/>
<path d="M405.48 254.334L411.5 263.01L419.045 258.761L412.274 247.95L405.48 254.334Z" fill="#FF8B7B"/>
<path d="M422.664 136.273C421.451 138.465 419.406 140.096 416.974 140.812C413.742 141.74 412.092 138.911 412.957 135.904C413.742 133.198 416.371 129.453 419.602 129.844C422.834 130.236 424.109 133.579 422.664 136.273Z" fill="#FF8B7B"/>
<path d="M325.938 321.253L313.805 322.118L313.887 323.233L326.02 322.368L325.938 321.253Z" fill="#2CB67D"/>
<path d="M336.842 320.481L330.883 320.906L330.965 322.021L336.924 321.596L336.842 320.481Z" fill="#2CB67D"/>
<path d="M389.196 189.244L188.271 203.476C184.089 203.796 180.205 205.724 177.461 208.841C174.717 211.957 173.334 216.011 173.614 220.123L180.442 313.163C180.765 317.277 182.729 321.1 185.907 323.799C189.084 326.498 193.218 327.854 197.409 327.574L208.789 326.769C209.616 326.711 210.433 326.977 211.06 327.509C211.687 328.041 212.074 328.797 212.135 329.609L213.409 346.848C213.43 347.182 213.552 347.502 213.76 347.768C213.967 348.033 214.25 348.231 214.573 348.337C214.896 348.443 215.244 348.451 215.572 348.361C215.9 348.271 216.193 348.087 216.414 347.832L235.464 326.199C236.265 325.293 237.398 324.734 238.616 324.645L398.3 313.342C402.484 313.024 406.371 311.098 409.118 307.981C411.864 304.864 413.248 300.808 412.969 296.695L406.141 203.655C405.818 199.545 403.857 195.726 400.684 193.027C397.511 190.329 393.383 188.969 389.196 189.244Z" fill="#2CB67D"/>
<path opacity="0.2" d="M188.271 203.476C184.089 203.797 180.205 205.724 177.461 208.841C174.717 211.957 173.334 216.011 173.614 220.123L180.442 313.163C180.765 317.277 182.729 321.1 185.907 323.799C189.084 326.498 193.218 327.854 197.409 327.574L199.082 327.451C201.861 327.254 204.497 326.16 206.579 324.341C208.662 322.522 210.074 320.078 210.599 317.389L233.484 200.267L188.271 203.476Z" fill="black"/>
<path d="M185.494 172.843C185.444 174.479 185.531 176.117 185.756 177.74C175.444 181.123 164.447 181.979 153.722 180.233C154.236 178.32 154.549 176.361 154.655 174.386C154.296 176.375 153.591 178.288 152.572 180.043C150.547 179.663 149.408 179.338 149.408 179.338C149.408 179.338 151.48 168.337 147.747 160.332C144.014 152.327 145.881 147.855 148.703 146.592C153.938 130.784 173.614 133.277 180.271 139.694C188.715 147.833 188.761 170.763 190.263 176.007C189.022 176.532 187.805 177.013 186.587 177.438C185.977 175.973 185.608 174.422 185.494 172.843Z" fill="#263238"/>
<path d="M193.631 197.45L194.655 200.636C195.031 201.754 195.406 202.872 195.793 203.934C196.556 206.17 197.352 208.406 198.206 210.553C199.059 212.699 199.879 214.958 200.766 217.149L202.086 220.503L202.416 221.33L202.496 221.52C202.355 221.4 202.193 221.305 202.018 221.241C201.768 221.152 201.665 221.241 201.825 221.241C202.099 221.24 202.371 221.198 202.632 221.118C203.522 220.841 204.378 220.466 205.182 220C207.122 218.889 208.978 217.641 210.735 216.266C212.579 214.857 214.388 213.348 216.163 211.794C217.939 210.24 219.725 208.619 221.444 207.031L224.937 209.938C223.481 211.995 221.944 213.873 220.385 215.785C218.826 217.697 217.074 219.486 215.276 221.263C213.425 223.119 211.41 224.81 209.256 226.317C208.023 227.165 206.699 227.878 205.307 228.441C204.423 228.789 203.498 229.022 202.553 229.134C201.27 229.291 199.968 229.118 198.775 228.631C197.473 228.086 196.365 227.176 195.588 226.015C195.418 225.758 195.258 225.501 195.133 225.266L194.826 224.662L194.416 223.846C193.881 222.728 193.278 221.61 192.812 220.559C191.776 218.323 190.74 216.087 189.796 213.851C188.851 211.615 187.93 209.312 187.053 207.009C186.644 205.891 186.234 204.672 185.847 203.498C185.46 202.324 185.085 201.173 184.709 199.798L193.631 197.45Z" fill="#FFC3BD"/>
<path d="M190.933 187.522C194.859 188.506 197.602 204.359 197.602 204.359L186.791 211.581C186.791 211.581 176.435 195.583 179.451 191.346C182.592 186.941 185.209 186.091 190.933 187.522Z" fill="#2CB67D"/>
<path d="M190.933 187.522C194.859 188.506 197.602 204.359 197.602 204.359L186.791 211.581C186.791 211.581 176.435 195.583 179.451 191.346C182.592 186.941 185.209 186.091 190.933 187.522Z" fill="#2CB67D"/>
<path opacity="0.4" d="M190.933 187.522C194.859 188.506 197.602 204.359 197.602 204.359L186.791 211.581C186.791 211.581 176.435 195.583 179.451 191.346C182.592 186.941 185.209 186.091 190.933 187.522Z" fill="white"/>
<path opacity="0.3" d="M190.581 191.066L193.596 207.042L187.52 211.09L190.581 191.066Z" fill="black"/>
<path d="M221.262 207.411L224.869 198.87L229.319 207.411C229.319 207.411 226.428 211.66 222.616 210.62L221.262 207.411Z" fill="#FFC3BD"/>
<path d="M228.84 197.987L234.553 200.245L229.318 207.411L224.857 198.87L228.84 197.987Z" fill="#FFC3BD"/>
<path d="M169.711 454.411H179.236L179.873 432.755H170.348L169.711 454.411Z" fill="#FFC3BD"/>
<path d="M105.846 426.517L114.597 430.184L126.057 411.446L117.294 407.779L105.846 426.517Z" fill="#FFC3BD"/>
<path d="M116.281 428.91L107.177 423.409C107.021 423.311 106.834 423.272 106.651 423.301C106.469 423.33 106.303 423.424 106.187 423.565L100.713 430.016C100.577 430.185 100.479 430.381 100.426 430.59C100.373 430.799 100.367 431.017 100.406 431.228C100.446 431.44 100.532 431.641 100.657 431.818C100.783 431.994 100.946 432.143 101.134 432.252C104.343 434.119 105.982 434.857 109.988 437.272C112.457 438.77 115.894 441.185 119.297 443.242C122.699 445.299 124.987 442.124 123.723 440.95C118.204 435.774 118.363 433.314 117.328 430.251C117.156 429.694 116.784 429.217 116.281 428.91Z" fill="#263238"/>
<path d="M179.553 453.327H168.867C168.683 453.325 168.505 453.388 168.365 453.505C168.224 453.622 168.132 453.785 168.105 453.964L166.887 462.282C166.857 462.495 166.875 462.712 166.939 462.918C167.003 463.124 167.112 463.314 167.258 463.475C167.404 463.635 167.584 463.763 167.785 463.848C167.987 463.934 168.204 463.975 168.423 463.97C172.156 463.914 173.954 463.691 178.665 463.691C181.556 463.691 187.542 463.992 191.536 463.992C195.53 463.992 195.735 460.113 194.074 459.755C186.62 458.179 183.684 456.01 181.169 453.942C180.724 453.552 180.15 453.333 179.553 453.327Z" fill="#263238"/>
<path opacity="0.2" d="M179.861 432.767L179.543 443.924H170.018L170.348 432.767H179.861Z" fill="black"/>
<path opacity="0.2" d="M117.293 407.791L126.044 411.446L120.138 421.106L111.387 417.439L117.293 407.791Z" fill="black"/>
<path d="M190.933 187.522C190.933 187.522 195.485 189.087 186.381 243.948H147.689C148.338 228.497 148.361 218.971 140.861 187.254C146.272 186.155 151.756 185.445 157.271 185.13C163.117 184.715 168.985 184.715 174.831 185.13C182.387 185.8 190.933 187.522 190.933 187.522Z" fill="#2CB67D"/>
<path opacity="0.4" d="M190.933 187.522C190.933 187.522 195.485 189.087 186.381 243.948H147.689C148.338 228.497 148.361 218.971 140.861 187.254C146.272 186.155 151.756 185.445 157.271 185.13C163.117 184.715 168.985 184.715 174.831 185.13C182.387 185.8 190.933 187.522 190.933 187.522Z" fill="white"/>
<path d="M157.294 185.118C163.14 184.715 169.007 184.715 174.853 185.118C175.798 185.208 176.765 185.308 177.721 185.42C178.119 186.008 178.374 186.677 178.467 187.377C178.559 188.077 178.487 188.788 178.256 189.456C177.015 192.464 172.566 192.81 169.334 192.81C157.373 192.81 155.348 185.946 155.268 185.655L155.154 185.241L157.294 185.118Z" fill="white"/>
<path d="M159.036 165.71C160.174 171.3 161.255 181.429 157.295 185.13C157.295 185.13 158.843 190.72 169.335 190.72C180.874 190.72 174.854 185.13 174.854 185.13C168.55 183.654 168.72 179.059 169.813 174.755L159.036 165.71Z" fill="#FFC3BD"/>
<path d="M160.184 161.763C158.83 166.157 160.708 176.555 163.496 180.579C157.999 177.483 156.145 168.047 156.145 168.047L160.184 161.763Z" fill="#263238"/>
<path opacity="0.2" d="M163.428 169.399L169.812 174.743C169.532 175.745 169.349 176.771 169.266 177.807C166.864 177.46 163.576 174.866 163.302 172.396C163.161 171.397 163.203 170.383 163.428 169.399Z" fill="black"/>
<path d="M153.823 155.804C156.031 164.827 156.759 168.695 162.29 172.575C170.609 178.399 181.408 173.771 181.989 164.279C182.512 155.737 178.825 142.422 169.095 140.365C166.951 139.9 164.722 139.981 162.619 140.6C160.516 141.219 158.609 142.356 157.079 143.903C155.549 145.45 154.447 147.355 153.877 149.438C153.307 151.521 153.289 153.713 153.823 155.804Z" fill="#FFC3BD"/>
<path d="M186.392 243.948C186.392 243.948 193.892 315.969 193.22 344.478C192.572 374.127 181.51 441.744 181.51 441.744H168.651C168.651 441.744 170.688 375.838 169.55 346.714C168.31 314.963 158.045 243.925 158.045 243.925L186.392 243.948Z" fill="#2CB67D"/>
<path opacity="0.4" d="M186.392 243.948C186.392 243.948 193.892 315.969 193.22 344.478C192.572 374.127 181.51 441.744 181.51 441.744H168.651C168.651 441.744 170.688 375.838 169.55 346.714C168.31 314.963 158.045 243.925 158.045 243.925L186.392 243.948Z" fill="black"/>
<path d="M167.583 442.214H182.672L183.788 437.485L166.877 436.903L167.583 442.214Z" fill="#2CB67D"/>
<path opacity="0.2" d="M169.722 261.869C179.213 280.629 171.623 314.851 168.266 327.585C166.547 308.467 163.645 285.101 161.381 267.917C162.815 258.258 165.341 253.216 169.722 261.869Z" fill="black"/>
<path d="M176.186 243.948C176.186 243.948 167.424 318.854 160.812 342.857C152.971 371.4 123.121 419.999 123.121 419.999L111.184 415.013C111.184 415.013 129.653 359.828 135.662 344.791C148.464 312.705 137.506 264.888 147.736 243.948H176.186Z" fill="#2CB67D"/>
<path opacity="0.4" d="M176.186 243.948C176.186 243.948 167.424 318.854 160.812 342.857C152.971 371.4 123.121 419.999 123.121 419.999L111.184 415.013C111.184 415.013 129.653 359.828 135.662 344.791C148.464 312.705 137.506 264.888 147.736 243.948H176.186Z" fill="black"/>
<path d="M109.533 415.046L124.35 421.24L127.912 417.327L110.819 409.266L109.533 415.046Z" fill="#2CB67D"/>
<path d="M168.424 155.927C168.561 156.665 169.061 157.202 169.562 157.112C170.063 157.023 170.347 156.352 170.211 155.614C170.074 154.876 169.573 154.34 169.073 154.418C168.572 154.496 168.231 155.178 168.424 155.927Z" fill="#263238"/>
<path d="M176.914 154.452C177.039 155.19 177.551 155.726 178.052 155.637C178.553 155.547 178.849 154.877 178.712 154.139C178.576 153.401 178.075 152.864 177.574 152.942C177.073 153.021 176.778 153.703 176.914 154.452Z" fill="#263238"/>
<path d="M177.357 153.032L179.076 152.193C179.076 152.193 178.393 153.747 177.357 153.032Z" fill="#263238"/>
<path d="M174.877 156.117C175.854 157.695 177.049 159.133 178.428 160.388C178.09 160.724 177.682 160.984 177.232 161.15C176.782 161.316 176.301 161.384 175.821 161.35L174.877 156.117Z" fill="#ED847E"/>
<path d="M172.396 164.849C172.827 164.848 173.257 164.811 173.682 164.737C173.714 164.736 173.746 164.728 173.775 164.713C173.804 164.699 173.83 164.679 173.85 164.654C173.871 164.629 173.885 164.6 173.893 164.569C173.901 164.538 173.903 164.506 173.897 164.474C173.891 164.443 173.879 164.413 173.86 164.387C173.842 164.36 173.818 164.338 173.79 164.322C173.762 164.306 173.731 164.295 173.698 164.292C173.666 164.288 173.633 164.291 173.602 164.301C172.665 164.485 171.697 164.448 170.777 164.193C169.858 163.938 169.012 163.474 168.311 162.837C168.268 162.796 168.211 162.773 168.151 162.773C168.092 162.773 168.034 162.796 167.992 162.837C167.97 162.857 167.952 162.881 167.94 162.908C167.928 162.935 167.922 162.964 167.922 162.993C167.922 163.023 167.928 163.052 167.94 163.079C167.952 163.106 167.97 163.13 167.992 163.15C169.18 164.256 170.759 164.866 172.396 164.849Z" fill="#263238"/>
<path d="M157.044 150.516C157.293 152.894 157.673 155.256 158.182 157.593C158.182 157.593 163.872 150.516 164.816 146.726C164.591 148.219 164.15 149.672 163.508 151.042C163.508 151.042 171.167 149.398 171.918 144.434C171.905 146.657 171.653 148.871 171.167 151.042C171.167 151.042 178.472 148.224 177.801 143.462C177.13 138.699 165.909 136.854 160.731 138.464C155.553 140.074 150.489 145.295 152.014 152.473C153.539 159.65 156.464 162.345 156.464 162.345C156.464 162.345 154.358 155.111 157.044 150.516Z" fill="#263238"/>
<path d="M153.425 162.602C154.128 164.258 155.47 165.573 157.158 166.258C159.434 167.152 160.788 165.24 160.39 163.027C160.037 161.026 158.432 158.163 156.077 158.208C155.561 158.231 155.06 158.379 154.617 158.639C154.174 158.9 153.805 159.265 153.542 159.701C153.279 160.137 153.13 160.63 153.11 161.137C153.089 161.643 153.198 162.147 153.425 162.602Z" fill="#FFC3BD"/>
<path d="M158.421 147.073C157.283 151.545 159.65 161.83 162.632 165.71C156.942 162.881 154.666 153.535 154.666 153.535L158.421 147.073Z" fill="#263238"/>
<path d="M165.306 153.378C165.364 153.361 165.418 153.332 165.465 153.294C165.512 153.255 165.551 153.208 165.579 153.155C165.819 152.65 166.177 152.209 166.624 151.867C167.071 151.525 167.594 151.292 168.151 151.187C168.268 151.17 168.375 151.11 168.449 151.019C168.523 150.927 168.559 150.812 168.549 150.695C168.543 150.637 168.526 150.58 168.497 150.528C168.469 150.477 168.43 150.431 168.383 150.395C168.337 150.358 168.283 150.331 168.225 150.316C168.168 150.3 168.107 150.296 168.048 150.304C167.342 150.424 166.676 150.709 166.106 151.136C165.535 151.562 165.078 152.116 164.771 152.752C164.732 152.83 164.717 152.917 164.728 153.003C164.739 153.089 164.775 153.17 164.831 153.236C164.888 153.302 164.963 153.351 165.047 153.376C165.131 153.402 165.221 153.402 165.306 153.378Z" fill="#263238"/>
<path d="M180.021 149.913C180.078 149.915 180.135 149.905 180.188 149.884C180.241 149.863 180.289 149.831 180.328 149.79C180.411 149.706 180.458 149.594 180.458 149.477C180.458 149.359 180.411 149.247 180.328 149.164C179.843 148.648 179.241 148.251 178.57 148.006C177.9 147.762 177.181 147.675 176.47 147.755C176.411 147.766 176.355 147.788 176.304 147.82C176.254 147.852 176.21 147.894 176.177 147.943C176.143 147.992 176.119 148.047 176.107 148.105C176.095 148.163 176.095 148.222 176.106 148.28C176.131 148.393 176.199 148.493 176.297 148.557C176.394 148.622 176.514 148.647 176.63 148.627C177.19 148.565 177.757 148.635 178.285 148.829C178.813 149.023 179.287 149.337 179.668 149.745C179.71 149.797 179.764 149.839 179.825 149.868C179.886 149.897 179.953 149.912 180.021 149.913Z" fill="#263238"/>
<path d="M145.585 200.524C144.004 205.433 142.49 210.586 141.204 215.662C139.91 220.673 138.963 225.764 138.37 230.901L138.279 231.84C138.279 232.142 138.279 232.209 138.279 232.477C138.292 233.004 138.334 233.53 138.405 234.053C138.549 235.278 138.758 236.494 139.03 237.698C139.565 240.191 140.168 242.763 140.942 245.312C141.716 247.861 142.376 250.454 143.15 253.026L145.426 260.74L141.204 262.451C138.609 257.576 136.356 252.612 134.251 247.492C133.238 244.92 132.248 242.327 131.429 239.587C131.019 238.223 130.632 236.826 130.291 235.305C130.129 234.5 130.015 233.686 129.949 232.868C129.949 232.455 129.949 231.84 129.949 231.471V230.353C130.046 227.504 130.312 224.663 130.746 221.845C131.121 219.05 131.679 216.322 132.282 213.605C133.466 208.164 134.986 202.799 136.834 197.539L145.585 200.524Z" fill="#FFC3BD"/>
<path d="M140.885 187.254C137.016 188.372 132.361 201.508 132.361 201.508L147.383 212.062C147.383 212.062 152.868 201.128 151.241 196.209C149.545 191.089 145.312 185.935 140.885 187.254Z" fill="#2CB67D"/>
<path opacity="0.4" d="M140.885 187.254C137.016 188.372 132.361 201.508 132.361 201.508L147.383 212.062C147.383 212.062 152.868 201.128 151.241 196.209C149.545 191.089 145.312 185.935 140.885 187.254Z" fill="white"/>
<path d="M120.127 432.465C120.312 432.401 120.481 432.297 120.62 432.162C120.76 432.027 120.868 431.863 120.935 431.682C121.001 431.566 121.036 431.435 121.036 431.302C121.036 431.169 121.001 431.038 120.935 430.922C120.252 429.938 116.804 430.016 116.383 430.027C116.34 430.028 116.297 430.041 116.261 430.065C116.224 430.089 116.196 430.122 116.178 430.162C116.156 430.197 116.145 430.238 116.145 430.279C116.145 430.32 116.156 430.361 116.178 430.396C117.077 431.28 118.762 432.722 119.945 432.498L120.127 432.465ZM116.93 430.43C118.306 430.43 120.15 430.62 120.514 431.145C120.545 431.196 120.562 431.254 120.562 431.313C120.562 431.372 120.545 431.43 120.514 431.481C120.464 431.616 120.38 431.736 120.271 431.832C120.162 431.928 120.03 431.995 119.888 432.029C119.262 432.185 118.17 431.548 116.93 430.43Z" fill="#2CB67D"/>
<path d="M117.943 430.195C118.99 429.871 120.105 429.301 120.344 428.664C120.404 428.498 120.405 428.317 120.347 428.151C120.289 427.985 120.176 427.842 120.026 427.747C119.893 427.638 119.737 427.561 119.57 427.52C119.402 427.479 119.227 427.477 119.058 427.512C117.704 427.747 116.248 430.028 116.191 430.128C116.171 430.162 116.16 430.201 116.16 430.24C116.16 430.279 116.171 430.318 116.191 430.352C116.211 430.385 116.239 430.412 116.273 430.431C116.307 430.451 116.345 430.462 116.384 430.464C116.914 430.449 117.439 430.358 117.943 430.195ZM118.99 427.959H119.138C119.245 427.937 119.356 427.939 119.462 427.964C119.568 427.989 119.667 428.037 119.753 428.105C119.98 428.284 119.957 428.418 119.923 428.518C119.696 429.133 117.966 429.871 116.817 430.016C117.339 429.157 118.091 428.453 118.99 427.982V427.959Z" fill="#2CB67D"/>
<path d="M183.127 454.959C183.93 455.024 184.731 454.823 185.403 454.389C185.56 454.25 185.679 454.075 185.75 453.88C185.822 453.685 185.843 453.476 185.813 453.271C185.804 453.149 185.764 453.032 185.696 452.931C185.629 452.829 185.536 452.746 185.426 452.689C184.288 452.063 180.476 453.964 180.043 454.176C180.002 454.193 179.966 454.222 179.941 454.259C179.916 454.295 179.902 454.339 179.902 454.383C179.902 454.427 179.916 454.471 179.941 454.508C179.966 454.544 180.002 454.573 180.043 454.59C181.056 454.815 182.089 454.938 183.127 454.959ZM184.823 453.025C184.968 453.016 185.113 453.043 185.244 453.103C185.289 453.127 185.326 453.163 185.352 453.206C185.379 453.249 185.392 453.299 185.392 453.349C185.413 453.478 185.402 453.609 185.358 453.732C185.314 453.855 185.24 453.966 185.142 454.053C184.561 454.568 182.991 454.657 180.886 454.31C182.115 453.666 183.446 453.231 184.823 453.025Z" fill="#2CB67D"/>
<path d="M180.179 454.635H180.27C181.408 454.132 183.684 452.119 183.479 451.057C183.479 450.8 183.252 450.498 182.626 450.431C182.402 450.406 182.175 450.427 181.959 450.493C181.744 450.558 181.545 450.667 181.374 450.811C180.236 451.795 179.963 454.31 179.951 454.411C179.95 454.45 179.959 454.489 179.976 454.525C179.994 454.56 180.021 454.59 180.054 454.612C180.091 454.635 180.136 454.643 180.179 454.635ZM182.455 450.845H182.591C183.001 450.845 183.035 451.057 183.035 451.102C183.149 451.739 181.624 453.338 180.463 454.02C180.554 452.957 180.98 451.949 181.681 451.135C181.89 450.949 182.162 450.845 182.444 450.845H182.455Z" fill="#2CB67D"/>
<path d="M147.155 241.723L146.176 245.077C146.04 245.334 146.359 245.602 146.802 245.602H186.632C186.985 245.602 187.27 245.434 187.292 245.222L187.645 241.868C187.645 241.633 187.361 241.432 186.985 241.432H147.792C147.67 241.423 147.547 241.445 147.435 241.495C147.323 241.546 147.227 241.625 147.155 241.723Z" fill="#263238"/>
<path d="M152.412 246.016H151.353C151.149 246.016 150.989 245.915 151.001 245.781L151.49 241.309C151.49 241.186 151.695 241.074 151.9 241.074H152.947C153.163 241.074 153.311 241.186 153.299 241.309L152.81 245.781C152.81 245.96 152.628 246.016 152.412 246.016Z" fill="#2CB67D"/>
<path opacity="0.4" d="M152.412 246.016H151.353C151.149 246.016 150.989 245.915 151.001 245.781L151.49 241.309C151.49 241.186 151.695 241.074 151.9 241.074H152.947C153.163 241.074 153.311 241.186 153.299 241.309L152.81 245.781C152.81 245.96 152.628 246.016 152.412 246.016Z" fill="black"/>
<path d="M183.627 246.016H182.58C182.375 246.016 182.216 245.915 182.227 245.781L182.728 241.309C182.728 241.186 182.921 241.074 183.126 241.074H184.173C184.389 241.074 184.549 241.186 184.526 241.309L184.037 245.781C184.025 245.96 183.843 246.016 183.627 246.016Z" fill="#2CB67D"/>
<path opacity="0.4" d="M183.627 246.016H182.58C182.375 246.016 182.216 245.915 182.227 245.781L182.728 241.309C182.728 241.186 182.921 241.074 183.126 241.074H184.173C184.389 241.074 184.549 241.186 184.526 241.309L184.037 245.781C184.025 245.96 183.843 246.016 183.627 246.016Z" fill="black"/>
<path d="M168.025 246.016H166.978C166.762 246.016 166.602 245.915 166.625 245.781L167.115 241.309C167.115 241.186 167.308 241.074 167.524 241.074H168.571C168.776 241.074 168.935 241.186 168.924 241.309L168.435 245.781C168.423 245.96 168.23 246.016 168.025 246.016Z" fill="#2CB67D"/>
<path opacity="0.4" d="M168.025 246.016H166.978C166.762 246.016 166.602 245.915 166.625 245.781L167.115 241.309C167.115 241.186 167.308 241.074 167.524 241.074H168.571C168.776 241.074 168.935 241.186 168.924 241.309L168.435 245.781C168.423 245.96 168.23 246.016 168.025 246.016Z" fill="black"/>
<path d="M168.811 154.496L170.529 153.669C170.529 153.669 169.846 155.223 168.811 154.496Z" fill="#263238"/>
<path d="M145.107 259.477L153.266 265.626L143.809 267.672C143.809 267.672 139.792 263.2 141.18 259.51L145.107 259.477Z" fill="#FFC3BD"/>
<path d="M155.268 273.239L147.257 274.525L142.887 266.453L153.265 265.626L155.268 273.239Z" fill="#FFC3BD"/>
<path d="M245.919 250.321L242.158 273.215L235.56 273.81L230.628 259.411L228.294 274.465L221.697 275.06L213.953 253.203L219.785 252.677L224.511 268.669L226.988 252.028L232.979 251.488L238.311 267.425L240.055 250.85L245.919 250.321ZM254.506 253.949L254.925 258.474L262.224 257.816L262.613 262.022L255.315 262.68L255.769 267.587L264.023 266.843L264.428 271.208L250.723 272.443L248.652 250.075L262.357 248.84L262.761 253.205L254.506 253.949ZM273.026 266.192L280.165 265.548L280.555 269.754L267.966 270.889L265.895 248.521L271.345 248.03L273.026 266.192ZM281.191 258.387C280.987 256.178 281.283 254.17 282.08 252.363C282.875 250.535 284.078 249.067 285.689 247.957C287.32 246.825 289.218 246.161 291.386 245.966C294.042 245.727 296.38 246.223 298.401 247.454C300.422 248.686 301.863 250.484 302.724 252.848L296.733 253.388C296.2 252.494 295.497 251.839 294.623 251.425C293.77 251.01 292.823 250.849 291.782 250.943C290.104 251.094 288.798 251.801 287.865 253.063C286.932 254.325 286.556 255.933 286.737 257.887C286.918 259.842 287.583 261.356 288.732 262.431C289.882 263.505 291.296 263.967 292.974 263.815C294.015 263.722 294.917 263.394 295.679 262.833C296.462 262.269 297.034 261.5 297.394 260.525L303.385 259.985C302.972 262.465 301.885 264.49 300.124 266.063C298.361 267.614 296.151 268.509 293.495 268.749C291.328 268.944 289.34 268.641 287.53 267.84C285.74 267.017 284.287 265.787 283.171 264.153C282.056 262.518 281.396 260.597 281.191 258.387ZM318.033 266.601C315.929 266.791 313.95 266.476 312.096 265.658C310.264 264.838 308.746 263.604 307.544 261.956C306.361 260.285 305.668 258.355 305.465 256.167C305.263 253.979 305.591 251.968 306.449 250.135C307.329 248.299 308.595 246.814 310.247 245.68C311.92 244.544 313.808 243.881 315.911 243.691C318.015 243.502 319.983 243.817 321.816 244.637C323.67 245.455 325.177 246.69 326.336 248.342C327.518 249.992 328.209 251.911 328.412 254.099C328.615 256.287 328.288 258.308 327.431 260.164C326.572 261.997 325.317 263.481 323.665 264.616C322.014 265.75 320.136 266.412 318.033 266.601ZM317.572 261.63C319.357 261.47 320.726 260.746 321.678 259.461C322.651 258.174 323.048 256.553 322.867 254.599C322.684 252.623 321.996 251.1 320.805 250.029C319.632 248.936 318.153 248.469 316.369 248.63C314.563 248.793 313.172 249.507 312.196 250.773C311.242 252.037 310.858 253.668 311.042 255.665C311.225 257.64 311.903 259.175 313.076 260.269C314.267 261.339 315.766 261.793 317.572 261.63ZM355.752 240.421L357.823 262.79L352.373 263.281L351.131 249.866L347.369 263.732L342.971 264.128L336.69 251.136L337.935 264.582L332.485 265.074L330.414 242.705L336.852 242.125L344.565 257.045L349.346 240.999L355.752 240.421ZM365.525 243.942L365.944 248.467L373.242 247.809L373.632 252.015L366.333 252.673L366.788 257.58L375.042 256.836L375.446 261.201L361.742 262.437L359.671 240.068L373.375 238.833L373.779 243.198L365.525 243.942Z" fill="white"/>
</svg>
