<svg width="18" height="18" viewBox="0 0 18 18" fill="none" xmlns="http://www.w3.org/2000/svg">
<path fill-rule="evenodd" clip-rule="evenodd" d="M13.0226 11.0006H12.2326L11.9526 10.7306C13.1526 9.33063 13.7726 7.42063 13.4326 5.39063C12.9626 2.61063 10.6426 0.390626 7.8426 0.0506256C3.6126 -0.469374 0.0525983 3.09063 0.572598 7.32063C0.912598 10.1206 3.1326 12.4406 5.9126 12.9106C7.9426 13.2506 9.8526 12.6306 11.2526 11.4306L11.5226 11.7106V12.5006L15.7726 16.7506C16.1826 17.1606 16.8526 17.1606 17.2626 16.7506C17.6726 16.3406 17.6726 15.6706 17.2626 15.2606L13.0226 11.0006ZM7.0226 11.0006C4.5326 11.0006 2.5226 8.99063 2.5226 6.50063C2.5226 4.01063 4.5326 2.00063 7.0226 2.00063C9.5126 2.00063 11.5226 4.01063 11.5226 6.50063C11.5226 8.99063 9.5126 11.0006 7.0226 11.0006Z" fill="#010303" fill-opacity="0.87"/>
</svg>
