<svg width="35" height="35" viewBox="0 0 35 35" fill="none" xmlns="http://www.w3.org/2000/svg">
<path d="M17.5 35C27.165 35 35 27.165 35 17.5C35 7.83502 27.165 0 17.5 0C7.83502 0 0 7.83502 0 17.5C0 27.165 7.83502 35 17.5 35Z" fill="url(#paint0_linear_1004_4131)"/>
<path d="M14.2913 25.5209C13.7244 25.5209 13.8207 25.3068 13.6252 24.767L11.958 19.2801L24.7913 11.6667" fill="#C8DAEA"/>
<path d="M14.292 25.5208C14.7295 25.5208 14.9228 25.3207 15.167 25.0833L17.5003 22.8144L14.5898 21.0593" fill="#A9C9DD"/>
<path d="M14.589 21.0599L21.6415 26.2704C22.4462 26.7144 23.0271 26.4845 23.2276 25.5232L26.0983 11.9952C26.3922 10.8169 25.6491 10.2824 24.8792 10.632L8.02233 17.1319C6.87169 17.5934 6.8784 18.2354 7.81259 18.5214L12.1384 19.8716L22.1533 13.5533C22.626 13.2666 23.0599 13.4208 22.7038 13.7369" fill="url(#paint1_linear_1004_4131)"/>
<defs>
<linearGradient id="paint0_linear_1004_4131" x1="13.1267" y1="1.4595" x2="4.37675" y2="21.875" gradientUnits="userSpaceOnUse">
<stop stop-color="#37AEE2"/>
<stop offset="1" stop-color="#1E96C8"/>
</linearGradient>
<linearGradient id="paint1_linear_1004_4131" x1="15.3091" y1="18.575" x2="17.1789" y2="24.6234" gradientUnits="userSpaceOnUse">
<stop stop-color="#EFF7FC"/>
<stop offset="1" stop-color="white"/>
</linearGradient>
</defs>
</svg>
