<svg width="36" height="36" viewBox="0 0 36 36" fill="none" xmlns="http://www.w3.org/2000/svg">
<path fill-rule="evenodd" clip-rule="evenodd" d="M0.875 17.9355C0.875 27.6005 8.71002 35.4355 18.375 35.4355C28.04 35.4355 35.875 27.6005 35.875 17.9355C35.875 8.27056 28.04 0.435547 18.375 0.435547C8.71002 0.435547 0.875 8.27056 0.875 17.9355ZM15.1667 25.9564L15.4644 21.4955L15.4642 21.4953L23.579 14.1723C23.9351 13.8562 23.5012 13.7021 23.0285 13.9888L13.0136 20.307L8.68779 18.9569C7.75359 18.6708 7.74689 18.0289 8.89752 17.5674L25.7544 11.0674C26.5243 10.7179 27.2674 11.2523 26.9735 12.4307L24.1027 25.9586C23.9023 26.92 23.3214 27.1499 22.5167 26.7058L18.1436 23.475L16.0417 25.5189C16.035 25.5253 16.0284 25.5317 16.0219 25.5381C15.7868 25.767 15.5923 25.9564 15.1667 25.9564Z" fill="#7E7E7E" fill-opacity="0.4"/>
</svg>
