<svg width="567" height="466" viewBox="0 0 567 466" fill="none" xmlns="http://www.w3.org/2000/svg">
<path d="M331.767 461.847C331.767 461.847 390.394 432.891 400.478 417.789C410.562 402.688 395.74 401.833 395.74 401.833C395.74 401.833 421.902 376.348 418.223 365.616C414.543 354.888 400.988 364.727 400.988 364.727C400.988 364.727 417.81 327.216 409.878 323.446C395.104 316.422 374.376 356.782 374.376 356.782C374.376 356.782 378.83 339.251 368.655 339.819C353.311 340.677 353.947 380.336 353.947 380.336C353.947 380.336 352.214 365.13 342.966 370.068C326.374 378.932 331.767 461.847 331.767 461.847Z" fill="#355389"/>
<path d="M339.619 363.935C346.839 359.922 354.034 371.653 354.034 371.653C354.034 371.653 353.306 340.677 368.648 339.819C378.823 339.248 374.368 356.782 374.368 356.782C374.368 356.782 395.093 316.426 409.871 323.446L331.693 461.204C331.139 451.583 325.314 371.886 339.619 363.935Z" fill="#466EB6"/>
<path d="M333.281 462.204C333.281 462.204 381.233 468.171 393.648 462.854C406.062 457.537 397.166 450.971 397.166 450.971C397.166 450.971 423.826 445.724 425.88 437.533C427.937 429.342 415.639 429.995 415.639 429.995C415.639 429.995 441.199 413.414 437.781 407.835C431.415 397.441 402.115 414.177 402.115 414.177C402.115 414.177 412.007 405.055 405.429 401.269C395.509 395.561 379.819 420.554 379.819 420.554C379.819 420.554 380.792 414.395 373.02 413.71C359.075 412.486 333.281 462.204 333.281 462.204Z" fill="#355389"/>
<path d="M372.702 409.236C380.473 409.918 379.815 420.557 379.815 420.557C379.815 420.557 395.793 390.929 405.712 396.637C412.29 400.423 404.509 412.855 404.509 412.855C404.509 412.855 431.418 397.442 437.781 407.835L333.133 461.939C336.689 455.714 359.676 408.091 372.702 409.236Z" fill="#466EB6"/>
<path d="M207.967 460.333C207.967 460.333 149.339 431.377 139.256 416.276C129.172 401.175 143.994 400.32 143.994 400.32C143.994 400.32 117.832 374.831 121.511 364.103C125.193 353.375 138.928 363.627 138.928 363.627C138.928 363.627 121.924 325.706 129.856 321.936C144.63 314.912 165.358 355.271 165.358 355.271C165.358 355.271 160.904 337.741 171.079 338.308C186.423 339.167 185.787 378.826 185.787 378.826C185.787 378.826 187.519 363.62 196.768 368.558C213.36 377.418 207.967 460.333 207.967 460.333Z" fill="#355389"/>
<path d="M200.103 362.421C192.883 358.408 185.688 370.139 185.688 370.139C185.688 370.139 186.416 339.164 171.075 338.305C160.9 337.734 165.354 355.268 165.354 355.268C165.354 355.268 144.629 314.909 129.852 321.932L208.029 459.687C208.583 450.069 214.408 370.373 200.103 362.421Z" fill="#466EB6"/>
<path d="M206.418 460.693C206.418 460.693 158.469 466.657 146.051 461.343C133.637 456.026 142.533 449.46 142.533 449.46C142.533 449.46 115.873 444.213 113.816 436.022C111.759 427.831 124.485 428.635 124.485 428.635C124.485 428.635 98.4934 411.903 101.911 406.324C108.278 395.93 137.577 412.666 137.577 412.666C137.577 412.666 127.686 403.544 134.263 399.758C144.183 394.05 159.874 419.043 159.874 419.043C159.874 419.043 158.901 412.884 166.672 412.199C180.624 410.975 206.418 460.693 206.418 460.693Z" fill="#355389"/>
<path d="M165.859 403.853C158.088 404.538 158.207 412.098 158.207 412.098C158.207 412.098 143.902 389.412 133.983 395.123C127.405 398.909 135.186 411.341 135.186 411.341C135.186 411.341 108.277 395.927 101.914 406.321L206.562 460.425C203.003 454.199 178.882 402.711 165.859 403.853Z" fill="#466EB6"/>
<path d="M486.436 319.623C487.879 316.146 489.347 312.662 493.089 310.902C496.12 309.475 499.283 310.012 501.973 312.041C509.599 317.783 502.953 324.113 511.634 335.005C514.331 338.391 517.595 341.123 519.214 345.086C521.476 350.636 518.782 353.303 514.463 355.962C493.801 368.681 482.971 342.565 483.362 336.592C483.648 332.143 485.51 321.863 486.436 319.623Z" fill="#13375B"/>
<path d="M473.987 435.444C475.004 440.06 476.608 444.096 476.825 444.573C476.929 444.8 477.877 445.614 477.994 445.847C477.695 451.53 474.207 455.02 470.906 457.534C471.542 454.654 473.064 451.319 472.831 450.691C472.459 449.69 470.994 445.118 468.008 439.41C470.811 438.991 471.753 437.243 473.987 435.444Z" fill="#F7A491"/>
<path d="M486.743 367.956L504.33 381.337C504.33 381.337 495.62 389.73 492.353 392.848C489.087 395.968 468.929 410.492 468.645 411.205C468.434 411.735 473.232 428.433 476.325 437.347C474.467 439.25 470.372 441.118 467.949 441.733C461.85 430.077 454.359 410.186 454.359 407.485C454.359 403.087 486.743 367.956 486.743 367.956Z" fill="#355389"/>
<path d="M536.09 394.653C535.513 395.214 531.695 402.664 530.243 406.652C528.117 405.311 526.831 403.712 524.453 402.809C526.327 400.093 529.985 393.555 530.284 391.996C530.996 388.304 531.834 387.758 531.834 387.758C531.834 387.758 544.192 391.946 545.014 393.119C545.836 394.293 538.402 392.397 536.09 394.653Z" fill="#F7A491"/>
<path d="M530.141 392.816C529.183 392.82 530.223 388.478 530.443 387.478C530.692 386.354 531.341 386.017 531.502 385.976C531.94 385.868 545.674 390.522 547.993 392.192C548.15 392.305 548.431 392.662 548.475 392.744C549.744 395.12 538.423 395.571 536.794 394.533C535.348 393.612 534.454 392.804 530.141 392.816Z" fill="#3C8F7C"/>
<path d="M482.992 371.906C482.992 371.906 498.343 365.693 498.346 365.693C498.286 365.721 498.437 366.318 498.45 366.365C499.89 371.982 507.573 369.814 510.745 379.567C512.985 386.458 516.267 412.231 516.267 412.231C516.267 412.231 518.592 407.8 525.815 399.647C526.376 399.016 533.492 403.91 533.492 403.91C528.2 417.964 515.203 429.383 513.445 428.575C501.556 423.113 487.276 380.005 487.295 380.009C485.941 377.374 482.992 371.906 482.992 371.906Z" fill="#466EB6"/>
<path d="M482.423 326.542C482.423 326.542 475.222 315.123 473.971 311.324C472.717 307.528 473.961 289.433 474.078 288.149C474.198 286.861 478.548 283.349 477.865 282.336C477.178 281.327 471.17 280.503 470.162 280.699C469.154 280.894 467.195 280.715 466.392 281.529C466.288 281.636 468.304 286.397 468.263 287.136C467.976 292.178 465.119 308.229 466.055 312.567C467.132 317.559 477.824 333.506 477.824 333.506L482.423 326.542Z" fill="#F7A491"/>
<path d="M508.57 333.193C508.57 333.193 527.833 333.673 532.064 334.02C536.295 334.367 551.639 333.089 552.235 333.02C552.83 332.95 556.761 326.283 557.413 326.999C558.066 327.716 555.227 330.306 556.103 330.978C556.982 331.65 566.42 330.145 566.294 330.846C566.061 332.152 560.554 331.988 560.557 332.619C560.564 333.25 566.319 332.266 566.713 333.313C567.103 334.361 561.175 333.742 560.939 334.209C560.702 334.676 566.439 335.534 565.85 336.509C565.531 337.04 560.768 335.626 560.79 336.349C560.813 337.071 564.29 338.712 563.862 339.286C563.433 339.86 561.134 337.522 559.118 337.494C557.102 337.466 555.656 336.412 552.439 337.295C549.22 338.179 538.248 342.612 531.381 342.284C524.513 341.955 509.336 341.28 509.336 341.28L508.57 333.193Z" fill="#F7A491"/>
<path d="M480.291 353.343C480.03 350.16 479.586 341.574 479.728 340.517C478.767 337.21 475.261 332.31 474.523 330.925C474.523 330.925 479.28 325.526 482.805 325.574C482.805 325.574 486.557 330.319 489.342 331.774C489.383 331.764 490.328 332.197 490.744 332.193C493.434 332.175 502.828 331.891 504.582 332.414L503.59 346.957C503.086 347.79 502.472 364.513 501.432 365.889C500.392 367.265 485.269 373.531 482.761 371.916C482.667 371.846 480.824 359.774 480.291 353.343Z" fill="#50BFA5"/>
<path d="M499.695 332.749C501.428 331.919 514.088 331.947 514.088 331.947C514.088 331.947 515.84 340.694 514.425 342.798C514.425 342.798 503.211 344.471 503.529 345.392L499.695 332.749Z" fill="#50BFA5"/>
<path d="M496.878 326.836C496.878 326.836 495.904 331.881 496.1 333.872C496.295 335.863 495.356 342.275 491.151 342.297C486.945 342.319 490.351 334.143 490.747 332.193C491.144 330.243 491.236 324.207 491.236 324.207L496.878 326.836Z" fill="#F7A491"/>
<path d="M491.156 327.234C491.222 325.583 491.244 324.204 491.244 324.204L496.883 326.836C496.883 326.836 496.685 327.868 496.483 329.184C494.013 329.679 492.224 328.764 491.156 327.234Z" fill="#F47458"/>
<path d="M498.943 312.915C498.943 312.915 501.116 314.123 501.91 316.739C502.704 319.355 501.8 326.11 496.186 327.738C490.573 329.366 488.141 324.021 489.297 319.841C490.453 315.66 492.967 310.365 498.943 312.915Z" fill="#F7A491"/>
<path d="M488.603 318.219C488.713 319.342 489.331 320.2 489.986 320.137C490.641 320.074 491.079 319.112 490.969 317.988C490.858 316.865 490.241 316.007 489.586 316.07C488.934 316.133 488.493 317.095 488.603 318.219Z" fill="#F7A491"/>
<path d="M476.88 444.708C477.204 443.805 480.881 446.522 481.744 447.068C482.714 447.683 482.812 448.409 482.793 448.576C482.746 449.015 474.029 460.56 471.421 462.204C471.175 462.359 470.646 462.381 470.488 462.327C468.989 461.806 471.08 452.536 472.958 450.652C474.171 449.438 475.425 448.772 476.88 444.708Z" fill="#3C8F7C"/>
<path d="M508.864 272.195L493.4 277.701C492.613 277.982 492.014 278.635 491.797 279.446L487.563 295.371C487.021 297.412 484.378 297.942 483.096 296.263L473.082 283.185C472.571 282.519 471.768 282.147 470.933 282.191L454.54 283.046C452.439 283.156 451.119 280.796 452.309 279.051L461.587 265.461C462.059 264.77 462.163 263.887 461.861 263.101L455.964 247.707C455.208 245.731 457.031 243.747 459.051 244.346L474.798 249.025C475.602 249.265 476.468 249.092 477.117 248.562L489.862 238.19C491.497 236.859 493.945 237.995 494.002 240.109L494.459 256.592C494.481 257.431 494.915 258.207 495.618 258.665L509.393 267.651C511.161 268.803 510.849 271.488 508.864 272.195Z" fill="#F7CC7F"/>
<path d="M477.76 282.497C478.337 283.346 475.212 286.034 474.345 287.517L472.383 284.838C473.35 284.652 477.102 281.528 477.76 282.497Z" fill="#F7A491"/>
<path d="M498.281 312.574C498.281 312.574 499.299 320.109 501.731 321.465C504.163 322.822 503.145 326.167 503.145 326.167C503.145 326.167 505.35 318.408 503.429 315.915C501.504 313.423 498.281 312.574 498.281 312.574Z" fill="#13375B"/>
<path d="M500.29 322.547C499.631 323.529 499.631 324.687 500.296 325.132C500.958 325.576 502.029 325.144 502.69 324.163C503.349 323.182 503.349 322.024 502.684 321.579C502.019 321.134 500.948 321.566 500.29 322.547Z" fill="#F7A491"/>
<path d="M473.04 283.129C473.056 283.147 473.072 283.163 473.085 283.182L473.796 284.11C473.274 283.968 472.275 283.687 471.305 284.35C471.305 284.353 471.626 283.665 473.04 283.129Z" fill="#F47257"/>
<path d="M50.4279 366.836C50.6169 366.914 47.9235 370.392 45.2995 372.853C43.1825 375.513 41.1979 378.662 40.5144 382.095C39.4748 387.313 40.3411 413.105 39.437 414.941C31.6719 422.546 26.0488 441.632 24.4675 447.454C24.1588 448.589 23.535 449.612 22.6719 450.407L23.0184 456.986L26.8773 460.545C26.8773 460.545 26.0205 455.184 27.7342 451.205C27.7342 451.205 47.2872 421.545 48.4465 419.277C50.6642 412.821 58.738 379.741 58.738 379.741L60.6124 372.136C60.6155 372.143 50.4436 366.842 50.4279 366.836Z" fill="#F7A491"/>
<path d="M18.4453 452.524C18.4453 452.524 20.8867 456.295 21.0977 457.762C21.3057 459.232 22.6067 462.564 24.0463 462.772C24.3739 462.82 29.9686 463.233 29.9276 462.533C29.8961 461.996 27.8706 461.233 26.9318 460.583C25.3064 459.459 22.7831 450.299 22.7831 450.299C22.7831 450.299 18.5524 451.35 18.4453 452.524Z" fill="#F47458"/>
<path d="M67.1478 378.267C67.1478 378.267 79.7421 405.239 79.8209 409.981C79.8902 414.045 77.6189 436.852 78.2521 455.843C78.2741 456.528 79.1404 457.44 80.4036 458.02C81.1124 458.345 84.5429 459.882 84.5429 459.882L85.0155 461.11L73.2024 460.267L73.0354 457.036C73.0354 457.036 68.3354 428.626 68.8142 420.589C68.8898 419.327 69.5009 411.77 69.5009 411.77L55.2969 384.303L64.2307 372.547L67.1478 378.267Z" fill="#F7A491"/>
<path d="M68.3211 317.729C66.4121 312.636 61.4285 309.554 56.2371 310.507C54.6431 307.932 51.9875 306.02 49.0988 305.398C43.397 304.174 35.6918 306.43 35.8997 312.476C33.6883 316.536 33.6032 322.342 36.9865 325.431C35.8083 330.893 40.9147 336.172 47.5552 335.979C49.8675 339.797 54.2714 342.252 58.6501 341.728C59.7023 341.602 61.3057 341.34 61.5703 341.407C61.2364 341.343 68.6046 347.004 74.8482 338.302C81.2178 329.423 76.7414 318.676 68.3211 317.729Z" fill="#355389"/>
<path d="M67.5701 287.183C67.8789 286.454 68.2569 285.756 68.7042 285.103L69.1956 284.384C69.2555 284.258 69.3027 284.15 69.3279 284.078C69.5421 283.44 69.3783 281.393 69.3783 281.393L65.0689 282.437L64.1239 284.927C63.1662 284.482 61.5281 281.143 60.9296 281.945C60.224 282.891 62.8858 286.997 63.0938 288.11C63.3048 289.221 60.8067 306.481 60.0822 309.907C59.3608 313.334 54.4844 322.901 54.4844 322.901L58.9419 328.568C58.9419 328.568 66.0896 313.981 66.5589 309.529C66.6093 309.062 66.6629 308.358 66.7227 307.49L67.5701 287.183Z" fill="#F7A491"/>
<path d="M37.8739 341.224L32.5785 336.728C32.5785 336.728 28.2911 343.887 24.8575 349.724C21.4522 348.491 12.6475 342.742 12.2128 342.48C11.778 342.215 10.8141 335.718 10.0675 336.065C9.3209 336.409 10.6408 339.495 9.73672 339.725C8.83263 339.955 2.0535 335.418 1.91489 336.024C1.65343 337.157 5.95969 338.965 5.74233 339.47C5.52497 339.974 1.41401 337.154 0.758779 337.857C0.103547 338.561 4.88864 340.151 4.91384 340.612C4.93904 341.072 0.223253 339.738 0.34611 340.729C0.412263 341.265 4.56732 341.808 4.30586 342.382C4.0444 342.953 0.809181 343.048 0.944637 343.66C1.08009 344.272 3.64432 343.202 5.20995 343.89C6.77558 344.578 8.2467 344.24 10.4329 346.086C12.616 347.929 23.3548 358.461 26.7003 357.556C29.6237 356.767 37.8739 341.224 37.8739 341.224Z" fill="#F7A491"/>
<path d="M38.2734 410.665C38.2765 410.668 38.2765 410.668 38.2796 410.665H38.2734Z" fill="#F47458"/>
<path d="M56.2902 334.534C56.6304 332.461 59.8341 327.271 60.3381 325.999C60.3381 325.999 56.6241 321.269 53.6094 321.629C53.6094 321.629 49.5583 328.359 47.2524 328.583C44.9496 328.81 36.8442 329.161 35.4235 330.025C34.0028 330.89 27.9766 340.157 27.9766 340.157C27.9766 340.157 33.3917 345.698 35.5716 345.685C35.5716 345.685 36.7308 343.401 37.1908 342.902C37.5184 343.962 42.5649 360.341 42.5586 364.049L42.5964 364.08C47.3154 367.914 54.1985 367.028 57.8337 362.118C57.8337 362.118 57.4053 357.013 57.6479 352.305C58.0322 344.931 59.5222 341.012 56.2902 334.534Z" fill="#F47458"/>
<path d="M82.5582 397.89L57.8389 362.121C56.3143 362.74 54.8746 363.279 53.2428 363.592C49.6989 364.276 46.1487 364.166 42.5607 364.049C42.5607 364.182 42.5544 364.302 42.5386 364.399C42.126 367.35 38.2198 371.915 37.4165 380.864C36.5029 391.021 37.0542 408.665 37.3661 409.823C53.8004 407.823 77.896 402.79 82.5582 397.89Z" fill="#466EB6"/>
<path d="M68.118 284.494C68.118 284.494 66.565 285.535 65.2451 285.2C63.9252 284.863 63.3203 284.374 63.3203 284.374C63.3203 284.374 64.048 285.705 65.1254 286.286C66.984 287.283 68.118 284.494 68.118 284.494Z" fill="#F47458"/>
<path d="M37.4741 277.114L51.8452 274.145C52.576 273.993 53.3352 274.23 53.8707 274.773L64.3796 285.475C65.7279 286.848 67.9929 286.012 68.2134 284.059L69.927 268.841C70.0153 268.064 70.4626 267.386 71.1209 267.023L84.0838 259.895C85.7471 258.98 85.681 256.469 83.9736 255.642L70.661 249.208C69.9838 248.88 69.5018 248.224 69.3758 247.457L66.8777 232.35C66.5564 230.412 64.2505 229.696 62.9778 231.138L53.0359 242.377C52.5287 242.948 51.7853 243.226 51.0482 243.112L36.5417 240.904C34.68 240.62 33.3222 242.69 34.2389 244.406L41.4055 257.788C41.771 258.469 41.793 259.296 41.4622 259.993L34.995 273.735C34.1665 275.498 35.6313 277.496 37.4741 277.114Z" fill="#F7CC7F"/>
<path d="M43.0859 322.62C43.0859 322.62 43.9554 327.309 43.7821 329.161C43.6089 331.01 44.4437 336.974 48.1987 336.993C51.9536 337.012 48.9106 329.414 48.5578 327.599C48.2049 325.788 48.1199 320.175 48.1199 320.175L43.0859 322.62Z" fill="#F7A491"/>
<path d="M48.1987 322.989C48.1388 321.456 48.1199 320.175 48.1199 320.175L43.0859 322.62C43.0859 322.62 43.2623 323.579 43.4419 324.8C45.647 325.261 47.2442 324.412 48.1987 322.989Z" fill="#F47458"/>
<path d="M41.2462 309.677C41.2462 309.677 39.3057 310.8 38.5969 313.233C37.8881 315.666 38.6946 321.945 43.7065 323.459C48.7184 324.974 50.8888 320.004 49.8556 316.117C48.8223 312.23 46.5794 307.307 41.2462 309.677Z" fill="#F7A491"/>
<path d="M50.4802 314.609C50.3825 315.653 49.8312 316.452 49.2453 316.392C48.6625 316.332 48.2688 315.439 48.3664 314.394C48.4641 313.35 49.0154 312.552 49.5981 312.612C50.1841 312.672 50.5778 313.565 50.4802 314.609Z" fill="#F7A491"/>
<path d="M40.0429 318.632C40.632 319.543 40.6288 320.619 40.0366 321.036C39.4444 321.449 38.4899 321.049 37.9008 320.137C37.3117 319.225 37.3148 318.149 37.9071 317.732C38.4962 317.316 39.4538 317.72 40.0429 318.632Z" fill="#F7A491"/>
<path d="M68.8736 278.768C67.9002 278.578 63.7892 281.813 63.8238 282.295C63.8616 282.797 67.8749 280.73 67.9883 281.059C68.0765 281.317 63.4962 282.519 63.7356 282.98C63.8994 283.296 68.0104 282.428 68.1207 282.63C68.2908 282.945 64.6901 283.081 64.9232 283.428C65.191 283.832 68.6215 283.668 68.6215 283.668C68.6215 283.668 69.3114 282.554 69.3839 282.138C69.4154 281.961 69.4154 281.712 69.3996 281.428C69.387 281.197 69.4878 281.002 69.4563 280.743C69.324 279.702 69.4091 278.872 68.8736 278.768Z" fill="#F7A491"/>
<path d="M63.3918 281.242L61.8608 283.138L60.8496 282.384C60.8496 282.384 60.7646 282.226 60.8843 281.964C61.0008 281.699 63.3571 280.541 63.3918 281.242Z" fill="#F7A491"/>
<path d="M73.1626 462.519H88.0849C88.6362 462.469 88.7717 462.024 88.5795 461.749C88.1857 461.181 86.4437 460.768 84.4874 459.866C81.0569 460.222 73.5816 457.875 73.0398 457.086C72.7279 458.663 72.8539 462.45 73.1626 462.519Z" fill="#F47458"/>
<path d="M61.9669 283.005C61.9669 283.005 63.9924 284.245 64.8304 285.694C65.6683 287.142 65.2808 288.341 65.2808 288.341L61.8125 284.065L61.9669 283.005Z" fill="#F7A491"/>
<path d="M358.519 113.929C358.157 115.623 357.832 117.377 356.95 118.8C355.435 120.634 354.005 122.524 352.647 124.464C353.583 124.398 354.521 124.354 355.473 124.354C364.819 124.354 373.514 127.651 379.956 133.634C385.717 138.982 388.886 145.838 388.886 152.941C388.886 160.04 385.714 166.897 379.956 172.248C373.51 178.234 364.816 181.528 355.473 181.528C346.151 181.528 337.479 178.25 331.04 172.292C330.571 173.684 330.104 175.063 329.638 176.451C326.488 178.051 324.273 181.818 324.273 186.21C324.273 192.054 328.189 196.793 333.018 196.793C336.817 196.793 340.04 193.859 341.246 189.763C345.691 191.246 350.476 192.063 355.473 192.063C378.74 192.063 397.6 174.545 397.6 152.938C397.6 132.286 380.362 115.38 358.519 113.929Z" fill="#E0973F"/>
<path d="M169.592 113.929C169.951 115.623 170.279 117.377 171.161 118.8C172.676 120.634 174.106 122.524 175.464 124.464C174.528 124.398 173.589 124.354 172.638 124.354C163.291 124.354 154.597 127.651 148.155 133.634C142.393 138.982 139.221 145.838 139.221 152.941C139.221 160.04 142.393 166.897 148.155 172.248C154.6 178.234 163.295 181.528 172.638 181.528C181.959 181.528 190.632 178.25 197.071 172.292C197.54 173.684 198.006 175.063 198.472 176.451C201.623 178.051 203.837 181.818 203.837 186.21C203.837 192.054 199.922 196.793 195.092 196.793C191.293 196.793 188.071 193.859 186.861 189.763C182.416 191.246 177.631 192.063 172.635 192.063C149.368 192.063 130.508 174.545 130.508 152.938C130.511 132.286 147.749 115.38 169.592 113.929Z" fill="#E0973F"/>
<path d="M364.572 109.473V120.274C364.572 169.09 325.054 208.673 276.318 208.673C253.87 208.373 238.469 210.698 217.155 201.248C186.447 187.759 164.336 156.853 164.336 120.274V109.473H364.572Z" fill="#F7CC7F"/>
<path d="M217.155 201.252C217.177 201.261 217.199 201.27 217.221 201.28L248.947 109.473H215.92L190.492 183.071C198.172 190.691 207.213 196.885 217.155 201.252Z" fill="#FAE0B2"/>
<path d="M237.797 207.445L271.273 109.473H254.684L222.578 203.451C227.899 205.417 232.895 206.66 237.797 207.445Z" fill="#FAE0B2"/>
<path d="M187.277 179.71L212.311 109.476H204.423L181.773 173.024C183.5 175.343 185.336 177.574 187.277 179.71Z" fill="#FAE0B2"/>
<path d="M355.83 103.352H173.581C166.928 103.352 161.506 107.06 161.125 111.733H368.286C367.901 107.06 362.48 103.352 355.83 103.352Z" fill="#F7CC7F"/>
<path d="M230.625 206.089L240.935 259.111H286.027L298.801 206.089H230.625Z" fill="#F7CC7F"/>
<path d="M298.804 206.092L295.921 218.057H232.956L230.625 206.092H298.804Z" fill="#B75742"/>
<path d="M298.804 324.703H230.625L235.738 298.385L240.932 271.682H286.03L292.469 298.385L298.804 324.703Z" fill="#F7CC7F"/>
<path d="M298.804 324.703H230.625L235.738 298.385H292.469L298.804 324.703Z" fill="#B75742"/>
<path d="M293.932 259.111H233.02C230.333 259.111 228.156 261.294 228.156 263.982V266.806C228.156 269.498 230.336 271.681 233.02 271.681H293.932C296.619 271.681 298.795 269.498 298.795 266.806V263.982C298.795 261.294 296.619 259.111 293.932 259.111Z" fill="#FAE0B2"/>
<path d="M303.82 321.115H223.289V306.626C223.289 305.064 224.552 303.799 226.112 303.799H301C302.56 303.799 303.823 305.064 303.823 306.626V321.115H303.82Z" fill="#F7CC7F"/>
<path d="M330.431 331.465V336.731H196.672V331.465C196.672 325.394 200.37 320.469 204.928 320.469H322.174C326.732 320.469 330.431 325.397 330.431 331.465Z" fill="#F7CC7F"/>
<path d="M228.167 320.469L223.934 336.734H218.352L222.585 320.469H228.167Z" fill="#FAE0B2"/>
<path d="M220.178 320.469L215.948 336.734H210.359L214.596 320.469H220.178Z" fill="#FAE0B2"/>
<path d="M235.272 320.469L231.041 336.734H225.453L229.69 320.469H235.272Z" fill="#FAE0B2"/>
<path d="M380.246 457.062V462.328H156.109V457.062C156.109 450.991 162.306 446.065 169.942 446.065H366.411C374.047 446.065 380.246 450.991 380.246 457.062Z" fill="#F7CC7F"/>
<path d="M208.881 446.065L201.79 462.328H192.438L199.529 446.065H208.881Z" fill="#FAE0B2"/>
<path d="M195.488 446.065L188.397 462.328H179.031L186.135 446.065H195.488Z" fill="#FAE0B2"/>
<path d="M220.792 446.065L213.701 462.328H204.336L211.44 446.065H220.792Z" fill="#FAE0B2"/>
<path d="M321.809 196.071V200.046C321.809 206.931 316.246 212.504 309.382 212.504H219.593C212.719 212.504 207.156 206.931 207.156 200.046V196.071H321.809Z" fill="#F7CC7F"/>
<path d="M349.138 446.066H180.469L182.526 336.734H346.876L349.138 446.066Z" fill="#3C8F7C"/>
<path d="M309.036 446.066H220.586L221.666 336.734H307.848L309.036 446.066Z" fill="#50BFA5"/>
<path d="M291.943 442.778L278.571 420.902L258.914 437.344L279.138 313.994L312.171 319.427L291.943 442.778Z" fill="#B75742"/>
<path d="M353.043 437.281L333.348 420.886L320.026 442.79L299.516 319.49L332.532 313.981L353.043 437.281Z" fill="#B75742"/>
<path d="M380.256 342.385C380.256 349.51 373.984 355.558 371.899 361.986C369.738 368.65 371.19 377.219 367.161 382.767C363.091 388.37 354.479 389.614 348.884 393.69C343.346 397.726 339.525 405.57 332.872 407.734C326.452 409.823 318.787 405.794 311.671 405.794C304.558 405.794 296.891 409.82 290.471 407.734C283.817 405.57 279.996 397.726 274.458 393.69C268.867 389.614 260.251 388.367 256.181 382.767C252.152 377.219 253.604 368.65 251.443 361.986C249.358 355.555 243.086 349.51 243.086 342.385C243.086 335.26 249.358 329.212 251.443 322.784C253.604 316.12 252.152 307.55 256.181 302.003C260.251 296.403 268.864 295.156 274.458 291.08C279.996 287.044 283.817 279.2 290.471 277.036C296.891 274.947 304.555 278.976 311.668 278.976C318.781 278.976 326.449 274.95 332.869 277.039C339.522 279.203 343.343 287.047 348.881 291.083C354.472 295.16 363.088 296.406 367.158 302.007C371.187 307.554 369.735 316.123 371.896 322.787C373.981 329.215 380.256 335.26 380.256 342.385Z" fill="#F47458"/>
<path d="M328.765 403.355C326.607 403.355 324.099 402.803 321.444 402.219C318.309 401.528 315.065 400.815 311.675 400.815C308.282 400.815 305.041 401.528 301.903 402.219C299.248 402.803 296.74 403.355 294.582 403.355C293.59 403.355 292.752 403.239 292.012 402.999C289.268 402.106 286.811 399.31 284.206 396.347C282.142 394 280.01 391.577 277.392 389.668C274.736 387.733 271.75 386.43 268.861 385.171C265.267 383.606 261.874 382.126 260.211 379.839C258.576 377.589 258.217 373.916 257.836 370.026C257.527 366.871 257.206 363.608 256.185 360.453C255.202 357.42 253.577 354.675 252.005 352.019C249.982 348.601 248.07 345.37 248.07 342.389C248.07 339.407 249.982 336.179 252.005 332.762C253.577 330.105 255.202 327.36 256.185 324.328C257.209 321.169 257.53 317.907 257.839 314.751C258.22 310.864 258.579 307.188 260.214 304.941C261.877 302.654 265.27 301.174 268.864 299.609C271.753 298.35 274.743 297.05 277.398 295.113C280.016 293.204 282.149 290.777 284.212 288.433C286.817 285.47 289.278 282.671 292.018 281.781C292.755 281.542 293.596 281.425 294.589 281.425C296.747 281.425 299.254 281.977 301.91 282.561C305.047 283.252 308.289 283.965 311.681 283.965C315.071 283.965 318.316 283.252 321.453 282.561C324.109 281.977 326.616 281.425 328.774 281.425C329.766 281.425 330.608 281.542 331.345 281.781C334.088 282.674 336.549 285.473 339.151 288.436C341.214 290.78 343.347 293.207 345.965 295.116C348.62 297.05 351.606 298.353 354.495 299.612C358.09 301.177 361.482 302.657 363.146 304.945C364.78 307.194 365.14 310.867 365.521 314.758C365.829 317.913 366.151 321.175 367.171 324.331C368.154 327.363 369.78 330.111 371.352 332.765C373.374 336.182 375.286 339.413 375.286 342.392C375.286 345.373 373.374 348.601 371.352 352.022C369.78 354.675 368.154 357.424 367.171 360.456C366.148 363.614 365.826 366.877 365.518 370.029C365.136 373.916 364.777 377.592 363.142 379.842C361.479 382.133 358.086 383.609 354.492 385.174C351.603 386.433 348.614 387.733 345.958 389.671C343.34 391.58 341.208 394.006 339.144 396.351C336.539 399.313 334.079 402.112 331.338 403.002C330.598 403.239 329.757 403.355 328.765 403.355Z" fill="#F7CC7F"/>
<path d="M361.166 349.312C364.988 321.939 345.933 296.646 318.607 292.819C291.281 288.991 266.03 308.078 262.209 335.451C258.387 362.824 277.441 388.117 304.768 391.944C332.094 395.772 357.345 376.685 361.166 349.312Z" fill="#F47458"/>
<path d="M311.673 389.932C337.89 389.932 359.143 368.645 359.143 342.385C359.143 316.126 337.89 294.838 311.673 294.838C285.456 294.838 264.203 316.126 264.203 342.385C264.203 368.645 285.456 389.932 311.673 389.932Z" fill="white"/>
<path d="M354.458 346.634C356.797 322.942 339.519 301.838 315.867 299.495C292.214 297.153 271.144 314.459 268.805 338.15C266.466 361.841 283.744 382.946 307.397 385.288C331.049 387.631 352.119 370.325 354.458 346.634Z" fill="#F7CC7F"/>
<path d="M288.445 360.585L290.045 348.487H284.992V344.846H290.599L291.771 335.898H286.473V332.256H292.326L293.926 320.468H297.498L295.958 332.256H302.365L303.966 320.468H307.601L306.06 332.256H311.113V335.898H305.506L304.397 344.846H309.696V348.487H303.843L302.239 360.585H298.544L300.144 348.487H293.737L292.137 360.585H288.445ZM300.705 344.846L301.877 335.898H295.47L294.298 344.846H300.705Z" fill="white"/>
<path d="M327.891 325.529H327.769L320.807 329.294L319.758 325.157L328.506 320.468H333.127V360.585H327.891V325.529Z" fill="white"/>
<path d="M361.661 38.6937C361.192 40.6279 360.344 43.6853 360.344 43.6853C360.41 44.5247 360.659 48.0239 360.955 52.3119L354.665 49.7909C354.665 49.7909 354.74 42.805 354.46 42.3759C354.224 42.013 353.823 42.4643 351.896 39.7002C351.338 38.9019 351.234 37.4757 351.234 37.4757C351.234 37.4757 351.121 35.7214 351.511 35.5573C351.905 35.3932 352.356 35.6551 352.497 35.958C352.639 36.2609 352.604 36.9677 352.746 37.2706C352.888 37.5735 353.798 37.9395 354.183 37.9206C354.567 37.9017 354.135 32.7301 354.135 32.7301C354.135 32.7301 353.921 31.2629 353.814 30.7833C353.723 30.3731 353.351 29.1741 353.351 29.1741C353.351 29.1741 352.916 27.4324 353.455 27.2999C353.773 27.221 354.583 28.6346 355.14 30.1365C355.739 31.752 356.079 33.4653 356.249 33.4432C356.652 33.3896 356.438 30.553 356.438 30.553C356.438 30.553 356.038 29.253 356.047 28.6409C355.669 27.8899 355.417 26.4984 356.085 26.3817C356.208 26.3596 357.084 28.1297 357.084 28.1297C357.084 28.1297 357.427 29.3761 357.629 29.9566C357.982 30.9853 358.035 32.6071 358.221 33.3202C358.375 33.9165 358.514 33.6704 358.577 33.6957C358.627 33.7146 358.539 32.8942 358.442 31.7678C358.391 31.1998 358.457 30.5435 358.3 29.8967C358.152 29.2972 358.07 28.4389 358.032 27.9215C357.925 26.4542 358.845 26.6057 359.166 27.9467C359.286 28.4579 359.415 29.0164 359.541 29.5812C360.036 31.7804 360.023 33.8976 360.259 33.9165C360.565 33.9386 360.363 30.0828 360.363 30.0828C360.363 30.0828 360.836 27.9467 361.302 29.9282C361.847 32.2285 361.79 34.1027 361.781 34.1847C361.724 34.7527 362.13 36.7595 361.661 38.6937Z" fill="#F8A492"/>
<path d="M361.249 47.1437C361.249 47.1437 354.162 45.443 354.092 46.0141C352.602 58.5059 351.934 63.0212 351.682 63.1537C350.822 63.5954 339.435 53.164 337.403 52.4572C336.433 52.1196 335.374 52.1764 334.363 52.2048C331.947 52.2774 331.471 52.2837 331.471 52.2837C331.402 52.2868 331.383 52.29 331.383 52.29L331.395 54.565C334.117 57.0166 340.348 94.1672 340.871 94.1419C341.457 94.1135 353.771 97.2183 353.554 96.1802C353.519 96.013 345.206 89.1976 342.846 79.3625C342.056 76.062 341.665 72.506 341.233 69.3949C343.968 70.7675 354.656 76.0368 356.348 75.3395C361.621 73.1781 361.249 47.1437 361.249 47.1437Z" fill="#3C8F7C"/>
<path d="M382.461 113.102C382.461 113.102 393.918 122.092 394.299 123.685C394.85 125.979 405.341 122.962 402.811 122.495C402.228 122.388 400.366 121.915 400.212 121.833C399.393 121.394 389.199 109.089 389.199 109.089L382.461 113.102Z" fill="#F7A491"/>
<path d="M407.725 122.495L400.41 121.899C400.41 121.899 398.319 123.631 394.302 123.713C394.302 123.713 393.66 125.553 393.965 127.702C394.019 128.071 394.079 129.194 394.454 129.169C395.805 129.077 399.406 128.178 403.507 127.358C403.507 127.358 409.02 126.187 412.205 124.281C415.389 122.369 407.725 122.495 407.725 122.495Z" fill="#B75742"/>
<path d="M331.125 90.5544C331.125 90.5544 339.514 91.9679 348.794 89.7908C359.53 87.276 371.403 84.9474 374.881 86.9731C377.681 88.6044 395.165 115.068 395.165 115.068L388.414 120.003L369.16 98.4079C369.16 98.4079 344.598 107.486 339.082 106.479C326.516 104.192 326.34 94.1419 331.125 90.5544Z" fill="#13375B"/>
<path d="M340.295 85.2122L348.69 95.205L333.119 99.9601L331.125 90.5541L340.295 85.2122Z" fill="#13375B"/>
<path d="M357.353 130.857C357.353 130.857 356.842 144.737 356.527 147.087C356.212 149.429 362.409 156.474 361.615 154.023C361.432 153.458 360.963 151.593 360.963 151.42C360.96 150.489 363.259 134.656 363.259 134.656L357.353 130.857Z" fill="#F7A491"/>
<path d="M365.584 159.081L361.01 151.631C361.01 151.631 358.493 150.612 356.512 147.11C356.512 147.11 354.593 147.416 352.848 148.706C352.546 148.927 350.498 150.429 350.64 150.776C351.166 152.051 353.957 154.78 357.006 157.762C357.006 157.762 361.331 161.255 364.519 163.154C367.714 165.054 365.584 159.081 365.584 159.081Z" fill="#B75742"/>
<path d="M370.962 103.494C368.029 99.5752 344.349 95.8551 344.349 95.8551L337.746 83.1455L323.148 92.1634C323.148 92.1634 324.607 103.8 325.703 106.908C327.162 111.051 336.974 111.262 342.966 111.199C348.479 111.143 358.55 112.269 358.55 112.269L355.145 142.367C355.145 142.367 361.839 143.895 363.722 143.648C363.934 143.617 374.609 108.366 370.962 103.494Z" fill="#355389"/>
<path d="M331.464 52.3116L323.227 52.7722C323.227 52.7722 323.038 52.829 322.981 52.8417C322.31 52.9647 322.918 77.0081 323.52 85.9881C324.118 94.9681 325.331 98.7418 325.331 98.7418C325.331 98.7418 336.502 96.754 339.929 95.4225C341.353 94.8703 344.796 90.557 344.796 90.557C344.796 90.557 341.277 85.8209 339.507 78.1251C338.14 72.19 336.454 61.6702 335.49 59.4741C333.276 54.4256 331.464 52.3116 331.464 52.3116Z" fill="#9BC1F9"/>
<path d="M323.467 45.4872L323.234 52.7728C323.234 52.7728 328.568 61.9768 331.305 60.6926C333.602 59.6166 331.563 52.615 331.563 52.615C331.563 52.615 331.166 51.0089 330.615 49.1663C330.231 47.8789 329.91 46.4811 329.932 45.4588C329.985 42.9692 323.467 45.4872 323.467 45.4872Z" fill="#F7A491"/>
<path d="M329.921 45.4588C329.977 42.9692 323.46 45.4872 323.46 45.4872L323.438 46.2003C323.658 46.5316 323.901 46.8124 324.165 47.0301C325.917 48.4563 328.453 49.0968 330.513 48.8602C330.169 47.6612 329.898 46.4022 329.921 45.4588Z" fill="#F47458"/>
<path d="M329.841 28.8741C329.841 28.8741 332.56 32.976 332.761 36.4279C332.963 39.8798 332.235 42.2368 332.235 42.2368L323.516 31.7959L329.841 28.8741Z" fill="#184655"/>
<path d="M333.648 35.7243C333.77 36.9328 333.301 37.9709 332.599 38.0435C331.896 38.1161 331.228 37.1947 331.105 35.9831C330.983 34.7746 331.452 33.7365 332.154 33.6639C332.857 33.5913 333.525 34.5127 333.648 35.7243Z" fill="#F48C7F"/>
<path d="M320.689 33.4713C320.49 33.4303 320.509 43.4799 323.417 45.8433C326.324 48.2097 331.387 48.4148 332.864 46.0326C334.499 43.3979 332.943 32.8087 328.618 30.559C324.293 28.3093 320.689 33.4713 320.689 33.4713Z" fill="#F7A491"/>
<path d="M319.951 27.2397C317.731 29.1897 316.656 30.6128 315.154 34.0804C313.308 38.3433 316.971 42.7575 320.043 44.515C323.114 46.2725 323.373 48.3929 323.373 48.3929L323.499 47.0866C323.558 46.607 323.543 46.2189 323.458 45.8844C323.36 45.49 323.18 45.1619 323.02 44.8242C322.758 44.2658 321.917 42.3442 321.59 41.8393C320.723 40.5046 320.553 40.2143 320.982 38.9459C321.309 37.9678 320.931 35.8159 321.438 34.2035L325.574 33.3105C325.574 33.3105 328.164 32.6858 329.471 31.1776C333.226 26.8296 325.808 21.9956 319.951 27.2397Z" fill="#184655"/>
<path d="M321.969 40.0376C322.48 41.142 322.372 42.2747 321.733 42.5713C321.094 42.8679 320.161 42.2148 319.651 41.1105C319.14 40.0061 319.248 38.8733 319.887 38.5767C320.526 38.2801 321.459 38.9333 321.969 40.0376Z" fill="#F7A491"/>
<path d="M293.784 12.3122C294.253 14.2464 295.101 17.3039 295.101 17.3039C295.034 18.1432 294.786 21.6424 294.49 25.9305L300.78 23.4094C300.78 23.4094 300.705 16.4235 300.985 15.9944C301.221 15.6316 301.621 16.0828 303.549 13.3187C304.107 12.5204 304.211 11.0942 304.211 11.0942C304.211 11.0942 304.324 9.33989 303.934 9.17582C303.54 9.01174 303.089 9.27364 302.948 9.57655C302.806 9.87946 302.841 10.5862 302.699 10.8892C302.557 11.1921 301.647 11.5581 301.262 11.5391C300.878 11.5202 301.31 6.34867 301.31 6.34867C301.31 6.34867 301.524 4.88145 301.631 4.40184C301.722 3.99166 302.094 2.79265 302.094 2.79265C302.094 2.79265 302.532 1.05092 301.99 0.918399C301.672 0.839516 300.862 2.25309 300.305 3.75501C299.706 5.37053 299.366 7.08386 299.196 7.06177C298.793 7.00813 299.007 4.17151 299.007 4.17151C299.007 4.17151 299.407 2.87153 299.397 2.2594C299.775 1.50844 300.027 0.113796 299.36 0.000204991C299.237 -0.0218821 298.361 1.74824 298.361 1.74824C298.361 1.74824 298.018 2.99458 297.816 3.57516C297.463 4.60379 297.41 6.22561 297.224 6.93871C297.069 7.53506 296.931 7.28895 296.868 7.31419C296.817 7.33312 296.906 6.51275 297.003 5.38631C297.054 4.81835 296.988 4.16204 297.145 3.51521C297.293 2.9157 297.375 2.05746 297.413 1.53999C297.52 0.0727784 296.6 0.224229 296.279 1.56523C296.159 2.07639 296.03 2.63488 295.904 3.19968C295.409 5.39892 295.422 7.51613 295.186 7.53507C294.88 7.55715 295.082 3.70138 295.082 3.70138C295.082 3.70138 294.609 1.56523 294.143 3.54676C293.598 5.84698 293.655 7.72123 293.664 7.80327C293.721 8.37122 293.315 10.378 293.784 12.3122Z" fill="#F8A492"/>
<path d="M323.227 52.7726C323.227 52.7726 315.062 52.3908 312.954 51.4379C311.679 50.8605 301.185 42.3917 301.185 42.3917L301.302 19.7177L293.921 19.156C293.921 19.156 290.094 44.2186 291.42 46.9637C292.787 49.7972 308.147 61.4592 311.219 66.5203C312.989 69.4358 316.678 109.092 317.239 109.448C321.214 111.521 333.484 113.588 333.197 112.332C325.208 77.5985 323.227 52.7726 323.227 52.7726Z" fill="#3C8F7C"/>
<path d="M176.707 154.705C177.176 156.639 178.023 159.697 178.023 159.697C177.957 160.536 177.708 164.035 177.412 168.323L183.703 165.802C183.703 165.802 183.627 158.816 183.908 158.387C184.144 158.024 184.544 158.475 186.472 155.711C187.03 154.913 187.134 153.487 187.134 153.487C187.134 153.487 187.247 151.733 186.856 151.568C186.463 151.404 186.012 151.666 185.87 151.969C185.729 152.272 185.763 152.979 185.622 153.282C185.48 153.585 184.569 153.951 184.185 153.932C183.801 153.913 184.232 148.741 184.232 148.741C184.232 148.741 184.447 147.274 184.554 146.794C184.645 146.384 185.017 145.185 185.017 145.185C185.017 145.185 185.455 143.444 184.913 143.311C184.595 143.232 183.785 144.646 183.227 146.148C182.629 147.763 182.289 149.476 182.119 149.454C181.715 149.401 181.93 146.564 181.93 146.564C181.93 146.564 182.33 145.264 182.32 144.652C182.698 143.901 182.95 142.506 182.282 142.393C182.16 142.371 181.284 144.141 181.284 144.141C181.284 144.141 180.94 145.387 180.739 145.968C180.383 146.996 180.329 148.618 180.147 149.331C179.992 149.928 179.854 149.682 179.791 149.707C179.74 149.726 179.828 148.905 179.926 147.779C179.976 147.211 179.91 146.555 180.068 145.908C180.216 145.308 180.298 144.45 180.339 143.933C180.446 142.465 179.526 142.617 179.205 143.958C179.082 144.469 178.956 145.028 178.827 145.592C178.332 147.792 178.345 149.909 178.108 149.928C177.8 149.95 178.004 146.094 178.004 146.094C178.004 146.094 177.532 143.961 177.066 145.939C176.521 148.24 176.581 150.111 176.587 150.196C176.64 150.764 176.237 152.771 176.707 154.705Z" fill="#F8A492"/>
<path d="M243.481 149.609C243.012 151.543 242.165 154.601 242.165 154.601C242.231 155.44 242.48 158.939 242.776 163.227L236.485 160.706C236.485 160.706 236.56 153.72 236.28 153.291C236.044 152.928 235.644 153.379 233.716 150.615C233.158 149.817 233.054 148.391 233.054 148.391C233.054 148.391 232.941 146.637 233.332 146.472C233.725 146.308 234.176 146.57 234.318 146.873C234.459 147.176 234.425 147.883 234.566 148.186C234.708 148.489 235.619 148.855 236.003 148.836C236.387 148.817 235.956 143.645 235.956 143.645C235.956 143.645 235.741 142.178 235.634 141.698C235.543 141.288 235.171 140.089 235.171 140.089C235.171 140.089 234.733 138.348 235.275 138.215C235.593 138.136 236.403 139.55 236.961 141.052C237.559 142.667 237.899 144.38 238.069 144.358C238.473 144.305 238.258 141.468 238.258 141.468C238.258 141.468 237.858 140.168 237.868 139.556C237.49 138.805 237.238 137.41 237.906 137.297C238.028 137.275 238.904 139.045 238.904 139.045C238.904 139.045 239.248 140.291 239.449 140.872C239.802 141.897 239.856 143.522 240.041 144.235C240.196 144.832 240.334 144.586 240.397 144.611C240.448 144.63 240.36 143.809 240.262 142.683C240.212 142.115 240.278 141.459 240.12 140.812C239.972 140.212 239.89 139.354 239.852 138.837C239.745 137.369 240.665 137.521 240.986 138.862C241.109 139.373 241.235 139.932 241.364 140.496C241.859 142.696 241.846 144.813 242.083 144.832C242.391 144.854 242.187 140.998 242.187 140.998C242.187 140.998 242.659 138.865 243.125 140.843C243.667 143.144 243.611 145.018 243.604 145.1C243.544 145.668 243.951 147.675 243.481 149.609Z" fill="#F8A492"/>
<path d="M204.229 172.314C204.229 172.314 207.429 168.932 210.006 173.046C210.006 173.046 211.991 171.929 213.383 173.917C213.383 173.917 216.968 172.835 217.837 178.205C217.837 178.205 219.683 177.858 219.926 180.054C220.169 182.25 219.056 183.714 219.056 183.714C219.056 183.714 220.093 184.494 219.624 186.513C219.223 188.23 217.806 188.492 217.806 188.492C217.806 188.492 217.422 191.385 216.171 192.256C214.917 193.127 213.213 192.71 213.213 192.71C213.213 192.71 212.759 194.278 211.298 194.14C209.836 194.001 208.025 192.606 206.39 193.234C204.755 193.862 200.508 193.199 200.508 193.199C200.508 193.199 195.739 191.073 197.166 186.191C197.166 186.191 194.659 183.926 196.854 181.206C196.854 181.206 195.254 176.953 198.42 174.444C201.586 171.936 204.229 172.314 204.229 172.314Z" fill="#07345A"/>
<path d="M226.27 313.981C226.27 313.981 229.757 318.313 230.627 318.847C231.496 319.38 230.239 325.675 227.871 326.088C226.535 326.322 225.795 324.851 225.795 324.851L226.179 323.037L221.195 317.894L226.27 313.981Z" fill="#F7A491"/>
<path d="M208.302 315.051C208.302 315.051 211.21 319.793 212.003 320.434C212.797 321.074 210.747 327.155 208.349 327.262C206.998 327.322 206.45 325.769 206.45 325.769L207.061 324.021L202.773 318.282L208.302 315.051Z" fill="#F7A491"/>
<path d="M211.833 320.247C211.833 320.247 210.163 322.38 209.253 323.229C208.078 324.324 206.569 325.397 206.569 325.397C206.569 325.397 204.862 328.498 204.395 329.581C203.359 331.991 202.19 334.673 202.36 336.024C202.414 336.456 203.384 336.917 204.194 336.668C207.564 335.629 216.18 327.735 217.267 325.618C218.521 323.169 211.833 320.247 211.833 320.247Z" fill="#07345A"/>
<path d="M187.227 248.007C187.539 247.13 187.842 246.319 188.131 245.555C191.716 246.338 195.764 247.199 199.929 248.089L200.436 263.376C200.433 262.196 197.305 287.761 197.305 287.761C197.305 287.761 205.397 305.705 210.929 316.165C208.658 319.004 207.593 319.919 204.301 321.854C195.711 311.539 184.468 292.664 184.002 289.524C183.734 287.716 183.491 258.533 187.227 248.007Z" fill="#B75742"/>
<path d="M219.226 252.428C218.13 264.339 215.698 287.114 215.899 288.947C216.51 291.231 227.341 312.306 229.291 315.373C227.744 317.708 225.347 320.232 222.77 320.929C222.263 321.068 204.389 295.592 203.415 293.57C202.313 291.285 200.479 278.815 200.445 263.38L199.938 248.092C206.877 249.569 213.256 251.023 219.226 252.428Z" fill="#F47458"/>
<path d="M196.446 198.124L204.612 199.248C204.612 199.248 211.158 199.409 211.967 199.409C212.777 199.409 217.905 229.248 219.392 240.478C220.876 251.708 219.726 253.696 219.726 253.696C219.726 253.696 209.371 256.027 201.71 255.349C193.743 254.642 184.781 250.335 184.781 250.335C184.781 250.335 191.592 228.756 192.94 222.016C194.292 215.277 196.446 198.124 196.446 198.124Z" fill="#96D9C9"/>
<path d="M176.638 161.978C176.638 161.978 176.115 184.226 176.95 185.927C178.169 188.4 191.882 205.956 191.882 205.956C191.882 205.956 185.33 233.417 182.576 242.899C182.299 243.855 181.071 250.023 181.071 250.623C181.071 251.958 186.867 253.649 187.554 253.548C188.168 253.456 193.227 227.337 196.453 214.558C197.546 210.226 199.423 206.133 201.991 202.479L204.237 199.286L187.009 181.989C187.009 181.989 184.885 162.735 184.885 161.142C184.885 160.722 177.473 160.41 176.638 161.978Z" fill="#13375B"/>
<path d="M211.672 199.368L233.156 177.442C233.156 177.442 236.149 156.708 236.363 155.926C236.571 155.159 241.908 154.742 244.059 154.534C244.749 154.468 243.697 176.618 242.67 180.332C241.454 184.718 225.215 204.704 225.215 204.704C225.215 204.704 222.304 215.529 223.007 223.468C224.172 236.657 227.31 254.797 226.746 255.365C223.255 257.567 209.855 257.804 209.007 256.435C199.639 241.33 211.672 199.368 211.672 199.368Z" fill="#13375B"/>
<path d="M204.771 195.273L204.192 199.58C204.192 199.58 202.894 205.786 204.563 206.982C206.233 208.178 211.667 199.403 211.667 199.403L211.094 188.489L204.771 195.273Z" fill="#F7A491"/>
<path d="M211.273 192.026C209.893 195.749 206.608 198.037 204.273 198.923L204.765 195.273L211.087 188.489L211.273 192.026Z" fill="#F47458"/>
<path d="M219.981 181.071C219.981 182.733 219.036 184.081 217.873 184.081C216.711 184.081 215.766 182.733 215.766 181.071C215.766 179.408 216.711 178.06 217.873 178.06C219.036 178.06 219.981 179.408 219.981 181.071Z" fill="#07345A"/>
<path d="M211.088 176.331C212.504 176.331 213.652 175.557 213.652 174.602C213.652 173.647 212.504 172.873 211.088 172.873C209.671 172.873 208.523 173.647 208.523 174.602C208.523 175.557 209.671 176.331 211.088 176.331Z" fill="#07345A"/>
<path d="M207.233 177.022C203.844 175.854 200.231 178.107 199.711 181.61C199.487 183.131 199.282 185.046 199.245 187.135C199.153 192.164 201.752 197.061 204.033 197.061C206.313 197.061 212.617 193.805 212.844 186.661C212.989 182.253 210.79 178.249 207.233 177.022Z" fill="#F7A491"/>
<path d="M211.156 187.23C211.156 188.34 211.89 189.24 212.797 189.24C213.705 189.24 214.439 188.34 214.439 187.23C214.439 186.119 213.705 185.22 212.797 185.22C211.89 185.22 211.156 186.119 211.156 187.23Z" fill="#F7A491"/>
<path d="M197.344 174.52C194.987 176.388 194.162 179.231 195.501 180.865C196.84 182.5 199.832 182.31 202.188 180.439C204.545 178.571 205.37 175.728 204.031 174.094C202.692 172.459 199.7 172.649 197.344 174.52Z" fill="#07345A"/>
<path d="M205.694 177.521C206.901 177.521 207.88 176.862 207.88 176.05C207.88 175.238 206.901 174.58 205.694 174.58C204.487 174.58 203.508 175.238 203.508 176.05C203.508 176.862 204.487 177.521 205.694 177.521Z" fill="#07345A"/>
<path d="M196.984 182.304C196.984 183.348 197.819 184.194 198.852 184.194C199.882 184.194 200.72 183.348 200.72 182.304C200.72 181.26 199.886 180.414 198.852 180.414C197.819 180.411 196.984 181.26 196.984 182.304Z" fill="#07345A"/>
<path d="M230.434 318.682C230.434 318.682 229.051 321.011 228.254 321.97C227.227 323.207 225.87 324.463 225.87 324.463C225.87 324.463 224.572 327.757 224.247 328.89C223.526 331.414 222.71 334.456 223.047 335.775C223.157 336.198 224.083 337.005 224.849 336.504C227.804 334.576 235.698 325.552 236.505 323.308C237.44 320.727 230.434 318.682 230.434 318.682Z" fill="#07345A"/>
<path d="M384.209 226.762C384.209 226.762 374.787 228.217 367.828 235.168C360.869 242.119 356.711 253.282 356.711 253.282L370.962 257.444C370.962 257.447 365.267 244.135 384.209 226.762Z" fill="#FAE0B2"/>
<path d="M386.822 233.609L385.801 225.569L378.61 221.855C377.791 221.433 377.813 220.253 378.644 219.858L385.962 216.4L387.266 208.401C387.414 207.489 388.542 207.145 389.172 207.818L394.716 213.721L402.715 212.494C403.625 212.355 404.302 213.32 403.858 214.131L399.968 221.237L403.606 228.475C404.019 229.299 403.31 230.242 402.406 230.069L394.455 228.557L388.706 234.259C388.054 234.909 386.939 234.524 386.822 233.609Z" fill="#F7CC7F"/>
<path d="M136.305 269.563C136.305 269.563 145.727 271.018 152.686 277.969C159.644 284.92 163.799 296.084 163.799 296.084L149.548 300.246C149.551 300.246 155.247 286.937 136.305 269.563Z" fill="#FAE0B2"/>
<path d="M133.707 276.411L134.728 268.371L141.92 264.657C142.739 264.234 142.717 263.054 141.885 262.66L134.567 259.202L133.263 251.203C133.115 250.291 131.987 249.947 131.357 250.619L125.813 256.523L117.815 255.295C116.904 255.157 116.227 256.122 116.671 256.933L120.561 264.039L116.923 271.277C116.507 272.1 117.219 273.044 118.123 272.87L126.071 271.359L131.82 277.061C132.479 277.711 133.591 277.326 133.707 276.411Z" fill="#F7CC7F"/>
<path d="M447.95 233.786L450.155 230.056L448.338 226.125C448.13 225.677 448.527 225.185 449.006 225.295L453.227 226.242L456.399 223.295C456.761 222.96 457.35 223.184 457.395 223.676L457.801 227.99L461.578 230.101C462.01 230.34 461.978 230.971 461.524 231.167L457.555 232.887L456.717 237.137C456.623 237.62 456.015 237.787 455.687 237.415L452.827 234.165L448.533 234.682C448.045 234.739 447.701 234.209 447.95 233.786Z" fill="#466EB6"/>
<path d="M235.301 65.1161L238.082 60.4115L235.789 55.4514C235.527 54.8866 236.028 54.265 236.633 54.4038L241.96 55.5997L245.961 51.8827C246.417 51.4599 247.158 51.7439 247.218 52.3623L247.728 57.8052L252.494 60.4683C253.036 60.7712 252.998 61.5663 252.425 61.8156L247.416 63.9833L246.361 69.3473C246.241 69.9594 245.472 70.1645 245.063 69.6975L241.456 65.5956L236.038 66.2456C235.42 66.3182 234.986 65.6525 235.301 65.1161Z" fill="#F79C8D"/>
<path d="M439.375 76.8L432.032 81.7065L436.137 88.847L429.119 94.0028L432.203 101.31L427.578 106.028L429.963 108.372L436.147 102.061L433.226 95.1355L440.528 89.7746L436.49 82.7541L443.143 78.3051L439.375 76.8Z" fill="#F48C7F"/>
<path d="M450.65 195.086L445.455 187.936L438.5 192.338L433.072 185.519L425.909 188.902L421.013 184.468L418.773 186.948L425.316 192.88L432.108 189.675L437.753 196.765L444.595 192.439L449.302 198.917L450.65 195.086Z" fill="#F48C7F"/>
<path d="M207.238 47.0235L209.002 38.3622L201.067 36.1882L202.428 27.5774L195.1 24.5609L195.066 17.9506L191.727 17.9695L191.771 26.8107L198.714 29.6662L197.299 38.6241L205.102 40.7634L203.505 48.6138L207.238 47.0235Z" fill="#F48C7F"/>
<path d="M138.604 58.5465L141.965 64.8287L149.214 64.4248L152.48 71.7357L160.066 68.918L164.127 77.024L171.432 75.2948L176.611 82.4542L173.908 84.4168L170.033 79.0654L162.325 80.8892L158.422 73.0988L150.71 75.9638L147.103 67.8925L140.025 68.2901L136.912 62.4654L132.316 63.6991L131.453 60.4681L138.604 58.5465Z" fill="#F7CC7F"/>
<path d="M107.346 108.17L101.997 108.713L100.173 100.19L92.2535 100.02L89.8467 93.8638L86.7344 95.0817L89.9538 103.317L97.4575 103.478L99.3571 112.344L107.406 111.527L107.346 108.17Z" fill="#50BFA5"/>
<path d="M97.7157 200.589L95.7153 205.587L87.3296 203.249L83.5022 210.193L76.9436 209.471L76.5781 212.8L85.3513 213.765L88.9772 207.18L97.6999 209.613L100.715 202.094L97.7157 200.589Z" fill="#50BFA5"/>
<path d="M111.936 144.683C117.871 150.385 118.069 159.828 112.374 165.773C106.681 171.718 97.2529 171.916 91.318 166.212C85.3831 160.51 85.1846 151.066 90.8801 145.121C96.5724 139.177 106.001 138.981 111.936 144.683Z" fill="#FFF3D9"/>
<path d="M111.602 157.153L105.267 159.103L103.279 165.438C103.118 165.95 102.441 166.057 102.132 165.615L98.3205 160.182L91.6926 160.245C91.157 160.251 90.8483 159.639 91.1696 159.21L95.1514 153.899L93.044 147.605C92.8739 147.097 93.359 146.614 93.8662 146.787L100.138 148.939L105.465 144.986C105.897 144.667 106.505 144.979 106.495 145.516L106.388 152.155L111.787 156.004C112.222 156.32 112.112 156.995 111.602 157.153Z" fill="#FED333"/>
<path d="M500.959 169.51C506.894 175.211 507.093 184.655 501.397 190.6C495.705 196.544 486.276 196.743 480.341 191.038C474.407 185.337 474.208 175.893 479.904 169.948C485.599 164.004 495.021 163.808 500.959 169.51Z" fill="#FFF3D9"/>
<path d="M500.625 181.979L494.287 183.929L492.299 190.265C492.138 190.776 491.461 190.884 491.156 190.442L487.344 185.008L480.716 185.071C480.18 185.078 479.872 184.466 480.193 184.037L484.175 178.726L482.067 172.431C481.897 171.923 482.382 171.441 482.89 171.614L489.162 173.766L494.485 169.812C494.917 169.494 495.525 169.806 495.515 170.343L495.408 176.981L500.808 180.834C501.249 181.143 501.138 181.821 500.625 181.979Z" fill="#FED333"/>
<path d="M433.754 150.795L436.356 155.128C436.636 155.598 437.335 155.538 437.534 155.03L439.383 150.325L444.3 149.183C444.833 149.06 444.993 148.378 444.571 148.028L440.675 144.813L441.109 139.777C441.157 139.231 440.558 138.868 440.098 139.162L435.842 141.879L431.193 139.906C430.689 139.692 430.159 140.149 430.298 140.68L431.564 145.573L428.257 149.391C427.898 149.805 428.168 150.451 428.713 150.483L433.754 150.795Z" fill="#F47458"/>
<path d="M424.622 250.014C424.622 251.683 423.27 253.036 421.604 253.036C419.937 253.036 418.586 251.683 418.586 250.014C418.586 248.344 419.937 246.991 421.604 246.991C423.27 246.994 424.622 248.344 424.622 250.014Z" fill="#50BFA5"/>
<path d="M71.5366 158.415C71.5366 160.084 70.0749 161.438 68.2698 161.438C66.4648 161.438 65 160.084 65 158.415C65 156.746 66.4617 155.393 68.2698 155.393C70.0717 155.393 71.5366 156.746 71.5366 158.415Z" fill="#50BFA5"/>
<path d="M242.428 13.8677L246.387 14.6502C246.387 14.6502 252.177 11.943 252.618 10.6367C253.059 9.3304 252.858 6.3234 253.705 6.13409C254.552 5.94477 256.247 6.01734 256.896 8.01464C257.366 9.46293 255.731 14.0223 256.124 14.4388C256.373 14.6976 258.635 15.215 260.295 15.5621C261.385 15.7925 262.258 16.6223 262.554 17.714V17.7172C262.756 18.4555 262.422 19.2412 261.751 19.6009L260.708 20.1594L261.196 21.248C261.562 22.0589 261.212 23.0213 260.415 23.403L259.602 23.7943L259.958 24.4506C260.418 25.2962 260.05 26.3627 259.174 26.7414L258.462 27.0474L258.515 27.243C258.745 28.0508 258.326 28.9091 257.555 29.2183L256.843 29.5022L246.296 27.4134C245.307 27.2178 244.371 26.8171 243.543 26.2397L239.958 24.8797C239.573 24.7346 239.353 24.3212 239.441 23.9111L241.445 14.524C241.549 14.0728 241.983 13.7794 242.428 13.8677Z" fill="#96D9C9"/>
</svg>
