<svg width="500" height="500" viewBox="0 0 500 500" fill="none" xmlns="http://www.w3.org/2000/svg">
<path d="M379.991 285.106C377.824 285.106 375.644 284.981 373.5 284.731C372.578 284.624 371.732 284.168 371.134 283.457C370.537 282.747 370.234 281.834 370.287 280.907C370.57 275.903 367.667 271.245 363.065 269.319C358.681 267.481 352.963 268.769 349.755 272.315C348.459 273.745 346.269 273.917 344.774 272.708C341.468 270.046 338.468 267.014 335.857 263.69C334.686 262.204 334.862 260.037 336.255 258.759C339.908 255.412 341.107 250.106 339.241 245.556C337.394 241.06 332.973 238.12 328.264 238.241C326.436 238.241 324.269 236.917 324.056 235.019C323.579 230.741 323.584 226.426 324.079 222.204C324.315 220.245 325.871 218.926 327.852 218.991C333.07 218.991 337.644 216.157 339.486 211.773C341.417 207.171 340.218 201.819 336.5 198.454C335.079 197.157 334.908 194.972 336.112 193.477C338.774 190.153 341.843 187.12 345.227 184.463C346.723 183.296 348.889 183.481 350.167 184.88C353.348 188.375 359.028 189.671 363.385 187.889C367.931 186.028 370.866 181.449 370.695 176.495C370.63 174.602 372.056 172.958 373.936 172.75C378.149 172.284 382.401 172.295 386.612 172.782C388.528 173.005 389.94 174.685 389.824 176.606C389.542 181.606 392.44 186.264 397.037 188.199C401.431 190.032 407.158 188.745 410.352 185.208C411.644 183.778 413.829 183.602 415.329 184.806C418.616 187.435 421.616 190.472 424.26 193.824C425.436 195.315 425.26 197.481 423.861 198.759C420.213 202.106 419.014 207.412 420.875 211.963C422.695 216.407 427.037 219.278 431.936 219.278C433.713 219.278 435.843 220.602 436.056 222.505C436.533 226.782 436.528 231.097 436.033 235.319C435.806 237.241 434.084 238.685 432.19 238.528L431.528 238.509C426.824 238.509 422.431 241.417 420.621 245.745C418.69 250.343 419.894 255.694 423.612 259.065C425.037 260.356 425.209 262.542 424.005 264.042C421.319 267.383 418.261 270.408 414.889 273.056C413.366 274.231 411.246 274.056 409.949 272.643C406.764 269.148 401.079 267.852 396.723 269.634C392.176 271.495 389.241 276.074 389.417 281.023C389.482 282.917 388.056 284.565 386.176 284.773C384.13 284.991 382.051 285.106 379.991 285.106ZM358.778 267.417C360.403 267.417 362.01 267.713 363.477 268.329C368.5 270.431 371.667 275.509 371.357 280.968C371.319 281.621 371.533 282.265 371.953 282.766C372.374 283.268 372.971 283.59 373.621 283.667C377.751 284.145 381.923 284.156 386.056 283.699C387.385 283.551 388.389 282.389 388.343 281.056C388.149 275.662 391.352 270.671 396.311 268.639C401.065 266.699 407.264 268.106 410.732 271.921C411.644 272.917 413.144 273.042 414.218 272.208C417.519 269.62 420.528 266.644 423.158 263.37C423.568 262.861 423.768 262.213 423.717 261.56C423.665 260.908 423.366 260.3 422.88 259.861C418.824 256.185 417.514 250.347 419.616 245.333C421.598 240.611 426.385 237.44 431.528 237.44L432.232 237.458C433.588 237.565 434.792 236.551 434.954 235.194C435.44 231.051 435.449 226.819 434.977 222.625C434.834 221.347 433.218 220.352 431.922 220.352C426.588 220.352 421.857 217.218 419.866 212.37C417.838 207.403 419.144 201.616 423.121 197.968C424.107 197.065 424.232 195.537 423.403 194.486C420.815 191.199 417.866 188.222 414.649 185.643C414.138 185.235 413.49 185.036 412.838 185.089C412.186 185.141 411.578 185.441 411.139 185.926C407.653 189.787 401.408 191.19 396.616 189.19C391.598 187.079 388.44 182 388.746 176.546C388.783 175.893 388.57 175.249 388.149 174.748C387.728 174.246 387.132 173.924 386.482 173.847C382.348 173.37 378.162 173.356 374.047 173.815C372.718 173.963 371.713 175.12 371.76 176.458C371.949 181.856 368.746 186.847 363.783 188.88C359.028 190.819 352.834 189.412 349.366 185.597C348.468 184.611 346.936 184.481 345.88 185.306C342.572 187.9 339.572 190.865 336.94 194.143C336.532 194.654 336.333 195.301 336.385 195.953C336.436 196.605 336.734 197.213 337.218 197.653C341.269 201.324 342.579 207.162 340.473 212.185C338.463 216.968 333.505 220.06 327.834 220.06C326.385 220.018 325.311 220.926 325.144 222.329C324.658 226.472 324.653 230.699 325.121 234.898C325.264 236.176 326.917 237.167 328.25 237.167C333.403 237.032 338.213 240.241 340.232 245.148C342.269 250.111 340.959 255.898 336.977 259.551C335.996 260.454 335.871 261.981 336.695 263.028C339.266 266.298 342.2 269.266 345.44 271.875C346.496 272.727 348.042 272.602 348.954 271.597C351.38 268.912 355.116 267.417 358.778 267.417ZM380.144 248.028C369.584 248.028 360.991 239.435 360.991 228.875C360.991 218.315 369.584 209.722 380.144 209.722C390.704 209.722 399.297 218.315 399.297 228.875C399.297 239.435 390.704 248.028 380.144 248.028ZM380.144 210.792C370.172 210.792 362.061 218.903 362.061 228.875C362.061 238.847 370.172 246.958 380.144 246.958C390.112 246.958 398.223 238.847 398.223 228.875C398.223 218.903 390.116 210.792 380.144 210.792ZM142.625 357.324C140.199 358.403 137.686 359.352 135.158 360.139C132.903 360.847 130.482 359.667 129.649 357.454C127.468 351.699 121.889 347.926 115.769 348.06C109.936 348.185 104.162 352.481 102.334 358.06C101.593 360.31 99.2226 361.593 96.9402 360.986C91.9078 359.653 87.0282 357.745 82.4448 355.315C80.3893 354.236 79.505 351.718 80.431 349.583C82.8569 344.005 81.556 337.454 77.1948 333.282C72.88 329.162 66.4541 328.069 61.2365 330.551C59.1856 331.463 56.0976 331.06 54.9124 329.037C52.2411 324.477 50.0976 319.634 48.5467 314.653C47.8337 312.343 48.9217 310.079 51.1763 309.167C57.0282 306.565 60.7458 301.106 60.6254 295.269C60.4958 289.144 56.4773 283.736 50.63 281.819C48.3893 281.079 47.1069 278.713 47.7087 276.435C49.0374 271.38 50.9634 266.449 53.4356 261.778C54.5328 259.727 57.056 258.847 59.181 259.778C64.4911 262.111 71.5097 260.731 75.505 256.56C79.6763 252.204 80.6856 245.602 78.0189 240.134C77.005 238.042 77.7782 235.486 79.7874 234.315C84.2597 231.699 89.0513 229.588 94.0235 228.028C96.2828 227.324 98.7041 228.505 99.5328 230.713C101.709 236.463 107.283 240.241 113.403 240.116C119.246 239.981 125.024 235.681 126.843 230.12C127.579 227.875 129.94 226.588 132.223 227.19C137.218 228.5 142.102 230.407 146.732 232.847C148.792 233.931 149.676 236.449 148.746 238.583C146.324 244.153 147.625 250.704 151.982 254.88C156.241 258.954 162.542 260.009 168.037 257.565C170.033 256.676 173.079 257.102 174.269 259.125C176.94 263.685 179.084 268.523 180.635 273.509C181.338 275.778 180.125 278.255 177.926 279.023L177.176 279.333C171.899 281.681 168.426 287.134 168.551 292.894C168.681 299.014 172.699 304.417 178.551 306.338C180.797 307.074 182.079 309.44 181.473 311.722C180.13 316.806 178.204 321.736 175.746 326.38C174.625 328.458 172.158 329.315 170 328.38C164.686 326.046 157.662 327.431 153.667 331.597C149.496 335.954 148.487 342.551 151.158 348.009C152.176 350.102 151.399 352.657 149.394 353.829C147.213 355.13 144.936 356.296 142.625 357.324ZM110.01 348.065C111.829 347.255 113.778 346.782 115.737 346.741C122.417 346.593 128.5 350.708 130.88 356.986C131.163 357.738 131.723 358.354 132.445 358.706C133.168 359.058 133.998 359.12 134.764 358.88C139.607 357.37 144.343 355.278 148.727 352.713C150.144 351.889 150.69 350.083 149.973 348.606C147.061 342.653 148.167 335.458 152.718 330.704C157.079 326.157 164.737 324.643 170.528 327.19C172.047 327.847 173.792 327.241 174.584 325.773C176.996 321.222 178.885 316.384 180.199 311.403C180.405 310.627 180.306 309.801 179.923 309.096C179.54 308.39 178.902 307.857 178.139 307.606C171.76 305.509 167.375 299.616 167.232 292.94C167.098 286.657 170.885 280.708 176.653 278.143L177.454 277.81C179.028 277.255 179.871 275.514 179.375 273.917C177.836 268.991 175.741 264.257 173.13 259.806C172.329 258.444 170.024 258.134 168.57 258.782C162.584 261.444 155.718 260.292 151.07 255.843C146.315 251.287 144.894 244.143 147.537 238.069C148.195 236.565 147.57 234.792 146.116 234.023C141.574 231.625 136.783 229.759 131.885 228.472C131.108 228.267 130.282 228.367 129.577 228.752C128.872 229.137 128.341 229.777 128.093 230.542C126.107 236.611 119.806 241.296 113.431 241.444C106.75 241.579 100.672 237.458 98.3013 231.19C97.718 229.63 96.0097 228.796 94.4171 229.296C89.5374 230.824 84.843 232.898 80.4541 235.463C79.0374 236.292 78.4911 238.093 79.2087 239.569C82.1161 245.528 81.0097 252.727 76.4587 257.481C72.0976 262.028 64.4402 263.537 58.6532 260.991C57.1532 260.333 55.3708 260.954 54.5976 262.403C52.1717 266.981 50.2828 271.815 48.9819 276.778C48.556 278.384 49.4634 280.056 51.0421 280.579C57.4171 282.671 61.7967 288.569 61.9402 295.255C62.0745 301.62 58.0513 307.56 51.6948 310.389C50.0513 311.06 49.2967 312.616 49.806 314.273C51.3291 319.157 53.431 323.907 56.0513 328.384C56.8476 329.745 59.1995 330.032 60.6902 329.366C66.4032 326.643 73.3986 327.843 78.1069 332.343C82.8661 336.893 84.2874 344.037 81.6393 350.116C80.9865 351.62 81.6115 353.393 83.0606 354.157C87.5606 356.537 92.343 358.407 97.2828 359.718C98.8939 360.143 100.561 359.236 101.084 357.653C102.459 353.435 105.908 349.889 110.01 348.065ZM124.301 315.662C112.454 320.931 98.5328 315.579 93.2643 303.736C87.9958 291.889 93.3476 277.968 105.19 272.699C117.037 267.431 130.959 272.782 136.227 284.625C141.496 296.468 136.149 310.394 124.301 315.662ZM105.727 273.898C94.5467 278.87 89.4958 292.014 94.468 303.194C99.4402 314.375 112.584 319.426 123.764 314.454C134.945 309.481 139.996 296.338 135.024 285.157C130.051 273.977 116.912 268.926 105.727 273.898Z" fill="#FFBE55"/>
<path d="M124.898 66.1898H375.098V433.815H124.898V66.1898Z" fill="#F7F7F7"/>
<path d="M138.865 81.6157H361.134V418.389H138.865V81.6157Z" fill="white"/>
<path opacity="0.1" d="M342.615 159.546H157.384C154.328 159.546 151.828 157.046 151.828 153.991V116.157C151.828 113.102 154.328 110.602 157.384 110.602H342.62C345.675 110.602 348.175 113.102 348.175 116.157V153.991C348.171 157.046 345.671 159.546 342.615 159.546ZM214.124 178.417H155.43C153.448 178.417 151.828 176.796 151.828 174.815C151.828 172.833 153.448 171.213 155.43 171.213H214.124C216.106 171.213 217.726 172.833 217.726 174.815C217.726 176.796 216.106 178.417 214.124 178.417ZM344.569 199.218H155.43C153.448 199.218 151.828 197.597 151.828 195.616C151.828 193.634 153.448 192.014 155.43 192.014H344.569C346.55 192.014 348.171 193.634 348.171 195.616C348.171 197.593 346.55 199.218 344.569 199.218ZM344.569 215.787H155.43C153.448 215.787 151.828 214.167 151.828 212.185C151.828 210.204 153.448 208.583 155.43 208.583H344.569C346.55 208.583 348.171 210.204 348.171 212.185C348.171 214.167 346.55 215.787 344.569 215.787ZM344.569 232.357H155.43C153.448 232.357 151.828 230.736 151.828 228.755C151.828 226.773 153.448 225.153 155.43 225.153H344.569C346.55 225.153 348.171 226.773 348.171 228.755C348.171 230.736 346.55 232.357 344.569 232.357ZM344.569 248.931H155.43C153.448 248.931 151.828 247.31 151.828 245.329C151.828 243.347 153.448 241.727 155.43 241.727H344.569C346.55 241.727 348.171 243.347 348.171 245.329C348.171 247.31 346.55 248.931 344.569 248.931ZM344.569 265.5H155.43C153.448 265.5 151.828 263.88 151.828 261.898C151.828 259.917 153.448 258.296 155.43 258.296H344.569C346.55 258.296 348.171 259.917 348.171 261.898C348.171 263.88 346.55 265.5 344.569 265.5ZM344.569 282.074H155.43C153.448 282.074 151.828 280.454 151.828 278.472C151.828 276.491 153.448 274.87 155.43 274.87H344.569C346.55 274.87 348.171 276.491 348.171 278.472C348.171 280.454 346.55 282.074 344.569 282.074ZM344.569 298.644H155.43C153.448 298.644 151.828 297.023 151.828 295.042C151.828 293.06 153.448 291.44 155.43 291.44H344.569C346.55 291.44 348.171 293.06 348.171 295.042C348.171 297.023 346.55 298.644 344.569 298.644ZM344.569 315.218H155.43C153.448 315.218 151.828 313.597 151.828 311.616C151.828 309.634 153.448 308.014 155.43 308.014H344.569C346.55 308.014 348.171 309.634 348.171 311.616C348.171 313.593 346.55 315.218 344.569 315.218ZM344.569 331.787H155.43C153.448 331.787 151.828 330.167 151.828 328.185C151.828 326.204 153.448 324.583 155.43 324.583H344.569C346.55 324.583 348.171 326.204 348.171 328.185C348.171 330.167 346.55 331.787 344.569 331.787ZM262.439 348.361H155.43C153.448 348.361 151.828 346.741 151.828 344.759C151.828 342.778 153.448 341.157 155.43 341.157H262.439C264.421 341.157 266.041 342.778 266.041 344.759C266.041 346.736 264.421 348.361 262.439 348.361Z" fill="#FFBE55"/>
<path d="M321.273 408.333C337.323 408.333 350.333 395.323 350.333 379.273C350.333 363.224 337.323 350.213 321.273 350.213C305.224 350.213 292.213 363.224 292.213 379.273C292.213 395.323 305.224 408.333 321.273 408.333Z" fill="#FFBE55"/>
<path d="M323.703 405.607C339.752 405.607 352.763 392.596 352.763 376.546C352.763 360.497 339.752 347.486 323.703 347.486C307.653 347.486 294.643 360.497 294.643 376.546C294.643 392.596 307.653 405.607 323.703 405.607Z" stroke="#FFBE55" stroke-miterlimit="10"/>
<path d="M476.427 452.31H29.1304C26.7183 452.31 24.7461 450.338 24.7461 447.926V431.148C24.7461 428.736 26.7183 426.764 29.1304 426.764H476.422C478.834 426.764 480.806 428.736 480.806 431.148V447.926C480.811 450.333 478.839 452.31 476.427 452.31Z" fill="#F2F2F2"/>
<path d="M213.773 280.681L214.917 290.671C214.917 290.671 221.852 290.764 224.519 287.704C224.033 285.861 222.792 284.463 222.792 284.463C222.792 284.463 223.449 284.593 225.797 283.977C224.278 282.824 217.107 278.764 217.107 278.764L213.773 280.681Z" fill="#FCD2B1"/>
<path d="M226.154 286.352C226.154 286.352 224.737 282.616 223.269 282.995C221.802 283.375 216.167 288.199 218.144 290.13C220.339 292.273 219.973 294.278 219.973 294.278C219.973 294.278 226.876 291.454 226.154 286.352Z" fill="#FCD2B1"/>
<path d="M337.649 313.69H315.987C314.866 313.69 313.959 312.782 313.959 311.662V299.014C313.959 297.894 314.871 296.986 315.987 296.986H337.649C338.769 296.986 339.677 297.898 339.677 299.014V311.662C339.677 312.782 338.765 313.69 337.649 313.69ZM316.737 310.912H336.899V299.764H316.737V310.912Z" fill="#9ACFF7"/>
<path d="M349.047 307.403V332.306C349.047 333.44 348.121 334.366 346.987 334.366H306.644C305.51 334.366 304.584 333.44 304.584 332.306V307.403C304.584 306.268 305.51 305.343 306.644 305.343H346.987C348.121 305.343 349.047 306.268 349.047 307.403Z" fill="#CCE9FF"/>
<path d="M349.047 307.403V319.856H304.584V307.403C304.584 306.268 305.51 305.343 306.644 305.343H346.987C348.121 305.343 349.047 306.268 349.047 307.403Z" fill="#9ACFF7"/>
<path d="M321.273 317.986H332.357V323.708H321.273V317.986Z" fill="#2A94F4"/>
<path d="M275.601 284.199L270.527 431.759H281.092C281.092 431.759 296.833 362.824 289.384 351.259C296.305 329.977 307.25 284.968 307.25 284.968L275.601 284.199Z" fill="#0D517F"/>
<path d="M278.635 284.968L286.098 300.417L316.269 434.732H326.815C326.815 434.732 326.732 366.773 315.343 355.162C314.001 330.111 315.899 297.06 310.487 279.977C288.889 275.12 278.635 284.968 278.635 284.968Z" fill="#0E538C"/>
<path d="M286.904 215.324C278.154 230.542 264.149 255.713 248.357 263.727C249.306 267.176 251.33 270.269 251.33 270.269C251.33 270.269 276.251 261.361 284.242 248.806C292.232 236.25 286.904 215.324 286.904 215.324Z" fill="#0B3A54"/>
<path d="M326.546 289.708C324.898 290.671 321.278 303.44 321.278 303.44C321.278 303.44 327.833 304.875 331.69 301.662C334.129 294.079 329.12 286.366 329.12 286.366L326.546 289.708ZM291.282 186.56C291.051 189.134 289.389 198.069 289.389 198.069L307.254 188.986L306.403 186.694L301.764 177.023C301.764 177.023 297.264 177.176 296.81 177.023C296.352 176.87 291.282 186.56 291.282 186.56Z" fill="#FCD2B1"/>
<path d="M310.375 148.986C314.875 157.148 320.504 151.801 316.986 161.787C318.088 163.477 324.162 167.134 311.782 179.653C307.842 185.986 306.398 186.685 306.398 186.685C306.398 186.685 303.551 182.569 301.759 179.208L293.352 153.764L310.375 148.986Z" fill="#0E538C"/>
<path d="M284.194 158.19C284.194 158.19 275.018 165.926 280.236 187.343C287.615 188.421 294.453 185.542 294.453 185.542L301.759 179.218C301.759 179.218 300.212 156.389 292.472 155.491C284.736 154.588 284.194 158.19 284.194 158.19Z" fill="#FFE3CA"/>
<path d="M293.634 159.537C288.005 159.819 273.482 153.907 278.634 147.44C283.787 140.972 288.996 149.407 292.509 148.144C296.028 146.875 305.875 140.829 310.375 148.986C310.375 148.986 312.908 158.833 293.634 159.537Z" fill="#0E538C"/>
<path d="M304.011 171.285C305.525 169.174 305.634 166.66 304.255 165.671C302.875 164.681 300.53 165.59 299.015 167.701C297.501 169.811 297.392 172.325 298.771 173.315C300.151 174.304 302.497 173.395 304.011 171.285Z" fill="#FFE3CA"/>
<path d="M293.353 157.255C292.552 163.861 292.945 167.569 294.015 168.657C294.723 170.287 295.186 173.273 295.186 173.273H297.894C297.894 173.273 301.704 165.634 301.76 163.19C301.811 160.745 300.607 155.343 300.607 155.343L293.353 157.255Z" fill="#0E538C"/>
<path d="M310.487 198.069V186.694C310.487 186.694 286.955 195.102 285.626 198.069C284.297 201.037 273.404 231.917 273.404 231.917C273.404 231.917 273.362 301.06 273.441 303.44C277.751 297.889 290.195 286.653 290.195 286.653L319.445 303.44C319.445 303.44 309.945 267.38 309.519 264.921C309.093 262.463 315.339 237.639 315.339 237.639L310.487 198.069Z" fill="#0B4870"/>
<path d="M309.236 199.352C298.723 200.421 294.648 204.282 294.648 208.574C301.514 223.806 328.542 249.417 324.898 290.671C328.329 290.949 333.051 290.671 333.051 290.671C333.051 290.671 348.491 238.611 309.236 199.352Z" fill="#125D87"/>
<path d="M251.621 266.648C251.524 266.583 251.431 266.523 251.343 266.458C249.658 265.31 249.01 264.648 248.357 263.722C247.672 262.75 244.83 260.958 243.459 262.278C242.089 263.593 241.964 266.176 242.288 267.148C242.617 268.12 242.195 272.278 242.88 273.069C243.566 273.861 246.093 275.333 248.2 275.12C250.306 274.912 251.621 272.648 252.093 270.699C252.57 268.755 251.621 266.648 251.621 266.648Z" fill="#EDBC9A"/>
<path d="M270.529 432.019L246.621 442.449H281.866L281.098 432.019H270.529ZM315.945 432.019L292.033 442.449H327.278L326.51 432.019H315.945Z" fill="#0B4870"/>
<path d="M372.759 98.0833H314.533C308.037 98.0833 302.727 103.398 302.727 109.889V124.347C302.727 130.843 308.042 136.153 314.533 136.153H317.741L311.75 146.407L326.158 136.153H372.759C379.255 136.153 384.565 130.838 384.565 124.347V109.889C384.565 103.393 379.255 98.0833 372.759 98.0833ZM303.468 46.2361H275.306C261.653 46.2361 250.486 57.4074 250.486 71.0555C250.486 84.625 261.519 95.7315 275.056 95.8703C281.389 99.9398 289.389 104.991 289.389 104.991L284.565 95.875H303.472C317.125 95.875 328.292 84.7037 328.292 71.0555C328.292 57.4074 317.121 46.2361 303.468 46.2361Z" fill="#FFBE55"/>
<path d="M201.194 162.069C197.87 156.954 193.884 151.375 187.875 150.329C184.194 149.685 180.449 150.921 177.041 152.454C171.074 155.134 165.231 159.153 162.791 165.222C160.412 171.148 161.708 177.81 162.55 184.139C163.393 190.468 163.537 197.556 159.472 202.477C155.101 207.759 147.495 208.69 141.416 211.861C135.55 214.926 130.958 220.352 128.921 226.653C127.898 229.81 127.523 233.347 128.838 236.394C130.273 239.708 133.467 241.921 136.75 243.431C150.722 249.852 168.194 245.792 179.537 235.407C190.879 225.023 196.435 209.306 196.592 193.931C196.648 188.458 196.083 182.894 197.384 177.579C198.111 174.607 199.402 171.796 200.069 168.81L201.194 162.069Z" fill="#0E538C"/>
<path d="M181.135 222.412C190.926 245.935 202.505 268.056 213.908 282.694C218.348 282.94 220.926 280.431 220.926 280.431C220.926 280.431 196.584 237.667 198.422 224.519C200.264 211.366 181.135 222.412 181.135 222.412Z" fill="#1989DD"/>
<path d="M211.07 258.038L233.355 271.196L215.183 301.972L192.898 288.814L211.07 258.038Z" fill="#CCE9FF"/>
<path d="M211.629 259.988L231.382 271.652L214.952 299.478L195.199 287.814L211.629 259.988Z" fill="white"/>
<path d="M217.991 260.676L227.69 266.403C227.817 266.478 227.929 266.577 228.018 266.695C228.107 266.813 228.171 266.948 228.208 267.091C228.245 267.234 228.254 267.383 228.233 267.53C228.212 267.676 228.163 267.817 228.088 267.944L226.528 270.588C226.453 270.715 226.353 270.827 226.235 270.916C226.117 271.005 225.983 271.07 225.839 271.107C225.696 271.144 225.547 271.152 225.401 271.131C225.254 271.111 225.113 271.061 224.986 270.986L215.287 265.259C215.159 265.184 215.048 265.085 214.959 264.967C214.87 264.849 214.805 264.714 214.768 264.571C214.731 264.428 214.723 264.279 214.743 264.132C214.764 263.986 214.814 263.845 214.889 263.718L216.449 261.074C216.768 260.537 217.458 260.356 217.991 260.676Z" fill="#0E538C"/>
<path d="M210.472 264.986L227.55 275.069C227.777 275.204 227.851 275.495 227.717 275.722C227.583 275.949 227.291 276.023 227.064 275.889L209.986 265.806C209.759 265.671 209.685 265.38 209.819 265.153C209.949 264.926 210.245 264.852 210.472 264.986ZM208.893 267.662L225.972 277.745C226.199 277.88 226.273 278.171 226.138 278.398C226.004 278.625 225.712 278.699 225.486 278.565L208.407 268.481C208.18 268.347 208.106 268.056 208.24 267.829C208.37 267.602 208.666 267.528 208.893 267.662ZM207.314 270.333L224.393 280.417C224.62 280.551 224.694 280.843 224.56 281.069C224.425 281.296 224.134 281.37 223.907 281.236L206.828 271.153C206.601 271.019 206.527 270.727 206.662 270.5C206.791 270.273 207.087 270.199 207.314 270.333ZM205.736 273.009L222.814 283.093C223.041 283.227 223.115 283.519 222.981 283.745C222.847 283.972 222.555 284.046 222.328 283.912L205.249 273.829C205.023 273.694 204.949 273.403 205.083 273.176C205.212 272.949 205.509 272.875 205.736 273.009ZM204.157 275.681L221.236 285.764C221.462 285.898 221.537 286.19 221.402 286.417C221.268 286.644 220.976 286.718 220.749 286.583L203.671 276.5C203.444 276.366 203.37 276.074 203.504 275.847C203.634 275.625 203.93 275.546 204.157 275.681ZM202.578 278.356L219.657 288.44C219.884 288.574 219.958 288.866 219.824 289.093C219.689 289.319 219.398 289.394 219.171 289.259L202.092 279.176C201.865 279.042 201.791 278.75 201.925 278.523C202.055 278.296 202.351 278.222 202.578 278.356ZM200.865 280.949L212.421 287.773C212.574 287.866 212.592 288.12 212.458 288.347C212.324 288.574 212.092 288.685 211.935 288.593L200.379 281.769C200.226 281.676 200.208 281.421 200.342 281.194C200.476 280.972 200.712 280.861 200.865 280.949Z" fill="#CCE9FF"/>
<path d="M213.624 296.889C215.169 296.889 216.421 295.637 216.421 294.093C216.421 292.548 215.169 291.296 213.624 291.296C212.08 291.296 210.828 292.548 210.828 294.093C210.828 295.637 212.08 296.889 213.624 296.889Z" fill="#FFBE55"/>
<path d="M188.584 425.245L194.246 433.403C195.501 435.208 197.107 436.741 198.968 437.903L206.255 442.449H188.033L182.112 435.495V442.449H179.408V425.245H188.584Z" fill="#FFBE55"/>
<path d="M197.131 339.185C196.274 342.259 188.584 424.935 188.584 424.935C188.584 424.935 179.181 427.625 179.469 424.935C179.756 422.245 169.783 356.106 182.603 339.185C191.431 332.264 197.131 339.185 197.131 339.185Z" fill="#F7C39F"/>
<path d="M183.879 425.245L189.541 433.403C190.796 435.208 192.402 436.741 194.263 437.903L201.55 442.449H183.328L177.407 435.495V442.449H174.703V425.245H183.879Z" fill="#FFBE55"/>
<path d="M192.425 339.185C191.569 342.259 183.879 424.935 183.879 424.935C183.879 424.935 174.476 427.625 174.763 424.935C175.05 422.245 165.078 356.106 177.898 339.185C186.726 332.264 192.425 339.185 192.425 339.185Z" fill="#FCD2B1"/>
<path d="M178.524 264.264C171.922 271.551 162.38 278.935 169.681 301.176C172.917 311.042 173.302 321.616 170.991 331.736C168.042 344.667 165.422 360.537 165.422 360.537L198.575 361.468C198.575 361.468 208.991 284.556 201.2 264.264C191.528 260.667 178.524 264.264 178.524 264.264Z" fill="#0E538C"/>
<path d="M191.418 200.509C195.306 206.162 208.506 226.259 207.751 229.06C206.853 232.403 201.191 264.264 201.191 264.264H178.519C178.519 264.264 181.381 256.963 178.992 252.097C176.603 247.232 157.584 212.917 181.695 195.194C185.853 196.778 191.418 200.509 191.418 200.509Z" fill="#2A94F4"/>
<path d="M192.607 191.926C192.089 195.954 191.441 199.069 193.255 204.917C187.931 202.579 182.084 197.773 181.695 195.954C183.515 191.667 185.464 188.889 183.904 185.213C186.501 185.56 192.607 191.926 192.607 191.926Z" fill="#FCD2B1"/>
<path d="M201.388 165.741C203.703 173.611 203.129 196.106 197.041 195.167C190.953 194.231 183.698 191.185 180.888 183.463C178.082 175.741 183.494 152.231 201.388 165.741Z" fill="#FFE3CA"/>
<path d="M180.79 185.123C181.866 184.502 181.933 182.604 180.94 180.883C179.947 179.162 178.269 178.271 177.193 178.893C176.117 179.514 176.049 181.412 177.043 183.133C178.036 184.854 179.714 185.745 180.79 185.123Z" fill="#FFE3CA"/>
<path d="M175.301 182.329C189.111 178.583 200.055 171.292 202.648 164.505C205.236 157.718 187.68 154.204 184.171 158.185C180.662 162.167 168.092 174.12 175.301 182.329Z" fill="#0E538C"/>
<path d="M180.843 187.532C182.124 187.532 183.162 186.494 183.162 185.213C183.162 183.932 182.124 182.893 180.843 182.893C179.562 182.893 178.523 183.932 178.523 185.213C178.523 186.494 179.562 187.532 180.843 187.532Z" fill="#FFBE55"/>
<path d="M183.162 199.431C178.033 198.333 171.329 209.144 171.977 211.407C172.625 213.671 189.232 276.06 240.19 271.852C240.352 271.204 240.19 266.676 240.19 266.676C240.19 266.676 197.653 272.375 183.162 199.431Z" fill="#34A2F4"/>
<path d="M143.778 92.5278H112.204C97.4911 92.5278 85.5605 104.458 85.5605 119.171C85.5605 133.884 97.4911 145.815 112.204 145.815H122.162C129.973 151.634 148.311 165.245 147.593 164.259C146.968 163.398 140.412 152.551 136.357 145.815H143.778C158.491 145.815 170.422 133.884 170.422 119.171C170.422 104.458 158.491 92.5278 143.778 92.5278ZM213.394 67.5556C213.394 51.7361 200.57 38.912 184.75 38.912C168.931 38.912 156.107 51.7361 156.107 67.5556C156.107 83.375 168.931 96.1991 184.75 96.1991C186.537 96.1991 188.283 96.0278 189.977 95.713L186.857 110.606L205.505 87.2917L205.491 87.2963C210.389 82.1574 213.394 75.2083 213.394 67.5556Z" fill="#FFBE55"/>
<path d="M239.791 267.593C240.213 267.468 242.435 267.306 242.694 266.944C242.953 266.583 243.889 263.884 244.666 263.731C245.444 263.574 246.12 268.079 244.666 270.44C243.268 272.287 241.972 271.352 241.555 271.403C241.139 271.454 239.064 271.352 239.064 271.352L239.791 267.593Z" fill="#FCD2B1"/>
<path d="M444.495 451.412C453.69 451.412 457.569 444.069 459.102 436.278C460.829 427.491 459.56 418.134 459.56 418.134H429.435C429.435 418.134 429.389 418.491 429.324 419.13C428.759 424.662 426.944 451.412 444.495 451.412Z" fill="#B6E7FF"/>
<path d="M429.43 418.139C429.43 418.796 436.175 419.329 444.494 419.329C452.814 419.329 459.559 418.796 459.559 418.139C459.559 417.481 452.814 416.949 444.494 416.949C436.175 416.944 429.43 417.477 429.43 418.139Z" fill="#85DDFF"/>
<path d="M403.703 334.616C403.703 334.616 419.592 358.787 429.124 373.542C438.657 388.296 441.152 391.356 442.286 396.125C443.421 400.889 444.444 418.481 444.444 418.481H445.148C445.148 418.481 444.902 403.551 444.041 398.528C443.212 393.671 444.101 391.926 444.782 386.819C445.462 381.713 446.37 373.542 441.208 367.866C436.046 362.19 437.407 356.63 435.592 352.889C433.777 349.143 419.703 344.606 417.888 340.745C416.074 336.884 408.129 334.5 403.703 334.616Z" fill="#2A94F4"/>
<path d="M403.703 334.616C403.703 334.616 408.699 340.292 412.101 342.218C415.504 344.148 417.097 342.444 419.703 347.097C422.314 351.75 422.411 353.792 424.805 356.176C427.194 358.56 430.032 358.671 430.259 363.894C430.486 369.111 429.124 373.537 429.124 373.537C429.124 373.537 404.726 335.866 403.703 334.616Z" fill="#41AAF7"/>
<path d="M443.185 418.477H442.472C442.472 418.477 442.259 413.644 440.338 411.296C439.102 409.782 433.843 408.065 428.644 406.005C425.783 404.87 422.935 403.634 420.792 402.269C414.746 398.431 408.991 386.06 408.496 383.856C408.32 383.088 408.246 382.625 408.25 382.306V382.296C408.264 381.704 408.556 381.616 409.065 381.019C409.31 380.731 410.047 380.829 410.945 381.102C413.551 381.898 415.75 383.681 417.111 386.042C418.371 388.222 420.384 390.949 422.852 391.611C427.116 392.75 426.764 393.458 428.338 397.796C429.908 402.134 433.875 402.843 438.847 407.963C443.824 413.074 443.185 418.477 443.185 418.477Z" fill="#2A94F4"/>
<path d="M428.644 406.005C425.783 404.87 422.935 403.634 420.792 402.269C414.746 398.431 408.991 386.06 408.496 383.856C408.32 383.088 408.246 382.625 408.25 382.306C408.269 382.449 408.547 384.407 411.695 385.708C414.963 387.056 415.602 387.056 416.028 389.12C416.454 391.181 416.815 393.384 418.519 393.81C420.227 394.236 421.292 392.319 422.639 395.444C423.991 398.569 424.634 399.639 425.875 400.065C427.116 400.491 428.06 399.852 428.338 402.269C428.505 403.745 428.597 405.143 428.644 406.005Z" fill="#41AAF7"/>
<path d="M448.407 418.477H449.249C449.249 418.477 450.898 388.551 453.171 385.773C454.634 383.981 459.467 380.764 465.629 378.324C469.018 376.981 472.388 375.514 474.93 373.898C482.087 369.352 488.907 354.699 489.495 352.088C489.703 351.181 489.791 350.63 489.786 350.25V350.241C489.773 349.537 489.421 349.431 488.823 348.727C488.536 348.384 487.661 348.505 486.597 348.829C483.509 349.768 480.907 351.884 479.291 354.676C477.8 357.259 475.411 360.491 472.49 361.269C467.439 362.616 467.856 363.458 465.995 368.593C464.134 373.731 459.439 374.569 453.546 380.63C447.648 386.699 448.407 418.477 448.407 418.477Z" fill="#2A94F4"/>
<path d="M465.629 378.329C469.018 376.986 472.388 375.519 474.93 373.903C482.087 369.356 488.907 354.704 489.495 352.093C489.703 351.185 489.791 350.634 489.786 350.255C489.768 350.426 489.434 352.745 485.703 354.287C481.833 355.884 481.073 355.884 480.569 358.329C480.064 360.768 479.638 363.38 477.62 363.884C475.601 364.389 474.337 362.116 472.74 365.819C471.138 369.523 470.374 370.787 468.907 371.292C467.434 371.796 466.319 371.037 465.99 373.903C465.796 375.648 465.684 377.306 465.629 378.329Z" fill="#41AAF7"/>
<path d="M444.495 451.412C453.69 451.412 457.57 444.069 459.102 436.278C450.088 432.861 438.736 427.384 429.32 419.13C428.759 424.662 426.945 451.412 444.495 451.412Z" fill="#CCE9FF"/>
<path d="M57.0599 447.653C50.5367 447.653 47.7821 442.444 46.6988 436.917C45.4766 430.681 46.3747 424.046 46.3747 424.046H67.7497C67.7497 424.046 67.7821 424.301 67.8284 424.75C68.2266 428.676 69.509 447.653 57.0599 447.653Z" fill="#B6E7FF"/>
<path d="M67.7449 424.046C67.7449 424.514 62.9578 424.894 57.055 424.894C51.1523 424.894 46.3652 424.514 46.3652 424.046C46.3652 423.579 51.1523 423.199 57.055 423.199C62.9625 423.199 67.7449 423.579 67.7449 424.046Z" fill="#85DDFF"/>
<path d="M30.4492 364.792C30.4492 364.792 41.7224 381.94 48.4816 392.407C55.2455 402.875 57.014 405.046 57.8196 408.431C58.6251 411.81 59.3474 424.292 59.3474 424.292H60.2316C60.2316 424.292 60.7964 413.745 59.7501 410.282C58.7038 406.819 59.1066 405.454 59.5881 401.829C60.0696 398.204 60.7131 392.407 57.0511 388.384C53.389 384.361 54.352 380.412 53.065 377.759C51.7779 375.102 41.7918 371.884 40.5048 369.144C39.227 366.403 33.5927 364.713 30.4492 364.792Z" fill="#2A94F4"/>
<path d="M30.4492 364.792C30.4492 364.792 33.9909 368.819 36.4076 370.185C38.8242 371.556 39.9492 370.347 41.8011 373.648C43.6529 376.949 43.7224 378.398 45.4214 380.088C47.1159 381.778 49.1298 381.861 49.2918 385.565C49.4538 389.269 48.4863 392.407 48.4863 392.407C48.4863 392.407 31.1761 365.676 30.4492 364.792Z" fill="#41AAF7"/>
<path d="M56.6985 424.287H55.893C55.893 424.287 55.6522 418.815 53.4763 416.157C52.0735 414.444 46.1198 412.495 40.2309 410.162C36.9902 408.875 33.768 407.477 31.3374 405.931C24.4948 401.583 17.9717 387.574 17.4115 385.079C17.2124 384.208 17.1244 383.681 17.1291 383.319V383.31C17.143 382.639 17.4763 382.537 18.0504 381.861C18.3282 381.532 19.1615 381.648 20.18 381.958C23.1337 382.857 25.6198 384.88 27.1661 387.551C28.592 390.023 30.8745 393.111 33.6707 393.856C38.4995 395.148 38.1013 395.949 39.8837 400.861C41.6615 405.773 46.1522 406.574 51.7865 412.37C57.4207 418.167 56.6985 424.287 56.6985 424.287Z" fill="#2A94F4"/>
<path d="M40.2309 410.162C36.9902 408.875 33.768 407.477 31.3374 405.931C24.4948 401.583 17.9717 387.574 17.4115 385.079C17.2124 384.208 17.1244 383.681 17.1291 383.319C17.1476 383.486 17.467 385.699 21.0319 387.176C24.7309 388.704 25.4578 388.704 25.9393 391.042C26.4207 393.375 26.8282 395.87 28.7587 396.357C30.6893 396.838 31.8976 394.667 33.4254 398.208C34.9578 401.75 35.6846 402.958 37.092 403.44C38.4994 403.921 39.5643 403.199 39.8791 405.935C40.0689 407.602 40.1754 409.19 40.2309 410.162Z" fill="#41AAF7"/>
<path d="M57.0603 447.653C50.5372 447.653 47.7826 442.444 46.6992 436.917C53.0927 434.491 61.1483 430.607 67.8288 424.75C68.227 428.676 69.5094 447.653 57.0603 447.653Z" fill="#CCE9FF"/>
</svg>
