<svg width="300" height="273" viewBox="0 0 300 273" fill="none" xmlns="http://www.w3.org/2000/svg">
<rect width="1440" height="6822" transform="translate(-1002 -2252)" fill="white"/>
<path d="M164.937 271.456C164.675 271.456 137.87 271.351 111.161 270.017C56.4262 267.276 55.3796 262.099 54.9532 260.156C54.8511 259.665 54.8441 259.157 54.9325 258.664C55.0209 258.17 55.2028 257.702 55.4668 257.289C57.8411 253.466 67.096 251.691 77.824 249.643C87.796 247.732 99.1442 245.568 101.257 241.725C101.429 241.427 101.536 241.091 101.572 240.742C101.607 240.393 101.569 240.039 101.46 239.708C100.259 235.581 89.3757 232.725 76.7677 229.416C55.3796 223.798 28.768 216.814 20.647 198.079C7.60286 167.99 21.5385 118.148 22.1394 116.037L23.9904 116.657C23.845 117.171 9.67674 167.843 22.401 197.186C30.1539 215.039 57.3469 222.149 77.2231 227.369C91.4786 231.118 101.78 233.817 103.311 239.078C103.502 239.695 103.565 240.349 103.496 240.995C103.427 241.641 103.229 242.263 102.914 242.817C100.297 247.469 89.5501 249.528 78.1632 251.702C69.1796 253.424 58.9846 255.377 57.0852 258.465C56.9651 258.64 56.8813 258.842 56.8395 259.056C56.7977 259.27 56.7989 259.491 56.8429 259.704C57.1046 261.006 61.8047 265.449 111.21 267.917C137.87 269.25 164.636 269.355 164.907 269.355L164.937 271.456Z" fill="#263238"/>
<path d="M78.5604 5.8193C78.5604 5.8193 35.6486 2.6162 32.3149 91.9355L23.1956 91.3264C23.1956 91.3264 20.5984 36.0755 42.2191 8.56031C44.4458 5.75702 47.2346 3.54264 50.3722 2.08648C53.5098 0.630315 56.9131 -0.0290711 60.3219 0.158735C68.0553 0.526304 77.9305 1.80754 78.5604 5.8193Z" fill="#263238"/>
<path d="M36.5344 120.566C46.9336 115.268 51.4005 101.837 46.5114 90.5678C41.6223 79.2984 29.2287 74.4577 18.8295 79.7559C8.43025 85.0541 3.96338 98.4848 8.85246 109.754C13.7415 121.024 26.1352 125.864 36.5344 120.566Z" fill="#263238"/>
<path opacity="0.1" d="M36.5344 120.566C46.9336 115.268 51.4005 101.837 46.5114 90.5678C41.6223 79.2984 29.2287 74.4577 18.8295 79.7559C8.43025 85.0541 3.96338 98.4848 8.85246 109.754C13.7415 121.024 26.1352 125.864 36.5344 120.566Z" fill="white"/>
<path d="M17.1672 95.5583C16.4185 97.8135 16.3036 100.259 16.8371 102.585C17.3706 104.911 18.5285 107.013 20.1644 108.626C21.8004 110.239 23.8409 111.29 26.028 111.646C28.2151 112.002 30.4506 111.648 32.4518 110.627C34.453 109.607 36.1301 107.966 37.2709 105.913C38.4118 103.86 38.9653 101.486 38.8614 99.0918C38.7574 96.6977 38.0008 94.3908 36.6871 92.4626C35.3734 90.5345 33.5616 89.0718 31.4809 88.2594C30.0989 87.7184 28.632 87.4781 27.1642 87.5522C25.6965 87.6263 24.2566 88.0135 22.927 88.6914C21.5975 89.3694 20.4044 90.3249 19.416 91.5032C18.4277 92.6815 17.6635 94.0595 17.1672 95.5583Z" fill="#263238"/>
<path opacity="0.1" d="M28.9607 107.051C32.7145 105.138 34.3269 100.29 32.5621 96.2221C30.7973 92.1542 26.3236 90.4069 22.5698 92.3194C18.816 94.2319 17.2036 99.0799 18.9684 103.148C20.7332 107.216 25.2069 108.963 28.9607 107.051Z" fill="white"/>
<path d="M212.655 268.054V272.097C212.655 272.216 212.633 272.335 212.59 272.445C212.548 272.555 212.486 272.655 212.407 272.739C212.329 272.823 212.236 272.889 212.134 272.934C212.031 272.979 211.922 273.001 211.812 273H106.461C105.562 273.002 104.676 272.765 103.882 272.309C103.087 271.853 102.408 271.192 101.905 270.385C101.401 269.578 101.089 268.649 100.994 267.681C100.9 266.712 101.026 265.733 101.363 264.829L134.749 175.227L188.699 175.626L186.857 187.251L174.957 262.498C174.867 263.069 174.892 263.654 175.032 264.213C175.172 264.772 175.423 265.291 175.767 265.734C176.111 266.177 176.541 266.533 177.025 266.778C177.509 267.022 178.037 267.149 178.572 267.15H211.812C211.922 267.149 212.031 267.171 212.134 267.216C212.236 267.261 212.329 267.327 212.407 267.411C212.486 267.495 212.548 267.595 212.59 267.705C212.633 267.816 212.655 267.934 212.655 268.054Z" fill="#2CB67D"/>
<path opacity="0.6" d="M212.655 268.054V272.097C212.655 272.216 212.633 272.335 212.59 272.445C212.548 272.555 212.486 272.655 212.407 272.739C212.329 272.823 212.236 272.889 212.134 272.934C212.031 272.979 211.922 273.001 211.812 273H106.461C105.562 273.002 104.676 272.765 103.882 272.309C103.087 271.853 102.408 271.192 101.905 270.385C101.401 269.578 101.089 268.649 100.994 267.681C100.9 266.712 101.026 265.733 101.363 264.829L122.063 209.284L134.749 175.227L188.699 175.626L186.857 187.251L181.682 219.975L174.957 262.498C174.867 263.069 174.892 263.654 175.032 264.213C175.172 264.772 175.423 265.291 175.767 265.734C176.111 266.177 176.541 266.533 177.025 266.778C177.509 267.022 178.037 267.149 178.572 267.15H211.812C211.922 267.149 212.031 267.171 212.134 267.216C212.236 267.261 212.329 267.327 212.407 267.411C212.486 267.495 212.548 267.595 212.59 267.705C212.633 267.816 212.655 267.934 212.655 268.054Z" fill="white"/>
<path opacity="0.2" d="M178.572 267.181H110.027C109.632 267.181 109.243 267.075 108.894 266.873C108.546 266.671 108.249 266.379 108.029 266.023C107.81 265.667 107.675 265.257 107.636 264.831C107.597 264.405 107.656 263.975 107.808 263.579L137.075 187.282H186.857L174.957 262.529C174.867 263.1 174.892 263.685 175.032 264.244C175.172 264.803 175.423 265.322 175.767 265.765C176.112 266.208 176.541 266.564 177.025 266.809C177.51 267.053 178.037 267.18 178.572 267.181Z" fill="black"/>
<path opacity="0.1" d="M188.699 175.657L186.858 187.283L181.683 220.007L122.063 209.316L134.749 175.258L188.699 175.657Z" fill="black"/>
<path d="M293.604 8.6543H43.8376C42.9981 8.6543 42.1668 8.83367 41.3914 9.18213C40.6159 9.53059 39.9114 10.0413 39.3183 10.6851C38.7251 11.3288 38.2549 12.093 37.9345 12.9339C37.6141 13.7748 37.4499 14.6759 37.4512 15.5856V198.792C37.4512 200.628 38.124 202.388 39.3217 203.686C40.5194 204.984 42.1438 205.713 43.8376 205.713H293.604C294.444 205.715 295.275 205.537 296.051 205.189C296.827 204.842 297.532 204.333 298.126 203.69C298.72 203.047 299.192 202.284 299.513 201.443C299.835 200.603 300 199.702 300 198.792V15.5541C299.995 13.7204 299.319 11.9639 298.119 10.6702C296.92 9.37655 295.296 8.65151 293.604 8.6543Z" fill="#2CB67D"/>
<path opacity="0.7" d="M293.604 8.6543H43.8376C42.9981 8.6543 42.1668 8.83367 41.3914 9.18213C40.6159 9.53059 39.9114 10.0413 39.3183 10.6851C38.7251 11.3288 38.2549 12.093 37.9345 12.9339C37.6141 13.7748 37.4499 14.6759 37.4512 15.5856V198.792C37.4512 200.628 38.124 202.388 39.3217 203.686C40.5194 204.984 42.1438 205.713 43.8376 205.713H293.604C294.444 205.715 295.275 205.537 296.051 205.189C296.827 204.842 297.532 204.333 298.126 203.69C298.72 203.047 299.192 202.284 299.513 201.443C299.835 200.603 300 199.702 300 198.792V15.5541C299.995 13.7204 299.319 11.9639 298.119 10.6702C296.92 9.37655 295.296 8.65151 293.604 8.6543Z" fill="#2CB67D"/>
<path opacity="0.2" d="M49.1289 205.714H43.8376C42.1438 205.714 40.5194 204.984 39.3217 203.686C38.124 202.389 37.4512 200.628 37.4512 198.793V15.5544C37.4499 14.6446 37.6141 13.7435 37.9345 12.9026C38.2549 12.0618 38.7251 11.2976 39.3183 10.6538C39.9114 10.01 40.6159 9.49933 41.3914 9.15087C42.1668 8.80241 42.9981 8.62305 43.8376 8.62305H49.1289C48.2894 8.62305 47.4581 8.80241 46.6827 9.15087C45.9072 9.49933 45.2027 10.01 44.6096 10.6538C44.0164 11.2976 43.5462 12.0618 43.2258 12.9026C42.9054 13.7435 42.7412 14.6446 42.7425 15.5544V198.793C42.7425 200.628 43.4153 202.389 44.613 203.686C45.8107 204.984 47.4351 205.714 49.1289 205.714Z" fill="black"/>
<path d="M294.243 15.4077H48.5083V192.103H294.243V15.4077Z" fill="white"/>
<path d="M64.101 129.711C75.5922 129.711 84.9077 119.616 84.9077 107.163C84.9077 94.7107 75.5922 84.6157 64.101 84.6157C52.6099 84.6157 43.2944 94.7107 43.2944 107.163C43.2944 119.616 52.6099 129.711 64.101 129.711Z" fill="#263238"/>
<path d="M77.7483 121.286C84.8709 113.568 84.8709 101.053 77.7483 93.3348C70.6257 85.6162 59.0777 85.6162 51.9552 93.3348C44.8326 101.053 44.8326 113.568 51.9552 121.286C59.0777 129.005 70.6257 129.005 77.7483 121.286Z" fill="#263238"/>
<path opacity="0.2" d="M77.7483 121.286C84.8709 113.568 84.8709 101.053 77.7483 93.3348C70.6257 85.6162 59.0777 85.6162 51.9552 93.3348C44.8326 101.053 44.8326 113.568 51.9552 121.286C59.0777 129.005 70.6257 129.005 77.7483 121.286Z" fill="white"/>
<path d="M60.9224 3.20425C60.9224 3.20425 83.0179 29.5537 66.2621 97.3754L74.984 100.158C74.984 100.158 99.7155 36.1909 77.3293 4.0234C77.3777 4.0234 63.9847 -2.67686 60.9224 3.20425Z" fill="#263238"/>
<path opacity="0.1" d="M60.9224 3.20425C60.9224 3.20425 83.0179 29.5537 66.2621 97.3754L74.984 100.158C74.984 100.158 99.7155 36.1909 77.3293 4.0234C77.3777 4.0234 63.9847 -2.67686 60.9224 3.20425Z" fill="white"/>
<path d="M78.0037 110.711C79.4225 104.196 75.6996 97.669 69.6883 96.1315C63.677 94.594 57.6538 98.6285 56.235 105.143C54.8162 111.657 58.5391 118.184 64.5504 119.722C70.5617 121.259 76.5849 117.225 78.0037 110.711Z" fill="#263238"/>
<path opacity="0.1" d="M78.0037 110.711C79.4225 104.196 75.6996 97.669 69.6883 96.1315C63.677 94.594 57.6538 98.6285 56.235 105.143C54.8162 111.657 58.5391 118.184 64.5504 119.722C70.5617 121.259 76.5849 117.225 78.0037 110.711Z" fill="white"/>
<path d="M71.4181 117.239C76.1601 115.11 78.412 109.219 76.4478 104.08C74.4836 98.941 69.0471 96.5007 64.305 98.6292C59.5629 100.758 57.3111 106.649 59.2753 111.788C61.2395 116.927 66.676 119.367 71.4181 117.239Z" fill="#263238"/>
<path opacity="0.2" d="M71.4181 117.239C76.1601 115.11 78.412 109.219 76.4478 104.08C74.4836 98.941 69.0471 96.5007 64.305 98.6292C59.5629 100.758 57.3111 106.649 59.2753 111.788C61.2395 116.927 66.676 119.367 71.4181 117.239Z" fill="white"/>
<path d="M206.023 48.9718L204.686 40.1606L203.348 48.9718L195.208 50.4316L203.348 51.8808L204.686 60.692L206.023 51.8808L214.154 50.4316L206.023 48.9718Z" fill="#2CB67D"/>
<path d="M206.023 48.9718L204.686 40.1606L203.348 48.9718L195.208 50.4316L203.348 51.8808L204.686 60.692L206.023 51.8808L214.154 50.4316L206.023 48.9718Z" fill="white" fill-opacity="0.4"/>
<path d="M224.746 99.1293L223.786 92.8281L222.827 99.1293L217.022 100.159L222.827 101.198L223.786 107.489L224.746 101.198L230.551 100.159L224.746 99.1293Z" fill="#2CB67D"/>
<path d="M22.8625 173.945L21.5252 165.134L20.1878 173.945L12.0474 175.394L20.1878 176.854L21.5252 185.665L22.8625 176.854L30.9933 175.394L22.8625 173.945Z" fill="#2CB67D"/>
<path d="M22.8625 173.945L21.5252 165.134L20.1878 173.945L12.0474 175.394L20.1878 176.854L21.5252 185.665L22.8625 176.854L30.9933 175.394L22.8625 173.945Z" fill="white" fill-opacity="0.4"/>
<path d="M154.185 225.509L152.596 215.07L151.007 225.509L141.364 227.232L151.007 228.954L152.596 239.393L154.185 228.954L163.818 227.232L154.185 225.509Z" fill="#2CB67D"/>
<path opacity="0.6" d="M154.185 225.509L152.596 215.07L151.007 225.509L141.364 227.232L151.007 228.954L152.596 239.393L154.185 228.954L163.818 227.232L154.185 225.509Z" fill="white"/>
<path opacity="0.6" d="M224.746 99.1293L223.786 92.8281L222.827 99.1293L217.022 100.159L222.827 101.198L223.786 107.489L224.746 101.198L230.551 100.159L224.746 99.1293Z" fill="white"/>
<path d="M139.749 94.1V108H137.469V94.1H139.749ZM147.282 94.1C148.762 94.1 150.056 94.3867 151.162 94.96C152.282 95.52 153.142 96.3333 153.742 97.4C154.356 98.4533 154.662 99.6867 154.662 101.1C154.662 102.513 154.356 103.74 153.742 104.78C153.142 105.82 152.282 106.62 151.162 107.18C150.056 107.727 148.762 108 147.282 108H142.742V94.1H147.282ZM147.282 106.14C148.909 106.14 150.156 105.7 151.022 104.82C151.889 103.94 152.322 102.7 152.322 101.1C152.322 99.4867 151.889 98.2267 151.022 97.32C150.156 96.4133 148.909 95.96 147.282 95.96H145.022V106.14H147.282ZM159.202 95.94V100.02H164.002V101.88H159.202V106.14H164.602V108H156.922V94.08H164.602V95.94H159.202ZM173.75 108.14C172.457 108.14 171.263 107.84 170.17 107.24C169.09 106.627 168.23 105.78 167.59 104.7C166.963 103.607 166.65 102.38 166.65 101.02C166.65 99.66 166.963 98.44 167.59 97.36C168.23 96.28 169.09 95.44 170.17 94.84C171.263 94.2267 172.457 93.92 173.75 93.92C175.057 93.92 176.25 94.2267 177.33 94.84C178.423 95.44 179.283 96.28 179.91 97.36C180.537 98.44 180.85 99.66 180.85 101.02C180.85 102.38 180.537 103.607 179.91 104.7C179.283 105.78 178.423 106.627 177.33 107.24C176.25 107.84 175.057 108.14 173.75 108.14ZM173.75 106.16C174.67 106.16 175.49 105.953 176.21 105.54C176.93 105.113 177.49 104.513 177.89 103.74C178.303 102.953 178.51 102.047 178.51 101.02C178.51 99.9933 178.303 99.0933 177.89 98.32C177.49 97.5467 176.93 96.9533 176.21 96.54C175.49 96.1267 174.67 95.92 173.75 95.92C172.83 95.92 172.01 96.1267 171.29 96.54C170.57 96.9533 170.003 97.5467 169.59 98.32C169.19 99.0933 168.99 99.9933 168.99 101.02C168.99 102.047 169.19 102.953 169.59 103.74C170.003 104.513 170.57 105.113 171.29 105.54C172.01 105.953 172.83 106.16 173.75 106.16ZM187.674 108.14C186.74 108.14 185.9 107.98 185.154 107.66C184.407 107.327 183.82 106.86 183.394 106.26C182.967 105.66 182.754 104.96 182.754 104.16H185.194C185.247 104.76 185.48 105.253 185.894 105.64C186.32 106.027 186.914 106.22 187.674 106.22C188.46 106.22 189.074 106.033 189.514 105.66C189.954 105.273 190.174 104.78 190.174 104.18C190.174 103.713 190.034 103.333 189.754 103.04C189.487 102.747 189.147 102.52 188.734 102.36C188.334 102.2 187.774 102.027 187.054 101.84C186.147 101.6 185.407 101.36 184.834 101.12C184.274 100.867 183.794 100.48 183.394 99.96C182.994 99.44 182.794 98.7467 182.794 97.88C182.794 97.08 182.994 96.38 183.394 95.78C183.794 95.18 184.354 94.72 185.074 94.4C185.794 94.08 186.627 93.92 187.574 93.92C188.92 93.92 190.02 94.26 190.874 94.94C191.74 95.6067 192.22 96.5267 192.314 97.7H189.794C189.754 97.1933 189.514 96.76 189.074 96.4C188.634 96.04 188.054 95.86 187.334 95.86C186.68 95.86 186.147 96.0267 185.734 96.36C185.32 96.6933 185.114 97.1733 185.114 97.8C185.114 98.2267 185.24 98.58 185.494 98.86C185.76 99.1267 186.094 99.34 186.494 99.5C186.894 99.66 187.44 99.8333 188.134 100.02C189.054 100.273 189.8 100.527 190.374 100.78C190.96 101.033 191.454 101.427 191.854 101.96C192.267 102.48 192.474 103.18 192.474 104.06C192.474 104.767 192.28 105.433 191.894 106.06C191.52 106.687 190.967 107.193 190.234 107.58C189.514 107.953 188.66 108.14 187.674 108.14ZM206.699 108.14C205.406 108.14 204.213 107.84 203.119 107.24C202.039 106.627 201.179 105.78 200.539 104.7C199.913 103.607 199.599 102.38 199.599 101.02C199.599 99.66 199.913 98.44 200.539 97.36C201.179 96.28 202.039 95.44 203.119 94.84C204.213 94.2267 205.406 93.92 206.699 93.92C208.006 93.92 209.199 94.2267 210.279 94.84C211.373 95.44 212.233 96.28 212.859 97.36C213.486 98.44 213.799 99.66 213.799 101.02C213.799 102.38 213.486 103.607 212.859 104.7C212.233 105.78 211.373 106.627 210.279 107.24C209.199 107.84 208.006 108.14 206.699 108.14ZM206.699 106.16C207.619 106.16 208.439 105.953 209.159 105.54C209.879 105.113 210.439 104.513 210.839 103.74C211.253 102.953 211.459 102.047 211.459 101.02C211.459 99.9933 211.253 99.0933 210.839 98.32C210.439 97.5467 209.879 96.9533 209.159 96.54C208.439 96.1267 207.619 95.92 206.699 95.92C205.779 95.92 204.959 96.1267 204.239 96.54C203.519 96.9533 202.953 97.5467 202.539 98.32C202.139 99.0933 201.939 99.9933 201.939 101.02C201.939 102.047 202.139 102.953 202.539 103.74C202.953 104.513 203.519 105.113 204.239 105.54C204.959 105.953 205.779 106.16 206.699 106.16ZM224.223 94.1V95.96H218.323V100.06H222.923V101.92H218.323V108H216.043V94.1H224.223ZM105.188 124.1L101.068 138H98.4879L95.5679 127.48L92.4679 138L89.9079 138.02L85.9679 124.1H88.3879L91.2679 135.42L94.3879 124.1H96.9479L99.8479 135.36L102.748 124.1H105.188ZM118.168 124.1V138H115.888V131.92H109.348V138H107.068V124.1H109.348V130.06H115.888V124.1H118.168ZM129.55 135.16H123.73L122.73 138H120.35L125.33 124.08H127.97L132.95 138H130.55L129.55 135.16ZM128.91 133.3L126.65 126.84L124.37 133.3H128.91ZM144.095 124.1V125.96H140.395V138H138.115V125.96H134.395V124.1H144.095ZM146.764 124.1H149.244L147.144 128.86H145.544L146.764 124.1ZM155.828 138.14C154.895 138.14 154.055 137.98 153.308 137.66C152.561 137.327 151.975 136.86 151.548 136.26C151.121 135.66 150.908 134.96 150.908 134.16H153.348C153.401 134.76 153.635 135.253 154.048 135.64C154.475 136.027 155.068 136.22 155.828 136.22C156.615 136.22 157.228 136.033 157.668 135.66C158.108 135.273 158.328 134.78 158.328 134.18C158.328 133.713 158.188 133.333 157.908 133.04C157.641 132.747 157.301 132.52 156.888 132.36C156.488 132.2 155.928 132.027 155.208 131.84C154.301 131.6 153.561 131.36 152.988 131.12C152.428 130.867 151.948 130.48 151.548 129.96C151.148 129.44 150.948 128.747 150.948 127.88C150.948 127.08 151.148 126.38 151.548 125.78C151.948 125.18 152.508 124.72 153.228 124.4C153.948 124.08 154.781 123.92 155.728 123.92C157.075 123.92 158.175 124.26 159.028 124.94C159.895 125.607 160.375 126.527 160.468 127.7H157.948C157.908 127.193 157.668 126.76 157.228 126.4C156.788 126.04 156.208 125.86 155.488 125.86C154.835 125.86 154.301 126.027 153.888 126.36C153.475 126.693 153.268 127.173 153.268 127.8C153.268 128.227 153.395 128.58 153.648 128.86C153.915 129.127 154.248 129.34 154.648 129.5C155.048 129.66 155.595 129.833 156.288 130.02C157.208 130.273 157.955 130.527 158.528 130.78C159.115 131.033 159.608 131.427 160.008 131.96C160.421 132.48 160.628 133.18 160.628 134.06C160.628 134.767 160.435 135.433 160.048 136.06C159.675 136.687 159.121 137.193 158.388 137.58C157.668 137.953 156.815 138.14 155.828 138.14ZM177.494 124.1V125.96H173.794V138H171.514V125.96H167.794V124.1H177.494ZM190.903 124.1V138H188.623V131.92H182.083V138H179.803V124.1H182.083V130.06H188.623V124.1H190.903ZM196.184 125.94V130.02H200.984V131.88H196.184V136.14H201.584V138H193.904V124.08H201.584V125.94H196.184ZM217.768 124.1V125.96H211.868V130.06H216.468V131.92H211.868V138H209.588V124.1H217.768ZM222.141 124.1V132.96C222.141 134.013 222.414 134.807 222.961 135.34C223.521 135.873 224.294 136.14 225.281 136.14C226.281 136.14 227.054 135.873 227.601 135.34C228.161 134.807 228.441 134.013 228.441 132.96V124.1H230.721V132.92C230.721 134.053 230.474 135.013 229.981 135.8C229.488 136.587 228.828 137.173 228.001 137.56C227.174 137.947 226.261 138.14 225.261 138.14C224.261 138.14 223.348 137.947 222.521 137.56C221.708 137.173 221.061 136.587 220.581 135.8C220.101 135.013 219.861 134.053 219.861 132.92V124.1H222.141ZM242.669 124.1V125.96H238.969V138H236.689V125.96H232.969V124.1H242.669ZM247.239 124.1V132.96C247.239 134.013 247.512 134.807 248.059 135.34C248.619 135.873 249.392 136.14 250.379 136.14C251.379 136.14 252.152 135.873 252.699 135.34C253.259 134.807 253.539 134.013 253.539 132.96V124.1H255.819V132.92C255.819 134.053 255.572 135.013 255.079 135.8C254.585 136.587 253.925 137.173 253.099 137.56C252.272 137.947 251.359 138.14 250.359 138.14C249.359 138.14 248.445 137.947 247.619 137.56C246.805 137.173 246.159 136.587 245.679 135.8C245.199 135.013 244.959 134.053 244.959 132.92V124.1H247.239ZM266.007 138L262.807 132.44H261.067V138H258.787V124.1H263.587C264.654 124.1 265.554 124.287 266.287 124.66C267.034 125.033 267.587 125.533 267.947 126.16C268.32 126.787 268.507 127.487 268.507 128.26C268.507 129.167 268.24 129.993 267.707 130.74C267.187 131.473 266.38 131.973 265.287 132.24L268.727 138H266.007ZM261.067 130.62H263.587C264.44 130.62 265.08 130.407 265.507 129.98C265.947 129.553 266.167 128.98 266.167 128.26C266.167 127.54 265.954 126.98 265.527 126.58C265.1 126.167 264.454 125.96 263.587 125.96H261.067V130.62ZM273.704 125.94V130.02H278.504V131.88H273.704V136.14H279.104V138H271.424V124.08H279.104V125.94H273.704Z" fill="#010303" fill-opacity="0.87"/>
</svg>
