<svg width="225" height="280" viewBox="0 0 225 280" fill="none" xmlns="http://www.w3.org/2000/svg">
<path d="M73.7757 117.966L69.7605 103.794L73.1178 103.928L76.5976 116.478L74.9189 116.411L79.5726 104.187L82.5702 104.308L86.07 116.858L84.4513 116.793L89.025 104.567L92.1225 104.691L86.9851 118.496L83.5079 118.356L80.4068 107.343L81.3261 107.38L77.2529 118.106L73.7757 117.966ZM103.672 105.154L106.909 105.284L106.348 119.273L103.111 119.143L103.672 105.154ZM96.7559 118.888L93.5186 118.758L94.0797 104.769L97.3171 104.899L96.7559 118.888ZM103.581 113.417L96.7462 113.143L96.856 110.405L103.691 110.679L103.581 113.417ZM107.969 119.338L114.765 105.599L117.963 105.727L123.657 119.967L120.259 119.831L115.639 107.275L116.918 107.327L111.287 119.471L107.969 119.338ZM111.207 116.465L112.165 114.042L119.359 114.33L120.14 116.824L111.207 116.465ZM127.453 120.119L127.908 108.768L123.432 108.589L123.538 105.951L135.728 106.44L135.622 109.078L131.146 108.898L130.69 120.249L127.453 120.119ZM137.096 112.3L138.608 107.556L138.974 109.393C138.401 109.37 137.935 109.184 137.575 108.836C137.23 108.475 137.068 108.002 137.092 107.415C137.115 106.843 137.32 106.39 137.707 106.059C138.094 105.714 138.561 105.553 139.107 105.575C139.667 105.597 140.119 105.796 140.465 106.17C140.81 106.53 140.972 106.997 140.949 107.57C140.942 107.743 140.922 107.916 140.888 108.088C140.868 108.248 140.814 108.439 140.725 108.662C140.649 108.886 140.524 109.181 140.349 109.548L139.075 112.379L137.096 112.3ZM147.689 121.171C146.57 121.126 145.503 120.937 144.489 120.603C143.475 120.255 142.665 119.829 142.058 119.324L143.255 116.93C143.838 117.381 144.53 117.762 145.331 118.074C146.146 118.374 146.974 118.541 147.813 118.574C148.452 118.6 148.968 118.56 149.359 118.456C149.764 118.339 150.064 118.171 150.26 117.952C150.456 117.733 150.559 117.477 150.571 117.184C150.586 116.811 150.451 116.512 150.167 116.287C149.883 116.048 149.503 115.853 149.029 115.701C148.555 115.535 148.028 115.38 147.446 115.237C146.879 115.081 146.306 114.897 145.727 114.687C145.162 114.478 144.645 114.217 144.177 113.905C143.709 113.592 143.332 113.19 143.045 112.698C142.771 112.207 142.649 111.588 142.679 110.842C142.711 110.043 142.953 109.325 143.406 108.69C143.872 108.041 144.546 107.541 145.427 107.189C146.323 106.825 147.43 106.669 148.749 106.722C149.628 106.757 150.49 106.899 151.334 107.146C152.179 107.38 152.919 107.717 153.555 108.156L152.457 110.574C151.82 110.175 151.178 109.875 150.532 109.676C149.887 109.463 149.251 109.344 148.625 109.319C147.998 109.294 147.483 109.347 147.077 109.477C146.671 109.608 146.377 109.79 146.194 110.022C146.012 110.242 145.915 110.505 145.903 110.811C145.888 111.171 146.023 111.47 146.307 111.708C146.592 111.933 146.971 112.122 147.445 112.274C147.919 112.427 148.44 112.581 149.008 112.737C149.589 112.894 150.162 113.071 150.728 113.267C151.307 113.463 151.831 113.718 152.299 114.03C152.767 114.343 153.137 114.745 153.411 115.236C153.698 115.728 153.827 116.34 153.798 117.073C153.766 117.859 153.518 118.57 153.052 119.205C152.586 119.84 151.906 120.34 151.01 120.704C150.128 121.069 149.021 121.225 147.689 121.171ZM164.703 121.614L165.158 110.263L160.682 110.083L160.787 107.445L172.978 107.934L172.872 110.572L168.395 110.393L167.94 121.743L164.703 121.614ZM184.462 108.395L187.699 108.525L187.138 122.514L183.901 122.384L184.462 108.395ZM177.546 122.129L174.308 121.999L174.869 108.01L178.107 108.14L177.546 122.129ZM184.37 116.658L177.536 116.384L177.646 113.646L184.48 113.92L184.37 116.658ZM193.91 114.419L200.645 114.689L200.544 117.207L193.809 116.937L193.91 114.419ZM193.919 120.184L201.533 120.489L201.429 123.087L190.598 122.652L191.159 108.664L201.73 109.088L201.626 111.686L194.272 111.391L193.919 120.184ZM97.0568 135.213L103.771 135.482L103.667 138.08L96.9525 137.811L97.0568 135.213ZM96.9879 142.917L93.7505 142.787L94.3117 128.798L104.883 129.222L104.779 131.82L97.4449 131.526L96.9879 142.917ZM112.869 143.794C110.884 143.714 109.354 143.099 108.279 141.948C107.205 140.798 106.708 139.197 106.791 137.145L107.105 129.311L110.342 129.441L110.033 137.155C109.979 138.487 110.214 139.457 110.737 140.065C111.259 140.673 112.014 140.997 113 141.037C113.985 141.076 114.763 140.814 115.333 140.25C115.903 139.685 116.214 138.737 116.268 137.405L116.577 129.691L119.775 129.819L119.46 137.653C119.378 139.705 118.755 141.261 117.592 142.322C116.428 143.383 114.854 143.873 112.869 143.794ZM125.226 144.049L125.681 132.698L121.205 132.519L121.311 129.881L133.501 130.37L133.395 133.008L128.919 132.828L128.463 144.179L125.226 144.049ZM140.803 144.914C138.818 144.835 137.288 144.22 136.213 143.069C135.138 141.918 134.642 140.317 134.724 138.265L135.039 130.432L138.276 130.562L137.967 138.275C137.913 139.608 138.148 140.578 138.67 141.186C139.193 141.794 139.947 142.118 140.933 142.157C141.919 142.197 142.697 141.935 143.267 141.37C143.837 140.806 144.148 139.858 144.202 138.525L144.511 130.812L147.708 130.94L147.394 138.774C147.312 140.825 146.689 142.382 145.526 143.442C144.362 144.503 142.788 144.994 140.803 144.914ZM150.496 145.063L151.057 131.074L157.113 131.317C158.365 131.367 159.436 131.617 160.325 132.067C161.215 132.503 161.891 133.11 162.354 133.889C162.816 134.668 163.026 135.584 162.984 136.637C162.942 137.676 162.66 138.565 162.136 139.305C161.614 140.031 160.891 140.576 159.969 140.939C159.047 141.303 157.96 141.459 156.708 141.409L152.451 141.238L153.947 139.877L153.734 145.193L150.496 145.063ZM159.389 145.42L156.096 140.204L159.553 140.342L162.886 145.56L159.389 145.42ZM153.933 140.237L152.555 138.66L156.631 138.824C157.631 138.864 158.385 138.681 158.895 138.274C159.406 137.854 159.676 137.265 159.707 136.505C159.738 135.733 159.515 135.123 159.039 134.677C158.564 134.231 157.826 133.988 156.827 133.948L152.75 133.784L154.251 132.303L153.933 140.237ZM168.654 137.425L175.389 137.695L175.288 140.213L168.553 139.943L168.654 137.425ZM168.663 143.19L176.277 143.495L176.173 146.093L165.341 145.659L165.903 131.67L176.474 132.094L176.37 134.692L169.016 134.397L168.663 143.19Z" fill="white"/>
<path d="M14.1377 258.376C14.1377 258.376 31.8704 271.767 34.6753 271.408C36.5842 271.2 38.5092 271.185 40.421 271.364L21.2837 255.464L14.1377 258.376Z" fill="#2CB67D"/>
<path d="M209.498 270.054L36.2127 271.697C35.686 271.703 35.1633 271.605 34.6745 271.408C34.1858 271.212 33.7407 270.921 33.3648 270.552C32.9889 270.183 32.6896 269.743 32.4841 269.258C32.2785 268.773 32.1708 268.252 32.1671 267.725C30.0419 172.344 28.7821 59.0726 29.7394 25.5151C29.7562 24.4692 30.182 23.4716 30.9254 22.7359C31.6689 22.0002 32.671 21.585 33.7169 21.5793L207.122 19.93C207.655 19.9222 208.184 20.0209 208.678 20.2203C209.172 20.4198 209.622 20.716 210 21.0915C210.378 21.467 210.677 21.9143 210.88 22.4071C211.083 22.8999 211.185 23.4282 211.181 23.9611L213.476 265.938C213.491 267.011 213.081 268.045 212.336 268.816C211.591 269.588 210.57 270.033 209.498 270.054Z" fill="#2CB67D"/>
<path d="M207.05 266.358L34.0414 269.268L19.8786 259.564L14.9837 11.796L194.499 14.5198L203.861 23.9581L207.05 266.358Z" fill="white"/>
<path d="M207.049 266.358L190.221 252.839L191.458 12.137L203.86 23.9579L207.049 266.358Z" fill="#E0E0E0"/>
<path d="M192.743 257.923L17.1058 259.59C16.0388 259.605 15.0088 259.199 14.2388 258.46C13.4688 257.721 13.0207 256.709 12.9914 255.642C10.8456 160.252 9.58636 46.9905 10.5637 13.4319C10.5951 12.3819 11.0322 11.385 11.7833 10.6506C12.5343 9.91618 13.5407 9.50142 14.5911 9.49347L190.358 7.81931C191.437 7.81164 192.474 8.23105 193.244 8.98589C194.014 9.74073 194.453 10.7696 194.467 11.8477L196.772 253.824C196.78 254.902 196.36 255.938 195.605 256.706C194.85 257.475 193.821 257.912 192.743 257.923Z" fill="#2CB67D"/>
<path d="M199.236 20.0171C199.236 20.0171 199.255 20.3766 199.293 21.0956C199.331 21.8146 199.327 22.8763 199.35 24.257C199.388 27.0489 199.444 31.1416 199.513 36.4253C199.632 46.9938 199.801 62.2863 200.019 81.1612C200.398 118.954 200.918 171.149 201.495 228.79C201.612 240.63 201.735 252.23 201.822 263.341L201.836 263.6L201.576 263.614L77.3404 264.703L40.6433 264.973L30.7623 265.026L28.1985 265.021L27.3365 265.007L28.2053 264.961L30.756 264.906L40.6428 264.773L77.3313 264.343L201.568 263.084L201.312 263.338C201.214 252.227 201.11 240.616 200.985 228.787C200.467 171.143 199.997 118.955 199.659 81.1602C199.52 62.2711 199.402 46.986 199.293 36.417C199.264 31.1412 199.237 27.0368 199.219 24.2439C199.216 22.8621 199.22 21.8104 199.222 21.0793C199.223 20.3482 199.236 20.0171 199.236 20.0171Z" fill="#263238"/>
<path d="M42.195 130L37.615 116H40.975L44.955 128.4H43.275L47.435 116H50.435L54.435 128.4H52.815L56.895 116H59.995L55.415 130H51.935L48.395 119.12H49.315L45.675 130H42.195ZM71.5538 116H74.7938V130H71.5538V116ZM65.1938 130H61.9538V116H65.1938V130ZM71.7938 124.26H64.9538V121.52H71.7938V124.26ZM76.4161 130L82.6561 116H85.8561L92.1161 130H88.7161L83.5961 117.64H84.8761L79.7361 130H76.4161ZM79.5361 127L80.3961 124.54H87.5961L88.4761 127H79.5361ZM95.9155 130V118.64H91.4355V116H103.636V118.64H99.1555V130H95.9155ZM105.238 121.8L106.558 117L106.998 118.82C106.424 118.82 105.951 118.653 105.578 118.32C105.218 117.973 105.038 117.507 105.038 116.92C105.038 116.347 105.224 115.887 105.598 115.54C105.971 115.18 106.431 115 106.978 115C107.538 115 107.998 115.18 108.358 115.54C108.718 115.887 108.898 116.347 108.898 116.92C108.898 117.093 108.884 117.267 108.858 117.44C108.844 117.6 108.798 117.793 108.718 118.02C108.651 118.247 108.538 118.547 108.378 118.92L107.218 121.8H105.238ZM116.177 130.24C115.057 130.24 113.984 130.093 112.957 129.8C111.931 129.493 111.104 129.1 110.477 128.62L111.577 126.18C112.177 126.607 112.884 126.96 113.697 127.24C114.524 127.507 115.357 127.64 116.197 127.64C116.837 127.64 117.351 127.58 117.737 127.46C118.137 127.327 118.431 127.147 118.617 126.92C118.804 126.693 118.897 126.433 118.897 126.14C118.897 125.767 118.751 125.473 118.457 125.26C118.164 125.033 117.777 124.853 117.297 124.72C116.817 124.573 116.284 124.44 115.697 124.32C115.124 124.187 114.544 124.027 113.957 123.84C113.384 123.653 112.857 123.413 112.377 123.12C111.897 122.827 111.504 122.44 111.197 121.96C110.904 121.48 110.757 120.867 110.757 120.12C110.757 119.32 110.971 118.593 111.397 117.94C111.837 117.273 112.491 116.747 113.357 116.36C114.237 115.96 115.337 115.76 116.657 115.76C117.537 115.76 118.404 115.867 119.257 116.08C120.111 116.28 120.864 116.587 121.517 117L120.517 119.46C119.864 119.087 119.211 118.813 118.557 118.64C117.904 118.453 117.264 118.36 116.637 118.36C116.011 118.36 115.497 118.433 115.097 118.58C114.697 118.727 114.411 118.92 114.237 119.16C114.064 119.387 113.977 119.653 113.977 119.96C113.977 120.32 114.124 120.613 114.417 120.84C114.711 121.053 115.097 121.227 115.577 121.36C116.057 121.493 116.584 121.627 117.157 121.76C117.744 121.893 118.324 122.047 118.897 122.22C119.484 122.393 120.017 122.627 120.497 122.92C120.977 123.213 121.364 123.6 121.657 124.08C121.964 124.56 122.117 125.167 122.117 125.9C122.117 126.687 121.897 127.407 121.457 128.06C121.017 128.713 120.357 129.24 119.477 129.64C118.611 130.04 117.511 130.24 116.177 130.24ZM133.195 130V118.64H128.715V116H140.915V118.64H136.435V130H133.195ZM152.408 116H155.648V130H152.408V116ZM146.048 130H142.808V116H146.048V130ZM152.648 124.26H145.808V121.52H152.648V124.26ZM162.091 121.64H168.831V124.16H162.091V121.64ZM162.331 127.4H169.951V130H159.111V116H169.691V118.6H162.331V127.4ZM66.1487 146.3H72.8687V148.9H66.1487V146.3ZM66.3887 154H63.1487V140H73.7287V142.6H66.3887V154ZM82.2921 154.24C80.3055 154.24 78.7521 153.687 77.6321 152.58C76.5121 151.473 75.9521 149.893 75.9521 147.84V140H79.1921V147.72C79.1921 149.053 79.4655 150.013 80.0121 150.6C80.5588 151.187 81.3255 151.48 82.3121 151.48C83.2988 151.48 84.0655 151.187 84.6121 150.6C85.1588 150.013 85.4321 149.053 85.4321 147.72V140H88.6321V147.84C88.6321 149.893 88.0721 151.473 86.9521 152.58C85.8321 153.687 84.2788 154.24 82.2921 154.24ZM94.6495 154V142.64H90.1695V140H102.369V142.64H97.8895V154H94.6495ZM110.248 154.24C108.262 154.24 106.708 153.687 105.588 152.58C104.468 151.473 103.908 149.893 103.908 147.84V140H107.148V147.72C107.148 149.053 107.422 150.013 107.968 150.6C108.515 151.187 109.282 151.48 110.268 151.48C111.255 151.48 112.022 151.187 112.568 150.6C113.115 150.013 113.388 149.053 113.388 147.72V140H116.588V147.84C116.588 149.893 116.028 151.473 114.908 152.58C113.788 153.687 112.235 154.24 110.248 154.24ZM119.94 154V140H126C127.253 140 128.333 140.207 129.24 140.62C130.147 141.02 130.847 141.6 131.34 142.36C131.833 143.12 132.08 144.027 132.08 145.08C132.08 146.12 131.833 147.02 131.34 147.78C130.847 148.527 130.147 149.1 129.24 149.5C128.333 149.9 127.253 150.1 126 150.1H121.74L123.18 148.68V154H119.94ZM128.84 154L125.34 148.92H128.8L132.34 154H128.84ZM123.18 149.04L121.74 147.52H125.82C126.82 147.52 127.567 147.307 128.06 146.88C128.553 146.44 128.8 145.84 128.8 145.08C128.8 144.307 128.553 143.707 128.06 143.28C127.567 142.853 126.82 142.64 125.82 142.64H121.74L123.18 141.1V149.04ZM137.777 145.64H144.517V148.16H137.777V145.64ZM138.017 151.4H145.637V154H134.797V140H145.377V142.6H138.017V151.4Z" fill="white"/>
</svg>
