<svg width="226" height="92" viewBox="0 0 226 92" fill="none" xmlns="http://www.w3.org/2000/svg">
<rect width="226" height="91.8374" rx="10" fill="#2CB67D"/>
<rect x="4.7915" y="3.99268" width="215.618" height="83.8516" rx="10" fill="white"/>
<path d="M153.207 19.9644H138.263L135.398 22.8288L137.424 24.8548L138.263 25.6933H153.207L154.045 24.8548L156.069 22.8288L153.207 19.9644Z" fill="black"/>
<path d="M137.118 26.8381L134.253 23.9736L131.389 26.8381V42.6997L134.253 45.5642L137.118 42.6997V26.8381Z" fill="black"/>
<path d="M134.253 47.855L131.389 50.7194V66.5811L134.253 69.4456L137.118 66.5811V50.7194L134.253 47.855Z" fill="black"/>
<path d="M135.398 70.591L138.263 73.4555H153.207L156.069 70.591L153.207 67.7266H138.263L135.398 70.591Z" fill="black"/>
<path d="M154.352 66.5811L157.214 69.4456L160.078 66.5811V50.7194L157.214 47.855L154.352 50.7194V66.5811Z" fill="black"/>
<path d="M157.214 23.9736L154.352 26.8381V42.6997L157.214 45.5642L160.078 42.6997V26.8381L157.214 23.9736Z" fill="black"/>
<path d="M187.185 19.9644H172.241L169.376 22.8288L171.402 24.8548L172.241 25.6933H187.185L188.023 24.8548L190.047 22.8288L187.185 19.9644Z" fill="black"/>
<path d="M171.096 26.8381L168.231 23.9736L165.367 26.8381V42.6997L168.231 45.5642L171.096 42.6997V26.8381Z" fill="black"/>
<path d="M168.231 47.855L165.367 50.7194V66.5811L168.231 69.4456L171.096 66.5811V50.7194L168.231 47.855Z" fill="black"/>
<path d="M169.376 70.591L172.241 73.4555H187.185L190.047 70.591L187.185 67.7266H172.241L169.376 70.591Z" fill="black"/>
<path d="M188.33 66.5811L191.192 69.4456L194.056 66.5811V50.7194L191.192 47.855L188.33 50.7194V66.5811Z" fill="black"/>
<path d="M191.192 23.9736L188.33 26.8381V42.6997L191.192 45.5642L194.056 42.6997V26.8381L191.192 23.9736Z" fill="black"/>
<path d="M86.9433 19.9644H71.9994L69.1323 22.8288L71.1584 24.8548L71.9994 25.6933H86.9433L87.7817 24.8548L89.8051 22.8288L86.9433 19.9644Z" fill="black"/>
<path d="M70.8539 26.8381L67.9868 23.9736L65.125 26.8381V42.6997L67.9868 45.5642L70.0129 43.5382L70.8539 42.6997V26.8381Z" fill="black"/>
<path d="M69.1323 46.7097L71.9994 49.5741H86.9433L89.8051 46.7097L86.9433 43.8452H71.9994L69.1323 46.7097Z" fill="black"/>
<path d="M93.8156 26.8381L90.9512 23.9736L88.0894 26.8381V42.6997L90.9512 45.5642L93.8156 42.6997V26.8381Z" fill="black"/>
<path d="M93.8156 66.5811V50.7194L90.9512 47.855L88.0894 50.7194V66.5811L90.9512 69.4456L93.8156 66.5811Z" fill="black"/>
<path d="M86.9428 67.7266H68.3225L65.458 70.591L68.3225 73.4555H86.9428L89.8046 70.591L86.9428 67.7266Z" fill="black"/>
<path d="M36.0329 49.8784L34.0068 47.855L31.145 50.7194V66.5811L34.0068 69.4429L36.0329 67.4195L36.8739 66.5811V50.7194L36.0329 49.8784Z" fill="black"/>
<path d="M38.0195 43.8452L35.1523 46.7097L38.0195 49.5741H52.9633L55.8251 46.7097L52.9633 43.8452H38.0195Z" fill="black"/>
<path d="M54.1079 26.8381V42.6997L56.9697 45.5642L59.8342 42.6997V26.8381L56.9697 23.9736L54.9464 25.997L54.1079 26.8381Z" fill="black"/>
<path d="M34.3425 25.6933H52.9628L55.8246 22.8288L52.9628 19.9644H34.3425L31.478 22.8288L34.3425 25.6933Z" fill="black"/>
<path d="M56.6345 73.4555L59.4989 70.591L56.6345 67.7266H38.0195L35.1523 70.591L38.0195 73.4555H56.6345Z" fill="black"/>
<path d="M109.699 28.1184V33.8764L112.563 36.7408L115.428 33.8764V28.1184L112.563 25.2539L109.699 28.1184Z" fill="black"/>
<path d="M109.699 59.3469V65.1049L112.563 67.9694L115.428 65.1049V59.3469L112.563 56.4824L109.699 59.3469Z" fill="black"/>
</svg>
