<svg width="36" height="36" viewBox="0 0 36 36" fill="none" xmlns="http://www.w3.org/2000/svg">
<path fill-rule="evenodd" clip-rule="evenodd" d="M18.375 0.435547C8.71002 0.435547 0.875 8.27056 0.875 17.9355C0.875 27.6005 8.71002 35.4355 18.375 35.4355C28.04 35.4355 35.875 27.6005 35.875 17.9355C35.875 8.27056 28.04 0.435547 18.375 0.435547ZM17.8876 15.2653L17.8509 14.6598C17.7407 13.0903 18.7077 11.6568 20.2378 11.1007C20.8009 10.9029 21.7557 10.8782 22.38 11.0512C22.6248 11.1254 23.09 11.3726 23.4205 11.595L24.0203 12.0028L24.6813 11.7927C25.0485 11.6815 25.5382 11.4961 25.7585 11.3726C25.9666 11.2613 26.1502 11.1995 26.1502 11.2366C26.1502 11.4467 25.6973 12.1635 25.3178 12.5589C24.8037 13.115 24.9506 13.1645 25.9911 12.7937C26.6154 12.5836 26.6276 12.5836 26.5052 12.8184C26.4317 12.942 26.0523 13.3745 25.6483 13.77C24.9628 14.4497 24.9261 14.5238 24.9261 15.0923C24.9261 15.9697 24.5099 17.7987 24.0937 18.7997C23.3226 20.6781 21.67 22.6183 20.0175 23.5946C17.6917 24.9663 14.5948 25.3123 11.9875 24.5091C11.1184 24.2372 9.625 23.5451 9.625 23.4216C9.625 23.3845 10.0779 23.335 10.6288 23.3227C11.7794 23.298 12.93 22.9767 13.9093 22.4082L14.5703 22.0127L13.8114 21.7532C12.7342 21.3825 11.7672 20.5298 11.5223 19.7265C11.4489 19.467 11.4734 19.4547 12.1589 19.4547L12.8688 19.4423L12.269 19.1581C11.5591 18.7997 10.9103 18.1941 10.592 17.5762C10.3595 17.1314 10.0657 16.0068 10.1514 15.9203C10.1758 15.8832 10.4329 15.9574 10.7267 16.0562C11.5713 16.3652 11.6815 16.291 11.1918 15.772C10.2738 14.8328 9.99223 13.4363 10.4329 12.114L10.641 11.5208L11.4489 12.3241C13.1014 13.943 15.0477 14.9069 17.2756 15.1912L17.8876 15.2653Z" fill="#7E7E7E" fill-opacity="0.4"/>
</svg>
