<svg width="34" height="34" viewBox="0 0 34 34" fill="none" xmlns="http://www.w3.org/2000/svg">
<path d="M6.72716 11.6893C6.14138 11.1036 5.19163 11.1036 4.60584 11.6893C4.02006 12.2751 4.02006 13.2249 4.60584 13.8107L6.72716 11.6893ZM16.9998 24.0833L15.9392 25.144C16.525 25.7298 17.4747 25.7298 18.0605 25.144L16.9998 24.0833ZM29.3938 13.8107C29.9796 13.2249 29.9796 12.2751 29.3938 11.6893C28.808 11.1036 27.8583 11.1036 27.2725 11.6893L29.3938 13.8107ZM4.60584 13.8107L15.9392 25.144L18.0605 23.0227L6.72716 11.6893L4.60584 13.8107ZM18.0605 25.144L29.3938 13.8107L27.2725 11.6893L15.9392 23.0227L18.0605 25.144Z" fill="black"/>
</svg>
