<svg width="25" height="25" viewBox="0 0 25 25" fill="none" xmlns="http://www.w3.org/2000/svg">
<path d="M9.47915 2.5C8.74998 2.29167 7.91665 2.1875 7.18748 2.1875C6.66665 2.1875 6.24998 2.29167 5.83331 2.70833C5.52081 3.02083 5.31248 3.54167 5.31248 4.0625V4.375H4.99998C3.43748 4.375 2.08331 5.625 2.08331 7.29167V18.0208C2.08331 19.5833 3.43748 20.9375 4.99998 20.9375H12.7083V4.375C11.7708 3.54167 10.625 2.91667 9.47915 2.5ZM4.99998 19.375C4.27081 19.375 3.64581 18.75 3.64581 18.0208V7.29167C3.64581 6.5625 4.27081 5.9375 4.99998 5.9375H5.31248V15.9375C5.31248 16.9792 6.14581 17.7083 7.08331 17.8125C7.81248 17.8125 8.43748 18.0208 9.06248 18.2292C9.79165 18.5417 10.4166 18.9583 10.8333 19.375H4.99998ZM20 4.375H13.75V20.9375H20C21.5625 20.9375 22.9166 19.5833 22.9166 18.0208V7.29167C22.9166 5.625 21.5625 4.375 20 4.375ZM18.9583 17.7083H15.7291C15.3125 17.7083 14.8958 17.3958 14.8958 16.875C14.8958 16.4583 15.2083 16.0417 15.7291 16.0417H18.9583C19.375 16.0417 19.7916 16.3542 19.7916 16.875C19.6875 17.3958 19.375 17.7083 18.9583 17.7083ZM18.9583 13.4375H15.7291C15.3125 13.4375 14.8958 13.125 14.8958 12.6042C14.8958 12.1875 15.2083 11.7708 15.7291 11.7708H18.9583C19.375 11.7708 19.7916 12.0833 19.7916 12.6042C19.6875 13.0208 19.375 13.4375 18.9583 13.4375ZM18.9583 9.0625H15.7291C15.3125 9.0625 14.8958 8.75 14.8958 8.22917C14.8958 7.8125 15.2083 7.39583 15.7291 7.39583H18.9583C19.375 7.39583 19.7916 7.70833 19.7916 8.22917C19.6875 8.75 19.375 9.0625 18.9583 9.0625Z" fill="white"/>
</svg>
