<svg width="124" height="124" viewBox="0 0 124 124" fill="none" xmlns="http://www.w3.org/2000/svg">
<g filter="url(#filter0_dd_2124_1215)">
<circle cx="62" cy="60" r="40" fill="white"/>
</g>
<path d="M74.75 60C74.75 67.0416 69.0416 72.75 62 72.75V75.75C70.6985 75.75 77.75 68.6985 77.75 60H74.75ZM62 72.75C54.9584 72.75 49.25 67.0416 49.25 60H46.25C46.25 68.6985 53.3015 75.75 62 75.75V72.75ZM49.25 60C49.25 52.9584 54.9584 47.25 62 47.25V44.25C53.3015 44.25 46.25 51.3015 46.25 60H49.25ZM62 47.25C69.0416 47.25 74.75 52.9584 74.75 60H77.75C77.75 51.3015 70.6985 44.25 62 44.25V47.25ZM62 45.75C61.1 46.95 61.0995 46.9496 61.0989 46.9492C61.0988 46.9491 61.0983 46.9487 61.098 46.9485C61.0975 46.9481 61.097 46.9478 61.0966 46.9475C61.0959 46.9469 61.0955 46.9466 61.0955 46.9466C61.0955 46.9466 61.097 46.9478 61.0999 46.95C61.1057 46.9545 61.1172 46.9635 61.1341 46.977C61.1678 47.0039 61.2227 47.0488 61.2959 47.1115C61.4424 47.2371 61.6614 47.4338 61.9289 47.7013C62.4647 48.2371 63.1903 49.0521 63.9186 50.1446C65.3713 52.3236 66.8333 55.6015 66.8333 60H69.8333C69.8333 54.8985 68.1287 51.0514 66.4147 48.4804C65.5597 47.1979 64.702 46.2317 64.0502 45.58C63.724 45.2537 63.4482 45.0051 63.2483 44.8338C63.1483 44.7481 63.0672 44.6816 63.0082 44.6344C62.9786 44.6107 62.9546 44.5919 62.9364 44.5778C62.9274 44.5708 62.9197 44.565 62.9137 44.5603C62.9106 44.558 62.9079 44.556 62.9057 44.5543C62.9045 44.5534 62.9035 44.5526 62.9025 44.5519C62.9021 44.5516 62.9014 44.5511 62.9012 44.5509C62.9006 44.5504 62.9 44.55 62 45.75ZM66.8333 60C66.8333 64.3985 65.3713 67.6764 63.9186 69.8554C63.1903 70.9479 62.4647 71.7629 61.9289 72.2987C61.6614 72.5662 61.4424 72.7629 61.2959 72.8885C61.2227 72.9512 61.1678 72.9961 61.1341 73.023C61.1172 73.0365 61.1057 73.0455 61.0999 73.05C61.097 73.0522 61.0955 73.0534 61.0955 73.0534C61.0955 73.0534 61.0959 73.0531 61.0966 73.0525C61.097 73.0522 61.0975 73.0519 61.098 73.0515C61.0983 73.0513 61.0988 73.0509 61.0989 73.0508C61.0995 73.0504 61.1 73.05 62 74.25C62.9 75.45 62.9006 75.4496 62.9012 75.4491C62.9014 75.4489 62.9021 75.4484 62.9025 75.4481C62.9035 75.4474 62.9045 75.4466 62.9057 75.4457C62.9079 75.444 62.9106 75.442 62.9137 75.4397C62.9197 75.435 62.9274 75.4292 62.9364 75.4222C62.9546 75.4081 62.9786 75.3893 63.0082 75.3656C63.0672 75.3184 63.1483 75.2519 63.2483 75.1662C63.4482 74.9949 63.724 74.7463 64.0502 74.42C64.702 73.7683 65.5597 72.8021 66.4147 71.5196C68.1287 68.9486 69.8333 65.1015 69.8333 60H66.8333ZM62 74.25C62.9 73.05 62.9005 73.0504 62.9011 73.0508C62.9012 73.0509 62.9017 73.0513 62.902 73.0515C62.9025 73.0519 62.903 73.0522 62.9034 73.0525C62.9041 73.0531 62.9045 73.0534 62.9045 73.0534C62.9045 73.0534 62.903 73.0522 62.9001 73.05C62.8943 73.0455 62.8828 73.0365 62.8659 73.023C62.8322 72.9961 62.7773 72.9512 62.7041 72.8885C62.5576 72.7629 62.3386 72.5662 62.0711 72.2987C61.5353 71.7629 60.8097 70.9479 60.0814 69.8554C58.6287 67.6764 57.1667 64.3985 57.1667 60H54.1667C54.1667 65.1015 55.8713 68.9486 57.5853 71.5196C58.4403 72.8021 59.298 73.7683 59.9498 74.42C60.276 74.7463 60.5518 74.9949 60.7517 75.1662C60.8517 75.2519 60.9328 75.3184 60.9918 75.3656C61.0214 75.3893 61.0454 75.4081 61.0636 75.4222C61.0727 75.4292 61.0803 75.435 61.0863 75.4397C61.0894 75.442 61.0921 75.444 61.0943 75.4457C61.0955 75.4466 61.0965 75.4474 61.0975 75.4481C61.0979 75.4484 61.0986 75.4489 61.0988 75.4491C61.0994 75.4496 61.1 75.45 62 74.25ZM57.1667 60C57.1667 55.6015 58.6287 52.3236 60.0814 50.1446C60.8097 49.0521 61.5353 48.2371 62.0711 47.7013C62.3386 47.4338 62.5576 47.2371 62.7041 47.1115C62.7773 47.0488 62.8322 47.0039 62.8659 46.977C62.8828 46.9635 62.8943 46.9545 62.9001 46.95C62.903 46.9478 62.9045 46.9466 62.9045 46.9466C62.9045 46.9466 62.9041 46.9469 62.9034 46.9475C62.903 46.9478 62.9025 46.9481 62.902 46.9485C62.9017 46.9487 62.9012 46.9491 62.9011 46.9492C62.9005 46.9496 62.9 46.95 62 45.75C61.1 44.55 61.0994 44.5504 61.0988 44.5509C61.0986 44.5511 61.0979 44.5516 61.0975 44.5519C61.0965 44.5526 61.0955 44.5534 61.0943 44.5543C61.0921 44.556 61.0894 44.558 61.0863 44.5603C61.0803 44.565 61.0727 44.5708 61.0636 44.5778C61.0454 44.5919 61.0214 44.6107 60.9918 44.6344C60.9328 44.6816 60.8517 44.7481 60.7517 44.8338C60.5518 45.0051 60.276 45.2537 59.9498 45.58C59.298 46.2317 58.4403 47.1979 57.5853 48.4804C55.8713 51.0514 54.1667 54.8985 54.1667 60H57.1667ZM76.25 58.5H47.75V61.5H76.25V58.5Z" fill="#2CB67D"/>
<defs>
<filter id="filter0_dd_2124_1215" x="0" y="0" width="124" height="124" filterUnits="userSpaceOnUse" color-interpolation-filters="sRGB">
<feFlood flood-opacity="0" result="BackgroundImageFix"/>
<feColorMatrix in="SourceAlpha" type="matrix" values="0 0 0 0 0 0 0 0 0 0 0 0 0 0 0 0 0 0 127 0" result="hardAlpha"/>
<feMorphology radius="2" operator="dilate" in="SourceAlpha" result="effect1_dropShadow_2124_1215"/>
<feOffset dy="2"/>
<feGaussianBlur stdDeviation="10"/>
<feComposite in2="hardAlpha" operator="out"/>
<feColorMatrix type="matrix" values="0 0 0 0 1 0 0 0 0 1 0 0 0 0 1 0 0 0 0.15 0"/>
<feBlend mode="normal" in2="BackgroundImageFix" result="effect1_dropShadow_2124_1215"/>
<feColorMatrix in="SourceAlpha" type="matrix" values="0 0 0 0 0 0 0 0 0 0 0 0 0 0 0 0 0 0 127 0" result="hardAlpha"/>
<feOffset dy="4"/>
<feGaussianBlur stdDeviation="5"/>
<feComposite in2="hardAlpha" operator="out"/>
<feColorMatrix type="matrix" values="0 0 0 0 0 0 0 0 0 0 0 0 0 0 0 0 0 0 0.15 0"/>
<feBlend mode="normal" in2="effect1_dropShadow_2124_1215" result="effect2_dropShadow_2124_1215"/>
<feBlend mode="normal" in="SourceGraphic" in2="effect2_dropShadow_2124_1215" result="shape"/>
</filter>
</defs>
</svg>
