<svg width="60" height="60" viewBox="0 0 60 60" fill="none" xmlns="http://www.w3.org/2000/svg">
<path d="M31.875 10.0002V12.5002C31.875 13.5252 31.025 14.3752 30 14.3752C28.975 14.3752 28.125 13.5252 28.125 12.5002V10.0002C28.125 8.97524 28.975 8.12524 30 8.12524C31.025 8.12524 31.875 8.97524 31.875 10.0002Z" fill="black"/>
<path d="M18.9501 18.9502C18.6001 19.3252 18.1001 19.5002 17.6251 19.5002C17.1501 19.5002 16.6751 19.3252 16.3001 18.9502L14.5251 17.1752C13.8001 16.4502 13.8001 15.2752 14.5251 14.5252C15.2751 13.8002 16.4501 13.8002 17.1751 14.5252L18.9501 16.3002C19.6751 17.0252 19.6751 18.2252 18.9501 18.9502Z" fill="black"/>
<path d="M14.3749 30C14.3749 31.025 13.5249 31.875 12.4999 31.875H9.99988C8.97488 31.875 8.12488 31.025 8.12488 30C8.12488 28.975 8.97488 28.125 9.99988 28.125H12.4999C13.5249 28.125 14.3749 28.975 14.3749 30Z" fill="black"/>
<path d="M18.9501 43.7001L17.1751 45.4751C16.8251 45.8251 16.3501 46.0251 15.8501 46.0251C15.3751 46.0251 14.9001 45.8251 14.5251 45.4751C13.8001 44.7251 13.8001 43.5501 14.5251 42.8251L16.3001 41.0501C17.0251 40.3251 18.2251 40.3251 18.9501 41.0501C19.6751 41.7751 19.6751 42.9751 18.9501 43.7001Z" fill="black"/>
<path d="M31.875 47.5002V50.0002C31.875 51.0252 31.025 51.8752 30 51.8752C28.975 51.8752 28.125 51.0252 28.125 50.0002V47.5002C28.125 46.4752 28.975 45.6252 30 45.6252C31.025 45.6252 31.875 46.4752 31.875 47.5002Z" fill="black"/>
<path d="M45.4751 45.4751C45.1001 45.8251 44.6251 46.0251 44.1501 46.0251C43.6751 46.0251 43.1751 45.8251 42.8251 45.4751L41.0501 43.7001C40.3251 42.9751 40.3251 41.7751 41.0501 41.0501C41.7751 40.3251 42.9751 40.3251 43.7001 41.0501L45.4751 42.8251C46.2001 43.5501 46.2001 44.7251 45.4751 45.4751Z" fill="black"/>
<path d="M51.8751 30C51.8751 31.025 51.0251 31.875 50.0001 31.875H47.5001C46.4751 31.875 45.6251 31.025 45.6251 30C45.6251 28.975 46.4751 28.125 47.5001 28.125H50.0001C51.0251 28.125 51.8751 28.975 51.8751 30Z" fill="black"/>
<path d="M45.4751 17.1752L43.7001 18.9502C43.3251 19.3252 42.8501 19.5002 42.3751 19.5002C41.9001 19.5002 41.4251 19.3252 41.0501 18.9502C40.3251 18.2252 40.3251 17.0252 41.0501 16.3002L42.8251 14.5252C43.5501 13.8002 44.7501 13.8002 45.4751 14.5252C46.2001 15.2752 46.2001 16.4502 45.4751 17.1752Z" fill="black"/>
<path d="M14.3749 30C14.3749 31.025 13.5249 31.875 12.4999 31.875H9.99988C8.97488 31.875 8.12488 31.025 8.12488 30C8.12488 28.975 8.97488 28.125 9.99988 28.125H12.4999C13.5249 28.125 14.3749 28.975 14.3749 30Z" fill="black"/>
<path d="M18.9501 41.0501C19.6751 41.7751 19.6751 42.9751 18.9501 43.7001L17.1751 45.4751C16.8251 45.8251 16.3501 46.0251 15.8501 46.0251C15.3751 46.0251 14.9001 45.8251 14.5251 45.4751C13.8001 44.7251 13.8001 43.5501 14.5251 42.8251L16.3001 41.0501C17.0251 40.3251 18.2251 40.3251 18.9501 41.0501Z" fill="black"/>
<path d="M18.9501 16.3002C19.6751 17.0252 19.6751 18.2252 18.9501 18.9502C18.6001 19.3252 18.1001 19.5002 17.6251 19.5002C17.1501 19.5002 16.6751 19.3252 16.3001 18.9502L14.5251 17.1752C13.8001 16.4502 13.8001 15.2752 14.5251 14.5252C15.2751 13.8002 16.4501 13.8002 17.1751 14.5252L18.9501 16.3002Z" fill="black"/>
<path d="M28.125 12.5002V10.0002C28.125 8.97524 28.975 8.12524 30 8.12524C31.025 8.12524 31.875 8.97524 31.875 10.0002V12.5002C31.875 13.5252 31.025 14.3752 30 14.3752C28.975 14.3752 28.125 13.5252 28.125 12.5002Z" fill="black"/>
<path d="M31.875 47.5002V50.0002C31.875 51.0252 31.025 51.8752 30 51.8752C28.975 51.8752 28.125 51.0252 28.125 50.0002V47.5002C28.125 46.4752 28.975 45.6252 30 45.6252C31.025 45.6252 31.875 46.4752 31.875 47.5002Z" fill="black"/>
<path d="M30 39.375C35.1777 39.375 39.375 35.1777 39.375 30C39.375 24.8223 35.1777 20.625 30 20.625C24.8223 20.625 20.625 24.8223 20.625 30C20.625 35.1777 24.8223 39.375 30 39.375Z" fill="black"/>
<path d="M45.4751 42.8251C46.2001 43.5501 46.2001 44.7251 45.4751 45.4751C45.1001 45.8251 44.6251 46.0251 44.1501 46.0251C43.6751 46.0251 43.1751 45.8251 42.8251 45.4751L41.0501 43.7001C40.3251 42.9751 40.3251 41.7751 41.0501 41.0501C41.7751 40.3251 42.9751 40.3251 43.7001 41.0501L45.4751 42.8251Z" fill="black"/>
<path d="M41.0501 18.9502C40.3251 18.2252 40.3251 17.0252 41.0501 16.3002L42.8251 14.5252C43.5501 13.8002 44.7501 13.8002 45.4751 14.5252C46.2001 15.2752 46.2001 16.4502 45.4751 17.1752L43.7001 18.9502C43.3251 19.3252 42.8501 19.5002 42.3751 19.5002C41.9001 19.5002 41.4251 19.3252 41.0501 18.9502Z" fill="black"/>
<path d="M51.8751 30C51.8751 31.025 51.0251 31.875 50.0001 31.875H47.5001C46.4751 31.875 45.6251 31.025 45.6251 30C45.6251 28.975 46.4751 28.125 47.5001 28.125H50.0001C51.0251 28.125 51.8751 28.975 51.8751 30Z" fill="black"/>
</svg>
